  0
SECTION
  2
HEADER
  9
$ACADVER
  1
AC1014
  9
$HANDSEED
  5
FFFF
  9
$MEASUREMENT
 70
     1
  0
ENDSEC
  0
SECTION
  2
TABLES
  0
TABLE
  2
VPORT
  5
8
330
0
100
AcDbSymbolTable
 70
     4
  0
VPORT
  5
2E
330
8
100
AcDbSymbolTableRecord
100
AcDbViewportTableRecord
  2
*ACTIVE
 70
     0
 10
0.0
 20
0.0
 11
1.0
 21
1.0
 12
210.0
 22
148.5
 13
0.0
 23
0.0
 14
10.0
 24
10.0
 15
10.0
 25
10.0
 16
0.0
 26
0.0
 36
1.0
 17
0.0
 27
0.0
 37
0.0
 40
341.0
 41
1.24
 42
50.0
 43
0.0
 44
0.0
 50
0.0
 51
0.0
 71
     0
 72
   100
 73
     1
 74
     3
 75
     0
 76
     0
 77
     0
 78
     0
  0
ENDTAB
  0
TABLE
  2
LTYPE
  5
5
330
0
100
AcDbSymbolTable
 70
     1
  0
LTYPE
  5
14
330
5
100
AcDbSymbolTableRecord
100
AcDbLinetypeTableRecord
  2
BYBLOCK
 70
     0
  3

 72
    65
 73
     0
 40
0.0
  0
LTYPE
  5
15
330
5
100
AcDbSymbolTableRecord
100
AcDbLinetypeTableRecord
  2
BYLAYER
 70
     0
  3

 72
    65
 73
     0
 40
0.0
  0
LTYPE
  5
16
330
5
100
AcDbSymbolTableRecord
100
AcDbLinetypeTableRecord
  2
CONTINUOUS
 70
     0
  3
Solid line
 72
    65
 73
     0
 40
0.0
  0
ENDTAB
  0
TABLE
  2
LAYER
  5
2
100
AcDbSymbolTable
 70
6
  0
LAYER
  5
50
100
AcDbSymbolTableRecord
100
AcDbLayerTableRecord
  2
0
 70
0
  6
CONTINUOUS
  0
LAYER
  5
51
100
AcDbSymbolTableRecord
100
AcDbLayerTableRecord
  2
rings
 70
0
  6
CONTINUOUS
  0
LAYER
  5
52
100
AcDbSymbolTableRecord
100
AcDbLayerTableRecord
  2
F.SilkS
 70
0
  6
CONTINUOUS
  0
LAYER
  5
53
100
AcDbSymbolTableRecord
100
AcDbLayerTableRecord
  2
F.Cu
 70
0
  6
CONTINUOUS
  0
LAYER
  5
54
100
AcDbSymbolTableRecord
100
AcDbLayerTableRecord
  2
F.Mask
 70
0
  6
CONTINUOUS
  0
LAYER
  5
55
100
AcDbSymbolTableRecord
100
AcDbLayerTableRecord
  2
Edge.Cuts
 70
0
  6
CONTINUOUS
  0
ENDTAB
  0
TABLE
  2
STYLE
  5
3
330
0
100
AcDbSymbolTable
 70
     1
  0
STYLE
  5
11
330
3
100
AcDbSymbolTableRecord
100
AcDbTextStyleTableRecord
  2
STANDARD
 70
     0
 40
0.0
 41
1.0
 50
0.0
 71
     0
 42
2.5
  3
txt
  4

  0
ENDTAB
  0
TABLE
  2
VIEW
  5
6
330
0
100
AcDbSymbolTable
 70
     0
  0
ENDTAB
  0
TABLE
  2
UCS
  5
7
330
0
100
AcDbSymbolTable
 70
     0
  0
ENDTAB
  0
TABLE
  2
APPID
  5
9
330
0
100
AcDbSymbolTable
 70
     2
  0
APPID
  5
12
330
9
100
AcDbSymbolTableRecord
100
AcDbRegAppTableRecord
  2
ACAD
 70
     0
  0
ENDTAB
  0
TABLE
  2
DIMSTYLE
  5
A
330
0
100
AcDbSymbolTable
 70
     1
  0
DIMSTYLE
105
27
330
A
100
AcDbSymbolTableRecord
100
AcDbDimStyleTableRecord
  2
ISO-25
 70
     0
  3

  4

  5

  6

  7

 40
1.0
 41
2.5
 42
0.625
 43
3.75
 44
1.25
 45
0.0
 46
0.0
 47
0.0
 48
0.0
140
2.5
141
2.5
142
0.0
143
0.03937007874016
144
1.0
145
0.0
146
1.0
147
0.625
 71
     0
 72
     0
 73
     0
 74
     0
 75
     0
 76
     0
 77
     1
 78
     8
170
     0
171
     3
172
     1
173
     0
174
     0
175
     0
176
     0
177
     0
178
     0
270
     2
271
     2
272
     2
273
     2
274
     3
340
11
275
     0
280
     0
281
     0
282
     0
283
     0
284
     8
285
     0
286
     0
287
     3
288
     0
  0
ENDTAB
  0
TABLE
  2
BLOCK_RECORD
  5
1
330
0
100
AcDbSymbolTable
 70
     1
  0
BLOCK_RECORD
  5
1F
330
1
100
AcDbSymbolTableRecord
100
AcDbBlockTableRecord
  2
*MODEL_SPACE
  0
BLOCK_RECORD
  5
1B
330
1
100
AcDbSymbolTableRecord
100
AcDbBlockTableRecord
  2
*PAPER_SPACE
  0
ENDTAB
  0
ENDSEC
  0
SECTION
  2
BLOCKS
  0
BLOCK
  5
20
330
1F
100
AcDbEntity
  8
0
100
AcDbBlockBegin
  2
*MODEL_SPACE
 70
     0
 10
0.0
 20
0.0
 30
0.0
  3
*MODEL_SPACE
  1

  0
ENDBLK
  5
21
330
1F
100
AcDbEntity
  8
0
100
AcDbBlockEnd
  0
BLOCK
  5
1C
330
1B
100
AcDbEntity
 67
     1
  8
0
100
AcDbBlockBegin
  2
*PAPER_SPACE
  1

  0
ENDBLK
  5
1D
330
1B
100
AcDbEntity
 67
     1
  8
0
100
AcDbBlockEnd
  0
ENDSEC
  0
SECTION
  2
ENTITIES
  0
LWPOLYLINE
  5
100
100
AcDbEntity
  8
Edge.Cuts
 62
1
100
AcDbPolyline
 90
4
 70
1
 10
0.000000
 20
0.000450
 30
0.0
 10
70.799907
 20
0.000450
 30
0.0
 10
70.799907
 20
128.499884
 30
0.0
 10
0.000000
 20
128.499884
 30
0.0
  0
LWPOLYLINE
  5
101
100
AcDbEntity
  8
Edge.Cuts
 62
1
100
AcDbPolyline
 90
65
 70
0
 10
5.889735
 20
3.008676
 30
0.0
 10
5.905139
 20
2.846131
 30
0.0
 10
5.935638
 20
2.688177
 30
0.0
 10
5.980489
 20
2.535627
 30
0.0
 10
6.038943
 20
2.389299
 30
0.0
 10
6.110258
 20
2.250001
 30
0.0
 10
6.193685
 20
2.118549
 30
0.0
 10
6.288479
 20
1.995758
 30
0.0
 10
6.393896
 20
1.882435
 30
0.0
 10
6.509191
 20
1.779400
 30
0.0
 10
6.633615
 20
1.687462
 30
0.0
 10
6.766425
 20
1.607438
 30
0.0
 10
6.906873
 20
1.540143
 30
0.0
 10
7.054217
 20
1.486383
 30
0.0
 10
7.207707
 20
1.446978
 30
0.0
 10
7.366602
 20
1.422738
 30
0.0
 10
7.530149
 20
1.414476
 30
0.0
 10
7.693817
 20
1.422738
 30
0.0
 10
7.852760
 20
1.446988
 30
0.0
 10
8.006172
 20
1.486425
 30
0.0
 10
8.153252
 20
1.540242
 30
0.0
 10
8.293192
 20
1.607633
 30
0.0
 10
8.425187
 20
1.687798
 30
0.0
 10
8.548433
 20
1.779932
 30
0.0
 10
8.662123
 20
1.883229
 30
0.0
 10
8.765451
 20
1.996887
 30
0.0
 10
8.857618
 20
2.120101
 30
0.0
 10
8.937811
 20
2.252065
 30
0.0
 10
9.005230
 20
2.391976
 30
0.0
 10
9.059071
 20
2.539035
 30
0.0
 10
9.098522
 20
2.692431
 30
0.0
 10
9.122786
 20
2.851363
 30
0.0
 10
9.131052
 20
3.015026
 30
0.0
 10
9.122786
 20
3.178566
 30
0.0
 10
9.098522
 20
3.337389
 30
0.0
 10
9.059071
 20
3.490690
 30
0.0
 10
9.005230
 20
3.637668
 30
0.0
 10
8.937811
 20
3.777512
 30
0.0
 10
8.857618
 20
3.909419
 30
0.0
 10
8.765451
 20
4.032587
 30
0.0
 10
8.662123
 20
4.146206
 30
0.0
 10
8.548433
 20
4.249475
 30
0.0
 10
8.425187
 20
4.341585
 30
0.0
 10
8.293192
 20
4.421736
 30
0.0
 10
8.153252
 20
4.489116
 30
0.0
 10
8.006172
 20
4.542925
 30
0.0
 10
7.852760
 20
4.582359
 30
0.0
 10
7.693817
 20
4.606609
 30
0.0
 10
7.530149
 20
4.614871
 30
0.0
 10
7.366609
 20
4.606609
 30
0.0
 10
7.207785
 20
4.582359
 30
0.0
 10
7.054486
 20
4.542925
 30
0.0
 10
6.907508
 20
4.489116
 30
0.0
 10
6.767664
 20
4.421736
 30
0.0
 10
6.635757
 20
4.341585
 30
0.0
 10
6.512588
 20
4.249475
 30
0.0
 10
6.398969
 20
4.146206
 30
0.0
 10
6.295701
 20
4.032587
 30
0.0
 10
6.203590
 20
3.909419
 30
0.0
 10
6.123441
 20
3.777512
 30
0.0
 10
6.056059
 20
3.637668
 30
0.0
 10
6.002249
 20
3.490690
 30
0.0
 10
5.962817
 20
3.337389
 30
0.0
 10
5.938567
 20
3.178566
 30
0.0
 10
5.930305
 20
3.015026
 30
0.0
  0
LWPOLYLINE
  5
102
100
AcDbEntity
  8
Edge.Cuts
 62
1
100
AcDbPolyline
 90
65
 70
0
 10
61.817561
 20
3.008676
 30
0.0
 10
61.826312
 20
2.846131
 30
0.0
 10
61.850976
 20
2.688177
 30
0.0
 10
61.890754
 20
2.535627
 30
0.0
 10
61.944848
 20
2.389299
 30
0.0
 10
62.012460
 20
2.250001
 30
0.0
 10
62.092794
 20
2.118549
 30
0.0
 10
62.185049
 20
1.995758
 30
0.0
 10
62.288431
 20
1.882435
 30
0.0
 10
62.402138
 20
1.779400
 30
0.0
 10
62.525377
 20
1.687462
 30
0.0
 10
62.657344
 20
1.607438
 30
0.0
 10
62.797245
 20
1.540143
 30
0.0
 10
62.944282
 20
1.486383
 30
0.0
 10
63.097659
 20
1.446978
 30
0.0
 10
63.256571
 20
1.422738
 30
0.0
 10
63.420228
 20
1.414476
 30
0.0
 10
63.583892
 20
1.422738
 30
0.0
 10
63.742825
 20
1.446988
 30
0.0
 10
63.896220
 20
1.486425
 30
0.0
 10
64.043275
 20
1.540242
 30
0.0
 10
64.183190
 20
1.607633
 30
0.0
 10
64.315153
 20
1.687798
 30
0.0
 10
64.438368
 20
1.779932
 30
0.0
 10
64.552025
 20
1.883229
 30
0.0
 10
64.655322
 20
1.996887
 30
0.0
 10
64.747457
 20
2.120101
 30
0.0
 10
64.827622
 20
2.252065
 30
0.0
 10
64.895013
 20
2.391976
 30
0.0
 10
64.948829
 20
2.539035
 30
0.0
 10
64.988266
 20
2.692431
 30
0.0
 10
65.012516
 20
2.851363
 30
0.0
 10
65.020778
 20
3.015026
 30
0.0
 10
65.012516
 20
3.178566
 30
0.0
 10
64.988266
 20
3.337389
 30
0.0
 10
64.948829
 20
3.490690
 30
0.0
 10
64.895013
 20
3.637668
 30
0.0
 10
64.827622
 20
3.777512
 30
0.0
 10
64.747457
 20
3.909419
 30
0.0
 10
64.655322
 20
4.032587
 30
0.0
 10
64.552025
 20
4.146206
 30
0.0
 10
64.438368
 20
4.249475
 30
0.0
 10
64.315153
 20
4.341585
 30
0.0
 10
64.183190
 20
4.421736
 30
0.0
 10
64.043275
 20
4.489116
 30
0.0
 10
63.896220
 20
4.542925
 30
0.0
 10
63.742825
 20
4.582359
 30
0.0
 10
63.583892
 20
4.606609
 30
0.0
 10
63.420228
 20
4.614871
 30
0.0
 10
63.256571
 20
4.606609
 30
0.0
 10
63.097663
 20
4.582359
 30
0.0
 10
62.944300
 20
4.542925
 30
0.0
 10
62.797290
 20
4.489116
 30
0.0
 10
62.657428
 20
4.421736
 30
0.0
 10
62.525525
 20
4.341585
 30
0.0
 10
62.402374
 20
4.249475
 30
0.0
 10
62.288783
 20
4.146206
 30
0.0
 10
62.185550
 20
4.032587
 30
0.0
 10
62.093483
 20
3.909419
 30
0.0
 10
62.013377
 20
3.777512
 30
0.0
 10
61.946038
 20
3.637668
 30
0.0
 10
61.892267
 20
3.490690
 30
0.0
 10
61.852867
 20
3.337389
 30
0.0
 10
61.828638
 20
3.178566
 30
0.0
 10
61.820384
 20
3.015026
 30
0.0
  0
LWPOLYLINE
  5
103
100
AcDbEntity
  8
Edge.Cuts
 62
1
100
AcDbPolyline
 90
129
 70
0
 10
58.216050
 20
17.413133
 30
0.0
 10
58.221912
 20
17.248709
 30
0.0
 10
58.235858
 20
17.086431
 30
0.0
 10
58.257693
 20
16.926502
 30
0.0
 10
58.287218
 20
16.769121
 30
0.0
 10
58.324237
 20
16.614495
 30
0.0
 10
58.368552
 20
16.462819
 30
0.0
 10
58.419965
 20
16.314296
 30
0.0
 10
58.478279
 20
16.169132
 30
0.0
 10
58.543298
 20
16.027523
 30
0.0
 10
58.614822
 20
15.889672
 30
0.0
 10
58.692659
 20
15.755786
 30
0.0
 10
58.776603
 20
15.626059
 30
0.0
 10
58.866465
 20
15.500693
 30
0.0
 10
58.962043
 20
15.379895
 30
0.0
 10
59.063142
 20
15.263867
 30
0.0
 10
59.169561
 20
15.152802
 30
0.0
 10
59.281109
 20
15.046909
 30
0.0
 10
59.397582
 20
14.946385
 30
0.0
 10
59.518789
 20
14.851435
 30
0.0
 10
59.644526
 20
14.762260
 30
0.0
 10
59.774599
 20
14.679061
 30
0.0
 10
59.908813
 20
14.602039
 30
0.0
 10
60.046964
 20
14.531395
 30
0.0
 10
60.188861
 20
14.467334
 30
0.0
 10
60.334308
 20
14.410054
 30
0.0
 10
60.483099
 20
14.359755
 30
0.0
 10
60.635047
 20
14.316642
 30
0.0
 10
60.789944
 20
14.280920
 30
0.0
 10
60.947600
 20
14.252782
 30
0.0
 10
61.107818
 20
14.232434
 30
0.0
 10
61.270398
 20
14.220077
 30
0.0
 10
61.435142
 20
14.215914
 30
0.0
 10
61.599825
 20
14.220077
 30
0.0
 10
61.762343
 20
14.232434
 30
0.0
 10
61.922503
 20
14.252782
 30
0.0
 10
62.080089
 20
14.280924
 30
0.0
 10
62.234923
 20
14.316656
 30
0.0
 10
62.386794
 20
14.359776
 30
0.0
 10
62.535489
 20
14.410086
 30
0.0
 10
62.680833
 20
14.467384
 30
0.0
 10
62.822579
 20
14.531466
 30
0.0
 10
62.960586
 20
14.602138
 30
0.0
 10
63.094606
 20
14.679191
 30
0.0
 10
63.224463
 20
14.762429
 30
0.0
 10
63.349946
 20
14.851650
 30
0.0
 10
63.470842
 20
14.946653
 30
0.0
 10
63.586977
 20
15.047237
 30
0.0
 10
63.698102
 20
15.153197
 30
0.0
 10
63.804076
 20
15.264343
 30
0.0
 10
63.904688
 20
15.380463
 30
0.0
 10
63.999691
 20
15.501360
 30
0.0
 10
64.088943
 20
15.626832
 30
0.0
 10
64.172163
 20
15.756682
 30
0.0
 10
64.249245
 20
15.890706
 30
0.0
 10
64.319907
 20
16.028702
 30
0.0
 10
64.384006
 20
16.170469
 30
0.0
 10
64.441332
 20
16.315809
 30
0.0
 10
64.491638
 20
16.464519
 30
0.0
 10
64.534783
 20
16.616400
 30
0.0
 10
64.570519
 20
16.771248
 30
0.0
 10
64.598671
 20
16.928865
 30
0.0
 10
64.619026
 20
17.089047
 30
0.0
 10
64.631373
 20
17.251595
 30
0.0
 10
64.635536
 20
17.416308
 30
0.0
 10
64.631373
 20
17.580989
 30
0.0
 10
64.619026
 20
17.743507
 30
0.0
 10
64.598671
 20
17.903663
 30
0.0
 10
64.570519
 20
18.061252
 30
0.0
 10
64.534783
 20
18.216075
 30
0.0
 10
64.491638
 20
18.367932
 30
0.0
 10
64.441332
 20
18.516620
 30
0.0
 10
64.384006
 20
18.661943
 30
0.0
 10
64.319907
 20
18.803693
 30
0.0
 10
64.249245
 20
18.941674
 30
0.0
 10
64.172163
 20
19.075680
 30
0.0
 10
64.088943
 20
19.205516
 30
0.0
 10
63.999691
 20
19.330978
 30
0.0
 10
63.904688
 20
19.451864
 30
0.0
 10
63.804076
 20
19.567974
 30
0.0
 10
63.698102
 20
19.679109
 30
0.0
 10
63.586977
 20
19.785066
 30
0.0
 10
63.470842
 20
19.885642
 30
0.0
 10
63.349946
 20
19.980638
 30
0.0
 10
63.224463
 20
20.069852
 30
0.0
 10
63.094606
 20
20.153086
 30
0.0
 10
62.960586
 20
20.230136
 30
0.0
 10
62.822579
 20
20.300805
 30
0.0
 10
62.680833
 20
20.364887
 30
0.0
 10
62.535489
 20
20.422181
 30
0.0
 10
62.386794
 20
20.472491
 30
0.0
 10
62.234923
 20
20.515607
 30
0.0
 10
62.080089
 20
20.551340
 30
0.0
 10
61.922503
 20
20.579481
 30
0.0
 10
61.762343
 20
20.599829
 30
0.0
 10
61.599825
 20
20.612187
 30
0.0
 10
61.435142
 20
20.616350
 30
0.0
 10
61.270398
 20
20.612187
 30
0.0
 10
61.107825
 20
20.599829
 30
0.0
 10
60.947618
 20
20.579481
 30
0.0
 10
60.789983
 20
20.551340
 30
0.0
 10
60.635117
 20
20.515607
 30
0.0
 10
60.483222
 20
20.472491
 30
0.0
 10
60.334502
 20
20.422181
 30
0.0
 10
60.189154
 20
20.364887
 30
0.0
 10
60.047380
 20
20.300805
 30
0.0
 10
59.909381
 20
20.230136
 30
0.0
 10
59.775361
 20
20.153086
 30
0.0
 10
59.645510
 20
20.069852
 30
0.0
 10
59.520042
 20
19.980638
 30
0.0
 10
59.399148
 20
19.885642
 30
0.0
 10
59.283035
 20
19.785066
 30
0.0
 10
59.171900
 20
19.679109
 30
0.0
 10
59.065947
 20
19.567974
 30
0.0
 10
58.965370
 20
19.451864
 30
0.0
 10
58.870378
 20
19.330978
 30
0.0
 10
58.781167
 20
19.205516
 30
0.0
 10
58.697940
 20
19.075680
 30
0.0
 10
58.620897
 20
18.941674
 30
0.0
 10
58.550240
 20
18.803693
 30
0.0
 10
58.486167
 20
18.661943
 30
0.0
 10
58.428880
 20
18.516620
 30
0.0
 10
58.378580
 20
18.367932
 30
0.0
 10
58.335468
 20
18.216075
 30
0.0
 10
58.299744
 20
18.061252
 30
0.0
 10
58.271609
 20
17.903663
 30
0.0
 10
58.251264
 20
17.743507
 30
0.0
 10
58.238910
 20
17.580989
 30
0.0
 10
58.234747
 20
17.416308
 30
0.0
  0
LWPOLYLINE
  5
104
100
AcDbEntity
  8
Edge.Cuts
 62
1
100
AcDbPolyline
 90
129
 70
0
 10
45.208595
 20
17.413133
 30
0.0
 10
45.214876
 20
17.248709
 30
0.0
 10
45.229222
 20
17.086431
 30
0.0
 10
45.251435
 20
16.926502
 30
0.0
 10
45.281320
 20
16.769121
 30
0.0
 10
45.318679
 20
16.614495
 30
0.0
 10
45.363315
 20
16.462819
 30
0.0
 10
45.415031
 20
16.314296
 30
0.0
 10
45.473629
 20
16.169132
 30
0.0
 10
45.538914
 20
16.027523
 30
0.0
 10
45.610686
 20
15.889672
 30
0.0
 10
45.688753
 20
15.755786
 30
0.0
 10
45.772911
 20
15.626059
 30
0.0
 10
45.862972
 20
15.500693
 30
0.0
 10
45.958729
 20
15.379895
 30
0.0
 10
46.059991
 20
15.263867
 30
0.0
 10
46.166561
 20
15.152802
 30
0.0
 10
46.278240
 20
15.046909
 30
0.0
 10
46.394832
 20
14.946385
 30
0.0
 10
46.516138
 20
14.851435
 30
0.0
 10
46.641967
 20
14.762260
 30
0.0
 10
46.772114
 20
14.679061
 30
0.0
 10
46.906388
 20
14.602039
 30
0.0
 10
47.044585
 20
14.531395
 30
0.0
 10
47.186517
 20
14.467334
 30
0.0
 10
47.331981
 20
14.410054
 30
0.0
 10
47.480783
 20
14.359755
 30
0.0
 10
47.632724
 20
14.316642
 30
0.0
 10
47.787607
 20
14.280920
 30
0.0
 10
47.945235
 20
14.252782
 30
0.0
 10
48.105414
 20
14.232434
 30
0.0
 10
48.267942
 20
14.220077
 30
0.0
 10
48.432625
 20
14.215914
 30
0.0
 10
48.597277
 20
14.220077
 30
0.0
 10
48.759755
 20
14.232434
 30
0.0
 10
48.919916
 20
14.252782
 30
0.0
 10
49.077466
 20
14.280924
 30
0.0
 10
49.232300
 20
14.316656
 30
0.0
 10
49.384136
 20
14.359776
 30
0.0
 10
49.532831
 20
14.410086
 30
0.0
 10
49.678175
 20
14.467384
 30
0.0
 10
49.819921
 20
14.531466
 30
0.0
 10
49.957928
 20
14.602138
 30
0.0
 10
50.091948
 20
14.679191
 30
0.0
 10
50.221805
 20
14.762429
 30
0.0
 10
50.347288
 20
14.851650
 30
0.0
 10
50.468185
 20
14.946653
 30
0.0
 10
50.584319
 20
15.047237
 30
0.0
 10
50.695479
 20
15.153197
 30
0.0
 10
50.801453
 20
15.264343
 30
0.0
 10
50.902065
 20
15.380463
 30
0.0
 10
50.997068
 20
15.501360
 30
0.0
 10
51.086321
 20
15.626832
 30
0.0
 10
51.169576
 20
15.756682
 30
0.0
 10
51.246658
 20
15.890706
 30
0.0
 10
51.317354
 20
16.028702
 30
0.0
 10
51.381454
 20
16.170469
 30
0.0
 10
51.438780
 20
16.315809
 30
0.0
 10
51.489086
 20
16.464519
 30
0.0
 10
51.532231
 20
16.616400
 30
0.0
 10
51.567967
 20
16.771248
 30
0.0
 10
51.596119
 20
16.928865
 30
0.0
 10
51.616474
 20
17.089047
 30
0.0
 10
51.628857
 20
17.251595
 30
0.0
 10
51.633019
 20
17.416308
 30
0.0
 10
51.628857
 20
17.580989
 30
0.0
 10
51.616474
 20
17.743507
 30
0.0
 10
51.596119
 20
17.903663
 30
0.0
 10
51.567967
 20
18.061252
 30
0.0
 10
51.532231
 20
18.216075
 30
0.0
 10
51.489086
 20
18.367932
 30
0.0
 10
51.438780
 20
18.516620
 30
0.0
 10
51.381454
 20
18.661943
 30
0.0
 10
51.317354
 20
18.803693
 30
0.0
 10
51.246658
 20
18.941674
 30
0.0
 10
51.169576
 20
19.075680
 30
0.0
 10
51.086321
 20
19.205516
 30
0.0
 10
50.997068
 20
19.330978
 30
0.0
 10
50.902065
 20
19.451864
 30
0.0
 10
50.801453
 20
19.567974
 30
0.0
 10
50.695479
 20
19.679109
 30
0.0
 10
50.584319
 20
19.785066
 30
0.0
 10
50.468185
 20
19.885642
 30
0.0
 10
50.347288
 20
19.980638
 30
0.0
 10
50.221805
 20
20.069852
 30
0.0
 10
50.091948
 20
20.153086
 30
0.0
 10
49.957928
 20
20.230136
 30
0.0
 10
49.819921
 20
20.300805
 30
0.0
 10
49.678175
 20
20.364887
 30
0.0
 10
49.532831
 20
20.422181
 30
0.0
 10
49.384136
 20
20.472491
 30
0.0
 10
49.232300
 20
20.515607
 30
0.0
 10
49.077466
 20
20.551340
 30
0.0
 10
48.919916
 20
20.579481
 30
0.0
 10
48.759755
 20
20.599829
 30
0.0
 10
48.597277
 20
20.612187
 30
0.0
 10
48.432625
 20
20.616350
 30
0.0
 10
48.267942
 20
20.612187
 30
0.0
 10
48.105417
 20
20.599829
 30
0.0
 10
47.945253
 20
20.579481
 30
0.0
 10
47.787653
 20
20.551340
 30
0.0
 10
47.632812
 20
20.515607
 30
0.0
 10
47.480935
 20
20.472491
 30
0.0
 10
47.332225
 20
20.422181
 30
0.0
 10
47.186881
 20
20.364887
 30
0.0
 10
47.045103
 20
20.300805
 30
0.0
 10
46.907097
 20
20.230136
 30
0.0
 10
46.773059
 20
20.153086
 30
0.0
 10
46.643195
 20
20.069852
 30
0.0
 10
46.517701
 20
19.980638
 30
0.0
 10
46.396780
 20
19.885642
 30
0.0
 10
46.280639
 20
19.785066
 30
0.0
 10
46.169471
 20
19.679109
 30
0.0
 10
46.063483
 20
19.567974
 30
0.0
 10
45.962874
 20
19.451864
 30
0.0
 10
45.867843
 20
19.330978
 30
0.0
 10
45.778598
 20
19.205516
 30
0.0
 10
45.695332
 20
19.075680
 30
0.0
 10
45.618254
 20
18.941674
 30
0.0
 10
45.547559
 20
18.803693
 30
0.0
 10
45.483452
 20
18.661943
 30
0.0
 10
45.426133
 20
18.516620
 30
0.0
 10
45.375804
 20
18.367932
 30
0.0
 10
45.332665
 20
18.216075
 30
0.0
 10
45.296918
 20
18.061252
 30
0.0
 10
45.268765
 20
17.903663
 30
0.0
 10
45.248407
 20
17.743507
 30
0.0
 10
45.236044
 20
17.580989
 30
0.0
 10
45.231878
 20
17.416308
 30
0.0
  0
LWPOLYLINE
  5
105
100
AcDbEntity
  8
Edge.Cuts
 62
1
100
AcDbPolyline
 90
129
 70
0
 10
32.201403
 20
17.413133
 30
0.0
 10
32.208133
 20
17.248709
 30
0.0
 10
32.222900
 20
17.086431
 30
0.0
 10
32.245507
 20
16.926502
 30
0.0
 10
32.275759
 20
16.769121
 30
0.0
 10
32.313459
 20
16.614495
 30
0.0
 10
32.358412
 20
16.462819
 30
0.0
 10
32.410420
 20
16.314296
 30
0.0
 10
32.469288
 20
16.169132
 30
0.0
 10
32.534820
 20
16.027523
 30
0.0
 10
32.606819
 20
15.889672
 30
0.0
 10
32.685089
 20
15.755786
 30
0.0
 10
32.769435
 20
15.626059
 30
0.0
 10
32.859661
 20
15.500693
 30
0.0
 10
32.955567
 20
15.379895
 30
0.0
 10
33.056962
 20
15.263867
 30
0.0
 10
33.163646
 20
15.152802
 30
0.0
 10
33.275427
 20
15.046909
 30
0.0
 10
33.392104
 20
14.946385
 30
0.0
 10
33.513481
 20
14.851435
 30
0.0
 10
33.639366
 20
14.762260
 30
0.0
 10
33.769561
 20
14.679061
 30
0.0
 10
33.903867
 20
14.602039
 30
0.0
 10
34.042092
 20
14.531395
 30
0.0
 10
34.184039
 20
14.467334
 30
0.0
 10
34.329511
 20
14.410054
 30
0.0
 10
34.478308
 20
14.359755
 30
0.0
 10
34.630239
 20
14.316642
 30
0.0
 10
34.785108
 20
14.280920
 30
0.0
 10
34.942715
 20
14.252782
 30
0.0
 10
35.102869
 20
14.232434
 30
0.0
 10
35.265368
 20
14.220077
 30
0.0
 10
35.430020
 20
14.215914
 30
0.0
 10
35.594763
 20
14.220077
 30
0.0
 10
35.757327
 20
14.232434
 30
0.0
 10
35.917558
 20
14.252782
 30
0.0
 10
36.075179
 20
14.280924
 30
0.0
 10
36.230083
 20
14.316656
 30
0.0
 10
36.381954
 20
14.359776
 30
0.0
 10
36.530720
 20
14.410086
 30
0.0
 10
36.676064
 20
14.467384
 30
0.0
 10
36.817845
 20
14.531466
 30
0.0
 10
36.955852
 20
14.602138
 30
0.0
 10
37.089907
 20
14.679191
 30
0.0
 10
37.219764
 20
14.762429
 30
0.0
 10
37.345247
 20
14.851650
 30
0.0
 10
37.466144
 20
14.946653
 30
0.0
 10
37.582278
 20
15.047237
 30
0.0
 10
37.693438
 20
15.153197
 30
0.0
 10
37.799413
 20
15.264343
 30
0.0
 10
37.899989
 20
15.380463
 30
0.0
 10
37.994992
 20
15.501360
 30
0.0
 10
38.084245
 20
15.626832
 30
0.0
 10
38.167465
 20
15.756682
 30
0.0
 10
38.244547
 20
15.890706
 30
0.0
 10
38.315208
 20
16.028702
 30
0.0
 10
38.379308
 20
16.170469
 30
0.0
 10
38.436599
 20
16.315809
 30
0.0
 10
38.486905
 20
16.464519
 30
0.0
 10
38.530014
 20
16.616400
 30
0.0
 10
38.565750
 20
16.771248
 30
0.0
 10
38.593902
 20
16.928865
 30
0.0
 10
38.614257
 20
17.089047
 30
0.0
 10
38.626605
 20
17.251595
 30
0.0
 10
38.630767
 20
17.416308
 30
0.0
 10
38.626605
 20
17.580989
 30
0.0
 10
38.614257
 20
17.743507
 30
0.0
 10
38.593902
 20
17.903663
 30
0.0
 10
38.565750
 20
18.061252
 30
0.0
 10
38.530014
 20
18.216075
 30
0.0
 10
38.486905
 20
18.367932
 30
0.0
 10
38.436599
 20
18.516620
 30
0.0
 10
38.379308
 20
18.661943
 30
0.0
 10
38.315208
 20
18.803693
 30
0.0
 10
38.244547
 20
18.941674
 30
0.0
 10
38.167465
 20
19.075680
 30
0.0
 10
38.084245
 20
19.205516
 30
0.0
 10
37.994992
 20
19.330978
 30
0.0
 10
37.899989
 20
19.451864
 30
0.0
 10
37.799413
 20
19.567974
 30
0.0
 10
37.693438
 20
19.679109
 30
0.0
 10
37.582278
 20
19.785066
 30
0.0
 10
37.466144
 20
19.885642
 30
0.0
 10
37.345247
 20
19.980638
 30
0.0
 10
37.219764
 20
20.069852
 30
0.0
 10
37.089907
 20
20.153086
 30
0.0
 10
36.955852
 20
20.230136
 30
0.0
 10
36.817845
 20
20.300805
 30
0.0
 10
36.676064
 20
20.364887
 30
0.0
 10
36.530720
 20
20.422181
 30
0.0
 10
36.381954
 20
20.472491
 30
0.0
 10
36.230083
 20
20.515607
 30
0.0
 10
36.075179
 20
20.551340
 30
0.0
 10
35.917558
 20
20.579481
 30
0.0
 10
35.757327
 20
20.599829
 30
0.0
 10
35.594763
 20
20.612187
 30
0.0
 10
35.430020
 20
20.616350
 30
0.0
 10
35.265368
 20
20.612187
 30
0.0
 10
35.102876
 20
20.599829
 30
0.0
 10
34.942740
 20
20.579481
 30
0.0
 10
34.785165
 20
20.551340
 30
0.0
 10
34.630348
 20
20.515607
 30
0.0
 10
34.478495
 20
20.472491
 30
0.0
 10
34.329803
 20
20.422181
 30
0.0
 10
34.184480
 20
20.364887
 30
0.0
 10
34.042720
 20
20.300805
 30
0.0
 10
33.904728
 20
20.230136
 30
0.0
 10
33.770708
 20
20.153086
 30
0.0
 10
33.640854
 20
20.069852
 30
0.0
 10
33.515375
 20
19.980638
 30
0.0
 10
33.394468
 20
19.885642
 30
0.0
 10
33.278333
 20
19.785066
 30
0.0
 10
33.167173
 20
19.679109
 30
0.0
 10
33.061196
 20
19.567974
 30
0.0
 10
32.960591
 20
19.451864
 30
0.0
 10
32.865570
 20
19.330978
 30
0.0
 10
32.776328
 20
19.205516
 30
0.0
 10
32.693065
 20
19.075680
 30
0.0
 10
32.615991
 20
18.941674
 30
0.0
 10
32.545299
 20
18.803693
 30
0.0
 10
32.481194
 20
18.661943
 30
0.0
 10
32.423877
 20
18.516620
 30
0.0
 10
32.373549
 20
18.367932
 30
0.0
 10
32.330412
 20
18.216075
 30
0.0
 10
32.294665
 20
18.061252
 30
0.0
 10
32.266513
 20
17.903663
 30
0.0
 10
32.246154
 20
17.743507
 30
0.0
 10
32.233791
 20
17.580989
 30
0.0
 10
32.229626
 20
17.416308
 30
0.0
  0
LWPOLYLINE
  5
106
100
AcDbEntity
  8
Edge.Cuts
 62
1
100
AcDbPolyline
 90
129
 70
0
 10
19.193339
 20
17.413133
 30
0.0
 10
19.200645
 20
17.248709
 30
0.0
 10
19.215949
 20
17.086431
 30
0.0
 10
19.239058
 20
16.926502
 30
0.0
 10
19.269776
 20
16.769121
 30
0.0
 10
19.307909
 20
16.614495
 30
0.0
 10
19.353261
 20
16.462819
 30
0.0
 10
19.405638
 20
16.314296
 30
0.0
 10
19.464845
 20
16.169132
 30
0.0
 10
19.530688
 20
16.027523
 30
0.0
 10
19.602970
 20
15.889672
 30
0.0
 10
19.681498
 20
15.755786
 30
0.0
 10
19.766080
 20
15.626059
 30
0.0
 10
19.856514
 20
15.500693
 30
0.0
 10
19.952611
 20
15.379895
 30
0.0
 10
20.054172
 20
15.263867
 30
0.0
 10
20.161007
 20
15.152802
 30
0.0
 10
20.272919
 20
15.046909
 30
0.0
 10
20.389709
 20
14.946385
 30
0.0
 10
20.511191
 20
14.851435
 30
0.0
 10
20.637161
 20
14.762260
 30
0.0
 10
20.767431
 20
14.679061
 30
0.0
 10
20.901804
 20
14.602039
 30
0.0
 10
21.040085
 20
14.531395
 30
0.0
 10
21.182078
 20
14.467334
 30
0.0
 10
21.327588
 20
14.410054
 30
0.0
 10
21.476421
 20
14.359755
 30
0.0
 10
21.628384
 20
14.316642
 30
0.0
 10
21.783281
 20
14.280920
 30
0.0
 10
21.940916
 20
14.252782
 30
0.0
 10
22.101094
 20
14.232434
 30
0.0
 10
22.263622
 20
14.220077
 30
0.0
 10
22.428306
 20
14.215914
 30
0.0
 10
22.592989
 20
14.220077
 30
0.0
 10
22.755507
 20
14.232434
 30
0.0
 10
22.915668
 20
14.252782
 30
0.0
 10
23.073253
 20
14.280924
 30
0.0
 10
23.228087
 20
14.316656
 30
0.0
 10
23.379958
 20
14.359776
 30
0.0
 10
23.528653
 20
14.410086
 30
0.0
 10
23.673997
 20
14.467384
 30
0.0
 10
23.815743
 20
14.531466
 30
0.0
 10
23.953750
 20
14.602138
 30
0.0
 10
24.087770
 20
14.679191
 30
0.0
 10
24.217627
 20
14.762429
 30
0.0
 10
24.343110
 20
14.851650
 30
0.0
 10
24.464006
 20
14.946653
 30
0.0
 10
24.580141
 20
15.047237
 30
0.0
 10
24.691266
 20
15.153197
 30
0.0
 10
24.797240
 20
15.264343
 30
0.0
 10
24.897852
 20
15.380463
 30
0.0
 10
24.992855
 20
15.501360
 30
0.0
 10
25.082107
 20
15.626832
 30
0.0
 10
25.165327
 20
15.756682
 30
0.0
 10
25.242409
 20
15.890706
 30
0.0
 10
25.313071
 20
16.028702
 30
0.0
 10
25.377170
 20
16.170469
 30
0.0
 10
25.434496
 20
16.315809
 30
0.0
 10
25.484802
 20
16.464519
 30
0.0
 10
25.527947
 20
16.616400
 30
0.0
 10
25.563683
 20
16.771248
 30
0.0
 10
25.591835
 20
16.928865
 30
0.0
 10
25.612190
 20
17.089047
 30
0.0
 10
25.624538
 20
17.251595
 30
0.0
 10
25.628700
 20
17.416308
 30
0.0
 10
25.624538
 20
17.580989
 30
0.0
 10
25.612190
 20
17.743507
 30
0.0
 10
25.591835
 20
17.903663
 30
0.0
 10
25.563683
 20
18.061252
 30
0.0
 10
25.527947
 20
18.216075
 30
0.0
 10
25.484802
 20
18.367932
 30
0.0
 10
25.434496
 20
18.516620
 30
0.0
 10
25.377170
 20
18.661943
 30
0.0
 10
25.313071
 20
18.803693
 30
0.0
 10
25.242409
 20
18.941674
 30
0.0
 10
25.165327
 20
19.075680
 30
0.0
 10
25.082107
 20
19.205516
 30
0.0
 10
24.992855
 20
19.330978
 30
0.0
 10
24.897852
 20
19.451864
 30
0.0
 10
24.797240
 20
19.567974
 30
0.0
 10
24.691266
 20
19.679109
 30
0.0
 10
24.580141
 20
19.785066
 30
0.0
 10
24.464006
 20
19.885642
 30
0.0
 10
24.343110
 20
19.980638
 30
0.0
 10
24.217627
 20
20.069852
 30
0.0
 10
24.087770
 20
20.153086
 30
0.0
 10
23.953750
 20
20.230136
 30
0.0
 10
23.815743
 20
20.300805
 30
0.0
 10
23.673997
 20
20.364887
 30
0.0
 10
23.528653
 20
20.422181
 30
0.0
 10
23.379958
 20
20.472491
 30
0.0
 10
23.228087
 20
20.515607
 30
0.0
 10
23.073253
 20
20.551340
 30
0.0
 10
22.915668
 20
20.579481
 30
0.0
 10
22.755507
 20
20.599829
 30
0.0
 10
22.592989
 20
20.612187
 30
0.0
 10
22.428306
 20
20.616350
 30
0.0
 10
22.263622
 20
20.612187
 30
0.0
 10
22.101102
 20
20.599829
 30
0.0
 10
21.940944
 20
20.579481
 30
0.0
 10
21.783348
 20
20.551340
 30
0.0
 10
21.628518
 20
20.515607
 30
0.0
 10
21.476651
 20
20.472491
 30
0.0
 10
21.327948
 20
20.422181
 30
0.0
 10
21.182618
 20
20.364887
 30
0.0
 10
21.040854
 20
20.300805
 30
0.0
 10
20.902859
 20
20.230136
 30
0.0
 10
20.768835
 20
20.153086
 30
0.0
 10
20.638985
 20
20.069852
 30
0.0
 10
20.513509
 20
19.980638
 30
0.0
 10
20.392605
 20
19.885642
 30
0.0
 10
20.276478
 20
19.785066
 30
0.0
 10
20.165329
 20
19.679109
 30
0.0
 10
20.059358
 20
19.567974
 30
0.0
 10
19.958763
 20
19.451864
 30
0.0
 10
19.863750
 20
19.330978
 30
0.0
 10
19.774519
 20
19.205516
 30
0.0
 10
19.691270
 20
19.075680
 30
0.0
 10
19.614206
 20
18.941674
 30
0.0
 10
19.543525
 20
18.803693
 30
0.0
 10
19.479431
 20
18.661943
 30
0.0
 10
19.422123
 20
18.516620
 30
0.0
 10
19.371805
 20
18.367932
 30
0.0
 10
19.328676
 20
18.216075
 30
0.0
 10
19.292937
 20
18.061252
 30
0.0
 10
19.264790
 20
17.903663
 30
0.0
 10
19.244436
 20
17.743507
 30
0.0
 10
19.232076
 20
17.580989
 30
0.0
 10
19.227911
 20
17.416308
 30
0.0
  0
LWPOLYLINE
  5
107
100
AcDbEntity
  8
Edge.Cuts
 62
1
100
AcDbPolyline
 90
129
 70
0
 10
6.186042
 20
17.413133
 30
0.0
 10
6.193766
 20
17.248709
 30
0.0
 10
6.209464
 20
17.086431
 30
0.0
 10
6.232943
 20
16.926502
 30
0.0
 10
6.264008
 20
16.769121
 30
0.0
 10
6.302466
 20
16.614495
 30
0.0
 10
6.348123
 20
16.462819
 30
0.0
 10
6.400784
 20
16.314296
 30
0.0
 10
6.460255
 20
16.169132
 30
0.0
 10
6.526342
 20
16.027523
 30
0.0
 10
6.598852
 20
15.889672
 30
0.0
 10
6.677588
 20
15.755786
 30
0.0
 10
6.762360
 20
15.626059
 30
0.0
 10
6.852971
 20
15.500693
 30
0.0
 10
6.949226
 20
15.379895
 30
0.0
 10
7.050936
 20
15.263867
 30
0.0
 10
7.157901
 20
15.152802
 30
0.0
 10
7.269929
 20
15.046909
 30
0.0
 10
7.386825
 20
14.946385
 30
0.0
 10
7.508399
 20
14.851435
 30
0.0
 10
7.634450
 20
14.762260
 30
0.0
 10
7.764791
 20
14.679061
 30
0.0
 10
7.899224
 20
14.602039
 30
0.0
 10
8.037555
 20
14.531395
 30
0.0
 10
8.179593
 20
14.467334
 30
0.0
 10
8.325138
 20
14.410054
 30
0.0
 10
8.474000
 20
14.359755
 30
0.0
 10
8.625987
 20
14.316642
 30
0.0
 10
8.780898
 20
14.280920
 30
0.0
 10
8.938544
 20
14.252782
 30
0.0
 10
9.098733
 20
14.232434
 30
0.0
 10
9.261264
 20
14.220077
 30
0.0
 10
9.425948
 20
14.215914
 30
0.0
 10
9.590659
 20
14.220077
 30
0.0
 10
9.753219
 20
14.232434
 30
0.0
 10
9.913380
 20
14.252782
 30
0.0
 10
10.071001
 20
14.280924
 30
0.0
 10
10.225870
 20
14.316656
 30
0.0
 10
10.377741
 20
14.359776
 30
0.0
 10
10.526436
 20
14.410086
 30
0.0
 10
10.671780
 20
14.467384
 30
0.0
 10
10.813562
 20
14.531466
 30
0.0
 10
10.951568
 20
14.602138
 30
0.0
 10
11.085588
 20
14.679191
 30
0.0
 10
11.215410
 20
14.762429
 30
0.0
 10
11.340893
 20
14.851650
 30
0.0
 10
11.461790
 20
14.946653
 30
0.0
 10
11.577924
 20
15.047237
 30
0.0
 10
11.689049
 20
15.153197
 30
0.0
 10
11.795023
 20
15.264343
 30
0.0
 10
11.895600
 20
15.380463
 30
0.0
 10
11.990603
 20
15.501360
 30
0.0
 10
12.079820
 20
15.626832
 30
0.0
 10
12.163075
 20
15.756682
 30
0.0
 10
12.240122
 20
15.890706
 30
0.0
 10
12.310783
 20
16.028702
 30
0.0
 10
12.374883
 20
16.170469
 30
0.0
 10
12.432174
 20
16.315809
 30
0.0
 10
12.482480
 20
16.464519
 30
0.0
 10
12.525589
 20
16.616400
 30
0.0
 10
12.561325
 20
16.771248
 30
0.0
 10
12.589477
 20
16.928865
 30
0.0
 10
12.609832
 20
17.089047
 30
0.0
 10
12.622179
 20
17.251595
 30
0.0
 10
12.626342
 20
17.416308
 30
0.0
 10
12.622179
 20
17.580989
 30
0.0
 10
12.609832
 20
17.743507
 30
0.0
 10
12.589477
 20
17.903663
 30
0.0
 10
12.561325
 20
18.061252
 30
0.0
 10
12.525589
 20
18.216075
 30
0.0
 10
12.482480
 20
18.367932
 30
0.0
 10
12.432174
 20
18.516620
 30
0.0
 10
12.374883
 20
18.661943
 30
0.0
 10
12.310783
 20
18.803693
 30
0.0
 10
12.240122
 20
18.941674
 30
0.0
 10
12.163075
 20
19.075680
 30
0.0
 10
12.079820
 20
19.205516
 30
0.0
 10
11.990603
 20
19.330978
 30
0.0
 10
11.895600
 20
19.451864
 30
0.0
 10
11.795023
 20
19.567974
 30
0.0
 10
11.689049
 20
19.679109
 30
0.0
 10
11.577924
 20
19.785066
 30
0.0
 10
11.461790
 20
19.885642
 30
0.0
 10
11.340893
 20
19.980638
 30
0.0
 10
11.215410
 20
20.069852
 30
0.0
 10
11.085588
 20
20.153086
 30
0.0
 10
10.951568
 20
20.230136
 30
0.0
 10
10.813562
 20
20.300805
 30
0.0
 10
10.671780
 20
20.364887
 30
0.0
 10
10.526436
 20
20.422181
 30
0.0
 10
10.377741
 20
20.472491
 30
0.0
 10
10.225870
 20
20.515607
 30
0.0
 10
10.071001
 20
20.551340
 30
0.0
 10
9.913380
 20
20.579481
 30
0.0
 10
9.753219
 20
20.599829
 30
0.0
 10
9.590659
 20
20.612187
 30
0.0
 10
9.425948
 20
20.616350
 30
0.0
 10
9.261264
 20
20.612187
 30
0.0
 10
9.098740
 20
20.599829
 30
0.0
 10
8.938576
 20
20.579481
 30
0.0
 10
8.780976
 20
20.551340
 30
0.0
 10
8.626135
 20
20.515607
 30
0.0
 10
8.474257
 20
20.472491
 30
0.0
 10
8.325548
 20
20.422181
 30
0.0
 10
8.180203
 20
20.364887
 30
0.0
 10
8.038426
 20
20.300805
 30
0.0
 10
7.900419
 20
20.230136
 30
0.0
 10
7.766382
 20
20.153086
 30
0.0
 10
7.636517
 20
20.069852
 30
0.0
 10
7.511024
 20
19.980638
 30
0.0
 10
7.390103
 20
19.885642
 30
0.0
 10
7.273961
 20
19.785066
 30
0.0
 10
7.162794
 20
19.679109
 30
0.0
 10
7.056806
 20
19.567974
 30
0.0
 10
6.956197
 20
19.451864
 30
0.0
 10
6.861166
 20
19.330978
 30
0.0
 10
6.771921
 20
19.205516
 30
0.0
 10
6.688655
 20
19.075680
 30
0.0
 10
6.611576
 20
18.941674
 30
0.0
 10
6.540883
 20
18.803693
 30
0.0
 10
6.476775
 20
18.661943
 30
0.0
 10
6.419456
 20
18.516620
 30
0.0
 10
6.369126
 20
18.367932
 30
0.0
 10
6.325988
 20
18.216075
 30
0.0
 10
6.290241
 20
18.061252
 30
0.0
 10
6.262088
 20
17.903663
 30
0.0
 10
6.241729
 20
17.743507
 30
0.0
 10
6.229366
 20
17.580989
 30
0.0
 10
6.225201
 20
17.416308
 30
0.0
  0
LWPOLYLINE
  5
108
100
AcDbEntity
  8
Edge.Cuts
 62
1
100
AcDbPolyline
 90
129
 70
0
 10
58.216050
 20
31.987453
 30
0.0
 10
58.221912
 20
31.825528
 30
0.0
 10
58.235858
 20
31.665594
 30
0.0
 10
58.257693
 20
31.507855
 30
0.0
 10
58.287218
 20
31.352524
 30
0.0
 10
58.324237
 20
31.199800
 30
0.0
 10
58.368552
 20
31.049894
 30
0.0
 10
58.419965
 20
30.903012
 30
0.0
 10
58.478279
 20
30.759358
 30
0.0
 10
58.543298
 20
30.619143
 30
0.0
 10
58.614822
 20
30.482569
 30
0.0
 10
58.692659
 20
30.349843
 30
0.0
 10
58.776603
 20
30.221175
 30
0.0
 10
58.866465
 20
30.096772
 30
0.0
 10
58.962043
 20
29.976834
 30
0.0
 10
59.063142
 20
29.861575
 30
0.0
 10
59.169561
 20
29.751198
 30
0.0
 10
59.281109
 20
29.645908
 30
0.0
 10
59.397582
 20
29.545917
 30
0.0
 10
59.518789
 20
29.451426
 30
0.0
 10
59.644526
 20
29.362646
 30
0.0
 10
59.774599
 20
29.279778
 30
0.0
 10
59.908813
 20
29.203035
 30
0.0
 10
60.046964
 20
29.132621
 30
0.0
 10
60.188861
 20
29.068740
 30
0.0
 10
60.334308
 20
29.011601
 30
0.0
 10
60.483099
 20
28.961411
 30
0.0
 10
60.635047
 20
28.918376
 30
0.0
 10
60.789944
 20
28.882699
 30
0.0
 10
60.947600
 20
28.854594
 30
0.0
 10
61.107818
 20
28.834263
 30
0.0
 10
61.270398
 20
28.821912
 30
0.0
 10
61.435142
 20
28.817750
 30
0.0
 10
61.599825
 20
28.821912
 30
0.0
 10
61.762343
 20
28.834270
 30
0.0
 10
61.922503
 20
28.854618
 30
0.0
 10
62.080089
 20
28.882759
 30
0.0
 10
62.234923
 20
28.918492
 30
0.0
 10
62.386794
 20
28.961609
 30
0.0
 10
62.535489
 20
29.011918
 30
0.0
 10
62.680833
 20
29.069213
 30
0.0
 10
62.822579
 20
29.133295
 30
0.0
 10
62.960586
 20
29.203963
 30
0.0
 10
63.094606
 20
29.281013
 30
0.0
 10
63.224463
 20
29.364247
 30
0.0
 10
63.349946
 20
29.453461
 30
0.0
 10
63.470842
 20
29.548457
 30
0.0
 10
63.586977
 20
29.649034
 30
0.0
 10
63.698102
 20
29.754990
 30
0.0
 10
63.804076
 20
29.866126
 30
0.0
 10
63.904688
 20
29.982235
 30
0.0
 10
63.999691
 20
30.103122
 30
0.0
 10
64.088943
 20
30.228583
 30
0.0
 10
64.172163
 20
30.358419
 30
0.0
 10
64.249245
 20
30.492425
 30
0.0
 10
64.319907
 20
30.630407
 30
0.0
 10
64.384006
 20
30.772156
 30
0.0
 10
64.441332
 20
30.917479
 30
0.0
 10
64.491638
 20
31.066168
 30
0.0
 10
64.534783
 20
31.218024
 30
0.0
 10
64.570519
 20
31.372848
 30
0.0
 10
64.598671
 20
31.530437
 30
0.0
 10
64.619026
 20
31.690593
 30
0.0
 10
64.631373
 20
31.853111
 30
0.0
 10
64.635536
 20
32.017791
 30
0.0
 10
64.631373
 20
32.182504
 30
0.0
 10
64.619026
 20
32.345052
 30
0.0
 10
64.598671
 20
32.505234
 30
0.0
 10
64.570519
 20
32.662851
 30
0.0
 10
64.534783
 20
32.817699
 30
0.0
 10
64.491638
 20
32.969581
 30
0.0
 10
64.441332
 20
33.118290
 30
0.0
 10
64.384006
 20
33.263631
 30
0.0
 10
64.319907
 20
33.405398
 30
0.0
 10
64.249245
 20
33.543394
 30
0.0
 10
64.172163
 20
33.677417
 30
0.0
 10
64.088943
 20
33.807268
 30
0.0
 10
63.999691
 20
33.932740
 30
0.0
 10
63.904688
 20
34.053637
 30
0.0
 10
63.804076
 20
34.169757
 30
0.0
 10
63.698102
 20
34.280903
 30
0.0
 10
63.586977
 20
34.386863
 30
0.0
 10
63.470842
 20
34.487447
 30
0.0
 10
63.349946
 20
34.582450
 30
0.0
 10
63.224463
 20
34.671670
 30
0.0
 10
63.094606
 20
34.754908
 30
0.0
 10
62.960586
 20
34.831962
 30
0.0
 10
62.822579
 20
34.902634
 30
0.0
 10
62.680833
 20
34.966716
 30
0.0
 10
62.535489
 20
35.024014
 30
0.0
 10
62.386794
 20
35.074323
 30
0.0
 10
62.234923
 20
35.117443
 30
0.0
 10
62.080089
 20
35.153176
 30
0.0
 10
61.922503
 20
35.181317
 30
0.0
 10
61.762343
 20
35.201665
 30
0.0
 10
61.599825
 20
35.214023
 30
0.0
 10
61.435142
 20
35.218186
 30
0.0
 10
61.270398
 20
35.214023
 30
0.0
 10
61.107825
 20
35.201665
 30
0.0
 10
60.947618
 20
35.181317
 30
0.0
 10
60.789983
 20
35.153176
 30
0.0
 10
60.635117
 20
35.117443
 30
0.0
 10
60.483222
 20
35.074323
 30
0.0
 10
60.334502
 20
35.024014
 30
0.0
 10
60.189154
 20
34.966716
 30
0.0
 10
60.047380
 20
34.902634
 30
0.0
 10
59.909381
 20
34.831962
 30
0.0
 10
59.775361
 20
34.754908
 30
0.0
 10
59.645510
 20
34.671670
 30
0.0
 10
59.520042
 20
34.582450
 30
0.0
 10
59.399148
 20
34.487447
 30
0.0
 10
59.283035
 20
34.386863
 30
0.0
 10
59.171900
 20
34.280903
 30
0.0
 10
59.065947
 20
34.169757
 30
0.0
 10
58.965370
 20
34.053637
 30
0.0
 10
58.870378
 20
33.932740
 30
0.0
 10
58.781167
 20
33.807268
 30
0.0
 10
58.697940
 20
33.677417
 30
0.0
 10
58.620897
 20
33.543394
 30
0.0
 10
58.550240
 20
33.405398
 30
0.0
 10
58.486167
 20
33.263631
 30
0.0
 10
58.428880
 20
33.118290
 30
0.0
 10
58.378580
 20
32.969581
 30
0.0
 10
58.335468
 20
32.817699
 30
0.0
 10
58.299744
 20
32.662851
 30
0.0
 10
58.271609
 20
32.505234
 30
0.0
 10
58.251264
 20
32.345052
 30
0.0
 10
58.238910
 20
32.182504
 30
0.0
 10
58.234747
 20
32.017791
 30
0.0
  0
LWPOLYLINE
  5
109
100
AcDbEntity
  8
Edge.Cuts
 62
1
100
AcDbPolyline
 90
129
 70
0
 10
45.208595
 20
31.987453
 30
0.0
 10
45.214876
 20
31.825528
 30
0.0
 10
45.229222
 20
31.665594
 30
0.0
 10
45.251435
 20
31.507855
 30
0.0
 10
45.281320
 20
31.352524
 30
0.0
 10
45.318679
 20
31.199800
 30
0.0
 10
45.363315
 20
31.049894
 30
0.0
 10
45.415031
 20
30.903012
 30
0.0
 10
45.473629
 20
30.759358
 30
0.0
 10
45.538914
 20
30.619143
 30
0.0
 10
45.610686
 20
30.482569
 30
0.0
 10
45.688753
 20
30.349843
 30
0.0
 10
45.772911
 20
30.221175
 30
0.0
 10
45.862972
 20
30.096772
 30
0.0
 10
45.958729
 20
29.976834
 30
0.0
 10
46.059991
 20
29.861575
 30
0.0
 10
46.166561
 20
29.751198
 30
0.0
 10
46.278240
 20
29.645908
 30
0.0
 10
46.394832
 20
29.545917
 30
0.0
 10
46.516138
 20
29.451426
 30
0.0
 10
46.641967
 20
29.362646
 30
0.0
 10
46.772114
 20
29.279778
 30
0.0
 10
46.906388
 20
29.203035
 30
0.0
 10
47.044585
 20
29.132621
 30
0.0
 10
47.186517
 20
29.068740
 30
0.0
 10
47.331981
 20
29.011601
 30
0.0
 10
47.480783
 20
28.961411
 30
0.0
 10
47.632724
 20
28.918376
 30
0.0
 10
47.787607
 20
28.882699
 30
0.0
 10
47.945235
 20
28.854594
 30
0.0
 10
48.105414
 20
28.834263
 30
0.0
 10
48.267942
 20
28.821912
 30
0.0
 10
48.432625
 20
28.817750
 30
0.0
 10
48.597277
 20
28.821912
 30
0.0
 10
48.759755
 20
28.834270
 30
0.0
 10
48.919916
 20
28.854618
 30
0.0
 10
49.077466
 20
28.882759
 30
0.0
 10
49.232300
 20
28.918492
 30
0.0
 10
49.384136
 20
28.961609
 30
0.0
 10
49.532831
 20
29.011918
 30
0.0
 10
49.678175
 20
29.069213
 30
0.0
 10
49.819921
 20
29.133295
 30
0.0
 10
49.957928
 20
29.203963
 30
0.0
 10
50.091948
 20
29.281013
 30
0.0
 10
50.221805
 20
29.364247
 30
0.0
 10
50.347288
 20
29.453461
 30
0.0
 10
50.468185
 20
29.548457
 30
0.0
 10
50.584319
 20
29.649034
 30
0.0
 10
50.695479
 20
29.754990
 30
0.0
 10
50.801453
 20
29.866126
 30
0.0
 10
50.902065
 20
29.982235
 30
0.0
 10
50.997068
 20
30.103122
 30
0.0
 10
51.086321
 20
30.228583
 30
0.0
 10
51.169576
 20
30.358419
 30
0.0
 10
51.246658
 20
30.492425
 30
0.0
 10
51.317354
 20
30.630407
 30
0.0
 10
51.381454
 20
30.772156
 30
0.0
 10
51.438780
 20
30.917479
 30
0.0
 10
51.489086
 20
31.066168
 30
0.0
 10
51.532231
 20
31.218024
 30
0.0
 10
51.567967
 20
31.372848
 30
0.0
 10
51.596119
 20
31.530437
 30
0.0
 10
51.616474
 20
31.690593
 30
0.0
 10
51.628857
 20
31.853111
 30
0.0
 10
51.633019
 20
32.017791
 30
0.0
 10
51.628857
 20
32.182504
 30
0.0
 10
51.616474
 20
32.345052
 30
0.0
 10
51.596119
 20
32.505234
 30
0.0
 10
51.567967
 20
32.662851
 30
0.0
 10
51.532231
 20
32.817699
 30
0.0
 10
51.489086
 20
32.969581
 30
0.0
 10
51.438780
 20
33.118290
 30
0.0
 10
51.381454
 20
33.263631
 30
0.0
 10
51.317354
 20
33.405398
 30
0.0
 10
51.246658
 20
33.543394
 30
0.0
 10
51.169576
 20
33.677417
 30
0.0
 10
51.086321
 20
33.807268
 30
0.0
 10
50.997068
 20
33.932740
 30
0.0
 10
50.902065
 20
34.053637
 30
0.0
 10
50.801453
 20
34.169757
 30
0.0
 10
50.695479
 20
34.280903
 30
0.0
 10
50.584319
 20
34.386863
 30
0.0
 10
50.468185
 20
34.487447
 30
0.0
 10
50.347288
 20
34.582450
 30
0.0
 10
50.221805
 20
34.671670
 30
0.0
 10
50.091948
 20
34.754908
 30
0.0
 10
49.957928
 20
34.831962
 30
0.0
 10
49.819921
 20
34.902634
 30
0.0
 10
49.678175
 20
34.966716
 30
0.0
 10
49.532831
 20
35.024014
 30
0.0
 10
49.384136
 20
35.074323
 30
0.0
 10
49.232300
 20
35.117443
 30
0.0
 10
49.077466
 20
35.153176
 30
0.0
 10
48.919916
 20
35.181317
 30
0.0
 10
48.759755
 20
35.201665
 30
0.0
 10
48.597277
 20
35.214023
 30
0.0
 10
48.432625
 20
35.218186
 30
0.0
 10
48.267942
 20
35.214023
 30
0.0
 10
48.105417
 20
35.201665
 30
0.0
 10
47.945253
 20
35.181317
 30
0.0
 10
47.787653
 20
35.153176
 30
0.0
 10
47.632812
 20
35.117443
 30
0.0
 10
47.480935
 20
35.074323
 30
0.0
 10
47.332225
 20
35.024014
 30
0.0
 10
47.186881
 20
34.966716
 30
0.0
 10
47.045103
 20
34.902634
 30
0.0
 10
46.907097
 20
34.831962
 30
0.0
 10
46.773059
 20
34.754908
 30
0.0
 10
46.643195
 20
34.671670
 30
0.0
 10
46.517701
 20
34.582450
 30
0.0
 10
46.396780
 20
34.487447
 30
0.0
 10
46.280639
 20
34.386863
 30
0.0
 10
46.169471
 20
34.280903
 30
0.0
 10
46.063483
 20
34.169757
 30
0.0
 10
45.962874
 20
34.053637
 30
0.0
 10
45.867843
 20
33.932740
 30
0.0
 10
45.778598
 20
33.807268
 30
0.0
 10
45.695332
 20
33.677417
 30
0.0
 10
45.618254
 20
33.543394
 30
0.0
 10
45.547559
 20
33.405398
 30
0.0
 10
45.483452
 20
33.263631
 30
0.0
 10
45.426133
 20
33.118290
 30
0.0
 10
45.375804
 20
32.969581
 30
0.0
 10
45.332665
 20
32.817699
 30
0.0
 10
45.296918
 20
32.662851
 30
0.0
 10
45.268765
 20
32.505234
 30
0.0
 10
45.248407
 20
32.345052
 30
0.0
 10
45.236044
 20
32.182504
 30
0.0
 10
45.231878
 20
32.017791
 30
0.0
  0
LWPOLYLINE
  5
10a
100
AcDbEntity
  8
Edge.Cuts
 62
1
100
AcDbPolyline
 90
129
 70
0
 10
32.201403
 20
31.987453
 30
0.0
 10
32.208133
 20
31.825528
 30
0.0
 10
32.222900
 20
31.665594
 30
0.0
 10
32.245507
 20
31.507855
 30
0.0
 10
32.275759
 20
31.352524
 30
0.0
 10
32.313459
 20
31.199800
 30
0.0
 10
32.358412
 20
31.049894
 30
0.0
 10
32.410420
 20
30.903012
 30
0.0
 10
32.469288
 20
30.759358
 30
0.0
 10
32.534820
 20
30.619143
 30
0.0
 10
32.606819
 20
30.482569
 30
0.0
 10
32.685089
 20
30.349843
 30
0.0
 10
32.769435
 20
30.221175
 30
0.0
 10
32.859661
 20
30.096772
 30
0.0
 10
32.955567
 20
29.976834
 30
0.0
 10
33.056962
 20
29.861575
 30
0.0
 10
33.163646
 20
29.751198
 30
0.0
 10
33.275427
 20
29.645908
 30
0.0
 10
33.392104
 20
29.545917
 30
0.0
 10
33.513481
 20
29.451426
 30
0.0
 10
33.639366
 20
29.362646
 30
0.0
 10
33.769561
 20
29.279778
 30
0.0
 10
33.903867
 20
29.203035
 30
0.0
 10
34.042092
 20
29.132621
 30
0.0
 10
34.184039
 20
29.068740
 30
0.0
 10
34.329511
 20
29.011601
 30
0.0
 10
34.478308
 20
28.961411
 30
0.0
 10
34.630239
 20
28.918376
 30
0.0
 10
34.785108
 20
28.882699
 30
0.0
 10
34.942715
 20
28.854594
 30
0.0
 10
35.102869
 20
28.834263
 30
0.0
 10
35.265368
 20
28.821912
 30
0.0
 10
35.430020
 20
28.817750
 30
0.0
 10
35.594763
 20
28.821912
 30
0.0
 10
35.757327
 20
28.834270
 30
0.0
 10
35.917558
 20
28.854618
 30
0.0
 10
36.075179
 20
28.882759
 30
0.0
 10
36.230083
 20
28.918492
 30
0.0
 10
36.381954
 20
28.961609
 30
0.0
 10
36.530720
 20
29.011918
 30
0.0
 10
36.676064
 20
29.069213
 30
0.0
 10
36.817845
 20
29.133295
 30
0.0
 10
36.955852
 20
29.203963
 30
0.0
 10
37.089907
 20
29.281013
 30
0.0
 10
37.219764
 20
29.364247
 30
0.0
 10
37.345247
 20
29.453461
 30
0.0
 10
37.466144
 20
29.548457
 30
0.0
 10
37.582278
 20
29.649034
 30
0.0
 10
37.693438
 20
29.754990
 30
0.0
 10
37.799413
 20
29.866126
 30
0.0
 10
37.899989
 20
29.982235
 30
0.0
 10
37.994992
 20
30.103122
 30
0.0
 10
38.084245
 20
30.228583
 30
0.0
 10
38.167465
 20
30.358419
 30
0.0
 10
38.244547
 20
30.492425
 30
0.0
 10
38.315208
 20
30.630407
 30
0.0
 10
38.379308
 20
30.772156
 30
0.0
 10
38.436599
 20
30.917479
 30
0.0
 10
38.486905
 20
31.066168
 30
0.0
 10
38.530014
 20
31.218024
 30
0.0
 10
38.565750
 20
31.372848
 30
0.0
 10
38.593902
 20
31.530437
 30
0.0
 10
38.614257
 20
31.690593
 30
0.0
 10
38.626605
 20
31.853111
 30
0.0
 10
38.630767
 20
32.017791
 30
0.0
 10
38.626605
 20
32.182504
 30
0.0
 10
38.614257
 20
32.345052
 30
0.0
 10
38.593902
 20
32.505234
 30
0.0
 10
38.565750
 20
32.662851
 30
0.0
 10
38.530014
 20
32.817699
 30
0.0
 10
38.486905
 20
32.969581
 30
0.0
 10
38.436599
 20
33.118290
 30
0.0
 10
38.379308
 20
33.263631
 30
0.0
 10
38.315208
 20
33.405398
 30
0.0
 10
38.244547
 20
33.543394
 30
0.0
 10
38.167465
 20
33.677417
 30
0.0
 10
38.084245
 20
33.807268
 30
0.0
 10
37.994992
 20
33.932740
 30
0.0
 10
37.899989
 20
34.053637
 30
0.0
 10
37.799413
 20
34.169757
 30
0.0
 10
37.693438
 20
34.280903
 30
0.0
 10
37.582278
 20
34.386863
 30
0.0
 10
37.466144
 20
34.487447
 30
0.0
 10
37.345247
 20
34.582450
 30
0.0
 10
37.219764
 20
34.671670
 30
0.0
 10
37.089907
 20
34.754908
 30
0.0
 10
36.955852
 20
34.831962
 30
0.0
 10
36.817845
 20
34.902634
 30
0.0
 10
36.676064
 20
34.966716
 30
0.0
 10
36.530720
 20
35.024014
 30
0.0
 10
36.381954
 20
35.074323
 30
0.0
 10
36.230083
 20
35.117443
 30
0.0
 10
36.075179
 20
35.153176
 30
0.0
 10
35.917558
 20
35.181317
 30
0.0
 10
35.757327
 20
35.201665
 30
0.0
 10
35.594763
 20
35.214023
 30
0.0
 10
35.430020
 20
35.218186
 30
0.0
 10
35.265368
 20
35.214023
 30
0.0
 10
35.102876
 20
35.201665
 30
0.0
 10
34.942740
 20
35.181317
 30
0.0
 10
34.785165
 20
35.153176
 30
0.0
 10
34.630348
 20
35.117443
 30
0.0
 10
34.478495
 20
35.074323
 30
0.0
 10
34.329803
 20
35.024014
 30
0.0
 10
34.184480
 20
34.966716
 30
0.0
 10
34.042720
 20
34.902634
 30
0.0
 10
33.904728
 20
34.831962
 30
0.0
 10
33.770708
 20
34.754908
 30
0.0
 10
33.640854
 20
34.671670
 30
0.0
 10
33.515375
 20
34.582450
 30
0.0
 10
33.394468
 20
34.487447
 30
0.0
 10
33.278333
 20
34.386863
 30
0.0
 10
33.167173
 20
34.280903
 30
0.0
 10
33.061196
 20
34.169757
 30
0.0
 10
32.960591
 20
34.053637
 30
0.0
 10
32.865570
 20
33.932740
 30
0.0
 10
32.776328
 20
33.807268
 30
0.0
 10
32.693065
 20
33.677417
 30
0.0
 10
32.615991
 20
33.543394
 30
0.0
 10
32.545299
 20
33.405398
 30
0.0
 10
32.481194
 20
33.263631
 30
0.0
 10
32.423877
 20
33.118290
 30
0.0
 10
32.373549
 20
32.969581
 30
0.0
 10
32.330412
 20
32.817699
 30
0.0
 10
32.294665
 20
32.662851
 30
0.0
 10
32.266513
 20
32.505234
 30
0.0
 10
32.246154
 20
32.345052
 30
0.0
 10
32.233791
 20
32.182504
 30
0.0
 10
32.229626
 20
32.017791
 30
0.0
  0
LWPOLYLINE
  5
10b
100
AcDbEntity
  8
Edge.Cuts
 62
1
100
AcDbPolyline
 90
129
 70
0
 10
19.193339
 20
31.987453
 30
0.0
 10
19.200645
 20
31.825528
 30
0.0
 10
19.215949
 20
31.665594
 30
0.0
 10
19.239058
 20
31.507855
 30
0.0
 10
19.269776
 20
31.352524
 30
0.0
 10
19.307909
 20
31.199800
 30
0.0
 10
19.353261
 20
31.049894
 30
0.0
 10
19.405638
 20
30.903012
 30
0.0
 10
19.464845
 20
30.759358
 30
0.0
 10
19.530688
 20
30.619143
 30
0.0
 10
19.602970
 20
30.482569
 30
0.0
 10
19.681498
 20
30.349843
 30
0.0
 10
19.766080
 20
30.221175
 30
0.0
 10
19.856514
 20
30.096772
 30
0.0
 10
19.952611
 20
29.976834
 30
0.0
 10
20.054172
 20
29.861575
 30
0.0
 10
20.161007
 20
29.751198
 30
0.0
 10
20.272919
 20
29.645908
 30
0.0
 10
20.389709
 20
29.545917
 30
0.0
 10
20.511191
 20
29.451426
 30
0.0
 10
20.637161
 20
29.362646
 30
0.0
 10
20.767431
 20
29.279778
 30
0.0
 10
20.901804
 20
29.203035
 30
0.0
 10
21.040085
 20
29.132621
 30
0.0
 10
21.182078
 20
29.068740
 30
0.0
 10
21.327588
 20
29.011601
 30
0.0
 10
21.476421
 20
28.961411
 30
0.0
 10
21.628384
 20
28.918376
 30
0.0
 10
21.783281
 20
28.882699
 30
0.0
 10
21.940916
 20
28.854594
 30
0.0
 10
22.101094
 20
28.834263
 30
0.0
 10
22.263622
 20
28.821912
 30
0.0
 10
22.428306
 20
28.817750
 30
0.0
 10
22.592989
 20
28.821912
 30
0.0
 10
22.755507
 20
28.834270
 30
0.0
 10
22.915668
 20
28.854618
 30
0.0
 10
23.073253
 20
28.882759
 30
0.0
 10
23.228087
 20
28.918492
 30
0.0
 10
23.379958
 20
28.961609
 30
0.0
 10
23.528653
 20
29.011918
 30
0.0
 10
23.673997
 20
29.069213
 30
0.0
 10
23.815743
 20
29.133295
 30
0.0
 10
23.953750
 20
29.203963
 30
0.0
 10
24.087770
 20
29.281013
 30
0.0
 10
24.217627
 20
29.364247
 30
0.0
 10
24.343110
 20
29.453461
 30
0.0
 10
24.464006
 20
29.548457
 30
0.0
 10
24.580141
 20
29.649034
 30
0.0
 10
24.691266
 20
29.754990
 30
0.0
 10
24.797240
 20
29.866126
 30
0.0
 10
24.897852
 20
29.982235
 30
0.0
 10
24.992855
 20
30.103122
 30
0.0
 10
25.082107
 20
30.228583
 30
0.0
 10
25.165327
 20
30.358419
 30
0.0
 10
25.242409
 20
30.492425
 30
0.0
 10
25.313071
 20
30.630407
 30
0.0
 10
25.377170
 20
30.772156
 30
0.0
 10
25.434496
 20
30.917479
 30
0.0
 10
25.484802
 20
31.066168
 30
0.0
 10
25.527947
 20
31.218024
 30
0.0
 10
25.563683
 20
31.372848
 30
0.0
 10
25.591835
 20
31.530437
 30
0.0
 10
25.612190
 20
31.690593
 30
0.0
 10
25.624538
 20
31.853111
 30
0.0
 10
25.628700
 20
32.017791
 30
0.0
 10
25.624538
 20
32.182504
 30
0.0
 10
25.612190
 20
32.345052
 30
0.0
 10
25.591835
 20
32.505234
 30
0.0
 10
25.563683
 20
32.662851
 30
0.0
 10
25.527947
 20
32.817699
 30
0.0
 10
25.484802
 20
32.969581
 30
0.0
 10
25.434496
 20
33.118290
 30
0.0
 10
25.377170
 20
33.263631
 30
0.0
 10
25.313071
 20
33.405398
 30
0.0
 10
25.242409
 20
33.543394
 30
0.0
 10
25.165327
 20
33.677417
 30
0.0
 10
25.082107
 20
33.807268
 30
0.0
 10
24.992855
 20
33.932740
 30
0.0
 10
24.897852
 20
34.053637
 30
0.0
 10
24.797240
 20
34.169757
 30
0.0
 10
24.691266
 20
34.280903
 30
0.0
 10
24.580141
 20
34.386863
 30
0.0
 10
24.464006
 20
34.487447
 30
0.0
 10
24.343110
 20
34.582450
 30
0.0
 10
24.217627
 20
34.671670
 30
0.0
 10
24.087770
 20
34.754908
 30
0.0
 10
23.953750
 20
34.831962
 30
0.0
 10
23.815743
 20
34.902634
 30
0.0
 10
23.673997
 20
34.966716
 30
0.0
 10
23.528653
 20
35.024014
 30
0.0
 10
23.379958
 20
35.074323
 30
0.0
 10
23.228087
 20
35.117443
 30
0.0
 10
23.073253
 20
35.153176
 30
0.0
 10
22.915668
 20
35.181317
 30
0.0
 10
22.755507
 20
35.201665
 30
0.0
 10
22.592989
 20
35.214023
 30
0.0
 10
22.428306
 20
35.218186
 30
0.0
 10
22.263622
 20
35.214023
 30
0.0
 10
22.101102
 20
35.201665
 30
0.0
 10
21.940944
 20
35.181317
 30
0.0
 10
21.783348
 20
35.153176
 30
0.0
 10
21.628518
 20
35.117443
 30
0.0
 10
21.476651
 20
35.074323
 30
0.0
 10
21.327948
 20
35.024014
 30
0.0
 10
21.182618
 20
34.966716
 30
0.0
 10
21.040854
 20
34.902634
 30
0.0
 10
20.902859
 20
34.831962
 30
0.0
 10
20.768835
 20
34.754908
 30
0.0
 10
20.638985
 20
34.671670
 30
0.0
 10
20.513509
 20
34.582450
 30
0.0
 10
20.392605
 20
34.487447
 30
0.0
 10
20.276478
 20
34.386863
 30
0.0
 10
20.165329
 20
34.280903
 30
0.0
 10
20.059358
 20
34.169757
 30
0.0
 10
19.958763
 20
34.053637
 30
0.0
 10
19.863750
 20
33.932740
 30
0.0
 10
19.774519
 20
33.807268
 30
0.0
 10
19.691270
 20
33.677417
 30
0.0
 10
19.614206
 20
33.543394
 30
0.0
 10
19.543525
 20
33.405398
 30
0.0
 10
19.479431
 20
33.263631
 30
0.0
 10
19.422123
 20
33.118290
 30
0.0
 10
19.371805
 20
32.969581
 30
0.0
 10
19.328676
 20
32.817699
 30
0.0
 10
19.292937
 20
32.662851
 30
0.0
 10
19.264790
 20
32.505234
 30
0.0
 10
19.244436
 20
32.345052
 30
0.0
 10
19.232076
 20
32.182504
 30
0.0
 10
19.227911
 20
32.017791
 30
0.0
  0
LWPOLYLINE
  5
10c
100
AcDbEntity
  8
Edge.Cuts
 62
1
100
AcDbPolyline
 90
129
 70
0
 10
6.186042
 20
31.987453
 30
0.0
 10
6.193766
 20
31.825528
 30
0.0
 10
6.209464
 20
31.665594
 30
0.0
 10
6.232943
 20
31.507855
 30
0.0
 10
6.264008
 20
31.352524
 30
0.0
 10
6.302466
 20
31.199800
 30
0.0
 10
6.348123
 20
31.049894
 30
0.0
 10
6.400784
 20
30.903012
 30
0.0
 10
6.460255
 20
30.759358
 30
0.0
 10
6.526342
 20
30.619143
 30
0.0
 10
6.598852
 20
30.482569
 30
0.0
 10
6.677588
 20
30.349843
 30
0.0
 10
6.762360
 20
30.221175
 30
0.0
 10
6.852971
 20
30.096772
 30
0.0
 10
6.949226
 20
29.976834
 30
0.0
 10
7.050936
 20
29.861575
 30
0.0
 10
7.157901
 20
29.751198
 30
0.0
 10
7.269929
 20
29.645908
 30
0.0
 10
7.386825
 20
29.545917
 30
0.0
 10
7.508399
 20
29.451426
 30
0.0
 10
7.634450
 20
29.362646
 30
0.0
 10
7.764791
 20
29.279778
 30
0.0
 10
7.899224
 20
29.203035
 30
0.0
 10
8.037555
 20
29.132621
 30
0.0
 10
8.179593
 20
29.068740
 30
0.0
 10
8.325138
 20
29.011601
 30
0.0
 10
8.474000
 20
28.961411
 30
0.0
 10
8.625987
 20
28.918376
 30
0.0
 10
8.780898
 20
28.882699
 30
0.0
 10
8.938544
 20
28.854594
 30
0.0
 10
9.098733
 20
28.834263
 30
0.0
 10
9.261264
 20
28.821912
 30
0.0
 10
9.425948
 20
28.817750
 30
0.0
 10
9.590659
 20
28.821912
 30
0.0
 10
9.753219
 20
28.834270
 30
0.0
 10
9.913380
 20
28.854618
 30
0.0
 10
10.071001
 20
28.882759
 30
0.0
 10
10.225870
 20
28.918492
 30
0.0
 10
10.377741
 20
28.961609
 30
0.0
 10
10.526436
 20
29.011918
 30
0.0
 10
10.671780
 20
29.069213
 30
0.0
 10
10.813562
 20
29.133295
 30
0.0
 10
10.951568
 20
29.203963
 30
0.0
 10
11.085588
 20
29.281013
 30
0.0
 10
11.215410
 20
29.364247
 30
0.0
 10
11.340893
 20
29.453461
 30
0.0
 10
11.461790
 20
29.548457
 30
0.0
 10
11.577924
 20
29.649034
 30
0.0
 10
11.689049
 20
29.754990
 30
0.0
 10
11.795023
 20
29.866126
 30
0.0
 10
11.895600
 20
29.982235
 30
0.0
 10
11.990603
 20
30.103122
 30
0.0
 10
12.079820
 20
30.228583
 30
0.0
 10
12.163075
 20
30.358419
 30
0.0
 10
12.240122
 20
30.492425
 30
0.0
 10
12.310783
 20
30.630407
 30
0.0
 10
12.374883
 20
30.772156
 30
0.0
 10
12.432174
 20
30.917479
 30
0.0
 10
12.482480
 20
31.066168
 30
0.0
 10
12.525589
 20
31.218024
 30
0.0
 10
12.561325
 20
31.372848
 30
0.0
 10
12.589477
 20
31.530437
 30
0.0
 10
12.609832
 20
31.690593
 30
0.0
 10
12.622179
 20
31.853111
 30
0.0
 10
12.626342
 20
32.017791
 30
0.0
 10
12.622179
 20
32.182504
 30
0.0
 10
12.609832
 20
32.345052
 30
0.0
 10
12.589477
 20
32.505234
 30
0.0
 10
12.561325
 20
32.662851
 30
0.0
 10
12.525589
 20
32.817699
 30
0.0
 10
12.482480
 20
32.969581
 30
0.0
 10
12.432174
 20
33.118290
 30
0.0
 10
12.374883
 20
33.263631
 30
0.0
 10
12.310783
 20
33.405398
 30
0.0
 10
12.240122
 20
33.543394
 30
0.0
 10
12.163075
 20
33.677417
 30
0.0
 10
12.079820
 20
33.807268
 30
0.0
 10
11.990603
 20
33.932740
 30
0.0
 10
11.895600
 20
34.053637
 30
0.0
 10
11.795023
 20
34.169757
 30
0.0
 10
11.689049
 20
34.280903
 30
0.0
 10
11.577924
 20
34.386863
 30
0.0
 10
11.461790
 20
34.487447
 30
0.0
 10
11.340893
 20
34.582450
 30
0.0
 10
11.215410
 20
34.671670
 30
0.0
 10
11.085588
 20
34.754908
 30
0.0
 10
10.951568
 20
34.831962
 30
0.0
 10
10.813562
 20
34.902634
 30
0.0
 10
10.671780
 20
34.966716
 30
0.0
 10
10.526436
 20
35.024014
 30
0.0
 10
10.377741
 20
35.074323
 30
0.0
 10
10.225870
 20
35.117443
 30
0.0
 10
10.071001
 20
35.153176
 30
0.0
 10
9.913380
 20
35.181317
 30
0.0
 10
9.753219
 20
35.201665
 30
0.0
 10
9.590659
 20
35.214023
 30
0.0
 10
9.425948
 20
35.218186
 30
0.0
 10
9.261264
 20
35.214023
 30
0.0
 10
9.098740
 20
35.201665
 30
0.0
 10
8.938576
 20
35.181317
 30
0.0
 10
8.780976
 20
35.153176
 30
0.0
 10
8.626135
 20
35.117443
 30
0.0
 10
8.474257
 20
35.074323
 30
0.0
 10
8.325548
 20
35.024014
 30
0.0
 10
8.180203
 20
34.966716
 30
0.0
 10
8.038426
 20
34.902634
 30
0.0
 10
7.900419
 20
34.831962
 30
0.0
 10
7.766382
 20
34.754908
 30
0.0
 10
7.636517
 20
34.671670
 30
0.0
 10
7.511024
 20
34.582450
 30
0.0
 10
7.390103
 20
34.487447
 30
0.0
 10
7.273961
 20
34.386863
 30
0.0
 10
7.162794
 20
34.280903
 30
0.0
 10
7.056806
 20
34.169757
 30
0.0
 10
6.956197
 20
34.053637
 30
0.0
 10
6.861166
 20
33.932740
 30
0.0
 10
6.771921
 20
33.807268
 30
0.0
 10
6.688655
 20
33.677417
 30
0.0
 10
6.611576
 20
33.543394
 30
0.0
 10
6.540883
 20
33.405398
 30
0.0
 10
6.476775
 20
33.263631
 30
0.0
 10
6.419456
 20
33.118290
 30
0.0
 10
6.369126
 20
32.969581
 30
0.0
 10
6.325988
 20
32.817699
 30
0.0
 10
6.290241
 20
32.662851
 30
0.0
 10
6.262088
 20
32.505234
 30
0.0
 10
6.241729
 20
32.345052
 30
0.0
 10
6.229366
 20
32.182504
 30
0.0
 10
6.225201
 20
32.017791
 30
0.0
  0
LWPOLYLINE
  5
10d
100
AcDbEntity
  8
Edge.Cuts
 62
1
100
AcDbPolyline
 90
129
 70
0
 10
6.010306
 20
47.831508
 30
0.0
 10
6.017721
 20
47.660031
 30
0.0
 10
6.033612
 20
47.490631
 30
0.0
 10
6.057770
 20
47.323530
 30
0.0
 10
6.089991
 20
47.158946
 30
0.0
 10
6.130067
 20
46.997102
 30
0.0
 10
6.177792
 20
46.838218
 30
0.0
 10
6.232958
 20
46.682513
 30
0.0
 10
6.295361
 20
46.530212
 30
0.0
 10
6.364794
 20
46.381534
 30
0.0
 10
6.441047
 20
46.236698
 30
0.0
 10
6.523918
 20
46.095926
 30
0.0
 10
6.613195
 20
45.959440
 30
0.0
 10
6.708678
 20
45.827459
 30
0.0
 10
6.810154
 20
45.700205
 30
0.0
 10
6.917423
 20
45.577897
 30
0.0
 10
7.030273
 20
45.460757
 30
0.0
 10
7.148499
 20
45.349008
 30
0.0
 10
7.271897
 20
45.242865
 30
0.0
 10
7.400255
 20
45.142556
 30
0.0
 10
7.533372
 20
45.048297
 30
0.0
 10
7.671040
 20
44.960308
 30
0.0
 10
7.813050
 20
44.878813
 30
0.0
 10
7.959199
 20
44.804035
 30
0.0
 10
8.109274
 20
44.736185
 30
0.0
 10
8.263077
 20
44.675493
 30
0.0
 10
8.420395
 20
44.622178
 30
0.0
 10
8.581025
 20
44.576458
 30
0.0
 10
8.744756
 20
44.538559
 30
0.0
 10
8.911387
 20
44.508693
 30
0.0
 10
9.080709
 20
44.487089
 30
0.0
 10
9.252515
 20
44.473966
 30
0.0
 10
9.426600
 20
44.469542
 30
0.0
 10
9.600731
 20
44.473966
 30
0.0
 10
9.772604
 20
44.487100
 30
0.0
 10
9.941972
 20
44.508725
 30
0.0
 10
10.108589
 20
44.538633
 30
0.0
 10
10.272313
 20
44.576606
 30
0.0
 10
10.432897
 20
44.622428
 30
0.0
 10
10.590094
 20
44.675892
 30
0.0
 10
10.743764
 20
44.736781
 30
0.0
 10
10.893624
 20
44.804881
 30
0.0
 10
11.039533
 20
44.879977
 30
0.0
 10
11.181208
 20
44.961857
 30
0.0
 10
11.318509
 20
45.050305
 30
0.0
 10
11.451153
 20
45.145110
 30
0.0
 10
11.578964
 20
45.246057
 30
0.0
 10
11.701731
 20
45.352931
 30
0.0
 10
11.819205
 20
45.465520
 30
0.0
 10
11.931247
 20
45.583609
 30
0.0
 10
12.037574
 20
45.706985
 30
0.0
 10
12.138010
 20
45.835435
 30
0.0
 10
12.232343
 20
45.968742
 30
0.0
 10
12.320325
 20
46.106696
 30
0.0
 10
12.401782
 20
46.249077
 30
0.0
 10
12.476500
 20
46.395680
 30
0.0
 10
12.544233
 20
46.546285
 30
0.0
 10
12.604805
 20
46.700681
 30
0.0
 10
12.658004
 20
46.858655
 30
0.0
 10
12.703582
 20
47.019987
 30
0.0
 10
12.741365
 20
47.184469
 30
0.0
 10
12.771104
 20
47.351887
 30
0.0
 10
12.792623
 20
47.522025
 30
0.0
 10
12.805676
 20
47.694670
 30
0.0
 10
12.810086
 20
47.869608
 30
0.0
 10
12.805676
 20
48.044609
 30
0.0
 10
12.792623
 20
48.217309
 30
0.0
 10
12.771104
 20
48.387492
 30
0.0
 10
12.741365
 20
48.554948
 30
0.0
 10
12.703582
 20
48.719466
 30
0.0
 10
12.658004
 20
48.880826
 30
0.0
 10
12.604805
 20
49.038818
 30
0.0
 10
12.544233
 20
49.193228
 30
0.0
 10
12.476500
 20
49.343843
 30
0.0
 10
12.401782
 20
49.490450
 30
0.0
 10
12.320325
 20
49.632834
 30
0.0
 10
12.232343
 20
49.770784
 30
0.0
 10
12.138010
 20
49.904085
 30
0.0
 10
12.037574
 20
50.032524
 30
0.0
 10
11.931247
 20
50.155886
 30
0.0
 10
11.819205
 20
50.273961
 30
0.0
 10
11.701731
 20
50.386532
 30
0.0
 10
11.578964
 20
50.493388
 30
0.0
 10
11.451153
 20
50.594314
 30
0.0
 10
11.318509
 20
50.689098
 30
0.0
 10
11.181208
 20
50.777526
 30
0.0
 10
11.039533
 20
50.859380
 30
0.0
 10
10.893624
 20
50.934455
 30
0.0
 10
10.743764
 20
51.002534
 30
0.0
 10
10.590094
 20
51.063402
 30
0.0
 10
10.432897
 20
51.116848
 30
0.0
 10
10.272313
 20
51.162656
 30
0.0
 10
10.108589
 20
51.200611
 30
0.0
 10
9.941972
 20
51.230506
 30
0.0
 10
9.772604
 20
51.252124
 30
0.0
 10
9.600731
 20
51.265251
 30
0.0
 10
9.426600
 20
51.269674
 30
0.0
 10
9.252519
 20
51.265251
 30
0.0
 10
9.080720
 20
51.252124
 30
0.0
 10
8.911415
 20
51.230506
 30
0.0
 10
8.744823
 20
51.200611
 30
0.0
 10
8.581152
 20
51.162656
 30
0.0
 10
8.420614
 20
51.116848
 30
0.0
 10
8.263423
 20
51.063402
 30
0.0
 10
8.109792
 20
51.002534
 30
0.0
 10
7.959936
 20
50.934455
 30
0.0
 10
7.814063
 20
50.859380
 30
0.0
 10
7.672387
 20
50.777526
 30
0.0
 10
7.535122
 20
50.689098
 30
0.0
 10
7.402481
 20
50.594314
 30
0.0
 10
7.274673
 20
50.493388
 30
0.0
 10
7.151914
 20
50.386532
 30
0.0
 10
7.034418
 20
50.273961
 30
0.0
 10
6.922394
 20
50.155886
 30
0.0
 10
6.816056
 20
50.032524
 30
0.0
 10
6.715617
 20
49.904085
 30
0.0
 10
6.621291
 20
49.770784
 30
0.0
 10
6.533288
 20
49.632834
 30
0.0
 10
6.451821
 20
49.490450
 30
0.0
 10
6.377106
 20
49.343843
 30
0.0
 10
6.309351
 20
49.193228
 30
0.0
 10
6.248771
 20
49.038818
 30
0.0
 10
6.195579
 20
48.880826
 30
0.0
 10
6.149986
 20
48.719466
 30
0.0
 10
6.112206
 20
48.554948
 30
0.0
 10
6.082452
 20
48.387492
 30
0.0
 10
6.060936
 20
48.217309
 30
0.0
 10
6.047870
 20
48.044609
 30
0.0
 10
6.043467
 20
47.869608
 30
0.0
  0
LWPOLYLINE
  5
10e
100
AcDbEntity
  8
Edge.Cuts
 62
1
100
AcDbPolyline
 90
129
 70
0
 10
19.015222
 20
47.831508
 30
0.0
 10
19.022097
 20
47.660031
 30
0.0
 10
19.037492
 20
47.490631
 30
0.0
 10
19.061197
 20
47.323530
 30
0.0
 10
19.093006
 20
47.158946
 30
0.0
 10
19.132710
 20
46.997102
 30
0.0
 10
19.180101
 20
46.838218
 30
0.0
 10
19.234971
 20
46.682513
 30
0.0
 10
19.297113
 20
46.530212
 30
0.0
 10
19.366317
 20
46.381534
 30
0.0
 10
19.442375
 20
46.236698
 30
0.0
 10
19.525083
 20
46.095926
 30
0.0
 10
19.614230
 20
45.959440
 30
0.0
 10
19.709607
 20
45.827459
 30
0.0
 10
19.811006
 20
45.700205
 30
0.0
 10
19.918222
 20
45.577897
 30
0.0
 10
20.031043
 20
45.460757
 30
0.0
 10
20.149266
 20
45.349008
 30
0.0
 10
20.272678
 20
45.242865
 30
0.0
 10
20.401075
 20
45.142556
 30
0.0
 10
20.534245
 20
45.048297
 30
0.0
 10
20.671983
 20
44.960308
 30
0.0
 10
20.814078
 20
44.878813
 30
0.0
 10
20.960329
 20
44.804035
 30
0.0
 10
21.110520
 20
44.736185
 30
0.0
 10
21.264448
 20
44.675493
 30
0.0
 10
21.421899
 20
44.622178
 30
0.0
 10
21.582674
 20
44.576458
 30
0.0
 10
21.746557
 20
44.538559
 30
0.0
 10
21.913346
 20
44.508693
 30
0.0
 10
22.082827
 20
44.487089
 30
0.0
 10
22.254799
 20
44.473966
 30
0.0
 10
22.429046
 20
44.469542
 30
0.0
 10
22.603248
 20
44.473966
 30
0.0
 10
22.775191
 20
44.487100
 30
0.0
 10
22.944630
 20
44.508725
 30
0.0
 10
23.111353
 20
44.538633
 30
0.0
 10
23.275147
 20
44.576606
 30
0.0
 10
23.435802
 20
44.622428
 30
0.0
 10
23.593140
 20
44.675892
 30
0.0
 10
23.746881
 20
44.736781
 30
0.0
 10
23.896881
 20
44.804881
 30
0.0
 10
24.042861
 20
44.879977
 30
0.0
 10
24.184642
 20
44.961857
 30
0.0
 10
24.322049
 20
45.050305
 30
0.0
 10
24.454799
 20
45.145110
 30
0.0
 10
24.582716
 20
45.246057
 30
0.0
 10
24.705553
 20
45.352931
 30
0.0
 10
24.823168
 20
45.465520
 30
0.0
 10
24.935281
 20
45.583609
 30
0.0
 10
25.041714
 20
45.706985
 30
0.0
 10
25.142255
 20
45.835435
 30
0.0
 10
25.236659
 20
45.968742
 30
0.0
 10
25.324747
 20
46.106696
 30
0.0
 10
25.406274
 20
46.249077
 30
0.0
 10
25.481063
 20
46.395680
 30
0.0
 10
25.548866
 20
46.546285
 30
0.0
 10
25.609509
 20
46.700681
 30
0.0
 10
25.662743
 20
46.858655
 30
0.0
 10
25.708392
 20
47.019987
 30
0.0
 10
25.746210
 20
47.184469
 30
0.0
 10
25.775984
 20
47.351887
 30
0.0
 10
25.797504
 20
47.522025
 30
0.0
 10
25.810592
 20
47.694670
 30
0.0
 10
25.815001
 20
47.869608
 30
0.0
 10
25.810592
 20
48.044609
 30
0.0
 10
25.797504
 20
48.217309
 30
0.0
 10
25.775984
 20
48.387492
 30
0.0
 10
25.746210
 20
48.554948
 30
0.0
 10
25.708392
 20
48.719466
 30
0.0
 10
25.662743
 20
48.880826
 30
0.0
 10
25.609509
 20
49.038818
 30
0.0
 10
25.548866
 20
49.193228
 30
0.0
 10
25.481063
 20
49.343843
 30
0.0
 10
25.406274
 20
49.490450
 30
0.0
 10
25.324747
 20
49.632834
 30
0.0
 10
25.236659
 20
49.770784
 30
0.0
 10
25.142255
 20
49.904085
 30
0.0
 10
25.041714
 20
50.032524
 30
0.0
 10
24.935281
 20
50.155886
 30
0.0
 10
24.823168
 20
50.273961
 30
0.0
 10
24.705553
 20
50.386532
 30
0.0
 10
24.582716
 20
50.493388
 30
0.0
 10
24.454799
 20
50.594314
 30
0.0
 10
24.322049
 20
50.689098
 30
0.0
 10
24.184642
 20
50.777526
 30
0.0
 10
24.042861
 20
50.859380
 30
0.0
 10
23.896881
 20
50.934455
 30
0.0
 10
23.746881
 20
51.002534
 30
0.0
 10
23.593140
 20
51.063402
 30
0.0
 10
23.435802
 20
51.116848
 30
0.0
 10
23.275147
 20
51.162656
 30
0.0
 10
23.111353
 20
51.200611
 30
0.0
 10
22.944630
 20
51.230506
 30
0.0
 10
22.775191
 20
51.252124
 30
0.0
 10
22.603248
 20
51.265251
 30
0.0
 10
22.429046
 20
51.269674
 30
0.0
 10
22.254799
 20
51.265251
 30
0.0
 10
22.082834
 20
51.252124
 30
0.0
 10
21.913367
 20
51.230506
 30
0.0
 10
21.746609
 20
51.200611
 30
0.0
 10
21.582776
 20
51.162656
 30
0.0
 10
21.422079
 20
51.116848
 30
0.0
 10
21.264730
 20
51.063402
 30
0.0
 10
21.110944
 20
51.002534
 30
0.0
 10
20.960932
 20
50.934455
 30
0.0
 10
20.814907
 20
50.859380
 30
0.0
 10
20.673087
 20
50.777526
 30
0.0
 10
20.535677
 20
50.689098
 30
0.0
 10
20.402895
 20
50.594314
 30
0.0
 10
20.274954
 20
50.493388
 30
0.0
 10
20.152064
 20
50.386532
 30
0.0
 10
20.034437
 20
50.273961
 30
0.0
 10
19.922293
 20
50.155886
 30
0.0
 10
19.815839
 20
50.032524
 30
0.0
 10
19.715290
 20
49.904085
 30
0.0
 10
19.620862
 20
49.770784
 30
0.0
 10
19.532760
 20
49.632834
 30
0.0
 10
19.451205
 20
49.490450
 30
0.0
 10
19.376402
 20
49.343843
 30
0.0
 10
19.308572
 20
49.193228
 30
0.0
 10
19.247924
 20
49.038818
 30
0.0
 10
19.194671
 20
48.880826
 30
0.0
 10
19.149027
 20
48.719466
 30
0.0
 10
19.111204
 20
48.554948
 30
0.0
 10
19.081415
 20
48.387492
 30
0.0
 10
19.059874
 20
48.217309
 30
0.0
 10
19.046793
 20
48.044609
 30
0.0
 10
19.042385
 20
47.869608
 30
0.0
  0
LWPOLYLINE
  5
10f
100
AcDbEntity
  8
Edge.Cuts
 62
1
100
AcDbPolyline
 90
129
 70
0
 10
32.019899
 20
47.831508
 30
0.0
 10
32.026327
 20
47.660031
 30
0.0
 10
32.041304
 20
47.490631
 30
0.0
 10
32.064622
 20
47.323530
 30
0.0
 10
32.096072
 20
47.158946
 30
0.0
 10
32.135444
 20
46.997102
 30
0.0
 10
32.182531
 20
46.838218
 30
0.0
 10
32.237123
 20
46.682513
 30
0.0
 10
32.299012
 20
46.530212
 30
0.0
 10
32.367989
 20
46.381534
 30
0.0
 10
32.443846
 20
46.236698
 30
0.0
 10
32.526371
 20
46.095926
 30
0.0
 10
32.615359
 20
45.959440
 30
0.0
 10
32.710602
 20
45.827459
 30
0.0
 10
32.811884
 20
45.700205
 30
0.0
 10
32.919005
 20
45.577897
 30
0.0
 10
33.031752
 20
45.460757
 30
0.0
 10
33.149919
 20
45.349008
 30
0.0
 10
33.273292
 20
45.242865
 30
0.0
 10
33.401664
 20
45.142556
 30
0.0
 10
33.534830
 20
45.048297
 30
0.0
 10
33.672576
 20
44.960308
 30
0.0
 10
33.814699
 20
44.878813
 30
0.0
 10
33.960985
 20
44.804035
 30
0.0
 10
34.111229
 20
44.736185
 30
0.0
 10
34.265220
 20
44.675493
 30
0.0
 10
34.422749
 20
44.622178
 30
0.0
 10
34.583608
 20
44.576458
 30
0.0
 10
34.747590
 20
44.538559
 30
0.0
 10
34.914482
 20
44.508693
 30
0.0
 10
35.084079
 20
44.487089
 30
0.0
 10
35.256171
 20
44.473966
 30
0.0
 10
35.430549
 20
44.469542
 30
0.0
 10
35.604997
 20
44.473966
 30
0.0
 10
35.777152
 20
44.487100
 30
0.0
 10
35.946768
 20
44.508725
 30
0.0
 10
36.113702
 20
44.538633
 30
0.0
 10
36.277673
 20
44.576606
 30
0.0
 10
36.438539
 20
44.622428
 30
0.0
 10
36.596019
 20
44.675892
 30
0.0
 10
36.749935
 20
44.736781
 30
0.0
 10
36.900077
 20
44.804881
 30
0.0
 10
37.046198
 20
44.879977
 30
0.0
 10
37.188120
 20
44.961857
 30
0.0
 10
37.325632
 20
45.050305
 30
0.0
 10
37.458488
 20
45.145110
 30
0.0
 10
37.586511
 20
45.246057
 30
0.0
 10
37.709489
 20
45.352931
 30
0.0
 10
37.827176
 20
45.465520
 30
0.0
 10
37.939394
 20
45.583609
 30
0.0
 10
38.045898
 20
45.706985
 30
0.0
 10
38.146510
 20
45.835435
 30
0.0
 10
38.240983
 20
45.968742
 30
0.0
 10
38.329107
 20
46.106696
 30
0.0
 10
38.410704
 20
46.249077
 30
0.0
 10
38.485564
 20
46.395680
 30
0.0
 10
38.553403
 20
46.546285
 30
0.0
 10
38.614080
 20
46.700681
 30
0.0
 10
38.667350
 20
46.858655
 30
0.0
 10
38.712999
 20
47.019987
 30
0.0
 10
38.750852
 20
47.184469
 30
0.0
 10
38.780627
 20
47.351887
 30
0.0
 10
38.802181
 20
47.522025
 30
0.0
 10
38.815269
 20
47.694670
 30
0.0
 10
38.819679
 20
47.869608
 30
0.0
 10
38.815269
 20
48.044609
 30
0.0
 10
38.802181
 20
48.217309
 30
0.0
 10
38.780627
 20
48.387492
 30
0.0
 10
38.750852
 20
48.554948
 30
0.0
 10
38.712999
 20
48.719466
 30
0.0
 10
38.667350
 20
48.880826
 30
0.0
 10
38.614080
 20
49.038818
 30
0.0
 10
38.553403
 20
49.193228
 30
0.0
 10
38.485564
 20
49.343843
 30
0.0
 10
38.410704
 20
49.490450
 30
0.0
 10
38.329107
 20
49.632834
 30
0.0
 10
38.240983
 20
49.770784
 30
0.0
 10
38.146510
 20
49.904085
 30
0.0
 10
38.045898
 20
50.032524
 30
0.0
 10
37.939394
 20
50.155886
 30
0.0
 10
37.827176
 20
50.273961
 30
0.0
 10
37.709489
 20
50.386532
 30
0.0
 10
37.586511
 20
50.493388
 30
0.0
 10
37.458488
 20
50.594314
 30
0.0
 10
37.325632
 20
50.689098
 30
0.0
 10
37.188120
 20
50.777526
 30
0.0
 10
37.046198
 20
50.859380
 30
0.0
 10
36.900077
 20
50.934455
 30
0.0
 10
36.749935
 20
51.002534
 30
0.0
 10
36.596019
 20
51.063402
 30
0.0
 10
36.438539
 20
51.116848
 30
0.0
 10
36.277673
 20
51.162656
 30
0.0
 10
36.113702
 20
51.200611
 30
0.0
 10
35.946768
 20
51.230506
 30
0.0
 10
35.777152
 20
51.252124
 30
0.0
 10
35.604997
 20
51.265251
 30
0.0
 10
35.430549
 20
51.269674
 30
0.0
 10
35.256171
 20
51.265251
 30
0.0
 10
35.084083
 20
51.252124
 30
0.0
 10
34.914499
 20
51.230506
 30
0.0
 10
34.747632
 20
51.200611
 30
0.0
 10
34.583693
 20
51.162656
 30
0.0
 10
34.422894
 20
51.116848
 30
0.0
 10
34.265453
 20
51.063402
 30
0.0
 10
34.111575
 20
51.002534
 30
0.0
 10
33.961479
 20
50.934455
 30
0.0
 10
33.815376
 20
50.859380
 30
0.0
 10
33.673479
 20
50.777526
 30
0.0
 10
33.536001
 20
50.689098
 30
0.0
 10
33.403153
 20
50.594314
 30
0.0
 10
33.275151
 20
50.493388
 30
0.0
 10
33.152205
 20
50.386532
 30
0.0
 10
33.034529
 20
50.273961
 30
0.0
 10
32.922338
 20
50.155886
 30
0.0
 10
32.815842
 20
50.032524
 30
0.0
 10
32.715251
 20
49.904085
 30
0.0
 10
32.620785
 20
49.770784
 30
0.0
 10
32.532654
 20
49.632834
 30
0.0
 10
32.451067
 20
49.490450
 30
0.0
 10
32.376243
 20
49.343843
 30
0.0
 10
32.308388
 20
49.193228
 30
0.0
 10
32.247721
 20
49.038818
 30
0.0
 10
32.194452
 20
48.880826
 30
0.0
 10
32.148794
 20
48.719466
 30
0.0
 10
32.110961
 20
48.554948
 30
0.0
 10
32.081164
 20
48.387492
 30
0.0
 10
32.059617
 20
48.217309
 30
0.0
 10
32.046533
 20
48.044609
 30
0.0
 10
32.042124
 20
47.869608
 30
0.0
  0
LWPOLYLINE
  5
110
100
AcDbEntity
  8
Edge.Cuts
 62
1
100
AcDbPolyline
 90
129
 70
0
 10
45.024974
 20
47.831508
 30
0.0
 10
45.030831
 20
47.660031
 30
0.0
 10
45.045285
 20
47.490631
 30
0.0
 10
45.068126
 20
47.323530
 30
0.0
 10
45.099144
 20
47.158946
 30
0.0
 10
45.138127
 20
46.997102
 30
0.0
 10
45.184866
 20
46.838218
 30
0.0
 10
45.239150
 20
46.682513
 30
0.0
 10
45.300768
 20
46.530212
 30
0.0
 10
45.369511
 20
46.381534
 30
0.0
 10
45.445166
 20
46.236698
 30
0.0
 10
45.527526
 20
46.095926
 30
0.0
 10
45.616380
 20
45.959440
 30
0.0
 10
45.711513
 20
45.827459
 30
0.0
 10
45.812718
 20
45.700205
 30
0.0
 10
45.919786
 20
45.577897
 30
0.0
 10
46.032505
 20
45.460757
 30
0.0
 10
46.150664
 20
45.349008
 30
0.0
 10
46.274052
 20
45.242865
 30
0.0
 10
46.402463
 20
45.142556
 30
0.0
 10
46.535678
 20
45.048297
 30
0.0
 10
46.673498
 20
44.960308
 30
0.0
 10
46.815702
 20
44.878813
 30
0.0
 10
46.962084
 20
44.804035
 30
0.0
 10
47.112434
 20
44.736185
 30
0.0
 10
47.266541
 20
44.675493
 30
0.0
 10
47.424193
 20
44.622178
 30
0.0
 10
47.585183
 20
44.576458
 30
0.0
 10
47.749295
 20
44.538559
 30
0.0
 10
47.916325
 20
44.508693
 30
0.0
 10
48.086060
 20
44.487089
 30
0.0
 10
48.258289
 20
44.473966
 30
0.0
 10
48.432801
 20
44.469542
 30
0.0
 10
48.607390
 20
44.473966
 30
0.0
 10
48.779722
 20
44.487100
 30
0.0
 10
48.949514
 20
44.508725
 30
0.0
 10
49.116589
 20
44.538633
 30
0.0
 10
49.280701
 20
44.576606
 30
0.0
 10
49.441708
 20
44.622428
 30
0.0
 10
49.599329
 20
44.675892
 30
0.0
 10
49.753352
 20
44.736781
 30
0.0
 10
49.903635
 20
44.804881
 30
0.0
 10
50.049896
 20
44.879977
 30
0.0
 10
50.191924
 20
44.961857
 30
0.0
 10
50.329543
 20
45.050305
 30
0.0
 10
50.462540
 20
45.145110
 30
0.0
 10
50.590668
 20
45.246057
 30
0.0
 10
50.713717
 20
45.352931
 30
0.0
 10
50.831509
 20
45.465520
 30
0.0
 10
50.943798
 20
45.583609
 30
0.0
 10
51.050408
 20
45.706985
 30
0.0
 10
51.151090
 20
45.835435
 30
0.0
 10
51.245634
 20
45.968742
 30
0.0
 10
51.333829
 20
46.106696
 30
0.0
 10
51.415497
 20
46.249077
 30
0.0
 10
51.490391
 20
46.395680
 30
0.0
 10
51.558301
 20
46.546285
 30
0.0
 10
51.619014
 20
46.700681
 30
0.0
 10
51.672318
 20
46.858655
 30
0.0
 10
51.718003
 20
47.019987
 30
0.0
 10
51.755856
 20
47.184469
 30
0.0
 10
51.785701
 20
47.351887
 30
0.0
 10
51.807256
 20
47.522025
 30
0.0
 10
51.820344
 20
47.694670
 30
0.0
 10
51.824753
 20
47.869608
 30
0.0
 10
51.820344
 20
48.044609
 30
0.0
 10
51.807256
 20
48.217309
 30
0.0
 10
51.785701
 20
48.387492
 30
0.0
 10
51.755856
 20
48.554948
 30
0.0
 10
51.718003
 20
48.719466
 30
0.0
 10
51.672318
 20
48.880826
 30
0.0
 10
51.619014
 20
49.038818
 30
0.0
 10
51.558301
 20
49.193228
 30
0.0
 10
51.490391
 20
49.343843
 30
0.0
 10
51.415497
 20
49.490450
 30
0.0
 10
51.333829
 20
49.632834
 30
0.0
 10
51.245634
 20
49.770784
 30
0.0
 10
51.151090
 20
49.904085
 30
0.0
 10
51.050408
 20
50.032524
 30
0.0
 10
50.943798
 20
50.155886
 30
0.0
 10
50.831509
 20
50.273961
 30
0.0
 10
50.713717
 20
50.386532
 30
0.0
 10
50.590668
 20
50.493388
 30
0.0
 10
50.462540
 20
50.594314
 30
0.0
 10
50.329543
 20
50.689098
 30
0.0
 10
50.191924
 20
50.777526
 30
0.0
 10
50.049896
 20
50.859380
 30
0.0
 10
49.903635
 20
50.934455
 30
0.0
 10
49.753352
 20
51.002534
 30
0.0
 10
49.599329
 20
51.063402
 30
0.0
 10
49.441708
 20
51.116848
 30
0.0
 10
49.280701
 20
51.162656
 30
0.0
 10
49.116589
 20
51.200611
 30
0.0
 10
48.949514
 20
51.230506
 30
0.0
 10
48.779722
 20
51.252124
 30
0.0
 10
48.607390
 20
51.265251
 30
0.0
 10
48.432801
 20
51.269674
 30
0.0
 10
48.258289
 20
51.265251
 30
0.0
 10
48.086063
 20
51.252124
 30
0.0
 10
47.916339
 20
51.230506
 30
0.0
 10
47.749327
 20
51.200611
 30
0.0
 10
47.585243
 20
51.162656
 30
0.0
 10
47.424299
 20
51.116848
 30
0.0
 10
47.266707
 20
51.063402
 30
0.0
 10
47.112681
 20
51.002534
 30
0.0
 10
46.962436
 20
50.934455
 30
0.0
 10
46.816186
 20
50.859380
 30
0.0
 10
46.674140
 20
50.777526
 30
0.0
 10
46.536518
 20
50.689098
 30
0.0
 10
46.403528
 20
50.594314
 30
0.0
 10
46.275382
 20
50.493388
 30
0.0
 10
46.152298
 20
50.386532
 30
0.0
 10
46.034488
 20
50.273961
 30
0.0
 10
45.922167
 20
50.155886
 30
0.0
 10
45.815544
 20
50.032524
 30
0.0
 10
45.714836
 20
49.904085
 30
0.0
 10
45.620253
 20
49.770784
 30
0.0
 10
45.532013
 20
49.632834
 30
0.0
 10
45.450324
 20
49.490450
 30
0.0
 10
45.375405
 20
49.343843
 30
0.0
 10
45.307466
 20
49.193228
 30
0.0
 10
45.246719
 20
49.038818
 30
0.0
 10
45.193381
 20
48.880826
 30
0.0
 10
45.147663
 20
48.719466
 30
0.0
 10
45.109779
 20
48.554948
 30
0.0
 10
45.079942
 20
48.387492
 30
0.0
 10
45.058366
 20
48.217309
 30
0.0
 10
45.045263
 20
48.044609
 30
0.0
 10
45.040849
 20
47.869608
 30
0.0
  0
LWPOLYLINE
  5
111
100
AcDbEntity
  8
Edge.Cuts
 62
1
100
AcDbPolyline
 90
129
 70
0
 10
58.029519
 20
47.831508
 30
0.0
 10
58.034898
 20
47.660031
 30
0.0
 10
58.048911
 20
47.490631
 30
0.0
 10
58.071346
 20
47.323530
 30
0.0
 10
58.101992
 20
47.158946
 30
0.0
 10
58.140637
 20
46.997102
 30
0.0
 10
58.187069
 20
46.838218
 30
0.0
 10
58.241079
 20
46.682513
 30
0.0
 10
58.302453
 20
46.530212
 30
0.0
 10
58.370980
 20
46.381534
 30
0.0
 10
58.446449
 20
46.236698
 30
0.0
 10
58.528649
 20
46.095926
 30
0.0
 10
58.617369
 20
45.959440
 30
0.0
 10
58.712397
 20
45.827459
 30
0.0
 10
58.813524
 20
45.700205
 30
0.0
 10
58.920532
 20
45.577897
 30
0.0
 10
59.033216
 20
45.460757
 30
0.0
 10
59.151357
 20
45.349008
 30
0.0
 10
59.274755
 20
45.242865
 30
0.0
 10
59.403191
 20
45.142556
 30
0.0
 10
59.536452
 20
45.048297
 30
0.0
 10
59.674332
 20
44.960308
 30
0.0
 10
59.816617
 20
44.878813
 30
0.0
 10
59.963094
 20
44.804035
 30
0.0
 10
60.113557
 20
44.736185
 30
0.0
 10
60.267788
 20
44.675493
 30
0.0
 10
60.425578
 20
44.622178
 30
0.0
 10
60.586716
 20
44.576458
 30
0.0
 10
60.750990
 20
44.538559
 30
0.0
 10
60.918192
 20
44.508693
 30
0.0
 10
61.088107
 20
44.487089
 30
0.0
 10
61.260524
 20
44.473966
 30
0.0
 10
61.435230
 20
44.469542
 30
0.0
 10
61.609890
 20
44.473966
 30
0.0
 10
61.782292
 20
44.487100
 30
0.0
 10
61.952154
 20
44.508725
 30
0.0
 10
62.119300
 20
44.538633
 30
0.0
 10
62.283518
 20
44.576606
 30
0.0
 10
62.444596
 20
44.622428
 30
0.0
 10
62.602287
 20
44.675892
 30
0.0
 10
62.756415
 20
44.736781
 30
0.0
 10
62.906769
 20
44.804881
 30
0.0
 10
63.053101
 20
44.879977
 30
0.0
 10
63.195235
 20
44.961857
 30
0.0
 10
63.332959
 20
45.050305
 30
0.0
 10
63.466027
 20
45.145110
 30
0.0
 10
63.594226
 20
45.246057
 30
0.0
 10
63.717380
 20
45.352931
 30
0.0
 10
63.835243
 20
45.465520
 30
0.0
 10
63.947638
 20
45.583609
 30
0.0
 10
64.054318
 20
45.706985
 30
0.0
 10
64.155071
 20
45.835435
 30
0.0
 10
64.249686
 20
45.968742
 30
0.0
 10
64.337951
 20
46.106696
 30
0.0
 10
64.419689
 20
46.249077
 30
0.0
 10
64.494619
 20
46.395680
 30
0.0
 10
64.562599
 20
46.546285
 30
0.0
 10
64.623383
 20
46.700681
 30
0.0
 10
64.676723
 20
46.858655
 30
0.0
 10
64.722442
 20
47.019987
 30
0.0
 10
64.760366
 20
47.184469
 30
0.0
 10
64.790211
 20
47.351887
 30
0.0
 10
64.811766
 20
47.522025
 30
0.0
 10
64.824889
 20
47.694670
 30
0.0
 10
64.829299
 20
47.869608
 30
0.0
 10
64.824889
 20
48.044609
 30
0.0
 10
64.811766
 20
48.217309
 30
0.0
 10
64.790211
 20
48.387492
 30
0.0
 10
64.760366
 20
48.554948
 30
0.0
 10
64.722442
 20
48.719466
 30
0.0
 10
64.676723
 20
48.880826
 30
0.0
 10
64.623383
 20
49.038818
 30
0.0
 10
64.562599
 20
49.193228
 30
0.0
 10
64.494619
 20
49.343843
 30
0.0
 10
64.419689
 20
49.490450
 30
0.0
 10
64.337951
 20
49.632834
 30
0.0
 10
64.249686
 20
49.770784
 30
0.0
 10
64.155071
 20
49.904085
 30
0.0
 10
64.054318
 20
50.032524
 30
0.0
 10
63.947638
 20
50.155886
 30
0.0
 10
63.835243
 20
50.273961
 30
0.0
 10
63.717380
 20
50.386532
 30
0.0
 10
63.594226
 20
50.493388
 30
0.0
 10
63.466027
 20
50.594314
 30
0.0
 10
63.332959
 20
50.689098
 30
0.0
 10
63.195235
 20
50.777526
 30
0.0
 10
63.053101
 20
50.859380
 30
0.0
 10
62.906769
 20
50.934455
 30
0.0
 10
62.756415
 20
51.002534
 30
0.0
 10
62.602287
 20
51.063402
 30
0.0
 10
62.444596
 20
51.116848
 30
0.0
 10
62.283518
 20
51.162656
 30
0.0
 10
62.119300
 20
51.200611
 30
0.0
 10
61.952154
 20
51.230506
 30
0.0
 10
61.782292
 20
51.252124
 30
0.0
 10
61.609890
 20
51.265251
 30
0.0
 10
61.435230
 20
51.269674
 30
0.0
 10
61.260524
 20
51.265251
 30
0.0
 10
61.088107
 20
51.252124
 30
0.0
 10
60.918199
 20
51.230506
 30
0.0
 10
60.751011
 20
51.200611
 30
0.0
 10
60.586758
 20
51.162656
 30
0.0
 10
60.425648
 20
51.116848
 30
0.0
 10
60.267897
 20
51.063402
 30
0.0
 10
60.113719
 20
51.002534
 30
0.0
 10
59.963330
 20
50.934455
 30
0.0
 10
59.816938
 20
50.859380
 30
0.0
 10
59.674762
 20
50.777526
 30
0.0
 10
59.537010
 20
50.689098
 30
0.0
 10
59.403900
 20
50.594314
 30
0.0
 10
59.275641
 20
50.493388
 30
0.0
 10
59.152447
 20
50.386532
 30
0.0
 10
59.034535
 20
50.273961
 30
0.0
 10
58.922119
 20
50.155886
 30
0.0
 10
58.815404
 20
50.032524
 30
0.0
 10
58.714612
 20
49.904085
 30
0.0
 10
58.619955
 20
49.770784
 30
0.0
 10
58.531641
 20
49.632834
 30
0.0
 10
58.449888
 20
49.490450
 30
0.0
 10
58.374910
 20
49.343843
 30
0.0
 10
58.306917
 20
49.193228
 30
0.0
 10
58.246125
 20
49.038818
 30
0.0
 10
58.192746
 20
48.880826
 30
0.0
 10
58.146994
 20
48.719466
 30
0.0
 10
58.109082
 20
48.554948
 30
0.0
 10
58.079223
 20
48.387492
 30
0.0
 10
58.057632
 20
48.217309
 30
0.0
 10
58.044520
 20
48.044609
 30
0.0
 10
58.040102
 20
47.869608
 30
0.0
  0
LWPOLYLINE
  5
112
100
AcDbEntity
  8
Edge.Cuts
 62
1
100
AcDbPolyline
 90
129
 70
0
 10
55.473906
 20
67.830584
 30
0.0
 10
55.480726
 20
67.641382
 30
0.0
 10
55.496998
 20
67.454477
 30
0.0
 10
55.522489
 20
67.270113
 30
0.0
 10
55.556969
 20
67.088528
 30
0.0
 10
55.600207
 20
66.909969
 30
0.0
 10
55.651973
 20
66.734681
 30
0.0
 10
55.712035
 20
66.562904
 30
0.0
 10
55.780161
 20
66.394887
 30
0.0
 10
55.856123
 20
66.230866
 30
0.0
 10
55.939685
 20
66.071086
 30
0.0
 10
56.030621
 20
65.915794
 30
0.0
 10
56.128700
 20
65.765232
 30
0.0
 10
56.233686
 20
65.619641
 30
0.0
 10
56.345354
 20
65.479268
 30
0.0
 10
56.463468
 20
65.344351
 30
0.0
 10
56.587800
 20
65.215140
 30
0.0
 10
56.718120
 20
65.091872
 30
0.0
 10
56.854193
 20
64.974793
 30
0.0
 10
56.995791
 20
64.864148
 30
0.0
 10
57.142680
 20
64.760177
 30
0.0
 10
57.294632
 20
64.663128
 30
0.0
 10
57.451417
 20
64.573241
 30
0.0
 10
57.612801
 20
64.490758
 30
0.0
 10
57.778557
 20
64.415927
 30
0.0
 10
57.948448
 20
64.348987
 30
0.0
 10
58.122247
 20
64.290183
 30
0.0
 10
58.299722
 20
64.239771
 30
0.0
 10
58.480644
 20
64.197967
 30
0.0
 10
58.664779
 20
64.165017
 30
0.0
 10
58.851896
 20
64.141205
 30
0.0
 10
59.041754
 20
64.126706
 30
0.0
 10
59.234158
 20
64.121837
 30
0.0
 10
59.426633
 20
64.126706
 30
0.0
 10
59.616604
 20
64.141205
 30
0.0
 10
59.803788
 20
64.165053
 30
0.0
 10
59.987973
 20
64.198037
 30
0.0
 10
60.168947
 20
64.239912
 30
0.0
 10
60.346429
 20
64.290465
 30
0.0
 10
60.520207
 20
64.349418
 30
0.0
 10
60.690034
 20
64.416572
 30
0.0
 10
60.855698
 20
64.491678
 30
0.0
 10
61.016953
 20
64.574500
 30
0.0
 10
61.173586
 20
64.664804
 30
0.0
 10
61.325315
 20
64.762354
 30
0.0
 10
61.471930
 20
64.866917
 30
0.0
 10
61.613182
 20
64.978250
 30
0.0
 10
61.748895
 20
65.096123
 30
0.0
 10
61.878752
 20
65.220297
 30
0.0
 10
62.002577
 20
65.350539
 30
0.0
 10
62.120087
 20
65.486612
 30
0.0
 10
62.231106
 20
65.628281
 30
0.0
 10
62.335352
 20
65.775308
 30
0.0
 10
62.432612
 20
65.927460
 30
0.0
 10
62.522676
 20
66.084499
 30
0.0
 10
62.605226
 20
66.246191
 30
0.0
 10
62.680121
 20
66.412300
 30
0.0
 10
62.747078
 20
66.582585
 30
0.0
 10
62.805851
 20
66.756822
 30
0.0
 10
62.856227
 20
66.934763
 30
0.0
 10
62.897996
 20
67.116178
 30
0.0
 10
62.930875
 20
67.300832
 30
0.0
 10
62.954652
 20
67.488487
 30
0.0
 10
62.969081
 20
67.678908
 30
0.0
 10
62.973949
 20
67.871859
 30
0.0
 10
62.969081
 20
68.064810
 30
0.0
 10
62.954652
 20
68.255232
 30
0.0
 10
62.930875
 20
68.442885
 30
0.0
 10
62.897996
 20
68.627539
 30
0.0
 10
62.856227
 20
68.808955
 30
0.0
 10
62.805851
 20
68.986896
 30
0.0
 10
62.747078
 20
69.161132
 30
0.0
 10
62.680121
 20
69.331418
 30
0.0
 10
62.605226
 20
69.497526
 30
0.0
 10
62.522676
 20
69.659218
 30
0.0
 10
62.432612
 20
69.816257
 30
0.0
 10
62.335352
 20
69.968410
 30
0.0
 10
62.231106
 20
70.115437
 30
0.0
 10
62.120087
 20
70.257105
 30
0.0
 10
62.002577
 20
70.393178
 30
0.0
 10
61.878752
 20
70.523420
 30
0.0
 10
61.748895
 20
70.647594
 30
0.0
 10
61.613182
 20
70.765467
 30
0.0
 10
61.471930
 20
70.876800
 30
0.0
 10
61.325315
 20
70.981364
 30
0.0
 10
61.173586
 20
71.078914
 30
0.0
 10
61.016953
 20
71.169217
 30
0.0
 10
60.855698
 20
71.252039
 30
0.0
 10
60.690034
 20
71.327145
 30
0.0
 10
60.520207
 20
71.394303
 30
0.0
 10
60.346429
 20
71.453252
 30
0.0
 10
60.168947
 20
71.503805
 30
0.0
 10
59.987973
 20
71.545680
 30
0.0
 10
59.803788
 20
71.578665
 30
0.0
 10
59.616604
 20
71.602512
 30
0.0
 10
59.426633
 20
71.617012
 30
0.0
 10
59.234158
 20
71.621880
 30
0.0
 10
59.041754
 20
71.617012
 30
0.0
 10
58.851900
 20
71.602512
 30
0.0
 10
58.664797
 20
71.578665
 30
0.0
 10
58.480686
 20
71.545680
 30
0.0
 10
58.299803
 20
71.503805
 30
0.0
 10
58.122388
 20
71.453252
 30
0.0
 10
57.948674
 20
71.394303
 30
0.0
 10
57.778893
 20
71.327145
 30
0.0
 10
57.613281
 20
71.252039
 30
0.0
 10
57.452073
 20
71.169217
 30
0.0
 10
57.295507
 20
71.078914
 30
0.0
 10
57.143816
 20
70.981364
 30
0.0
 10
56.997234
 20
70.876800
 30
0.0
 10
56.855996
 20
70.765467
 30
0.0
 10
56.720335
 20
70.647594
 30
0.0
 10
56.590492
 20
70.523420
 30
0.0
 10
56.466696
 20
70.393178
 30
0.0
 10
56.349182
 20
70.257105
 30
0.0
 10
56.238191
 20
70.115437
 30
0.0
 10
56.133953
 20
69.968410
 30
0.0
 10
56.036702
 20
69.816257
 30
0.0
 10
55.946677
 20
69.659218
 30
0.0
 10
55.864113
 20
69.497526
 30
0.0
 10
55.789240
 20
69.331418
 30
0.0
 10
55.722296
 20
69.161132
 30
0.0
 10
55.663515
 20
68.986896
 30
0.0
 10
55.613134
 20
68.808955
 30
0.0
 10
55.571385
 20
68.627539
 30
0.0
 10
55.538506
 20
68.442885
 30
0.0
 10
55.514729
 20
68.255232
 30
0.0
 10
55.500291
 20
68.064810
 30
0.0
 10
55.495426
 20
67.871859
 30
0.0
  0
LWPOLYLINE
  5
113
100
AcDbEntity
  8
Edge.Cuts
 62
1
100
AcDbPolyline
 90
129
 70
0
 10
31.665886
 20
67.830584
 30
0.0
 10
31.673374
 20
67.641351
 30
0.0
 10
31.690261
 20
67.454414
 30
0.0
 10
31.716318
 20
67.270021
 30
0.0
 10
31.751315
 20
67.088411
 30
0.0
 10
31.795023
 20
66.909828
 30
0.0
 10
31.847213
 20
66.734519
 30
0.0
 10
31.907656
 20
66.562720
 30
0.0
 10
31.976121
 20
66.394682
 30
0.0
 10
32.052378
 20
66.230644
 30
0.0
 10
32.136205
 20
66.070850
 30
0.0
 10
32.227363
 20
65.915540
 30
0.0
 10
32.325629
 20
65.764964
 30
0.0
 10
32.430771
 20
65.619362
 30
0.0
 10
32.542559
 20
65.478975
 30
0.0
 10
32.660764
 20
65.344052
 30
0.0
 10
32.785160
 20
65.214829
 30
0.0
 10
32.915515
 20
65.091555
 30
0.0
 10
33.051599
 20
64.974472
 30
0.0
 10
33.193186
 20
64.863820
 30
0.0
 10
33.340040
 20
64.759846
 30
0.0
 10
33.491939
 20
64.662789
 30
0.0
 10
33.648653
 20
64.572898
 30
0.0
 10
33.809946
 20
64.490415
 30
0.0
 10
33.975596
 20
64.415581
 30
0.0
 10
34.145370
 20
64.348638
 30
0.0
 10
34.319039
 20
64.289830
 30
0.0
 10
34.496373
 20
64.239418
 30
0.0
 10
34.677146
 20
64.197614
 30
0.0
 10
34.861127
 20
64.164665
 30
0.0
 10
35.048085
 20
64.140852
 30
0.0
 10
35.237790
 20
64.126353
 30
0.0
 10
35.430019
 20
64.121485
 30
0.0
 10
35.622318
 20
64.126353
 30
0.0
 10
35.812076
 20
64.140852
 30
0.0
 10
35.999084
 20
64.164700
 30
0.0
 10
36.183057
 20
64.197685
 30
0.0
 10
36.363820
 20
64.239559
 30
0.0
 10
36.541126
 20
64.290112
 30
0.0
 10
36.714727
 20
64.349068
 30
0.0
 10
36.884413
 20
64.416223
 30
0.0
 10
37.049901
 20
64.491333
 30
0.0
 10
37.210979
 20
64.574158
 30
0.0
 10
37.367436
 20
64.664465
 30
0.0
 10
37.518989
 20
64.762022
 30
0.0
 10
37.665462
 20
64.866585
 30
0.0
 10
37.806608
 20
64.977925
 30
0.0
 10
37.942145
 20
65.095806
 30
0.0
 10
38.071861
 20
65.219987
 30
0.0
 10
38.195580
 20
65.350239
 30
0.0
 10
38.312984
 20
65.486323
 30
0.0
 10
38.423862
 20
65.628002
 30
0.0
 10
38.528002
 20
65.775043
 30
0.0
 10
38.625192
 20
65.927206
 30
0.0
 10
38.715115
 20
66.084259
 30
0.0
 10
38.797594
 20
66.245969
 30
0.0
 10
38.872418
 20
66.412095
 30
0.0
 10
38.939270
 20
66.582402
 30
0.0
 10
38.998007
 20
66.756656
 30
0.0
 10
39.048348
 20
66.934621
 30
0.0
 10
39.090047
 20
67.116062
 30
0.0
 10
39.122890
 20
67.300741
 30
0.0
 10
39.146632
 20
67.488424
 30
0.0
 10
39.161061
 20
67.678875
 30
0.0
 10
39.165929
 20
67.871859
 30
0.0
 10
39.161061
 20
68.064842
 30
0.0
 10
39.146632
 20
68.255292
 30
0.0
 10
39.122890
 20
68.442977
 30
0.0
 10
39.090047
 20
68.627656
 30
0.0
 10
39.048348
 20
68.809096
 30
0.0
 10
38.998007
 20
68.987061
 30
0.0
 10
38.939270
 20
69.161316
 30
0.0
 10
38.872418
 20
69.331622
 30
0.0
 10
38.797594
 20
69.497749
 30
0.0
 10
38.715115
 20
69.659458
 30
0.0
 10
38.625192
 20
69.816511
 30
0.0
 10
38.528002
 20
69.968674
 30
0.0
 10
38.423862
 20
70.115715
 30
0.0
 10
38.312984
 20
70.257394
 30
0.0
 10
38.195580
 20
70.393478
 30
0.0
 10
38.071861
 20
70.523730
 30
0.0
 10
37.942145
 20
70.647912
 30
0.0
 10
37.806608
 20
70.765792
 30
0.0
 10
37.665462
 20
70.877132
 30
0.0
 10
37.518989
 20
70.981695
 30
0.0
 10
37.367436
 20
71.079252
 30
0.0
 10
37.210979
 20
71.169560
 30
0.0
 10
37.049901
 20
71.252385
 30
0.0
 10
36.884413
 20
71.327494
 30
0.0
 10
36.714727
 20
71.394656
 30
0.0
 10
36.541126
 20
71.453605
 30
0.0
 10
36.363820
 20
71.504158
 30
0.0
 10
36.183057
 20
71.546033
 30
0.0
 10
35.999084
 20
71.579017
 30
0.0
 10
35.812076
 20
71.602865
 30
0.0
 10
35.622318
 20
71.617364
 30
0.0
 10
35.430019
 20
71.622233
 30
0.0
 10
35.237790
 20
71.617364
 30
0.0
 10
35.048092
 20
71.602865
 30
0.0
 10
34.861151
 20
71.579017
 30
0.0
 10
34.677203
 20
71.546033
 30
0.0
 10
34.496486
 20
71.504158
 30
0.0
 10
34.319229
 20
71.453605
 30
0.0
 10
34.145674
 20
71.394656
 30
0.0
 10
33.976048
 20
71.327494
 30
0.0
 10
33.810592
 20
71.252385
 30
0.0
 10
33.649535
 20
71.169560
 30
0.0
 10
33.493117
 20
71.079252
 30
0.0
 10
33.341567
 20
70.981695
 30
0.0
 10
33.195123
 20
70.877132
 30
0.0
 10
33.054022
 20
70.765792
 30
0.0
 10
32.918496
 20
70.647912
 30
0.0
 10
32.788776
 20
70.523730
 30
0.0
 10
32.665103
 20
70.393478
 30
0.0
 10
32.547706
 20
70.257394
 30
0.0
 10
32.436824
 20
70.115715
 30
0.0
 10
32.332692
 20
69.968674
 30
0.0
 10
32.235540
 20
69.816511
 30
0.0
 10
32.145603
 20
69.659458
 30
0.0
 10
32.063121
 20
69.497749
 30
0.0
 10
31.988325
 20
69.331622
 30
0.0
 10
31.921449
 20
69.161316
 30
0.0
 10
31.862729
 20
68.987061
 30
0.0
 10
31.812399
 20
68.809096
 30
0.0
 10
31.770694
 20
68.627656
 30
0.0
 10
31.737849
 20
68.442977
 30
0.0
 10
31.714097
 20
68.255292
 30
0.0
 10
31.699674
 20
68.064842
 30
0.0
 10
31.694814
 20
67.871859
 30
0.0
  0
LWPOLYLINE
  5
114
100
AcDbEntity
  8
Edge.Cuts
 62
1
100
AcDbPolyline
 90
129
 70
0
 10
7.857919
 20
67.830584
 30
0.0
 10
7.866076
 20
67.641382
 30
0.0
 10
7.883582
 20
67.454477
 30
0.0
 10
7.910209
 20
67.270113
 30
0.0
 10
7.945730
 20
67.088528
 30
0.0
 10
7.989916
 20
66.909969
 30
0.0
 10
8.042541
 20
66.734681
 30
0.0
 10
8.103376
 20
66.562904
 30
0.0
 10
8.172194
 20
66.394887
 30
0.0
 10
8.248768
 20
66.230866
 30
0.0
 10
8.332867
 20
66.071086
 30
0.0
 10
8.424268
 20
65.915794
 30
0.0
 10
8.522738
 20
65.765232
 30
0.0
 10
8.628057
 20
65.619641
 30
0.0
 10
8.739989
 20
65.479268
 30
0.0
 10
8.858311
 20
65.344351
 30
0.0
 10
8.982795
 20
65.215140
 30
0.0
 10
9.113210
 20
65.091872
 30
0.0
 10
9.249332
 20
64.974793
 30
0.0
 10
9.390934
 20
64.864148
 30
0.0
 10
9.537784
 20
64.760177
 30
0.0
 10
9.689655
 20
64.663128
 30
0.0
 10
9.846323
 20
64.573241
 30
0.0
 10
10.007560
 20
64.490758
 30
0.0
 10
10.173136
 20
64.415927
 30
0.0
 10
10.342822
 20
64.348987
 30
0.0
 10
10.516395
 20
64.290183
 30
0.0
 10
10.693620
 20
64.239771
 30
0.0
 10
10.874277
 20
64.197967
 30
0.0
 10
11.058134
 20
64.165017
 30
0.0
 10
11.244965
 20
64.141205
 30
0.0
 10
11.434551
 20
64.126706
 30
0.0
 10
11.626638
 20
64.121837
 30
0.0
 10
11.818654
 20
64.126706
 30
0.0
 10
12.008166
 20
64.141205
 30
0.0
 10
12.194926
 20
64.165053
 30
0.0
 10
12.378688
 20
64.198037
 30
0.0
 10
12.559204
 20
64.239912
 30
0.0
 10
12.736298
 20
64.290465
 30
0.0
 10
12.909653
 20
64.349418
 30
0.0
 10
13.079092
 20
64.416572
 30
0.0
 10
13.244403
 20
64.491678
 30
0.0
 10
13.405270
 20
64.574500
 30
0.0
 10
13.561550
 20
64.664804
 30
0.0
 10
13.712927
 20
64.762354
 30
0.0
 10
13.859223
 20
64.866917
 30
0.0
 10
14.000193
 20
64.978250
 30
0.0
 10
14.135554
 20
65.096123
 30
0.0
 10
14.265164
 20
65.220297
 30
0.0
 10
14.388706
 20
65.350539
 30
0.0
 10
14.505970
 20
65.486612
 30
0.0
 10
14.616742
 20
65.628281
 30
0.0
 10
14.720740
 20
65.775308
 30
0.0
 10
14.817789
 20
65.927460
 30
0.0
 10
14.907642
 20
66.084499
 30
0.0
 10
14.990050
 20
66.246191
 30
0.0
 10
15.064769
 20
66.412300
 30
0.0
 10
15.131549
 20
66.582585
 30
0.0
 10
15.190216
 20
66.756822
 30
0.0
 10
15.240487
 20
66.934763
 30
0.0
 10
15.282150
 20
67.116178
 30
0.0
 10
15.314958
 20
67.300832
 30
0.0
 10
15.338700
 20
67.488487
 30
0.0
 10
15.353093
 20
67.678908
 30
0.0
 10
15.357962
 20
67.871859
 30
0.0
 10
15.353093
 20
68.064810
 30
0.0
 10
15.338700
 20
68.255232
 30
0.0
 10
15.314958
 20
68.442885
 30
0.0
 10
15.282150
 20
68.627539
 30
0.0
 10
15.240487
 20
68.808955
 30
0.0
 10
15.190216
 20
68.986896
 30
0.0
 10
15.131549
 20
69.161132
 30
0.0
 10
15.064769
 20
69.331418
 30
0.0
 10
14.990050
 20
69.497526
 30
0.0
 10
14.907642
 20
69.659218
 30
0.0
 10
14.817789
 20
69.816257
 30
0.0
 10
14.720740
 20
69.968410
 30
0.0
 10
14.616742
 20
70.115437
 30
0.0
 10
14.505970
 20
70.257105
 30
0.0
 10
14.388706
 20
70.393178
 30
0.0
 10
14.265164
 20
70.523420
 30
0.0
 10
14.135554
 20
70.647594
 30
0.0
 10
14.000193
 20
70.765467
 30
0.0
 10
13.859223
 20
70.876800
 30
0.0
 10
13.712927
 20
70.981364
 30
0.0
 10
13.561550
 20
71.078914
 30
0.0
 10
13.405270
 20
71.169217
 30
0.0
 10
13.244403
 20
71.252039
 30
0.0
 10
13.079092
 20
71.327145
 30
0.0
 10
12.909653
 20
71.394303
 30
0.0
 10
12.736298
 20
71.453252
 30
0.0
 10
12.559204
 20
71.503805
 30
0.0
 10
12.378688
 20
71.545680
 30
0.0
 10
12.194926
 20
71.578665
 30
0.0
 10
12.008166
 20
71.602512
 30
0.0
 10
11.818654
 20
71.617012
 30
0.0
 10
11.626638
 20
71.621880
 30
0.0
 10
11.434551
 20
71.617012
 30
0.0
 10
11.244975
 20
71.602512
 30
0.0
 10
11.058166
 20
71.578665
 30
0.0
 10
10.874347
 20
71.545680
 30
0.0
 10
10.693761
 20
71.503805
 30
0.0
 10
10.516631
 20
71.453252
 30
0.0
 10
10.343203
 20
71.394303
 30
0.0
 10
10.173704
 20
71.327145
 30
0.0
 10
10.008368
 20
71.252039
 30
0.0
 10
9.847434
 20
71.169217
 30
0.0
 10
9.691133
 20
71.078914
 30
0.0
 10
9.539700
 20
70.981364
 30
0.0
 10
9.393368
 20
70.876800
 30
0.0
 10
9.252373
 20
70.765467
 30
0.0
 10
9.116953
 20
70.647594
 30
0.0
 10
8.987335
 20
70.523420
 30
0.0
 10
8.863758
 20
70.393178
 30
0.0
 10
8.746456
 20
70.257105
 30
0.0
 10
8.635662
 20
70.115437
 30
0.0
 10
8.531611
 20
69.968410
 30
0.0
 10
8.434537
 20
69.816257
 30
0.0
 10
8.344674
 20
69.659218
 30
0.0
 10
8.262258
 20
69.497526
 30
0.0
 10
8.187523
 20
69.331418
 30
0.0
 10
8.120703
 20
69.161132
 30
0.0
 10
8.062031
 20
68.986896
 30
0.0
 10
8.011742
 20
68.808955
 30
0.0
 10
7.970072
 20
68.627539
 30
0.0
 10
7.937254
 20
68.442885
 30
0.0
 10
7.913522
 20
68.255232
 30
0.0
 10
7.899111
 20
68.064810
 30
0.0
 10
7.894255
 20
67.871859
 30
0.0
  0
LWPOLYLINE
  5
115
100
AcDbEntity
  8
Edge.Cuts
 62
1
100
AcDbPolyline
 90
129
 70
0
 10
15.168786
 20
95.072633
 30
0.0
 10
15.174403
 20
94.879843
 30
0.0
 10
15.189578
 20
94.689570
 30
0.0
 10
15.214076
 20
94.502059
 30
0.0
 10
15.247663
 20
94.317535
 30
0.0
 10
15.290105
 20
94.136243
 30
0.0
 10
15.341167
 20
93.958412
 30
0.0
 10
15.400616
 20
93.784284
 30
0.0
 10
15.468216
 20
93.614094
 30
0.0
 10
15.543735
 20
93.448073
 30
0.0
 10
15.626937
 20
93.286463
 30
0.0
 10
15.717587
 20
93.129498
 30
0.0
 10
15.815454
 20
92.977416
 30
0.0
 10
15.920303
 20
92.830449
 30
0.0
 10
16.031897
 20
92.688837
 30
0.0
 10
16.150004
 20
92.552813
 30
0.0
 10
16.274389
 20
92.422614
 30
0.0
 10
16.404818
 20
92.298479
 30
0.0
 10
16.541057
 20
92.180640
 30
0.0
 10
16.682873
 20
92.069336
 30
0.0
 10
16.830027
 20
91.964801
 30
0.0
 10
16.982293
 20
91.867272
 30
0.0
 10
17.139427
 20
91.776986
 30
0.0
 10
17.301204
 20
91.694178
 30
0.0
 10
17.467383
 20
91.619083
 30
0.0
 10
17.637732
 20
91.551939
 30
0.0
 10
17.812018
 20
91.492968
 30
0.0
 10
17.990005
 20
91.442451
 30
0.0
 10
18.171463
 20
91.400576
 30
0.0
 10
18.356148
 20
91.367591
 30
0.0
 10
18.543836
 20
91.343744
 30
0.0
 10
18.734304
 20
91.329244
 30
0.0
 10
18.927274
 20
91.324376
 30
0.0
 10
19.120313
 20
91.329244
 30
0.0
 10
19.310848
 20
91.343744
 30
0.0
 10
19.498561
 20
91.367591
 30
0.0
 10
19.683310
 20
91.400576
 30
0.0
 10
19.864779
 20
91.442451
 30
0.0
 10
20.042790
 20
91.493004
 30
0.0
 10
20.217097
 20
91.551960
 30
0.0
 10
20.387453
 20
91.619114
 30
0.0
 10
20.553612
 20
91.694224
 30
0.0
 10
20.715360
 20
91.777049
 30
0.0
 10
20.872416
 20
91.867357
 30
0.0
 10
21.024640
 20
91.964914
 30
0.0
 10
21.171677
 20
92.069477
 30
0.0
 10
21.313388
 20
92.180817
 30
0.0
 10
21.449489
 20
92.298697
 30
0.0
 10
21.579770
 20
92.422878
 30
0.0
 10
21.703947
 20
92.553131
 30
0.0
 10
21.821845
 20
92.689215
 30
0.0
 10
21.933217
 20
92.830893
 30
0.0
 10
22.037780
 20
92.977934
 30
0.0
 10
22.135358
 20
93.130098
 30
0.0
 10
22.225669
 20
93.287151
 30
0.0
 10
22.308502
 20
93.448860
 30
0.0
 10
22.383608
 20
93.614986
 30
0.0
 10
22.450777
 20
93.785293
 30
0.0
 10
22.509726
 20
93.959547
 30
0.0
 10
22.560279
 20
94.137513
 30
0.0
 10
22.602153
 20
94.318953
 30
0.0
 10
22.635138
 20
94.503632
 30
0.0
 10
22.658986
 20
94.691317
 30
0.0
 10
22.673485
 20
94.881767
 30
0.0
 10
22.678353
 20
95.074750
 30
0.0
 10
22.673485
 20
95.267765
 30
0.0
 10
22.658986
 20
95.458247
 30
0.0
 10
22.635138
 20
95.645956
 30
0.0
 10
22.602153
 20
95.830663
 30
0.0
 10
22.560279
 20
96.012128
 30
0.0
 10
22.509726
 20
96.190115
 30
0.0
 10
22.450777
 20
96.364391
 30
0.0
 10
22.383608
 20
96.534718
 30
0.0
 10
22.308502
 20
96.700862
 30
0.0
 10
22.225669
 20
96.862586
 30
0.0
 10
22.135358
 20
97.019657
 30
0.0
 10
22.037780
 20
97.171834
 30
0.0
 10
21.933217
 20
97.318886
 30
0.0
 10
21.821845
 20
97.460575
 30
0.0
 10
21.703947
 20
97.596669
 30
0.0
 10
21.579770
 20
97.726929
 30
0.0
 10
21.449489
 20
97.851121
 30
0.0
 10
21.313388
 20
97.969005
 30
0.0
 10
21.171677
 20
98.080352
 30
0.0
 10
21.024640
 20
98.184922
 30
0.0
 10
20.872416
 20
98.282479
 30
0.0
 10
20.715360
 20
98.372793
 30
0.0
 10
20.553612
 20
98.455622
 30
0.0
 10
20.387453
 20
98.530732
 30
0.0
 10
20.217097
 20
98.597890
 30
0.0
 10
20.042790
 20
98.656849
 30
0.0
 10
19.864779
 20
98.707402
 30
0.0
 10
19.683310
 20
98.749277
 30
0.0
 10
19.498561
 20
98.782262
 30
0.0
 10
19.310848
 20
98.806109
 30
0.0
 10
19.120313
 20
98.820609
 30
0.0
 10
18.927274
 20
98.825477
 30
0.0
 10
18.734304
 20
98.820609
 30
0.0
 10
18.543840
 20
98.806109
 30
0.0
 10
18.356156
 20
98.782262
 30
0.0
 10
18.171477
 20
98.749277
 30
0.0
 10
17.990036
 20
98.707402
 30
0.0
 10
17.812071
 20
98.656849
 30
0.0
 10
17.637817
 20
98.597890
 30
0.0
 10
17.467510
 20
98.530732
 30
0.0
 10
17.301384
 20
98.455622
 30
0.0
 10
17.139674
 20
98.372793
 30
0.0
 10
16.982621
 20
98.282479
 30
0.0
 10
16.830458
 20
98.184922
 30
0.0
 10
16.683417
 20
98.080352
 30
0.0
 10
16.541738
 20
97.969005
 30
0.0
 10
16.405654
 20
97.851121
 30
0.0
 10
16.275402
 20
97.726929
 30
0.0
 10
16.151221
 20
97.596669
 30
0.0
 10
16.033340
 20
97.460575
 30
0.0
 10
15.922000
 20
97.318886
 30
0.0
 10
15.817437
 20
97.171834
 30
0.0
 10
15.719880
 20
97.019657
 30
0.0
 10
15.629573
 20
96.862586
 30
0.0
 10
15.546748
 20
96.700862
 30
0.0
 10
15.471639
 20
96.534718
 30
0.0
 10
15.404485
 20
96.364391
 30
0.0
 10
15.345519
 20
96.190115
 30
0.0
 10
15.294979
 20
96.012128
 30
0.0
 10
15.253099
 20
95.830663
 30
0.0
 10
15.220115
 20
95.645956
 30
0.0
 10
15.196264
 20
95.458247
 30
0.0
 10
15.181780
 20
95.267765
 30
0.0
 10
15.176900
 20
95.074750
 30
0.0
  0
LWPOLYLINE
  5
116
100
AcDbEntity
  8
Edge.Cuts
 62
1
100
AcDbPolyline
 90
129
 70
0
 10
48.174841
 20
95.072633
 30
0.0
 10
48.180394
 20
94.879843
 30
0.0
 10
48.195509
 20
94.689570
 30
0.0
 10
48.219951
 20
94.502059
 30
0.0
 10
48.253487
 20
94.317535
 30
0.0
 10
48.295881
 20
94.136243
 30
0.0
 10
48.346900
 20
93.958412
 30
0.0
 10
48.406309
 20
93.784284
 30
0.0
 10
48.473874
 20
93.614094
 30
0.0
 10
48.549363
 20
93.448073
 30
0.0
 10
48.632537
 20
93.286463
 30
0.0
 10
48.723166
 20
93.129498
 30
0.0
 10
48.821015
 20
92.977416
 30
0.0
 10
48.925847
 20
92.830449
 30
0.0
 10
49.037430
 20
92.688837
 30
0.0
 10
49.155533
 20
92.552813
 30
0.0
 10
49.279915
 20
92.422614
 30
0.0
 10
49.410347
 20
92.298479
 30
0.0
 10
49.546593
 20
92.180640
 30
0.0
 10
49.688417
 20
92.069336
 30
0.0
 10
49.835588
 20
91.964801
 30
0.0
 10
49.987868
 20
91.867272
 30
0.0
 10
50.145027
 20
91.776986
 30
0.0
 10
50.306832
 20
91.694178
 30
0.0
 10
50.473039
 20
91.619083
 30
0.0
 10
50.643427
 20
91.551939
 30
0.0
 10
50.817752
 20
91.492968
 30
0.0
 10
50.995781
 20
91.442451
 30
0.0
 10
51.177285
 20
91.400576
 30
0.0
 10
51.362023
 20
91.367591
 30
0.0
 10
51.549768
 20
91.343744
 30
0.0
 10
51.740289
 20
91.329244
 30
0.0
 10
51.933328
 20
91.324376
 30
0.0
 10
52.126298
 20
91.329244
 30
0.0
 10
52.316762
 20
91.343744
 30
0.0
 10
52.504439
 20
91.367591
 30
0.0
 10
52.689118
 20
91.400576
 30
0.0
 10
52.870552
 20
91.442451
 30
0.0
 10
53.048528
 20
91.493004
 30
0.0
 10
53.222800
 20
91.551960
 30
0.0
 10
53.393085
 20
91.619114
 30
0.0
 10
53.559208
 20
91.694224
 30
0.0
 10
53.720921
 20
91.777049
 30
0.0
 10
53.877977
 20
91.867357
 30
0.0
 10
54.030130
 20
91.964914
 30
0.0
 10
54.177203
 20
92.069477
 30
0.0
 10
54.318878
 20
92.180817
 30
0.0
 10
54.454944
 20
92.298697
 30
0.0
 10
54.585190
 20
92.422878
 30
0.0
 10
54.709367
 20
92.553131
 30
0.0
 10
54.827265
 20
92.689215
 30
0.0
 10
54.938602
 20
92.830893
 30
0.0
 10
55.043165
 20
92.977934
 30
0.0
 10
55.140708
 20
93.130098
 30
0.0
 10
55.231019
 20
93.287151
 30
0.0
 10
55.313851
 20
93.448860
 30
0.0
 10
55.388957
 20
93.614986
 30
0.0
 10
55.456126
 20
93.785293
 30
0.0
 10
55.515075
 20
93.959547
 30
0.0
 10
55.565628
 20
94.137513
 30
0.0
 10
55.607503
 20
94.318953
 30
0.0
 10
55.640487
 20
94.503632
 30
0.0
 10
55.664335
 20
94.691317
 30
0.0
 10
55.678834
 20
94.881767
 30
0.0
 10
55.683702
 20
95.074750
 30
0.0
 10
55.678834
 20
95.267765
 30
0.0
 10
55.664335
 20
95.458247
 30
0.0
 10
55.640487
 20
95.645956
 30
0.0
 10
55.607503
 20
95.830663
 30
0.0
 10
55.565628
 20
96.012128
 30
0.0
 10
55.515075
 20
96.190115
 30
0.0
 10
55.456126
 20
96.364391
 30
0.0
 10
55.388957
 20
96.534718
 30
0.0
 10
55.313851
 20
96.700862
 30
0.0
 10
55.231019
 20
96.862586
 30
0.0
 10
55.140708
 20
97.019657
 30
0.0
 10
55.043165
 20
97.171834
 30
0.0
 10
54.938602
 20
97.318886
 30
0.0
 10
54.827265
 20
97.460575
 30
0.0
 10
54.709367
 20
97.596669
 30
0.0
 10
54.585190
 20
97.726929
 30
0.0
 10
54.454944
 20
97.851121
 30
0.0
 10
54.318878
 20
97.969005
 30
0.0
 10
54.177203
 20
98.080352
 30
0.0
 10
54.030130
 20
98.184922
 30
0.0
 10
53.877977
 20
98.282479
 30
0.0
 10
53.720921
 20
98.372793
 30
0.0
 10
53.559208
 20
98.455622
 30
0.0
 10
53.393085
 20
98.530732
 30
0.0
 10
53.222800
 20
98.597890
 30
0.0
 10
53.048528
 20
98.656849
 30
0.0
 10
52.870552
 20
98.707402
 30
0.0
 10
52.689118
 20
98.749277
 30
0.0
 10
52.504439
 20
98.782262
 30
0.0
 10
52.316762
 20
98.806109
 30
0.0
 10
52.126298
 20
98.820609
 30
0.0
 10
51.933328
 20
98.825477
 30
0.0
 10
51.740289
 20
98.820609
 30
0.0
 10
51.549771
 20
98.806109
 30
0.0
 10
51.362031
 20
98.782262
 30
0.0
 10
51.177299
 20
98.749277
 30
0.0
 10
50.995809
 20
98.707402
 30
0.0
 10
50.817798
 20
98.656849
 30
0.0
 10
50.643505
 20
98.597890
 30
0.0
 10
50.473156
 20
98.530732
 30
0.0
 10
50.306994
 20
98.455622
 30
0.0
 10
50.145253
 20
98.372793
 30
0.0
 10
49.988172
 20
98.282479
 30
0.0
 10
49.835976
 20
98.184922
 30
0.0
 10
49.688914
 20
98.080352
 30
0.0
 10
49.547211
 20
97.969005
 30
0.0
 10
49.411109
 20
97.851121
 30
0.0
 10
49.280839
 20
97.726929
 30
0.0
 10
49.156644
 20
97.596669
 30
0.0
 10
49.038750
 20
97.460575
 30
0.0
 10
48.927399
 20
97.318886
 30
0.0
 10
48.822822
 20
97.171834
 30
0.0
 10
48.725261
 20
97.019657
 30
0.0
 10
48.634943
 20
96.862586
 30
0.0
 10
48.552111
 20
96.700862
 30
0.0
 10
48.477000
 20
96.534718
 30
0.0
 10
48.409841
 20
96.364391
 30
0.0
 10
48.350873
 20
96.190115
 30
0.0
 10
48.300331
 20
96.012128
 30
0.0
 10
48.258449
 20
95.830663
 30
0.0
 10
48.225465
 20
95.645956
 30
0.0
 10
48.201613
 20
95.458247
 30
0.0
 10
48.187129
 20
95.267765
 30
0.0
 10
48.182249
 20
95.074750
 30
0.0
  0
LWPOLYLINE
  5
117
100
AcDbEntity
  8
Edge.Cuts
 62
1
100
AcDbPolyline
 90
129
 70
0
 10
4.872756
 20
112.358431
 30
0.0
 10
4.876394
 20
112.226252
 30
0.0
 10
4.886673
 20
112.095732
 30
0.0
 10
4.903429
 20
111.967036
 30
0.0
 10
4.926500
 20
111.840336
 30
0.0
 10
4.955723
 20
111.715788
 30
0.0
 10
4.990936
 20
111.593568
 30
0.0
 10
5.031975
 20
111.473839
 30
0.0
 10
5.078678
 20
111.356766
 30
0.0
 10
5.130883
 20
111.242516
 30
0.0
 10
5.188427
 20
111.131257
 30
0.0
 10
5.251148
 20
111.023152
 30
0.0
 10
5.318881
 20
110.918374
 30
0.0
 10
5.391465
 20
110.817081
 30
0.0
 10
5.468737
 20
110.719446
 30
0.0
 10
5.550532
 20
110.625632
 30
0.0
 10
5.636695
 20
110.535808
 30
0.0
 10
5.727055
 20
110.450136
 30
0.0
 10
5.821454
 20
110.368789
 30
0.0
 10
5.919728
 20
110.291926
 30
0.0
 10
6.021712
 20
110.219720
 30
0.0
 10
6.127249
 20
110.152332
 30
0.0
 10
6.236172
 20
110.089933
 30
0.0
 10
6.348320
 20
110.032684
 30
0.0
 10
6.463527
 20
109.980759
 30
0.0
 10
6.581636
 20
109.934316
 30
0.0
 10
6.702480
 20
109.893528
 30
0.0
 10
6.825896
 20
109.858557
 30
0.0
 10
6.951724
 20
109.829569
 30
0.0
 10
7.079804
 20
109.806738
 30
0.0
 10
7.209964
 20
109.790221
 30
0.0
 10
7.342051
 20
109.780188
 30
0.0
 10
7.475898
 20
109.776808
 30
0.0
 10
7.609682
 20
109.780191
 30
0.0
 10
7.741716
 20
109.790224
 30
0.0
 10
7.871827
 20
109.806752
 30
0.0
 10
7.999864
 20
109.829605
 30
0.0
 10
8.125654
 20
109.858624
 30
0.0
 10
8.249038
 20
109.893648
 30
0.0
 10
8.369850
 20
109.934507
 30
0.0
 10
8.487910
 20
109.981045
 30
0.0
 10
8.603092
 20
110.033094
 30
0.0
 10
8.715240
 20
110.090490
 30
0.0
 10
8.824107
 20
110.153077
 30
0.0
 10
8.929622
 20
110.220686
 30
0.0
 10
9.031575
 20
110.293157
 30
0.0
 10
9.129823
 20
110.370324
 30
0.0
 10
9.224156
 20
110.452027
 30
0.0
 10
9.314467
 20
110.538101
 30
0.0
 10
9.400580
 20
110.628384
 30
0.0
 10
9.482318
 20
110.722713
 30
0.0
 10
9.559541
 20
110.820923
 30
0.0
 10
9.632037
 20
110.922851
 30
0.0
 10
9.699700
 20
111.028338
 30
0.0
 10
9.762318
 20
111.137216
 30
0.0
 10
9.819750
 20
111.249328
 30
0.0
 10
9.871820
 20
111.364503
 30
0.0
 10
9.918386
 20
111.482584
 30
0.0
 10
9.959273
 20
111.603407
 30
0.0
 10
9.994339
 20
111.726809
 30
0.0
 10
10.023373
 20
111.852623
 30
0.0
 10
10.046233
 20
111.980692
 30
0.0
 10
10.062778
 20
112.110848
 30
0.0
 10
10.072832
 20
112.242930
 30
0.0
 10
10.076219
 20
112.376776
 30
0.0
 10
10.072832
 20
112.510591
 30
0.0
 10
10.062778
 20
112.642650
 30
0.0
 10
10.046233
 20
112.772789
 30
0.0
 10
10.023373
 20
112.900840
 30
0.0
 10
9.994339
 20
113.026648
 30
0.0
 10
9.959273
 20
113.150046
 30
0.0
 10
9.918386
 20
113.270868
 30
0.0
 10
9.871820
 20
113.388953
 30
0.0
 10
9.819750
 20
113.504139
 30
0.0
 10
9.762318
 20
113.616258
 30
0.0
 10
9.699700
 20
113.725154
 30
0.0
 10
9.632037
 20
113.830655
 30
0.0
 10
9.559541
 20
113.932604
 30
0.0
 10
9.482318
 20
114.030839
 30
0.0
 10
9.400580
 20
114.125189
 30
0.0
 10
9.314467
 20
114.215496
 30
0.0
 10
9.224156
 20
114.301595
 30
0.0
 10
9.129823
 20
114.383323
 30
0.0
 10
9.031575
 20
114.460518
 30
0.0
 10
8.929622
 20
114.533013
 30
0.0
 10
8.824107
 20
114.600648
 30
0.0
 10
8.715240
 20
114.663259
 30
0.0
 10
8.603092
 20
114.720684
 30
0.0
 10
8.487910
 20
114.772757
 30
0.0
 10
8.369850
 20
114.819313
 30
0.0
 10
8.249038
 20
114.860193
 30
0.0
 10
8.125654
 20
114.895234
 30
0.0
 10
7.999864
 20
114.924268
 30
0.0
 10
7.871827
 20
114.947135
 30
0.0
 10
7.741716
 20
114.963673
 30
0.0
 10
7.609682
 20
114.973713
 30
0.0
 10
7.475898
 20
114.977096
 30
0.0
 10
7.342051
 20
114.973713
 30
0.0
 10
7.209968
 20
114.963673
 30
0.0
 10
7.079804
 20
114.947135
 30
0.0
 10
6.951731
 20
114.924268
 30
0.0
 10
6.825906
 20
114.895234
 30
0.0
 10
6.702498
 20
114.860193
 30
0.0
 10
6.581665
 20
114.819313
 30
0.0
 10
6.463572
 20
114.772757
 30
0.0
 10
6.348380
 20
114.720684
 30
0.0
 10
6.236257
 20
114.663259
 30
0.0
 10
6.127365
 20
114.600648
 30
0.0
 10
6.021864
 20
114.533013
 30
0.0
 10
5.919918
 20
114.460518
 30
0.0
 10
5.821691
 20
114.383323
 30
0.0
 10
5.727348
 20
114.301595
 30
0.0
 10
5.637047
 20
114.215496
 30
0.0
 10
5.550956
 20
114.125189
 30
0.0
 10
5.469238
 20
114.030839
 30
0.0
 10
5.392054
 20
113.932604
 30
0.0
 10
5.319569
 20
113.830655
 30
0.0
 10
5.251945
 20
113.725154
 30
0.0
 10
5.189344
 20
113.616258
 30
0.0
 10
5.131931
 20
113.504139
 30
0.0
 10
5.079869
 20
113.388953
 30
0.0
 10
5.033321
 20
113.270868
 30
0.0
 10
4.992450
 20
113.150046
 30
0.0
 10
4.957419
 20
113.026648
 30
0.0
 10
4.928391
 20
112.900840
 30
0.0
 10
4.905530
 20
112.772789
 30
0.0
 10
4.888999
 20
112.642650
 30
0.0
 10
4.878960
 20
112.510591
 30
0.0
 10
4.875578
 20
112.376776
 30
0.0
  0
LWPOLYLINE
  5
118
100
AcDbEntity
  8
Edge.Cuts
 62
1
100
AcDbPolyline
 90
65
 70
0
 10
12.245270
 20
112.358431
 30
0.0
 10
12.258744
 20
112.203156
 30
0.0
 10
12.287035
 20
112.052060
 30
0.0
 10
12.329405
 20
111.905949
 30
0.0
 10
12.385119
 20
111.765628
 30
0.0
 10
12.453439
 20
111.631904
 30
0.0
 10
12.533630
 20
111.505578
 30
0.0
 10
12.624957
 20
111.387462
 30
0.0
 10
12.726680
 20
111.278362
 30
0.0
 10
12.838063
 20
111.179076
 30
0.0
 10
12.958374
 20
111.090416
 30
0.0
 10
13.086869
 20
111.013183
 30
0.0
 10
13.222822
 20
110.948187
 30
0.0
 10
13.365486
 20
110.896234
 30
0.0
 10
13.514132
 20
110.858127
 30
0.0
 10
13.668020
 20
110.834670
 30
0.0
 10
13.826417
 20
110.826673
 30
0.0
 10
13.984983
 20
110.834674
 30
0.0
 10
14.138960
 20
110.858162
 30
0.0
 10
14.287567
 20
110.896353
 30
0.0
 10
14.430029
 20
110.948476
 30
0.0
 10
14.565566
 20
111.013744
 30
0.0
 10
14.693402
 20
111.091383
 30
0.0
 10
14.812754
 20
111.180611
 30
0.0
 10
14.922849
 20
111.280655
 30
0.0
 10
15.022903
 20
111.390728
 30
0.0
 10
15.112145
 20
111.510059
 30
0.0
 10
15.189791
 20
111.637863
 30
0.0
 10
15.255066
 20
111.773368
 30
0.0
 10
15.307189
 20
111.915788
 30
0.0
 10
15.345384
 20
112.064350
 30
0.0
 10
15.368872
 20
112.218272
 30
0.0
 10
15.376873
 20
112.376776
 30
0.0
 10
15.368872
 20
112.535276
 30
0.0
 10
15.345384
 20
112.689187
 30
0.0
 10
15.307189
 20
112.837732
 30
0.0
 10
15.255066
 20
112.980131
 30
0.0
 10
15.189791
 20
113.115604
 30
0.0
 10
15.112145
 20
113.243383
 30
0.0
 10
15.022903
 20
113.362679
 30
0.0
 10
14.922849
 20
113.472724
 30
0.0
 10
14.812754
 20
113.572729
 30
0.0
 10
14.693402
 20
113.661929
 30
0.0
 10
14.565566
 20
113.739536
 30
0.0
 10
14.430029
 20
113.804779
 30
0.0
 10
14.287567
 20
113.856877
 30
0.0
 10
14.138960
 20
113.895051
 30
0.0
 10
13.984983
 20
113.918528
 30
0.0
 10
13.826417
 20
113.926526
 30
0.0
 10
13.668031
 20
113.918528
 30
0.0
 10
13.514195
 20
113.895051
 30
0.0
 10
13.365690
 20
113.856877
 30
0.0
 10
13.223306
 20
113.804779
 30
0.0
 10
13.087818
 20
113.739536
 30
0.0
 10
12.960011
 20
113.661929
 30
0.0
 10
12.840662
 20
113.572729
 30
0.0
 10
12.730557
 20
113.472724
 30
0.0
 10
12.630481
 20
113.362679
 30
0.0
 10
12.541209
 20
113.243383
 30
0.0
 10
12.463527
 20
113.115604
 30
0.0
 10
12.398215
 20
112.980131
 30
0.0
 10
12.346057
 20
112.837732
 30
0.0
 10
12.307832
 20
112.689187
 30
0.0
 10
12.284324
 20
112.535276
 30
0.0
 10
12.276314
 20
112.376776
 30
0.0
  0
LWPOLYLINE
  5
119
100
AcDbEntity
  8
Edge.Cuts
 62
1
100
AcDbPolyline
 90
65
 70
0
 10
55.462529
 20
112.358431
 30
0.0
 10
55.474315
 20
112.203156
 30
0.0
 10
55.501107
 20
112.052060
 30
0.0
 10
55.542158
 20
111.905949
 30
0.0
 10
55.596723
 20
111.765628
 30
0.0
 10
55.664055
 20
111.631904
 30
0.0
 10
55.743411
 20
111.505578
 30
0.0
 10
55.834043
 20
111.387462
 30
0.0
 10
55.935208
 20
111.278362
 30
0.0
 10
56.046157
 20
111.179076
 30
0.0
 10
56.166143
 20
111.090416
 30
0.0
 10
56.294427
 20
111.013183
 30
0.0
 10
56.430257
 20
110.948187
 30
0.0
 10
56.572892
 20
110.896234
 30
0.0
 10
56.721581
 20
110.858127
 30
0.0
 10
56.875585
 20
110.834670
 30
0.0
 10
57.034152
 20
110.826673
 30
0.0
 10
57.192602
 20
110.834674
 30
0.0
 10
57.346494
 20
110.858162
 30
0.0
 10
57.495041
 20
110.896353
 30
0.0
 10
57.637468
 20
110.948476
 30
0.0
 10
57.772991
 20
111.013744
 30
0.0
 10
57.900826
 20
111.091383
 30
0.0
 10
58.020196
 20
111.180611
 30
0.0
 10
58.130318
 20
111.280655
 30
0.0
 10
58.230412
 20
111.390728
 30
0.0
 10
58.319693
 20
111.510059
 30
0.0
 10
58.397385
 20
111.637863
 30
0.0
 10
58.462702
 20
111.773368
 30
0.0
 10
58.514863
 20
111.915788
 30
0.0
 10
58.553090
 20
112.064350
 30
0.0
 10
58.576596
 20
112.218272
 30
0.0
 10
58.584607
 20
112.376776
 30
0.0
 10
58.576596
 20
112.535276
 30
0.0
 10
58.553090
 20
112.689187
 30
0.0
 10
58.514863
 20
112.837732
 30
0.0
 10
58.462702
 20
112.980131
 30
0.0
 10
58.397385
 20
113.115604
 30
0.0
 10
58.319693
 20
113.243383
 30
0.0
 10
58.230412
 20
113.362679
 30
0.0
 10
58.130318
 20
113.472724
 30
0.0
 10
58.020196
 20
113.572729
 30
0.0
 10
57.900826
 20
113.661929
 30
0.0
 10
57.772991
 20
113.739536
 30
0.0
 10
57.637468
 20
113.804779
 30
0.0
 10
57.495041
 20
113.856877
 30
0.0
 10
57.346490
 20
113.895051
 30
0.0
 10
57.192602
 20
113.918528
 30
0.0
 10
57.034152
 20
113.926526
 30
0.0
 10
56.875589
 20
113.918528
 30
0.0
 10
56.721623
 20
113.895051
 30
0.0
 10
56.573033
 20
113.856877
 30
0.0
 10
56.430592
 20
113.804779
 30
0.0
 10
56.295084
 20
113.739536
 30
0.0
 10
56.167279
 20
113.661929
 30
0.0
 10
56.047956
 20
113.572729
 30
0.0
 10
55.937897
 20
113.472724
 30
0.0
 10
55.837874
 20
113.362679
 30
0.0
 10
55.748665
 20
113.243383
 30
0.0
 10
55.671048
 20
113.115604
 30
0.0
 10
55.605801
 20
112.980131
 30
0.0
 10
55.553700
 20
112.837732
 30
0.0
 10
55.515523
 20
112.689187
 30
0.0
 10
55.492047
 20
112.535276
 30
0.0
 10
55.484049
 20
112.376776
 30
0.0
  0
LWPOLYLINE
  5
11a
100
AcDbEntity
  8
Edge.Cuts
 62
1
100
AcDbPolyline
 90
129
 70
0
 10
60.758433
 20
112.358431
 30
0.0
 10
60.764190
 20
112.226252
 30
0.0
 10
60.776457
 20
112.095732
 30
0.0
 10
60.795078
 20
111.967036
 30
0.0
 10
60.819892
 20
111.840336
 30
0.0
 10
60.850742
 20
111.715788
 30
0.0
 10
60.887469
 20
111.593568
 30
0.0
 10
60.929913
 20
111.473839
 30
0.0
 10
60.977916
 20
111.356766
 30
0.0
 10
61.031319
 20
111.242516
 30
0.0
 10
61.089964
 20
111.131257
 30
0.0
 10
61.153692
 20
111.023152
 30
0.0
 10
61.222342
 20
110.918374
 30
0.0
 10
61.295759
 20
110.817081
 30
0.0
 10
61.373783
 20
110.719446
 30
0.0
 10
61.456251
 20
110.625632
 30
0.0
 10
61.543010
 20
110.535808
 30
0.0
 10
61.633899
 20
110.450136
 30
0.0
 10
61.728758
 20
110.368789
 30
0.0
 10
61.827429
 20
110.291926
 30
0.0
 10
61.929756
 20
110.219720
 30
0.0
 10
62.035578
 20
110.152332
 30
0.0
 10
62.144735
 20
110.089933
 30
0.0
 10
62.257070
 20
110.032684
 30
0.0
 10
62.372421
 20
109.980759
 30
0.0
 10
62.490636
 20
109.934316
 30
0.0
 10
62.611547
 20
109.893528
 30
0.0
 10
62.735005
 20
109.858557
 30
0.0
 10
62.860844
 20
109.829569
 30
0.0
 10
62.988906
 20
109.806738
 30
0.0
 10
63.119038
 20
109.790221
 30
0.0
 10
63.251076
 20
109.780188
 30
0.0
 10
63.384859
 20
109.776808
 30
0.0
 10
63.518738
 20
109.780191
 30
0.0
 10
63.650850
 20
109.790224
 30
0.0
 10
63.781035
 20
109.806752
 30
0.0
 10
63.909129
 20
109.829605
 30
0.0
 10
64.034968
 20
109.858624
 30
0.0
 10
64.158390
 20
109.893648
 30
0.0
 10
64.279234
 20
109.934507
 30
0.0
 10
64.397330
 20
109.981045
 30
0.0
 10
64.512547
 20
110.033094
 30
0.0
 10
64.624659
 20
110.090490
 30
0.0
 10
64.733562
 20
110.153077
 30
0.0
 10
64.839042
 20
110.220686
 30
0.0
 10
64.940995
 20
110.293157
 30
0.0
 10
65.039208
 20
110.370324
 30
0.0
 10
65.133540
 20
110.452027
 30
0.0
 10
65.223851
 20
110.538101
 30
0.0
 10
65.309929
 20
110.628384
 30
0.0
 10
65.391632
 20
110.722713
 30
0.0
 10
65.468820
 20
110.820923
 30
0.0
 10
65.541280
 20
110.922851
 30
0.0
 10
65.608908
 20
111.028338
 30
0.0
 10
65.671490
 20
111.137216
 30
0.0
 10
65.728887
 20
111.249328
 30
0.0
 10
65.780922
 20
111.364503
 30
0.0
 10
65.827488
 20
111.482584
 30
0.0
 10
65.868340
 20
111.603407
 30
0.0
 10
65.903371
 20
111.726809
 30
0.0
 10
65.932369
 20
111.852623
 30
0.0
 10
65.955229
 20
111.980692
 30
0.0
 10
65.971774
 20
112.110848
 30
0.0
 10
65.981793
 20
112.242930
 30
0.0
 10
65.985180
 20
112.376776
 30
0.0
 10
65.981793
 20
112.510591
 30
0.0
 10
65.971774
 20
112.642650
 30
0.0
 10
65.955229
 20
112.772789
 30
0.0
 10
65.932369
 20
112.900840
 30
0.0
 10
65.903371
 20
113.026648
 30
0.0
 10
65.868340
 20
113.150046
 30
0.0
 10
65.827488
 20
113.270868
 30
0.0
 10
65.780922
 20
113.388953
 30
0.0
 10
65.728887
 20
113.504139
 30
0.0
 10
65.671490
 20
113.616258
 30
0.0
 10
65.608908
 20
113.725154
 30
0.0
 10
65.541280
 20
113.830655
 30
0.0
 10
65.468820
 20
113.932604
 30
0.0
 10
65.391632
 20
114.030839
 30
0.0
 10
65.309929
 20
114.125189
 30
0.0
 10
65.223851
 20
114.215496
 30
0.0
 10
65.133540
 20
114.301595
 30
0.0
 10
65.039208
 20
114.383323
 30
0.0
 10
64.940995
 20
114.460518
 30
0.0
 10
64.839042
 20
114.533013
 30
0.0
 10
64.733562
 20
114.600648
 30
0.0
 10
64.624659
 20
114.663259
 30
0.0
 10
64.512547
 20
114.720684
 30
0.0
 10
64.397330
 20
114.772757
 30
0.0
 10
64.279234
 20
114.819313
 30
0.0
 10
64.158390
 20
114.860193
 30
0.0
 10
64.034968
 20
114.895234
 30
0.0
 10
63.909129
 20
114.924268
 30
0.0
 10
63.781035
 20
114.947135
 30
0.0
 10
63.650850
 20
114.963673
 30
0.0
 10
63.518738
 20
114.973713
 30
0.0
 10
63.384859
 20
114.977096
 30
0.0
 10
63.251076
 20
114.973713
 30
0.0
 10
63.119042
 20
114.963673
 30
0.0
 10
62.988931
 20
114.947135
 30
0.0
 10
62.860894
 20
114.924268
 30
0.0
 10
62.735104
 20
114.895234
 30
0.0
 10
62.611720
 20
114.860193
 30
0.0
 10
62.490908
 20
114.819313
 30
0.0
 10
62.372830
 20
114.772757
 30
0.0
 10
62.257652
 20
114.720684
 30
0.0
 10
62.145532
 20
114.663259
 30
0.0
 10
62.036637
 20
114.600648
 30
0.0
 10
61.931135
 20
114.533013
 30
0.0
 10
61.829183
 20
114.460518
 30
0.0
 10
61.730945
 20
114.383323
 30
0.0
 10
61.636587
 20
114.301595
 30
0.0
 10
61.546273
 20
114.215496
 30
0.0
 10
61.460164
 20
114.125189
 30
0.0
 10
61.378429
 20
114.030839
 30
0.0
 10
61.301223
 20
113.932604
 30
0.0
 10
61.228717
 20
113.830655
 30
0.0
 10
61.161069
 20
113.725154
 30
0.0
 10
61.098447
 20
113.616258
 30
0.0
 10
61.041012
 20
113.504139
 30
0.0
 10
60.988929
 20
113.388953
 30
0.0
 10
60.942361
 20
113.270868
 30
0.0
 10
60.901471
 20
113.150046
 30
0.0
 10
60.866423
 20
113.026648
 30
0.0
 10
60.837381
 20
112.900840
 30
0.0
 10
60.814508
 20
112.772789
 30
0.0
 10
60.797967
 20
112.642650
 30
0.0
 10
60.787923
 20
112.510591
 30
0.0
 10
60.784539
 20
112.376776
 30
0.0
  0
LWPOLYLINE
  5
11b
100
AcDbEntity
  8
Edge.Cuts
 62
1
100
AcDbPolyline
 90
65
 70
0
 10
61.817561
 20
125.492199
 30
0.0
 10
61.826312
 20
125.334932
 30
0.0
 10
61.850976
 20
125.181598
 30
0.0
 10
61.890754
 20
125.033053
 30
0.0
 10
61.944848
 20
124.890157
 30
0.0
 10
62.012460
 20
124.753766
 30
0.0
 10
62.092794
 20
124.624738
 30
0.0
 10
62.185049
 20
124.503929
 30
0.0
 10
62.288431
 20
124.392194
 30
0.0
 10
62.402138
 20
124.290397
 30
0.0
 10
62.525377
 20
124.199391
 30
0.0
 10
62.657344
 20
124.120034
 30
0.0
 10
62.797245
 20
124.053182
 30
0.0
 10
62.944282
 20
123.999694
 30
0.0
 10
63.097659
 20
123.960427
 30
0.0
 10
63.256571
 20
123.936240
 30
0.0
 10
63.420228
 20
123.927985
 30
0.0
 10
63.583892
 20
123.936247
 30
0.0
 10
63.742825
 20
123.960497
 30
0.0
 10
63.896220
 20
123.999934
 30
0.0
 10
64.043275
 20
124.053750
 30
0.0
 10
64.183190
 20
124.121141
 30
0.0
 10
64.315153
 20
124.201306
 30
0.0
 10
64.438368
 20
124.293441
 30
0.0
 10
64.552025
 20
124.396738
 30
0.0
 10
64.655322
 20
124.510396
 30
0.0
 10
64.747457
 20
124.633610
 30
0.0
 10
64.827622
 20
124.765573
 30
0.0
 10
64.895013
 20
124.905485
 30
0.0
 10
64.948829
 20
125.052544
 30
0.0
 10
64.988266
 20
125.205940
 30
0.0
 10
65.012516
 20
125.364872
 30
0.0
 10
65.020778
 20
125.528535
 30
0.0
 10
65.012516
 20
125.692016
 30
0.0
 10
64.988266
 20
125.850797
 30
0.0
 10
64.948829
 20
126.004068
 30
0.0
 10
64.895013
 20
126.151028
 30
0.0
 10
64.827622
 20
126.290866
 30
0.0
 10
64.747457
 20
126.422772
 30
0.0
 10
64.655322
 20
126.545948
 30
0.0
 10
64.552025
 20
126.659581
 30
0.0
 10
64.438368
 20
126.762871
 30
0.0
 10
64.315153
 20
126.855002
 30
0.0
 10
64.183190
 20
126.935174
 30
0.0
 10
64.043275
 20
127.002576
 30
0.0
 10
63.896220
 20
127.056406
 30
0.0
 10
63.742825
 20
127.095854
 30
0.0
 10
63.583892
 20
127.120114
 30
0.0
 10
63.420228
 20
127.128380
 30
0.0
 10
63.256571
 20
127.120114
 30
0.0
 10
63.097663
 20
127.095854
 30
0.0
 10
62.944300
 20
127.056406
 30
0.0
 10
62.797290
 20
127.002576
 30
0.0
 10
62.657428
 20
126.935174
 30
0.0
 10
62.525525
 20
126.855002
 30
0.0
 10
62.402374
 20
126.762871
 30
0.0
 10
62.288783
 20
126.659581
 30
0.0
 10
62.185550
 20
126.545948
 30
0.0
 10
62.093483
 20
126.422772
 30
0.0
 10
62.013377
 20
126.290866
 30
0.0
 10
61.946038
 20
126.151028
 30
0.0
 10
61.892267
 20
126.004068
 30
0.0
 10
61.852867
 20
125.850797
 30
0.0
 10
61.828638
 20
125.692016
 30
0.0
 10
61.820384
 20
125.528535
 30
0.0
  0
LWPOLYLINE
  5
11c
100
AcDbEntity
  8
Edge.Cuts
 62
1
100
AcDbPolyline
 90
65
 70
0
 10
5.889735
 20
125.492199
 30
0.0
 10
5.905139
 20
125.334932
 30
0.0
 10
5.935638
 20
125.181598
 30
0.0
 10
5.980489
 20
125.033053
 30
0.0
 10
6.038943
 20
124.890157
 30
0.0
 10
6.110258
 20
124.753766
 30
0.0
 10
6.193685
 20
124.624738
 30
0.0
 10
6.288479
 20
124.503929
 30
0.0
 10
6.393896
 20
124.392194
 30
0.0
 10
6.509191
 20
124.290397
 30
0.0
 10
6.633615
 20
124.199391
 30
0.0
 10
6.766425
 20
124.120034
 30
0.0
 10
6.906873
 20
124.053182
 30
0.0
 10
7.054217
 20
123.999694
 30
0.0
 10
7.207707
 20
123.960427
 30
0.0
 10
7.366602
 20
123.936240
 30
0.0
 10
7.530149
 20
123.927985
 30
0.0
 10
7.693817
 20
123.936247
 30
0.0
 10
7.852760
 20
123.960497
 30
0.0
 10
8.006172
 20
123.999934
 30
0.0
 10
8.153252
 20
124.053750
 30
0.0
 10
8.293192
 20
124.121141
 30
0.0
 10
8.425187
 20
124.201306
 30
0.0
 10
8.548433
 20
124.293441
 30
0.0
 10
8.662123
 20
124.396738
 30
0.0
 10
8.765451
 20
124.510396
 30
0.0
 10
8.857618
 20
124.633610
 30
0.0
 10
8.937811
 20
124.765573
 30
0.0
 10
9.005230
 20
124.905485
 30
0.0
 10
9.059071
 20
125.052544
 30
0.0
 10
9.098522
 20
125.205940
 30
0.0
 10
9.122786
 20
125.364872
 30
0.0
 10
9.131052
 20
125.528535
 30
0.0
 10
9.122786
 20
125.692016
 30
0.0
 10
9.098522
 20
125.850797
 30
0.0
 10
9.059071
 20
126.004068
 30
0.0
 10
9.005230
 20
126.151028
 30
0.0
 10
8.937811
 20
126.290866
 30
0.0
 10
8.857618
 20
126.422772
 30
0.0
 10
8.765451
 20
126.545948
 30
0.0
 10
8.662123
 20
126.659581
 30
0.0
 10
8.548433
 20
126.762871
 30
0.0
 10
8.425187
 20
126.855002
 30
0.0
 10
8.293192
 20
126.935174
 30
0.0
 10
8.153252
 20
127.002576
 30
0.0
 10
8.006172
 20
127.056406
 30
0.0
 10
7.852760
 20
127.095854
 30
0.0
 10
7.693817
 20
127.120114
 30
0.0
 10
7.530149
 20
127.128380
 30
0.0
 10
7.366609
 20
127.120114
 30
0.0
 10
7.207785
 20
127.095854
 30
0.0
 10
7.054486
 20
127.056406
 30
0.0
 10
6.907508
 20
127.002576
 30
0.0
 10
6.767664
 20
126.935174
 30
0.0
 10
6.635757
 20
126.855002
 30
0.0
 10
6.512588
 20
126.762871
 30
0.0
 10
6.398969
 20
126.659581
 30
0.0
 10
6.295701
 20
126.545948
 30
0.0
 10
6.203590
 20
126.422772
 30
0.0
 10
6.123441
 20
126.290866
 30
0.0
 10
6.056059
 20
126.151028
 30
0.0
 10
6.002249
 20
126.004068
 30
0.0
 10
5.962817
 20
125.850797
 30
0.0
 10
5.938567
 20
125.692016
 30
0.0
 10
5.930305
 20
125.528535
 30
0.0
  0
ENDSEC
  0
SECTION
  2
OBJECTS
  0
DICTIONARY
  5
C
330
0
100
AcDbDictionary
  3
ACAD_GROUP
350
D
  3
ACAD_MLINESTYLE
350
17
  0
DICTIONARY
  5
D
330
C
100
AcDbDictionary
  0
DICTIONARY
  5
1A
330
C
100
AcDbDictionary
  0
DICTIONARY
  5
17
330
C
100
AcDbDictionary
  3
STANDARD
350
18
  0
DICTIONARY
  5
19
330
C
100
AcDbDictionary
  0
ENDSEC
  0
EOF
