  0
SECTION
  2
HEADER
  9
$ACADVER
  1
AC1014
  9
$HANDSEED
  5
FFFF
  9
$MEASUREMENT
 70
     1
  0
ENDSEC
  0
SECTION
  2
TABLES
  0
TABLE
  2
VPORT
  5
8
330
0
100
AcDbSymbolTable
 70
     4
  0
VPORT
  5
2E
330
8
100
AcDbSymbolTableRecord
100
AcDbViewportTableRecord
  2
*ACTIVE
 70
     0
 10
0.0
 20
0.0
 11
1.0
 21
1.0
 12
210.0
 22
148.5
 13
0.0
 23
0.0
 14
10.0
 24
10.0
 15
10.0
 25
10.0
 16
0.0
 26
0.0
 36
1.0
 17
0.0
 27
0.0
 37
0.0
 40
341.0
 41
1.24
 42
50.0
 43
0.0
 44
0.0
 50
0.0
 51
0.0
 71
     0
 72
   100
 73
     1
 74
     3
 75
     0
 76
     0
 77
     0
 78
     0
  0
ENDTAB
  0
TABLE
  2
LTYPE
  5
5
330
0
100
AcDbSymbolTable
 70
     1
  0
LTYPE
  5
14
330
5
100
AcDbSymbolTableRecord
100
AcDbLinetypeTableRecord
  2
BYBLOCK
 70
     0
  3

 72
    65
 73
     0
 40
0.0
  0
LTYPE
  5
15
330
5
100
AcDbSymbolTableRecord
100
AcDbLinetypeTableRecord
  2
BYLAYER
 70
     0
  3

 72
    65
 73
     0
 40
0.0
  0
LTYPE
  5
16
330
5
100
AcDbSymbolTableRecord
100
AcDbLinetypeTableRecord
  2
CONTINUOUS
 70
     0
  3
Solid line
 72
    65
 73
     0
 40
0.0
  0
ENDTAB
  0
TABLE
  2
LAYER
  5
2
100
AcDbSymbolTable
 70
6
  0
LAYER
  5
50
100
AcDbSymbolTableRecord
100
AcDbLayerTableRecord
  2
0
 70
0
  6
CONTINUOUS
  0
LAYER
  5
51
100
AcDbSymbolTableRecord
100
AcDbLayerTableRecord
  2
grids
 70
0
  6
CONTINUOUS
  0
LAYER
  5
52
100
AcDbSymbolTableRecord
100
AcDbLayerTableRecord
  2
Edge.Cuts
 70
0
  6
CONTINUOUS
  0
LAYER
  5
53
100
AcDbSymbolTableRecord
100
AcDbLayerTableRecord
  2
F.SilkS
 70
0
  6
CONTINUOUS
  0
LAYER
  5
54
100
AcDbSymbolTableRecord
100
AcDbLayerTableRecord
  2
F.Cu
 70
0
  6
CONTINUOUS
  0
LAYER
  5
55
100
AcDbSymbolTableRecord
100
AcDbLayerTableRecord
  2
F.Mask
 70
0
  6
CONTINUOUS
  0
ENDTAB
  0
TABLE
  2
STYLE
  5
3
330
0
100
AcDbSymbolTable
 70
     1
  0
STYLE
  5
11
330
3
100
AcDbSymbolTableRecord
100
AcDbTextStyleTableRecord
  2
STANDARD
 70
     0
 40
0.0
 41
1.0
 50
0.0
 71
     0
 42
2.5
  3
txt
  4

  0
ENDTAB
  0
TABLE
  2
VIEW
  5
6
330
0
100
AcDbSymbolTable
 70
     0
  0
ENDTAB
  0
TABLE
  2
UCS
  5
7
330
0
100
AcDbSymbolTable
 70
     0
  0
ENDTAB
  0
TABLE
  2
APPID
  5
9
330
0
100
AcDbSymbolTable
 70
     2
  0
APPID
  5
12
330
9
100
AcDbSymbolTableRecord
100
AcDbRegAppTableRecord
  2
ACAD
 70
     0
  0
ENDTAB
  0
TABLE
  2
DIMSTYLE
  5
A
330
0
100
AcDbSymbolTable
 70
     1
  0
DIMSTYLE
105
27
330
A
100
AcDbSymbolTableRecord
100
AcDbDimStyleTableRecord
  2
ISO-25
 70
     0
  3

  4

  5

  6

  7

 40
1.0
 41
2.5
 42
0.625
 43
3.75
 44
1.25
 45
0.0
 46
0.0
 47
0.0
 48
0.0
140
2.5
141
2.5
142
0.0
143
0.03937007874016
144
1.0
145
0.0
146
1.0
147
0.625
 71
     0
 72
     0
 73
     0
 74
     0
 75
     0
 76
     0
 77
     1
 78
     8
170
     0
171
     3
172
     1
173
     0
174
     0
175
     0
176
     0
177
     0
178
     0
270
     2
271
     2
272
     2
273
     2
274
     3
340
11
275
     0
280
     0
281
     0
282
     0
283
     0
284
     8
285
     0
286
     0
287
     3
288
     0
  0
ENDTAB
  0
TABLE
  2
BLOCK_RECORD
  5
1
330
0
100
AcDbSymbolTable
 70
     1
  0
BLOCK_RECORD
  5
1F
330
1
100
AcDbSymbolTableRecord
100
AcDbBlockTableRecord
  2
*MODEL_SPACE
  0
BLOCK_RECORD
  5
1B
330
1
100
AcDbSymbolTableRecord
100
AcDbBlockTableRecord
  2
*PAPER_SPACE
  0
ENDTAB
  0
ENDSEC
  0
SECTION
  2
BLOCKS
  0
BLOCK
  5
20
330
1F
100
AcDbEntity
  8
0
100
AcDbBlockBegin
  2
*MODEL_SPACE
 70
     0
 10
0.0
 20
0.0
 30
0.0
  3
*MODEL_SPACE
  1

  0
ENDBLK
  5
21
330
1F
100
AcDbEntity
  8
0
100
AcDbBlockEnd
  0
BLOCK
  5
1C
330
1B
100
AcDbEntity
 67
     1
  8
0
100
AcDbBlockBegin
  2
*PAPER_SPACE
  1

  0
ENDBLK
  5
1D
330
1B
100
AcDbEntity
 67
     1
  8
0
100
AcDbBlockEnd
  0
ENDSEC
  0
SECTION
  2
ENTITIES
  0
LWPOLYLINE
  5
100
100
AcDbEntity
  8
Edge.Cuts
 62
1
100
AcDbPolyline
 90
64
 70
1
 10
68.639797
 20
209.582291
 30
0.0
 10
68.648060
 20
209.418689
 30
0.0
 10
68.672310
 20
209.259812
 30
0.0
 10
68.711744
 20
209.106462
 30
0.0
 10
68.765557
 20
208.959445
 30
0.0
 10
68.832944
 20
208.819569
 30
0.0
 10
68.913101
 20
208.687631
 30
0.0
 10
69.005221
 20
208.564441
 30
0.0
 10
69.108504
 20
208.450804
 30
0.0
 10
69.222144
 20
208.347518
 30
0.0
 10
69.345334
 20
208.255398
 30
0.0
 10
69.477272
 20
208.175240
 30
0.0
 10
69.617148
 20
208.107852
 30
0.0
 10
69.764164
 20
208.054040
 30
0.0
 10
69.917513
 20
208.014606
 30
0.0
 10
70.076393
 20
207.990357
 30
0.0
 10
70.239993
 20
207.982095
 30
0.0
 10
70.403534
 20
207.990357
 30
0.0
 10
70.562357
 20
208.014606
 30
0.0
 10
70.715657
 20
208.054040
 30
0.0
 10
70.862634
 20
208.107852
 30
0.0
 10
71.002478
 20
208.175240
 30
0.0
 10
71.134385
 20
208.255398
 30
0.0
 10
71.257554
 20
208.347518
 30
0.0
 10
71.371173
 20
208.450804
 30
0.0
 10
71.474441
 20
208.564441
 30
0.0
 10
71.566551
 20
208.687631
 30
0.0
 10
71.646702
 20
208.819569
 30
0.0
 10
71.714082
 20
208.959445
 30
0.0
 10
71.767891
 20
209.106462
 30
0.0
 10
71.807325
 20
209.259812
 30
0.0
 10
71.831575
 20
209.418689
 30
0.0
 10
71.839837
 20
209.582291
 30
0.0
 10
71.831575
 20
209.745892
 30
0.0
 10
71.807325
 20
209.904769
 30
0.0
 10
71.767891
 20
210.058120
 30
0.0
 10
71.714082
 20
210.205136
 30
0.0
 10
71.646702
 20
210.345012
 30
0.0
 10
71.566551
 20
210.476950
 30
0.0
 10
71.474441
 20
210.600140
 30
0.0
 10
71.371173
 20
210.713777
 30
0.0
 10
71.257554
 20
210.817063
 30
0.0
 10
71.134385
 20
210.909183
 30
0.0
 10
71.002478
 20
210.989341
 30
0.0
 10
70.862634
 20
211.056729
 30
0.0
 10
70.715657
 20
211.110541
 30
0.0
 10
70.562357
 20
211.149975
 30
0.0
 10
70.403534
 20
211.174225
 30
0.0
 10
70.239993
 20
211.182487
 30
0.0
 10
70.076393
 20
211.174225
 30
0.0
 10
69.917513
 20
211.149975
 30
0.0
 10
69.764164
 20
211.110541
 30
0.0
 10
69.617148
 20
211.056729
 30
0.0
 10
69.477272
 20
210.989341
 30
0.0
 10
69.345334
 20
210.909183
 30
0.0
 10
69.222144
 20
210.817063
 30
0.0
 10
69.108507
 20
210.713777
 30
0.0
 10
69.005221
 20
210.600140
 30
0.0
 10
68.913101
 20
210.476950
 30
0.0
 10
68.832944
 20
210.345012
 30
0.0
 10
68.765557
 20
210.205136
 30
0.0
 10
68.711744
 20
210.058120
 30
0.0
 10
68.672310
 20
209.904769
 30
0.0
 10
68.648060
 20
209.745892
 30
0.0
  0
LWPOLYLINE
  5
101
100
AcDbEntity
  8
Edge.Cuts
 62
1
100
AcDbPolyline
 90
64
 70
1
 10
134.681122
 20
209.582291
 30
0.0
 10
134.689384
 20
209.418689
 30
0.0
 10
134.713634
 20
209.259812
 30
0.0
 10
134.753069
 20
209.106462
 30
0.0
 10
134.806881
 20
208.959445
 30
0.0
 10
134.874269
 20
208.819569
 30
0.0
 10
134.954425
 20
208.687631
 30
0.0
 10
135.046546
 20
208.564441
 30
0.0
 10
135.149828
 20
208.450804
 30
0.0
 10
135.263468
 20
208.347518
 30
0.0
 10
135.386658
 20
208.255398
 30
0.0
 10
135.518597
 20
208.175240
 30
0.0
 10
135.658473
 20
208.107852
 30
0.0
 10
135.805489
 20
208.054040
 30
0.0
 10
135.958837
 20
208.014606
 30
0.0
 10
136.117718
 20
207.990357
 30
0.0
 10
136.281318
 20
207.982095
 30
0.0
 10
136.444915
 20
207.990357
 30
0.0
 10
136.603781
 20
208.014606
 30
0.0
 10
136.757112
 20
208.054040
 30
0.0
 10
136.904107
 20
208.107852
 30
0.0
 10
137.043958
 20
208.175240
 30
0.0
 10
137.175865
 20
208.255398
 30
0.0
 10
137.299023
 20
208.347518
 30
0.0
 10
137.412627
 20
208.450804
 30
0.0
 10
137.515878
 20
208.564441
 30
0.0
 10
137.607971
 20
208.687631
 30
0.0
 10
137.688097
 20
208.819569
 30
0.0
 10
137.755456
 20
208.959445
 30
0.0
 10
137.809247
 20
209.106462
 30
0.0
 10
137.848663
 20
209.259812
 30
0.0
 10
137.872903
 20
209.418689
 30
0.0
 10
137.881161
 20
209.582291
 30
0.0
 10
137.872903
 20
209.745892
 30
0.0
 10
137.848663
 20
209.904769
 30
0.0
 10
137.809247
 20
210.058120
 30
0.0
 10
137.755456
 20
210.205136
 30
0.0
 10
137.688097
 20
210.345012
 30
0.0
 10
137.607971
 20
210.476950
 30
0.0
 10
137.515878
 20
210.600140
 30
0.0
 10
137.412631
 20
210.713777
 30
0.0
 10
137.299023
 20
210.817063
 30
0.0
 10
137.175865
 20
210.909183
 30
0.0
 10
137.043958
 20
210.989341
 30
0.0
 10
136.904107
 20
211.056729
 30
0.0
 10
136.757112
 20
211.110541
 30
0.0
 10
136.603781
 20
211.149975
 30
0.0
 10
136.444915
 20
211.174225
 30
0.0
 10
136.281318
 20
211.182487
 30
0.0
 10
136.117718
 20
211.174225
 30
0.0
 10
135.958837
 20
211.149975
 30
0.0
 10
135.805489
 20
211.110541
 30
0.0
 10
135.658473
 20
211.056729
 30
0.0
 10
135.518597
 20
210.989341
 30
0.0
 10
135.386658
 20
210.909183
 30
0.0
 10
135.263468
 20
210.817063
 30
0.0
 10
135.149832
 20
210.713777
 30
0.0
 10
135.046546
 20
210.600140
 30
0.0
 10
134.954425
 20
210.476950
 30
0.0
 10
134.874269
 20
210.345012
 30
0.0
 10
134.806881
 20
210.205136
 30
0.0
 10
134.753069
 20
210.058120
 30
0.0
 10
134.713634
 20
209.904769
 30
0.0
 10
134.689384
 20
209.745892
 30
0.0
  0
LWPOLYLINE
  5
102
100
AcDbEntity
  8
Edge.Cuts
 62
1
100
AcDbPolyline
 90
128
 70
1
 10
68.444799
 20
191.651742
 30
0.0
 10
68.449093
 20
191.481902
 30
0.0
 10
68.461837
 20
191.314295
 30
0.0
 10
68.482822
 20
191.149127
 30
0.0
 10
68.511842
 20
190.986610
 30
0.0
 10
68.548690
 20
190.826943
 30
0.0
 10
68.593157
 20
190.670338
 30
0.0
 10
68.645038
 20
190.517004
 30
0.0
 10
68.704124
 20
190.367144
 30
0.0
 10
68.770207
 20
190.220967
 30
0.0
 10
68.843081
 20
190.078682
 30
0.0
 10
68.922541
 20
189.940492
 30
0.0
 10
69.008375
 20
189.806606
 30
0.0
 10
69.100375
 20
189.677232
 30
0.0
 10
69.198338
 20
189.552579
 30
0.0
 10
69.302054
 20
189.432850
 30
0.0
 10
69.411320
 20
189.318254
 30
0.0
 10
69.525923
 20
189.208999
 30
0.0
 10
69.645659
 20
189.105293
 30
0.0
 10
69.770316
 20
189.007341
 30
0.0
 10
69.899694
 20
188.915347
 30
0.0
 10
70.033580
 20
188.829523
 30
0.0
 10
70.171769
 20
188.750078
 30
0.0
 10
70.314055
 20
188.677216
 30
0.0
 10
70.460224
 20
188.611140
 30
0.0
 10
70.610077
 20
188.552064
 30
0.0
 10
70.763401
 20
188.500196
 30
0.0
 10
70.919992
 20
188.455735
 30
0.0
 10
71.079641
 20
188.418895
 30
0.0
 10
71.242140
 20
188.389882
 30
0.0
 10
71.407286
 20
188.368899
 30
0.0
 10
71.574865
 20
188.356160
 30
0.0
 10
71.744675
 20
188.351867
 30
0.0
 10
71.914516
 20
188.356160
 30
0.0
 10
72.082106
 20
188.368899
 30
0.0
 10
72.247276
 20
188.389882
 30
0.0
 10
72.409800
 20
188.418895
 30
0.0
 10
72.569467
 20
188.455735
 30
0.0
 10
72.726065
 20
188.500196
 30
0.0
 10
72.879417
 20
188.552064
 30
0.0
 10
73.029276
 20
188.611140
 30
0.0
 10
73.175467
 20
188.677216
 30
0.0
 10
73.317742
 20
188.750078
 30
0.0
 10
73.455925
 20
188.829523
 30
0.0
 10
73.589804
 20
188.915347
 30
0.0
 10
73.719167
 20
189.007341
 30
0.0
 10
73.843838
 20
189.105293
 30
0.0
 10
73.963571
 20
189.208999
 30
0.0
 10
74.078153
 20
189.318257
 30
0.0
 10
74.187408
 20
189.432850
 30
0.0
 10
74.291124
 20
189.552579
 30
0.0
 10
74.389090
 20
189.677232
 30
0.0
 10
74.481059
 20
189.806606
 30
0.0
 10
74.566890
 20
189.940492
 30
0.0
 10
74.646335
 20
190.078682
 30
0.0
 10
74.719219
 20
190.220967
 30
0.0
 10
74.785259
 20
190.367144
 30
0.0
 10
74.844349
 20
190.517004
 30
0.0
 10
74.896207
 20
190.670338
 30
0.0
 10
74.940692
 20
190.826943
 30
0.0
 10
74.977522
 20
190.986610
 30
0.0
 10
75.006520
 20
191.149127
 30
0.0
 10
75.027511
 20
191.314295
 30
0.0
 10
75.040246
 20
191.481902
 30
0.0
 10
75.044550
 20
191.651742
 30
0.0
 10
75.040246
 20
191.821551
 30
0.0
 10
75.027511
 20
191.989131
 30
0.0
 10
75.006520
 20
192.154276
 30
0.0
 10
74.977522
 20
192.316776
 30
0.0
 10
74.940692
 20
192.476425
 30
0.0
 10
74.896207
 20
192.633016
 30
0.0
 10
74.844349
 20
192.786340
 30
0.0
 10
74.785259
 20
192.936192
 30
0.0
 10
74.719219
 20
193.082362
 30
0.0
 10
74.646335
 20
193.224647
 30
0.0
 10
74.566890
 20
193.362837
 30
0.0
 10
74.481059
 20
193.496723
 30
0.0
 10
74.389090
 20
193.626100
 30
0.0
 10
74.291124
 20
193.750758
 30
0.0
 10
74.187408
 20
193.870494
 30
0.0
 10
74.078153
 20
193.985097
 30
0.0
 10
73.963571
 20
194.094362
 30
0.0
 10
73.843838
 20
194.198079
 30
0.0
 10
73.719167
 20
194.296041
 30
0.0
 10
73.589804
 20
194.388042
 30
0.0
 10
73.455925
 20
194.473876
 30
0.0
 10
73.317742
 20
194.553336
 30
0.0
 10
73.175467
 20
194.626209
 30
0.0
 10
73.029276
 20
194.692295
 30
0.0
 10
72.879417
 20
194.751378
 30
0.0
 10
72.726065
 20
194.803261
 30
0.0
 10
72.569467
 20
194.847728
 30
0.0
 10
72.409800
 20
194.884576
 30
0.0
 10
72.247276
 20
194.913595
 30
0.0
 10
72.082106
 20
194.934582
 30
0.0
 10
71.914516
 20
194.947324
 30
0.0
 10
71.744675
 20
194.951617
 30
0.0
 10
71.574865
 20
194.947324
 30
0.0
 10
71.407286
 20
194.934582
 30
0.0
 10
71.242140
 20
194.913595
 30
0.0
 10
71.079641
 20
194.884576
 30
0.0
 10
70.919992
 20
194.847728
 30
0.0
 10
70.763401
 20
194.803261
 30
0.0
 10
70.610077
 20
194.751378
 30
0.0
 10
70.460224
 20
194.692295
 30
0.0
 10
70.314055
 20
194.626209
 30
0.0
 10
70.171769
 20
194.553336
 30
0.0
 10
70.033580
 20
194.473876
 30
0.0
 10
69.899694
 20
194.388042
 30
0.0
 10
69.770316
 20
194.296041
 30
0.0
 10
69.645659
 20
194.198079
 30
0.0
 10
69.525923
 20
194.094362
 30
0.0
 10
69.411320
 20
193.985097
 30
0.0
 10
69.302054
 20
193.870494
 30
0.0
 10
69.198338
 20
193.750758
 30
0.0
 10
69.100375
 20
193.626100
 30
0.0
 10
69.008375
 20
193.496723
 30
0.0
 10
68.922541
 20
193.362837
 30
0.0
 10
68.843081
 20
193.224647
 30
0.0
 10
68.770207
 20
193.082362
 30
0.0
 10
68.704124
 20
192.936192
 30
0.0
 10
68.645038
 20
192.786340
 30
0.0
 10
68.593157
 20
192.633016
 30
0.0
 10
68.548690
 20
192.476425
 30
0.0
 10
68.511842
 20
192.316776
 30
0.0
 10
68.482822
 20
192.154276
 30
0.0
 10
68.461837
 20
191.989131
 30
0.0
 10
68.449093
 20
191.821551
 30
0.0
  0
LWPOLYLINE
  5
103
100
AcDbEntity
  8
Edge.Cuts
 62
1
100
AcDbPolyline
 90
128
 70
1
 10
82.605035
 20
191.651742
 30
0.0
 10
82.609914
 20
191.458729
 30
0.0
 10
82.624395
 20
191.268253
 30
0.0
 10
82.648242
 20
191.080554
 30
0.0
 10
82.681219
 20
190.895861
 30
0.0
 10
82.723091
 20
190.714410
 30
0.0
 10
82.773622
 20
190.536442
 30
0.0
 10
82.832577
 20
190.362187
 30
0.0
 10
82.899720
 20
190.191884
 30
0.0
 10
82.974816
 20
190.025769
 30
0.0
 10
83.057627
 20
189.864070
 30
0.0
 10
83.147920
 20
189.707031
 30
0.0
 10
83.245459
 20
189.554882
 30
0.0
 10
83.350008
 20
189.407862
 30
0.0
 10
83.461334
 20
189.266205
 30
0.0
 10
83.579197
 20
189.130146
 30
0.0
 10
83.703364
 20
188.999918
 30
0.0
 10
83.833595
 20
188.875762
 30
0.0
 10
83.969661
 20
188.757906
 30
0.0
 10
84.111326
 20
188.646595
 30
0.0
 10
84.258349
 20
188.542056
 30
0.0
 10
84.410498
 20
188.444527
 30
0.0
 10
84.567540
 20
188.354245
 30
0.0
 10
84.729232
 20
188.271445
 30
0.0
 10
84.895344
 20
188.196359
 30
0.0
 10
85.065640
 20
188.129226
 30
0.0
 10
85.239884
 20
188.070281
 30
0.0
 10
85.417842
 20
188.019763
 30
0.0
 10
85.599271
 20
187.977888
 30
0.0
 10
85.783947
 20
187.944939
 30
0.0
 10
85.971624
 20
187.921091
 30
0.0
 10
86.162085
 20
187.906592
 30
0.0
 10
86.355054
 20
187.901724
 30
0.0
 10
86.547987
 20
187.906592
 30
0.0
 10
86.738416
 20
187.921091
 30
0.0
 10
86.926094
 20
187.944939
 30
0.0
 10
87.110737
 20
187.977888
 30
0.0
 10
87.292135
 20
188.019763
 30
0.0
 10
87.470076
 20
188.070281
 30
0.0
 10
87.644312
 20
188.129226
 30
0.0
 10
87.814598
 20
188.196359
 30
0.0
 10
87.980720
 20
188.271445
 30
0.0
 10
88.142398
 20
188.354245
 30
0.0
 10
88.299454
 20
188.444527
 30
0.0
 10
88.451607
 20
188.542056
 30
0.0
 10
88.598644
 20
188.646595
 30
0.0
 10
88.740284
 20
188.757906
 30
0.0
 10
88.876385
 20
188.875762
 30
0.0
 10
89.006631
 20
188.999918
 30
0.0
 10
89.130773
 20
189.130146
 30
0.0
 10
89.248671
 20
189.266205
 30
0.0
 10
89.360007
 20
189.407862
 30
0.0
 10
89.464570
 20
189.554882
 30
0.0
 10
89.562113
 20
189.707031
 30
0.0
 10
89.652424
 20
189.864070
 30
0.0
 10
89.735221
 20
190.025769
 30
0.0
 10
89.810327
 20
190.191884
 30
0.0
 10
89.877496
 20
190.362187
 30
0.0
 10
89.936445
 20
190.536442
 30
0.0
 10
89.986998
 20
190.714410
 30
0.0
 10
90.028872
 20
190.895861
 30
0.0
 10
90.061857
 20
191.080554
 30
0.0
 10
90.085705
 20
191.268253
 30
0.0
 10
90.100204
 20
191.458729
 30
0.0
 10
90.105072
 20
191.651742
 30
0.0
 10
90.100204
 20
191.844693
 30
0.0
 10
90.085705
 20
192.035115
 30
0.0
 10
90.061857
 20
192.222768
 30
0.0
 10
90.028872
 20
192.407422
 30
0.0
 10
89.986998
 20
192.588838
 30
0.0
 10
89.936445
 20
192.766778
 30
0.0
 10
89.877496
 20
192.941015
 30
0.0
 10
89.810327
 20
193.111300
 30
0.0
 10
89.735221
 20
193.277409
 30
0.0
 10
89.652424
 20
193.439101
 30
0.0
 10
89.562113
 20
193.596139
 30
0.0
 10
89.464570
 20
193.748292
 30
0.0
 10
89.360007
 20
193.895319
 30
0.0
 10
89.248671
 20
194.036987
 30
0.0
 10
89.130773
 20
194.173060
 30
0.0
 10
89.006631
 20
194.303302
 30
0.0
 10
88.876385
 20
194.427476
 30
0.0
 10
88.740284
 20
194.545349
 30
0.0
 10
88.598644
 20
194.656682
 30
0.0
 10
88.451607
 20
194.761245
 30
0.0
 10
88.299454
 20
194.858795
 30
0.0
 10
88.142398
 20
194.949099
 30
0.0
 10
87.980720
 20
195.031920
 30
0.0
 10
87.814598
 20
195.107026
 30
0.0
 10
87.644312
 20
195.174181
 30
0.0
 10
87.470076
 20
195.233133
 30
0.0
 10
87.292135
 20
195.283686
 30
0.0
 10
87.110737
 20
195.325561
 30
0.0
 10
86.926094
 20
195.358546
 30
0.0
 10
86.738416
 20
195.382393
 30
0.0
 10
86.547987
 20
195.396892
 30
0.0
 10
86.355054
 20
195.401761
 30
0.0
 10
86.162085
 20
195.396892
 30
0.0
 10
85.971624
 20
195.382393
 30
0.0
 10
85.783947
 20
195.358546
 30
0.0
 10
85.599271
 20
195.325561
 30
0.0
 10
85.417842
 20
195.283686
 30
0.0
 10
85.239884
 20
195.233133
 30
0.0
 10
85.065640
 20
195.174181
 30
0.0
 10
84.895344
 20
195.107026
 30
0.0
 10
84.729232
 20
195.031920
 30
0.0
 10
84.567540
 20
194.949099
 30
0.0
 10
84.410498
 20
194.858795
 30
0.0
 10
84.258349
 20
194.761245
 30
0.0
 10
84.111326
 20
194.656682
 30
0.0
 10
83.969661
 20
194.545349
 30
0.0
 10
83.833595
 20
194.427476
 30
0.0
 10
83.703364
 20
194.303302
 30
0.0
 10
83.579197
 20
194.173060
 30
0.0
 10
83.461334
 20
194.036987
 30
0.0
 10
83.350008
 20
193.895319
 30
0.0
 10
83.245459
 20
193.748292
 30
0.0
 10
83.147920
 20
193.596139
 30
0.0
 10
83.057627
 20
193.439101
 30
0.0
 10
82.974816
 20
193.277409
 30
0.0
 10
82.899720
 20
193.111300
 30
0.0
 10
82.832577
 20
192.941015
 30
0.0
 10
82.773622
 20
192.766778
 30
0.0
 10
82.723091
 20
192.588838
 30
0.0
 10
82.681219
 20
192.407422
 30
0.0
 10
82.648242
 20
192.222768
 30
0.0
 10
82.624395
 20
192.035115
 30
0.0
 10
82.609914
 20
191.844693
 30
0.0
  0
LWPOLYLINE
  5
104
100
AcDbEntity
  8
Edge.Cuts
 62
1
100
AcDbPolyline
 90
128
 70
1
 10
106.730538
 20
191.651742
 30
0.0
 10
106.735418
 20
191.458729
 30
0.0
 10
106.749902
 20
191.268253
 30
0.0
 10
106.773753
 20
191.080554
 30
0.0
 10
106.806737
 20
190.895861
 30
0.0
 10
106.848617
 20
190.714410
 30
0.0
 10
106.899157
 20
190.536442
 30
0.0
 10
106.958123
 20
190.362187
 30
0.0
 10
107.025277
 20
190.191884
 30
0.0
 10
107.100386
 20
190.025769
 30
0.0
 10
107.183211
 20
189.864070
 30
0.0
 10
107.273518
 20
189.707031
 30
0.0
 10
107.371075
 20
189.554882
 30
0.0
 10
107.475638
 20
189.407862
 30
0.0
 10
107.586978
 20
189.266205
 30
0.0
 10
107.704858
 20
189.130146
 30
0.0
 10
107.829043
 20
188.999918
 30
0.0
 10
107.959292
 20
188.875762
 30
0.0
 10
108.095375
 20
188.757906
 30
0.0
 10
108.237054
 20
188.646595
 30
0.0
 10
108.384095
 20
188.542056
 30
0.0
 10
108.536258
 20
188.444527
 30
0.0
 10
108.693311
 20
188.354245
 30
0.0
 10
108.855020
 20
188.271445
 30
0.0
 10
109.021146
 20
188.196359
 30
0.0
 10
109.191453
 20
188.129226
 30
0.0
 10
109.365707
 20
188.070281
 30
0.0
 10
109.543673
 20
188.019763
 30
0.0
 10
109.725113
 20
187.977888
 30
0.0
 10
109.909791
 20
187.944939
 30
0.0
 10
110.097476
 20
187.921091
 30
0.0
 10
110.287940
 20
187.906592
 30
0.0
 10
110.480909
 20
187.901724
 30
0.0
 10
110.673878
 20
187.906592
 30
0.0
 10
110.864342
 20
187.921091
 30
0.0
 10
111.052020
 20
187.944939
 30
0.0
 10
111.236698
 20
187.977888
 30
0.0
 10
111.418131
 20
188.019763
 30
0.0
 10
111.596072
 20
188.070281
 30
0.0
 10
111.770309
 20
188.129226
 30
0.0
 10
111.940629
 20
188.196359
 30
0.0
 10
112.106717
 20
188.271445
 30
0.0
 10
112.268430
 20
188.354245
 30
0.0
 10
112.425451
 20
188.444527
 30
0.0
 10
112.577603
 20
188.542056
 30
0.0
 10
112.724641
 20
188.646595
 30
0.0
 10
112.866316
 20
188.757906
 30
0.0
 10
113.002382
 20
188.875762
 30
0.0
 10
113.132592
 20
188.999918
 30
0.0
 10
113.256769
 20
189.130146
 30
0.0
 10
113.374632
 20
189.266205
 30
0.0
 10
113.485969
 20
189.407862
 30
0.0
 10
113.590496
 20
189.554882
 30
0.0
 10
113.688039
 20
189.707031
 30
0.0
 10
113.778350
 20
189.864070
 30
0.0
 10
113.861147
 20
190.025769
 30
0.0
 10
113.936253
 20
190.191884
 30
0.0
 10
114.003386
 20
190.362187
 30
0.0
 10
114.062335
 20
190.536442
 30
0.0
 10
114.112888
 20
190.714410
 30
0.0
 10
114.154728
 20
190.895861
 30
0.0
 10
114.187712
 20
191.080554
 30
0.0
 10
114.211560
 20
191.268253
 30
0.0
 10
114.226059
 20
191.458729
 30
0.0
 10
114.230928
 20
191.651742
 30
0.0
 10
114.226059
 20
191.844693
 30
0.0
 10
114.211560
 20
192.035115
 30
0.0
 10
114.187712
 20
192.222768
 30
0.0
 10
114.154728
 20
192.407422
 30
0.0
 10
114.112888
 20
192.588838
 30
0.0
 10
114.062335
 20
192.766778
 30
0.0
 10
114.003386
 20
192.941015
 30
0.0
 10
113.936253
 20
193.111300
 30
0.0
 10
113.861147
 20
193.277409
 30
0.0
 10
113.778350
 20
193.439101
 30
0.0
 10
113.688039
 20
193.596139
 30
0.0
 10
113.590496
 20
193.748292
 30
0.0
 10
113.485969
 20
193.895319
 30
0.0
 10
113.374632
 20
194.036987
 30
0.0
 10
113.256769
 20
194.173060
 30
0.0
 10
113.132592
 20
194.303302
 30
0.0
 10
113.002382
 20
194.427476
 30
0.0
 10
112.866316
 20
194.545349
 30
0.0
 10
112.724641
 20
194.656682
 30
0.0
 10
112.577603
 20
194.761245
 30
0.0
 10
112.425451
 20
194.858795
 30
0.0
 10
112.268430
 20
194.949099
 30
0.0
 10
112.106717
 20
195.031920
 30
0.0
 10
111.940629
 20
195.107026
 30
0.0
 10
111.770309
 20
195.174181
 30
0.0
 10
111.596072
 20
195.233133
 30
0.0
 10
111.418131
 20
195.283686
 30
0.0
 10
111.236698
 20
195.325561
 30
0.0
 10
111.052020
 20
195.358546
 30
0.0
 10
110.864342
 20
195.382393
 30
0.0
 10
110.673878
 20
195.396892
 30
0.0
 10
110.480909
 20
195.401761
 30
0.0
 10
110.287940
 20
195.396892
 30
0.0
 10
110.097476
 20
195.382393
 30
0.0
 10
109.909791
 20
195.358546
 30
0.0
 10
109.725113
 20
195.325561
 30
0.0
 10
109.543673
 20
195.283686
 30
0.0
 10
109.365707
 20
195.233133
 30
0.0
 10
109.191453
 20
195.174181
 30
0.0
 10
109.021146
 20
195.107026
 30
0.0
 10
108.855020
 20
195.031920
 30
0.0
 10
108.693311
 20
194.949099
 30
0.0
 10
108.536258
 20
194.858795
 30
0.0
 10
108.384095
 20
194.761245
 30
0.0
 10
108.237054
 20
194.656682
 30
0.0
 10
108.095375
 20
194.545349
 30
0.0
 10
107.959292
 20
194.427476
 30
0.0
 10
107.829043
 20
194.303302
 30
0.0
 10
107.704858
 20
194.173060
 30
0.0
 10
107.586978
 20
194.036987
 30
0.0
 10
107.475638
 20
193.895319
 30
0.0
 10
107.371075
 20
193.748292
 30
0.0
 10
107.273518
 20
193.596139
 30
0.0
 10
107.183211
 20
193.439101
 30
0.0
 10
107.100386
 20
193.277409
 30
0.0
 10
107.025277
 20
193.111300
 30
0.0
 10
106.958123
 20
192.941015
 30
0.0
 10
106.899157
 20
192.766778
 30
0.0
 10
106.848617
 20
192.588838
 30
0.0
 10
106.806737
 20
192.407422
 30
0.0
 10
106.773753
 20
192.222768
 30
0.0
 10
106.749902
 20
192.035115
 30
0.0
 10
106.735418
 20
191.844693
 30
0.0
  0
LWPOLYLINE
  5
105
100
AcDbEntity
  8
Edge.Cuts
 62
1
100
AcDbPolyline
 90
128
 70
1
 10
118.801094
 20
170.061213
 30
0.0
 10
118.805974
 20
169.868262
 30
0.0
 10
118.820454
 20
169.677839
 30
0.0
 10
118.844301
 20
169.490187
 30
0.0
 10
118.877278
 20
169.305533
 30
0.0
 10
118.919150
 20
169.124117
 30
0.0
 10
118.969681
 20
168.946176
 30
0.0
 10
119.028636
 20
168.771940
 30
0.0
 10
119.095779
 20
168.601655
 30
0.0
 10
119.170875
 20
168.435546
 30
0.0
 10
119.253686
 20
168.273854
 30
0.0
 10
119.343979
 20
168.116816
 30
0.0
 10
119.441518
 20
167.964663
 30
0.0
 10
119.546067
 20
167.817636
 30
0.0
 10
119.657393
 20
167.675968
 30
0.0
 10
119.775256
 20
167.539895
 30
0.0
 10
119.899423
 20
167.409653
 30
0.0
 10
120.029654
 20
167.285479
 30
0.0
 10
120.165720
 20
167.167606
 30
0.0
 10
120.307385
 20
167.056273
 30
0.0
 10
120.454408
 20
166.951710
 30
0.0
 10
120.606557
 20
166.854160
 30
0.0
 10
120.763599
 20
166.763856
 30
0.0
 10
120.925291
 20
166.681035
 30
0.0
 10
121.091403
 20
166.605929
 30
0.0
 10
121.261699
 20
166.538774
 30
0.0
 10
121.435943
 20
166.479821
 30
0.0
 10
121.613901
 20
166.429269
 30
0.0
 10
121.795331
 20
166.387394
 30
0.0
 10
121.980006
 20
166.354409
 30
0.0
 10
122.167683
 20
166.330562
 30
0.0
 10
122.358144
 20
166.316062
 30
0.0
 10
122.551113
 20
166.311194
 30
0.0
 10
122.744117
 20
166.316062
 30
0.0
 10
122.934617
 20
166.330562
 30
0.0
 10
123.122294
 20
166.354409
 30
0.0
 10
123.307008
 20
166.387394
 30
0.0
 10
123.488476
 20
166.429269
 30
0.0
 10
123.666452
 20
166.479821
 30
0.0
 10
123.840724
 20
166.538774
 30
0.0
 10
124.011009
 20
166.605929
 30
0.0
 10
124.177167
 20
166.681035
 30
0.0
 10
124.338880
 20
166.763856
 30
0.0
 10
124.495937
 20
166.854160
 30
0.0
 10
124.648089
 20
166.951710
 30
0.0
 10
124.795127
 20
167.056273
 30
0.0
 10
124.936802
 20
167.167606
 30
0.0
 10
125.072868
 20
167.285479
 30
0.0
 10
125.203113
 20
167.409653
 30
0.0
 10
125.327291
 20
167.539895
 30
0.0
 10
125.445153
 20
167.675968
 30
0.0
 10
125.556490
 20
167.817636
 30
0.0
 10
125.661053
 20
167.964663
 30
0.0
 10
125.758596
 20
168.116816
 30
0.0
 10
125.848871
 20
168.273854
 30
0.0
 10
125.931703
 20
168.435546
 30
0.0
 10
126.006810
 20
168.601655
 30
0.0
 10
126.073943
 20
168.771940
 30
0.0
 10
126.132892
 20
168.946176
 30
0.0
 10
126.183410
 20
169.124117
 30
0.0
 10
126.225284
 20
169.305533
 30
0.0
 10
126.258269
 20
169.490187
 30
0.0
 10
126.282117
 20
169.677839
 30
0.0
 10
126.296616
 20
169.868262
 30
0.0
 10
126.301484
 20
170.061213
 30
0.0
 10
126.296616
 20
170.254195
 30
0.0
 10
126.282117
 20
170.444642
 30
0.0
 10
126.258269
 20
170.632320
 30
0.0
 10
126.225284
 20
170.816995
 30
0.0
 10
126.183410
 20
170.998424
 30
0.0
 10
126.132892
 20
171.176383
 30
0.0
 10
126.073943
 20
171.350626
 30
0.0
 10
126.006810
 20
171.520922
 30
0.0
 10
125.931703
 20
171.687034
 30
0.0
 10
125.848871
 20
171.848726
 30
0.0
 10
125.758596
 20
172.005768
 30
0.0
 10
125.661053
 20
172.157917
 30
0.0
 10
125.556490
 20
172.304941
 30
0.0
 10
125.445153
 20
172.446605
 30
0.0
 10
125.327291
 20
172.582671
 30
0.0
 10
125.203113
 20
172.712906
 30
0.0
 10
125.072868
 20
172.837069
 30
0.0
 10
124.936802
 20
172.954932
 30
0.0
 10
124.795127
 20
173.066258
 30
0.0
 10
124.648089
 20
173.170807
 30
0.0
 10
124.495937
 20
173.268346
 30
0.0
 10
124.338880
 20
173.358639
 30
0.0
 10
124.177167
 20
173.441450
 30
0.0
 10
124.011009
 20
173.516546
 30
0.0
 10
123.840724
 20
173.583690
 30
0.0
 10
123.666452
 20
173.642639
 30
0.0
 10
123.488476
 20
173.693192
 30
0.0
 10
123.307008
 20
173.735031
 30
0.0
 10
123.122294
 20
173.768016
 30
0.0
 10
122.934617
 20
173.791864
 30
0.0
 10
122.744117
 20
173.806363
 30
0.0
 10
122.551113
 20
173.811231
 30
0.0
 10
122.358144
 20
173.806363
 30
0.0
 10
122.167683
 20
173.791864
 30
0.0
 10
121.980006
 20
173.768016
 30
0.0
 10
121.795331
 20
173.735031
 30
0.0
 10
121.613901
 20
173.693192
 30
0.0
 10
121.435943
 20
173.642639
 30
0.0
 10
121.261699
 20
173.583690
 30
0.0
 10
121.091403
 20
173.516546
 30
0.0
 10
120.925291
 20
173.441450
 30
0.0
 10
120.763599
 20
173.358639
 30
0.0
 10
120.606557
 20
173.268346
 30
0.0
 10
120.454408
 20
173.170807
 30
0.0
 10
120.307385
 20
173.066258
 30
0.0
 10
120.165720
 20
172.954932
 30
0.0
 10
120.029654
 20
172.837069
 30
0.0
 10
119.899423
 20
172.712906
 30
0.0
 10
119.775256
 20
172.582671
 30
0.0
 10
119.657393
 20
172.446605
 30
0.0
 10
119.546067
 20
172.304941
 30
0.0
 10
119.441518
 20
172.157917
 30
0.0
 10
119.343979
 20
172.005768
 30
0.0
 10
119.253686
 20
171.848726
 30
0.0
 10
119.170875
 20
171.687034
 30
0.0
 10
119.095779
 20
171.520922
 30
0.0
 10
119.028636
 20
171.350626
 30
0.0
 10
118.969681
 20
171.176383
 30
0.0
 10
118.919150
 20
170.998424
 30
0.0
 10
118.877278
 20
170.816995
 30
0.0
 10
118.844301
 20
170.632320
 30
0.0
 10
118.820454
 20
170.444642
 30
0.0
 10
118.805974
 20
170.254195
 30
0.0
  0
LWPOLYLINE
  5
106
100
AcDbEntity
  8
Edge.Cuts
 62
1
100
AcDbPolyline
 90
128
 70
1
 10
82.204985
 20
170.061213
 30
0.0
 10
82.210386
 20
169.847685
 30
0.0
 10
82.226416
 20
169.636960
 30
0.0
 10
82.252813
 20
169.429294
 30
0.0
 10
82.289316
 20
169.224955
 30
0.0
 10
82.335665
 20
169.024197
 30
0.0
 10
82.391599
 20
168.827284
 30
0.0
 10
82.456857
 20
168.634477
 30
0.0
 10
82.531177
 20
168.446034
 30
0.0
 10
82.614298
 20
168.262220
 30
0.0
 10
82.705964
 20
168.083295
 30
0.0
 10
82.805909
 20
167.909517
 30
0.0
 10
82.913869
 20
167.741151
 30
0.0
 10
83.029591
 20
167.578453
 30
0.0
 10
83.152812
 20
167.421686
 30
0.0
 10
83.283265
 20
167.271111
 30
0.0
 10
83.420700
 20
167.126991
 30
0.0
 10
83.564845
 20
166.989584
 30
0.0
 10
83.715445
 20
166.859152
 30
0.0
 10
83.872237
 20
166.735955
 30
0.0
 10
84.034962
 20
166.620251
 30
0.0
 10
84.203361
 20
166.512312
 30
0.0
 10
84.377167
 20
166.412370
 30
0.0
 10
84.556123
 20
166.320719
 30
0.0
 10
84.739969
 20
166.237640
 30
0.0
 10
84.928441
 20
166.163310
 30
0.0
 10
85.121279
 20
166.098082
 30
0.0
 10
85.318224
 20
166.042166
 30
0.0
 10
85.519014
 20
165.995812
 30
0.0
 10
85.723388
 20
165.959299
 30
0.0
 10
85.931085
 20
165.932911
 30
0.0
 10
86.141834
 20
165.916895
 30
0.0
 10
86.355405
 20
165.911498
 30
0.0
 10
86.568941
 20
165.916895
 30
0.0
 10
86.779655
 20
165.932911
 30
0.0
 10
86.987335
 20
165.959299
 30
0.0
 10
87.191663
 20
165.995812
 30
0.0
 10
87.392428
 20
166.042166
 30
0.0
 10
87.589349
 20
166.098082
 30
0.0
 10
87.782141
 20
166.163310
 30
0.0
 10
87.970595
 20
166.237640
 30
0.0
 10
88.154391
 20
166.320719
 30
0.0
 10
88.333320
 20
166.412370
 30
0.0
 10
88.507098
 20
166.512312
 30
0.0
 10
88.675478
 20
166.620251
 30
0.0
 10
88.838179
 20
166.735955
 30
0.0
 10
88.994918
 20
166.859152
 30
0.0
 10
89.145518
 20
166.989584
 30
0.0
 10
89.289627
 20
167.126991
 30
0.0
 10
89.427034
 20
167.271111
 30
0.0
 10
89.557456
 20
167.421686
 30
0.0
 10
89.680681
 20
167.578453
 30
0.0
 10
89.796356
 20
167.741151
 30
0.0
 10
89.904306
 20
167.909517
 30
0.0
 10
90.004248
 20
168.083295
 30
0.0
 10
90.095899
 20
168.262220
 30
0.0
 10
90.178978
 20
168.446034
 30
0.0
 10
90.253308
 20
168.634477
 30
0.0
 10
90.318536
 20
168.827284
 30
0.0
 10
90.374452
 20
169.024197
 30
0.0
 10
90.420806
 20
169.224955
 30
0.0
 10
90.457319
 20
169.429294
 30
0.0
 10
90.483707
 20
169.636960
 30
0.0
 10
90.499723
 20
169.847685
 30
0.0
 10
90.505120
 20
170.061213
 30
0.0
 10
90.499723
 20
170.274803
 30
0.0
 10
90.483707
 20
170.485586
 30
0.0
 10
90.457319
 20
170.693301
 30
0.0
 10
90.420806
 20
170.897689
 30
0.0
 10
90.374452
 20
171.098486
 30
0.0
 10
90.318536
 20
171.295438
 30
0.0
 10
90.253308
 20
171.488276
 30
0.0
 10
90.178978
 20
171.676744
 30
0.0
 10
90.095899
 20
171.860579
 30
0.0
 10
90.004248
 20
172.039525
 30
0.0
 10
89.904306
 20
172.213317
 30
0.0
 10
89.796356
 20
172.381698
 30
0.0
 10
89.680681
 20
172.544406
 30
0.0
 10
89.557456
 20
172.701176
 30
0.0
 10
89.427034
 20
172.851752
 30
0.0
 10
89.289627
 20
172.995875
 30
0.0
 10
89.145518
 20
173.133282
 30
0.0
 10
88.994918
 20
173.263711
 30
0.0
 10
88.838179
 20
173.386904
 30
0.0
 10
88.675478
 20
173.502601
 30
0.0
 10
88.507098
 20
173.610536
 30
0.0
 10
88.333320
 20
173.710443
 30
0.0
 10
88.154391
 20
173.802094
 30
0.0
 10
87.970595
 20
173.885208
 30
0.0
 10
87.782141
 20
173.959503
 30
0.0
 10
87.589349
 20
174.024732
 30
0.0
 10
87.392428
 20
174.080647
 30
0.0
 10
87.191663
 20
174.126966
 30
0.0
 10
86.987335
 20
174.163479
 30
0.0
 10
86.779655
 20
174.189867
 30
0.0
 10
86.568941
 20
174.205883
 30
0.0
 10
86.355405
 20
174.211280
 30
0.0
 10
86.141834
 20
174.205883
 30
0.0
 10
85.931085
 20
174.189867
 30
0.0
 10
85.723388
 20
174.163479
 30
0.0
 10
85.519014
 20
174.126966
 30
0.0
 10
85.318224
 20
174.080647
 30
0.0
 10
85.121279
 20
174.024732
 30
0.0
 10
84.928441
 20
173.959503
 30
0.0
 10
84.739969
 20
173.885208
 30
0.0
 10
84.556123
 20
173.802094
 30
0.0
 10
84.377167
 20
173.710443
 30
0.0
 10
84.203361
 20
173.610536
 30
0.0
 10
84.034962
 20
173.502601
 30
0.0
 10
83.872237
 20
173.386904
 30
0.0
 10
83.715445
 20
173.263711
 30
0.0
 10
83.564845
 20
173.133282
 30
0.0
 10
83.420697
 20
172.995875
 30
0.0
 10
83.283265
 20
172.851752
 30
0.0
 10
83.152812
 20
172.701176
 30
0.0
 10
83.029591
 20
172.544406
 30
0.0
 10
82.913869
 20
172.381698
 30
0.0
 10
82.805909
 20
172.213317
 30
0.0
 10
82.705964
 20
172.039525
 30
0.0
 10
82.614298
 20
171.860579
 30
0.0
 10
82.531177
 20
171.676744
 30
0.0
 10
82.456857
 20
171.488276
 30
0.0
 10
82.391599
 20
171.295438
 30
0.0
 10
82.335665
 20
171.098486
 30
0.0
 10
82.289316
 20
170.897689
 30
0.0
 10
82.252813
 20
170.693301
 30
0.0
 10
82.226416
 20
170.485586
 30
0.0
 10
82.210386
 20
170.274803
 30
0.0
  0
LWPOLYLINE
  5
107
100
AcDbEntity
  8
Edge.Cuts
 62
1
100
AcDbPolyline
 90
128
 70
1
 10
68.444799
 20
170.061213
 30
0.0
 10
68.449093
 20
169.891405
 30
0.0
 10
68.461837
 20
169.723828
 30
0.0
 10
68.482822
 20
169.558689
 30
0.0
 10
68.511842
 20
169.396196
 30
0.0
 10
68.548690
 20
169.236554
 30
0.0
 10
68.593157
 20
169.079974
 30
0.0
 10
68.645038
 20
168.926657
 30
0.0
 10
68.704124
 20
168.776819
 30
0.0
 10
68.770207
 20
168.630660
 30
0.0
 10
68.843081
 20
168.488388
 30
0.0
 10
68.922541
 20
168.350216
 30
0.0
 10
69.008375
 20
168.216345
 30
0.0
 10
69.100375
 20
168.086981
 30
0.0
 10
69.198338
 20
167.962338
 30
0.0
 10
69.302054
 20
167.842620
 30
0.0
 10
69.411320
 20
167.728034
 30
0.0
 10
69.525923
 20
167.618786
 30
0.0
 10
69.645659
 20
167.515088
 30
0.0
 10
69.770316
 20
167.417139
 30
0.0
 10
69.899694
 20
167.325153
 30
0.0
 10
70.033580
 20
167.239332
 30
0.0
 10
70.171769
 20
167.159891
 30
0.0
 10
70.314055
 20
167.087032
 30
0.0
 10
70.460224
 20
167.020960
 30
0.0
 10
70.610077
 20
166.961884
 30
0.0
 10
70.763401
 20
166.910015
 30
0.0
 10
70.919992
 20
166.865558
 30
0.0
 10
71.079641
 20
166.828718
 30
0.0
 10
71.242140
 20
166.799705
 30
0.0
 10
71.407286
 20
166.778722
 30
0.0
 10
71.574865
 20
166.765983
 30
0.0
 10
71.744675
 20
166.761690
 30
0.0
 10
71.914516
 20
166.765983
 30
0.0
 10
72.082106
 20
166.778722
 30
0.0
 10
72.247276
 20
166.799705
 30
0.0
 10
72.409800
 20
166.828718
 30
0.0
 10
72.569467
 20
166.865558
 30
0.0
 10
72.726065
 20
166.910015
 30
0.0
 10
72.879417
 20
166.961884
 30
0.0
 10
73.029276
 20
167.020960
 30
0.0
 10
73.175467
 20
167.087032
 30
0.0
 10
73.317742
 20
167.159891
 30
0.0
 10
73.455925
 20
167.239332
 30
0.0
 10
73.589804
 20
167.325153
 30
0.0
 10
73.719167
 20
167.417139
 30
0.0
 10
73.843838
 20
167.515088
 30
0.0
 10
73.963571
 20
167.618786
 30
0.0
 10
74.078153
 20
167.728034
 30
0.0
 10
74.187408
 20
167.842620
 30
0.0
 10
74.291124
 20
167.962338
 30
0.0
 10
74.389090
 20
168.086981
 30
0.0
 10
74.481059
 20
168.216345
 30
0.0
 10
74.566890
 20
168.350216
 30
0.0
 10
74.646335
 20
168.488388
 30
0.0
 10
74.719219
 20
168.630660
 30
0.0
 10
74.785259
 20
168.776819
 30
0.0
 10
74.844349
 20
168.926657
 30
0.0
 10
74.896207
 20
169.079974
 30
0.0
 10
74.940692
 20
169.236554
 30
0.0
 10
74.977522
 20
169.396196
 30
0.0
 10
75.006520
 20
169.558689
 30
0.0
 10
75.027511
 20
169.723828
 30
0.0
 10
75.040246
 20
169.891405
 30
0.0
 10
75.044550
 20
170.061213
 30
0.0
 10
75.040246
 20
170.231052
 30
0.0
 10
75.027511
 20
170.398660
 30
0.0
 10
75.006520
 20
170.563828
 30
0.0
 10
74.977522
 20
170.726345
 30
0.0
 10
74.940692
 20
170.886012
 30
0.0
 10
74.896207
 20
171.042617
 30
0.0
 10
74.844349
 20
171.195951
 30
0.0
 10
74.785259
 20
171.345811
 30
0.0
 10
74.719219
 20
171.491987
 30
0.0
 10
74.646335
 20
171.634273
 30
0.0
 10
74.566890
 20
171.772463
 30
0.0
 10
74.481059
 20
171.906349
 30
0.0
 10
74.389090
 20
172.035723
 30
0.0
 10
74.291124
 20
172.160376
 30
0.0
 10
74.187408
 20
172.280105
 30
0.0
 10
74.078153
 20
172.394701
 30
0.0
 10
73.963571
 20
172.503956
 30
0.0
 10
73.843838
 20
172.607662
 30
0.0
 10
73.719167
 20
172.705614
 30
0.0
 10
73.589804
 20
172.797608
 30
0.0
 10
73.455925
 20
172.883431
 30
0.0
 10
73.317742
 20
172.962877
 30
0.0
 10
73.175467
 20
173.035739
 30
0.0
 10
73.029276
 20
173.101814
 30
0.0
 10
72.879417
 20
173.160890
 30
0.0
 10
72.726065
 20
173.212759
 30
0.0
 10
72.569467
 20
173.257220
 30
0.0
 10
72.409800
 20
173.294060
 30
0.0
 10
72.247276
 20
173.323072
 30
0.0
 10
72.082106
 20
173.344056
 30
0.0
 10
71.914516
 20
173.356794
 30
0.0
 10
71.744675
 20
173.361088
 30
0.0
 10
71.574865
 20
173.356794
 30
0.0
 10
71.407286
 20
173.344056
 30
0.0
 10
71.242140
 20
173.323072
 30
0.0
 10
71.079641
 20
173.294060
 30
0.0
 10
70.919992
 20
173.257220
 30
0.0
 10
70.763401
 20
173.212759
 30
0.0
 10
70.610077
 20
173.160890
 30
0.0
 10
70.460224
 20
173.101814
 30
0.0
 10
70.314055
 20
173.035739
 30
0.0
 10
70.171769
 20
172.962877
 30
0.0
 10
70.033580
 20
172.883431
 30
0.0
 10
69.899694
 20
172.797608
 30
0.0
 10
69.770316
 20
172.705614
 30
0.0
 10
69.645659
 20
172.607662
 30
0.0
 10
69.525923
 20
172.503956
 30
0.0
 10
69.411320
 20
172.394701
 30
0.0
 10
69.302054
 20
172.280105
 30
0.0
 10
69.198338
 20
172.160376
 30
0.0
 10
69.100375
 20
172.035723
 30
0.0
 10
69.008375
 20
171.906349
 30
0.0
 10
68.922541
 20
171.772463
 30
0.0
 10
68.843081
 20
171.634273
 30
0.0
 10
68.770207
 20
171.491987
 30
0.0
 10
68.704124
 20
171.345811
 30
0.0
 10
68.645038
 20
171.195951
 30
0.0
 10
68.593157
 20
171.042617
 30
0.0
 10
68.548690
 20
170.886012
 30
0.0
 10
68.511842
 20
170.726345
 30
0.0
 10
68.482822
 20
170.563828
 30
0.0
 10
68.461837
 20
170.398660
 30
0.0
 10
68.449093
 20
170.231052
 30
0.0
  0
LWPOLYLINE
  5
108
100
AcDbEntity
  8
Edge.Cuts
 62
1
100
AcDbPolyline
 90
128
 70
1
 10
68.444799
 20
148.470418
 30
0.0
 10
68.449093
 20
148.300642
 30
0.0
 10
68.461837
 20
148.133092
 30
0.0
 10
68.482822
 20
147.967976
 30
0.0
 10
68.511842
 20
147.805501
 30
0.0
 10
68.548690
 20
147.645876
 30
0.0
 10
68.593157
 20
147.489310
 30
0.0
 10
68.645038
 20
147.336004
 30
0.0
 10
68.704124
 20
147.186173
 30
0.0
 10
68.770207
 20
147.040017
 30
0.0
 10
68.843081
 20
146.897749
 30
0.0
 10
68.922541
 20
146.759577
 30
0.0
 10
69.008375
 20
146.625706
 30
0.0
 10
69.100375
 20
146.496339
 30
0.0
 10
69.198338
 20
146.371692
 30
0.0
 10
69.302054
 20
146.251967
 30
0.0
 10
69.411320
 20
146.137371
 30
0.0
 10
69.525923
 20
146.028116
 30
0.0
 10
69.645659
 20
145.924406
 30
0.0
 10
69.770316
 20
145.826447
 30
0.0
 10
69.899694
 20
145.734450
 30
0.0
 10
70.033580
 20
145.648623
 30
0.0
 10
70.171769
 20
145.569167
 30
0.0
 10
70.314055
 20
145.496297
 30
0.0
 10
70.460224
 20
145.430215
 30
0.0
 10
70.610077
 20
145.371132
 30
0.0
 10
70.763401
 20
145.319253
 30
0.0
 10
70.919992
 20
145.274785
 30
0.0
 10
71.079641
 20
145.237938
 30
0.0
 10
71.242140
 20
145.208918
 30
0.0
 10
71.407286
 20
145.187932
 30
0.0
 10
71.574865
 20
145.175189
 30
0.0
 10
71.744675
 20
145.170896
 30
0.0
 10
71.914516
 20
145.175189
 30
0.0
 10
72.082106
 20
145.187932
 30
0.0
 10
72.247276
 20
145.208918
 30
0.0
 10
72.409800
 20
145.237938
 30
0.0
 10
72.569467
 20
145.274785
 30
0.0
 10
72.726065
 20
145.319253
 30
0.0
 10
72.879417
 20
145.371132
 30
0.0
 10
73.029276
 20
145.430215
 30
0.0
 10
73.175467
 20
145.496297
 30
0.0
 10
73.317742
 20
145.569167
 30
0.0
 10
73.455925
 20
145.648623
 30
0.0
 10
73.589804
 20
145.734450
 30
0.0
 10
73.719167
 20
145.826447
 30
0.0
 10
73.843838
 20
145.924406
 30
0.0
 10
73.963571
 20
146.028116
 30
0.0
 10
74.078153
 20
146.137371
 30
0.0
 10
74.187408
 20
146.251967
 30
0.0
 10
74.291124
 20
146.371692
 30
0.0
 10
74.389090
 20
146.496339
 30
0.0
 10
74.481059
 20
146.625706
 30
0.0
 10
74.566890
 20
146.759577
 30
0.0
 10
74.646335
 20
146.897749
 30
0.0
 10
74.719219
 20
147.040017
 30
0.0
 10
74.785259
 20
147.186173
 30
0.0
 10
74.844349
 20
147.336004
 30
0.0
 10
74.896207
 20
147.489310
 30
0.0
 10
74.940692
 20
147.645876
 30
0.0
 10
74.977522
 20
147.805501
 30
0.0
 10
75.006520
 20
147.967976
 30
0.0
 10
75.027511
 20
148.133092
 30
0.0
 10
75.040246
 20
148.300642
 30
0.0
 10
75.044550
 20
148.470418
 30
0.0
 10
75.040246
 20
148.640258
 30
0.0
 10
75.027511
 20
148.807865
 30
0.0
 10
75.006520
 20
148.973034
 30
0.0
 10
74.977522
 20
149.135551
 30
0.0
 10
74.940692
 20
149.295218
 30
0.0
 10
74.896207
 20
149.451823
 30
0.0
 10
74.844349
 20
149.605157
 30
0.0
 10
74.785259
 20
149.755017
 30
0.0
 10
74.719219
 20
149.901193
 30
0.0
 10
74.646335
 20
150.043479
 30
0.0
 10
74.566890
 20
150.181669
 30
0.0
 10
74.481059
 20
150.315554
 30
0.0
 10
74.389090
 20
150.444928
 30
0.0
 10
74.291124
 20
150.569582
 30
0.0
 10
74.187408
 20
150.689311
 30
0.0
 10
74.078153
 20
150.803907
 30
0.0
 10
73.963571
 20
150.913162
 30
0.0
 10
73.843838
 20
151.016868
 30
0.0
 10
73.719167
 20
151.114820
 30
0.0
 10
73.589804
 20
151.206814
 30
0.0
 10
73.455925
 20
151.292637
 30
0.0
 10
73.317742
 20
151.372082
 30
0.0
 10
73.175467
 20
151.444945
 30
0.0
 10
73.029276
 20
151.511020
 30
0.0
 10
72.879417
 20
151.570096
 30
0.0
 10
72.726065
 20
151.621965
 30
0.0
 10
72.569467
 20
151.666425
 30
0.0
 10
72.409800
 20
151.703266
 30
0.0
 10
72.247276
 20
151.732278
 30
0.0
 10
72.082106
 20
151.753261
 30
0.0
 10
71.914516
 20
151.766000
 30
0.0
 10
71.744675
 20
151.770293
 30
0.0
 10
71.574865
 20
151.766000
 30
0.0
 10
71.407286
 20
151.753261
 30
0.0
 10
71.242140
 20
151.732278
 30
0.0
 10
71.079641
 20
151.703266
 30
0.0
 10
70.919992
 20
151.666425
 30
0.0
 10
70.763401
 20
151.621965
 30
0.0
 10
70.610077
 20
151.570096
 30
0.0
 10
70.460224
 20
151.511020
 30
0.0
 10
70.314055
 20
151.444945
 30
0.0
 10
70.171769
 20
151.372082
 30
0.0
 10
70.033580
 20
151.292637
 30
0.0
 10
69.899694
 20
151.206814
 30
0.0
 10
69.770316
 20
151.114820
 30
0.0
 10
69.645659
 20
151.016868
 30
0.0
 10
69.525923
 20
150.913162
 30
0.0
 10
69.411320
 20
150.803907
 30
0.0
 10
69.302054
 20
150.689311
 30
0.0
 10
69.198338
 20
150.569582
 30
0.0
 10
69.100375
 20
150.444928
 30
0.0
 10
69.008375
 20
150.315554
 30
0.0
 10
68.922541
 20
150.181669
 30
0.0
 10
68.843081
 20
150.043479
 30
0.0
 10
68.770207
 20
149.901193
 30
0.0
 10
68.704124
 20
149.755017
 30
0.0
 10
68.645038
 20
149.605157
 30
0.0
 10
68.593157
 20
149.451823
 30
0.0
 10
68.548690
 20
149.295218
 30
0.0
 10
68.511842
 20
149.135551
 30
0.0
 10
68.482822
 20
148.973034
 30
0.0
 10
68.461837
 20
148.807865
 30
0.0
 10
68.449093
 20
148.640258
 30
0.0
  0
LWPOLYLINE
  5
109
100
AcDbEntity
  8
Edge.Cuts
 62
1
100
AcDbPolyline
 90
128
 70
1
 10
82.605035
 20
148.470418
 30
0.0
 10
82.609914
 20
148.277436
 30
0.0
 10
82.624395
 20
148.086989
 30
0.0
 10
82.648242
 20
147.899311
 30
0.0
 10
82.681219
 20
147.714636
 30
0.0
 10
82.723091
 20
147.533207
 30
0.0
 10
82.773622
 20
147.355248
 30
0.0
 10
82.832577
 20
147.181005
 30
0.0
 10
82.899720
 20
147.010709
 30
0.0
 10
82.974816
 20
146.844597
 30
0.0
 10
83.057627
 20
146.682905
 30
0.0
 10
83.147920
 20
146.525863
 30
0.0
 10
83.245459
 20
146.373713
 30
0.0
 10
83.350008
 20
146.226690
 30
0.0
 10
83.461334
 20
146.085026
 30
0.0
 10
83.579197
 20
145.948960
 30
0.0
 10
83.703364
 20
145.818725
 30
0.0
 10
83.833595
 20
145.694562
 30
0.0
 10
83.969661
 20
145.576699
 30
0.0
 10
84.111326
 20
145.465373
 30
0.0
 10
84.258349
 20
145.360824
 30
0.0
 10
84.410498
 20
145.263285
 30
0.0
 10
84.567540
 20
145.172991
 30
0.0
 10
84.729232
 20
145.090181
 30
0.0
 10
84.895344
 20
145.015085
 30
0.0
 10
85.065640
 20
144.947941
 30
0.0
 10
85.239884
 20
144.888992
 30
0.0
 10
85.417842
 20
144.838439
 30
0.0
 10
85.599271
 20
144.796600
 30
0.0
 10
85.783947
 20
144.763615
 30
0.0
 10
85.971624
 20
144.739767
 30
0.0
 10
86.162085
 20
144.725268
 30
0.0
 10
86.355054
 20
144.720400
 30
0.0
 10
86.547987
 20
144.725268
 30
0.0
 10
86.738416
 20
144.739767
 30
0.0
 10
86.926094
 20
144.763615
 30
0.0
 10
87.110737
 20
144.796600
 30
0.0
 10
87.292135
 20
144.838439
 30
0.0
 10
87.470076
 20
144.888992
 30
0.0
 10
87.644312
 20
144.947941
 30
0.0
 10
87.814598
 20
145.015085
 30
0.0
 10
87.980720
 20
145.090181
 30
0.0
 10
88.142398
 20
145.172991
 30
0.0
 10
88.299454
 20
145.263285
 30
0.0
 10
88.451607
 20
145.360824
 30
0.0
 10
88.598644
 20
145.465373
 30
0.0
 10
88.740284
 20
145.576699
 30
0.0
 10
88.876385
 20
145.694562
 30
0.0
 10
89.006631
 20
145.818725
 30
0.0
 10
89.130773
 20
145.948960
 30
0.0
 10
89.248671
 20
146.085026
 30
0.0
 10
89.360007
 20
146.226690
 30
0.0
 10
89.464570
 20
146.373713
 30
0.0
 10
89.562113
 20
146.525863
 30
0.0
 10
89.652424
 20
146.682905
 30
0.0
 10
89.735221
 20
146.844597
 30
0.0
 10
89.810327
 20
147.010709
 30
0.0
 10
89.877496
 20
147.181005
 30
0.0
 10
89.936445
 20
147.355248
 30
0.0
 10
89.986998
 20
147.533207
 30
0.0
 10
90.028872
 20
147.714636
 30
0.0
 10
90.061857
 20
147.899311
 30
0.0
 10
90.085705
 20
148.086989
 30
0.0
 10
90.100204
 20
148.277436
 30
0.0
 10
90.105072
 20
148.470418
 30
0.0
 10
90.100204
 20
148.663400
 30
0.0
 10
90.085705
 20
148.853848
 30
0.0
 10
90.061857
 20
149.041525
 30
0.0
 10
90.028872
 20
149.226201
 30
0.0
 10
89.986998
 20
149.407630
 30
0.0
 10
89.936445
 20
149.585588
 30
0.0
 10
89.877496
 20
149.759832
 30
0.0
 10
89.810327
 20
149.930128
 30
0.0
 10
89.735221
 20
150.096240
 30
0.0
 10
89.652424
 20
150.257932
 30
0.0
 10
89.562113
 20
150.414974
 30
0.0
 10
89.464570
 20
150.567123
 30
0.0
 10
89.360007
 20
150.714146
 30
0.0
 10
89.248671
 20
150.855811
 30
0.0
 10
89.130773
 20
150.991877
 30
0.0
 10
89.006631
 20
151.122112
 30
0.0
 10
88.876385
 20
151.246275
 30
0.0
 10
88.740284
 20
151.364138
 30
0.0
 10
88.598644
 20
151.475464
 30
0.0
 10
88.451607
 20
151.580013
 30
0.0
 10
88.299454
 20
151.677552
 30
0.0
 10
88.142398
 20
151.767845
 30
0.0
 10
87.980720
 20
151.850656
 30
0.0
 10
87.814598
 20
151.925752
 30
0.0
 10
87.644312
 20
151.992896
 30
0.0
 10
87.470076
 20
152.051845
 30
0.0
 10
87.292135
 20
152.102398
 30
0.0
 10
87.110737
 20
152.144237
 30
0.0
 10
86.926094
 20
152.177222
 30
0.0
 10
86.738416
 20
152.201069
 30
0.0
 10
86.547987
 20
152.215568
 30
0.0
 10
86.355054
 20
152.220437
 30
0.0
 10
86.162085
 20
152.215568
 30
0.0
 10
85.971624
 20
152.201069
 30
0.0
 10
85.783947
 20
152.177222
 30
0.0
 10
85.599271
 20
152.144237
 30
0.0
 10
85.417842
 20
152.102398
 30
0.0
 10
85.239884
 20
152.051845
 30
0.0
 10
85.065640
 20
151.992896
 30
0.0
 10
84.895344
 20
151.925752
 30
0.0
 10
84.729232
 20
151.850656
 30
0.0
 10
84.567540
 20
151.767845
 30
0.0
 10
84.410498
 20
151.677552
 30
0.0
 10
84.258349
 20
151.580013
 30
0.0
 10
84.111326
 20
151.475464
 30
0.0
 10
83.969661
 20
151.364138
 30
0.0
 10
83.833595
 20
151.246275
 30
0.0
 10
83.703364
 20
151.122112
 30
0.0
 10
83.579197
 20
150.991877
 30
0.0
 10
83.461334
 20
150.855811
 30
0.0
 10
83.350008
 20
150.714146
 30
0.0
 10
83.245459
 20
150.567123
 30
0.0
 10
83.147920
 20
150.414974
 30
0.0
 10
83.057627
 20
150.257932
 30
0.0
 10
82.974816
 20
150.096240
 30
0.0
 10
82.899720
 20
149.930128
 30
0.0
 10
82.832577
 20
149.759832
 30
0.0
 10
82.773622
 20
149.585588
 30
0.0
 10
82.723091
 20
149.407630
 30
0.0
 10
82.681219
 20
149.226201
 30
0.0
 10
82.648242
 20
149.041525
 30
0.0
 10
82.624395
 20
148.853848
 30
0.0
 10
82.609914
 20
148.663400
 30
0.0
  0
LWPOLYLINE
  5
10a
100
AcDbEntity
  8
Edge.Cuts
 62
1
100
AcDbPolyline
 90
128
 70
1
 10
130.861332
 20
148.470418
 30
0.0
 10
130.866213
 20
148.277468
 30
0.0
 10
130.880700
 20
148.087052
 30
0.0
 10
130.904556
 20
147.899400
 30
0.0
 10
130.937545
 20
147.714753
 30
0.0
 10
130.979432
 20
147.533348
 30
0.0
 10
131.029980
 20
147.355414
 30
0.0
 10
131.088953
 20
147.181192
 30
0.0
 10
131.156116
 20
147.010913
 30
0.0
 10
131.231233
 20
146.844819
 30
0.0
 10
131.314065
 20
146.683141
 30
0.0
 10
131.404383
 20
146.526117
 30
0.0
 10
131.501943
 20
146.373982
 30
0.0
 10
131.606513
 20
146.226969
 30
0.0
 10
131.717857
 20
146.085318
 30
0.0
 10
131.835741
 20
145.949259
 30
0.0
 10
131.959925
 20
145.819035
 30
0.0
 10
132.090174
 20
145.694875
 30
0.0
 10
132.226251
 20
145.577020
 30
0.0
 10
132.367926
 20
145.465701
 30
0.0
 10
132.514956
 20
145.361159
 30
0.0
 10
132.667109
 20
145.263623
 30
0.0
 10
132.824148
 20
145.173334
 30
0.0
 10
132.985836
 20
145.090523
 30
0.0
 10
133.151941
 20
145.015431
 30
0.0
 10
133.322223
 20
144.948290
 30
0.0
 10
133.496445
 20
144.889345
 30
0.0
 10
133.674372
 20
144.838792
 30
0.0
 10
133.855773
 20
144.796952
 30
0.0
 10
134.040406
 20
144.763968
 30
0.0
 10
134.228037
 20
144.740120
 30
0.0
 10
134.418417
 20
144.725621
 30
0.0
 10
134.611351
 20
144.720753
 30
0.0
 10
134.804284
 20
144.725621
 30
0.0
 10
134.994713
 20
144.740120
 30
0.0
 10
135.182391
 20
144.763968
 30
0.0
 10
135.367034
 20
144.796952
 30
0.0
 10
135.548432
 20
144.838792
 30
0.0
 10
135.726373
 20
144.889345
 30
0.0
 10
135.900609
 20
144.948290
 30
0.0
 10
136.070894
 20
145.015431
 30
0.0
 10
136.237017
 20
145.090523
 30
0.0
 10
136.398695
 20
145.173334
 30
0.0
 10
136.555751
 20
145.263623
 30
0.0
 10
136.707904
 20
145.361159
 30
0.0
 10
136.854941
 20
145.465701
 30
0.0
 10
136.996581
 20
145.577020
 30
0.0
 10
137.132682
 20
145.694875
 30
0.0
 10
137.262928
 20
145.819035
 30
0.0
 10
137.387070
 20
145.949259
 30
0.0
 10
137.504968
 20
146.085318
 30
0.0
 10
137.616304
 20
146.226969
 30
0.0
 10
137.720867
 20
146.373982
 30
0.0
 10
137.818410
 20
146.526117
 30
0.0
 10
137.908721
 20
146.683141
 30
0.0
 10
137.991518
 20
146.844819
 30
0.0
 10
138.066624
 20
147.010913
 30
0.0
 10
138.133793
 20
147.181192
 30
0.0
 10
138.192742
 20
147.355414
 30
0.0
 10
138.243295
 20
147.533348
 30
0.0
 10
138.285169
 20
147.714753
 30
0.0
 10
138.318154
 20
147.899400
 30
0.0
 10
138.342002
 20
148.087052
 30
0.0
 10
138.356501
 20
148.277468
 30
0.0
 10
138.361369
 20
148.470418
 30
0.0
 10
138.356501
 20
148.663400
 30
0.0
 10
138.342002
 20
148.853848
 30
0.0
 10
138.318154
 20
149.041525
 30
0.0
 10
138.285169
 20
149.226201
 30
0.0
 10
138.243295
 20
149.407630
 30
0.0
 10
138.192742
 20
149.585588
 30
0.0
 10
138.133793
 20
149.759832
 30
0.0
 10
138.066624
 20
149.930128
 30
0.0
 10
137.991518
 20
150.096240
 30
0.0
 10
137.908721
 20
150.257932
 30
0.0
 10
137.818410
 20
150.414974
 30
0.0
 10
137.720867
 20
150.567123
 30
0.0
 10
137.616304
 20
150.714146
 30
0.0
 10
137.504968
 20
150.855811
 30
0.0
 10
137.387070
 20
150.991877
 30
0.0
 10
137.262928
 20
151.122112
 30
0.0
 10
137.132682
 20
151.246275
 30
0.0
 10
136.996581
 20
151.364138
 30
0.0
 10
136.854941
 20
151.475464
 30
0.0
 10
136.707904
 20
151.580013
 30
0.0
 10
136.555751
 20
151.677552
 30
0.0
 10
136.398695
 20
151.767845
 30
0.0
 10
136.237017
 20
151.850656
 30
0.0
 10
136.070894
 20
151.925752
 30
0.0
 10
135.900609
 20
151.992896
 30
0.0
 10
135.726373
 20
152.051845
 30
0.0
 10
135.548432
 20
152.102398
 30
0.0
 10
135.367034
 20
152.144237
 30
0.0
 10
135.182391
 20
152.177222
 30
0.0
 10
134.994713
 20
152.201069
 30
0.0
 10
134.804284
 20
152.215568
 30
0.0
 10
134.611351
 20
152.220437
 30
0.0
 10
134.418417
 20
152.215568
 30
0.0
 10
134.228037
 20
152.201069
 30
0.0
 10
134.040406
 20
152.177222
 30
0.0
 10
133.855773
 20
152.144237
 30
0.0
 10
133.674372
 20
152.102398
 30
0.0
 10
133.496445
 20
152.051845
 30
0.0
 10
133.322223
 20
151.992896
 30
0.0
 10
133.151941
 20
151.925752
 30
0.0
 10
132.985836
 20
151.850656
 30
0.0
 10
132.824148
 20
151.767845
 30
0.0
 10
132.667109
 20
151.677552
 30
0.0
 10
132.514956
 20
151.580013
 30
0.0
 10
132.367926
 20
151.475464
 30
0.0
 10
132.226251
 20
151.364138
 30
0.0
 10
132.090174
 20
151.246275
 30
0.0
 10
131.959925
 20
151.122112
 30
0.0
 10
131.835741
 20
150.991877
 30
0.0
 10
131.717857
 20
150.855811
 30
0.0
 10
131.606513
 20
150.714146
 30
0.0
 10
131.501943
 20
150.567123
 30
0.0
 10
131.404383
 20
150.414974
 30
0.0
 10
131.314065
 20
150.257932
 30
0.0
 10
131.231233
 20
150.096240
 30
0.0
 10
131.156116
 20
149.930128
 30
0.0
 10
131.088953
 20
149.759832
 30
0.0
 10
131.029980
 20
149.585588
 30
0.0
 10
130.979432
 20
149.407630
 30
0.0
 10
130.937545
 20
149.226201
 30
0.0
 10
130.904556
 20
149.041525
 30
0.0
 10
130.880700
 20
148.853848
 30
0.0
 10
130.866213
 20
148.663400
 30
0.0
  0
LWPOLYLINE
  5
10b
100
AcDbEntity
  8
Edge.Cuts
 62
1
100
AcDbPolyline
 90
64
 70
1
 10
132.961330
 20
135.770153
 30
0.0
 10
132.969853
 20
135.601517
 30
0.0
 10
132.994866
 20
135.437738
 30
0.0
 10
133.035539
 20
135.279649
 30
0.0
 10
133.091042
 20
135.128078
 30
0.0
 10
133.160542
 20
134.983856
 30
0.0
 10
133.243210
 20
134.847818
 30
0.0
 10
133.338212
 20
134.720790
 30
0.0
 10
133.444723
 20
134.603608
 30
0.0
 10
133.561905
 20
134.497098
 30
0.0
 10
133.688932
 20
134.402095
 30
0.0
 10
133.824970
 20
134.319429
 30
0.0
 10
133.969193
 20
134.249928
 30
0.0
 10
134.120763
 20
134.194426
 30
0.0
 10
134.278853
 20
134.153751
 30
0.0
 10
134.442630
 20
134.128739
 30
0.0
 10
134.611268
 20
134.120216
 30
0.0
 10
134.779966
 20
134.128739
 30
0.0
 10
134.943799
 20
134.153751
 30
0.0
 10
135.101938
 20
134.194426
 30
0.0
 10
135.253547
 20
134.249928
 30
0.0
 10
135.397801
 20
134.319429
 30
0.0
 10
135.533871
 20
134.402095
 30
0.0
 10
135.660920
 20
134.497098
 30
0.0
 10
135.778123
 20
134.603608
 30
0.0
 10
135.884644
 20
134.720790
 30
0.0
 10
135.979661
 20
134.847818
 30
0.0
 10
136.062334
 20
134.983856
 30
0.0
 10
136.131842
 20
135.128078
 30
0.0
 10
136.187348
 20
135.279649
 30
0.0
 10
136.228023
 20
135.437738
 30
0.0
 10
136.253035
 20
135.601517
 30
0.0
 10
136.261558
 20
135.770153
 30
0.0
 10
136.253035
 20
135.938852
 30
0.0
 10
136.228023
 20
136.102685
 30
0.0
 10
136.187348
 20
136.260824
 30
0.0
 10
136.131842
 20
136.412433
 30
0.0
 10
136.062334
 20
136.556687
 30
0.0
 10
135.979661
 20
136.692757
 30
0.0
 10
135.884644
 20
136.819806
 30
0.0
 10
135.778123
 20
136.937009
 30
0.0
 10
135.660920
 20
137.043530
 30
0.0
 10
135.533871
 20
137.138547
 30
0.0
 10
135.397801
 20
137.221220
 30
0.0
 10
135.253547
 20
137.290728
 30
0.0
 10
135.101938
 20
137.346234
 30
0.0
 10
134.943799
 20
137.386909
 30
0.0
 10
134.779966
 20
137.411921
 30
0.0
 10
134.611268
 20
137.420444
 30
0.0
 10
134.442630
 20
137.411921
 30
0.0
 10
134.278853
 20
137.386909
 30
0.0
 10
134.120763
 20
137.346234
 30
0.0
 10
133.969193
 20
137.290728
 30
0.0
 10
133.824970
 20
137.221220
 30
0.0
 10
133.688932
 20
137.138547
 30
0.0
 10
133.561905
 20
137.043530
 30
0.0
 10
133.444723
 20
136.937009
 30
0.0
 10
133.338212
 20
136.819806
 30
0.0
 10
133.243210
 20
136.692757
 30
0.0
 10
133.160542
 20
136.556687
 30
0.0
 10
133.091042
 20
136.412433
 30
0.0
 10
133.035539
 20
136.260824
 30
0.0
 10
132.994866
 20
136.102685
 30
0.0
 10
132.969853
 20
135.938852
 30
0.0
  0
LWPOLYLINE
  5
10c
100
AcDbEntity
  8
Edge.Cuts
 62
1
100
AcDbPolyline
 90
64
 70
1
 10
120.901092
 20
135.770153
 30
0.0
 10
120.909607
 20
135.601459
 30
0.0
 10
120.934599
 20
135.437637
 30
0.0
 10
120.975241
 20
135.279518
 30
0.0
 10
121.030705
 20
135.127930
 30
0.0
 10
121.100162
 20
134.983701
 30
0.0
 10
121.182786
 20
134.847663
 30
0.0
 10
121.277749
 20
134.720646
 30
0.0
 10
121.384220
 20
134.603478
 30
0.0
 10
121.501374
 20
134.496985
 30
0.0
 10
121.628384
 20
134.402003
 30
0.0
 10
121.764422
 20
134.319358
 30
0.0
 10
121.908655
 20
134.249879
 30
0.0
 10
122.060264
 20
134.194394
 30
0.0
 10
122.218411
 20
134.153737
 30
0.0
 10
122.382279
 20
134.128735
 30
0.0
 10
122.551030
 20
134.120216
 30
0.0
 10
122.719788
 20
134.128735
 30
0.0
 10
122.883663
 20
134.153737
 30
0.0
 10
123.041831
 20
134.194394
 30
0.0
 10
123.193458
 20
134.249879
 30
0.0
 10
123.337722
 20
134.319358
 30
0.0
 10
123.473788
 20
134.402003
 30
0.0
 10
123.600827
 20
134.496985
 30
0.0
 10
123.718016
 20
134.603478
 30
0.0
 10
123.824523
 20
134.720646
 30
0.0
 10
123.919515
 20
134.847663
 30
0.0
 10
124.002167
 20
134.983701
 30
0.0
 10
124.071654
 20
135.127930
 30
0.0
 10
124.127138
 20
135.279518
 30
0.0
 10
124.167799
 20
135.437637
 30
0.0
 10
124.192801
 20
135.601459
 30
0.0
 10
124.201320
 20
135.770153
 30
0.0
 10
124.192801
 20
135.938910
 30
0.0
 10
124.167799
 20
136.102786
 30
0.0
 10
124.127138
 20
136.260954
 30
0.0
 10
124.071654
 20
136.412581
 30
0.0
 10
124.002167
 20
136.556846
 30
0.0
 10
123.919515
 20
136.692912
 30
0.0
 10
123.824523
 20
136.819951
 30
0.0
 10
123.718016
 20
136.937139
 30
0.0
 10
123.600827
 20
137.043646
 30
0.0
 10
123.473788
 20
137.138639
 30
0.0
 10
123.337722
 20
137.221291
 30
0.0
 10
123.193458
 20
137.290777
 30
0.0
 10
123.041831
 20
137.346262
 30
0.0
 10
122.883663
 20
137.386923
 30
0.0
 10
122.719788
 20
137.411924
 30
0.0
 10
122.551030
 20
137.420444
 30
0.0
 10
122.382279
 20
137.411924
 30
0.0
 10
122.218411
 20
137.386923
 30
0.0
 10
122.060264
 20
137.346262
 30
0.0
 10
121.908655
 20
137.290777
 30
0.0
 10
121.764422
 20
137.221291
 30
0.0
 10
121.628384
 20
137.138639
 30
0.0
 10
121.501374
 20
137.043646
 30
0.0
 10
121.384220
 20
136.937139
 30
0.0
 10
121.277749
 20
136.819951
 30
0.0
 10
121.182786
 20
136.692912
 30
0.0
 10
121.100162
 20
136.556846
 30
0.0
 10
121.030705
 20
136.412581
 30
0.0
 10
120.975241
 20
136.260954
 30
0.0
 10
120.934599
 20
136.102786
 30
0.0
 10
120.909607
 20
135.938910
 30
0.0
  0
LWPOLYLINE
  5
10d
100
AcDbEntity
  8
Edge.Cuts
 62
1
100
AcDbPolyline
 90
64
 70
1
 10
108.830800
 20
135.770153
 30
0.0
 10
108.839319
 20
135.601401
 30
0.0
 10
108.864322
 20
135.437536
 30
0.0
 10
108.904979
 20
135.279388
 30
0.0
 10
108.960462
 20
135.127778
 30
0.0
 10
109.029942
 20
134.983546
 30
0.0
 10
109.112587
 20
134.847508
 30
0.0
 10
109.207570
 20
134.720498
 30
0.0
 10
109.314059
 20
134.603344
 30
0.0
 10
109.431230
 20
134.496872
 30
0.0
 10
109.558248
 20
134.401908
 30
0.0
 10
109.694285
 20
134.319284
 30
0.0
 10
109.838515
 20
134.249830
 30
0.0
 10
109.990103
 20
134.194366
 30
0.0
 10
110.148221
 20
134.153723
 30
0.0
 10
110.312044
 20
134.128732
 30
0.0
 10
110.480738
 20
134.120216
 30
0.0
 10
110.649485
 20
134.128732
 30
0.0
 10
110.813340
 20
134.153723
 30
0.0
 10
110.971472
 20
134.194366
 30
0.0
 10
111.123056
 20
134.249830
 30
0.0
 10
111.267265
 20
134.319284
 30
0.0
 10
111.403271
 20
134.401908
 30
0.0
 10
111.530249
 20
134.496872
 30
0.0
 10
111.647371
 20
134.603344
 30
0.0
 10
111.753811
 20
134.720498
 30
0.0
 10
111.848740
 20
134.847508
 30
0.0
 10
111.931335
 20
134.983546
 30
0.0
 10
112.000765
 20
135.127778
 30
0.0
 10
112.056208
 20
135.279388
 30
0.0
 10
112.096830
 20
135.437536
 30
0.0
 10
112.121814
 20
135.601401
 30
0.0
 10
112.130323
 20
135.770153
 30
0.0
 10
112.121814
 20
135.938910
 30
0.0
 10
112.096830
 20
136.102786
 30
0.0
 10
112.056208
 20
136.260954
 30
0.0
 10
112.000765
 20
136.412581
 30
0.0
 10
111.931335
 20
136.556846
 30
0.0
 10
111.848740
 20
136.692912
 30
0.0
 10
111.753811
 20
136.819951
 30
0.0
 10
111.647371
 20
136.937139
 30
0.0
 10
111.530249
 20
137.043646
 30
0.0
 10
111.403271
 20
137.138639
 30
0.0
 10
111.267265
 20
137.221291
 30
0.0
 10
111.123056
 20
137.290777
 30
0.0
 10
110.971472
 20
137.346262
 30
0.0
 10
110.813340
 20
137.386923
 30
0.0
 10
110.649485
 20
137.411924
 30
0.0
 10
110.480738
 20
137.420444
 30
0.0
 10
110.312044
 20
137.411924
 30
0.0
 10
110.148221
 20
137.386923
 30
0.0
 10
109.990103
 20
137.346262
 30
0.0
 10
109.838515
 20
137.290777
 30
0.0
 10
109.694285
 20
137.221291
 30
0.0
 10
109.558248
 20
137.138639
 30
0.0
 10
109.431230
 20
137.043646
 30
0.0
 10
109.314059
 20
136.937139
 30
0.0
 10
109.207570
 20
136.819951
 30
0.0
 10
109.112587
 20
136.692912
 30
0.0
 10
109.029942
 20
136.556846
 30
0.0
 10
108.960462
 20
136.412581
 30
0.0
 10
108.904979
 20
136.260954
 30
0.0
 10
108.864322
 20
136.102786
 30
0.0
 10
108.839319
 20
135.938910
 30
0.0
  0
LWPOLYLINE
  5
10e
100
AcDbEntity
  8
Edge.Cuts
 62
1
100
AcDbPolyline
 90
128
 70
1
 10
68.444799
 20
126.880153
 30
0.0
 10
68.449093
 20
126.710313
 30
0.0
 10
68.461837
 20
126.542706
 30
0.0
 10
68.482822
 20
126.377538
 30
0.0
 10
68.511842
 20
126.215021
 30
0.0
 10
68.548690
 20
126.055354
 30
0.0
 10
68.593157
 20
125.898749
 30
0.0
 10
68.645038
 20
125.745415
 30
0.0
 10
68.704124
 20
125.595555
 30
0.0
 10
68.770207
 20
125.449378
 30
0.0
 10
68.843081
 20
125.307093
 30
0.0
 10
68.922541
 20
125.168903
 30
0.0
 10
69.008375
 20
125.035017
 30
0.0
 10
69.100375
 20
124.905643
 30
0.0
 10
69.198338
 20
124.780990
 30
0.0
 10
69.302054
 20
124.661261
 30
0.0
 10
69.411320
 20
124.546665
 30
0.0
 10
69.525923
 20
124.437410
 30
0.0
 10
69.645659
 20
124.333704
 30
0.0
 10
69.770316
 20
124.235752
 30
0.0
 10
69.899694
 20
124.143758
 30
0.0
 10
70.033580
 20
124.057935
 30
0.0
 10
70.171769
 20
123.978489
 30
0.0
 10
70.314055
 20
123.905627
 30
0.0
 10
70.460224
 20
123.839551
 30
0.0
 10
70.610077
 20
123.780475
 30
0.0
 10
70.763401
 20
123.728607
 30
0.0
 10
70.919992
 20
123.684146
 30
0.0
 10
71.079641
 20
123.647306
 30
0.0
 10
71.242140
 20
123.618293
 30
0.0
 10
71.407286
 20
123.597310
 30
0.0
 10
71.574865
 20
123.584571
 30
0.0
 10
71.744675
 20
123.580278
 30
0.0
 10
71.914516
 20
123.584571
 30
0.0
 10
72.082106
 20
123.597310
 30
0.0
 10
72.247276
 20
123.618293
 30
0.0
 10
72.409800
 20
123.647306
 30
0.0
 10
72.569467
 20
123.684146
 30
0.0
 10
72.726065
 20
123.728607
 30
0.0
 10
72.879417
 20
123.780475
 30
0.0
 10
73.029276
 20
123.839551
 30
0.0
 10
73.175467
 20
123.905627
 30
0.0
 10
73.317742
 20
123.978489
 30
0.0
 10
73.455925
 20
124.057935
 30
0.0
 10
73.589804
 20
124.143758
 30
0.0
 10
73.719167
 20
124.235752
 30
0.0
 10
73.843838
 20
124.333704
 30
0.0
 10
73.963571
 20
124.437410
 30
0.0
 10
74.078153
 20
124.546668
 30
0.0
 10
74.187408
 20
124.661261
 30
0.0
 10
74.291124
 20
124.780990
 30
0.0
 10
74.389090
 20
124.905643
 30
0.0
 10
74.481059
 20
125.035017
 30
0.0
 10
74.566890
 20
125.168903
 30
0.0
 10
74.646335
 20
125.307093
 30
0.0
 10
74.719219
 20
125.449378
 30
0.0
 10
74.785259
 20
125.595555
 30
0.0
 10
74.844349
 20
125.745415
 30
0.0
 10
74.896207
 20
125.898749
 30
0.0
 10
74.940692
 20
126.055354
 30
0.0
 10
74.977522
 20
126.215021
 30
0.0
 10
75.006520
 20
126.377538
 30
0.0
 10
75.027511
 20
126.542706
 30
0.0
 10
75.040246
 20
126.710313
 30
0.0
 10
75.044550
 20
126.880153
 30
0.0
 10
75.040246
 20
127.049993
 30
0.0
 10
75.027511
 20
127.217600
 30
0.0
 10
75.006520
 20
127.382769
 30
0.0
 10
74.977522
 20
127.545286
 30
0.0
 10
74.940692
 20
127.704953
 30
0.0
 10
74.896207
 20
127.861557
 30
0.0
 10
74.844349
 20
128.014892
 30
0.0
 10
74.785259
 20
128.164752
 30
0.0
 10
74.719219
 20
128.310928
 30
0.0
 10
74.646335
 20
128.453214
 30
0.0
 10
74.566890
 20
128.591403
 30
0.0
 10
74.481059
 20
128.725289
 30
0.0
 10
74.389090
 20
128.854663
 30
0.0
 10
74.291124
 20
128.979317
 30
0.0
 10
74.187408
 20
129.099046
 30
0.0
 10
74.078153
 20
129.213642
 30
0.0
 10
73.963571
 20
129.322897
 30
0.0
 10
73.843838
 20
129.426603
 30
0.0
 10
73.719167
 20
129.524555
 30
0.0
 10
73.589804
 20
129.616548
 30
0.0
 10
73.455925
 20
129.702372
 30
0.0
 10
73.317742
 20
129.781817
 30
0.0
 10
73.175467
 20
129.854680
 30
0.0
 10
73.029276
 20
129.920755
 30
0.0
 10
72.879417
 20
129.979831
 30
0.0
 10
72.726065
 20
130.031700
 30
0.0
 10
72.569467
 20
130.076160
 30
0.0
 10
72.409800
 20
130.113001
 30
0.0
 10
72.247276
 20
130.142013
 30
0.0
 10
72.082106
 20
130.162996
 30
0.0
 10
71.914516
 20
130.175735
 30
0.0
 10
71.744675
 20
130.180028
 30
0.0
 10
71.574865
 20
130.175735
 30
0.0
 10
71.407286
 20
130.162996
 30
0.0
 10
71.242140
 20
130.142013
 30
0.0
 10
71.079641
 20
130.113001
 30
0.0
 10
70.919992
 20
130.076160
 30
0.0
 10
70.763401
 20
130.031700
 30
0.0
 10
70.610077
 20
129.979831
 30
0.0
 10
70.460224
 20
129.920755
 30
0.0
 10
70.314055
 20
129.854680
 30
0.0
 10
70.171769
 20
129.781817
 30
0.0
 10
70.033580
 20
129.702372
 30
0.0
 10
69.899694
 20
129.616548
 30
0.0
 10
69.770316
 20
129.524555
 30
0.0
 10
69.645659
 20
129.426603
 30
0.0
 10
69.525923
 20
129.322897
 30
0.0
 10
69.411320
 20
129.213642
 30
0.0
 10
69.302054
 20
129.099046
 30
0.0
 10
69.198338
 20
128.979317
 30
0.0
 10
69.100375
 20
128.854663
 30
0.0
 10
69.008375
 20
128.725289
 30
0.0
 10
68.922541
 20
128.591403
 30
0.0
 10
68.843081
 20
128.453214
 30
0.0
 10
68.770207
 20
128.310928
 30
0.0
 10
68.704124
 20
128.164752
 30
0.0
 10
68.645038
 20
128.014892
 30
0.0
 10
68.593157
 20
127.861557
 30
0.0
 10
68.548690
 20
127.704953
 30
0.0
 10
68.511842
 20
127.545286
 30
0.0
 10
68.482822
 20
127.382769
 30
0.0
 10
68.461837
 20
127.217600
 30
0.0
 10
68.449093
 20
127.049993
 30
0.0
  0
LWPOLYLINE
  5
10f
100
AcDbEntity
  8
Edge.Cuts
 62
1
100
AcDbPolyline
 90
128
 70
1
 10
82.605035
 20
126.880153
 30
0.0
 10
82.609914
 20
126.687202
 30
0.0
 10
82.624395
 20
126.496780
 30
0.0
 10
82.648242
 20
126.309127
 30
0.0
 10
82.681219
 20
126.124473
 30
0.0
 10
82.723091
 20
125.943058
 30
0.0
 10
82.773622
 20
125.765117
 30
0.0
 10
82.832577
 20
125.590881
 30
0.0
 10
82.899720
 20
125.420595
 30
0.0
 10
82.974816
 20
125.254487
 30
0.0
 10
83.057627
 20
125.092795
 30
0.0
 10
83.147920
 20
124.935756
 30
0.0
 10
83.245459
 20
124.783604
 30
0.0
 10
83.350008
 20
124.636577
 30
0.0
 10
83.461334
 20
124.494909
 30
0.0
 10
83.579197
 20
124.358836
 30
0.0
 10
83.703364
 20
124.228594
 30
0.0
 10
83.833595
 20
124.104420
 30
0.0
 10
83.969661
 20
123.986547
 30
0.0
 10
84.111326
 20
123.875214
 30
0.0
 10
84.258349
 20
123.770651
 30
0.0
 10
84.410498
 20
123.673101
 30
0.0
 10
84.567540
 20
123.582797
 30
0.0
 10
84.729232
 20
123.499976
 30
0.0
 10
84.895344
 20
123.424869
 30
0.0
 10
85.065640
 20
123.357715
 30
0.0
 10
85.239884
 20
123.298762
 30
0.0
 10
85.417842
 20
123.248209
 30
0.0
 10
85.599271
 20
123.206335
 30
0.0
 10
85.783947
 20
123.173350
 30
0.0
 10
85.971624
 20
123.149502
 30
0.0
 10
86.162085
 20
123.135003
 30
0.0
 10
86.355054
 20
123.130135
 30
0.0
 10
86.547987
 20
123.135003
 30
0.0
 10
86.738416
 20
123.149502
 30
0.0
 10
86.926094
 20
123.173350
 30
0.0
 10
87.110737
 20
123.206335
 30
0.0
 10
87.292135
 20
123.248209
 30
0.0
 10
87.470076
 20
123.298762
 30
0.0
 10
87.644312
 20
123.357715
 30
0.0
 10
87.814598
 20
123.424869
 30
0.0
 10
87.980720
 20
123.499976
 30
0.0
 10
88.142398
 20
123.582797
 30
0.0
 10
88.299454
 20
123.673101
 30
0.0
 10
88.451607
 20
123.770651
 30
0.0
 10
88.598644
 20
123.875214
 30
0.0
 10
88.740284
 20
123.986547
 30
0.0
 10
88.876385
 20
124.104420
 30
0.0
 10
89.006631
 20
124.228594
 30
0.0
 10
89.130773
 20
124.358836
 30
0.0
 10
89.248671
 20
124.494909
 30
0.0
 10
89.360007
 20
124.636577
 30
0.0
 10
89.464570
 20
124.783604
 30
0.0
 10
89.562113
 20
124.935756
 30
0.0
 10
89.652424
 20
125.092795
 30
0.0
 10
89.735221
 20
125.254487
 30
0.0
 10
89.810327
 20
125.420595
 30
0.0
 10
89.877496
 20
125.590881
 30
0.0
 10
89.936445
 20
125.765117
 30
0.0
 10
89.986998
 20
125.943058
 30
0.0
 10
90.028872
 20
126.124473
 30
0.0
 10
90.061857
 20
126.309127
 30
0.0
 10
90.085705
 20
126.496780
 30
0.0
 10
90.100204
 20
126.687202
 30
0.0
 10
90.105072
 20
126.880153
 30
0.0
 10
90.100204
 20
127.073104
 30
0.0
 10
90.085705
 20
127.263527
 30
0.0
 10
90.061857
 20
127.451179
 30
0.0
 10
90.028872
 20
127.635833
 30
0.0
 10
89.986998
 20
127.817249
 30
0.0
 10
89.936445
 20
127.995189
 30
0.0
 10
89.877496
 20
128.169426
 30
0.0
 10
89.810327
 20
128.339711
 30
0.0
 10
89.735221
 20
128.505820
 30
0.0
 10
89.652424
 20
128.667512
 30
0.0
 10
89.562113
 20
128.824550
 30
0.0
 10
89.464570
 20
128.976703
 30
0.0
 10
89.360007
 20
129.123730
 30
0.0
 10
89.248671
 20
129.265398
 30
0.0
 10
89.130773
 20
129.401471
 30
0.0
 10
89.006631
 20
129.531713
 30
0.0
 10
88.876385
 20
129.655887
 30
0.0
 10
88.740284
 20
129.773760
 30
0.0
 10
88.598644
 20
129.885093
 30
0.0
 10
88.451607
 20
129.989656
 30
0.0
 10
88.299454
 20
130.087206
 30
0.0
 10
88.142398
 20
130.177510
 30
0.0
 10
87.980720
 20
130.260331
 30
0.0
 10
87.814598
 20
130.335437
 30
0.0
 10
87.644312
 20
130.402592
 30
0.0
 10
87.470076
 20
130.461544
 30
0.0
 10
87.292135
 20
130.512097
 30
0.0
 10
87.110737
 20
130.553972
 30
0.0
 10
86.926094
 20
130.586957
 30
0.0
 10
86.738416
 20
130.610804
 30
0.0
 10
86.547987
 20
130.625303
 30
0.0
 10
86.355054
 20
130.630172
 30
0.0
 10
86.162085
 20
130.625303
 30
0.0
 10
85.971624
 20
130.610804
 30
0.0
 10
85.783947
 20
130.586957
 30
0.0
 10
85.599271
 20
130.553972
 30
0.0
 10
85.417842
 20
130.512097
 30
0.0
 10
85.239884
 20
130.461544
 30
0.0
 10
85.065640
 20
130.402592
 30
0.0
 10
84.895344
 20
130.335437
 30
0.0
 10
84.729232
 20
130.260331
 30
0.0
 10
84.567540
 20
130.177510
 30
0.0
 10
84.410498
 20
130.087206
 30
0.0
 10
84.258349
 20
129.989656
 30
0.0
 10
84.111326
 20
129.885093
 30
0.0
 10
83.969661
 20
129.773760
 30
0.0
 10
83.833595
 20
129.655887
 30
0.0
 10
83.703364
 20
129.531713
 30
0.0
 10
83.579197
 20
129.401471
 30
0.0
 10
83.461334
 20
129.265398
 30
0.0
 10
83.350008
 20
129.123730
 30
0.0
 10
83.245459
 20
128.976703
 30
0.0
 10
83.147920
 20
128.824550
 30
0.0
 10
83.057627
 20
128.667512
 30
0.0
 10
82.974816
 20
128.505820
 30
0.0
 10
82.899720
 20
128.339711
 30
0.0
 10
82.832577
 20
128.169426
 30
0.0
 10
82.773622
 20
127.995189
 30
0.0
 10
82.723091
 20
127.817249
 30
0.0
 10
82.681219
 20
127.635833
 30
0.0
 10
82.648242
 20
127.451179
 30
0.0
 10
82.624395
 20
127.263527
 30
0.0
 10
82.609914
 20
127.073104
 30
0.0
  0
LWPOLYLINE
  5
110
100
AcDbEntity
  8
Edge.Cuts
 62
1
100
AcDbPolyline
 90
128
 70
1
 10
107.181123
 20
125.609889
 30
0.0
 10
107.185416
 20
125.440080
 30
0.0
 10
107.198157
 20
125.272500
 30
0.0
 10
107.219137
 20
125.107354
 30
0.0
 10
107.248152
 20
124.944855
 30
0.0
 10
107.284992
 20
124.785206
 30
0.0
 10
107.329451
 20
124.628615
 30
0.0
 10
107.381322
 20
124.475291
 30
0.0
 10
107.440398
 20
124.325439
 30
0.0
 10
107.506471
 20
124.179269
 30
0.0
 10
107.579334
 20
124.036983
 30
0.0
 10
107.658780
 20
123.898794
 30
0.0
 10
107.744603
 20
123.764908
 30
0.0
 10
107.836597
 20
123.635530
 30
0.0
 10
107.934549
 20
123.510873
 30
0.0
 10
108.038255
 20
123.391137
 30
0.0
 10
108.147510
 20
123.276534
 30
0.0
 10
108.262106
 20
123.167268
 30
0.0
 10
108.381835
 20
123.063552
 30
0.0
 10
108.506488
 20
122.965589
 30
0.0
 10
108.635862
 20
122.873589
 30
0.0
 10
108.769748
 20
122.787755
 30
0.0
 10
108.907938
 20
122.708295
 30
0.0
 10
109.050223
 20
122.635422
 30
0.0
 10
109.196400
 20
122.569336
 30
0.0
 10
109.346260
 20
122.510253
 30
0.0
 10
109.499594
 20
122.458370
 30
0.0
 10
109.656199
 20
122.413903
 30
0.0
 10
109.815866
 20
122.377055
 30
0.0
 10
109.978383
 20
122.348036
 30
0.0
 10
110.143550
 20
122.327049
 30
0.0
 10
110.311157
 20
122.314307
 30
0.0
 10
110.480998
 20
122.310013
 30
0.0
 10
110.650836
 20
122.314307
 30
0.0
 10
110.818430
 20
122.327049
 30
0.0
 10
110.983600
 20
122.348036
 30
0.0
 10
111.146124
 20
122.377055
 30
0.0
 10
111.305791
 20
122.413903
 30
0.0
 10
111.462353
 20
122.458370
 30
0.0
 10
111.615705
 20
122.510253
 30
0.0
 10
111.765530
 20
122.569336
 30
0.0
 10
111.911720
 20
122.635422
 30
0.0
 10
112.053995
 20
122.708295
 30
0.0
 10
112.192143
 20
122.787755
 30
0.0
 10
112.326022
 20
122.873589
 30
0.0
 10
112.455385
 20
122.965589
 30
0.0
 10
112.580021
 20
123.063552
 30
0.0
 10
112.699718
 20
123.167268
 30
0.0
 10
112.814300
 20
123.276534
 30
0.0
 10
112.923555
 20
123.391137
 30
0.0
 10
113.027236
 20
123.510873
 30
0.0
 10
113.125167
 20
123.635530
 30
0.0
 10
113.217136
 20
123.764908
 30
0.0
 10
113.302967
 20
123.898794
 30
0.0
 10
113.382377
 20
124.036983
 30
0.0
 10
113.455225
 20
124.179269
 30
0.0
 10
113.521300
 20
124.325439
 30
0.0
 10
113.580355
 20
124.475291
 30
0.0
 10
113.632213
 20
124.628615
 30
0.0
 10
113.676663
 20
124.785206
 30
0.0
 10
113.713493
 20
124.944855
 30
0.0
 10
113.742527
 20
125.107354
 30
0.0
 10
113.763482
 20
125.272500
 30
0.0
 10
113.776217
 20
125.440080
 30
0.0
 10
113.780521
 20
125.609889
 30
0.0
 10
113.776217
 20
125.779729
 30
0.0
 10
113.763482
 20
125.947336
 30
0.0
 10
113.742527
 20
126.112504
 30
0.0
 10
113.713493
 20
126.275021
 30
0.0
 10
113.676663
 20
126.434688
 30
0.0
 10
113.632213
 20
126.591293
 30
0.0
 10
113.580355
 20
126.744627
 30
0.0
 10
113.521300
 20
126.894487
 30
0.0
 10
113.455225
 20
127.040664
 30
0.0
 10
113.382377
 20
127.182949
 30
0.0
 10
113.302967
 20
127.321139
 30
0.0
 10
113.217136
 20
127.455025
 30
0.0
 10
113.125167
 20
127.584399
 30
0.0
 10
113.027236
 20
127.709052
 30
0.0
 10
112.923555
 20
127.828781
 30
0.0
 10
112.814300
 20
127.943377
 30
0.0
 10
112.699718
 20
128.052632
 30
0.0
 10
112.580021
 20
128.156338
 30
0.0
 10
112.455385
 20
128.254290
 30
0.0
 10
112.326022
 20
128.346284
 30
0.0
 10
112.192143
 20
128.432107
 30
0.0
 10
112.053995
 20
128.511553
 30
0.0
 10
111.911720
 20
128.584415
 30
0.0
 10
111.765530
 20
128.650490
 30
0.0
 10
111.615705
 20
128.709566
 30
0.0
 10
111.462353
 20
128.761435
 30
0.0
 10
111.305791
 20
128.805896
 30
0.0
 10
111.146124
 20
128.842736
 30
0.0
 10
110.983600
 20
128.871749
 30
0.0
 10
110.818430
 20
128.892732
 30
0.0
 10
110.650836
 20
128.905471
 30
0.0
 10
110.480998
 20
128.909764
 30
0.0
 10
110.311157
 20
128.905471
 30
0.0
 10
110.143550
 20
128.892732
 30
0.0
 10
109.978383
 20
128.871749
 30
0.0
 10
109.815866
 20
128.842736
 30
0.0
 10
109.656199
 20
128.805896
 30
0.0
 10
109.499594
 20
128.761435
 30
0.0
 10
109.346260
 20
128.709566
 30
0.0
 10
109.196400
 20
128.650490
 30
0.0
 10
109.050223
 20
128.584415
 30
0.0
 10
108.907938
 20
128.511553
 30
0.0
 10
108.769748
 20
128.432107
 30
0.0
 10
108.635862
 20
128.346284
 30
0.0
 10
108.506488
 20
128.254290
 30
0.0
 10
108.381835
 20
128.156338
 30
0.0
 10
108.262106
 20
128.052632
 30
0.0
 10
108.147513
 20
127.943377
 30
0.0
 10
108.038255
 20
127.828781
 30
0.0
 10
107.934549
 20
127.709052
 30
0.0
 10
107.836597
 20
127.584399
 30
0.0
 10
107.744603
 20
127.455025
 30
0.0
 10
107.658780
 20
127.321139
 30
0.0
 10
107.579334
 20
127.182949
 30
0.0
 10
107.506471
 20
127.040664
 30
0.0
 10
107.440398
 20
126.894487
 30
0.0
 10
107.381322
 20
126.744627
 30
0.0
 10
107.329451
 20
126.591293
 30
0.0
 10
107.284992
 20
126.434688
 30
0.0
 10
107.248152
 20
126.275021
 30
0.0
 10
107.219137
 20
126.112504
 30
0.0
 10
107.198157
 20
125.947336
 30
0.0
 10
107.185416
 20
125.779729
 30
0.0
  0
LWPOLYLINE
  5
111
100
AcDbEntity
  8
Edge.Cuts
 62
1
100
AcDbPolyline
 90
128
 70
1
 10
119.251415
 20
125.609889
 30
0.0
 10
119.255707
 20
125.440080
 30
0.0
 10
119.268445
 20
125.272500
 30
0.0
 10
119.289421
 20
125.107354
 30
0.0
 10
119.318429
 20
124.944855
 30
0.0
 10
119.355262
 20
124.785206
 30
0.0
 10
119.399713
 20
124.628615
 30
0.0
 10
119.451574
 20
124.475291
 30
0.0
 10
119.510640
 20
124.325439
 30
0.0
 10
119.576703
 20
124.179269
 30
0.0
 10
119.649556
 20
124.036983
 30
0.0
 10
119.728990
 20
123.898794
 30
0.0
 10
119.814803
 20
123.764908
 30
0.0
 10
119.906783
 20
123.635530
 30
0.0
 10
120.004728
 20
123.510873
 30
0.0
 10
120.108423
 20
123.391137
 30
0.0
 10
120.217671
 20
123.276534
 30
0.0
 10
120.332260
 20
123.167268
 30
0.0
 10
120.451982
 20
123.063552
 30
0.0
 10
120.576629
 20
122.965589
 30
0.0
 10
120.705999
 20
122.873589
 30
0.0
 10
120.839881
 20
122.787755
 30
0.0
 10
120.978071
 20
122.708295
 30
0.0
 10
121.120360
 20
122.635422
 30
0.0
 10
121.266544
 20
122.569336
 30
0.0
 10
121.416411
 20
122.510253
 30
0.0
 10
121.569756
 20
122.458370
 30
0.0
 10
121.726374
 20
122.413903
 30
0.0
 10
121.886055
 20
122.377055
 30
0.0
 10
122.048594
 20
122.348036
 30
0.0
 10
122.213785
 20
122.327049
 30
0.0
 10
122.381418
 20
122.314307
 30
0.0
 10
122.551290
 20
122.310013
 30
0.0
 10
122.721099
 20
122.314307
 30
0.0
 10
122.888686
 20
122.327049
 30
0.0
 10
123.053821
 20
122.348036
 30
0.0
 10
123.216310
 20
122.377055
 30
0.0
 10
123.375977
 20
122.413903
 30
0.0
 10
123.532575
 20
122.458370
 30
0.0
 10
123.685891
 20
122.510253
 30
0.0
 10
123.835751
 20
122.569336
 30
0.0
 10
123.981907
 20
122.635422
 30
0.0
 10
124.124181
 20
122.708295
 30
0.0
 10
124.262399
 20
122.787755
 30
0.0
 10
124.396278
 20
122.873589
 30
0.0
 10
124.525642
 20
122.965589
 30
0.0
 10
124.650313
 20
123.063552
 30
0.0
 10
124.770045
 20
123.167268
 30
0.0
 10
124.884627
 20
123.276534
 30
0.0
 10
124.993918
 20
123.391137
 30
0.0
 10
125.097634
 20
123.510873
 30
0.0
 10
125.195600
 20
123.635530
 30
0.0
 10
125.287604
 20
123.764908
 30
0.0
 10
125.373435
 20
123.898794
 30
0.0
 10
125.452880
 20
124.036983
 30
0.0
 10
125.525764
 20
124.179269
 30
0.0
 10
125.591839
 20
124.325439
 30
0.0
 10
125.650929
 20
124.475291
 30
0.0
 10
125.702823
 20
124.628615
 30
0.0
 10
125.747273
 20
124.785206
 30
0.0
 10
125.784138
 20
124.944855
 30
0.0
 10
125.813136
 20
125.107354
 30
0.0
 10
125.834126
 20
125.272500
 30
0.0
 10
125.846862
 20
125.440080
 30
0.0
 10
125.851165
 20
125.609889
 30
0.0
 10
125.846862
 20
125.779729
 30
0.0
 10
125.834126
 20
125.947336
 30
0.0
 10
125.813136
 20
126.112504
 30
0.0
 10
125.784138
 20
126.275021
 30
0.0
 10
125.747273
 20
126.434688
 30
0.0
 10
125.702823
 20
126.591293
 30
0.0
 10
125.650929
 20
126.744627
 30
0.0
 10
125.591839
 20
126.894487
 30
0.0
 10
125.525764
 20
127.040664
 30
0.0
 10
125.452880
 20
127.182949
 30
0.0
 10
125.373435
 20
127.321139
 30
0.0
 10
125.287604
 20
127.455025
 30
0.0
 10
125.195600
 20
127.584399
 30
0.0
 10
125.097634
 20
127.709052
 30
0.0
 10
124.993918
 20
127.828781
 30
0.0
 10
124.884627
 20
127.943377
 30
0.0
 10
124.770045
 20
128.052632
 30
0.0
 10
124.650313
 20
128.156338
 30
0.0
 10
124.525642
 20
128.254290
 30
0.0
 10
124.396278
 20
128.346284
 30
0.0
 10
124.262399
 20
128.432107
 30
0.0
 10
124.124181
 20
128.511553
 30
0.0
 10
123.981907
 20
128.584415
 30
0.0
 10
123.835751
 20
128.650490
 30
0.0
 10
123.685891
 20
128.709566
 30
0.0
 10
123.532575
 20
128.761435
 30
0.0
 10
123.375977
 20
128.805896
 30
0.0
 10
123.216310
 20
128.842736
 30
0.0
 10
123.053821
 20
128.871749
 30
0.0
 10
122.888686
 20
128.892732
 30
0.0
 10
122.721099
 20
128.905471
 30
0.0
 10
122.551290
 20
128.909764
 30
0.0
 10
122.381418
 20
128.905471
 30
0.0
 10
122.213785
 20
128.892732
 30
0.0
 10
122.048594
 20
128.871749
 30
0.0
 10
121.886055
 20
128.842736
 30
0.0
 10
121.726374
 20
128.805896
 30
0.0
 10
121.569756
 20
128.761435
 30
0.0
 10
121.416411
 20
128.709566
 30
0.0
 10
121.266544
 20
128.650490
 30
0.0
 10
121.120360
 20
128.584415
 30
0.0
 10
120.978071
 20
128.511553
 30
0.0
 10
120.839881
 20
128.432107
 30
0.0
 10
120.705999
 20
128.346284
 30
0.0
 10
120.576629
 20
128.254290
 30
0.0
 10
120.451982
 20
128.156338
 30
0.0
 10
120.332260
 20
128.052632
 30
0.0
 10
120.217671
 20
127.943377
 30
0.0
 10
120.108423
 20
127.828781
 30
0.0
 10
120.004728
 20
127.709052
 30
0.0
 10
119.906783
 20
127.584399
 30
0.0
 10
119.814803
 20
127.455025
 30
0.0
 10
119.728990
 20
127.321139
 30
0.0
 10
119.649556
 20
127.182949
 30
0.0
 10
119.576703
 20
127.040664
 30
0.0
 10
119.510640
 20
126.894487
 30
0.0
 10
119.451574
 20
126.744627
 30
0.0
 10
119.399713
 20
126.591293
 30
0.0
 10
119.355262
 20
126.434688
 30
0.0
 10
119.318429
 20
126.275021
 30
0.0
 10
119.289421
 20
126.112504
 30
0.0
 10
119.268445
 20
125.947336
 30
0.0
 10
119.255707
 20
125.779729
 30
0.0
  0
LWPOLYLINE
  5
112
100
AcDbEntity
  8
Edge.Cuts
 62
1
100
AcDbPolyline
 90
128
 70
1
 10
131.311653
 20
125.609889
 30
0.0
 10
131.315946
 20
125.440080
 30
0.0
 10
131.328686
 20
125.272500
 30
0.0
 10
131.349667
 20
125.107354
 30
0.0
 10
131.378681
 20
124.944855
 30
0.0
 10
131.415521
 20
124.785206
 30
0.0
 10
131.459981
 20
124.628615
 30
0.0
 10
131.511852
 20
124.475291
 30
0.0
 10
131.570927
 20
124.325439
 30
0.0
 10
131.637001
 20
124.179269
 30
0.0
 10
131.709864
 20
124.036983
 30
0.0
 10
131.789309
 20
123.898794
 30
0.0
 10
131.875133
 20
123.764908
 30
0.0
 10
131.967127
 20
123.635530
 30
0.0
 10
132.065079
 20
123.510873
 30
0.0
 10
132.168784
 20
123.391137
 30
0.0
 10
132.278039
 20
123.276534
 30
0.0
 10
132.392635
 20
123.167268
 30
0.0
 10
132.512364
 20
123.063552
 30
0.0
 10
132.637018
 20
122.965589
 30
0.0
 10
132.766392
 20
122.873589
 30
0.0
 10
132.900278
 20
122.787755
 30
0.0
 10
133.038468
 20
122.708295
 30
0.0
 10
133.180753
 20
122.635422
 30
0.0
 10
133.326930
 20
122.569336
 30
0.0
 10
133.476789
 20
122.510253
 30
0.0
 10
133.630124
 20
122.458370
 30
0.0
 10
133.786729
 20
122.413903
 30
0.0
 10
133.946395
 20
122.377055
 30
0.0
 10
134.108913
 20
122.348036
 30
0.0
 10
134.274079
 20
122.327049
 30
0.0
 10
134.441687
 20
122.314307
 30
0.0
 10
134.611528
 20
122.310013
 30
0.0
 10
134.781369
 20
122.314307
 30
0.0
 10
134.948959
 20
122.327049
 30
0.0
 10
135.114129
 20
122.348036
 30
0.0
 10
135.276654
 20
122.377055
 30
0.0
 10
135.436321
 20
122.413903
 30
0.0
 10
135.592918
 20
122.458370
 30
0.0
 10
135.746270
 20
122.510253
 30
0.0
 10
135.896130
 20
122.569336
 30
0.0
 10
136.042321
 20
122.635422
 30
0.0
 10
136.184596
 20
122.708295
 30
0.0
 10
136.322778
 20
122.787755
 30
0.0
 10
136.456657
 20
122.873589
 30
0.0
 10
136.586020
 20
122.965589
 30
0.0
 10
136.710692
 20
123.063552
 30
0.0
 10
136.830424
 20
123.167268
 30
0.0
 10
136.945006
 20
123.276534
 30
0.0
 10
137.054261
 20
123.391137
 30
0.0
 10
137.157978
 20
123.510873
 30
0.0
 10
137.255944
 20
123.635530
 30
0.0
 10
137.347913
 20
123.764908
 30
0.0
 10
137.433743
 20
123.898794
 30
0.0
 10
137.513189
 20
124.036983
 30
0.0
 10
137.586072
 20
124.179269
 30
0.0
 10
137.652112
 20
124.325439
 30
0.0
 10
137.711202
 20
124.475291
 30
0.0
 10
137.763061
 20
124.628615
 30
0.0
 10
137.807546
 20
124.785206
 30
0.0
 10
137.844376
 20
124.944855
 30
0.0
 10
137.873374
 20
125.107354
 30
0.0
 10
137.894364
 20
125.272500
 30
0.0
 10
137.907099
 20
125.440080
 30
0.0
 10
137.911403
 20
125.609889
 30
0.0
 10
137.907099
 20
125.779729
 30
0.0
 10
137.894364
 20
125.947336
 30
0.0
 10
137.873374
 20
126.112504
 30
0.0
 10
137.844376
 20
126.275021
 30
0.0
 10
137.807546
 20
126.434688
 30
0.0
 10
137.763061
 20
126.591293
 30
0.0
 10
137.711202
 20
126.744627
 30
0.0
 10
137.652112
 20
126.894487
 30
0.0
 10
137.586072
 20
127.040664
 30
0.0
 10
137.513189
 20
127.182949
 30
0.0
 10
137.433743
 20
127.321139
 30
0.0
 10
137.347913
 20
127.455025
 30
0.0
 10
137.255944
 20
127.584399
 30
0.0
 10
137.157978
 20
127.709052
 30
0.0
 10
137.054261
 20
127.828781
 30
0.0
 10
136.945006
 20
127.943377
 30
0.0
 10
136.830424
 20
128.052632
 30
0.0
 10
136.710692
 20
128.156338
 30
0.0
 10
136.586020
 20
128.254290
 30
0.0
 10
136.456657
 20
128.346284
 30
0.0
 10
136.322778
 20
128.432107
 30
0.0
 10
136.184596
 20
128.511553
 30
0.0
 10
136.042321
 20
128.584415
 30
0.0
 10
135.896130
 20
128.650490
 30
0.0
 10
135.746270
 20
128.709566
 30
0.0
 10
135.592918
 20
128.761435
 30
0.0
 10
135.436321
 20
128.805896
 30
0.0
 10
135.276654
 20
128.842736
 30
0.0
 10
135.114129
 20
128.871749
 30
0.0
 10
134.948959
 20
128.892732
 30
0.0
 10
134.781369
 20
128.905471
 30
0.0
 10
134.611528
 20
128.909764
 30
0.0
 10
134.441687
 20
128.905471
 30
0.0
 10
134.274079
 20
128.892732
 30
0.0
 10
134.108913
 20
128.871749
 30
0.0
 10
133.946395
 20
128.842736
 30
0.0
 10
133.786729
 20
128.805896
 30
0.0
 10
133.630124
 20
128.761435
 30
0.0
 10
133.476789
 20
128.709566
 30
0.0
 10
133.326930
 20
128.650490
 30
0.0
 10
133.180753
 20
128.584415
 30
0.0
 10
133.038468
 20
128.511553
 30
0.0
 10
132.900278
 20
128.432107
 30
0.0
 10
132.766392
 20
128.346284
 30
0.0
 10
132.637018
 20
128.254290
 30
0.0
 10
132.512364
 20
128.156338
 30
0.0
 10
132.392635
 20
128.052632
 30
0.0
 10
132.278043
 20
127.943377
 30
0.0
 10
132.168784
 20
127.828781
 30
0.0
 10
132.065079
 20
127.709052
 30
0.0
 10
131.967127
 20
127.584399
 30
0.0
 10
131.875133
 20
127.455025
 30
0.0
 10
131.789309
 20
127.321139
 30
0.0
 10
131.709864
 20
127.182949
 30
0.0
 10
131.637001
 20
127.040664
 30
0.0
 10
131.570927
 20
126.894487
 30
0.0
 10
131.511852
 20
126.744627
 30
0.0
 10
131.459981
 20
126.591293
 30
0.0
 10
131.415521
 20
126.434688
 30
0.0
 10
131.378681
 20
126.275021
 30
0.0
 10
131.349667
 20
126.112504
 30
0.0
 10
131.328686
 20
125.947336
 30
0.0
 10
131.315946
 20
125.779729
 30
0.0
  0
LWPOLYLINE
  5
113
100
AcDbEntity
  8
Edge.Cuts
 62
1
100
AcDbPolyline
 90
128
 70
1
 10
131.311653
 20
113.540126
 30
0.0
 10
131.315946
 20
113.370286
 30
0.0
 10
131.328686
 20
113.202679
 30
0.0
 10
131.349667
 20
113.037511
 30
0.0
 10
131.378681
 20
112.874993
 30
0.0
 10
131.415521
 20
112.715326
 30
0.0
 10
131.459981
 20
112.558722
 30
0.0
 10
131.511852
 20
112.405387
 30
0.0
 10
131.570927
 20
112.255528
 30
0.0
 10
131.637001
 20
112.109351
 30
0.0
 10
131.709864
 20
111.967065
 30
0.0
 10
131.789309
 20
111.828876
 30
0.0
 10
131.875133
 20
111.694990
 30
0.0
 10
131.967127
 20
111.565616
 30
0.0
 10
132.065079
 20
111.440962
 30
0.0
 10
132.168784
 20
111.321233
 30
0.0
 10
132.278039
 20
111.206637
 30
0.0
 10
132.392635
 20
111.097382
 30
0.0
 10
132.512364
 20
110.993676
 30
0.0
 10
132.637018
 20
110.895724
 30
0.0
 10
132.766392
 20
110.803731
 30
0.0
 10
132.900278
 20
110.717907
 30
0.0
 10
133.038468
 20
110.638462
 30
0.0
 10
133.180753
 20
110.565599
 30
0.0
 10
133.326930
 20
110.499524
 30
0.0
 10
133.476789
 20
110.440448
 30
0.0
 10
133.630124
 20
110.388579
 30
0.0
 10
133.786729
 20
110.344119
 30
0.0
 10
133.946395
 20
110.307278
 30
0.0
 10
134.108913
 20
110.278266
 30
0.0
 10
134.274079
 20
110.257283
 30
0.0
 10
134.441687
 20
110.244544
 30
0.0
 10
134.611528
 20
110.240251
 30
0.0
 10
134.781369
 20
110.244544
 30
0.0
 10
134.948959
 20
110.257283
 30
0.0
 10
135.114129
 20
110.278266
 30
0.0
 10
135.276654
 20
110.307278
 30
0.0
 10
135.436321
 20
110.344119
 30
0.0
 10
135.592918
 20
110.388579
 30
0.0
 10
135.746270
 20
110.440448
 30
0.0
 10
135.896130
 20
110.499524
 30
0.0
 10
136.042321
 20
110.565599
 30
0.0
 10
136.184596
 20
110.638462
 30
0.0
 10
136.322778
 20
110.717907
 30
0.0
 10
136.456657
 20
110.803731
 30
0.0
 10
136.586020
 20
110.895724
 30
0.0
 10
136.710692
 20
110.993676
 30
0.0
 10
136.830424
 20
111.097382
 30
0.0
 10
136.945006
 20
111.206641
 30
0.0
 10
137.054261
 20
111.321233
 30
0.0
 10
137.157978
 20
111.440962
 30
0.0
 10
137.255944
 20
111.565616
 30
0.0
 10
137.347913
 20
111.694990
 30
0.0
 10
137.433743
 20
111.828876
 30
0.0
 10
137.513189
 20
111.967065
 30
0.0
 10
137.586072
 20
112.109351
 30
0.0
 10
137.652112
 20
112.255528
 30
0.0
 10
137.711202
 20
112.405387
 30
0.0
 10
137.763061
 20
112.558722
 30
0.0
 10
137.807546
 20
112.715326
 30
0.0
 10
137.844376
 20
112.874993
 30
0.0
 10
137.873374
 20
113.037511
 30
0.0
 10
137.894364
 20
113.202679
 30
0.0
 10
137.907099
 20
113.370286
 30
0.0
 10
137.911403
 20
113.540126
 30
0.0
 10
137.907099
 20
113.709904
 30
0.0
 10
137.894364
 20
113.877457
 30
0.0
 10
137.873374
 20
114.042575
 30
0.0
 10
137.844376
 20
114.205057
 30
0.0
 10
137.807546
 20
114.364689
 30
0.0
 10
137.763061
 20
114.521269
 30
0.0
 10
137.711202
 20
114.674582
 30
0.0
 10
137.652112
 20
114.824428
 30
0.0
 10
137.586072
 20
114.970594
 30
0.0
 10
137.513189
 20
115.112876
 30
0.0
 10
137.433743
 20
115.251062
 30
0.0
 10
137.347913
 20
115.384952
 30
0.0
 10
137.255944
 20
115.514332
 30
0.0
 10
137.157978
 20
115.638997
 30
0.0
 10
137.054261
 20
115.758736
 30
0.0
 10
136.945006
 20
115.873346
 30
0.0
 10
136.830424
 20
115.982623
 30
0.0
 10
136.710692
 20
116.086350
 30
0.0
 10
136.586020
 20
116.184323
 30
0.0
 10
136.456657
 20
116.276334
 30
0.0
 10
136.322778
 20
116.362179
 30
0.0
 10
136.184596
 20
116.441649
 30
0.0
 10
136.042321
 20
116.514533
 30
0.0
 10
135.896130
 20
116.580629
 30
0.0
 10
135.746270
 20
116.639723
 30
0.0
 10
135.592918
 20
116.691612
 30
0.0
 10
135.436321
 20
116.736091
 30
0.0
 10
135.276654
 20
116.772945
 30
0.0
 10
135.114129
 20
116.801972
 30
0.0
 10
134.948959
 20
116.822958
 30
0.0
 10
134.781369
 20
116.835708
 30
0.0
 10
134.611528
 20
116.840001
 30
0.0
 10
134.441687
 20
116.835708
 30
0.0
 10
134.274079
 20
116.822958
 30
0.0
 10
134.108913
 20
116.801972
 30
0.0
 10
133.946395
 20
116.772945
 30
0.0
 10
133.786729
 20
116.736091
 30
0.0
 10
133.630124
 20
116.691612
 30
0.0
 10
133.476789
 20
116.639723
 30
0.0
 10
133.326930
 20
116.580629
 30
0.0
 10
133.180753
 20
116.514533
 30
0.0
 10
133.038468
 20
116.441649
 30
0.0
 10
132.900278
 20
116.362179
 30
0.0
 10
132.766392
 20
116.276334
 30
0.0
 10
132.637018
 20
116.184323
 30
0.0
 10
132.512364
 20
116.086350
 30
0.0
 10
132.392635
 20
115.982623
 30
0.0
 10
132.278043
 20
115.873346
 30
0.0
 10
132.168784
 20
115.758736
 30
0.0
 10
132.065079
 20
115.638997
 30
0.0
 10
131.967127
 20
115.514332
 30
0.0
 10
131.875133
 20
115.384952
 30
0.0
 10
131.789309
 20
115.251062
 30
0.0
 10
131.709864
 20
115.112876
 30
0.0
 10
131.637001
 20
114.970594
 30
0.0
 10
131.570927
 20
114.824428
 30
0.0
 10
131.511852
 20
114.674582
 30
0.0
 10
131.459981
 20
114.521269
 30
0.0
 10
131.415521
 20
114.364689
 30
0.0
 10
131.378681
 20
114.205057
 30
0.0
 10
131.349667
 20
114.042575
 30
0.0
 10
131.328686
 20
113.877457
 30
0.0
 10
131.315946
 20
113.709904
 30
0.0
  0
LWPOLYLINE
  5
114
100
AcDbEntity
  8
Edge.Cuts
 62
1
100
AcDbPolyline
 90
128
 70
1
 10
119.251415
 20
113.540126
 30
0.0
 10
119.255707
 20
113.370286
 30
0.0
 10
119.268445
 20
113.202679
 30
0.0
 10
119.289421
 20
113.037511
 30
0.0
 10
119.318429
 20
112.874993
 30
0.0
 10
119.355262
 20
112.715326
 30
0.0
 10
119.399713
 20
112.558722
 30
0.0
 10
119.451574
 20
112.405387
 30
0.0
 10
119.510640
 20
112.255528
 30
0.0
 10
119.576703
 20
112.109351
 30
0.0
 10
119.649556
 20
111.967065
 30
0.0
 10
119.728990
 20
111.828876
 30
0.0
 10
119.814803
 20
111.694990
 30
0.0
 10
119.906783
 20
111.565616
 30
0.0
 10
120.004728
 20
111.440962
 30
0.0
 10
120.108423
 20
111.321233
 30
0.0
 10
120.217671
 20
111.206637
 30
0.0
 10
120.332260
 20
111.097382
 30
0.0
 10
120.451982
 20
110.993676
 30
0.0
 10
120.576629
 20
110.895724
 30
0.0
 10
120.705999
 20
110.803731
 30
0.0
 10
120.839881
 20
110.717907
 30
0.0
 10
120.978071
 20
110.638462
 30
0.0
 10
121.120360
 20
110.565599
 30
0.0
 10
121.266544
 20
110.499524
 30
0.0
 10
121.416411
 20
110.440448
 30
0.0
 10
121.569756
 20
110.388579
 30
0.0
 10
121.726374
 20
110.344119
 30
0.0
 10
121.886055
 20
110.307278
 30
0.0
 10
122.048594
 20
110.278266
 30
0.0
 10
122.213785
 20
110.257283
 30
0.0
 10
122.381418
 20
110.244544
 30
0.0
 10
122.551290
 20
110.240251
 30
0.0
 10
122.721099
 20
110.244544
 30
0.0
 10
122.888686
 20
110.257283
 30
0.0
 10
123.053821
 20
110.278266
 30
0.0
 10
123.216310
 20
110.307278
 30
0.0
 10
123.375977
 20
110.344119
 30
0.0
 10
123.532575
 20
110.388579
 30
0.0
 10
123.685891
 20
110.440448
 30
0.0
 10
123.835751
 20
110.499524
 30
0.0
 10
123.981907
 20
110.565599
 30
0.0
 10
124.124181
 20
110.638462
 30
0.0
 10
124.262399
 20
110.717907
 30
0.0
 10
124.396278
 20
110.803731
 30
0.0
 10
124.525642
 20
110.895724
 30
0.0
 10
124.650313
 20
110.993676
 30
0.0
 10
124.770045
 20
111.097382
 30
0.0
 10
124.884627
 20
111.206641
 30
0.0
 10
124.993918
 20
111.321233
 30
0.0
 10
125.097634
 20
111.440962
 30
0.0
 10
125.195600
 20
111.565616
 30
0.0
 10
125.287604
 20
111.694990
 30
0.0
 10
125.373435
 20
111.828876
 30
0.0
 10
125.452880
 20
111.967065
 30
0.0
 10
125.525764
 20
112.109351
 30
0.0
 10
125.591839
 20
112.255528
 30
0.0
 10
125.650929
 20
112.405387
 30
0.0
 10
125.702823
 20
112.558722
 30
0.0
 10
125.747273
 20
112.715326
 30
0.0
 10
125.784138
 20
112.874993
 30
0.0
 10
125.813136
 20
113.037511
 30
0.0
 10
125.834126
 20
113.202679
 30
0.0
 10
125.846862
 20
113.370286
 30
0.0
 10
125.851165
 20
113.540126
 30
0.0
 10
125.846862
 20
113.709904
 30
0.0
 10
125.834126
 20
113.877457
 30
0.0
 10
125.813136
 20
114.042575
 30
0.0
 10
125.784138
 20
114.205057
 30
0.0
 10
125.747273
 20
114.364689
 30
0.0
 10
125.702823
 20
114.521269
 30
0.0
 10
125.650929
 20
114.674582
 30
0.0
 10
125.591839
 20
114.824428
 30
0.0
 10
125.525764
 20
114.970594
 30
0.0
 10
125.452880
 20
115.112876
 30
0.0
 10
125.373435
 20
115.251062
 30
0.0
 10
125.287604
 20
115.384952
 30
0.0
 10
125.195600
 20
115.514332
 30
0.0
 10
125.097634
 20
115.638997
 30
0.0
 10
124.993918
 20
115.758736
 30
0.0
 10
124.884627
 20
115.873346
 30
0.0
 10
124.770045
 20
115.982623
 30
0.0
 10
124.650313
 20
116.086350
 30
0.0
 10
124.525642
 20
116.184323
 30
0.0
 10
124.396278
 20
116.276334
 30
0.0
 10
124.262399
 20
116.362179
 30
0.0
 10
124.124181
 20
116.441649
 30
0.0
 10
123.981907
 20
116.514533
 30
0.0
 10
123.835751
 20
116.580629
 30
0.0
 10
123.685891
 20
116.639723
 30
0.0
 10
123.532575
 20
116.691612
 30
0.0
 10
123.375977
 20
116.736091
 30
0.0
 10
123.216310
 20
116.772945
 30
0.0
 10
123.053821
 20
116.801972
 30
0.0
 10
122.888686
 20
116.822958
 30
0.0
 10
122.721099
 20
116.835708
 30
0.0
 10
122.551290
 20
116.840001
 30
0.0
 10
122.381418
 20
116.835708
 30
0.0
 10
122.213785
 20
116.822958
 30
0.0
 10
122.048594
 20
116.801972
 30
0.0
 10
121.886055
 20
116.772945
 30
0.0
 10
121.726374
 20
116.736091
 30
0.0
 10
121.569756
 20
116.691612
 30
0.0
 10
121.416411
 20
116.639723
 30
0.0
 10
121.266544
 20
116.580629
 30
0.0
 10
121.120360
 20
116.514533
 30
0.0
 10
120.978071
 20
116.441649
 30
0.0
 10
120.839881
 20
116.362179
 30
0.0
 10
120.705999
 20
116.276334
 30
0.0
 10
120.576629
 20
116.184323
 30
0.0
 10
120.451982
 20
116.086350
 30
0.0
 10
120.332260
 20
115.982623
 30
0.0
 10
120.217671
 20
115.873346
 30
0.0
 10
120.108423
 20
115.758736
 30
0.0
 10
120.004728
 20
115.638997
 30
0.0
 10
119.906783
 20
115.514332
 30
0.0
 10
119.814803
 20
115.384952
 30
0.0
 10
119.728990
 20
115.251062
 30
0.0
 10
119.649556
 20
115.112876
 30
0.0
 10
119.576703
 20
114.970594
 30
0.0
 10
119.510640
 20
114.824428
 30
0.0
 10
119.451574
 20
114.674582
 30
0.0
 10
119.399713
 20
114.521269
 30
0.0
 10
119.355262
 20
114.364689
 30
0.0
 10
119.318429
 20
114.205057
 30
0.0
 10
119.289421
 20
114.042575
 30
0.0
 10
119.268445
 20
113.877457
 30
0.0
 10
119.255707
 20
113.709904
 30
0.0
  0
LWPOLYLINE
  5
115
100
AcDbEntity
  8
Edge.Cuts
 62
1
100
AcDbPolyline
 90
128
 70
1
 10
107.181123
 20
113.540126
 30
0.0
 10
107.185416
 20
113.370286
 30
0.0
 10
107.198157
 20
113.202679
 30
0.0
 10
107.219137
 20
113.037511
 30
0.0
 10
107.248152
 20
112.874993
 30
0.0
 10
107.284992
 20
112.715326
 30
0.0
 10
107.329451
 20
112.558722
 30
0.0
 10
107.381322
 20
112.405387
 30
0.0
 10
107.440398
 20
112.255528
 30
0.0
 10
107.506471
 20
112.109351
 30
0.0
 10
107.579334
 20
111.967065
 30
0.0
 10
107.658780
 20
111.828876
 30
0.0
 10
107.744603
 20
111.694990
 30
0.0
 10
107.836597
 20
111.565616
 30
0.0
 10
107.934549
 20
111.440962
 30
0.0
 10
108.038255
 20
111.321233
 30
0.0
 10
108.147510
 20
111.206637
 30
0.0
 10
108.262106
 20
111.097382
 30
0.0
 10
108.381835
 20
110.993676
 30
0.0
 10
108.506488
 20
110.895724
 30
0.0
 10
108.635862
 20
110.803731
 30
0.0
 10
108.769748
 20
110.717907
 30
0.0
 10
108.907938
 20
110.638462
 30
0.0
 10
109.050223
 20
110.565599
 30
0.0
 10
109.196400
 20
110.499524
 30
0.0
 10
109.346260
 20
110.440448
 30
0.0
 10
109.499594
 20
110.388579
 30
0.0
 10
109.656199
 20
110.344119
 30
0.0
 10
109.815866
 20
110.307278
 30
0.0
 10
109.978383
 20
110.278266
 30
0.0
 10
110.143550
 20
110.257283
 30
0.0
 10
110.311157
 20
110.244544
 30
0.0
 10
110.480998
 20
110.240251
 30
0.0
 10
110.650836
 20
110.244544
 30
0.0
 10
110.818430
 20
110.257283
 30
0.0
 10
110.983600
 20
110.278266
 30
0.0
 10
111.146124
 20
110.307278
 30
0.0
 10
111.305791
 20
110.344119
 30
0.0
 10
111.462353
 20
110.388579
 30
0.0
 10
111.615705
 20
110.440448
 30
0.0
 10
111.765530
 20
110.499524
 30
0.0
 10
111.911720
 20
110.565599
 30
0.0
 10
112.053995
 20
110.638462
 30
0.0
 10
112.192143
 20
110.717907
 30
0.0
 10
112.326022
 20
110.803731
 30
0.0
 10
112.455385
 20
110.895724
 30
0.0
 10
112.580021
 20
110.993676
 30
0.0
 10
112.699718
 20
111.097382
 30
0.0
 10
112.814300
 20
111.206641
 30
0.0
 10
112.923555
 20
111.321233
 30
0.0
 10
113.027236
 20
111.440962
 30
0.0
 10
113.125167
 20
111.565616
 30
0.0
 10
113.217136
 20
111.694990
 30
0.0
 10
113.302967
 20
111.828876
 30
0.0
 10
113.382377
 20
111.967065
 30
0.0
 10
113.455225
 20
112.109351
 30
0.0
 10
113.521300
 20
112.255528
 30
0.0
 10
113.580355
 20
112.405387
 30
0.0
 10
113.632213
 20
112.558722
 30
0.0
 10
113.676663
 20
112.715326
 30
0.0
 10
113.713493
 20
112.874993
 30
0.0
 10
113.742527
 20
113.037511
 30
0.0
 10
113.763482
 20
113.202679
 30
0.0
 10
113.776217
 20
113.370286
 30
0.0
 10
113.780521
 20
113.540126
 30
0.0
 10
113.776217
 20
113.709904
 30
0.0
 10
113.763482
 20
113.877457
 30
0.0
 10
113.742527
 20
114.042575
 30
0.0
 10
113.713493
 20
114.205057
 30
0.0
 10
113.676663
 20
114.364689
 30
0.0
 10
113.632213
 20
114.521269
 30
0.0
 10
113.580355
 20
114.674582
 30
0.0
 10
113.521300
 20
114.824428
 30
0.0
 10
113.455225
 20
114.970594
 30
0.0
 10
113.382377
 20
115.112876
 30
0.0
 10
113.302967
 20
115.251062
 30
0.0
 10
113.217136
 20
115.384952
 30
0.0
 10
113.125167
 20
115.514332
 30
0.0
 10
113.027236
 20
115.638997
 30
0.0
 10
112.923555
 20
115.758736
 30
0.0
 10
112.814300
 20
115.873346
 30
0.0
 10
112.699718
 20
115.982623
 30
0.0
 10
112.580021
 20
116.086350
 30
0.0
 10
112.455385
 20
116.184323
 30
0.0
 10
112.326022
 20
116.276334
 30
0.0
 10
112.192143
 20
116.362179
 30
0.0
 10
112.053995
 20
116.441649
 30
0.0
 10
111.911720
 20
116.514533
 30
0.0
 10
111.765530
 20
116.580629
 30
0.0
 10
111.615705
 20
116.639723
 30
0.0
 10
111.462353
 20
116.691612
 30
0.0
 10
111.305791
 20
116.736091
 30
0.0
 10
111.146124
 20
116.772945
 30
0.0
 10
110.983600
 20
116.801972
 30
0.0
 10
110.818430
 20
116.822958
 30
0.0
 10
110.650836
 20
116.835708
 30
0.0
 10
110.480998
 20
116.840001
 30
0.0
 10
110.311157
 20
116.835708
 30
0.0
 10
110.143550
 20
116.822958
 30
0.0
 10
109.978383
 20
116.801972
 30
0.0
 10
109.815866
 20
116.772945
 30
0.0
 10
109.656199
 20
116.736091
 30
0.0
 10
109.499594
 20
116.691612
 30
0.0
 10
109.346260
 20
116.639723
 30
0.0
 10
109.196400
 20
116.580629
 30
0.0
 10
109.050223
 20
116.514533
 30
0.0
 10
108.907938
 20
116.441649
 30
0.0
 10
108.769748
 20
116.362179
 30
0.0
 10
108.635862
 20
116.276334
 30
0.0
 10
108.506488
 20
116.184323
 30
0.0
 10
108.381835
 20
116.086350
 30
0.0
 10
108.262106
 20
115.982623
 30
0.0
 10
108.147513
 20
115.873346
 30
0.0
 10
108.038255
 20
115.758736
 30
0.0
 10
107.934549
 20
115.638997
 30
0.0
 10
107.836597
 20
115.514332
 30
0.0
 10
107.744603
 20
115.384952
 30
0.0
 10
107.658780
 20
115.251062
 30
0.0
 10
107.579334
 20
115.112876
 30
0.0
 10
107.506471
 20
114.970594
 30
0.0
 10
107.440398
 20
114.824428
 30
0.0
 10
107.381322
 20
114.674582
 30
0.0
 10
107.329451
 20
114.521269
 30
0.0
 10
107.284992
 20
114.364689
 30
0.0
 10
107.248152
 20
114.205057
 30
0.0
 10
107.219137
 20
114.042575
 30
0.0
 10
107.198157
 20
113.877457
 30
0.0
 10
107.185416
 20
113.709904
 30
0.0
  0
LWPOLYLINE
  5
116
100
AcDbEntity
  8
Edge.Cuts
 62
1
100
AcDbPolyline
 90
128
 70
1
 10
107.180594
 20
101.479624
 30
0.0
 10
107.184888
 20
101.309784
 30
0.0
 10
107.197631
 20
101.142177
 30
0.0
 10
107.218617
 20
100.977008
 30
0.0
 10
107.247637
 20
100.814491
 30
0.0
 10
107.284484
 20
100.654824
 30
0.0
 10
107.328952
 20
100.498219
 30
0.0
 10
107.380832
 20
100.344885
 30
0.0
 10
107.439918
 20
100.195025
 30
0.0
 10
107.506002
 20
100.048849
 30
0.0
 10
107.578876
 20
99.906563
 30
0.0
 10
107.658335
 20
99.768373
 30
0.0
 10
107.744169
 20
99.634487
 30
0.0
 10
107.836170
 20
99.505114
 30
0.0
 10
107.934133
 20
99.380460
 30
0.0
 10
108.037849
 20
99.260731
 30
0.0
 10
108.147115
 20
99.146135
 30
0.0
 10
108.261718
 20
99.036880
 30
0.0
 10
108.381454
 20
98.933174
 30
0.0
 10
108.506111
 20
98.835222
 30
0.0
 10
108.635488
 20
98.743228
 30
0.0
 10
108.769374
 20
98.657405
 30
0.0
 10
108.907564
 20
98.577959
 30
0.0
 10
109.049850
 20
98.505097
 30
0.0
 10
109.196019
 20
98.439022
 30
0.0
 10
109.345872
 20
98.379946
 30
0.0
 10
109.499196
 20
98.328077
 30
0.0
 10
109.655786
 20
98.283616
 30
0.0
 10
109.815435
 20
98.246776
 30
0.0
 10
109.977935
 20
98.217764
 30
0.0
 10
110.143080
 20
98.196780
 30
0.0
 10
110.310660
 20
98.184042
 30
0.0
 10
110.480469
 20
98.179748
 30
0.0
 10
110.650310
 20
98.184042
 30
0.0
 10
110.817936
 20
98.196780
 30
0.0
 10
110.983106
 20
98.217764
 30
0.0
 10
111.145630
 20
98.246776
 30
0.0
 10
111.305297
 20
98.283616
 30
0.0
 10
111.461895
 20
98.328077
 30
0.0
 10
111.615247
 20
98.379946
 30
0.0
 10
111.765106
 20
98.439022
 30
0.0
 10
111.911297
 20
98.505097
 30
0.0
 10
112.053607
 20
98.577959
 30
0.0
 10
112.191825
 20
98.657405
 30
0.0
 10
112.325704
 20
98.743228
 30
0.0
 10
112.455103
 20
98.835222
 30
0.0
 10
112.579774
 20
98.933174
 30
0.0
 10
112.699507
 20
99.036880
 30
0.0
 10
112.814124
 20
99.146138
 30
0.0
 10
112.923414
 20
99.260731
 30
0.0
 10
113.027130
 20
99.380460
 30
0.0
 10
113.125097
 20
99.505114
 30
0.0
 10
113.217101
 20
99.634487
 30
0.0
 10
113.302931
 20
99.768373
 30
0.0
 10
113.382412
 20
99.906563
 30
0.0
 10
113.455296
 20
100.048849
 30
0.0
 10
113.521371
 20
100.195025
 30
0.0
 10
113.580461
 20
100.344885
 30
0.0
 10
113.632319
 20
100.498219
 30
0.0
 10
113.676804
 20
100.654824
 30
0.0
 10
113.713670
 20
100.814491
 30
0.0
 10
113.742668
 20
100.977008
 30
0.0
 10
113.763658
 20
101.142177
 30
0.0
 10
113.776393
 20
101.309784
 30
0.0
 10
113.780697
 20
101.479624
 30
0.0
 10
113.776393
 20
101.649464
 30
0.0
 10
113.763658
 20
101.817074
 30
0.0
 10
113.742668
 20
101.982246
 30
0.0
 10
113.713670
 20
102.144774
 30
0.0
 10
113.676804
 20
102.304448
 30
0.0
 10
113.632319
 20
102.461059
 30
0.0
 10
113.580461
 20
102.614405
 30
0.0
 10
113.521371
 20
102.764278
 30
0.0
 10
113.455296
 20
102.910465
 30
0.0
 10
113.382412
 20
103.052769
 30
0.0
 10
113.302931
 20
103.190969
 30
0.0
 10
113.217101
 20
103.324869
 30
0.0
 10
113.125097
 20
103.454260
 30
0.0
 10
113.027130
 20
103.578928
 30
0.0
 10
112.923414
 20
103.698675
 30
0.0
 10
112.814124
 20
103.813285
 30
0.0
 10
112.699507
 20
103.922558
 30
0.0
 10
112.579774
 20
104.026281
 30
0.0
 10
112.455103
 20
104.124251
 30
0.0
 10
112.325704
 20
104.216259
 30
0.0
 10
112.191825
 20
104.302096
 30
0.0
 10
112.053607
 20
104.381559
 30
0.0
 10
111.911297
 20
104.454436
 30
0.0
 10
111.765106
 20
104.520522
 30
0.0
 10
111.615247
 20
104.579608
 30
0.0
 10
111.461895
 20
104.631491
 30
0.0
 10
111.305297
 20
104.675959
 30
0.0
 10
111.145630
 20
104.712810
 30
0.0
 10
110.983106
 20
104.741829
 30
0.0
 10
110.817936
 20
104.762816
 30
0.0
 10
110.650310
 20
104.775558
 30
0.0
 10
110.480469
 20
104.779851
 30
0.0
 10
110.310660
 20
104.775558
 30
0.0
 10
110.143080
 20
104.762816
 30
0.0
 10
109.977935
 20
104.741829
 30
0.0
 10
109.815435
 20
104.712810
 30
0.0
 10
109.655786
 20
104.675959
 30
0.0
 10
109.499196
 20
104.631491
 30
0.0
 10
109.345872
 20
104.579608
 30
0.0
 10
109.196019
 20
104.520522
 30
0.0
 10
109.049850
 20
104.454436
 30
0.0
 10
108.907564
 20
104.381559
 30
0.0
 10
108.769374
 20
104.302096
 30
0.0
 10
108.635488
 20
104.216259
 30
0.0
 10
108.506111
 20
104.124251
 30
0.0
 10
108.381454
 20
104.026281
 30
0.0
 10
108.261718
 20
103.922558
 30
0.0
 10
108.147115
 20
103.813285
 30
0.0
 10
108.037849
 20
103.698675
 30
0.0
 10
107.934133
 20
103.578928
 30
0.0
 10
107.836170
 20
103.454260
 30
0.0
 10
107.744169
 20
103.324869
 30
0.0
 10
107.658335
 20
103.190969
 30
0.0
 10
107.578876
 20
103.052769
 30
0.0
 10
107.506002
 20
102.910465
 30
0.0
 10
107.439918
 20
102.764278
 30
0.0
 10
107.380832
 20
102.614405
 30
0.0
 10
107.328952
 20
102.461059
 30
0.0
 10
107.284484
 20
102.304448
 30
0.0
 10
107.247637
 20
102.144774
 30
0.0
 10
107.218617
 20
101.982246
 30
0.0
 10
107.197631
 20
101.817074
 30
0.0
 10
107.184888
 20
101.649464
 30
0.0
  0
LWPOLYLINE
  5
117
100
AcDbEntity
  8
Edge.Cuts
 62
1
100
AcDbPolyline
 90
128
 70
1
 10
119.250886
 20
101.479624
 30
0.0
 10
119.255179
 20
101.309784
 30
0.0
 10
119.267919
 20
101.142177
 30
0.0
 10
119.288901
 20
100.977008
 30
0.0
 10
119.317915
 20
100.814491
 30
0.0
 10
119.354756
 20
100.654824
 30
0.0
 10
119.399216
 20
100.498219
 30
0.0
 10
119.451089
 20
100.344885
 30
0.0
 10
119.510166
 20
100.195025
 30
0.0
 10
119.576242
 20
100.048849
 30
0.0
 10
119.649108
 20
99.906563
 30
0.0
 10
119.728557
 20
99.768373
 30
0.0
 10
119.814384
 20
99.634487
 30
0.0
 10
119.906381
 20
99.505114
 30
0.0
 10
120.004340
 20
99.380460
 30
0.0
 10
120.108056
 20
99.260731
 30
0.0
 10
120.217318
 20
99.146135
 30
0.0
 10
120.331921
 20
99.036880
 30
0.0
 10
120.451661
 20
98.933174
 30
0.0
 10
120.576325
 20
98.835222
 30
0.0
 10
120.705713
 20
98.743228
 30
0.0
 10
120.839610
 20
98.657405
 30
0.0
 10
120.977814
 20
98.577959
 30
0.0
 10
121.120117
 20
98.505097
 30
0.0
 10
121.266311
 20
98.439022
 30
0.0
 10
121.416192
 20
98.379946
 30
0.0
 10
121.569547
 20
98.328077
 30
0.0
 10
121.726173
 20
98.283616
 30
0.0
 10
121.885865
 20
98.246776
 30
0.0
 10
122.048410
 20
98.217764
 30
0.0
 10
122.213605
 20
98.196780
 30
0.0
 10
122.381241
 20
98.184042
 30
0.0
 10
122.551114
 20
98.179748
 30
0.0
 10
122.720923
 20
98.184042
 30
0.0
 10
122.888510
 20
98.196780
 30
0.0
 10
123.053645
 20
98.217764
 30
0.0
 10
123.216169
 20
98.246776
 30
0.0
 10
123.375836
 20
98.283616
 30
0.0
 10
123.532433
 20
98.328077
 30
0.0
 10
123.685750
 20
98.379946
 30
0.0
 10
123.835610
 20
98.439022
 30
0.0
 10
123.981801
 20
98.505097
 30
0.0
 10
124.124111
 20
98.577959
 30
0.0
 10
124.262294
 20
98.657405
 30
0.0
 10
124.396208
 20
98.743228
 30
0.0
 10
124.525606
 20
98.835222
 30
0.0
 10
124.650278
 20
98.933174
 30
0.0
 10
124.770010
 20
99.036880
 30
0.0
 10
124.884663
 20
99.146138
 30
0.0
 10
124.993918
 20
99.260731
 30
0.0
 10
125.097669
 20
99.380460
 30
0.0
 10
125.195635
 20
99.505114
 30
0.0
 10
125.287640
 20
99.634487
 30
0.0
 10
125.373506
 20
99.768373
 30
0.0
 10
125.452986
 20
99.906563
 30
0.0
 10
125.525870
 20
100.048849
 30
0.0
 10
125.591980
 20
100.195025
 30
0.0
 10
125.651070
 20
100.344885
 30
0.0
 10
125.702964
 20
100.498219
 30
0.0
 10
125.747414
 20
100.654824
 30
0.0
 10
125.784279
 20
100.814491
 30
0.0
 10
125.813313
 20
100.977008
 30
0.0
 10
125.834303
 20
101.142177
 30
0.0
 10
125.847038
 20
101.309784
 30
0.0
 10
125.851342
 20
101.479624
 30
0.0
 10
125.847038
 20
101.649464
 30
0.0
 10
125.834303
 20
101.817074
 30
0.0
 10
125.813313
 20
101.982246
 30
0.0
 10
125.784279
 20
102.144774
 30
0.0
 10
125.747414
 20
102.304448
 30
0.0
 10
125.702964
 20
102.461059
 30
0.0
 10
125.651070
 20
102.614405
 30
0.0
 10
125.591980
 20
102.764278
 30
0.0
 10
125.525870
 20
102.910465
 30
0.0
 10
125.452986
 20
103.052769
 30
0.0
 10
125.373506
 20
103.190969
 30
0.0
 10
125.287640
 20
103.324869
 30
0.0
 10
125.195635
 20
103.454260
 30
0.0
 10
125.097669
 20
103.578928
 30
0.0
 10
124.993918
 20
103.698675
 30
0.0
 10
124.884663
 20
103.813285
 30
0.0
 10
124.770010
 20
103.922558
 30
0.0
 10
124.650278
 20
104.026281
 30
0.0
 10
124.525606
 20
104.124251
 30
0.0
 10
124.396208
 20
104.216259
 30
0.0
 10
124.262294
 20
104.302096
 30
0.0
 10
124.124111
 20
104.381559
 30
0.0
 10
123.981801
 20
104.454436
 30
0.0
 10
123.835610
 20
104.520522
 30
0.0
 10
123.685750
 20
104.579608
 30
0.0
 10
123.532433
 20
104.631491
 30
0.0
 10
123.375836
 20
104.675959
 30
0.0
 10
123.216169
 20
104.712810
 30
0.0
 10
123.053645
 20
104.741829
 30
0.0
 10
122.888510
 20
104.762816
 30
0.0
 10
122.720923
 20
104.775558
 30
0.0
 10
122.551114
 20
104.779851
 30
0.0
 10
122.381241
 20
104.775558
 30
0.0
 10
122.213605
 20
104.762816
 30
0.0
 10
122.048410
 20
104.741829
 30
0.0
 10
121.885865
 20
104.712810
 30
0.0
 10
121.726173
 20
104.675959
 30
0.0
 10
121.569547
 20
104.631491
 30
0.0
 10
121.416192
 20
104.579608
 30
0.0
 10
121.266311
 20
104.520522
 30
0.0
 10
121.120117
 20
104.454436
 30
0.0
 10
120.977814
 20
104.381559
 30
0.0
 10
120.839610
 20
104.302096
 30
0.0
 10
120.705713
 20
104.216259
 30
0.0
 10
120.576325
 20
104.124251
 30
0.0
 10
120.451661
 20
104.026281
 30
0.0
 10
120.331921
 20
103.922558
 30
0.0
 10
120.217318
 20
103.813285
 30
0.0
 10
120.108056
 20
103.698675
 30
0.0
 10
120.004340
 20
103.578928
 30
0.0
 10
119.906381
 20
103.454260
 30
0.0
 10
119.814384
 20
103.324869
 30
0.0
 10
119.728557
 20
103.190969
 30
0.0
 10
119.649108
 20
103.052769
 30
0.0
 10
119.576242
 20
102.910465
 30
0.0
 10
119.510166
 20
102.764278
 30
0.0
 10
119.451089
 20
102.614405
 30
0.0
 10
119.399216
 20
102.461059
 30
0.0
 10
119.354756
 20
102.304448
 30
0.0
 10
119.317915
 20
102.144774
 30
0.0
 10
119.288901
 20
101.982246
 30
0.0
 10
119.267919
 20
101.817074
 30
0.0
 10
119.255179
 20
101.649464
 30
0.0
  0
LWPOLYLINE
  5
118
100
AcDbEntity
  8
Edge.Cuts
 62
1
100
AcDbPolyline
 90
128
 70
1
 10
131.311124
 20
101.479624
 30
0.0
 10
131.315418
 20
101.309784
 30
0.0
 10
131.328161
 20
101.142177
 30
0.0
 10
131.349146
 20
100.977008
 30
0.0
 10
131.378167
 20
100.814491
 30
0.0
 10
131.415014
 20
100.654824
 30
0.0
 10
131.459482
 20
100.498219
 30
0.0
 10
131.511362
 20
100.344885
 30
0.0
 10
131.570448
 20
100.195025
 30
0.0
 10
131.636532
 20
100.048849
 30
0.0
 10
131.709405
 20
99.906563
 30
0.0
 10
131.788865
 20
99.768373
 30
0.0
 10
131.874699
 20
99.634487
 30
0.0
 10
131.966700
 20
99.505114
 30
0.0
 10
132.064662
 20
99.380460
 30
0.0
 10
132.168379
 20
99.260731
 30
0.0
 10
132.277644
 20
99.146135
 30
0.0
 10
132.392247
 20
99.036880
 30
0.0
 10
132.511983
 20
98.933174
 30
0.0
 10
132.636641
 20
98.835222
 30
0.0
 10
132.766018
 20
98.743228
 30
0.0
 10
132.899904
 20
98.657405
 30
0.0
 10
133.038094
 20
98.577959
 30
0.0
 10
133.180379
 20
98.505097
 30
0.0
 10
133.326549
 20
98.439022
 30
0.0
 10
133.476401
 20
98.379946
 30
0.0
 10
133.629725
 20
98.328077
 30
0.0
 10
133.786316
 20
98.283616
 30
0.0
 10
133.945965
 20
98.246776
 30
0.0
 10
134.108465
 20
98.217764
 30
0.0
 10
134.273610
 20
98.196780
 30
0.0
 10
134.441190
 20
98.184042
 30
0.0
 10
134.610999
 20
98.179748
 30
0.0
 10
134.780840
 20
98.184042
 30
0.0
 10
134.948465
 20
98.196780
 30
0.0
 10
135.113635
 20
98.217764
 30
0.0
 10
135.276160
 20
98.246776
 30
0.0
 10
135.435862
 20
98.283616
 30
0.0
 10
135.592460
 20
98.328077
 30
0.0
 10
135.745812
 20
98.379946
 30
0.0
 10
135.895707
 20
98.439022
 30
0.0
 10
136.041897
 20
98.505097
 30
0.0
 10
136.184208
 20
98.577959
 30
0.0
 10
136.322426
 20
98.657405
 30
0.0
 10
136.456375
 20
98.743228
 30
0.0
 10
136.585773
 20
98.835222
 30
0.0
 10
136.710445
 20
98.933174
 30
0.0
 10
136.830213
 20
99.036880
 30
0.0
 10
136.944830
 20
99.146138
 30
0.0
 10
137.054120
 20
99.260731
 30
0.0
 10
137.157872
 20
99.380460
 30
0.0
 10
137.255838
 20
99.505114
 30
0.0
 10
137.347877
 20
99.634487
 30
0.0
 10
137.433743
 20
99.768373
 30
0.0
 10
137.513189
 20
99.906563
 30
0.0
 10
137.586108
 20
100.048849
 30
0.0
 10
137.652183
 20
100.195025
 30
0.0
 10
137.711308
 20
100.344885
 30
0.0
 10
137.763202
 20
100.498219
 30
0.0
 10
137.807652
 20
100.654824
 30
0.0
 10
137.844517
 20
100.814491
 30
0.0
 10
137.873550
 20
100.977008
 30
0.0
 10
137.894541
 20
101.142177
 30
0.0
 10
137.907276
 20
101.309784
 30
0.0
 10
137.911580
 20
101.479624
 30
0.0
 10
137.907276
 20
101.649464
 30
0.0
 10
137.894541
 20
101.817074
 30
0.0
 10
137.873550
 20
101.982246
 30
0.0
 10
137.844517
 20
102.144774
 30
0.0
 10
137.807652
 20
102.304448
 30
0.0
 10
137.763202
 20
102.461059
 30
0.0
 10
137.711308
 20
102.614405
 30
0.0
 10
137.652183
 20
102.764278
 30
0.0
 10
137.586108
 20
102.910465
 30
0.0
 10
137.513189
 20
103.052769
 30
0.0
 10
137.433743
 20
103.190969
 30
0.0
 10
137.347877
 20
103.324869
 30
0.0
 10
137.255838
 20
103.454260
 30
0.0
 10
137.157872
 20
103.578928
 30
0.0
 10
137.054120
 20
103.698675
 30
0.0
 10
136.944830
 20
103.813285
 30
0.0
 10
136.830213
 20
103.922558
 30
0.0
 10
136.710445
 20
104.026281
 30
0.0
 10
136.585773
 20
104.124251
 30
0.0
 10
136.456375
 20
104.216259
 30
0.0
 10
136.322426
 20
104.302096
 30
0.0
 10
136.184208
 20
104.381559
 30
0.0
 10
136.041897
 20
104.454436
 30
0.0
 10
135.895707
 20
104.520522
 30
0.0
 10
135.745812
 20
104.579608
 30
0.0
 10
135.592460
 20
104.631491
 30
0.0
 10
135.435862
 20
104.675959
 30
0.0
 10
135.276160
 20
104.712810
 30
0.0
 10
135.113635
 20
104.741829
 30
0.0
 10
134.948465
 20
104.762816
 30
0.0
 10
134.780840
 20
104.775558
 30
0.0
 10
134.610999
 20
104.779851
 30
0.0
 10
134.441190
 20
104.775558
 30
0.0
 10
134.273610
 20
104.762816
 30
0.0
 10
134.108465
 20
104.741829
 30
0.0
 10
133.945965
 20
104.712810
 30
0.0
 10
133.786316
 20
104.675959
 30
0.0
 10
133.629725
 20
104.631491
 30
0.0
 10
133.476401
 20
104.579608
 30
0.0
 10
133.326549
 20
104.520522
 30
0.0
 10
133.180379
 20
104.454436
 30
0.0
 10
133.038094
 20
104.381559
 30
0.0
 10
132.899904
 20
104.302096
 30
0.0
 10
132.766018
 20
104.216259
 30
0.0
 10
132.636641
 20
104.124251
 30
0.0
 10
132.511983
 20
104.026281
 30
0.0
 10
132.392247
 20
103.922558
 30
0.0
 10
132.277644
 20
103.813285
 30
0.0
 10
132.168379
 20
103.698675
 30
0.0
 10
132.064662
 20
103.578928
 30
0.0
 10
131.966700
 20
103.454260
 30
0.0
 10
131.874699
 20
103.324869
 30
0.0
 10
131.788865
 20
103.190969
 30
0.0
 10
131.709405
 20
103.052769
 30
0.0
 10
131.636532
 20
102.910465
 30
0.0
 10
131.570448
 20
102.764278
 30
0.0
 10
131.511362
 20
102.614405
 30
0.0
 10
131.459482
 20
102.461059
 30
0.0
 10
131.415014
 20
102.304448
 30
0.0
 10
131.378167
 20
102.144774
 30
0.0
 10
131.349146
 20
101.982246
 30
0.0
 10
131.328161
 20
101.817074
 30
0.0
 10
131.315418
 20
101.649464
 30
0.0
  0
LWPOLYLINE
  5
119
100
AcDbEntity
  8
Edge.Cuts
 62
1
100
AcDbPolyline
 90
128
 70
1
 10
82.605035
 20
105.290153
 30
0.0
 10
82.609914
 20
105.097139
 30
0.0
 10
82.624395
 20
104.906660
 30
0.0
 10
82.648242
 20
104.718954
 30
0.0
 10
82.681219
 20
104.534254
 30
0.0
 10
82.723091
 20
104.352800
 30
0.0
 10
82.773622
 20
104.174820
 30
0.0
 10
82.832577
 20
104.000556
 30
0.0
 10
82.899720
 20
103.830242
 30
0.0
 10
82.974816
 20
103.664109
 30
0.0
 10
83.057627
 20
103.502399
 30
0.0
 10
83.147920
 20
103.345347
 30
0.0
 10
83.245459
 20
103.193183
 30
0.0
 10
83.350008
 20
103.046146
 30
0.0
 10
83.461334
 20
102.904471
 30
0.0
 10
83.579197
 20
102.768394
 30
0.0
 10
83.703364
 20
102.638152
 30
0.0
 10
83.833595
 20
102.513978
 30
0.0
 10
83.969661
 20
102.396109
 30
0.0
 10
84.111326
 20
102.284779
 30
0.0
 10
84.258349
 20
102.180223
 30
0.0
 10
84.410498
 20
102.082680
 30
0.0
 10
84.567540
 20
101.992384
 30
0.0
 10
84.729232
 20
101.909569
 30
0.0
 10
84.895344
 20
101.834470
 30
0.0
 10
85.065640
 20
101.767326
 30
0.0
 10
85.239884
 20
101.708374
 30
0.0
 10
85.417842
 20
101.657856
 30
0.0
 10
85.599271
 20
101.615981
 30
0.0
 10
85.783947
 20
101.582997
 30
0.0
 10
85.971624
 20
101.559149
 30
0.0
 10
86.162085
 20
101.544650
 30
0.0
 10
86.355054
 20
101.539782
 30
0.0
 10
86.547987
 20
101.544650
 30
0.0
 10
86.738416
 20
101.559149
 30
0.0
 10
86.926094
 20
101.582997
 30
0.0
 10
87.110737
 20
101.615981
 30
0.0
 10
87.292135
 20
101.657856
 30
0.0
 10
87.470076
 20
101.708374
 30
0.0
 10
87.644312
 20
101.767326
 30
0.0
 10
87.814598
 20
101.834470
 30
0.0
 10
87.980720
 20
101.909569
 30
0.0
 10
88.142398
 20
101.992384
 30
0.0
 10
88.299454
 20
102.082680
 30
0.0
 10
88.451607
 20
102.180223
 30
0.0
 10
88.598644
 20
102.284779
 30
0.0
 10
88.740284
 20
102.396109
 30
0.0
 10
88.876385
 20
102.513978
 30
0.0
 10
89.006631
 20
102.638152
 30
0.0
 10
89.130773
 20
102.768394
 30
0.0
 10
89.248671
 20
102.904471
 30
0.0
 10
89.360007
 20
103.046146
 30
0.0
 10
89.464570
 20
103.193183
 30
0.0
 10
89.562113
 20
103.345347
 30
0.0
 10
89.652424
 20
103.502399
 30
0.0
 10
89.735221
 20
103.664109
 30
0.0
 10
89.810327
 20
103.830242
 30
0.0
 10
89.877496
 20
104.000556
 30
0.0
 10
89.936445
 20
104.174820
 30
0.0
 10
89.986998
 20
104.352800
 30
0.0
 10
90.028872
 20
104.534254
 30
0.0
 10
90.061857
 20
104.718954
 30
0.0
 10
90.085705
 20
104.906660
 30
0.0
 10
90.100204
 20
105.097139
 30
0.0
 10
90.105072
 20
105.290153
 30
0.0
 10
90.100204
 20
105.483103
 30
0.0
 10
90.085705
 20
105.673519
 30
0.0
 10
90.061857
 20
105.861172
 30
0.0
 10
90.028872
 20
106.045819
 30
0.0
 10
89.986998
 20
106.227223
 30
0.0
 10
89.936445
 20
106.405157
 30
0.0
 10
89.877496
 20
106.579380
 30
0.0
 10
89.810327
 20
106.749658
 30
0.0
 10
89.735221
 20
106.915752
 30
0.0
 10
89.652424
 20
107.077430
 30
0.0
 10
89.562113
 20
107.234454
 30
0.0
 10
89.464570
 20
107.386590
 30
0.0
 10
89.360007
 20
107.533602
 30
0.0
 10
89.248671
 20
107.675253
 30
0.0
 10
89.130773
 20
107.811312
 30
0.0
 10
89.006631
 20
107.941536
 30
0.0
 10
88.876385
 20
108.065696
 30
0.0
 10
88.740284
 20
108.183551
 30
0.0
 10
88.598644
 20
108.294870
 30
0.0
 10
88.451607
 20
108.399412
 30
0.0
 10
88.299454
 20
108.496948
 30
0.0
 10
88.142398
 20
108.587237
 30
0.0
 10
87.980720
 20
108.670048
 30
0.0
 10
87.814598
 20
108.745140
 30
0.0
 10
87.644312
 20
108.812281
 30
0.0
 10
87.470076
 20
108.871226
 30
0.0
 10
87.292135
 20
108.921779
 30
0.0
 10
87.110737
 20
108.963619
 30
0.0
 10
86.926094
 20
108.996603
 30
0.0
 10
86.738416
 20
109.020451
 30
0.0
 10
86.547987
 20
109.034950
 30
0.0
 10
86.355054
 20
109.039818
 30
0.0
 10
86.162085
 20
109.034950
 30
0.0
 10
85.971624
 20
109.020451
 30
0.0
 10
85.783947
 20
108.996603
 30
0.0
 10
85.599271
 20
108.963619
 30
0.0
 10
85.417842
 20
108.921779
 30
0.0
 10
85.239884
 20
108.871226
 30
0.0
 10
85.065640
 20
108.812281
 30
0.0
 10
84.895344
 20
108.745140
 30
0.0
 10
84.729232
 20
108.670048
 30
0.0
 10
84.567540
 20
108.587237
 30
0.0
 10
84.410498
 20
108.496948
 30
0.0
 10
84.258349
 20
108.399412
 30
0.0
 10
84.111326
 20
108.294870
 30
0.0
 10
83.969661
 20
108.183551
 30
0.0
 10
83.833595
 20
108.065696
 30
0.0
 10
83.703364
 20
107.941536
 30
0.0
 10
83.579197
 20
107.811312
 30
0.0
 10
83.461334
 20
107.675253
 30
0.0
 10
83.350008
 20
107.533602
 30
0.0
 10
83.245459
 20
107.386590
 30
0.0
 10
83.147920
 20
107.234454
 30
0.0
 10
83.057627
 20
107.077430
 30
0.0
 10
82.974816
 20
106.915752
 30
0.0
 10
82.899720
 20
106.749658
 30
0.0
 10
82.832577
 20
106.579380
 30
0.0
 10
82.773622
 20
106.405157
 30
0.0
 10
82.723091
 20
106.227223
 30
0.0
 10
82.681219
 20
106.045819
 30
0.0
 10
82.648242
 20
105.861172
 30
0.0
 10
82.624395
 20
105.673519
 30
0.0
 10
82.609914
 20
105.483103
 30
0.0
  0
LWPOLYLINE
  5
11a
100
AcDbEntity
  8
Edge.Cuts
 62
1
100
AcDbPolyline
 90
128
 70
1
 10
68.444535
 20
105.290153
 30
0.0
 10
68.448829
 20
105.120313
 30
0.0
 10
68.461572
 20
104.952706
 30
0.0
 10
68.482558
 20
104.787537
 30
0.0
 10
68.511578
 20
104.625020
 30
0.0
 10
68.548425
 20
104.465353
 30
0.0
 10
68.592893
 20
104.308749
 30
0.0
 10
68.644773
 20
104.155414
 30
0.0
 10
68.703859
 20
104.005554
 30
0.0
 10
68.769943
 20
103.859378
 30
0.0
 10
68.842816
 20
103.717092
 30
0.0
 10
68.922276
 20
103.578903
 30
0.0
 10
69.008110
 20
103.445017
 30
0.0
 10
69.100111
 20
103.315643
 30
0.0
 10
69.198073
 20
103.190989
 30
0.0
 10
69.301790
 20
103.071260
 30
0.0
 10
69.411055
 20
102.956664
 30
0.0
 10
69.525658
 20
102.847409
 30
0.0
 10
69.645395
 20
102.743703
 30
0.0
 10
69.770052
 20
102.645751
 30
0.0
 10
69.899429
 20
102.553758
 30
0.0
 10
70.033315
 20
102.467934
 30
0.0
 10
70.171505
 20
102.388489
 30
0.0
 10
70.313790
 20
102.315626
 30
0.0
 10
70.459960
 20
102.249551
 30
0.0
 10
70.609812
 20
102.190475
 30
0.0
 10
70.763136
 20
102.138606
 30
0.0
 10
70.919727
 20
102.094146
 30
0.0
 10
71.079376
 20
102.057305
 30
0.0
 10
71.241876
 20
102.028293
 30
0.0
 10
71.407021
 20
102.007310
 30
0.0
 10
71.574601
 20
101.994571
 30
0.0
 10
71.744410
 20
101.990278
 30
0.0
 10
71.914251
 20
101.994571
 30
0.0
 10
72.081876
 20
102.007310
 30
0.0
 10
72.247047
 20
102.028293
 30
0.0
 10
72.409571
 20
102.057305
 30
0.0
 10
72.569273
 20
102.094146
 30
0.0
 10
72.725871
 20
102.138606
 30
0.0
 10
72.879223
 20
102.190475
 30
0.0
 10
73.029118
 20
102.249551
 30
0.0
 10
73.175308
 20
102.315626
 30
0.0
 10
73.317619
 20
102.388489
 30
0.0
 10
73.455837
 20
102.467934
 30
0.0
 10
73.589786
 20
102.553758
 30
0.0
 10
73.719185
 20
102.645751
 30
0.0
 10
73.843856
 20
102.743703
 30
0.0
 10
73.963624
 20
102.847409
 30
0.0
 10
74.078241
 20
102.956668
 30
0.0
 10
74.187531
 20
103.071260
 30
0.0
 10
74.291283
 20
103.190989
 30
0.0
 10
74.389249
 20
103.315643
 30
0.0
 10
74.481289
 20
103.445017
 30
0.0
 10
74.567154
 20
103.578903
 30
0.0
 10
74.646600
 20
103.717092
 30
0.0
 10
74.719519
 20
103.859378
 30
0.0
 10
74.785594
 20
104.005554
 30
0.0
 10
74.844719
 20
104.155414
 30
0.0
 10
74.896613
 20
104.308749
 30
0.0
 10
74.941063
 20
104.465353
 30
0.0
 10
74.977928
 20
104.625020
 30
0.0
 10
75.006961
 20
104.787537
 30
0.0
 10
75.027952
 20
104.952706
 30
0.0
 10
75.040687
 20
105.120313
 30
0.0
 10
75.044991
 20
105.290153
 30
0.0
 10
75.040687
 20
105.459961
 30
0.0
 10
75.027952
 20
105.627538
 30
0.0
 10
75.006961
 20
105.792676
 30
0.0
 10
74.977928
 20
105.955169
 30
0.0
 10
74.941063
 20
106.114811
 30
0.0
 10
74.896613
 20
106.271391
 30
0.0
 10
74.844719
 20
106.424708
 30
0.0
 10
74.785594
 20
106.574546
 30
0.0
 10
74.719519
 20
106.720705
 30
0.0
 10
74.646600
 20
106.862977
 30
0.0
 10
74.567154
 20
107.001149
 30
0.0
 10
74.481289
 20
107.135021
 30
0.0
 10
74.389249
 20
107.264384
 30
0.0
 10
74.291283
 20
107.389027
 30
0.0
 10
74.187531
 20
107.508746
 30
0.0
 10
74.078241
 20
107.623331
 30
0.0
 10
73.963624
 20
107.732579
 30
0.0
 10
73.843856
 20
107.836278
 30
0.0
 10
73.719185
 20
107.934226
 30
0.0
 10
73.589786
 20
108.026213
 30
0.0
 10
73.455837
 20
108.112033
 30
0.0
 10
73.317619
 20
108.191475
 30
0.0
 10
73.175308
 20
108.264334
 30
0.0
 10
73.029118
 20
108.330405
 30
0.0
 10
72.879223
 20
108.389481
 30
0.0
 10
72.725871
 20
108.441350
 30
0.0
 10
72.569273
 20
108.485807
 30
0.0
 10
72.409571
 20
108.522648
 30
0.0
 10
72.247047
 20
108.551660
 30
0.0
 10
72.081876
 20
108.572643
 30
0.0
 10
71.914251
 20
108.585382
 30
0.0
 10
71.744410
 20
108.589675
 30
0.0
 10
71.574601
 20
108.585382
 30
0.0
 10
71.407021
 20
108.572643
 30
0.0
 10
71.241876
 20
108.551660
 30
0.0
 10
71.079376
 20
108.522648
 30
0.0
 10
70.919727
 20
108.485807
 30
0.0
 10
70.763136
 20
108.441350
 30
0.0
 10
70.609812
 20
108.389481
 30
0.0
 10
70.459960
 20
108.330405
 30
0.0
 10
70.313790
 20
108.264334
 30
0.0
 10
70.171505
 20
108.191475
 30
0.0
 10
70.033315
 20
108.112033
 30
0.0
 10
69.899429
 20
108.026213
 30
0.0
 10
69.770052
 20
107.934226
 30
0.0
 10
69.645395
 20
107.836278
 30
0.0
 10
69.525658
 20
107.732579
 30
0.0
 10
69.411055
 20
107.623331
 30
0.0
 10
69.301790
 20
107.508746
 30
0.0
 10
69.198073
 20
107.389027
 30
0.0
 10
69.100111
 20
107.264384
 30
0.0
 10
69.008110
 20
107.135021
 30
0.0
 10
68.922276
 20
107.001149
 30
0.0
 10
68.842816
 20
106.862977
 30
0.0
 10
68.769943
 20
106.720705
 30
0.0
 10
68.703859
 20
106.574546
 30
0.0
 10
68.644773
 20
106.424708
 30
0.0
 10
68.592893
 20
106.271391
 30
0.0
 10
68.548425
 20
106.114811
 30
0.0
 10
68.511578
 20
105.955169
 30
0.0
 10
68.482558
 20
105.792676
 30
0.0
 10
68.461572
 20
105.627538
 30
0.0
 10
68.448829
 20
105.459961
 30
0.0
  0
LWPOLYLINE
  5
11b
100
AcDbEntity
  8
Edge.Cuts
 62
1
100
AcDbPolyline
 90
64
 70
1
 10
68.639797
 20
87.079146
 30
0.0
 10
68.648060
 20
86.915545
 30
0.0
 10
68.672310
 20
86.756667
 30
0.0
 10
68.711744
 20
86.603317
 30
0.0
 10
68.765557
 20
86.456301
 30
0.0
 10
68.832944
 20
86.316425
 30
0.0
 10
68.913101
 20
86.184486
 30
0.0
 10
69.005221
 20
86.061297
 30
0.0
 10
69.108504
 20
85.947660
 30
0.0
 10
69.222144
 20
85.844374
 30
0.0
 10
69.345334
 20
85.752253
 30
0.0
 10
69.477272
 20
85.672095
 30
0.0
 10
69.617148
 20
85.604708
 30
0.0
 10
69.764164
 20
85.550895
 30
0.0
 10
69.917513
 20
85.511462
 30
0.0
 10
70.076393
 20
85.487212
 30
0.0
 10
70.239993
 20
85.478950
 30
0.0
 10
70.403534
 20
85.487212
 30
0.0
 10
70.562357
 20
85.511462
 30
0.0
 10
70.715657
 20
85.550895
 30
0.0
 10
70.862634
 20
85.604708
 30
0.0
 10
71.002478
 20
85.672095
 30
0.0
 10
71.134385
 20
85.752253
 30
0.0
 10
71.257554
 20
85.844374
 30
0.0
 10
71.371173
 20
85.947660
 30
0.0
 10
71.474441
 20
86.061297
 30
0.0
 10
71.566551
 20
86.184486
 30
0.0
 10
71.646702
 20
86.316425
 30
0.0
 10
71.714082
 20
86.456301
 30
0.0
 10
71.767891
 20
86.603317
 30
0.0
 10
71.807325
 20
86.756667
 30
0.0
 10
71.831575
 20
86.915545
 30
0.0
 10
71.839837
 20
87.079146
 30
0.0
 10
71.831575
 20
87.242801
 30
0.0
 10
71.807325
 20
87.401711
 30
0.0
 10
71.767891
 20
87.555074
 30
0.0
 10
71.714082
 20
87.702083
 30
0.0
 10
71.646702
 20
87.841945
 30
0.0
 10
71.566551
 20
87.973848
 30
0.0
 10
71.474441
 20
88.096999
 30
0.0
 10
71.371173
 20
88.210590
 30
0.0
 10
71.257554
 20
88.313823
 30
0.0
 10
71.134385
 20
88.405891
 30
0.0
 10
71.002478
 20
88.485996
 30
0.0
 10
70.862634
 20
88.553334
 30
0.0
 10
70.715657
 20
88.607104
 30
0.0
 10
70.562357
 20
88.646506
 30
0.0
 10
70.403534
 20
88.670734
 30
0.0
 10
70.239993
 20
88.678989
 30
0.0
 10
70.076393
 20
88.670734
 30
0.0
 10
69.917513
 20
88.646506
 30
0.0
 10
69.764164
 20
88.607104
 30
0.0
 10
69.617148
 20
88.553334
 30
0.0
 10
69.477272
 20
88.485996
 30
0.0
 10
69.345334
 20
88.405891
 30
0.0
 10
69.222144
 20
88.313823
 30
0.0
 10
69.108507
 20
88.210590
 30
0.0
 10
69.005221
 20
88.096999
 30
0.0
 10
68.913101
 20
87.973848
 30
0.0
 10
68.832944
 20
87.841945
 30
0.0
 10
68.765557
 20
87.702083
 30
0.0
 10
68.711744
 20
87.555074
 30
0.0
 10
68.672310
 20
87.401711
 30
0.0
 10
68.648060
 20
87.242801
 30
0.0
  0
LWPOLYLINE
  5
11c
100
AcDbEntity
  8
Edge.Cuts
 62
1
100
AcDbPolyline
 90
64
 70
1
 10
134.681122
 20
87.079146
 30
0.0
 10
134.689384
 20
86.915545
 30
0.0
 10
134.713634
 20
86.756667
 30
0.0
 10
134.753069
 20
86.603317
 30
0.0
 10
134.806881
 20
86.456301
 30
0.0
 10
134.874269
 20
86.316425
 30
0.0
 10
134.954425
 20
86.184486
 30
0.0
 10
135.046546
 20
86.061297
 30
0.0
 10
135.149828
 20
85.947660
 30
0.0
 10
135.263468
 20
85.844374
 30
0.0
 10
135.386658
 20
85.752253
 30
0.0
 10
135.518597
 20
85.672095
 30
0.0
 10
135.658473
 20
85.604708
 30
0.0
 10
135.805489
 20
85.550895
 30
0.0
 10
135.958837
 20
85.511462
 30
0.0
 10
136.117718
 20
85.487212
 30
0.0
 10
136.281318
 20
85.478950
 30
0.0
 10
136.444915
 20
85.487212
 30
0.0
 10
136.603781
 20
85.511462
 30
0.0
 10
136.757112
 20
85.550895
 30
0.0
 10
136.904107
 20
85.604708
 30
0.0
 10
137.043958
 20
85.672095
 30
0.0
 10
137.175865
 20
85.752253
 30
0.0
 10
137.299023
 20
85.844374
 30
0.0
 10
137.412627
 20
85.947660
 30
0.0
 10
137.515878
 20
86.061297
 30
0.0
 10
137.607971
 20
86.184486
 30
0.0
 10
137.688097
 20
86.316425
 30
0.0
 10
137.755456
 20
86.456301
 30
0.0
 10
137.809247
 20
86.603317
 30
0.0
 10
137.848663
 20
86.756667
 30
0.0
 10
137.872903
 20
86.915545
 30
0.0
 10
137.881161
 20
87.079146
 30
0.0
 10
137.872903
 20
87.242801
 30
0.0
 10
137.848663
 20
87.401711
 30
0.0
 10
137.809247
 20
87.555074
 30
0.0
 10
137.755456
 20
87.702083
 30
0.0
 10
137.688097
 20
87.841945
 30
0.0
 10
137.607971
 20
87.973848
 30
0.0
 10
137.515878
 20
88.096999
 30
0.0
 10
137.412631
 20
88.210590
 30
0.0
 10
137.299023
 20
88.313823
 30
0.0
 10
137.175865
 20
88.405891
 30
0.0
 10
137.043958
 20
88.485996
 30
0.0
 10
136.904107
 20
88.553334
 30
0.0
 10
136.757112
 20
88.607104
 30
0.0
 10
136.603781
 20
88.646506
 30
0.0
 10
136.444915
 20
88.670734
 30
0.0
 10
136.281318
 20
88.678989
 30
0.0
 10
136.117718
 20
88.670734
 30
0.0
 10
135.958837
 20
88.646506
 30
0.0
 10
135.805489
 20
88.607104
 30
0.0
 10
135.658473
 20
88.553334
 30
0.0
 10
135.518597
 20
88.485996
 30
0.0
 10
135.386658
 20
88.405891
 30
0.0
 10
135.263468
 20
88.313823
 30
0.0
 10
135.149832
 20
88.210590
 30
0.0
 10
135.046546
 20
88.096999
 30
0.0
 10
134.954425
 20
87.973848
 30
0.0
 10
134.874269
 20
87.841945
 30
0.0
 10
134.806881
 20
87.702083
 30
0.0
 10
134.753069
 20
87.555074
 30
0.0
 10
134.713634
 20
87.401711
 30
0.0
 10
134.689384
 20
87.242801
 30
0.0
  0
LWPOLYLINE
  5
11d
100
AcDbEntity
  8
Edge.Cuts
 62
1
100
AcDbPolyline
 90
4
 70
1
 10
143.640172
 20
84.080501
 30
0.0
 10
62.740314
 20
84.080501
 30
0.0
 10
62.740314
 20
212.580194
 30
0.0
 10
143.640172
 20
212.580194
 30
0.0
  0
ENDSEC
  0
SECTION
  2
OBJECTS
  0
DICTIONARY
  5
C
330
0
100
AcDbDictionary
  3
ACAD_GROUP
350
D
  3
ACAD_MLINESTYLE
350
17
  0
DICTIONARY
  5
D
330
C
100
AcDbDictionary
  0
DICTIONARY
  5
1A
330
C
100
AcDbDictionary
  0
DICTIONARY
  5
17
330
C
100
AcDbDictionary
  3
STANDARD
350
18
  0
DICTIONARY
  5
19
330
C
100
AcDbDictionary
  0
ENDSEC
  0
EOF
