<?xml version="1.0" encoding="UTF-8" standalone="no"?>
<!-- Created with Inkscape (http://www.inkscape.org/) -->

<svg
   version="1.1"
   id="svg824"
   xml:space="preserve"
   width="210.00156mm"
   height="297.00009mm"
   viewBox="0 0 793.70667 1122.52"
   sodipodi:docname="grids.ai.svg"
   inkscape:version="1.1.2 (b8e25be8, 2022-02-05)"
   xmlns:inkscape="http://www.inkscape.org/namespaces/inkscape"
   xmlns:sodipodi="http://sodipodi.sourceforge.net/DTD/sodipodi-0.dtd"
   xmlns="http://www.w3.org/2000/svg"
   xmlns:svg="http://www.w3.org/2000/svg"><defs
     id="defs828"><clipPath
       clipPathUnits="userSpaceOnUse"
       id="clipPath840"><path
         d="m 265.412,374.798 h 142.18 v 196.744 h -142.18 z"
         id="path838" /></clipPath><clipPath
       clipPathUnits="userSpaceOnUse"
       id="clipPath1704"><path
         d="M 0,841.89 H 595.28 V 0 H 0 Z"
         id="path1702" /></clipPath><clipPath
       clipPathUnits="userSpaceOnUse"
       id="clipPath2374"><path
         d="M 0,841.89 H 595.28 V 0 H 0 Z"
         id="path2372" /></clipPath><clipPath
       clipPathUnits="userSpaceOnUse"
       id="clipPath840-9"><path
         d="m 265.412,374.798 h 142.18 v 196.744 h -142.18 z"
         id="path838-3" /></clipPath></defs><sodipodi:namedview
     id="namedview826"
     pagecolor="#ffffff"
     bordercolor="#666666"
     borderopacity="1.0"
     inkscape:pageshadow="2"
     inkscape:pageopacity="0.0"
     inkscape:pagecheckerboard="0"
     showgrid="false"
     units="mm"
     inkscape:zoom="0.98136005"
     inkscape:cx="390.7842"
     inkscape:cy="568.59865"
     inkscape:window-width="1280"
     inkscape:window-height="706"
     inkscape:window-x="0"
     inkscape:window-y="23"
     inkscape:window-maximized="0"
     inkscape:current-layer="layer2"
     inkscape:document-units="mm" /><g
     id="g830"
     inkscape:groupmode="layer"
     inkscape:label="grids"
     transform="matrix(1.3333333,0,0,-1.3333333,0,1122.52)"><g
       id="g2368"><g
         id="g2370"
         clip-path="url(#clipPath2374)"><g
           id="g2376"
           transform="translate(194.5693,594.0913)" /><g
           id="g2380"
           transform="translate(381.7734,594.0913)" /><g
           id="g2384"
           transform="translate(372.2207,287.6591)" /><g
           id="g2388"
           transform="translate(303.8193,287.6591)" /><g
           id="g2392"
           transform="translate(338.0342,287.6591)" /><g
           id="g2396"
           transform="translate(372.2217,321.8457)" /><g
           id="g2400"
           transform="translate(303.8203,321.8457)" /><g
           id="g2404"
           transform="translate(338.0352,321.8457)" /><g
           id="g2408"
           transform="translate(372.2217,356.0595)" /><g
           id="g2412"
           transform="translate(303.8203,356.0595)" /><g
           id="g2416"
           transform="translate(338.0352,356.0595)" /><g
           id="g2420"
           transform="translate(308.4971,384.8603)" /><g
           id="g2424"
           transform="translate(342.7119,384.8603)" /><g
           id="g2428"
           transform="translate(376.8984,384.8603)" /><g
           id="g2432"
           transform="translate(302.543,543.2651)" /><g
           id="g2436"
           transform="translate(336.7588,482.0629)" /><g
           id="g2440"
           transform="translate(370.9453,420.8613)" /><g
           id="g2444"
           transform="translate(194.0166,543.2651)" /><g
           id="g2448"
           transform="translate(194.0166,482.0629)" /><g
           id="g2452"
           transform="translate(194.0166,420.8613)" /><g
           id="g2456"
           transform="translate(194.0166,359.6601)" /><g
           id="g2460"
           transform="translate(194.0161,298.4599)" /><g
           id="g2464"
           transform="translate(234.1563,543.2651)" /><g
           id="g2468"
           transform="translate(234.1563,420.8613)" /><g
           id="g2472"
           transform="translate(234.1563,359.6601)" /><g
           id="g2476"
           transform="translate(234.1563,298.4599)" /><g
           id="g2480"
           transform="translate(233.022,482.0629)" /><g
           id="g2484"
           transform="translate(194.5693,246.8388)" /><g
           id="g2488"
           transform="translate(381.7734,246.8388)" /></g></g></g><g
     inkscape:groupmode="layer"
     id="layer1"
     inkscape:label="Edge.Cuts"><path
       d="m 0,0 0.0234207,-0.463753 0.0687414,-0.450362 0.1117819,-0.434695 0.15254,-0.41674 0.19102,-0.3965 0.227217,-0.374 0.261129,-0.3492 0.29277,-0.32212 0.32213,-0.29278 0.3492,-0.26113 0.374,-0.22722 0.3965,-0.19102 0.41674,-0.15254 0.43469,-0.11178 0.45037,-0.06874 0.46375,-0.02342 0.46358,0.02342 0.45021,0.06874 0.43455,0.11178 0.41663,0.15254 0.39641,0.19102 0.37391,0.22722 0.34914,0.26113 0.32207,0.29278 0.29273,0.32212 0.2611,0.3492 0.2272,0.374 0.191,0.3965 0.15253,0.41674 0.11178,0.434695 0.06874,0.450362 L 9.071,0 9.04758,0.463753 8.97884,0.914115 8.86706,1.34881 8.71453,1.76555 l -0.191,0.3965 -0.2272,0.374 -0.2611,0.3492 L 7.7425,3.20737 7.42043,3.50015 7.07129,3.76128 6.69738,3.9885 6.30097,4.17952 5.88434,4.33206 5.44979,4.44384 4.99958,4.51258 4.536,4.536 4.07225,4.51258 3.62188,4.44384 3.18719,4.33206 2.77045,4.17952 2.37395,3.9885 1.99995,3.76128 1.65075,3.50015 1.32863,3.20737 1.03585,2.88525 0.774721,2.53605 0.547504,2.16205 0.356484,1.76555 0.203944,1.34881 0.0921621,0.914115 0.0234207,0.463753 0,0"
       style="fill:none;stroke:#e30613;stroke-width:0.283;stroke-linecap:round;stroke-linejoin:round;stroke-miterlimit:10;stroke-dasharray:none;stroke-opacity:1"
       id="path2378"
       transform="matrix(1.33333,0,0,-1.33333,259.426,330.398)" /><path
       d="m 0,0 0.0234207,-0.463753 0.0687414,-0.450362 0.1117819,-0.434695 0.15254,-0.41674 0.19102,-0.3965 0.227217,-0.374 0.261129,-0.3492 0.29277,-0.32212 0.32213,-0.29278 0.3492,-0.26113 0.374,-0.22722 0.3965,-0.19102 0.41674,-0.15254 0.43469,-0.11178 0.45037,-0.06874 0.46375,-0.02342 0.46374,0.02342 0.45033,0.06874 0.43464,0.11178 0.41668,0.15254 0.39643,0.19102 0.37391,0.22722 0.34911,0.26113 0.32203,0.29278 0.29268,0.32212 0.26105,0.3492 0.22713,0.374 0.19094,0.3965 0.15248,0.41674 0.11173,0.434695 0.06871,0.450362 L 9.071,0 9.04759,0.463753 8.97888,0.914115 8.86715,1.34881 8.71467,1.76555 8.52373,2.16205 8.2966,2.53605 8.03555,2.88525 7.74288,3.20737 7.42084,3.50015 7.07173,3.76128 6.69782,3.9885 6.30139,4.17952 5.88471,4.33206 5.45007,4.44384 4.99974,4.51258 4.536,4.536 4.07225,4.51258 3.62188,4.44384 3.18719,4.33206 2.77045,4.17952 2.37395,3.9885 1.99995,3.76128 1.65075,3.50015 1.32863,3.20737 1.03585,2.88525 0.774721,2.53605 0.547504,2.16205 0.356484,1.76555 0.203944,1.34881 0.0921621,0.914115 0.0234207,0.463753 0,0"
       style="fill:none;stroke:#e30613;stroke-width:0.283;stroke-linecap:round;stroke-linejoin:round;stroke-miterlimit:10;stroke-dasharray:none;stroke-opacity:1"
       id="path2382"
       transform="matrix(1.33333,0,0,-1.33333,509.031,330.398)" /><path
       d="m 0,0 0.0121716,-0.481437 0.0361228,-0.475108 0.0594866,-0.468195 0.082262,-0.46068 0.10445,-0.4526 0.12605,-0.44392 0.147063,-0.43465 0.167488,-0.4248 0.187324,-0.41436 0.206572,-0.40333 0.22524,-0.39172 0.24331,-0.37952 0.26079,-0.36673 0.27769,-0.35335 0.294,-0.33939 0.30973,-0.32484 0.32486,-0.3097 0.33941,-0.29397 0.35336,-0.27766 0.36674,-0.26077 0.37952,-0.24328 0.39172,-0.2252 0.40333,-0.20654 0.41434,-0.1873 L 6.13781,-8.78651 6.57243,-8.93354 7.01631,-9.05957 7.46886,-9.164 7.92949,-9.24624 8.39762,-9.30572 8.87265,-9.34183 9.354,-9.354 l 0.48144,0.01217 0.47506,0.03611 0.4682,0.05948 0.4607,0.08224 0.4526,0.10443 0.4439,0.12603 0.4347,0.14703 0.4248,0.16746 0.4144,0.1873 0.4033,0.20654 0.3917,0.2252 0.3795,0.24328 0.3667,0.26077 0.3534,0.27766 0.3394,0.29397 0.3248,0.30971 0.3097,0.32483 0.294,0.33939 0.2777,0.35335 0.2607,0.36673 0.2433,0.37952 0.2252,0.39172 0.2066,0.40333 0.1872,0.41436 0.1675,0.4248 0.147,0.43465 0.1261,0.44392 0.1044,0.4526 0.0822,0.46068 0.0595,0.468195 0.0361,0.475108 L 18.708,0 18.6958,0.481349 18.6597,0.95638 18.6002,1.42451 18.518,1.88514 18.4136,2.33769 18.2875,2.78157 18.1405,3.21619 17.973,3.64097 17.7858,4.05531 17.5792,4.45864 17.354,4.85036 17.1107,5.22988 16.85,5.59662 16.5723,5.94998 16.2783,6.28939 15.9686,6.61425 15.6438,6.92398 15.3044,7.21798 14.951,7.49567 14.5843,7.75646 14.2048,7.99977 13.8131,8.22501 13.4098,8.43158 12.9954,8.61891 12.5706,8.78639 12.1359,8.93346 11.692,9.05951 11.2394,9.16396 10.7787,9.24622 10.3105,9.30571 9.83544,9.34183 9.354,9.354 8.87265,9.34183 8.39762,9.30571 7.92949,9.24622 7.46886,9.16396 7.01631,9.05951 6.57243,8.93346 6.13781,8.78639 5.71303,8.61891 5.29869,8.43158 4.89536,8.22501 4.50364,7.99977 4.12412,7.75646 3.75738,7.49567 3.40402,7.21798 3.06461,6.92398 2.73975,6.61425 2.43002,6.28939 2.13602,5.94998 1.85833,5.59662 1.59754,5.22988 1.35423,4.85036 1.12899,4.45864 0.922418,4.05531 0.735094,3.64097 0.567606,3.21619 0.420543,2.78157 0.294493,2.33769 0.190043,1.88514 0.107781,1.42451 0.0482944,0.95638 0.0121716,0.481349 0,0"
       style="fill:none;stroke:#e30613;stroke-width:0.283;stroke-linecap:round;stroke-linejoin:round;stroke-miterlimit:10;stroke-dasharray:none;stroke-opacity:1"
       id="path2446"
       transform="matrix(1.33333,0,0,-1.33333,258.689,398.167)" /><path
       d="M 0,0 0.0138311,-0.547125 0.0548792,-1.08706 0.122476,-1.61912 0.215955,-2.14266 0.334647,-2.65701 0.477885,-3.16149 0.645002,-3.65544 0.835328,-4.13819 1.0482,-4.60907 1.28294,-5.06743 1.53889,-5.51258 1.81538,-5.94387 2.11174,-6.36062 2.42731,-6.76217 2.76141,-7.14785 3.11338,-7.517 l 0.36916,-0.35194 0.3857,-0.33408 0.40157,-0.31553 0.41676,-0.29633 0.43129,-0.27646 0.44516,-0.25592 0.45834,-0.23471 0.47087,-0.21284 0.48273,-0.1903 0.49392,-0.16709 0.50445,-0.1432 0.51429,-0.1187 0.52349,-0.0934 0.532,-0.0676 0.53989,-0.0411 0.547,-0.0138 0.5469,0.0138 0.5398,0.0411 0.532,0.0676 0.5234,0.0934 0.5142,0.1187 0.5044,0.1432 0.4939,0.16709 0.4827,0.1903 0.4709,0.21284 0.4583,0.23471 0.4452,0.25592 0.4313,0.27646 0.4168,0.29633 0.4015,0.31553 0.3858,0.33408 0.3692,0.35194 0.3519,0.36915 0.3342,0.38568 0.3156,0.40155 0.2964,0.41675 0.2765,0.43129 0.256,0.44515 0.2347,0.45836 0.2129,0.47088 0.1904,0.48275 0.1671,0.49395 0.1433,0.50448 0.1187,0.51435 0.0935,0.52354 0.0676,0.53206 0.0411,0.539935 L 21.26,0 21.2462,0.546949 21.2051,1.08673 21.1375,1.61866 21.044,2.14209 l -0.1187,0.51425 -0.1433,0.5044 -0.1671,0.4939 -0.1904,0.4827 -0.2129,0.47086 -0.2347,0.45834 -0.256,0.44515 -0.2765,0.4313 -0.2964,0.41677 -0.3156,0.40158 -0.3342,0.38572 -0.3519,0.36919 -0.3692,0.35199 -0.3858,0.33413 -0.4015,0.31559 -0.4168,0.2964 -0.4313,0.27652 -0.4452,0.25598 -0.4583,0.23477 -0.4709,0.2129 -0.4827,0.19036 -0.4939,0.16711 -0.5044,0.1433 -0.5142,0.1187 -0.5234,0.0935 -0.532,0.0676 -0.5398,0.0411 L 10.63,10.63 10.083,10.6162 9.54311,10.5751 9.01111,10.5075 8.48762,10.414 7.97333,10.2953 7.46888,10.152 6.97496,9.98489 6.49223,9.79453 6.02136,9.58163 5.56302,9.34686 5.11786,9.09088 4.68657,8.81436 4.26981,8.51796 3.86824,8.20237 3.48254,7.86824 3.11338,7.51625 2.76141,7.14706 2.42731,6.76134 2.11174,6.35976 1.81538,5.94299 1.53889,5.51169 1.28294,5.06654 1.0482,4.6082 0.835328,4.13734 0.645002,3.65464 0.477885,3.16074 0.334647,2.65634 0.215955,2.14209 0.122476,1.61866 0.0548792,1.08673 0.0138311,0.546949 0,0"
       style="fill:none;stroke:#e30613;stroke-width:0.283;stroke-linecap:round;stroke-linejoin:round;stroke-miterlimit:10;stroke-dasharray:none;stroke-opacity:1"
       id="path2466"
       transform="matrix(1.33333,0,0,-1.33333,312.208,398.167)" /><path
       d="M 0,0 0.013834,-0.547125 0.0548904,-1.08706 0.122501,-1.61912 0.215998,-2.14266 0.334713,-2.65701 0.477978,-3.16149 0.645124,-3.65544 0.835484,-4.13819 1.04839,-4.60907 1.28317,-5.06743 1.53916,-5.51258 1.8157,-5.94387 2.1121,-6.36062 2.42771,-6.76217 2.76186,-7.14785 3.11388,-7.517 l 0.36921,-0.35194 0.38575,-0.33408 0.40161,-0.31553 0.41681,-0.29633 0.43133,-0.27646 0.44519,-0.25592 0.45839,-0.23471 0.47091,-0.21284 0.48276,-0.1903 0.49395,-0.16709 0.50447,-0.1432 0.51432,-0.1187 0.5235,-0.0934 0.53202,-0.0676 0.5399,-0.0411 0.547,-0.0138 0.547,0.0138 0.5399,0.0411 0.532,0.0676 0.5235,0.0934 0.5143,0.1187 0.5044,0.1432 0.4939,0.16709 0.4828,0.1903 0.4708,0.21284 0.4584,0.23471 0.4451,0.25592 0.4313,0.27646 0.4168,0.29633 0.4016,0.31553 0.3857,0.33408 0.3691,0.35194 0.352,0.36915 0.3341,0.38568 0.3156,0.40155 0.2963,0.41675 0.2765,0.43129 0.256,0.44515 0.2347,0.45836 0.2129,0.47088 0.1903,0.48275 0.1671,0.49395 0.1433,0.50448 0.1186,0.51435 0.0935,0.52354 0.0676,0.53206 0.0411,0.539935 L 21.261,0 21.2472,0.546949 21.2061,1.08673 21.1385,1.61866 21.045,2.14209 l -0.1186,0.51425 -0.1433,0.5044 -0.1671,0.4939 -0.1903,0.4827 -0.2129,0.47086 -0.2347,0.45834 -0.256,0.44515 -0.2765,0.4313 -0.2963,0.41677 -0.3156,0.40158 -0.3341,0.38572 -0.352,0.36919 -0.3691,0.35199 -0.3857,0.33413 -0.4016,0.31559 -0.4168,0.2964 -0.4313,0.27652 -0.4451,0.25598 -0.4584,0.23477 -0.4708,0.2129 -0.4828,0.19036 -0.4939,0.16711 -0.5044,0.1433 -0.5143,0.1187 -0.5235,0.0935 -0.532,0.0676 L 11.178,10.6162 10.631,10.63 10.084,10.6162 9.5441,10.5751 9.01208,10.5075 8.48858,10.414 7.97426,10.2953 7.46979,10.152 6.97584,9.98489 6.49308,9.79453 6.02217,9.58163 5.56378,9.34686 5.11859,9.09088 4.68726,8.81436 4.27045,8.51796 3.86884,8.20237 3.48309,7.86824 3.11388,7.51625 2.76186,7.14706 2.42771,6.76134 2.1121,6.35976 1.8157,5.94299 1.53916,5.51169 1.28317,5.06654 1.04839,4.6082 0.835484,4.13734 0.645124,3.65464 0.477978,3.16074 0.334713,2.65634 0.215998,2.14209 0.122501,1.61866 0.0548904,1.08673 0.013834,0.546949 0,0"
       style="fill:none;stroke:#e30613;stroke-width:0.283;stroke-linecap:round;stroke-linejoin:round;stroke-miterlimit:10;stroke-dasharray:none;stroke-opacity:1"
       id="path2434"
       transform="matrix(1.33333,0,0,-1.33333,403.391,398.167)" /><path
       d="m 0,0 0.0138311,-0.546949 0.0410481,-0.539781 0.0675968,-0.53193 0.093479,-0.52343 0.118692,-0.51425 0.143238,-0.5044 0.167117,-0.4939 0.190326,-0.4827 0.212872,-0.47086 0.23474,-0.45834 0.25595,-0.44515 0.27649,-0.4313 0.29636,-0.41677 0.31557,-0.40158 0.3341,-0.38572 0.35197,-0.36919 0.36916,-0.35199 0.3857,-0.33413 0.40157,-0.31559 0.41676,-0.2964 0.43129,-0.27652 0.44516,-0.25598 0.45834,-0.23477 0.47087,-0.2129 0.48273,-0.19036 0.49392,-0.16711 0.50445,-0.1433 0.51429,-0.1187 0.52349,-0.0935 0.532,-0.0676 0.53989,-0.0411 0.547,-0.0138 0.5471,0.0138 0.54,0.0411 0.532,0.0676 0.5236,0.0935 0.5144,0.1187 0.5045,0.1433 0.494,0.16711 0.4827,0.19036 0.471,0.2129 0.4584,0.23477 0.4452,0.25598 0.4313,0.27652 0.4168,0.2964 0.4016,0.31559 0.3857,0.33413 0.3692,0.35199 0.352,0.36919 0.3341,0.38572 0.3156,0.40158 0.2964,0.41677 0.2765,0.4313 0.2559,0.44515 0.2348,0.45834 0.2129,0.47086 0.1903,0.4827 0.1671,0.4939 0.1432,0.5044 0.1187,0.51425 0.0935,0.52343 0.0676,0.53193 0.0411,0.539781 L 21.261,0 21.2472,0.547037 21.2061,1.08689 21.1385,1.61889 21.045,2.14238 20.9263,2.65667 20.7831,3.16112 20.616,3.65504 20.4257,4.13777 20.2128,4.60864 19.978,5.06698 l -0.2559,0.44516 -0.2765,0.43129 -0.2964,0.41676 -0.3156,0.40157 -0.3341,0.3857 -0.352,0.36917 -0.3692,0.35196 -0.3857,0.3341 -0.4016,0.31557 -0.4168,0.29636 -0.4313,0.27649 -0.4452,0.25595 -0.4584,0.23474 -0.471,0.21287 -0.4827,0.19033 -0.494,0.1671 -0.5045,0.1433 -0.5144,0.1186 -0.5236,0.0935 -0.532,0.0676 -0.54,0.0411 L 10.63,10.63 10.083,10.6162 9.54311,10.5751 9.01111,10.5075 8.48762,10.414 7.97333,10.2954 7.46888,10.1521 6.97496,9.985 6.49223,9.79467 6.02136,9.5818 5.56302,9.34706 5.11786,9.09111 4.68657,8.81462 4.26981,8.51826 3.86824,8.20269 3.48254,7.86859 3.11338,7.51663 2.76141,7.14746 2.42731,6.76176 2.11174,6.36019 1.81538,5.94343 1.53889,5.51214 1.28294,5.06698 1.0482,4.60864 0.835328,4.13777 0.645002,3.65504 0.477885,3.16112 0.334647,2.65667 0.215955,2.14238 0.122476,1.61889 0.0548792,1.08689 0.0138311,0.547037 0,0"
       style="fill:none;stroke:#e30613;stroke-width:0.283;stroke-linecap:round;stroke-linejoin:round;stroke-miterlimit:10;stroke-dasharray:none;stroke-opacity:1"
       id="path2438"
       transform="matrix(1.33333,0,0,-1.33333,449.012,479.769)" /><path
       d="M 0,0 0.0153103,-0.605276 0.0607483,-1.20261 0.135574,-1.79127 0.239049,-2.3705 0.370432,-2.93958 0.528985,-3.49776 0.713968,-4.0443 0.924641,-4.57847 1.16026,-5.09952 1.4201,-5.60671 l 0.28331,-0.4926 0.30603,-0.47726 0.32803,-0.46119 0.34929,-0.44438 0.36979,-0.42683 0.38958,-0.40853 0.4086,-0.3895 0.4269,-0.36973 0.44445,-0.34922 0.46127,-0.32798 0.47735,-0.30597 0.49268,-0.2833 0.50728,-0.2598 0.52114,-0.2355 0.53425,-0.2107 0.54663,-0.1849 0.55827,-0.1585 0.56917,-0.1314 0.57933,-0.1035 0.58875,-0.0748 0.5974,-0.0454 0.6054,-0.0153 0.6053,0.0153 0.5973,0.0454 0.5887,0.0748 0.5792,0.1035 0.5691,0.1314 0.5582,0.1585 0.5465,0.1849 0.5342,0.2107 0.521,0.2355 0.5072,0.2598 0.4926,0.2833 0.4773,0.30597 0.4612,0.32798 0.4443,0.34922 0.4269,0.36973 0.4085,0.3895 0.3895,0.40853 0.3697,0.42683 0.3493,0.44438 0.3279,0.46119 0.306,0.47726 0.2833,0.4926 0.2598,0.50719 0.2355,0.52105 0.2107,0.53417 0.1849,0.54654 0.1585,0.55818 0.1314,0.56908 0.1035,0.57923 0.0748,0.58866 0.0454,0.597334 L 23.528,0 23.5127,0.605455 23.4673,1.20295 23.3925,1.79175 23.289,2.37112 23.1576,2.94031 22.9991,3.4986 22.8142,4.04523 22.6035,4.57947 22.368,5.10058 l -0.2598,0.50725 -0.2833,0.49264 -0.306,0.4773 -0.3279,0.46122 -0.3493,0.44439 -0.3697,0.42683 -0.3895,0.40854 -0.4085,0.3895 -0.4269,0.36972 -0.4443,0.34921 -0.4612,0.32796 -0.4773,0.30596 -0.4926,0.2832 -0.5072,0.2598 -0.521,0.2356 -0.5342,0.2106 -0.5465,0.1849 -0.5582,0.1585 -0.5691,0.1313 -0.5792,0.1035 -0.5887,0.0748 -0.5973,0.0454 L 11.765,11.764 11.1596,11.7487 10.5622,11.7033 9.97345,11.6285 9.39412,11.525 8.82495,11.3937 8.26668,11.2352 7.72005,11.0503 7.1858,10.8397 6.66466,10.6041 6.15738,10.3443 5.6647,10.0611 5.18735,9.75514 4.72608,9.42718 4.28163,9.07797 3.85473,8.70825 3.44612,8.31875 3.05655,7.91021 2.68676,7.48338 2.33747,7.03899 2.00944,6.57777 1.70341,6.10047 1.4201,5.60783 1.16026,5.10058 0.924641,4.57947 0.713968,4.04523 0.528985,3.4986 0.370432,2.94031 0.239049,2.37112 0.135574,1.79175 0.0607483,1.20295 0.0153103,0.605455 0,0"
       style="fill:none;stroke:#e30613;stroke-width:0.283;stroke-linecap:round;stroke-linejoin:round;stroke-miterlimit:10;stroke-dasharray:none;stroke-opacity:1"
       id="path2482"
       transform="matrix(1.33333,0,0,-1.33333,310.696,479.769)" /><path
       d="m 0,0 0.0121716,-0.481346 0.0361228,-0.475023 0.0594866,-0.468111 0.082262,-0.46061 0.10445,-0.45253 0.12605,-0.44385 0.147063,-0.4346 0.167488,-0.42474 0.187324,-0.41431 0.206572,-0.40329 0.22524,-0.39167 0.24331,-0.37948 0.26079,-0.3667 0.27769,-0.35332 0.294,-0.33936 L 2.73975,-6.61375 3.06461,-6.92343 3.40402,-7.21738 3.75738,-7.49503 4.12412,-7.75578 4.50364,-7.99905 4.89536,-8.22424 5.29869,-8.43077 5.71303,-8.61806 6.13781,-8.78552 6.57243,-8.93255 7.01631,-9.05857 7.46886,-9.163 7.92949,-9.24524 8.39762,-9.30472 8.87265,-9.34083 9.354,-9.353 l 0.48144,0.01217 0.47506,0.03611 0.4682,0.05948 0.4607,0.08224 0.4526,0.10443 0.4439,0.12602 0.4347,0.14703 0.4248,0.16746 0.4144,0.18729 0.4033,0.20653 0.3917,0.22519 0.3795,0.24327 0.3667,0.26075 0.3534,0.27765 0.3394,0.29395 0.3248,0.30968 0.3097,0.32481 0.294,0.33936 0.2777,0.35332 0.2607,0.3667 0.2433,0.37948 0.2252,0.39167 0.2066,0.40329 0.1872,0.41431 0.1675,0.42474 0.147,0.4346 0.1261,0.44385 0.1044,0.45253 0.0822,0.46061 0.0595,0.468111 0.0361,0.475023 L 18.708,0 18.6958,0.481437 18.6597,0.956545 18.6002,1.42474 18.518,1.88542 18.4136,2.33802 18.2875,2.78194 18.1405,3.21659 17.973,3.64139 17.7858,4.05575 17.5792,4.45908 17.354,4.8508 17.1107,5.23032 16.85,5.59705 16.5723,5.9504 16.2783,6.28979 15.9686,6.61463 15.6438,6.92433 15.3044,7.2183 14.951,7.49596 14.5843,7.75673 14.2048,8.00001 13.8131,8.22521 13.4098,8.43175 12.9954,8.61905 12.5706,8.78651 12.1359,8.93354 11.692,9.05957 11.2394,9.164 10.7787,9.24624 10.3105,9.30572 9.83544,9.34183 9.354,9.354 8.87265,9.34183 8.39762,9.30572 7.92949,9.24624 7.46886,9.164 7.01631,9.05957 6.57243,8.93354 6.13781,8.78651 5.71303,8.61905 5.29869,8.43175 4.89536,8.22521 4.50364,8.00001 4.12412,7.75673 3.75738,7.49596 3.40402,7.2183 3.06461,6.92433 2.73975,6.61463 2.43002,6.28979 2.13602,5.9504 1.85833,5.59705 1.59754,5.23032 1.35423,4.8508 1.12899,4.45908 0.922418,4.05575 0.735094,3.64139 0.567606,3.21659 0.420543,2.78194 0.294493,2.33802 0.190043,1.88542 0.107781,1.42474 0.0482944,0.956545 0.0121716,0.481437 0,0"
       style="fill:none;stroke:#e30613;stroke-width:0.283;stroke-linecap:round;stroke-linejoin:round;stroke-miterlimit:10;stroke-dasharray:none;stroke-opacity:1"
       id="path2450"
       transform="matrix(1.33333,0,0,-1.33333,258.689,479.769)" /><path
       d="M 0,0 0.0121716,-0.481258 0.0482944,-0.956204 0.107781,-1.42425 0.190043,-1.88481 0.294493,-2.33729 0.420543,-2.7811 0.567606,-3.21567 0.735094,-3.64039 0.922418,-4.05469 1.12899,-4.45797 1.35423,-4.84964 1.59754,-5.22912 1.85833,-5.59583 2.13602,-5.94916 2.43002,-6.28854 2.73975,-6.61338 3.06461,-6.92308 3.40402,-7.21706 3.75738,-7.49474 4.12412,-7.75552 4.50364,-7.99881 4.89536,-8.22404 5.29869,-8.4306 5.71303,-8.61792 6.13781,-8.7854 6.57243,-8.93246 7.01631,-9.05851 7.46886,-9.16296 7.92949,-9.24522 8.39762,-9.30471 8.87265,-9.34083 9.354,-9.353 l 0.48144,0.01217 0.47506,0.03612 0.4682,0.05949 0.4607,0.08226 0.4526,0.10445 0.4439,0.12605 0.4347,0.14706 0.4248,0.16748 0.4144,0.18732 0.4033,0.20656 0.3917,0.22523 0.3795,0.24329 0.3667,0.26078 0.3534,0.27768 0.3394,0.29398 0.3248,0.3097 0.3097,0.32484 0.294,0.33938 0.2777,0.35333 0.2607,0.36671 0.2433,0.37948 0.2252,0.39167 0.2066,0.40328 0.1872,0.4143 0.1675,0.42472 0.147,0.43457 0.1261,0.44381 0.1044,0.45248 0.0822,0.46056 0.0595,0.468046 0.0361,0.474946 L 18.708,0 18.6958,0.481437 18.6597,0.956545 18.6002,1.42474 18.518,1.88542 18.4136,2.33802 18.2875,2.78194 18.1405,3.21659 17.973,3.64139 17.7858,4.05575 17.5792,4.45908 17.354,4.8508 17.1107,5.23032 16.85,5.59705 16.5723,5.9504 16.2783,6.28979 15.9686,6.61463 15.6438,6.92433 15.3044,7.2183 14.951,7.49596 14.5843,7.75673 14.2048,8.00001 13.8131,8.22521 13.4098,8.43175 12.9954,8.61905 12.5706,8.78651 12.1359,8.93354 11.692,9.05957 11.2394,9.164 10.7787,9.24624 10.3105,9.30572 9.83544,9.34183 9.354,9.354 8.87265,9.34183 8.39762,9.30572 7.92949,9.24624 7.46886,9.164 7.01631,9.05957 6.57243,8.93354 6.13781,8.78651 5.71303,8.61905 5.29869,8.43175 4.89536,8.22521 4.50364,8.00001 4.12412,7.75673 3.75738,7.49596 3.40402,7.2183 3.06461,6.92433 2.73975,6.61463 2.43002,6.28979 2.13602,5.9504 1.85833,5.59705 1.59754,5.23032 1.35423,4.8508 1.12899,4.45908 0.922418,4.05575 0.735094,3.64139 0.567606,3.21659 0.420543,2.78194 0.294493,2.33802 0.190043,1.88542 0.107781,1.42474 0.0482944,0.956545 0.0121716,0.481437 0,0"
       style="fill:none;stroke:#e30613;stroke-width:0.283;stroke-linecap:round;stroke-linejoin:round;stroke-miterlimit:10;stroke-dasharray:none;stroke-opacity:1"
       id="path2454"
       transform="matrix(1.33333,0,0,-1.33333,258.689,561.372)" /><path
       d="m 0,0 0.0138311,-0.547037 0.0410481,-0.539853 0.0675968,-0.532 0.093479,-0.52349 0.118692,-0.51429 0.143238,-0.50445 0.167117,-0.49392 0.190326,-0.48273 0.212872,-0.47087 0.23474,-0.45834 0.25595,-0.44516 0.27649,-0.43129 0.29636,-0.41676 0.31557,-0.40157 0.3341,-0.3857 0.35197,-0.36917 0.36916,-0.35196 0.3857,-0.3341 0.40157,-0.31557 0.41676,-0.29636 0.43129,-0.27649 0.44516,-0.25595 0.45834,-0.23474 0.47087,-0.21287 0.48273,-0.19033 0.49392,-0.1671 0.50445,-0.1433 0.51429,-0.1186 0.52349,-0.0935 0.532,-0.0676 0.53989,-0.0411 0.547,-0.0138 0.5469,0.0138 0.5398,0.0411 0.532,0.0676 0.5234,0.0935 0.5142,0.1186 0.5044,0.1433 0.4939,0.1671 0.4827,0.19033 0.4709,0.21287 0.4583,0.23474 0.4452,0.25595 0.4313,0.27649 0.4168,0.29636 0.4015,0.31557 0.3858,0.3341 0.3692,0.35196 0.3519,0.36917 0.3342,0.3857 0.3156,0.40157 0.2964,0.41676 0.2765,0.43129 0.256,0.44516 0.2347,0.45834 0.2129,0.47087 0.1904,0.48273 0.1671,0.49392 0.1433,0.50445 0.1187,0.51429 0.0935,0.52349 0.0676,0.532 0.0411,0.539853 L 21.26,0 21.2462,0.547037 21.2051,1.08689 21.1375,1.61889 21.044,2.14238 20.9253,2.65667 20.782,3.16112 20.6149,3.65504 20.4245,4.13777 20.2116,4.60864 19.9769,5.06698 19.7209,5.51214 19.4444,5.94343 19.148,6.36019 18.8324,6.76176 18.4982,7.14746 18.1463,7.51663 17.7771,7.86859 17.3913,8.20269 16.9898,8.51826 16.573,8.81462 16.1417,9.09111 15.6965,9.34706 15.2382,9.5818 14.7673,9.79467 14.2846,9.985 l -0.4939,0.1671 -0.5044,0.1433 -0.5142,0.1186 -0.5234,0.0935 -0.532,0.0676 -0.5398,0.0411 L 10.63,10.63 10.083,10.6162 9.54311,10.5751 9.01111,10.5075 8.48762,10.414 7.97333,10.2954 7.46888,10.1521 6.97496,9.985 6.49223,9.79467 6.02136,9.5818 5.56302,9.34706 5.11786,9.09111 4.68657,8.81462 4.26981,8.51826 3.86824,8.20269 3.48254,7.86859 3.11338,7.51663 2.76141,7.14746 2.42731,6.76176 2.11174,6.36019 1.81538,5.94343 1.53889,5.51214 1.28294,5.06698 1.0482,4.60864 0.835328,4.13777 0.645002,3.65504 0.477885,3.16112 0.334647,2.65667 0.215955,2.14238 0.122476,1.61889 0.0548792,1.08689 0.0138311,0.547037 0,0"
       style="fill:none;stroke:#e30613;stroke-width:0.283;stroke-linecap:round;stroke-linejoin:round;stroke-miterlimit:10;stroke-dasharray:none;stroke-opacity:1"
       id="path2470"
       transform="matrix(1.33333,0,0,-1.33333,312.208,561.372)" /><path
       d="M 0,0 0.0138368,-0.546946 0.0549011,-1.08671 0.122524,-1.61864 0.216037,-2.14205 0.334771,-2.65627 0.478057,-3.16065 0.645226,-3.65451 0.835609,-4.13719 1.04854,-4.60801 l 0.2348,-0.4583 0.25602,-0.44511 0.27655,-0.43125 0.29642,-0.41673 0.31562,-0.40153 0.33416,-0.38568 0.35202,-0.36914 0.36921,-0.35195 0.38573,-0.33408 0.4016,-0.31555 0.41678,-0.29634 0.4313,-0.27648 0.44515,-0.25594 0.45833,-0.23474 0.47085,-0.21286 0.48269,-0.19032 0.49386,-0.16709 0.50436,-0.1433 0.51421,-0.1186 0.52337,-0.0935 0.53187,-0.0676 0.53966,-0.0411 0.5469,-0.0138 0.5469,0.0138 0.5398,0.0411 0.532,0.0676 0.5234,0.0935 0.5142,0.1186 0.5044,0.1433 0.4939,0.16709 0.4827,0.19032 0.4709,0.21286 0.4583,0.23474 0.4452,0.25594 0.4313,0.27648 0.4168,0.29634 0.4015,0.31555 0.3858,0.33408 0.3692,0.35195 0.3519,0.36914 0.3342,0.38568 0.3156,0.40153 0.2964,0.41673 0.2765,0.43125 0.256,0.44511 0.2347,0.4583 0.2129,0.47082 0.1904,0.48268 0.1671,0.49386 0.1433,0.50438 0.1187,0.51422 0.0935,0.52341 0.0676,0.53193 0.0411,0.539764 L 21.26,0 21.2462,0.547037 21.2051,1.08689 21.1375,1.61889 21.044,2.14238 20.9253,2.65667 20.782,3.16112 20.6149,3.65504 20.4245,4.13777 20.2116,4.60864 19.9769,5.06698 19.7209,5.51214 19.4444,5.94343 19.148,6.36019 18.8324,6.76176 18.4982,7.14746 18.1463,7.51663 17.7771,7.86859 17.3913,8.20269 16.9898,8.51826 16.573,8.81462 16.1417,9.09111 15.6965,9.34706 15.2382,9.5818 14.7673,9.79467 14.2846,9.985 l -0.4939,0.1671 -0.5044,0.1433 -0.5142,0.1186 -0.5234,0.0935 -0.532,0.0676 -0.5398,0.0411 L 10.63,10.63 10.0831,10.6162 9.54344,10.5751 9.01157,10.5075 8.4882,10.414 7.97399,10.2954 7.46963,10.1521 6.97577,9.985 6.49308,9.79467 6.02223,9.5818 5.5639,9.34706 5.11875,9.09111 4.68745,8.81462 4.27067,8.51826 3.86907,8.20269 3.48334,7.86859 3.11413,7.51663 2.76211,7.14746 2.42795,6.76176 2.11233,6.36019 1.81591,5.94343 1.53936,5.51214 1.28334,5.06698 1.04854,4.60864 0.835609,4.13777 0.645226,3.65504 0.478057,3.16112 0.334771,2.65667 0.216037,2.14238 0.122524,1.61889 0.0549011,1.08689 0.0138368,0.547037 0,0"
       style="fill:none;stroke:#e30613;stroke-width:0.283;stroke-linecap:round;stroke-linejoin:round;stroke-miterlimit:10;stroke-dasharray:none;stroke-opacity:1"
       id="path2442"
       transform="matrix(1.33333,0,0,-1.33333,494.594,561.372)" /><path
       d="M 0,0 0.0241582,-0.478025 0.0950625,-0.942281 0.210357,-1.39041 0.367687,-1.82006 0.564697,-2.22888 0.799031,-2.6145 1.06833,-2.97458 1.37025,-3.30675 1.70242,-3.60867 2.0625,-3.87797 2.44812,-4.1123 2.85694,-4.30931 3.28659,-4.46664 3.73472,-4.58194 4.19897,-4.65284 4.677,-4.677 l 0.4782,0.02416 0.46441,0.0709 0.44827,0.1153 0.42976,0.15733 0.40891,0.19701 0.38571,0.23433 0.36014,0.2693 0.33223,0.30192 0.30195,0.33217 0.26934,0.36008 0.23435,0.38562 0.19703,0.40882 0.15734,0.42965 0.1153,0.448129 0.0709,0.464256 L 9.355,0 9.33084,0.478201 9.25994,0.942611 9.14464,1.39088 8.9873,1.82064 8.79027,2.22955 8.55592,2.61526 8.28658,2.9754 7.98463,3.30763 7.6524,3.60958 7.29226,3.87892 6.90655,4.11327 6.49764,4.3103 6.06788,4.46764 5.61961,4.58294 5.1552,4.65384 4.677,4.678 4.19897,4.65384 3.73472,4.58294 3.28659,4.46764 2.85694,4.3103 2.44812,4.11327 2.0625,3.87892 1.70242,3.60958 1.37025,3.30763 1.06833,2.9754 0.799031,2.61526 0.564697,2.22955 0.367688,1.82064 0.210357,1.39088 0.0950625,0.942611 0.0241582,0.478201 0,0"
       style="fill:none;stroke:#e30613;stroke-width:0.283;stroke-linecap:round;stroke-linejoin:round;stroke-miterlimit:10;stroke-dasharray:none;stroke-opacity:1"
       id="path2430"
       transform="matrix(1.33333,0,0,-1.33333,502.531,609.373)" /><path
       d="M 0,0 0.0241362,-0.47819 0.0949805,-0.942568 0.210186,-1.39078 0.367406,-1.82048 0.564294,-2.22932 0.798504,-2.61494 1.06769,-2.97499 1.3695,-3.30712 1.70159,-3.60899 2.06162,-3.87823 2.44724,-4.1125 2.85609,-4.30945 3.28585,-4.46673 3.73414,-4.58198 4.19865,-4.65285 4.677,-4.677 l 0.47837,0.02415 0.46453,0.07087 0.44835,0.11525 0.42981,0.15728 0.40894,0.19695 0.3857,0.23427 0.36011,0.26924 0.33219,0.30187 0.30191,0.33213 0.26927,0.36005 0.23429,0.38562 0.19697,0.40884 0.15728,0.4297 0.11526,0.448212 L 9.33085,-0.47819 9.355,0 9.33085,0.478366 9.25998,0.942898 9.14472,1.39125 8.98744,1.82106 8.79047,2.23 8.55618,2.6157 8.28691,2.97581 7.985,3.308 7.65281,3.60991 7.2927,3.87918 6.907,4.11347 6.49806,4.31044 6.06825,4.46772 5.6199,4.58298 5.15537,4.65385 4.677,4.678 4.19865,4.65385 3.73414,4.58298 3.28585,4.46772 2.85609,4.31044 2.44724,4.11347 2.06162,3.87918 1.70159,3.60991 1.3695,3.308 1.06769,2.97581 0.798504,2.6157 0.564294,2.23 0.367406,1.82106 0.210186,1.39125 0.0949805,0.942898 0.0241362,0.478366 0,0"
       style="fill:none;stroke:#e30613;stroke-width:0.283;stroke-linecap:round;stroke-linejoin:round;stroke-miterlimit:10;stroke-dasharray:none;stroke-opacity:1"
       id="path2426"
       transform="matrix(1.33333,0,0,-1.33333,456.949,609.373)" /><path
       d="M 0,0 0.0241472,-0.478355 0.0950215,-0.942855 0.210272,-1.39115 0.367547,-1.82091 0.564496,-2.22976 0.798768,-2.61538 1.06801,-2.97541 1.36987,-3.3075 1.70201,-3.60931 2.06206,-3.8785 2.44768,-4.11271 2.85652,-4.30959 3.28622,-4.46681 3.73443,-4.58202 4.19881,-4.65286 4.677,-4.677 l 0.47834,0.02414 0.46447,0.07084 0.44825,0.11521 0.42969,0.15722 0.40878,0.19688 0.38553,0.23421 0.35994,0.26919 0.332,0.30181 0.30172,0.33209 0.26909,0.36003 0.23413,0.38562 0.19681,0.40885 0.15716,0.42976 0.11515,0.448295 0.07082,0.4645 L 9.353,0 9.32888,0.478366 9.25806,0.942898 9.14291,1.39125 8.98575,1.82106 8.78894,2.23 8.55481,2.6157 8.28572,2.97581 7.984,3.308 7.652,3.60991 7.29206,3.87918 6.90653,4.11347 6.49775,4.31044 6.06806,4.46772 5.61981,4.58298 5.15534,4.65385 4.677,4.678 4.19881,4.65385 3.73443,4.58298 3.28622,4.46772 2.85652,4.31044 2.44768,4.11347 2.06206,3.87918 1.70201,3.60991 1.36987,3.308 1.06801,2.97581 0.798768,2.6157 0.564496,2.23 0.367547,1.82106 0.210272,1.39125 0.0950215,0.942898 0.0241472,0.478366 0,0"
       style="fill:none;stroke:#e30613;stroke-width:0.283;stroke-linecap:round;stroke-linejoin:round;stroke-miterlimit:10;stroke-dasharray:none;stroke-opacity:1"
       id="path2422"
       transform="matrix(1.33333,0,0,-1.33333,411.329,609.373)" /><path
       d="m 0,0 0.0121716,-0.481437 0.0361228,-0.475108 0.0594866,-0.468195 0.082262,-0.46068 0.10445,-0.4526 0.12605,-0.44392 0.147063,-0.43465 0.167488,-0.4248 0.187324,-0.41436 0.206572,-0.40333 0.22524,-0.39172 0.24331,-0.37952 0.26079,-0.36673 0.27769,-0.35335 0.294,-0.33939 0.30973,-0.32484 0.32486,-0.3097 0.33941,-0.29397 0.35336,-0.27766 0.36674,-0.26077 0.37952,-0.24328 0.39172,-0.2252 0.40333,-0.20654 0.41434,-0.1873 L 6.13781,-8.78651 6.57243,-8.93354 7.01631,-9.05957 7.46886,-9.164 7.92949,-9.24624 8.39762,-9.30572 8.87265,-9.34183 9.354,-9.354 l 0.48144,0.01217 0.47506,0.03611 0.4682,0.05948 0.4607,0.08224 0.4526,0.10443 0.4439,0.12603 0.4347,0.14703 0.4248,0.16746 0.4144,0.1873 0.4033,0.20654 0.3917,0.2252 0.3795,0.24328 0.3667,0.26077 0.3534,0.27766 0.3394,0.29397 0.3248,0.30971 0.3097,0.32483 0.294,0.33939 0.2777,0.35335 0.2607,0.36673 0.2433,0.37952 0.2252,0.39172 0.2066,0.40333 0.1872,0.41436 0.1675,0.4248 0.147,0.43465 0.1261,0.44392 0.1044,0.4526 0.0822,0.46068 0.0595,0.468195 0.0361,0.475108 L 18.708,0 18.6958,0.481437 18.6597,0.956545 18.6002,1.42474 18.518,1.88542 18.4136,2.33802 18.2875,2.78194 18.1405,3.21659 17.973,3.64139 17.7858,4.05575 17.5792,4.45908 17.354,4.8508 17.1107,5.23032 16.85,5.59705 16.5723,5.9504 16.2783,6.28979 15.9686,6.61463 15.6438,6.92433 15.3044,7.2183 14.951,7.49596 14.5843,7.75673 14.2048,8.00001 13.8131,8.22521 13.4098,8.43175 12.9954,8.61905 12.5706,8.78651 12.1359,8.93354 11.692,9.05957 11.2394,9.164 10.7787,9.24624 10.3105,9.30572 9.83544,9.34183 9.354,9.354 8.87265,9.34183 8.39762,9.30572 7.92949,9.24624 7.46886,9.164 7.01631,9.05957 6.57243,8.93354 6.13781,8.78651 5.71303,8.61905 5.29869,8.43175 4.89536,8.22521 4.50364,8.00001 4.12412,7.75673 3.75738,7.49596 3.40402,7.2183 3.06461,6.92433 2.73975,6.61463 2.43002,6.28979 2.13602,5.9504 1.85833,5.59705 1.59754,5.23032 1.35423,4.8508 1.12899,4.45908 0.922418,4.05575 0.735094,3.64139 0.567606,3.21659 0.420543,2.78194 0.294493,2.33802 0.190043,1.88542 0.107781,1.42474 0.0482944,0.956545 0.0121716,0.481437 0,0"
       style="fill:none;stroke:#e30613;stroke-width:0.283;stroke-linecap:round;stroke-linejoin:round;stroke-miterlimit:10;stroke-dasharray:none;stroke-opacity:1"
       id="path2458"
       transform="matrix(1.33333,0,0,-1.33333,258.689,642.973)" /><path
       d="m 0,0 0.0138311,-0.546949 0.0410481,-0.539781 0.0675968,-0.53193 0.093479,-0.52343 0.118692,-0.51425 0.143238,-0.5044 0.167117,-0.4939 0.190326,-0.4827 0.212872,-0.47086 0.23474,-0.45834 0.25595,-0.44515 0.27649,-0.4313 0.29636,-0.41677 0.31557,-0.40158 0.3341,-0.38572 0.35197,-0.36919 0.36916,-0.35199 0.3857,-0.33413 0.40157,-0.31559 0.41676,-0.2964 0.43129,-0.27652 0.44516,-0.25598 0.45834,-0.23477 0.47087,-0.2129 0.48273,-0.19036 0.49392,-0.16711 0.50445,-0.1433 0.51429,-0.1187 0.52349,-0.0935 0.532,-0.0676 0.53989,-0.0411 0.547,-0.0138 0.5469,0.0138 0.5398,0.0411 0.532,0.0676 0.5234,0.0935 0.5142,0.1187 0.5044,0.1433 0.4939,0.16711 0.4827,0.19036 0.4709,0.2129 0.4583,0.23477 0.4452,0.25598 0.4313,0.27652 0.4168,0.2964 0.4015,0.31559 0.3858,0.33413 0.3692,0.35199 0.3519,0.36919 0.3342,0.38572 0.3156,0.40158 0.2964,0.41677 0.2765,0.4313 0.256,0.44515 0.2347,0.45834 0.2129,0.47086 0.1904,0.4827 0.1671,0.4939 0.1433,0.5044 0.1187,0.51425 0.0935,0.52343 0.0676,0.53193 0.0411,0.539781 L 21.26,0 21.2462,0.546949 21.2051,1.08673 21.1375,1.61866 21.044,2.14209 l -0.1187,0.51425 -0.1433,0.5044 -0.1671,0.4939 -0.1904,0.4827 -0.2129,0.47086 -0.2347,0.45834 -0.256,0.44515 -0.2765,0.4313 -0.2964,0.41677 -0.3156,0.40158 -0.3342,0.38572 -0.3519,0.36919 -0.3692,0.35199 -0.3858,0.33413 -0.4015,0.31559 -0.4168,0.2964 -0.4313,0.27652 -0.4452,0.25598 -0.4583,0.23477 -0.4709,0.2129 -0.4827,0.19036 -0.4939,0.16711 -0.5044,0.1433 -0.5142,0.1187 -0.5234,0.0935 -0.532,0.0676 -0.5398,0.0411 L 10.63,10.63 10.083,10.6162 9.54311,10.5751 9.01111,10.5075 8.48762,10.414 7.97333,10.2953 7.46888,10.152 6.97496,9.98489 6.49223,9.79453 6.02136,9.58163 5.56302,9.34686 5.11786,9.09088 4.68657,8.81436 4.26981,8.51796 3.86824,8.20237 3.48254,7.86824 3.11338,7.51625 2.76141,7.14706 2.42731,6.76134 2.11174,6.35976 1.81538,5.94299 1.53889,5.51169 1.28294,5.06654 1.0482,4.6082 0.835328,4.13734 0.645002,3.65464 0.477885,3.16074 0.334647,2.65634 0.215955,2.14209 0.122476,1.61866 0.0548792,1.08673 0.0138311,0.546949 0,0"
       style="fill:none;stroke:#e30613;stroke-width:0.283;stroke-linecap:round;stroke-linejoin:round;stroke-miterlimit:10;stroke-dasharray:none;stroke-opacity:1"
       id="path2474"
       transform="matrix(1.33333,0,0,-1.33333,312.208,642.973)" /><path
       d="M 0,0 0.0121687,-0.481349 0.0482834,-0.95638 0.107757,-1.42451 0.190002,-1.88514 0.294431,-2.33769 0.420458,-2.78157 0.567494,-3.21619 0.734953,-3.64097 0.922248,-4.05531 1.12879,-4.45864 1.35399,-4.85036 1.59727,-5.22988 1.85804,-5.59662 2.1357,-5.94998 2.42967,-6.28939 2.73937,-6.61425 3.06421,-6.92398 3.4036,-7.21798 3.75695,-7.49567 4.12368,-7.75646 4.5032,-7.99977 4.89492,-8.22501 5.29825,-8.43158 5.71261,-8.61891 6.13741,-8.78639 6.57206,-8.93346 7.01598,-9.05951 7.46858,-9.16396 7.92926,-9.24622 8.39745,-9.30571 8.87256,-9.34183 9.354,-9.354 l 0.48143,0.01217 0.47507,0.03612 0.4682,0.05949 0.4607,0.08226 0.4526,0.10445 0.4438,0.12605 0.4347,0.14707 0.4247,0.16748 0.4144,0.18733 0.4033,0.20657 0.3916,0.22524 0.3795,0.24331 0.3667,0.26079 0.3533,0.27769 0.3393,0.294 0.3248,0.30973 0.3097,0.32486 0.2939,0.33941 0.2776,0.35336 0.2607,0.36674 0.2433,0.37952 0.2251,0.39172 0.2065,0.40333 0.1873,0.41434 0.1674,0.42478 0.147,0.43462 0.126,0.44388 0.1044,0.45255 0.0823,0.46063 0.0594,0.46813 0.0361,0.475031 L 18.707,0 18.6948,0.481437 18.6587,0.956545 18.5993,1.42474 18.517,1.88542 18.4126,2.33802 18.2866,2.78194 18.1396,3.21659 17.9722,3.64139 17.7849,4.05575 17.5784,4.45908 17.3533,4.8508 17.11,5.23032 16.8493,5.59705 16.5717,5.9504 16.2778,6.28979 15.9681,6.61463 15.6433,6.92433 15.304,7.2183 14.9507,7.49596 14.584,7.75673 14.2045,8.00001 13.8129,8.22521 13.4096,8.43175 12.9952,8.61905 12.5705,8.78651 12.1358,8.93354 11.692,9.05957 11.2394,9.164 10.7787,9.24624 10.3105,9.30572 9.83543,9.34183 9.354,9.354 8.87256,9.34183 8.39745,9.30572 7.92926,9.24624 7.46858,9.164 7.01598,9.05957 6.57206,8.93354 6.13741,8.78651 5.71261,8.61905 5.29825,8.43175 4.89492,8.22521 4.5032,8.00001 4.12368,7.75673 3.75695,7.49596 3.4036,7.2183 3.06421,6.92433 2.73938,6.61463 2.42967,6.28979 2.1357,5.9504 1.85804,5.59705 1.59727,5.23032 1.35399,4.8508 1.12879,4.45908 0.922248,4.05575 0.734953,3.64139 0.567494,3.21659 0.420458,2.78194 0.294431,2.33802 0.190002,1.88542 0.107757,1.42474 0.0482834,0.956545 0.0121687,0.481437 0,0"
       style="fill:none;stroke:#e30613;stroke-width:0.283;stroke-linecap:round;stroke-linejoin:round;stroke-miterlimit:10;stroke-dasharray:none;stroke-opacity:1"
       id="path2414"
       transform="matrix(1.33333,0,0,-1.33333,405.094,647.774)" /><path
       d="M 0,0 0.0121659,-0.481349 0.0482725,-0.95638 0.107733,-1.42451 0.189961,-1.88514 0.29437,-2.33769 0.420372,-2.78157 0.567382,-3.21619 0.734812,-3.64097 0.922077,-4.05531 1.12859,-4.45864 1.35376,-4.85036 1.59701,-5.22988 1.85774,-5.59662 2.13538,-5.94998 2.42932,-6.28939 2.739,-6.61425 3.06382,-6.92398 3.40319,-7.21798 3.75652,-7.49567 4.12324,-7.75646 4.50275,-7.99977 4.89447,-8.22501 5.29781,-8.43158 5.71219,-8.61891 6.13701,-8.78639 6.57169,-8.93346 7.01565,-9.05951 7.46829,-9.16396 7.92903,-9.24622 8.39729,-9.30571 8.87247,-9.34183 9.354,-9.354 l 0.48135,0.01217 0.47505,0.03612 0.4681,0.05949 0.4606,0.08226 0.4526,0.10445 0.4439,0.12605 0.4346,0.14707 0.4248,0.16748 0.4143,0.18733 0.4033,0.20657 0.3918,0.22524 0.3795,0.24331 0.3667,0.26079 0.3534,0.27769 0.3394,0.294 0.3248,0.30973 0.3098,0.32486 0.294,0.33941 0.2777,0.35336 0.2608,0.36674 0.2433,0.37952 0.2252,0.39172 0.2066,0.40333 0.1873,0.41434 0.1675,0.42478 0.1471,0.43462 0.126,0.44388 0.1045,0.45255 0.0822,0.46063 0.0595,0.46813 0.0361,0.475031 L 18.708,0 18.6958,0.481437 18.6597,0.956545 18.6002,1.42474 18.518,1.88542 18.4135,2.33802 18.2875,2.78194 18.1404,3.21659 17.9729,3.64139 17.7856,4.05575 17.579,4.45908 17.3538,4.8508 17.1105,5.23032 16.8497,5.59705 16.572,5.9504 16.278,6.28979 15.9682,6.61463 15.6434,6.92433 15.304,7.2183 14.9506,7.49596 14.5839,7.75673 14.2044,8.00001 13.8126,8.22521 13.4093,8.43175 12.995,8.61905 12.5702,8.78651 12.1356,8.93354 11.6917,9.05957 11.2391,9.164 10.7785,9.24624 10.3104,9.30572 9.83535,9.34183 9.354,9.354 8.87247,9.34183 8.39729,9.30572 7.92903,9.24624 7.46829,9.164 7.01565,9.05957 6.57169,8.93354 6.13701,8.78651 5.71219,8.61905 5.29781,8.43175 4.89447,8.22521 4.50275,8.00001 4.12324,7.75673 3.75652,7.49596 3.40319,7.2183 3.06382,6.92433 2.739,6.61463 2.42932,6.28979 2.13538,5.9504 1.85774,5.59705 1.59701,5.23032 1.35376,4.8508 1.12859,4.45908 0.922077,4.05575 0.734812,3.64139 0.567382,3.21659 0.420372,2.78194 0.29437,2.33802 0.189961,1.88542 0.107733,1.42474 0.0482725,0.956545 0.0121659,0.481437 0,0"
       style="fill:none;stroke:#e30613;stroke-width:0.283;stroke-linecap:round;stroke-linejoin:round;stroke-miterlimit:10;stroke-dasharray:none;stroke-opacity:1"
       id="path2418"
       transform="matrix(1.33333,0,0,-1.33333,450.714,647.774)" /><path
       d="M 0,0 0.0121687,-0.481349 0.0482834,-0.95638 0.107757,-1.42451 0.190002,-1.88514 0.294431,-2.33769 0.420458,-2.78157 0.567494,-3.21619 0.734953,-3.64097 0.922248,-4.05531 1.12879,-4.45864 1.35399,-4.85036 1.59727,-5.22988 1.85804,-5.59662 2.1357,-5.94998 2.42967,-6.28939 2.73937,-6.61425 3.06421,-6.92398 3.4036,-7.21798 3.75695,-7.49567 4.12368,-7.75646 4.5032,-7.99977 4.89492,-8.22501 5.29825,-8.43158 5.71261,-8.61891 6.13741,-8.78639 6.57206,-8.93346 7.01598,-9.05951 7.46858,-9.16396 7.92926,-9.24622 8.39745,-9.30571 8.87256,-9.34183 9.354,-9.354 l 0.48144,0.01217 0.47506,0.03612 0.4682,0.05949 0.4607,0.08226 0.4526,0.10445 0.4439,0.12605 0.4347,0.14707 0.4248,0.16748 0.4144,0.18733 0.4033,0.20657 0.3917,0.22524 0.3795,0.24331 0.3667,0.26079 0.3534,0.27769 0.3394,0.294 0.3248,0.30973 0.3097,0.32486 0.294,0.33941 0.2777,0.35336 0.2607,0.36674 0.2433,0.37952 0.2252,0.39172 0.2066,0.40333 0.1872,0.41434 0.1675,0.42478 0.147,0.43462 0.1261,0.44388 0.1044,0.45255 0.0822,0.46063 0.0595,0.46813 0.0361,0.475031 L 18.708,0 18.6958,0.481437 18.6597,0.956545 18.6002,1.42474 18.518,1.88542 18.4136,2.33802 18.2875,2.78194 18.1405,3.21659 17.973,3.64139 17.7858,4.05575 17.5792,4.45908 17.354,4.8508 17.1107,5.23032 16.85,5.59705 16.5723,5.9504 16.2783,6.28979 15.9686,6.61463 15.6438,6.92433 15.3044,7.2183 14.951,7.49596 14.5843,7.75673 14.2048,8.00001 13.8131,8.22521 13.4098,8.43175 12.9954,8.61905 12.5706,8.78651 12.1359,8.93354 11.692,9.05957 11.2394,9.164 10.7787,9.24624 10.3105,9.30572 9.83544,9.34183 9.354,9.354 8.87256,9.34183 8.39745,9.30572 7.92926,9.24624 7.46858,9.164 7.01598,9.05957 6.57206,8.93354 6.13741,8.78651 5.71261,8.61905 5.29825,8.43175 4.89492,8.22521 4.5032,8.00001 4.12368,7.75673 3.75695,7.49596 3.4036,7.2183 3.06421,6.92433 2.73938,6.61463 2.42967,6.28979 2.1357,5.9504 1.85804,5.59705 1.59727,5.23032 1.35399,4.8508 1.12879,4.45908 0.922248,4.05575 0.734953,3.64139 0.567494,3.21659 0.420458,2.78194 0.294431,2.33802 0.190002,1.88542 0.107757,1.42474 0.0482834,0.956545 0.0121687,0.481437 0,0"
       style="fill:none;stroke:#e30613;stroke-width:0.283;stroke-linecap:round;stroke-linejoin:round;stroke-miterlimit:10;stroke-dasharray:none;stroke-opacity:1"
       id="path2410"
       transform="matrix(1.33333,0,0,-1.33333,496.296,647.774)" /><path
       d="M 0,0 0.0121687,-0.481437 0.0482834,-0.956545 0.107757,-1.42474 0.190002,-1.88542 0.294431,-2.33802 0.420458,-2.78194 0.567494,-3.21659 0.734953,-3.64139 0.922248,-4.05575 1.12879,-4.45908 1.35399,-4.8508 1.59727,-5.23032 1.85804,-5.59705 2.1357,-5.9504 2.42967,-6.28979 2.73937,-6.61463 3.06421,-6.92433 3.4036,-7.2183 3.75695,-7.49596 4.12368,-7.75673 4.5032,-8.00001 4.89492,-8.22521 5.29825,-8.43175 5.71261,-8.61905 6.13741,-8.78651 6.57206,-8.93354 7.01598,-9.05957 7.46858,-9.164 7.92926,-9.24624 8.39745,-9.30572 8.87256,-9.34183 9.354,-9.354 l 0.48144,0.01217 0.47506,0.03611 0.4682,0.05948 0.4607,0.08224 0.4526,0.10443 0.4439,0.12603 0.4347,0.14703 0.4248,0.16746 0.4144,0.1873 0.4033,0.20654 0.3917,0.2252 0.3795,0.24328 0.3667,0.26077 0.3534,0.27766 0.3394,0.29397 0.3248,0.30971 0.3097,0.32483 0.294,0.33939 0.2777,0.35335 0.2607,0.36673 0.2433,0.37952 0.2252,0.39172 0.2066,0.40333 0.1872,0.41436 0.1675,0.4248 0.147,0.43465 0.1261,0.44392 0.1044,0.4526 0.0822,0.46068 0.0595,0.468195 0.0361,0.475108 L 18.708,0 18.6958,0.481261 18.6597,0.956216 18.6002,1.42427 18.518,1.88485 18.4136,2.33735 18.2875,2.7812 18.1405,3.21579 17.973,3.64055 17.7858,4.05488 17.5792,4.4582 17.354,4.84991 17.1107,5.22944 16.85,5.59619 16.5723,5.94957 16.2783,6.28899 15.9686,6.61387 15.6438,6.92363 15.3044,7.21766 14.951,7.49538 14.5843,7.7562 14.2048,7.99954 13.8131,8.22481 13.4098,8.43141 12.9954,8.61877 12.5706,8.78628 12.1359,8.93337 11.692,9.05945 11.2394,9.16392 10.7787,9.2462 10.3105,9.30569 9.83544,9.34183 9.354,9.354 8.87256,9.34183 8.39745,9.30569 7.92926,9.2462 7.46858,9.16392 7.01598,9.05945 6.57206,8.93337 6.13741,8.78628 5.71261,8.61877 5.29825,8.43141 4.89492,8.22481 4.5032,7.99954 4.12368,7.7562 3.75695,7.49538 3.4036,7.21766 3.06421,6.92363 2.73938,6.61387 2.42967,6.28899 2.1357,5.94957 1.85804,5.59619 1.59727,5.22944 1.35399,4.84991 1.12879,4.4582 0.922248,4.05488 0.734953,3.64055 0.567494,3.21579 0.420458,2.7812 0.294431,2.33735 0.190002,1.88485 0.107757,1.42427 0.0482834,0.956216 0.0121687,0.481261 0,0"
       style="fill:none;stroke:#e30613;stroke-width:0.283;stroke-linecap:round;stroke-linejoin:round;stroke-miterlimit:10;stroke-dasharray:none;stroke-opacity:1"
       id="path2398"
       transform="matrix(1.33333,0,0,-1.33333,496.296,693.392)" /><path
       d="M 0,0 0.0121659,-0.481437 0.0482725,-0.956545 0.107733,-1.42474 0.189961,-1.88542 0.29437,-2.33802 0.420372,-2.78194 0.567382,-3.21659 0.734812,-3.64139 0.922077,-4.05575 1.12859,-4.45908 1.35376,-4.8508 1.59701,-5.23032 1.85774,-5.59705 2.13538,-5.9504 2.42932,-6.28979 2.739,-6.61463 3.06382,-6.92433 3.40319,-7.2183 3.75652,-7.49596 4.12324,-7.75673 4.50275,-8.00001 4.89447,-8.22521 5.29781,-8.43175 5.71219,-8.61905 6.13701,-8.78651 6.57169,-8.93354 7.01565,-9.05957 7.46829,-9.164 7.92903,-9.24624 8.39729,-9.30572 8.87247,-9.34183 9.354,-9.354 l 0.48135,0.01217 0.47505,0.03611 0.4681,0.05948 0.4606,0.08224 0.4526,0.10443 0.4439,0.12603 0.4346,0.14703 0.4248,0.16746 0.4143,0.1873 0.4033,0.20654 0.3918,0.2252 0.3795,0.24328 0.3667,0.26077 0.3534,0.27766 0.3394,0.29397 0.3248,0.30971 0.3098,0.32483 0.294,0.33939 0.2777,0.35335 0.2608,0.36673 0.2433,0.37952 0.2252,0.39172 0.2066,0.40333 0.1873,0.41436 0.1675,0.4248 0.1471,0.43465 0.126,0.44392 0.1045,0.4526 0.0822,0.46068 0.0595,0.468195 0.0361,0.475108 L 18.708,0 18.6958,0.481261 18.6597,0.956216 18.6002,1.42427 18.518,1.88485 18.4135,2.33735 18.2875,2.7812 18.1404,3.21579 17.9729,3.64055 17.7856,4.05488 17.579,4.4582 17.3538,4.84991 17.1105,5.22944 16.8497,5.59619 16.572,5.94957 16.278,6.28899 15.9682,6.61387 15.6434,6.92363 15.304,7.21766 14.9506,7.49538 14.5839,7.7562 14.2044,7.99954 13.8126,8.22481 13.4093,8.43141 12.995,8.61877 12.5702,8.78628 12.1356,8.93337 11.6917,9.05945 11.2391,9.16392 10.7785,9.2462 10.3104,9.30569 9.83535,9.34183 9.354,9.354 8.87247,9.34183 8.39729,9.30569 7.92903,9.2462 7.46829,9.16392 7.01565,9.05945 6.57169,8.93337 6.13701,8.78628 5.71219,8.61877 5.29781,8.43141 4.89447,8.22481 4.50275,7.99954 4.12324,7.7562 3.75652,7.49538 3.40319,7.21766 3.06382,6.92363 2.739,6.61387 2.42932,6.28899 2.13538,5.94957 1.85774,5.59619 1.59701,5.22944 1.35376,4.84991 1.12859,4.4582 0.922077,4.05488 0.734812,3.64055 0.567382,3.21579 0.420372,2.7812 0.29437,2.33735 0.189961,1.88485 0.107733,1.42427 0.0482725,0.956216 0.0121659,0.481261 0,0"
       style="fill:none;stroke:#e30613;stroke-width:0.283;stroke-linecap:round;stroke-linejoin:round;stroke-miterlimit:10;stroke-dasharray:none;stroke-opacity:1"
       id="path2406"
       transform="matrix(1.33333,0,0,-1.33333,450.714,693.392)" /><path
       d="M 0,0 0.0121687,-0.481437 0.0482834,-0.956545 0.107757,-1.42474 0.190002,-1.88542 0.294431,-2.33802 0.420458,-2.78194 0.567494,-3.21659 0.734953,-3.64139 0.922248,-4.05575 1.12879,-4.45908 1.35399,-4.8508 1.59727,-5.23032 1.85804,-5.59705 2.1357,-5.9504 2.42967,-6.28979 2.73937,-6.61463 3.06421,-6.92433 3.4036,-7.2183 3.75695,-7.49596 4.12368,-7.75673 4.5032,-8.00001 4.89492,-8.22521 5.29825,-8.43175 5.71261,-8.61905 6.13741,-8.78651 6.57206,-8.93354 7.01598,-9.05957 7.46858,-9.164 7.92926,-9.24624 8.39745,-9.30572 8.87256,-9.34183 9.354,-9.354 l 0.48143,0.01217 0.47507,0.03611 0.4682,0.05948 0.4607,0.08224 0.4526,0.10443 0.4438,0.12603 0.4347,0.14703 0.4247,0.16746 0.4144,0.1873 0.4033,0.20654 0.3916,0.2252 0.3795,0.24328 0.3667,0.26077 0.3533,0.27766 0.3393,0.29397 0.3248,0.30971 0.3097,0.32483 0.2939,0.33939 0.2776,0.35335 0.2607,0.36673 0.2433,0.37952 0.2251,0.39172 0.2065,0.40333 0.1873,0.41436 0.1674,0.4248 0.147,0.43465 0.126,0.44392 0.1044,0.4526 0.0823,0.46068 0.0594,0.468195 0.0361,0.475108 L 18.707,0 18.6948,0.481261 18.6587,0.956216 18.5993,1.42427 18.517,1.88485 18.4126,2.33735 18.2866,2.7812 18.1396,3.21579 17.9722,3.64055 17.7849,4.05488 17.5784,4.4582 17.3533,4.84991 17.11,5.22944 16.8493,5.59619 16.5717,5.94957 16.2778,6.28899 15.9681,6.61387 15.6433,6.92363 15.304,7.21766 14.9507,7.49538 14.584,7.7562 14.2045,7.99954 13.8129,8.22481 13.4096,8.43141 12.9952,8.61877 12.5705,8.78628 12.1358,8.93337 11.692,9.05945 11.2394,9.16392 10.7787,9.2462 10.3105,9.30569 9.83543,9.34183 9.354,9.354 8.87256,9.34183 8.39745,9.30569 7.92926,9.2462 7.46858,9.16392 7.01598,9.05945 6.57206,8.93337 6.13741,8.78628 5.71261,8.61877 5.29825,8.43141 4.89492,8.22481 4.5032,7.99954 4.12368,7.7562 3.75695,7.49538 3.4036,7.21766 3.06421,6.92363 2.73938,6.61387 2.42967,6.28899 2.1357,5.94957 1.85804,5.59619 1.59727,5.22944 1.35399,4.84991 1.12879,4.4582 0.922248,4.05488 0.734953,3.64055 0.567494,3.21579 0.420458,2.7812 0.294431,2.33735 0.190002,1.88485 0.107757,1.42427 0.0482834,0.956216 0.0121687,0.481261 0,0"
       style="fill:none;stroke:#e30613;stroke-width:0.283;stroke-linecap:round;stroke-linejoin:round;stroke-miterlimit:10;stroke-dasharray:none;stroke-opacity:1"
       id="path2402"
       transform="matrix(1.33333,0,0,-1.33333,405.094,693.392)" /><path
       d="m 0,0 0.0121716,-0.481437 0.0361228,-0.475108 0.0594866,-0.468195 0.082262,-0.46068 0.10445,-0.4526 0.12605,-0.44392 0.147063,-0.43465 0.167488,-0.4248 0.187324,-0.41436 0.206572,-0.40333 0.22524,-0.39172 0.24331,-0.37952 0.26079,-0.36673 0.27769,-0.35335 0.294,-0.33939 0.30973,-0.32484 0.32486,-0.3097 0.33941,-0.29397 0.35336,-0.27766 0.36674,-0.26077 0.37952,-0.24328 0.39172,-0.2252 0.40333,-0.20654 0.41434,-0.1873 L 6.13781,-8.78651 6.57243,-8.93354 7.01631,-9.05957 7.46886,-9.164 7.92949,-9.24624 8.39762,-9.30572 8.87265,-9.34183 9.354,-9.354 l 0.48144,0.01217 0.47516,0.03611 0.4682,0.05948 0.4607,0.08224 0.4526,0.10443 0.4439,0.12603 0.4347,0.14703 0.4248,0.16746 0.4144,0.1873 0.4034,0.20654 0.3918,0.2252 0.3795,0.24328 0.3668,0.26077 0.3534,0.27766 0.3394,0.29397 0.3249,0.30971 0.3098,0.32483 0.294,0.33939 0.2777,0.35335 0.2608,0.36673 0.2433,0.37952 0.2253,0.39172 0.2066,0.40333 0.1873,0.41436 0.1675,0.4248 0.147,0.43465 0.1261,0.44392 0.1045,0.4526 0.0822,0.46068 0.0595,0.468195 0.0361,0.475108 L 18.709,0 18.6968,0.48144 18.6607,0.956556 18.6012,1.42476 18.519,1.88547 18.4145,2.33809 18.2884,2.78203 18.1414,3.21671 17.9739,3.64155 17.7866,4.05594 17.58,4.45932 17.3547,4.85107 17.1114,5.23063 16.8506,5.59741 16.5729,5.9508 16.2789,6.29024 15.9691,6.61512 15.6442,6.92487 15.3048,7.21889 14.9514,7.4966 14.5846,7.75741 14.2051,8.00073 13.8133,8.22598 13.4099,8.43256 12.9955,8.61989 12.5707,8.78738 12.136,8.93445 11.6921,9.0605 11.2395,9.16496 10.7788,9.24722 10.3106,9.30671 9.83544,9.34283 9.354,9.355 8.87265,9.34283 8.39762,9.30671 7.92949,9.24722 7.46886,9.16496 7.01631,9.0605 6.57243,8.93445 6.13781,8.78738 5.71303,8.61989 5.29869,8.43256 4.89536,8.22598 4.50364,8.00073 4.12412,7.75741 3.75738,7.4966 3.40402,7.21889 3.06461,6.92487 2.73975,6.61512 2.43002,6.29024 2.13602,5.9508 1.85833,5.59741 1.59754,5.23063 1.35423,4.85107 1.12899,4.45932 0.922418,4.05594 0.735094,3.64155 0.567606,3.21671 0.420543,2.78203 0.294493,2.33809 0.190043,1.88547 0.107781,1.42476 0.0482944,0.956556 0.0121716,0.48144 0,0"
       style="fill:none;stroke:#e30613;stroke-width:0.283;stroke-linecap:round;stroke-linejoin:round;stroke-miterlimit:10;stroke-dasharray:none;stroke-opacity:1"
       id="path2390"
       transform="matrix(1.33333,0,0,-1.33333,405.092,738.975)" /><path
       d="M 0,0 0.0121688,-0.481437 0.0482837,-0.956545 0.107758,-1.42474 0.190004,-1.88542 0.294435,-2.33802 0.420464,-2.78194 0.567505,-3.21659 0.734969,-3.64139 0.92227,-4.05575 1.12882,-4.45908 1.35403,-4.8508 1.59732,-5.23032 1.8581,-5.59705 2.13578,-5.9504 2.42978,-6.28979 2.7395,-6.61463 3.06436,-6.92433 3.40378,-7.2183 3.75716,-7.49596 4.12393,-7.75673 4.50348,-8.00001 4.89524,-8.22521 5.29862,-8.43175 5.71303,-8.61905 6.13789,-8.78651 6.5726,-8.93354 7.01658,-9.05957 7.46925,-9.164 7.93001,-9.24624 8.39828,-9.30572 8.87347,-9.34183 9.355,-9.354 l 0.48135,0.01217 0.47505,0.03611 0.4681,0.05948 0.4607,0.08224 0.4526,0.10443 0.4439,0.12603 0.4346,0.14703 0.4248,0.16746 0.4144,0.1873 0.4034,0.20654 0.3917,0.2252 0.3796,0.24328 0.3668,0.26077 0.3534,0.27766 0.3394,0.29397 0.325,0.30971 0.3097,0.32483 0.2941,0.33939 0.2777,0.35335 0.2608,0.36673 0.2434,0.37952 0.2253,0.39172 0.2066,0.40333 0.1874,0.41436 0.1675,0.4248 0.1471,0.43465 0.126,0.44392 0.1045,0.4526 0.0823,0.46068 0.0595,0.468195 0.0361,0.475108 L 18.71,0 18.6978,0.48144 18.6617,0.956556 18.6022,1.42476 18.5199,1.88547 18.4154,2.33809 18.2894,2.78203 18.1423,3.21671 17.9748,3.64155 17.7874,4.05594 17.5808,4.45932 17.3555,4.85107 17.1121,5.23063 16.8513,5.59741 16.5736,5.9508 16.2795,6.29024 15.9698,6.61512 15.6448,6.92487 15.3054,7.21889 14.952,7.4966 14.5852,7.75741 14.2056,8.00073 13.8139,8.22598 13.4105,8.43256 12.9961,8.61989 12.5713,8.78738 12.1367,8.93445 11.6928,9.0605 11.2402,9.16496 10.7795,9.24722 10.3114,9.30671 9.83635,9.34283 9.355,9.355 8.87347,9.34283 8.39828,9.30671 7.93001,9.24722 7.46925,9.16496 7.01658,9.0605 6.5726,8.93445 6.13789,8.78738 5.71303,8.61989 5.29862,8.43256 4.89524,8.22598 4.50348,8.00073 4.12393,7.75741 3.75716,7.4966 3.40378,7.21889 3.06436,6.92487 2.7395,6.61512 2.42978,6.29024 2.13578,5.9508 1.8581,5.59741 1.59732,5.23063 1.35403,4.85107 1.12882,4.45932 0.92227,4.05594 0.734969,3.64155 0.567505,3.21671 0.420464,2.78203 0.294435,2.33809 0.190004,1.88547 0.107758,1.42476 0.0482837,0.956556 0.0121688,0.48144 0,0"
       style="fill:none;stroke:#e30613;stroke-width:0.283;stroke-linecap:round;stroke-linejoin:round;stroke-miterlimit:10;stroke-dasharray:none;stroke-opacity:1"
       id="path2394"
       transform="matrix(1.33333,0,0,-1.33333,450.712,738.975)" /><path
       d="m 0,0 0.0121716,-0.481437 0.0361228,-0.475108 0.0594866,-0.468195 0.082262,-0.46068 0.10445,-0.4526 0.12605,-0.44392 0.147063,-0.43465 0.167488,-0.4248 0.187324,-0.41436 0.206572,-0.40333 0.22524,-0.39172 0.24331,-0.37952 0.26079,-0.36673 0.27769,-0.35335 0.294,-0.33939 0.30973,-0.32484 0.32486,-0.3097 0.33941,-0.29397 0.35336,-0.27766 0.36674,-0.26077 0.37952,-0.24328 0.39172,-0.2252 0.40333,-0.20654 0.41434,-0.1873 L 6.13781,-8.78651 6.57243,-8.93354 7.01631,-9.05957 7.46886,-9.164 7.92949,-9.24624 8.39762,-9.30572 8.87265,-9.34183 9.354,-9.354 l 0.48144,0.01217 0.47516,0.03611 0.4682,0.05948 0.4607,0.08224 0.4527,0.10443 0.4439,0.12603 0.4347,0.14703 0.4249,0.16746 0.4144,0.1873 0.4034,0.20654 0.3918,0.2252 0.3797,0.24328 0.3668,0.26077 0.3534,0.27766 0.3395,0.29397 0.3249,0.30971 0.3098,0.32483 0.2941,0.33939 0.2777,0.35335 0.2609,0.36673 0.2434,0.37952 0.2252,0.39172 0.2067,0.40333 0.1873,0.41436 0.1676,0.4248 0.1471,0.43465 0.126,0.44392 0.1045,0.4526 0.0823,0.46068 0.0595,0.468195 0.0361,0.475108 L 18.71,0 18.6978,0.48144 18.6617,0.956556 18.6022,1.42476 18.5199,1.88547 18.4154,2.33809 18.2894,2.78203 18.1423,3.21671 17.9747,3.64155 17.7874,4.05594 17.5807,4.45932 17.3555,4.85107 17.1121,5.23063 16.8512,5.59741 16.5735,5.9508 16.2794,6.29024 15.9696,6.61512 15.6447,6.92487 15.3052,7.21889 14.9518,7.4966 14.585,7.75741 14.2053,8.00073 13.8135,8.22598 13.4101,8.43256 12.9957,8.61989 12.5708,8.78738 12.1361,8.93445 11.6922,9.0605 11.2395,9.16496 10.7788,9.24722 10.3106,9.30671 9.83544,9.34283 9.354,9.355 8.87265,9.34283 8.39762,9.30671 7.92949,9.24722 7.46886,9.16496 7.01631,9.0605 6.57243,8.93445 6.13781,8.78738 5.71303,8.61989 5.29869,8.43256 4.89536,8.22598 4.50364,8.00073 4.12412,7.75741 3.75738,7.4966 3.40402,7.21889 3.06461,6.92487 2.73975,6.61512 2.43002,6.29024 2.13602,5.9508 1.85833,5.59741 1.59754,5.23063 1.35423,4.85107 1.12899,4.45932 0.922418,4.05594 0.735094,3.64155 0.567606,3.21671 0.420543,2.78203 0.294493,2.33809 0.190043,1.88547 0.107781,1.42476 0.0482944,0.956556 0.0121716,0.48144 0,0"
       style="fill:none;stroke:#e30613;stroke-width:0.283;stroke-linecap:round;stroke-linejoin:round;stroke-miterlimit:10;stroke-dasharray:none;stroke-opacity:1"
       id="path2386"
       transform="matrix(1.33333,0,0,-1.33333,496.294,738.975)" /><path
       d="M 0,0 0.0138311,-0.547128 0.0548792,-1.08707 0.122476,-1.61915 0.215955,-2.14271 0.334647,-2.65707 0.477885,-3.16158 0.645002,-3.65556 0.835328,-4.13834 1.0482,-4.60927 l 0.23474,-0.45839 0.25595,-0.44519 0.27649,-0.43133 0.29636,-0.4168 0.31557,-0.4016 0.3341,-0.38573 0.35197,-0.36919 0.36916,-0.35199 0.3857,-0.33412 0.40157,-0.31558 0.41676,-0.29638 0.43129,-0.2765 0.44516,-0.25596 0.45834,-0.23475 0.47087,-0.21288 0.48273,-0.19033 0.49392,-0.16711 0.50445,-0.1432 0.51429,-0.1187 0.52349,-0.0935 0.532,-0.0676 0.53989,-0.0411 0.547,-0.0138 0.5469,0.0138 0.5398,0.0411 0.532,0.0676 0.5234,0.0935 0.5142,0.1187 0.5044,0.1432 0.4939,0.16711 0.4827,0.19033 0.4709,0.21288 0.4583,0.23475 0.4452,0.25596 0.4313,0.2765 0.4168,0.29638 0.4015,0.31558 0.3858,0.33412 0.3692,0.35199 0.3519,0.36919 0.3342,0.38573 0.3156,0.4016 0.2964,0.4168 0.2765,0.43133 0.256,0.44519 0.2347,0.45839 0.2129,0.47093 0.1904,0.48278 0.1671,0.49398 0.1433,0.50451 0.1187,0.51436 0.0935,0.52356 0.0676,0.53208 0.0411,0.539942 L 21.26,0 21.2462,0.546946 21.2051,1.08671 21.1375,1.61864 21.044,2.14205 20.9253,2.65627 20.782,3.16065 20.6149,3.65451 20.4245,4.13719 20.2116,4.60801 19.9769,5.06631 19.7209,5.51142 19.4444,5.94267 19.148,6.3594 18.8324,6.76093 18.4982,7.14661 18.1463,7.51575 17.7771,7.8677 17.3913,8.20178 16.9898,8.51733 16.573,8.81367 l -0.4313,0.27648 -0.4452,0.25594 -0.4583,0.23474 -0.4709,0.21286 -0.4827,0.19032 -0.4939,0.16709 -0.5044,0.1433 -0.5142,0.1186 -0.5234,0.0935 -0.532,0.0676 -0.5398,0.0411 L 10.63,10.629 10.083,10.6152 9.54311,10.5741 9.01111,10.5065 8.48762,10.413 7.97333,10.2944 7.46888,10.1511 6.97496,9.98401 6.49223,9.79369 6.02136,9.58083 5.56302,9.34609 5.11786,9.09015 4.68657,8.81367 4.26981,8.51733 3.86824,8.20178 3.48254,7.8677 3.11338,7.51575 2.76141,7.14661 2.42731,6.76093 2.11174,6.3594 1.81538,5.94267 1.53889,5.51142 1.28294,5.06631 1.0482,4.60801 0.835328,4.13719 0.645002,3.65451 0.477885,3.16065 0.334647,2.65627 0.215955,2.14205 0.122476,1.61864 0.0548792,1.08671 0.0138311,0.546946 0,0"
       style="fill:none;stroke:#e30613;stroke-width:0.283;stroke-linecap:round;stroke-linejoin:round;stroke-miterlimit:10;stroke-dasharray:none;stroke-opacity:1"
       id="path2478"
       transform="matrix(1.33333,0,0,-1.33333,312.208,724.573)" /><path
       d="m 0,0 0.0121716,-0.481437 0.0361228,-0.475108 0.0594866,-0.468195 0.082262,-0.46068 0.10445,-0.4526 0.12605,-0.44392 0.147063,-0.43465 0.167488,-0.4248 0.187324,-0.41436 0.206572,-0.40333 0.22524,-0.39172 0.24331,-0.37952 0.26079,-0.36673 0.27769,-0.35335 0.294,-0.33939 0.30973,-0.32484 0.32486,-0.3097 0.33941,-0.29397 0.35336,-0.27766 0.36674,-0.26077 0.37952,-0.24328 0.39172,-0.2252 0.40333,-0.20654 0.41434,-0.1873 L 6.13781,-8.78651 6.57243,-8.93354 7.01631,-9.05957 7.46886,-9.164 7.92949,-9.24624 8.39762,-9.30572 8.87265,-9.34183 9.354,-9.354 l 0.48144,0.01217 0.47516,0.03611 0.4682,0.05948 0.4607,0.08224 0.4527,0.10443 0.4439,0.12603 0.4347,0.14703 0.4249,0.16746 0.4144,0.1873 0.4034,0.20654 0.3918,0.2252 0.3797,0.24328 0.3668,0.26077 0.3534,0.27766 0.3395,0.29397 0.3249,0.30971 0.3098,0.32483 0.2941,0.33939 0.2777,0.35335 0.2609,0.36673 0.2434,0.37952 0.2252,0.39172 0.2067,0.40333 0.1873,0.41436 0.1676,0.4248 0.1471,0.43465 0.126,0.44392 0.1045,0.4526 0.0823,0.46068 0.0595,0.468195 0.0361,0.475108 L 18.71,0 18.6978,0.481346 18.6617,0.956369 18.6022,1.42448 18.5199,1.88509 18.4154,2.33762 18.2894,2.78147 18.1423,3.21607 17.9747,3.64081 17.7874,4.05512 17.5807,4.45841 17.3555,4.85008 17.1121,5.22956 16.8512,5.59626 16.5735,5.94958 16.2794,6.28894 15.9696,6.61375 15.6447,6.92343 15.3052,7.21738 14.9518,7.49503 14.585,7.75578 14.2053,7.99905 13.8135,8.22424 13.4101,8.43077 12.9957,8.61806 12.5708,8.78552 12.1361,8.93255 11.6922,9.05857 11.2395,9.163 10.7788,9.24524 10.3106,9.30472 9.83544,9.34083 9.354,9.353 8.87265,9.34083 8.39762,9.30472 7.92949,9.24524 7.46886,9.163 7.01631,9.05857 6.57243,8.93255 6.13781,8.78552 5.71303,8.61806 5.29869,8.43077 4.89536,8.22424 4.50364,7.99905 4.12412,7.75578 3.75738,7.49503 3.40402,7.21738 3.06461,6.92343 2.73975,6.61375 2.43002,6.28894 2.13602,5.94958 1.85833,5.59626 1.59754,5.22956 1.35423,4.85008 1.12899,4.45841 0.922418,4.05512 0.735094,3.64081 0.567606,3.21607 0.420543,2.78147 0.294493,2.33762 0.190043,1.88509 0.107781,1.42448 0.0482944,0.956369 0.0121716,0.481346 0,0"
       style="fill:none;stroke:#e30613;stroke-width:0.283;stroke-linecap:round;stroke-linejoin:round;stroke-miterlimit:10;stroke-dasharray:none;stroke-opacity:1"
       id="path2462"
       transform="matrix(1.33333,0,0,-1.33333,258.688,724.573)" /><path
       d="m 0,0 0.0234207,-0.463753 0.0687414,-0.450362 0.1117819,-0.434695 0.15254,-0.41674 0.19102,-0.3965 0.227217,-0.374 0.261129,-0.3492 0.29277,-0.32212 0.32213,-0.29278 0.3492,-0.26113 0.374,-0.22722 0.3965,-0.19102 0.41674,-0.15254 0.43469,-0.11178 0.45037,-0.06874 0.46375,-0.02342 0.46358,0.02342 0.45021,0.06874 0.43455,0.11178 0.41663,0.15254 0.39641,0.19102 0.37391,0.22722 0.34914,0.26113 0.32207,0.29278 0.29273,0.32212 0.2611,0.3492 0.2272,0.374 0.191,0.3965 0.15253,0.41674 0.11178,0.434695 0.06874,0.450362 L 9.071,0 9.04758,0.463906 8.97884,0.914359 8.86706,1.34909 8.71453,1.76581 8.52353,2.16227 8.29633,2.53617 8.03523,2.88526 7.7425,3.20725 7.42043,3.49988 7.07129,3.76086 6.69738,3.98793 6.30097,4.17881 5.88434,4.33123 5.44979,4.44292 4.99958,4.5116 4.536,4.535 4.07225,4.5116 3.62188,4.44292 3.18719,4.33123 2.77045,4.17881 2.37395,3.98793 1.99995,3.76086 1.65075,3.49988 1.32863,3.20725 1.03585,2.88526 0.774721,2.53617 0.547504,2.16227 0.356484,1.76581 0.203944,1.34909 0.0921621,0.914359 0.0234207,0.463906 0,0"
       style="fill:none;stroke:#e30613;stroke-width:0.283;stroke-linecap:round;stroke-linejoin:round;stroke-miterlimit:10;stroke-dasharray:none;stroke-opacity:1"
       id="path2486"
       transform="matrix(1.33333,0,0,-1.33333,259.426,793.402)" /><path
       d="m 0,0 0.0234207,-0.463753 0.0687414,-0.450362 0.1117819,-0.434695 0.15254,-0.41674 0.19102,-0.3965 0.227217,-0.374 0.261129,-0.3492 0.29277,-0.32212 0.32213,-0.29278 0.3492,-0.26113 0.374,-0.22722 0.3965,-0.19102 0.41674,-0.15254 0.43469,-0.11178 0.45037,-0.06874 0.46375,-0.02342 0.46374,0.02342 0.45033,0.06874 0.43464,0.11178 0.41668,0.15254 0.39643,0.19102 0.37391,0.22722 0.34911,0.26113 0.32203,0.29278 0.29268,0.32212 0.26105,0.3492 0.22713,0.374 0.19094,0.3965 0.15248,0.41674 0.11173,0.434695 0.06871,0.450362 L 9.071,0 9.04759,0.463906 8.97888,0.914359 8.86715,1.34909 8.71467,1.76581 8.52373,2.16227 8.2966,2.53617 8.03555,2.88526 7.74288,3.20725 7.42084,3.49988 7.07173,3.76086 6.69782,3.98793 6.30139,4.17881 5.88471,4.33123 5.45007,4.44292 4.99974,4.5116 4.536,4.535 4.07225,4.5116 3.62188,4.44292 3.18719,4.33123 2.77045,4.17881 2.37395,3.98793 1.99995,3.76086 1.65075,3.49988 1.32863,3.20725 1.03585,2.88526 0.774721,2.53617 0.547504,2.16227 0.356484,1.76581 0.203944,1.34909 0.0921621,0.914359 0.0234207,0.463906 0,0"
       style="fill:none;stroke:#e30613;stroke-width:0.283;stroke-linecap:round;stroke-linejoin:round;stroke-miterlimit:10;stroke-dasharray:none;stroke-opacity:1"
       id="path2490"
       transform="matrix(1.33333,0,0,-1.33333,509.031,793.402)" /><path
       d="M 407.17,238.339 H 177.847 V 602.591 H 407.17 V 238.339"
       style="fill:none;stroke:#e30613;stroke-width:0.283;stroke-linecap:round;stroke-linejoin:round;stroke-miterlimit:10;stroke-dasharray:none;stroke-opacity:1"
       id="path2366"
       transform="matrix(1.33333,0,0,-1.33333,0,1122.52)" /></g><g
     inkscape:groupmode="layer"
     id="layer2"
     inkscape:label="F.SilkS"><path
       d="M 543.31091,771.13734 H 237.67895 v -2.668 h 305.63196 z"
       style="fill:#0000ff;fill-opacity:1;fill-rule:nonzero;stroke:none;stroke-width:1.33333"
       id="path832" /><path
       d="M 542.44124,351.92826 H 236.80928 v -2.668 h 305.63196 z"
       style="fill:#0000ff;fill-opacity:1;fill-rule:nonzero;stroke:none;stroke-width:1.33333"
       id="path832-7" /><path
       d="M 416.23292,600.37691 V 412.6142 h 1.70485 v 187.76271 z"
       style="fill:#0000ff;fill-opacity:1;fill-rule:nonzero;stroke:none;stroke-width:1.33333"
       id="path832-7-4" /><path
       style="display:inline;fill:#0000ff;stroke:#000000;stroke-width:1px;stroke-linecap:butt;stroke-linejoin:miter;stroke-opacity:0.00877195"
       d="m 417.32284,598.8343 3.88344,-2.20088 -4.00313,5.99148 0.11971,-3.7906 v 0"
       id="path81149-6-7"
       sodipodi:nodetypes="ccccc" /><path
       style="display:inline;fill:#0000ff;stroke:#000000;stroke-width:1px;stroke-linecap:butt;stroke-linejoin:miter;stroke-opacity:0.00877195"
       d="m 417.03634,599.0492 -3.75426,-2.41464 3.94828,5.99107 0.0925,-3.79133 -0.57312,-0.0144"
       id="path81149-6-2-1"
       sodipodi:nodetypes="ccccc" /><text
       xml:space="preserve"
       style="font-style:italic;font-size:21.3333px;line-height:1.25;font-family:Futura;-inkscape-font-specification:'Futura Italic';font-variant-ligatures:none"
       x="351.96378"
       y="342.3772"
       id="text3877"><tspan
         sodipodi:role="line"
         id="tspan3875"
         x="351.96378"
         y="342.3772"
         style="font-style:normal;font-variant:normal;font-weight:500;font-stretch:normal;font-size:21.3333px;font-family:Futura;-inkscape-font-specification:'Futura Medium';fill:#0000ff">GRIDS</tspan></text><text
       xml:space="preserve"
       style="font-style:italic;font-size:10.6667px;line-height:1.25;font-family:Futura;-inkscape-font-specification:'Futura Italic';font-variant-ligatures:none"
       x="299.23767"
       y="791.57611"
       id="text9625"><tspan
         sodipodi:role="line"
         id="tspan9623"
         x="299.23767"
         y="791.57611"
         style="font-style:normal;font-variant:normal;font-weight:500;font-stretch:normal;font-size:10.6667px;font-family:Futura;-inkscape-font-specification:'Futura Medium';fill:#0000ff">TOPOGRAPHIC DRUM SEQUENCER</tspan></text><path
       d="M 462.39922,600.37589 V 494.09543 h 1.70485 v 106.28046 z"
       style="fill:#0000ff;fill-opacity:1;fill-rule:nonzero;stroke:none;stroke-width:1.33333"
       id="path832-7-4-7" /><path
       d="m 507.8012,600.30471 v -25.42672 h 1.70485 v 25.42672 z"
       style="fill:#0000ff;fill-opacity:1;fill-rule:nonzero;stroke:none;stroke-width:1.33333"
       id="path832-7-4-1" /><path
       style="display:inline;fill:#0000ff;stroke:#000000;stroke-width:1px;stroke-linecap:butt;stroke-linejoin:miter;stroke-opacity:0.00877195"
       d="m 508.86949,598.54995 3.88344,-2.20088 -4.00313,5.99148 0.11971,-3.7906 v 0"
       id="path81149-6-7-2"
       sodipodi:nodetypes="ccccc" /><path
       style="display:inline;fill:#0000ff;stroke:#000000;stroke-width:1px;stroke-linecap:butt;stroke-linejoin:miter;stroke-opacity:0.00877195"
       d="m 508.58299,598.76491 -3.75426,-2.41464 3.94828,5.99107 0.0925,-3.79133 -0.57312,-0.0144"
       id="path81149-6-2-1-2"
       sodipodi:nodetypes="ccccc" /><text
       xml:space="preserve"
       style="font-style:italic;font-size:21.3333px;line-height:1.25;font-family:'Akzidenz-Grotesk BQ Condensed';-inkscape-font-specification:'Akzidenz-Grotesk BQ Condensed,  Italic';font-variant-ligatures:none"
       x="256.99872"
       y="437.20193"
       id="text25389"><tspan
         sodipodi:role="line"
         id="tspan25387"
         x="256.99872"
         y="437.20193"
         style="font-size:21.3333px;fill:#0000ff">clock</tspan></text><text
       xml:space="preserve"
       style="font-style:italic;font-size:21.3333px;line-height:1.25;font-family:'Akzidenz-Grotesk BQ Condensed';-inkscape-font-specification:'Akzidenz-Grotesk BQ Condensed,  Italic';font-variant-ligatures:none"
       x="256.23834"
       y="520.0802"
       id="text33853"><tspan
         sodipodi:role="line"
         id="tspan33851"
         x="256.23834"
         y="520.0802"
         style="font-size:21.3333px;fill:#0000ff">reset</tspan></text><text
       xml:space="preserve"
       style="font-style:italic;font-size:21.3333px;line-height:1.25;font-family:'Akzidenz-Grotesk BQ Condensed';-inkscape-font-specification:'Akzidenz-Grotesk BQ Condensed,  Italic';font-variant-ligatures:none"
       x="252.4366"
       y="601.43781"
       id="text37157"><tspan
         sodipodi:role="line"
         id="tspan37155"
         x="252.4366"
         y="601.43781"
         style="font-size:21.3333px;fill:#0000ff">map x</tspan></text><text
       xml:space="preserve"
       style="font-style:italic;font-size:21.3333px;line-height:1.25;font-family:'Akzidenz-Grotesk BQ Condensed';-inkscape-font-specification:'Akzidenz-Grotesk BQ Condensed,  Italic';font-variant-ligatures:none"
       x="250.91588"
       y="682.03497"
       id="text40353"><tspan
         sodipodi:role="line"
         id="tspan40351"
         x="250.91588"
         y="682.03497"
         style="font-size:21.3333px;fill:#0000ff">map y</tspan></text><text
       xml:space="preserve"
       style="font-style:italic;font-size:21.3333px;line-height:1.25;font-family:'Akzidenz-Grotesk BQ Condensed';-inkscape-font-specification:'Akzidenz-Grotesk BQ Condensed,  Italic';font-variant-ligatures:none"
       x="252.43661"
       y="763.39264"
       id="text46933"><tspan
         sodipodi:role="line"
         id="tspan46931"
         x="252.43661"
         y="763.39264"
         style="font-size:21.3333px;fill:#0000ff">chaos</tspan></text><path
       d="M 372.48001,769.1941 V 350.05226 h 1.70485 V 769.1941 Z"
       style="fill:#0000ff;fill-opacity:1;fill-rule:nonzero;stroke:none;stroke-width:1.33333"
       id="path832-7-4-4" /><path
       d="m 373.99497,669.36595 h 168.74866 v 1.70486 H 373.99497 Z"
       style="fill:#0000ff;fill-opacity:1;fill-rule:nonzero;stroke:none;stroke-width:1.33333"
       id="path832-7-4-4-1" /><text
       xml:space="preserve"
       style="font-style:italic;font-size:16px;line-height:1.25;font-family:'Akzidenz-Grotesk BQ Condensed';-inkscape-font-specification:'Akzidenz-Grotesk BQ Condensed,  Italic';font-variant-ligatures:none"
       x="378.02563"
       y="698.48944"
       id="text53144"><tspan
         sodipodi:role="line"
         id="tspan53142"
         x="378.02563"
         y="698.48944"
         style="fill:#0000ff">trig</tspan></text><text
       xml:space="preserve"
       style="font-style:italic;font-size:16px;line-height:1.25;font-family:'Akzidenz-Grotesk BQ Condensed';-inkscape-font-specification:'Akzidenz-Grotesk BQ Condensed,  Italic';font-variant-ligatures:none"
       x="378.02563"
       y="746.08862"
       id="text57126"><tspan
         sodipodi:role="line"
         id="tspan57124"
         x="378.02563"
         y="746.08862"
         style="fill:#0000ff">acc.</tspan></text><text
       xml:space="preserve"
       style="font-style:italic;font-size:16px;line-height:1.25;font-family:'Akzidenz-Grotesk BQ Condensed';-inkscape-font-specification:'Akzidenz-Grotesk BQ Condensed,  Italic';font-variant-ligatures:none"
       x="381.97894"
       y="653.23901"
       id="text67192"><tspan
         sodipodi:role="line"
         id="tspan67190"
         x="381.97894"
         y="653.23901"
         style="fill:#0000ff">fill</tspan></text><path
       d="m 416.49792,635.8986 v -20.3218 h 1.70485 v 20.3218 z"
       style="fill:#0000ff;fill-opacity:1;fill-rule:nonzero;stroke:none;stroke-width:1.33333"
       id="path832-7-4-1-1" /><path
       d="m 462.73733,635.18241 v -19.70012 h 1.70485 v 19.70012 z"
       style="fill:#0000ff;fill-opacity:1;fill-rule:nonzero;stroke:none;stroke-width:1.33333"
       id="path832-7-4-1-5" /><path
       d="m 508.12961,635.27689 v -19.70012 h 1.70485 v 19.70012 z"
       style="fill:#0000ff;fill-opacity:1;fill-rule:nonzero;stroke:none;stroke-width:1.33333"
       id="path832-7-4-1-5-5" /><path
       d="m 416.65987,681.19039 v -21.01071 h 1.70485 v 21.01071 z"
       style="fill:#0000ff;fill-opacity:1;fill-rule:nonzero;stroke:none;stroke-width:1.33333"
       id="path832-7-4-1-5-58" /><path
       d="m 462.93029,681.19644 v -21.01071 h 1.70485 v 21.01071 z"
       style="fill:#0000ff;fill-opacity:1;fill-rule:nonzero;stroke:none;stroke-width:1.33333"
       id="path832-7-4-1-5-58-2" /><path
       d="m 508.41707,681.1184 v -21.01071 h 1.70485 v 21.01071 z"
       style="fill:#0000ff;fill-opacity:1;fill-rule:nonzero;stroke:none;stroke-width:1.33333"
       id="path832-7-4-1-5-58-9" /><path
       d="m 508.95641,726.64717 v -21.01071 h 1.70485 v 21.01071 z"
       style="fill:#0000ff;fill-opacity:1;fill-rule:nonzero;stroke:none;stroke-width:1.33333"
       id="path832-7-4-1-5-58-8" /><path
       d="m 463.25336,726.64717 v -21.01071 h 1.70485 v 21.01071 z"
       style="fill:#0000ff;fill-opacity:1;fill-rule:nonzero;stroke:none;stroke-width:1.33333"
       id="path832-7-4-1-5-58-20" /><path
       d="m 417.16787,726.45594 v -21.01071 h 1.70485 v 21.01071 z"
       style="fill:#0000ff;fill-opacity:1;fill-rule:nonzero;stroke:none;stroke-width:1.33333"
       id="path832-7-4-1-5-58-7" /><text
       xml:space="preserve"
       style="font-style:italic;font-size:16px;line-height:1.25;font-family:'Akzidenz-Grotesk BQ Condensed';-inkscape-font-specification:'Akzidenz-Grotesk BQ Condensed,  Italic';font-variant-ligatures:none"
       x="396.2124"
       y="615.24164"
       id="text71000"><tspan
         sodipodi:role="line"
         id="tspan70998"
         x="396.2124"
         y="615.24164"
         style="fill:#0000ff">1</tspan></text><text
       xml:space="preserve"
       style="font-style:italic;font-size:16px;line-height:1.25;font-family:'Akzidenz-Grotesk BQ Condensed';-inkscape-font-specification:'Akzidenz-Grotesk BQ Condensed,  Italic';font-variant-ligatures:none;white-space:pre;inline-size:0;fill:#0000ff"
       x="423.76749"
       y="608.73517"
       id="text74370"
       transform="translate(18.178035,7.271214)"><tspan
         id="tspan74368"
         x="423.76749"
         y="608.73517"
         style="fill:#0000ff">2</tspan></text><text
       xml:space="preserve"
       style="font-style:italic;font-size:16px;line-height:1.25;font-family:'Akzidenz-Grotesk BQ Condensed';-inkscape-font-specification:'Akzidenz-Grotesk BQ Condensed,  Italic';font-variant-ligatures:none"
       x="489.13004"
       y="615.83984"
       id="text78116"><tspan
         sodipodi:role="line"
         id="tspan78114"
         x="489.13004"
         y="615.83984"
         style="fill:#0000ff">3</tspan></text><path
       style="display:inline;fill:#0000ff;stroke:#000000;stroke-width:1px;stroke-linecap:butt;stroke-linejoin:miter;stroke-opacity:0.00877195"
       d="m 463.5331,598.48381 3.88344,-2.20088 -4.00313,5.99148 0.11971,-3.7906 v 0"
       id="path81149-6-7-0"
       sodipodi:nodetypes="ccccc" /><path
       style="display:inline;fill:#0000ff;stroke:#000000;stroke-width:1px;stroke-linecap:butt;stroke-linejoin:miter;stroke-opacity:0.00877195"
       d="m 463.2466,598.69877 -3.75426,-2.41464 3.94828,5.99107 0.0925,-3.79133 -0.57312,-0.0144"
       id="path81149-6-2-1-6"
       sodipodi:nodetypes="ccccc" /><rect
       style="opacity:0.6;fill:#4d4d4d;fill-opacity:0.45614;fill-rule:evenodd;stroke:#0000ff;stroke-width:0.377953"
       id="rect83806"
       width="305.76324"
       height="485.66812"
       x="237.12874"
       y="319.06735" /></g><g
     inkscape:groupmode="layer"
     id="layer3"
     inkscape:label="F.Cu"
     style="display:inline"><g
       id="g834"
       transform="matrix(1.3333333,0,0,-1.3333333,0,1122.52)" /></g><g
     inkscape:groupmode="layer"
     id="layer4"
     inkscape:label="F.Mask"
     style="display:inline"><path
       style="fill:none;fill-rule:evenodd"
       id="path1865"
       sodipodi:type="arc"
       sodipodi:cx="277.54019"
       sodipodi:cy="795.56451"
       sodipodi:rx="4.8900976"
       sodipodi:ry="1.956039"
       sodipodi:start="0.22623307"
       sodipodi:end="0.12165172"
       sodipodi:open="true"
       sodipodi:arc-type="arc"
       d="m 282.30568,796.00327 a 4.8900976,1.956039 0 0 1 -5.73742,1.47826 4.8900976,1.956039 0 0 1 -3.84438,-2.25554 4.8900976,1.956039 0 0 1 5.53643,-1.59619 4.8900976,1.956039 0 0 1 4.13384,2.17208" /></g></svg>
