  0
SECTION
  2
HEADER
  9
$ACADVER
  1
AC1014
  9
$HANDSEED
  5
FFFF
  9
$MEASUREMENT
 70
     1
  0
ENDSEC
  0
SECTION
  2
TABLES
  0
TABLE
  2
VPORT
  5
8
330
0
100
AcDbSymbolTable
 70
     4
  0
VPORT
  5
2E
330
8
100
AcDbSymbolTableRecord
100
AcDbViewportTableRecord
  2
*ACTIVE
 70
     0
 10
0.0
 20
0.0
 11
1.0
 21
1.0
 12
210.0
 22
148.5
 13
0.0
 23
0.0
 14
10.0
 24
10.0
 15
10.0
 25
10.0
 16
0.0
 26
0.0
 36
1.0
 17
0.0
 27
0.0
 37
0.0
 40
341.0
 41
1.24
 42
50.0
 43
0.0
 44
0.0
 50
0.0
 51
0.0
 71
     0
 72
   100
 73
     1
 74
     3
 75
     0
 76
     0
 77
     0
 78
     0
  0
ENDTAB
  0
TABLE
  2
LTYPE
  5
5
330
0
100
AcDbSymbolTable
 70
     1
  0
LTYPE
  5
14
330
5
100
AcDbSymbolTableRecord
100
AcDbLinetypeTableRecord
  2
BYBLOCK
 70
     0
  3

 72
    65
 73
     0
 40
0.0
  0
LTYPE
  5
15
330
5
100
AcDbSymbolTableRecord
100
AcDbLinetypeTableRecord
  2
BYLAYER
 70
     0
  3

 72
    65
 73
     0
 40
0.0
  0
LTYPE
  5
16
330
5
100
AcDbSymbolTableRecord
100
AcDbLinetypeTableRecord
  2
CONTINUOUS
 70
     0
  3
Solid line
 72
    65
 73
     0
 40
0.0
  0
ENDTAB
  0
TABLE
  2
LAYER
  5
2
100
AcDbSymbolTable
 70
6
  0
LAYER
  5
50
100
AcDbSymbolTableRecord
100
AcDbLayerTableRecord
  2
0
 70
0
  6
CONTINUOUS
  0
LAYER
  5
51
100
AcDbSymbolTableRecord
100
AcDbLayerTableRecord
  2
frames
 70
0
  6
CONTINUOUS
  0
LAYER
  5
52
100
AcDbSymbolTableRecord
100
AcDbLayerTableRecord
  2
F.Cu
 70
0
  6
CONTINUOUS
  0
LAYER
  5
53
100
AcDbSymbolTableRecord
100
AcDbLayerTableRecord
  2
F.Mask
 70
0
  6
CONTINUOUS
  0
LAYER
  5
54
100
AcDbSymbolTableRecord
100
AcDbLayerTableRecord
  2
F.SilkS
 70
0
  6
CONTINUOUS
  0
LAYER
  5
55
100
AcDbSymbolTableRecord
100
AcDbLayerTableRecord
  2
Edge.Cuts
 70
0
  6
CONTINUOUS
  0
ENDTAB
  0
TABLE
  2
STYLE
  5
3
330
0
100
AcDbSymbolTable
 70
     1
  0
STYLE
  5
11
330
3
100
AcDbSymbolTableRecord
100
AcDbTextStyleTableRecord
  2
STANDARD
 70
     0
 40
0.0
 41
1.0
 50
0.0
 71
     0
 42
2.5
  3
txt
  4

  0
ENDTAB
  0
TABLE
  2
VIEW
  5
6
330
0
100
AcDbSymbolTable
 70
     0
  0
ENDTAB
  0
TABLE
  2
UCS
  5
7
330
0
100
AcDbSymbolTable
 70
     0
  0
ENDTAB
  0
TABLE
  2
APPID
  5
9
330
0
100
AcDbSymbolTable
 70
     2
  0
APPID
  5
12
330
9
100
AcDbSymbolTableRecord
100
AcDbRegAppTableRecord
  2
ACAD
 70
     0
  0
ENDTAB
  0
TABLE
  2
DIMSTYLE
  5
A
330
0
100
AcDbSymbolTable
 70
     1
  0
DIMSTYLE
105
27
330
A
100
AcDbSymbolTableRecord
100
AcDbDimStyleTableRecord
  2
ISO-25
 70
     0
  3

  4

  5

  6

  7

 40
1.0
 41
2.5
 42
0.625
 43
3.75
 44
1.25
 45
0.0
 46
0.0
 47
0.0
 48
0.0
140
2.5
141
2.5
142
0.0
143
0.03937007874016
144
1.0
145
0.0
146
1.0
147
0.625
 71
     0
 72
     0
 73
     0
 74
     0
 75
     0
 76
     0
 77
     1
 78
     8
170
     0
171
     3
172
     1
173
     0
174
     0
175
     0
176
     0
177
     0
178
     0
270
     2
271
     2
272
     2
273
     2
274
     3
340
11
275
     0
280
     0
281
     0
282
     0
283
     0
284
     8
285
     0
286
     0
287
     3
288
     0
  0
ENDTAB
  0
TABLE
  2
BLOCK_RECORD
  5
1
330
0
100
AcDbSymbolTable
 70
     1
  0
BLOCK_RECORD
  5
1F
330
1
100
AcDbSymbolTableRecord
100
AcDbBlockTableRecord
  2
*MODEL_SPACE
  0
BLOCK_RECORD
  5
1B
330
1
100
AcDbSymbolTableRecord
100
AcDbBlockTableRecord
  2
*PAPER_SPACE
  0
ENDTAB
  0
ENDSEC
  0
SECTION
  2
BLOCKS
  0
BLOCK
  5
20
330
1F
100
AcDbEntity
  8
0
100
AcDbBlockBegin
  2
*MODEL_SPACE
 70
     0
 10
0.0
 20
0.0
 30
0.0
  3
*MODEL_SPACE
  1

  0
ENDBLK
  5
21
330
1F
100
AcDbEntity
  8
0
100
AcDbBlockEnd
  0
BLOCK
  5
1C
330
1B
100
AcDbEntity
 67
     1
  8
0
100
AcDbBlockBegin
  2
*PAPER_SPACE
  1

  0
ENDBLK
  5
1D
330
1B
100
AcDbEntity
 67
     1
  8
0
100
AcDbBlockEnd
  0
ENDSEC
  0
SECTION
  2
ENTITIES
  0
LWPOLYLINE
  5
100
100
AcDbEntity
  8
Edge.Cuts
 62
1
100
AcDbPolyline
 90
64
 70
1
 10
40.235997
 20
163.392787
 30
0.0
 10
40.244255
 20
163.229190
 30
0.0
 10
40.268494
 20
163.070323
 30
0.0
 10
40.307911
 20
162.916993
 30
0.0
 10
40.361701
 20
162.769998
 30
0.0
 10
40.429062
 20
162.630146
 30
0.0
 10
40.509189
 20
162.498239
 30
0.0
 10
40.601280
 20
162.375081
 30
0.0
 10
40.704527
 20
162.261473
 30
0.0
 10
40.818135
 20
162.158226
 30
0.0
 10
40.941293
 20
162.066133
 30
0.0
 10
41.073200
 20
161.986007
 30
0.0
 10
41.213051
 20
161.918648
 30
0.0
 10
41.360047
 20
161.864857
 30
0.0
 10
41.513378
 20
161.825441
 30
0.0
 10
41.672244
 20
161.801201
 30
0.0
 10
41.835841
 20
161.792943
 30
0.0
 10
41.999437
 20
161.801201
 30
0.0
 10
42.158303
 20
161.825441
 30
0.0
 10
42.311634
 20
161.864857
 30
0.0
 10
42.458630
 20
161.918648
 30
0.0
 10
42.598481
 20
161.986007
 30
0.0
 10
42.730388
 20
162.066133
 30
0.0
 10
42.853546
 20
162.158226
 30
0.0
 10
42.967154
 20
162.261473
 30
0.0
 10
43.070401
 20
162.375081
 30
0.0
 10
43.162494
 20
162.498239
 30
0.0
 10
43.242620
 20
162.630146
 30
0.0
 10
43.309979
 20
162.769998
 30
0.0
 10
43.363771
 20
162.916993
 30
0.0
 10
43.403187
 20
163.070323
 30
0.0
 10
43.427426
 20
163.229190
 30
0.0
 10
43.435684
 20
163.392787
 30
0.0
 10
43.427426
 20
163.556384
 30
0.0
 10
43.403187
 20
163.715250
 30
0.0
 10
43.363771
 20
163.868581
 30
0.0
 10
43.309979
 20
164.015576
 30
0.0
 10
43.242620
 20
164.155427
 30
0.0
 10
43.162494
 20
164.287334
 30
0.0
 10
43.070401
 20
164.410492
 30
0.0
 10
42.967154
 20
164.524100
 30
0.0
 10
42.853546
 20
164.627348
 30
0.0
 10
42.730388
 20
164.719440
 30
0.0
 10
42.598481
 20
164.799566
 30
0.0
 10
42.458630
 20
164.866926
 30
0.0
 10
42.311634
 20
164.920717
 30
0.0
 10
42.158303
 20
164.960133
 30
0.0
 10
41.999437
 20
164.984372
 30
0.0
 10
41.835841
 20
164.992631
 30
0.0
 10
41.672244
 20
164.984372
 30
0.0
 10
41.513378
 20
164.960133
 30
0.0
 10
41.360047
 20
164.920717
 30
0.0
 10
41.213051
 20
164.866926
 30
0.0
 10
41.073200
 20
164.799566
 30
0.0
 10
40.941293
 20
164.719440
 30
0.0
 10
40.818135
 20
164.627348
 30
0.0
 10
40.704527
 20
164.524100
 30
0.0
 10
40.601280
 20
164.410492
 30
0.0
 10
40.509189
 20
164.287334
 30
0.0
 10
40.429062
 20
164.155427
 30
0.0
 10
40.361701
 20
164.015576
 30
0.0
 10
40.307911
 20
163.868581
 30
0.0
 10
40.268494
 20
163.715250
 30
0.0
 10
40.244255
 20
163.556384
 30
0.0
  0
LWPOLYLINE
  5
101
100
AcDbEntity
  8
Edge.Cuts
 62
1
100
AcDbPolyline
 90
4
 70
1
 10
34.335788
 20
37.892567
 30
0.0
 10
125.635895
 20
37.892567
 30
0.0
 10
125.635895
 20
166.392306
 30
0.0
 10
34.335788
 20
166.392306
 30
0.0
  0
LWPOLYLINE
  5
102
100
AcDbEntity
  8
Edge.Cuts
 62
1
100
AcDbPolyline
 90
64
 70
1
 10
116.435761
 20
163.392787
 30
0.0
 10
116.444020
 20
163.229190
 30
0.0
 10
116.468259
 20
163.070323
 30
0.0
 10
116.507675
 20
162.916993
 30
0.0
 10
116.561466
 20
162.769998
 30
0.0
 10
116.628826
 20
162.630146
 30
0.0
 10
116.708953
 20
162.498239
 30
0.0
 10
116.801044
 20
162.375081
 30
0.0
 10
116.904292
 20
162.261473
 30
0.0
 10
117.017900
 20
162.158226
 30
0.0
 10
117.141058
 20
162.066133
 30
0.0
 10
117.272965
 20
161.986007
 30
0.0
 10
117.412816
 20
161.918648
 30
0.0
 10
117.559811
 20
161.864857
 30
0.0
 10
117.713142
 20
161.825441
 30
0.0
 10
117.872008
 20
161.801201
 30
0.0
 10
118.035605
 20
161.792943
 30
0.0
 10
118.199265
 20
161.801201
 30
0.0
 10
118.358184
 20
161.825441
 30
0.0
 10
118.511565
 20
161.864857
 30
0.0
 10
118.658599
 20
161.918648
 30
0.0
 10
118.798485
 20
161.986007
 30
0.0
 10
118.930421
 20
162.066133
 30
0.0
 10
119.053600
 20
162.158226
 30
0.0
 10
119.167226
 20
162.261473
 30
0.0
 10
119.270491
 20
162.375081
 30
0.0
 10
119.362590
 20
162.498239
 30
0.0
 10
119.442727
 20
162.630146
 30
0.0
 10
119.510093
 20
162.769998
 30
0.0
 10
119.563885
 20
162.916993
 30
0.0
 10
119.603304
 20
163.070323
 30
0.0
 10
119.627543
 20
163.229190
 30
0.0
 10
119.635802
 20
163.392787
 30
0.0
 10
119.627543
 20
163.556384
 30
0.0
 10
119.603304
 20
163.715250
 30
0.0
 10
119.563885
 20
163.868581
 30
0.0
 10
119.510093
 20
164.015576
 30
0.0
 10
119.442727
 20
164.155427
 30
0.0
 10
119.362590
 20
164.287334
 30
0.0
 10
119.270491
 20
164.410492
 30
0.0
 10
119.167226
 20
164.524100
 30
0.0
 10
119.053600
 20
164.627348
 30
0.0
 10
118.930421
 20
164.719440
 30
0.0
 10
118.798485
 20
164.799566
 30
0.0
 10
118.658599
 20
164.866926
 30
0.0
 10
118.511565
 20
164.920717
 30
0.0
 10
118.358184
 20
164.960133
 30
0.0
 10
118.199265
 20
164.984372
 30
0.0
 10
118.035605
 20
164.992631
 30
0.0
 10
117.872008
 20
164.984372
 30
0.0
 10
117.713142
 20
164.960133
 30
0.0
 10
117.559811
 20
164.920717
 30
0.0
 10
117.412816
 20
164.866926
 30
0.0
 10
117.272965
 20
164.799566
 30
0.0
 10
117.141058
 20
164.719440
 30
0.0
 10
117.017900
 20
164.627348
 30
0.0
 10
116.904292
 20
164.524100
 30
0.0
 10
116.801044
 20
164.410492
 30
0.0
 10
116.708953
 20
164.287334
 30
0.0
 10
116.628826
 20
164.155427
 30
0.0
 10
116.561466
 20
164.015576
 30
0.0
 10
116.507675
 20
163.868581
 30
0.0
 10
116.468259
 20
163.715250
 30
0.0
 10
116.444020
 20
163.556384
 30
0.0
  0
LWPOLYLINE
  5
103
100
AcDbEntity
  8
Edge.Cuts
 62
1
100
AcDbPolyline
 90
128
 70
1
 10
41.771110
 20
142.282468
 30
0.0
 10
41.775988
 20
142.089518
 30
0.0
 10
41.790466
 20
141.899102
 30
0.0
 10
41.814308
 20
141.711449
 30
0.0
 10
41.847279
 20
141.526802
 30
0.0
 10
41.889144
 20
141.345397
 30
0.0
 10
41.939667
 20
141.167464
 30
0.0
 10
41.998612
 20
140.993241
 30
0.0
 10
42.065745
 20
140.822963
 30
0.0
 10
42.140831
 20
140.656868
 30
0.0
 10
42.223631
 20
140.495190
 30
0.0
 10
42.313914
 20
140.338166
 30
0.0
 10
42.411442
 20
140.186031
 30
0.0
 10
42.515981
 20
140.039018
 30
0.0
 10
42.627293
 20
139.897367
 30
0.0
 10
42.745148
 20
139.761308
 30
0.0
 10
42.869305
 20
139.631084
 30
0.0
 10
42.999532
 20
139.506924
 30
0.0
 10
43.135591
 20
139.389069
 30
0.0
 10
43.277249
 20
139.277750
 30
0.0
 10
43.424269
 20
139.173208
 30
0.0
 10
43.576418
 20
139.075672
 30
0.0
 10
43.733457
 20
138.985382
 30
0.0
 10
43.895156
 20
138.902571
 30
0.0
 10
44.061271
 20
138.827479
 30
0.0
 10
44.231574
 20
138.760339
 30
0.0
 10
44.405829
 20
138.701393
 30
0.0
 10
44.583797
 20
138.650840
 30
0.0
 10
44.765248
 20
138.609001
 30
0.0
 10
44.949941
 20
138.576016
 30
0.0
 10
45.137640
 20
138.552169
 30
0.0
 10
45.328125
 20
138.537670
 30
0.0
 10
45.521130
 20
138.532801
 30
0.0
 10
45.714063
 20
138.537670
 30
0.0
 10
45.904457
 20
138.552169
 30
0.0
 10
46.092064
 20
138.576016
 30
0.0
 10
46.276707
 20
138.609001
 30
0.0
 10
46.458105
 20
138.650840
 30
0.0
 10
46.636046
 20
138.701393
 30
0.0
 10
46.810247
 20
138.760339
 30
0.0
 10
46.980533
 20
138.827479
 30
0.0
 10
47.146656
 20
138.902571
 30
0.0
 10
47.308333
 20
138.985382
 30
0.0
 10
47.465354
 20
139.075672
 30
0.0
 10
47.617507
 20
139.173208
 30
0.0
 10
47.764545
 20
139.277750
 30
0.0
 10
47.906220
 20
139.389069
 30
0.0
 10
48.042321
 20
139.506924
 30
0.0
 10
48.172566
 20
139.631084
 30
0.0
 10
48.296744
 20
139.761308
 30
0.0
 10
48.414607
 20
139.897367
 30
0.0
 10
48.525979
 20
140.039018
 30
0.0
 10
48.630542
 20
140.186031
 30
0.0
 10
48.728084
 20
140.338166
 30
0.0
 10
48.818431
 20
140.495190
 30
0.0
 10
48.901263
 20
140.656868
 30
0.0
 10
48.976369
 20
140.822963
 30
0.0
 10
49.043538
 20
140.993241
 30
0.0
 10
49.102487
 20
141.167464
 30
0.0
 10
49.153040
 20
141.345397
 30
0.0
 10
49.194950
 20
141.526802
 30
0.0
 10
49.227934
 20
141.711449
 30
0.0
 10
49.251782
 20
141.899102
 30
0.0
 10
49.266281
 20
142.089518
 30
0.0
 10
49.271149
 20
142.282468
 30
0.0
 10
49.266281
 20
142.475450
 30
0.0
 10
49.251782
 20
142.665898
 30
0.0
 10
49.227934
 20
142.853575
 30
0.0
 10
49.194950
 20
143.038251
 30
0.0
 10
49.153040
 20
143.219680
 30
0.0
 10
49.102487
 20
143.397639
 30
0.0
 10
49.043538
 20
143.571882
 30
0.0
 10
48.976369
 20
143.742178
 30
0.0
 10
48.901263
 20
143.908291
 30
0.0
 10
48.818431
 20
144.069982
 30
0.0
 10
48.728084
 20
144.227025
 30
0.0
 10
48.630542
 20
144.379174
 30
0.0
 10
48.525979
 20
144.526197
 30
0.0
 10
48.414607
 20
144.667862
 30
0.0
 10
48.296744
 20
144.803928
 30
0.0
 10
48.172566
 20
144.934163
 30
0.0
 10
48.042321
 20
145.058326
 30
0.0
 10
47.906220
 20
145.176189
 30
0.0
 10
47.764545
 20
145.287515
 30
0.0
 10
47.617507
 20
145.392064
 30
0.0
 10
47.465354
 20
145.489603
 30
0.0
 10
47.308333
 20
145.579896
 30
0.0
 10
47.146656
 20
145.662707
 30
0.0
 10
46.980533
 20
145.737803
 30
0.0
 10
46.810247
 20
145.804947
 30
0.0
 10
46.636046
 20
145.863896
 30
0.0
 10
46.458105
 20
145.914449
 30
0.0
 10
46.276707
 20
145.956288
 30
0.0
 10
46.092064
 20
145.989273
 30
0.0
 10
45.904457
 20
146.013121
 30
0.0
 10
45.714063
 20
146.027620
 30
0.0
 10
45.521130
 20
146.032488
 30
0.0
 10
45.328125
 20
146.027620
 30
0.0
 10
45.137640
 20
146.013121
 30
0.0
 10
44.949941
 20
145.989273
 30
0.0
 10
44.765248
 20
145.956288
 30
0.0
 10
44.583797
 20
145.914449
 30
0.0
 10
44.405829
 20
145.863896
 30
0.0
 10
44.231574
 20
145.804947
 30
0.0
 10
44.061271
 20
145.737803
 30
0.0
 10
43.895156
 20
145.662707
 30
0.0
 10
43.733457
 20
145.579896
 30
0.0
 10
43.576418
 20
145.489603
 30
0.0
 10
43.424269
 20
145.392064
 30
0.0
 10
43.277249
 20
145.287515
 30
0.0
 10
43.135591
 20
145.176189
 30
0.0
 10
42.999532
 20
145.058326
 30
0.0
 10
42.869305
 20
144.934163
 30
0.0
 10
42.745148
 20
144.803928
 30
0.0
 10
42.627293
 20
144.667862
 30
0.0
 10
42.515981
 20
144.526197
 30
0.0
 10
42.411442
 20
144.379174
 30
0.0
 10
42.313914
 20
144.227025
 30
0.0
 10
42.223631
 20
144.069982
 30
0.0
 10
42.140831
 20
143.908291
 30
0.0
 10
42.065745
 20
143.742178
 30
0.0
 10
41.998612
 20
143.571882
 30
0.0
 10
41.939667
 20
143.397639
 30
0.0
 10
41.889144
 20
143.219680
 30
0.0
 10
41.847279
 20
143.038251
 30
0.0
 10
41.814308
 20
142.853575
 30
0.0
 10
41.790466
 20
142.665898
 30
0.0
 10
41.775988
 20
142.475450
 30
0.0
  0
LWPOLYLINE
  5
104
100
AcDbEntity
  8
Edge.Cuts
 62
1
100
AcDbPolyline
 90
128
 70
1
 10
64.631383
 20
142.282468
 30
0.0
 10
64.636261
 20
142.089518
 30
0.0
 10
64.650739
 20
141.899102
 30
0.0
 10
64.674582
 20
141.711449
 30
0.0
 10
64.707553
 20
141.526802
 30
0.0
 10
64.749417
 20
141.345397
 30
0.0
 10
64.799940
 20
141.167464
 30
0.0
 10
64.858885
 20
140.993241
 30
0.0
 10
64.926018
 20
140.822963
 30
0.0
 10
65.001104
 20
140.656868
 30
0.0
 10
65.083904
 20
140.495190
 30
0.0
 10
65.174187
 20
140.338166
 30
0.0
 10
65.271716
 20
140.186031
 30
0.0
 10
65.376254
 20
140.039018
 30
0.0
 10
65.487566
 20
139.897367
 30
0.0
 10
65.605422
 20
139.761308
 30
0.0
 10
65.729578
 20
139.631084
 30
0.0
 10
65.859806
 20
139.506924
 30
0.0
 10
65.995865
 20
139.389069
 30
0.0
 10
66.137522
 20
139.277750
 30
0.0
 10
66.284542
 20
139.173208
 30
0.0
 10
66.436691
 20
139.075672
 30
0.0
 10
66.593730
 20
138.985382
 30
0.0
 10
66.755429
 20
138.902571
 30
0.0
 10
66.921545
 20
138.827479
 30
0.0
 10
67.091848
 20
138.760339
 30
0.0
 10
67.266102
 20
138.701393
 30
0.0
 10
67.444071
 20
138.650840
 30
0.0
 10
67.625522
 20
138.609001
 30
0.0
 10
67.810215
 20
138.576016
 30
0.0
 10
67.997913
 20
138.552169
 30
0.0
 10
68.188399
 20
138.537670
 30
0.0
 10
68.381403
 20
138.532801
 30
0.0
 10
68.574301
 20
138.537670
 30
0.0
 10
68.764660
 20
138.552169
 30
0.0
 10
68.952267
 20
138.576016
 30
0.0
 10
69.136875
 20
138.609001
 30
0.0
 10
69.318238
 20
138.650840
 30
0.0
 10
69.496143
 20
138.701393
 30
0.0
 10
69.670344
 20
138.760339
 30
0.0
 10
69.840595
 20
138.827479
 30
0.0
 10
70.006682
 20
138.902571
 30
0.0
 10
70.168360
 20
138.985382
 30
0.0
 10
70.325381
 20
139.075672
 30
0.0
 10
70.477533
 20
139.173208
 30
0.0
 10
70.624536
 20
139.277750
 30
0.0
 10
70.766211
 20
139.389069
 30
0.0
 10
70.902277
 20
139.506924
 30
0.0
 10
71.032522
 20
139.631084
 30
0.0
 10
71.156700
 20
139.761308
 30
0.0
 10
71.274563
 20
139.897367
 30
0.0
 10
71.385899
 20
140.039018
 30
0.0
 10
71.490462
 20
140.186031
 30
0.0
 10
71.588040
 20
140.338166
 30
0.0
 10
71.678351
 20
140.495190
 30
0.0
 10
71.761183
 20
140.656868
 30
0.0
 10
71.836290
 20
140.822963
 30
0.0
 10
71.903458
 20
140.993241
 30
0.0
 10
71.962407
 20
141.167464
 30
0.0
 10
72.012960
 20
141.345397
 30
0.0
 10
72.054870
 20
141.526802
 30
0.0
 10
72.087855
 20
141.711449
 30
0.0
 10
72.111703
 20
141.899102
 30
0.0
 10
72.126202
 20
142.089518
 30
0.0
 10
72.131070
 20
142.282468
 30
0.0
 10
72.126202
 20
142.475450
 30
0.0
 10
72.111703
 20
142.665898
 30
0.0
 10
72.087855
 20
142.853575
 30
0.0
 10
72.054870
 20
143.038251
 30
0.0
 10
72.012960
 20
143.219680
 30
0.0
 10
71.962407
 20
143.397639
 30
0.0
 10
71.903458
 20
143.571882
 30
0.0
 10
71.836290
 20
143.742178
 30
0.0
 10
71.761183
 20
143.908291
 30
0.0
 10
71.678351
 20
144.069982
 30
0.0
 10
71.588040
 20
144.227025
 30
0.0
 10
71.490462
 20
144.379174
 30
0.0
 10
71.385899
 20
144.526197
 30
0.0
 10
71.274563
 20
144.667862
 30
0.0
 10
71.156700
 20
144.803928
 30
0.0
 10
71.032522
 20
144.934163
 30
0.0
 10
70.902277
 20
145.058326
 30
0.0
 10
70.766211
 20
145.176189
 30
0.0
 10
70.624536
 20
145.287515
 30
0.0
 10
70.477533
 20
145.392064
 30
0.0
 10
70.325381
 20
145.489603
 30
0.0
 10
70.168360
 20
145.579896
 30
0.0
 10
70.006682
 20
145.662707
 30
0.0
 10
69.840595
 20
145.737803
 30
0.0
 10
69.670344
 20
145.804947
 30
0.0
 10
69.496143
 20
145.863896
 30
0.0
 10
69.318238
 20
145.914449
 30
0.0
 10
69.136875
 20
145.956288
 30
0.0
 10
68.952267
 20
145.989273
 30
0.0
 10
68.764660
 20
146.013121
 30
0.0
 10
68.574301
 20
146.027620
 30
0.0
 10
68.381403
 20
146.032488
 30
0.0
 10
68.188399
 20
146.027620
 30
0.0
 10
67.997913
 20
146.013121
 30
0.0
 10
67.810215
 20
145.989273
 30
0.0
 10
67.625522
 20
145.956288
 30
0.0
 10
67.444071
 20
145.914449
 30
0.0
 10
67.266102
 20
145.863896
 30
0.0
 10
67.091848
 20
145.804947
 30
0.0
 10
66.921545
 20
145.737803
 30
0.0
 10
66.755429
 20
145.662707
 30
0.0
 10
66.593730
 20
145.579896
 30
0.0
 10
66.436691
 20
145.489603
 30
0.0
 10
66.284542
 20
145.392064
 30
0.0
 10
66.137522
 20
145.287515
 30
0.0
 10
65.995865
 20
145.176189
 30
0.0
 10
65.859806
 20
145.058326
 30
0.0
 10
65.729578
 20
144.934163
 30
0.0
 10
65.605422
 20
144.803928
 30
0.0
 10
65.487566
 20
144.667862
 30
0.0
 10
65.376254
 20
144.526197
 30
0.0
 10
65.271716
 20
144.379174
 30
0.0
 10
65.174187
 20
144.227025
 30
0.0
 10
65.083904
 20
144.069982
 30
0.0
 10
65.001104
 20
143.908291
 30
0.0
 10
64.926018
 20
143.742178
 30
0.0
 10
64.858885
 20
143.571882
 30
0.0
 10
64.799940
 20
143.397639
 30
0.0
 10
64.749417
 20
143.219680
 30
0.0
 10
64.707553
 20
143.038251
 30
0.0
 10
64.674582
 20
142.853575
 30
0.0
 10
64.650739
 20
142.665898
 30
0.0
 10
64.636261
 20
142.475450
 30
0.0
  0
LWPOLYLINE
  5
105
100
AcDbEntity
  8
Edge.Cuts
 62
1
100
AcDbPolyline
 90
128
 70
1
 10
87.490863
 20
142.282468
 30
0.0
 10
87.495743
 20
142.089518
 30
0.0
 10
87.510227
 20
141.899102
 30
0.0
 10
87.534078
 20
141.711449
 30
0.0
 10
87.567060
 20
141.526802
 30
0.0
 10
87.608939
 20
141.345397
 30
0.0
 10
87.659478
 20
141.167464
 30
0.0
 10
87.718440
 20
140.993241
 30
0.0
 10
87.785591
 20
140.822963
 30
0.0
 10
87.860696
 20
140.656868
 30
0.0
 10
87.943514
 20
140.495190
 30
0.0
 10
88.033815
 20
140.338166
 30
0.0
 10
88.131361
 20
140.186031
 30
0.0
 10
88.235917
 20
140.039018
 30
0.0
 10
88.347247
 20
139.897367
 30
0.0
 10
88.465109
 20
139.761308
 30
0.0
 10
88.589276
 20
139.631084
 30
0.0
 10
88.719511
 20
139.506924
 30
0.0
 10
88.855574
 20
139.389069
 30
0.0
 10
88.997231
 20
139.277750
 30
0.0
 10
89.144247
 20
139.173208
 30
0.0
 10
89.296386
 20
139.075672
 30
0.0
 10
89.453407
 20
138.985382
 30
0.0
 10
89.615085
 20
138.902571
 30
0.0
 10
89.781172
 20
138.827479
 30
0.0
 10
89.951444
 20
138.760339
 30
0.0
 10
90.125656
 20
138.701393
 30
0.0
 10
90.303575
 20
138.650840
 30
0.0
 10
90.484966
 20
138.609001
 30
0.0
 10
90.669592
 20
138.576016
 30
0.0
 10
90.857220
 20
138.552169
 30
0.0
 10
91.047596
 20
138.537670
 30
0.0
 10
91.240530
 20
138.532801
 30
0.0
 10
91.433499
 20
138.537670
 30
0.0
 10
91.623963
 20
138.552169
 30
0.0
 10
91.811640
 20
138.576016
 30
0.0
 10
91.996319
 20
138.609001
 30
0.0
 10
92.177752
 20
138.650840
 30
0.0
 10
92.355693
 20
138.701393
 30
0.0
 10
92.529930
 20
138.760339
 30
0.0
 10
92.700251
 20
138.827479
 30
0.0
 10
92.866338
 20
138.902571
 30
0.0
 10
93.028051
 20
138.985382
 30
0.0
 10
93.185072
 20
139.075672
 30
0.0
 10
93.337225
 20
139.173208
 30
0.0
 10
93.484262
 20
139.277750
 30
0.0
 10
93.625937
 20
139.389069
 30
0.0
 10
93.762004
 20
139.506924
 30
0.0
 10
93.892214
 20
139.631084
 30
0.0
 10
94.016391
 20
139.761308
 30
0.0
 10
94.134254
 20
139.897367
 30
0.0
 10
94.245590
 20
140.039018
 30
0.0
 10
94.350118
 20
140.186031
 30
0.0
 10
94.447661
 20
140.338166
 30
0.0
 10
94.537972
 20
140.495190
 30
0.0
 10
94.620769
 20
140.656868
 30
0.0
 10
94.695875
 20
140.822963
 30
0.0
 10
94.763008
 20
140.993241
 30
0.0
 10
94.821957
 20
141.167464
 30
0.0
 10
94.872510
 20
141.345397
 30
0.0
 10
94.914350
 20
141.526802
 30
0.0
 10
94.947334
 20
141.711449
 30
0.0
 10
94.971182
 20
141.899102
 30
0.0
 10
94.985681
 20
142.089518
 30
0.0
 10
94.990550
 20
142.282468
 30
0.0
 10
94.985681
 20
142.475450
 30
0.0
 10
94.971182
 20
142.665898
 30
0.0
 10
94.947334
 20
142.853575
 30
0.0
 10
94.914350
 20
143.038251
 30
0.0
 10
94.872510
 20
143.219680
 30
0.0
 10
94.821957
 20
143.397639
 30
0.0
 10
94.763008
 20
143.571882
 30
0.0
 10
94.695875
 20
143.742178
 30
0.0
 10
94.620769
 20
143.908291
 30
0.0
 10
94.537972
 20
144.069982
 30
0.0
 10
94.447661
 20
144.227025
 30
0.0
 10
94.350118
 20
144.379174
 30
0.0
 10
94.245590
 20
144.526197
 30
0.0
 10
94.134254
 20
144.667862
 30
0.0
 10
94.016391
 20
144.803928
 30
0.0
 10
93.892214
 20
144.934163
 30
0.0
 10
93.762004
 20
145.058326
 30
0.0
 10
93.625937
 20
145.176189
 30
0.0
 10
93.484262
 20
145.287515
 30
0.0
 10
93.337225
 20
145.392064
 30
0.0
 10
93.185072
 20
145.489603
 30
0.0
 10
93.028051
 20
145.579896
 30
0.0
 10
92.866338
 20
145.662707
 30
0.0
 10
92.700251
 20
145.737803
 30
0.0
 10
92.529930
 20
145.804947
 30
0.0
 10
92.355693
 20
145.863896
 30
0.0
 10
92.177752
 20
145.914449
 30
0.0
 10
91.996319
 20
145.956288
 30
0.0
 10
91.811640
 20
145.989273
 30
0.0
 10
91.623963
 20
146.013121
 30
0.0
 10
91.433499
 20
146.027620
 30
0.0
 10
91.240530
 20
146.032488
 30
0.0
 10
91.047596
 20
146.027620
 30
0.0
 10
90.857220
 20
146.013121
 30
0.0
 10
90.669592
 20
145.989273
 30
0.0
 10
90.484966
 20
145.956288
 30
0.0
 10
90.303575
 20
145.914449
 30
0.0
 10
90.125656
 20
145.863896
 30
0.0
 10
89.951444
 20
145.804947
 30
0.0
 10
89.781172
 20
145.737803
 30
0.0
 10
89.615085
 20
145.662707
 30
0.0
 10
89.453407
 20
145.579896
 30
0.0
 10
89.296386
 20
145.489603
 30
0.0
 10
89.144247
 20
145.392064
 30
0.0
 10
88.997231
 20
145.287515
 30
0.0
 10
88.855574
 20
145.176189
 30
0.0
 10
88.719511
 20
145.058326
 30
0.0
 10
88.589276
 20
144.934163
 30
0.0
 10
88.465109
 20
144.803928
 30
0.0
 10
88.347247
 20
144.667862
 30
0.0
 10
88.235917
 20
144.526197
 30
0.0
 10
88.131361
 20
144.379174
 30
0.0
 10
88.033815
 20
144.227025
 30
0.0
 10
87.943514
 20
144.069982
 30
0.0
 10
87.860696
 20
143.908291
 30
0.0
 10
87.785591
 20
143.742178
 30
0.0
 10
87.718440
 20
143.571882
 30
0.0
 10
87.659478
 20
143.397639
 30
0.0
 10
87.608939
 20
143.219680
 30
0.0
 10
87.567060
 20
143.038251
 30
0.0
 10
87.534078
 20
142.853575
 30
0.0
 10
87.510227
 20
142.665898
 30
0.0
 10
87.495743
 20
142.475450
 30
0.0
  0
LWPOLYLINE
  5
106
100
AcDbEntity
  8
Edge.Cuts
 62
1
100
AcDbPolyline
 90
128
 70
1
 10
110.350871
 20
142.282468
 30
0.0
 10
110.355751
 20
142.089518
 30
0.0
 10
110.370232
 20
141.899102
 30
0.0
 10
110.394078
 20
141.711449
 30
0.0
 10
110.427055
 20
141.526802
 30
0.0
 10
110.468927
 20
141.345397
 30
0.0
 10
110.519458
 20
141.167464
 30
0.0
 10
110.578413
 20
140.993241
 30
0.0
 10
110.645556
 20
140.822963
 30
0.0
 10
110.720652
 20
140.656868
 30
0.0
 10
110.803463
 20
140.495190
 30
0.0
 10
110.893756
 20
140.338166
 30
0.0
 10
110.991296
 20
140.186031
 30
0.0
 10
111.095845
 20
140.039018
 30
0.0
 10
111.207171
 20
139.897367
 30
0.0
 10
111.325033
 20
139.761308
 30
0.0
 10
111.449200
 20
139.631084
 30
0.0
 10
111.579432
 20
139.506924
 30
0.0
 10
111.715498
 20
139.389069
 30
0.0
 10
111.857162
 20
139.277750
 30
0.0
 10
112.004186
 20
139.173208
 30
0.0
 10
112.156335
 20
139.075672
 30
0.0
 10
112.313377
 20
138.985382
 30
0.0
 10
112.475069
 20
138.902571
 30
0.0
 10
112.641181
 20
138.827479
 30
0.0
 10
112.811477
 20
138.760339
 30
0.0
 10
112.985721
 20
138.701393
 30
0.0
 10
113.163679
 20
138.650840
 30
0.0
 10
113.345109
 20
138.609001
 30
0.0
 10
113.529784
 20
138.576016
 30
0.0
 10
113.717461
 20
138.552169
 30
0.0
 10
113.907922
 20
138.537670
 30
0.0
 10
114.100891
 20
138.532801
 30
0.0
 10
114.293825
 20
138.537670
 30
0.0
 10
114.484254
 20
138.552169
 30
0.0
 10
114.671931
 20
138.576016
 30
0.0
 10
114.856575
 20
138.609001
 30
0.0
 10
115.037973
 20
138.650840
 30
0.0
 10
115.215914
 20
138.701393
 30
0.0
 10
115.390150
 20
138.760339
 30
0.0
 10
115.560436
 20
138.827479
 30
0.0
 10
115.726558
 20
138.902571
 30
0.0
 10
115.888236
 20
138.985382
 30
0.0
 10
116.045292
 20
139.075672
 30
0.0
 10
116.197445
 20
139.173208
 30
0.0
 10
116.344483
 20
139.277750
 30
0.0
 10
116.486123
 20
139.389069
 30
0.0
 10
116.622224
 20
139.506924
 30
0.0
 10
116.752469
 20
139.631084
 30
0.0
 10
116.876612
 20
139.761308
 30
0.0
 10
116.994510
 20
139.897367
 30
0.0
 10
117.105846
 20
140.039018
 30
0.0
 10
117.210409
 20
140.186031
 30
0.0
 10
117.307952
 20
140.338166
 30
0.0
 10
117.398263
 20
140.495190
 30
0.0
 10
117.481060
 20
140.656868
 30
0.0
 10
117.556166
 20
140.822963
 30
0.0
 10
117.623335
 20
140.993241
 30
0.0
 10
117.682284
 20
141.167464
 30
0.0
 10
117.732837
 20
141.345397
 30
0.0
 10
117.774711
 20
141.526802
 30
0.0
 10
117.807696
 20
141.711449
 30
0.0
 10
117.831544
 20
141.899102
 30
0.0
 10
117.846043
 20
142.089518
 30
0.0
 10
117.850911
 20
142.282468
 30
0.0
 10
117.846043
 20
142.475450
 30
0.0
 10
117.831544
 20
142.665898
 30
0.0
 10
117.807696
 20
142.853575
 30
0.0
 10
117.774711
 20
143.038251
 30
0.0
 10
117.732837
 20
143.219680
 30
0.0
 10
117.682284
 20
143.397639
 30
0.0
 10
117.623335
 20
143.571882
 30
0.0
 10
117.556166
 20
143.742178
 30
0.0
 10
117.481060
 20
143.908291
 30
0.0
 10
117.398263
 20
144.069982
 30
0.0
 10
117.307952
 20
144.227025
 30
0.0
 10
117.210409
 20
144.379174
 30
0.0
 10
117.105846
 20
144.526197
 30
0.0
 10
116.994510
 20
144.667862
 30
0.0
 10
116.876612
 20
144.803928
 30
0.0
 10
116.752469
 20
144.934163
 30
0.0
 10
116.622224
 20
145.058326
 30
0.0
 10
116.486123
 20
145.176189
 30
0.0
 10
116.344483
 20
145.287515
 30
0.0
 10
116.197445
 20
145.392064
 30
0.0
 10
116.045292
 20
145.489603
 30
0.0
 10
115.888236
 20
145.579896
 30
0.0
 10
115.726558
 20
145.662707
 30
0.0
 10
115.560436
 20
145.737803
 30
0.0
 10
115.390150
 20
145.804947
 30
0.0
 10
115.215914
 20
145.863896
 30
0.0
 10
115.037973
 20
145.914449
 30
0.0
 10
114.856575
 20
145.956288
 30
0.0
 10
114.671931
 20
145.989273
 30
0.0
 10
114.484254
 20
146.013121
 30
0.0
 10
114.293825
 20
146.027620
 30
0.0
 10
114.100891
 20
146.032488
 30
0.0
 10
113.907922
 20
146.027620
 30
0.0
 10
113.717461
 20
146.013121
 30
0.0
 10
113.529784
 20
145.989273
 30
0.0
 10
113.345109
 20
145.956288
 30
0.0
 10
113.163679
 20
145.914449
 30
0.0
 10
112.985721
 20
145.863896
 30
0.0
 10
112.811477
 20
145.804947
 30
0.0
 10
112.641181
 20
145.737803
 30
0.0
 10
112.475069
 20
145.662707
 30
0.0
 10
112.313377
 20
145.579896
 30
0.0
 10
112.156335
 20
145.489603
 30
0.0
 10
112.004186
 20
145.392064
 30
0.0
 10
111.857162
 20
145.287515
 30
0.0
 10
111.715498
 20
145.176189
 30
0.0
 10
111.579432
 20
145.058326
 30
0.0
 10
111.449200
 20
144.934163
 30
0.0
 10
111.325033
 20
144.803928
 30
0.0
 10
111.207171
 20
144.667862
 30
0.0
 10
111.095845
 20
144.526197
 30
0.0
 10
110.991296
 20
144.379174
 30
0.0
 10
110.893756
 20
144.227025
 30
0.0
 10
110.803463
 20
144.069982
 30
0.0
 10
110.720652
 20
143.908291
 30
0.0
 10
110.645556
 20
143.742178
 30
0.0
 10
110.578413
 20
143.571882
 30
0.0
 10
110.519458
 20
143.397639
 30
0.0
 10
110.468927
 20
143.219680
 30
0.0
 10
110.427055
 20
143.038251
 30
0.0
 10
110.394078
 20
142.853575
 30
0.0
 10
110.370232
 20
142.665898
 30
0.0
 10
110.355751
 20
142.475450
 30
0.0
  0
LWPOLYLINE
  5
107
100
AcDbEntity
  8
Edge.Cuts
 62
1
100
AcDbPolyline
 90
64
 70
1
 10
43.970856
 20
130.852728
 30
0.0
 10
43.978862
 20
130.694166
 30
0.0
 10
44.002360
 20
130.540201
 30
0.0
 10
44.040570
 20
130.391610
 30
0.0
 10
44.092713
 20
130.249169
 30
0.0
 10
44.158009
 20
130.113661
 30
0.0
 10
44.235677
 20
129.985857
 30
0.0
 10
44.324939
 20
129.866533
 30
0.0
 10
44.425011
 20
129.756474
 30
0.0
 10
44.535120
 20
129.656451
 30
0.0
 10
44.654482
 20
129.567241
 30
0.0
 10
44.782318
 20
129.489626
 30
0.0
 10
44.917848
 20
129.424380
 30
0.0
 10
45.060292
 20
129.372278
 30
0.0
 10
45.208871
 20
129.334101
 30
0.0
 10
45.362802
 20
129.310624
 30
0.0
 10
45.521311
 20
129.302626
 30
0.0
 10
45.679758
 20
129.310624
 30
0.0
 10
45.833636
 20
129.334101
 30
0.0
 10
45.982169
 20
129.372278
 30
0.0
 10
46.124571
 20
129.424380
 30
0.0
 10
46.260065
 20
129.489626
 30
0.0
 10
46.387873
 20
129.567241
 30
0.0
 10
46.507214
 20
129.656451
 30
0.0
 10
46.617302
 20
129.756474
 30
0.0
 10
46.717363
 20
129.866533
 30
0.0
 10
46.806612
 20
129.985857
 30
0.0
 10
46.884273
 20
130.113661
 30
0.0
 10
46.949561
 20
130.249169
 30
0.0
 10
47.001701
 20
130.391610
 30
0.0
 10
47.039911
 20
130.540201
 30
0.0
 10
47.063409
 20
130.694166
 30
0.0
 10
47.071414
 20
130.852728
 30
0.0
 10
47.063409
 20
131.011236
 30
0.0
 10
47.039911
 20
131.165170
 30
0.0
 10
47.001701
 20
131.313748
 30
0.0
 10
46.949561
 20
131.456192
 30
0.0
 10
46.884273
 20
131.591722
 30
0.0
 10
46.806612
 20
131.719558
 30
0.0
 10
46.717363
 20
131.838920
 30
0.0
 10
46.617302
 20
131.949025
 30
0.0
 10
46.507214
 20
132.049101
 30
0.0
 10
46.387873
 20
132.138364
 30
0.0
 10
46.260065
 20
132.216032
 30
0.0
 10
46.124571
 20
132.281327
 30
0.0
 10
45.982169
 20
132.333468
 30
0.0
 10
45.833636
 20
132.371681
 30
0.0
 10
45.679758
 20
132.395179
 30
0.0
 10
45.521311
 20
132.403184
 30
0.0
 10
45.362802
 20
132.395179
 30
0.0
 10
45.208871
 20
132.371681
 30
0.0
 10
45.060292
 20
132.333468
 30
0.0
 10
44.917848
 20
132.281327
 30
0.0
 10
44.782318
 20
132.216032
 30
0.0
 10
44.654482
 20
132.138364
 30
0.0
 10
44.535120
 20
132.049101
 30
0.0
 10
44.425011
 20
131.949025
 30
0.0
 10
44.324939
 20
131.838920
 30
0.0
 10
44.235677
 20
131.719558
 30
0.0
 10
44.158009
 20
131.591722
 30
0.0
 10
44.092713
 20
131.456192
 30
0.0
 10
44.040570
 20
131.313748
 30
0.0
 10
44.002360
 20
131.165170
 30
0.0
 10
43.978862
 20
131.011236
 30
0.0
  0
LWPOLYLINE
  5
108
100
AcDbEntity
  8
Edge.Cuts
 62
1
100
AcDbPolyline
 90
64
 70
1
 10
66.830865
 20
130.852728
 30
0.0
 10
66.838875
 20
130.694166
 30
0.0
 10
66.862384
 20
130.540201
 30
0.0
 10
66.900610
 20
130.391610
 30
0.0
 10
66.952772
 20
130.249169
 30
0.0
 10
67.018089
 20
130.113661
 30
0.0
 10
67.095779
 20
129.985857
 30
0.0
 10
67.185060
 20
129.866533
 30
0.0
 10
67.285154
 20
129.756474
 30
0.0
 10
67.395277
 20
129.656451
 30
0.0
 10
67.514646
 20
129.567241
 30
0.0
 10
67.642482
 20
129.489626
 30
0.0
 10
67.778004
 20
129.424380
 30
0.0
 10
67.920431
 20
129.372278
 30
0.0
 10
68.068979
 20
129.334101
 30
0.0
 10
68.222870
 20
129.310624
 30
0.0
 10
68.381320
 20
129.302626
 30
0.0
 10
68.539819
 20
129.310624
 30
0.0
 10
68.693733
 20
129.334101
 30
0.0
 10
68.842276
 20
129.372278
 30
0.0
 10
68.984675
 20
129.424380
 30
0.0
 10
69.120148
 20
129.489626
 30
0.0
 10
69.247928
 20
129.567241
 30
0.0
 10
69.367223
 20
129.656451
 30
0.0
 10
69.477264
 20
129.756474
 30
0.0
 10
69.577273
 20
129.866533
 30
0.0
 10
69.666473
 20
129.985857
 30
0.0
 10
69.744080
 20
130.113661
 30
0.0
 10
69.809323
 20
130.249169
 30
0.0
 10
69.861421
 20
130.391610
 30
0.0
 10
69.899595
 20
130.540201
 30
0.0
 10
69.923072
 20
130.694166
 30
0.0
 10
69.931070
 20
130.852728
 30
0.0
 10
69.923072
 20
131.011236
 30
0.0
 10
69.899595
 20
131.165170
 30
0.0
 10
69.861421
 20
131.313748
 30
0.0
 10
69.809323
 20
131.456192
 30
0.0
 10
69.744080
 20
131.591722
 30
0.0
 10
69.666473
 20
131.719558
 30
0.0
 10
69.577273
 20
131.838920
 30
0.0
 10
69.477264
 20
131.949025
 30
0.0
 10
69.367223
 20
132.049101
 30
0.0
 10
69.247928
 20
132.138364
 30
0.0
 10
69.120148
 20
132.216032
 30
0.0
 10
68.984675
 20
132.281327
 30
0.0
 10
68.842276
 20
132.333468
 30
0.0
 10
68.693733
 20
132.371681
 30
0.0
 10
68.539819
 20
132.395179
 30
0.0
 10
68.381320
 20
132.403184
 30
0.0
 10
68.222870
 20
132.395179
 30
0.0
 10
68.068982
 20
132.371681
 30
0.0
 10
67.920431
 20
132.333468
 30
0.0
 10
67.778004
 20
132.281327
 30
0.0
 10
67.642482
 20
132.216032
 30
0.0
 10
67.514646
 20
132.138364
 30
0.0
 10
67.395277
 20
132.049101
 30
0.0
 10
67.285154
 20
131.949025
 30
0.0
 10
67.185060
 20
131.838920
 30
0.0
 10
67.095779
 20
131.719558
 30
0.0
 10
67.018089
 20
131.591722
 30
0.0
 10
66.952772
 20
131.456192
 30
0.0
 10
66.900610
 20
131.313748
 30
0.0
 10
66.862384
 20
131.165170
 30
0.0
 10
66.838875
 20
131.011236
 30
0.0
  0
LWPOLYLINE
  5
109
100
AcDbEntity
  8
Edge.Cuts
 62
1
100
AcDbPolyline
 90
64
 70
1
 10
89.691139
 20
130.852728
 30
0.0
 10
89.699137
 20
130.694166
 30
0.0
 10
89.722612
 20
130.540201
 30
0.0
 10
89.760788
 20
130.391610
 30
0.0
 10
89.812885
 20
130.249169
 30
0.0
 10
89.878127
 20
130.113661
 30
0.0
 10
89.955736
 20
129.985857
 30
0.0
 10
90.044935
 20
129.866533
 30
0.0
 10
90.144940
 20
129.756474
 30
0.0
 10
90.254986
 20
129.656451
 30
0.0
 10
90.374281
 20
129.567241
 30
0.0
 10
90.502060
 20
129.489626
 30
0.0
 10
90.637533
 20
129.424380
 30
0.0
 10
90.779932
 20
129.372278
 30
0.0
 10
90.928476
 20
129.334101
 30
0.0
 10
91.082389
 20
129.310624
 30
0.0
 10
91.240888
 20
129.302626
 30
0.0
 10
91.399391
 20
129.310624
 30
0.0
 10
91.553314
 20
129.334101
 30
0.0
 10
91.701876
 20
129.372278
 30
0.0
 10
91.844295
 20
129.424380
 30
0.0
 10
91.979801
 20
129.489626
 30
0.0
 10
92.107605
 20
129.567241
 30
0.0
 10
92.226935
 20
129.656451
 30
0.0
 10
92.337012
 20
129.756474
 30
0.0
 10
92.437053
 20
129.866533
 30
0.0
 10
92.526281
 20
129.985857
 30
0.0
 10
92.603920
 20
130.113661
 30
0.0
 10
92.669187
 20
130.249169
 30
0.0
 10
92.721310
 20
130.391610
 30
0.0
 10
92.759501
 20
130.540201
 30
0.0
 10
92.782989
 20
130.694166
 30
0.0
 10
92.790990
 20
130.852728
 30
0.0
 10
92.782989
 20
131.011236
 30
0.0
 10
92.759501
 20
131.165170
 30
0.0
 10
92.721310
 20
131.313748
 30
0.0
 10
92.669187
 20
131.456192
 30
0.0
 10
92.603920
 20
131.591722
 30
0.0
 10
92.526281
 20
131.719558
 30
0.0
 10
92.437053
 20
131.838920
 30
0.0
 10
92.337012
 20
131.949025
 30
0.0
 10
92.226935
 20
132.049101
 30
0.0
 10
92.107605
 20
132.138364
 30
0.0
 10
91.979801
 20
132.216032
 30
0.0
 10
91.844295
 20
132.281327
 30
0.0
 10
91.701876
 20
132.333468
 30
0.0
 10
91.553314
 20
132.371681
 30
0.0
 10
91.399391
 20
132.395179
 30
0.0
 10
91.240888
 20
132.403184
 30
0.0
 10
91.082389
 20
132.395179
 30
0.0
 10
90.928476
 20
132.371681
 30
0.0
 10
90.779932
 20
132.333468
 30
0.0
 10
90.637533
 20
132.281327
 30
0.0
 10
90.502060
 20
132.216032
 30
0.0
 10
90.374281
 20
132.138364
 30
0.0
 10
90.254986
 20
132.049101
 30
0.0
 10
90.144944
 20
131.949025
 30
0.0
 10
90.044935
 20
131.838920
 30
0.0
 10
89.955736
 20
131.719558
 30
0.0
 10
89.878127
 20
131.591722
 30
0.0
 10
89.812885
 20
131.456192
 30
0.0
 10
89.760788
 20
131.313748
 30
0.0
 10
89.722612
 20
131.165170
 30
0.0
 10
89.699137
 20
131.011236
 30
0.0
  0
LWPOLYLINE
  5
10a
100
AcDbEntity
  8
Edge.Cuts
 62
1
100
AcDbPolyline
 90
64
 70
1
 10
112.550618
 20
130.852728
 30
0.0
 10
112.558624
 20
130.694166
 30
0.0
 10
112.582122
 20
130.540201
 30
0.0
 10
112.620332
 20
130.391610
 30
0.0
 10
112.672475
 20
130.249169
 30
0.0
 10
112.737770
 20
130.113661
 30
0.0
 10
112.815439
 20
129.985857
 30
0.0
 10
112.904700
 20
129.866533
 30
0.0
 10
113.004773
 20
129.756474
 30
0.0
 10
113.114881
 20
129.656451
 30
0.0
 10
113.234244
 20
129.567241
 30
0.0
 10
113.362079
 20
129.489626
 30
0.0
 10
113.497609
 20
129.424380
 30
0.0
 10
113.640054
 20
129.372278
 30
0.0
 10
113.788633
 20
129.334101
 30
0.0
 10
113.942563
 20
129.310624
 30
0.0
 10
114.101073
 20
129.302626
 30
0.0
 10
114.259512
 20
129.310624
 30
0.0
 10
114.413369
 20
129.334101
 30
0.0
 10
114.561863
 20
129.372278
 30
0.0
 10
114.704223
 20
129.424380
 30
0.0
 10
114.839665
 20
129.489626
 30
0.0
 10
114.967412
 20
129.567241
 30
0.0
 10
115.086686
 20
129.656451
 30
0.0
 10
115.196710
 20
129.756474
 30
0.0
 10
115.296705
 20
129.866533
 30
0.0
 10
115.385891
 20
129.985857
 30
0.0
 10
115.463491
 20
130.113661
 30
0.0
 10
115.528730
 20
130.249169
 30
0.0
 10
115.580825
 20
130.391610
 30
0.0
 10
115.618999
 20
130.540201
 30
0.0
 10
115.642472
 20
130.694166
 30
0.0
 10
115.650470
 20
130.852728
 30
0.0
 10
115.642472
 20
131.011236
 30
0.0
 10
115.618999
 20
131.165170
 30
0.0
 10
115.580825
 20
131.313748
 30
0.0
 10
115.528730
 20
131.456192
 30
0.0
 10
115.463491
 20
131.591722
 30
0.0
 10
115.385891
 20
131.719558
 30
0.0
 10
115.296705
 20
131.838920
 30
0.0
 10
115.196710
 20
131.949025
 30
0.0
 10
115.086686
 20
132.049101
 30
0.0
 10
114.967412
 20
132.138364
 30
0.0
 10
114.839665
 20
132.216032
 30
0.0
 10
114.704223
 20
132.281327
 30
0.0
 10
114.561863
 20
132.333468
 30
0.0
 10
114.413369
 20
132.371681
 30
0.0
 10
114.259512
 20
132.395179
 30
0.0
 10
114.101073
 20
132.403184
 30
0.0
 10
113.942563
 20
132.395179
 30
0.0
 10
113.788633
 20
132.371681
 30
0.0
 10
113.640054
 20
132.333468
 30
0.0
 10
113.497609
 20
132.281327
 30
0.0
 10
113.362079
 20
132.216032
 30
0.0
 10
113.234244
 20
132.138364
 30
0.0
 10
113.114881
 20
132.049101
 30
0.0
 10
113.004773
 20
131.949025
 30
0.0
 10
112.904700
 20
131.838920
 30
0.0
 10
112.815439
 20
131.719558
 30
0.0
 10
112.737770
 20
131.591722
 30
0.0
 10
112.672475
 20
131.456192
 30
0.0
 10
112.620332
 20
131.313748
 30
0.0
 10
112.582122
 20
131.165170
 30
0.0
 10
112.558624
 20
131.011236
 30
0.0
  0
LWPOLYLINE
  5
10b
100
AcDbEntity
  8
Edge.Cuts
 62
1
100
AcDbPolyline
 90
128
 70
1
 10
107.810870
 20
111.802721
 30
0.0
 10
107.815751
 20
111.609739
 30
0.0
 10
107.830234
 20
111.419291
 30
0.0
 10
107.854086
 20
111.231614
 30
0.0
 10
107.887069
 20
111.046939
 30
0.0
 10
107.928948
 20
110.865509
 30
0.0
 10
107.979488
 20
110.687551
 30
0.0
 10
108.038452
 20
110.513307
 30
0.0
 10
108.105605
 20
110.343011
 30
0.0
 10
108.180711
 20
110.176899
 30
0.0
 10
108.263533
 20
110.015207
 30
0.0
 10
108.353837
 20
109.858165
 30
0.0
 10
108.451387
 20
109.706016
 30
0.0
 10
108.555950
 20
109.558992
 30
0.0
 10
108.667283
 20
109.417328
 30
0.0
 10
108.785156
 20
109.281261
 30
0.0
 10
108.909330
 20
109.151027
 30
0.0
 10
109.039572
 20
109.026863
 30
0.0
 10
109.175645
 20
108.909001
 30
0.0
 10
109.317313
 20
108.797675
 30
0.0
 10
109.464340
 20
108.693126
 30
0.0
 10
109.616493
 20
108.595586
 30
0.0
 10
109.773531
 20
108.505293
 30
0.0
 10
109.935223
 20
108.422482
 30
0.0
 10
110.101332
 20
108.347387
 30
0.0
 10
110.271617
 20
108.280243
 30
0.0
 10
110.445854
 20
108.221293
 30
0.0
 10
110.623795
 20
108.170741
 30
0.0
 10
110.805210
 20
108.128901
 30
0.0
 10
110.989864
 20
108.095917
 30
0.0
 10
111.177517
 20
108.072069
 30
0.0
 10
111.367957
 20
108.057570
 30
0.0
 10
111.560890
 20
108.052701
 30
0.0
 10
111.753895
 20
108.057570
 30
0.0
 10
111.944394
 20
108.072069
 30
0.0
 10
112.132072
 20
108.095917
 30
0.0
 10
112.316786
 20
108.128901
 30
0.0
 10
112.498219
 20
108.170741
 30
0.0
 10
112.676195
 20
108.221293
 30
0.0
 10
112.850431
 20
108.280243
 30
0.0
 10
113.020752
 20
108.347387
 30
0.0
 10
113.186875
 20
108.422482
 30
0.0
 10
113.348553
 20
108.505293
 30
0.0
 10
113.505609
 20
108.595586
 30
0.0
 10
113.657762
 20
108.693126
 30
0.0
 10
113.804764
 20
108.797675
 30
0.0
 10
113.946439
 20
108.909001
 30
0.0
 10
114.082505
 20
109.026863
 30
0.0
 10
114.212715
 20
109.151027
 30
0.0
 10
114.336857
 20
109.281261
 30
0.0
 10
114.454720
 20
109.417328
 30
0.0
 10
114.566057
 20
109.558992
 30
0.0
 10
114.670585
 20
109.706016
 30
0.0
 10
114.768092
 20
109.858165
 30
0.0
 10
114.858403
 20
110.015207
 30
0.0
 10
114.941200
 20
110.176899
 30
0.0
 10
115.016271
 20
110.343011
 30
0.0
 10
115.083404
 20
110.513307
 30
0.0
 10
115.142353
 20
110.687551
 30
0.0
 10
115.192871
 20
110.865509
 30
0.0
 10
115.234746
 20
111.046939
 30
0.0
 10
115.267695
 20
111.231614
 30
0.0
 10
115.291543
 20
111.419291
 30
0.0
 10
115.306042
 20
111.609739
 30
0.0
 10
115.310910
 20
111.802721
 30
0.0
 10
115.306042
 20
111.995672
 30
0.0
 10
115.291543
 20
112.186095
 30
0.0
 10
115.267695
 20
112.373747
 30
0.0
 10
115.234746
 20
112.558401
 30
0.0
 10
115.192871
 20
112.739817
 30
0.0
 10
115.142353
 20
112.917758
 30
0.0
 10
115.083404
 20
113.091994
 30
0.0
 10
115.016271
 20
113.262280
 30
0.0
 10
114.941200
 20
113.428388
 30
0.0
 10
114.858403
 20
113.590080
 30
0.0
 10
114.768092
 20
113.747119
 30
0.0
 10
114.670585
 20
113.899272
 30
0.0
 10
114.566057
 20
114.046298
 30
0.0
 10
114.454720
 20
114.187967
 30
0.0
 10
114.336857
 20
114.324040
 30
0.0
 10
114.212715
 20
114.454282
 30
0.0
 10
114.082505
 20
114.578456
 30
0.0
 10
113.946439
 20
114.696329
 30
0.0
 10
113.804764
 20
114.807662
 30
0.0
 10
113.657762
 20
114.912225
 30
0.0
 10
113.505609
 20
115.009775
 30
0.0
 10
113.348553
 20
115.100079
 30
0.0
 10
113.186875
 20
115.182900
 30
0.0
 10
113.020752
 20
115.258006
 30
0.0
 10
112.850431
 20
115.325161
 30
0.0
 10
112.676195
 20
115.384114
 30
0.0
 10
112.498219
 20
115.434667
 30
0.0
 10
112.316786
 20
115.476541
 30
0.0
 10
112.132072
 20
115.509526
 30
0.0
 10
111.944394
 20
115.533374
 30
0.0
 10
111.753895
 20
115.547873
 30
0.0
 10
111.560890
 20
115.552741
 30
0.0
 10
111.367957
 20
115.547873
 30
0.0
 10
111.177517
 20
115.533374
 30
0.0
 10
110.989864
 20
115.509526
 30
0.0
 10
110.805210
 20
115.476541
 30
0.0
 10
110.623795
 20
115.434667
 30
0.0
 10
110.445854
 20
115.384114
 30
0.0
 10
110.271617
 20
115.325161
 30
0.0
 10
110.101332
 20
115.258006
 30
0.0
 10
109.935223
 20
115.182900
 30
0.0
 10
109.773531
 20
115.100079
 30
0.0
 10
109.616493
 20
115.009775
 30
0.0
 10
109.464340
 20
114.912225
 30
0.0
 10
109.317313
 20
114.807662
 30
0.0
 10
109.175645
 20
114.696329
 30
0.0
 10
109.039572
 20
114.578456
 30
0.0
 10
108.909330
 20
114.454282
 30
0.0
 10
108.785156
 20
114.324040
 30
0.0
 10
108.667283
 20
114.187967
 30
0.0
 10
108.555950
 20
114.046298
 30
0.0
 10
108.451387
 20
113.899272
 30
0.0
 10
108.353837
 20
113.747119
 30
0.0
 10
108.263533
 20
113.590080
 30
0.0
 10
108.180711
 20
113.428388
 30
0.0
 10
108.105605
 20
113.262280
 30
0.0
 10
108.038452
 20
113.091994
 30
0.0
 10
107.979488
 20
112.917758
 30
0.0
 10
107.928948
 20
112.739817
 30
0.0
 10
107.887069
 20
112.558401
 30
0.0
 10
107.854086
 20
112.373747
 30
0.0
 10
107.830234
 20
112.186095
 30
0.0
 10
107.815751
 20
111.995672
 30
0.0
  0
LWPOLYLINE
  5
10c
100
AcDbEntity
  8
Edge.Cuts
 62
1
100
AcDbPolyline
 90
128
 70
1
 10
77.261009
 20
121.322962
 30
0.0
 10
77.264328
 20
121.191744
 30
0.0
 10
77.274177
 20
121.062248
 30
0.0
 10
77.290397
 20
120.934636
 30
0.0
 10
77.312826
 20
120.809065
 30
0.0
 10
77.341305
 20
120.685699
 30
0.0
 10
77.375674
 20
120.564696
 30
0.0
 10
77.415771
 20
120.446220
 30
0.0
 10
77.461436
 20
120.330424
 30
0.0
 10
77.512509
 20
120.217476
 30
0.0
 10
77.568830
 20
120.107529
 30
0.0
 10
77.630236
 20
120.000747
 30
0.0
 10
77.696572
 20
119.897292
 30
0.0
 10
77.767674
 20
119.797322
 30
0.0
 10
77.843380
 20
119.700996
 30
0.0
 10
77.923531
 20
119.608473
 30
0.0
 10
78.007972
 20
119.519919
 30
0.0
 10
78.096533
 20
119.435489
 30
0.0
 10
78.189059
 20
119.355348
 30
0.0
 10
78.285392
 20
119.279650
 30
0.0
 10
78.385366
 20
119.208561
 30
0.0
 10
78.488825
 20
119.142236
 30
0.0
 10
78.595603
 20
119.080839
 30
0.0
 10
78.705546
 20
119.024528
 30
0.0
 10
78.818491
 20
118.973467
 30
0.0
 10
78.934280
 20
118.927811
 30
0.0
 10
79.052746
 20
118.887725
 30
0.0
 10
79.173738
 20
118.853364
 30
0.0
 10
79.297086
 20
118.824892
 30
0.0
 10
79.422636
 20
118.802469
 30
0.0
 10
79.550225
 20
118.786256
 30
0.0
 10
79.679694
 20
118.776406
 30
0.0
 10
79.810881
 20
118.773090
 30
0.0
 10
79.942068
 20
118.776406
 30
0.0
 10
80.071538
 20
118.786256
 30
0.0
 10
80.199126
 20
118.802469
 30
0.0
 10
80.324676
 20
118.824892
 30
0.0
 10
80.448025
 20
118.853364
 30
0.0
 10
80.569017
 20
118.887725
 30
0.0
 10
80.687483
 20
118.927811
 30
0.0
 10
80.803278
 20
118.973467
 30
0.0
 10
80.916202
 20
119.024528
 30
0.0
 10
81.026163
 20
119.080839
 30
0.0
 10
81.132948
 20
119.142236
 30
0.0
 10
81.236383
 20
119.208561
 30
0.0
 10
81.336360
 20
119.279650
 30
0.0
 10
81.432703
 20
119.355348
 30
0.0
 10
81.525236
 20
119.435489
 30
0.0
 10
81.613783
 20
119.519919
 30
0.0
 10
81.698238
 20
119.608473
 30
0.0
 10
81.778389
 20
119.700996
 30
0.0
 10
81.854095
 20
119.797322
 30
0.0
 10
81.925180
 20
119.897292
 30
0.0
 10
81.991537
 20
120.000747
 30
0.0
 10
82.052920
 20
120.107529
 30
0.0
 10
82.109259
 20
120.217476
 30
0.0
 10
82.160341
 20
120.330424
 30
0.0
 10
82.205990
 20
120.446220
 30
0.0
 10
82.246101
 20
120.564696
 30
0.0
 10
82.280461
 20
120.685699
 30
0.0
 10
82.308931
 20
120.809065
 30
0.0
 10
82.331367
 20
120.934636
 30
0.0
 10
82.347595
 20
121.062248
 30
0.0
 10
82.357437
 20
121.191744
 30
0.0
 10
82.360754
 20
121.322962
 30
0.0
 10
82.357437
 20
121.454151
 30
0.0
 10
82.347595
 20
121.583623
 30
0.0
 10
82.331367
 20
121.711218
 30
0.0
 10
82.308931
 20
121.836771
 30
0.0
 10
82.280461
 20
121.960131
 30
0.0
 10
82.246101
 20
122.081130
 30
0.0
 10
82.205990
 20
122.199610
 30
0.0
 10
82.160341
 20
122.315405
 30
0.0
 10
82.109259
 20
122.428364
 30
0.0
 10
82.052920
 20
122.538322
 30
0.0
 10
81.991537
 20
122.645118
 30
0.0
 10
81.925180
 20
122.748591
 30
0.0
 10
81.854095
 20
122.848582
 30
0.0
 10
81.778389
 20
122.944929
 30
0.0
 10
81.698238
 20
123.037469
 30
0.0
 10
81.613783
 20
123.126052
 30
0.0
 10
81.525236
 20
123.210503
 30
0.0
 10
81.432703
 20
123.290671
 30
0.0
 10
81.336360
 20
123.366395
 30
0.0
 10
81.236383
 20
123.437511
 30
0.0
 10
81.132948
 20
123.503862
 30
0.0
 10
81.026163
 20
123.565284
 30
0.0
 10
80.916202
 20
123.621619
 30
0.0
 10
80.803278
 20
123.672704
 30
0.0
 10
80.687483
 20
123.718382
 30
0.0
 10
80.569017
 20
123.758489
 30
0.0
 10
80.448025
 20
123.792867
 30
0.0
 10
80.324676
 20
123.821354
 30
0.0
 10
80.199126
 20
123.843791
 30
0.0
 10
80.071538
 20
123.860015
 30
0.0
 10
79.942068
 20
123.869868
 30
0.0
 10
79.810881
 20
123.873187
 30
0.0
 10
79.679694
 20
123.869868
 30
0.0
 10
79.550225
 20
123.860015
 30
0.0
 10
79.422636
 20
123.843791
 30
0.0
 10
79.297086
 20
123.821354
 30
0.0
 10
79.173738
 20
123.792867
 30
0.0
 10
79.052746
 20
123.758489
 30
0.0
 10
78.934280
 20
123.718382
 30
0.0
 10
78.818491
 20
123.672704
 30
0.0
 10
78.705546
 20
123.621619
 30
0.0
 10
78.595603
 20
123.565284
 30
0.0
 10
78.488825
 20
123.503862
 30
0.0
 10
78.385366
 20
123.437511
 30
0.0
 10
78.285392
 20
123.366395
 30
0.0
 10
78.189059
 20
123.290671
 30
0.0
 10
78.096533
 20
123.210503
 30
0.0
 10
78.007972
 20
123.126052
 30
0.0
 10
77.923531
 20
123.037469
 30
0.0
 10
77.843380
 20
122.944929
 30
0.0
 10
77.767674
 20
122.848582
 30
0.0
 10
77.696572
 20
122.748591
 30
0.0
 10
77.630236
 20
122.645118
 30
0.0
 10
77.568830
 20
122.538322
 30
0.0
 10
77.512509
 20
122.428364
 30
0.0
 10
77.461436
 20
122.315405
 30
0.0
 10
77.415771
 20
122.199610
 30
0.0
 10
77.375674
 20
122.081130
 30
0.0
 10
77.341305
 20
121.960131
 30
0.0
 10
77.312826
 20
121.836771
 30
0.0
 10
77.290397
 20
121.711218
 30
0.0
 10
77.274177
 20
121.583623
 30
0.0
 10
77.264328
 20
121.454151
 30
0.0
  0
LWPOLYLINE
  5
10d
100
AcDbEntity
  8
Edge.Cuts
 62
1
100
AcDbPolyline
 90
128
 70
1
 10
76.061123
 20
111.802721
 30
0.0
 10
76.066004
 20
111.609739
 30
0.0
 10
76.080491
 20
111.419291
 30
0.0
 10
76.104346
 20
111.231614
 30
0.0
 10
76.137335
 20
111.046939
 30
0.0
 10
76.179221
 20
110.865509
 30
0.0
 10
76.229768
 20
110.687551
 30
0.0
 10
76.288740
 20
110.513307
 30
0.0
 10
76.355901
 20
110.343011
 30
0.0
 10
76.431017
 20
110.176899
 30
0.0
 10
76.513845
 20
110.015207
 30
0.0
 10
76.604160
 20
109.858165
 30
0.0
 10
76.701717
 20
109.706016
 30
0.0
 10
76.806280
 20
109.558992
 30
0.0
 10
76.917620
 20
109.417328
 30
0.0
 10
77.035493
 20
109.281261
 30
0.0
 10
77.159671
 20
109.151027
 30
0.0
 10
77.289912
 20
109.026863
 30
0.0
 10
77.425982
 20
108.909001
 30
0.0
 10
77.567643
 20
108.797675
 30
0.0
 10
77.714663
 20
108.693126
 30
0.0
 10
77.866802
 20
108.595586
 30
0.0
 10
78.023826
 20
108.505293
 30
0.0
 10
78.185497
 20
108.422482
 30
0.0
 10
78.351584
 20
108.347387
 30
0.0
 10
78.521845
 20
108.280243
 30
0.0
 10
78.696046
 20
108.221293
 30
0.0
 10
78.873952
 20
108.170741
 30
0.0
 10
79.055329
 20
108.128901
 30
0.0
 10
79.239933
 20
108.095917
 30
0.0
 10
79.427537
 20
108.072069
 30
0.0
 10
79.617891
 20
108.057570
 30
0.0
 10
79.810790
 20
108.052701
 30
0.0
 10
80.003724
 20
108.057570
 30
0.0
 10
80.194153
 20
108.072069
 30
0.0
 10
80.381830
 20
108.095917
 30
0.0
 10
80.566474
 20
108.128901
 30
0.0
 10
80.747872
 20
108.170741
 30
0.0
 10
80.925812
 20
108.221293
 30
0.0
 10
81.100049
 20
108.280243
 30
0.0
 10
81.270334
 20
108.347387
 30
0.0
 10
81.436457
 20
108.422482
 30
0.0
 10
81.598135
 20
108.505293
 30
0.0
 10
81.755191
 20
108.595586
 30
0.0
 10
81.907344
 20
108.693126
 30
0.0
 10
82.054381
 20
108.797675
 30
0.0
 10
82.196021
 20
108.909001
 30
0.0
 10
82.332123
 20
109.026863
 30
0.0
 10
82.462333
 20
109.151027
 30
0.0
 10
82.586510
 20
109.281261
 30
0.0
 10
82.704408
 20
109.417328
 30
0.0
 10
82.815745
 20
109.558992
 30
0.0
 10
82.920308
 20
109.706016
 30
0.0
 10
83.017851
 20
109.858165
 30
0.0
 10
83.108162
 20
110.015207
 30
0.0
 10
83.190958
 20
110.176899
 30
0.0
 10
83.266065
 20
110.343011
 30
0.0
 10
83.333233
 20
110.513307
 30
0.0
 10
83.392182
 20
110.687551
 30
0.0
 10
83.442735
 20
110.865509
 30
0.0
 10
83.484610
 20
111.046939
 30
0.0
 10
83.517595
 20
111.231614
 30
0.0
 10
83.541442
 20
111.419291
 30
0.0
 10
83.555941
 20
111.609739
 30
0.0
 10
83.560810
 20
111.802721
 30
0.0
 10
83.555941
 20
111.995672
 30
0.0
 10
83.541442
 20
112.186095
 30
0.0
 10
83.517595
 20
112.373747
 30
0.0
 10
83.484610
 20
112.558401
 30
0.0
 10
83.442735
 20
112.739817
 30
0.0
 10
83.392182
 20
112.917758
 30
0.0
 10
83.333233
 20
113.091994
 30
0.0
 10
83.266065
 20
113.262280
 30
0.0
 10
83.190958
 20
113.428388
 30
0.0
 10
83.108162
 20
113.590080
 30
0.0
 10
83.017851
 20
113.747119
 30
0.0
 10
82.920308
 20
113.899272
 30
0.0
 10
82.815745
 20
114.046298
 30
0.0
 10
82.704408
 20
114.187967
 30
0.0
 10
82.586510
 20
114.324040
 30
0.0
 10
82.462368
 20
114.454282
 30
0.0
 10
82.332123
 20
114.578456
 30
0.0
 10
82.196021
 20
114.696329
 30
0.0
 10
82.054381
 20
114.807662
 30
0.0
 10
81.907344
 20
114.912225
 30
0.0
 10
81.755191
 20
115.009775
 30
0.0
 10
81.598135
 20
115.100079
 30
0.0
 10
81.436457
 20
115.182900
 30
0.0
 10
81.270334
 20
115.258006
 30
0.0
 10
81.100049
 20
115.325161
 30
0.0
 10
80.925812
 20
115.384114
 30
0.0
 10
80.747872
 20
115.434667
 30
0.0
 10
80.566474
 20
115.476541
 30
0.0
 10
80.381830
 20
115.509526
 30
0.0
 10
80.194153
 20
115.533374
 30
0.0
 10
80.003724
 20
115.547873
 30
0.0
 10
79.810790
 20
115.552741
 30
0.0
 10
79.617891
 20
115.547873
 30
0.0
 10
79.427537
 20
115.533374
 30
0.0
 10
79.239933
 20
115.509526
 30
0.0
 10
79.055329
 20
115.476541
 30
0.0
 10
78.873952
 20
115.434667
 30
0.0
 10
78.696046
 20
115.384114
 30
0.0
 10
78.521845
 20
115.325161
 30
0.0
 10
78.351584
 20
115.258006
 30
0.0
 10
78.185497
 20
115.182900
 30
0.0
 10
78.023826
 20
115.100079
 30
0.0
 10
77.866802
 20
115.009775
 30
0.0
 10
77.714663
 20
114.912225
 30
0.0
 10
77.567643
 20
114.807662
 30
0.0
 10
77.425982
 20
114.696329
 30
0.0
 10
77.289912
 20
114.578456
 30
0.0
 10
77.159671
 20
114.454282
 30
0.0
 10
77.035493
 20
114.324040
 30
0.0
 10
76.917620
 20
114.187967
 30
0.0
 10
76.806280
 20
114.046298
 30
0.0
 10
76.701717
 20
113.899272
 30
0.0
 10
76.604160
 20
113.747119
 30
0.0
 10
76.513845
 20
113.590080
 30
0.0
 10
76.431017
 20
113.428388
 30
0.0
 10
76.355901
 20
113.262280
 30
0.0
 10
76.288740
 20
113.091994
 30
0.0
 10
76.229768
 20
112.917758
 30
0.0
 10
76.179221
 20
112.739817
 30
0.0
 10
76.137335
 20
112.558401
 30
0.0
 10
76.104346
 20
112.373747
 30
0.0
 10
76.080491
 20
112.186095
 30
0.0
 10
76.066004
 20
111.995672
 30
0.0
  0
LWPOLYLINE
  5
10e
100
AcDbEntity
  8
Edge.Cuts
 62
1
100
AcDbPolyline
 90
128
 70
1
 10
54.400735
 20
111.802721
 30
0.0
 10
54.404053
 20
111.671502
 30
0.0
 10
54.413900
 20
111.542003
 30
0.0
 10
54.430115
 20
111.414384
 30
0.0
 10
54.452539
 20
111.288810
 30
0.0
 10
54.481012
 20
111.165437
 30
0.0
 10
54.515372
 20
111.044423
 30
0.0
 10
54.555461
 20
110.925933
 30
0.0
 10
54.601118
 20
110.810127
 30
0.0
 10
54.652183
 20
110.697164
 30
0.0
 10
54.708496
 20
110.587207
 30
0.0
 10
54.769895
 20
110.480411
 30
0.0
 10
54.836225
 20
110.376938
 30
0.0
 10
54.907320
 20
110.276950
 30
0.0
 10
54.983022
 20
110.180610
 30
0.0
 10
55.063173
 20
110.088073
 30
0.0
 10
55.147610
 20
109.999501
 30
0.0
 10
55.236171
 20
109.915057
 30
0.0
 10
55.328701
 20
109.834896
 30
0.0
 10
55.425038
 20
109.759183
 30
0.0
 10
55.525022
 20
109.688077
 30
0.0
 10
55.628491
 20
109.621741
 30
0.0
 10
55.735287
 20
109.560329
 30
0.0
 10
55.845252
 20
109.504005
 30
0.0
 10
55.958218
 20
109.452930
 30
0.0
 10
56.074031
 20
109.407263
 30
0.0
 10
56.192532
 20
109.367163
 30
0.0
 10
56.313556
 20
109.332795
 30
0.0
 10
56.436947
 20
109.304315
 30
0.0
 10
56.562542
 20
109.281886
 30
0.0
 10
56.690184
 20
109.265665
 30
0.0
 10
56.819710
 20
109.255816
 30
0.0
 10
56.950961
 20
109.252496
 30
0.0
 10
57.082120
 20
109.255816
 30
0.0
 10
57.211564
 20
109.265665
 30
0.0
 10
57.339135
 20
109.281886
 30
0.0
 10
57.464671
 20
109.304315
 30
0.0
 10
57.588012
 20
109.332795
 30
0.0
 10
57.708997
 20
109.367163
 30
0.0
 10
57.827463
 20
109.407263
 30
0.0
 10
57.943252
 20
109.452930
 30
0.0
 10
58.056211
 20
109.504005
 30
0.0
 10
58.166172
 20
109.560329
 30
0.0
 10
58.272957
 20
109.621741
 30
0.0
 10
58.376427
 20
109.688077
 30
0.0
 10
58.476439
 20
109.759183
 30
0.0
 10
58.572782
 20
109.834896
 30
0.0
 10
58.665316
 20
109.915057
 30
0.0
 10
58.753933
 20
109.999501
 30
0.0
 10
58.838388
 20
110.088073
 30
0.0
 10
58.918574
 20
110.180610
 30
0.0
 10
58.994280
 20
110.276950
 30
0.0
 10
59.065436
 20
110.376938
 30
0.0
 10
59.131793
 20
110.480411
 30
0.0
 10
59.193211
 20
110.587207
 30
0.0
 10
59.249550
 20
110.697164
 30
0.0
 10
59.300667
 20
110.810127
 30
0.0
 10
59.346352
 20
110.925933
 30
0.0
 10
59.386463
 20
111.044423
 30
0.0
 10
59.420858
 20
111.165437
 30
0.0
 10
59.449328
 20
111.288810
 30
0.0
 10
59.471764
 20
111.414384
 30
0.0
 10
59.488027
 20
111.542003
 30
0.0
 10
59.497870
 20
111.671502
 30
0.0
 10
59.501186
 20
111.802721
 30
0.0
 10
59.497870
 20
111.933941
 30
0.0
 10
59.488027
 20
112.063440
 30
0.0
 10
59.471764
 20
112.191058
 30
0.0
 10
59.449328
 20
112.316633
 30
0.0
 10
59.420858
 20
112.440006
 30
0.0
 10
59.386463
 20
112.561019
 30
0.0
 10
59.346352
 20
112.679510
 30
0.0
 10
59.300667
 20
112.795316
 30
0.0
 10
59.249550
 20
112.908279
 30
0.0
 10
59.193211
 20
113.018236
 30
0.0
 10
59.131793
 20
113.125032
 30
0.0
 10
59.065436
 20
113.228505
 30
0.0
 10
58.994280
 20
113.328492
 30
0.0
 10
58.918574
 20
113.424832
 30
0.0
 10
58.838388
 20
113.517369
 30
0.0
 10
58.753933
 20
113.605941
 30
0.0
 10
58.665316
 20
113.690385
 30
0.0
 10
58.572782
 20
113.770547
 30
0.0
 10
58.476439
 20
113.846260
 30
0.0
 10
58.376427
 20
113.917365
 30
0.0
 10
58.272957
 20
113.983702
 30
0.0
 10
58.166172
 20
114.045113
 30
0.0
 10
58.056211
 20
114.101437
 30
0.0
 10
57.943252
 20
114.152513
 30
0.0
 10
57.827463
 20
114.198180
 30
0.0
 10
57.708997
 20
114.238280
 30
0.0
 10
57.588012
 20
114.272647
 30
0.0
 10
57.464671
 20
114.301127
 30
0.0
 10
57.339135
 20
114.323556
 30
0.0
 10
57.211564
 20
114.339777
 30
0.0
 10
57.082120
 20
114.349627
 30
0.0
 10
56.950961
 20
114.352946
 30
0.0
 10
56.819710
 20
114.349627
 30
0.0
 10
56.690184
 20
114.339777
 30
0.0
 10
56.562542
 20
114.323556
 30
0.0
 10
56.436947
 20
114.301127
 30
0.0
 10
56.313556
 20
114.272647
 30
0.0
 10
56.192532
 20
114.238280
 30
0.0
 10
56.074031
 20
114.198180
 30
0.0
 10
55.958218
 20
114.152513
 30
0.0
 10
55.845252
 20
114.101437
 30
0.0
 10
55.735287
 20
114.045113
 30
0.0
 10
55.628491
 20
113.983702
 30
0.0
 10
55.525022
 20
113.917365
 30
0.0
 10
55.425038
 20
113.846260
 30
0.0
 10
55.328701
 20
113.770547
 30
0.0
 10
55.236171
 20
113.690385
 30
0.0
 10
55.147610
 20
113.605941
 30
0.0
 10
55.063173
 20
113.517369
 30
0.0
 10
54.983022
 20
113.424832
 30
0.0
 10
54.907320
 20
113.328492
 30
0.0
 10
54.836225
 20
113.228505
 30
0.0
 10
54.769895
 20
113.125032
 30
0.0
 10
54.708496
 20
113.018236
 30
0.0
 10
54.652183
 20
112.908279
 30
0.0
 10
54.601118
 20
112.795316
 30
0.0
 10
54.555461
 20
112.679510
 30
0.0
 10
54.515372
 20
112.561019
 30
0.0
 10
54.481012
 20
112.440006
 30
0.0
 10
54.452539
 20
112.316633
 30
0.0
 10
54.430115
 20
112.191058
 30
0.0
 10
54.413900
 20
112.063440
 30
0.0
 10
54.404053
 20
111.933941
 30
0.0
  0
LWPOLYLINE
  5
10f
100
AcDbEntity
  8
Edge.Cuts
 62
1
100
AcDbPolyline
 90
128
 70
1
 10
40.520953
 20
120.052697
 30
0.0
 10
40.527459
 20
119.795418
 30
0.0
 10
40.546769
 20
119.541513
 30
0.0
 10
40.578568
 20
119.291295
 30
0.0
 10
40.622542
 20
119.045081
 30
0.0
 10
40.678376
 20
118.803182
 30
0.0
 10
40.745757
 20
118.565915
 30
0.0
 10
40.824371
 20
118.333594
 30
0.0
 10
40.913904
 20
118.106532
 30
0.0
 10
41.014037
 20
117.885045
 30
0.0
 10
41.124463
 20
117.669445
 30
0.0
 10
41.244866
 20
117.460051
 30
0.0
 10
41.374927
 20
117.257172
 30
0.0
 10
41.514338
 20
117.061127
 30
0.0
 10
41.662779
 20
116.872225
 30
0.0
 10
41.819942
 20
116.690785
 30
0.0
 10
41.985507
 20
116.517131
 30
0.0
 10
42.159165
 20
116.351537
 30
0.0
 10
42.340595
 20
116.194375
 30
0.0
 10
42.529493
 20
116.045926
 30
0.0
 10
42.725534
 20
115.906509
 30
0.0
 10
42.928409
 20
115.776440
 30
0.0
 10
43.137807
 20
115.656002
 30
0.0
 10
43.353407
 20
115.545583
 30
0.0
 10
43.574898
 20
115.445429
 30
0.0
 10
43.801970
 20
115.355894
 30
0.0
 10
44.034302
 20
115.277260
 30
0.0
 10
44.271573
 20
115.209880
 30
0.0
 10
44.513507
 20
115.154035
 30
0.0
 10
44.759745
 20
115.110044
 30
0.0
 10
45.009970
 20
115.078259
 30
0.0
 10
45.263899
 20
115.058927
 30
0.0
 10
45.521215
 20
115.052436
 30
0.0
 10
45.778495
 20
115.058927
 30
0.0
 10
46.032389
 20
115.078259
 30
0.0
 10
46.282613
 20
115.110044
 30
0.0
 10
46.528816
 20
115.154035
 30
0.0
 10
46.770716
 20
115.209880
 30
0.0
 10
47.007958
 20
115.277260
 30
0.0
 10
47.240262
 20
115.355894
 30
0.0
 10
47.467309
 20
115.445429
 30
0.0
 10
47.688783
 20
115.545583
 30
0.0
 10
47.904400
 20
115.656002
 30
0.0
 10
48.113773
 20
115.776440
 30
0.0
 10
48.316620
 20
115.906509
 30
0.0
 10
48.512658
 20
116.045926
 30
0.0
 10
48.701535
 20
116.194375
 30
0.0
 10
48.882968
 20
116.351537
 30
0.0
 10
49.056605
 20
116.517131
 30
0.0
 10
49.222163
 20
116.690785
 30
0.0
 10
49.379325
 20
116.872225
 30
0.0
 10
49.527774
 20
117.061127
 30
0.0
 10
49.667156
 20
117.257172
 30
0.0
 10
49.797225
 20
117.460051
 30
0.0
 10
49.917628
 20
117.669445
 30
0.0
 10
50.028047
 20
117.885045
 30
0.0
 10
50.128165
 20
118.106532
 30
0.0
 10
50.217700
 20
118.333594
 30
0.0
 10
50.296334
 20
118.565915
 30
0.0
 10
50.363714
 20
118.803182
 30
0.0
 10
50.419524
 20
119.045081
 30
0.0
 10
50.463515
 20
119.291295
 30
0.0
 10
50.495300
 20
119.541513
 30
0.0
 10
50.514632
 20
119.795418
 30
0.0
 10
50.521124
 20
120.052697
 30
0.0
 10
50.514632
 20
120.310006
 30
0.0
 10
50.495300
 20
120.563935
 30
0.0
 10
50.463515
 20
120.814174
 30
0.0
 10
50.419524
 20
121.060401
 30
0.0
 10
50.363714
 20
121.302308
 30
0.0
 10
50.296334
 20
121.539578
 30
0.0
 10
50.217700
 20
121.771900
 30
0.0
 10
50.128165
 20
121.998958
 30
0.0
 10
50.028047
 20
122.220438
 30
0.0
 10
49.917628
 20
122.436024
 30
0.0
 10
49.797225
 20
122.645404
 30
0.0
 10
49.667156
 20
122.848265
 30
0.0
 10
49.527774
 20
123.044292
 30
0.0
 10
49.379325
 20
123.233173
 30
0.0
 10
49.222163
 20
123.414588
 30
0.0
 10
49.056605
 20
123.588229
 30
0.0
 10
48.882968
 20
123.753787
 30
0.0
 10
48.701535
 20
123.910914
 30
0.0
 10
48.512658
 20
124.059362
 30
0.0
 10
48.316620
 20
124.198745
 30
0.0
 10
48.113773
 20
124.328778
 30
0.0
 10
47.904400
 20
124.449181
 30
0.0
 10
47.688783
 20
124.559600
 30
0.0
 10
47.467309
 20
124.659718
 30
0.0
 10
47.240262
 20
124.749218
 30
0.0
 10
47.007958
 20
124.827852
 30
0.0
 10
46.770716
 20
124.895197
 30
0.0
 10
46.528816
 20
124.951042
 30
0.0
 10
46.282613
 20
124.994998
 30
0.0
 10
46.032389
 20
125.026783
 30
0.0
 10
45.778495
 20
125.046115
 30
0.0
 10
45.521215
 20
125.052606
 30
0.0
 10
45.263899
 20
125.046115
 30
0.0
 10
45.009970
 20
125.026783
 30
0.0
 10
44.759745
 20
124.994998
 30
0.0
 10
44.513507
 20
124.951042
 30
0.0
 10
44.271573
 20
124.895197
 30
0.0
 10
44.034302
 20
124.827852
 30
0.0
 10
43.801970
 20
124.749218
 30
0.0
 10
43.574901
 20
124.659718
 30
0.0
 10
43.353407
 20
124.559600
 30
0.0
 10
43.137807
 20
124.449181
 30
0.0
 10
42.928409
 20
124.328778
 30
0.0
 10
42.725534
 20
124.198745
 30
0.0
 10
42.529493
 20
124.059362
 30
0.0
 10
42.340595
 20
123.910914
 30
0.0
 10
42.159165
 20
123.753787
 30
0.0
 10
41.985507
 20
123.588229
 30
0.0
 10
41.819942
 20
123.414588
 30
0.0
 10
41.662779
 20
123.233173
 30
0.0
 10
41.514338
 20
123.044292
 30
0.0
 10
41.374927
 20
122.848265
 30
0.0
 10
41.244866
 20
122.645404
 30
0.0
 10
41.124463
 20
122.436024
 30
0.0
 10
41.014037
 20
122.220438
 30
0.0
 10
40.913904
 20
121.998958
 30
0.0
 10
40.824371
 20
121.771900
 30
0.0
 10
40.745757
 20
121.539578
 30
0.0
 10
40.678376
 20
121.302308
 30
0.0
 10
40.622542
 20
121.060401
 30
0.0
 10
40.578568
 20
120.814174
 30
0.0
 10
40.546769
 20
120.563935
 30
0.0
 10
40.527459
 20
120.310006
 30
0.0
  0
LWPOLYLINE
  5
110
100
AcDbEntity
  8
Edge.Cuts
 62
1
100
AcDbPolyline
 90
128
 70
1
 10
40.520953
 20
103.552745
 30
0.0
 10
40.527459
 20
103.295435
 30
0.0
 10
40.546769
 20
103.041501
 30
0.0
 10
40.578568
 20
102.791262
 30
0.0
 10
40.622542
 20
102.545027
 30
0.0
 10
40.678376
 20
102.303110
 30
0.0
 10
40.745757
 20
102.065832
 30
0.0
 10
40.824371
 20
101.833500
 30
0.0
 10
40.913904
 20
101.606432
 30
0.0
 10
41.014037
 20
101.384937
 30
0.0
 10
41.124463
 20
101.169338
 30
0.0
 10
41.244866
 20
100.959940
 30
0.0
 10
41.374927
 20
100.757065
 30
0.0
 10
41.514338
 20
100.561023
 30
0.0
 10
41.662779
 20
100.372125
 30
0.0
 10
41.819942
 20
100.190695
 30
0.0
 10
41.985507
 20
100.017037
 30
0.0
 10
42.159165
 20
99.851479
 30
0.0
 10
42.340595
 20
99.694317
 30
0.0
 10
42.529493
 20
99.545868
 30
0.0
 10
42.725534
 20
99.406451
 30
0.0
 10
42.928409
 20
99.276382
 30
0.0
 10
43.137807
 20
99.155979
 30
0.0
 10
43.353407
 20
99.045560
 30
0.0
 10
43.574898
 20
98.945442
 30
0.0
 10
43.801970
 20
98.855907
 30
0.0
 10
44.034302
 20
98.777273
 30
0.0
 10
44.271573
 20
98.709893
 30
0.0
 10
44.513507
 20
98.654083
 30
0.0
 10
44.759745
 20
98.610092
 30
0.0
 10
45.009970
 20
98.578307
 30
0.0
 10
45.263899
 20
98.558975
 30
0.0
 10
45.521215
 20
98.552483
 30
0.0
 10
45.778495
 20
98.558975
 30
0.0
 10
46.032389
 20
98.578307
 30
0.0
 10
46.282613
 20
98.610092
 30
0.0
 10
46.528816
 20
98.654083
 30
0.0
 10
46.770716
 20
98.709893
 30
0.0
 10
47.007958
 20
98.777273
 30
0.0
 10
47.240262
 20
98.855907
 30
0.0
 10
47.467309
 20
98.945442
 30
0.0
 10
47.688783
 20
99.045560
 30
0.0
 10
47.904400
 20
99.155979
 30
0.0
 10
48.113773
 20
99.276382
 30
0.0
 10
48.316620
 20
99.406451
 30
0.0
 10
48.512658
 20
99.545868
 30
0.0
 10
48.701535
 20
99.694317
 30
0.0
 10
48.882968
 20
99.851479
 30
0.0
 10
49.056605
 20
100.017037
 30
0.0
 10
49.222163
 20
100.190695
 30
0.0
 10
49.379325
 20
100.372125
 30
0.0
 10
49.527774
 20
100.561023
 30
0.0
 10
49.667156
 20
100.757065
 30
0.0
 10
49.797225
 20
100.959940
 30
0.0
 10
49.917628
 20
101.169338
 30
0.0
 10
50.028047
 20
101.384937
 30
0.0
 10
50.128165
 20
101.606432
 30
0.0
 10
50.217700
 20
101.833500
 30
0.0
 10
50.296334
 20
102.065832
 30
0.0
 10
50.363714
 20
102.303110
 30
0.0
 10
50.419524
 20
102.545027
 30
0.0
 10
50.463515
 20
102.791262
 30
0.0
 10
50.495300
 20
103.041501
 30
0.0
 10
50.514632
 20
103.295435
 30
0.0
 10
50.521124
 20
103.552745
 30
0.0
 10
50.514632
 20
103.810023
 30
0.0
 10
50.495300
 20
104.063926
 30
0.0
 10
50.463515
 20
104.314140
 30
0.0
 10
50.419524
 20
104.560347
 30
0.0
 10
50.363714
 20
104.802239
 30
0.0
 10
50.296334
 20
105.039496
 30
0.0
 10
50.217700
 20
105.271806
 30
0.0
 10
50.128165
 20
105.498857
 30
0.0
 10
50.028047
 20
105.720331
 30
0.0
 10
49.917628
 20
105.935916
 30
0.0
 10
49.797225
 20
106.145296
 30
0.0
 10
49.667156
 20
106.348161
 30
0.0
 10
49.527774
 20
106.544188
 30
0.0
 10
49.379325
 20
106.733072
 30
0.0
 10
49.222163
 20
106.914495
 30
0.0
 10
49.056605
 20
107.088135
 30
0.0
 10
48.882968
 20
107.253694
 30
0.0
 10
48.701535
 20
107.410856
 30
0.0
 10
48.512658
 20
107.559304
 30
0.0
 10
48.316620
 20
107.698687
 30
0.0
 10
48.113773
 20
107.828755
 30
0.0
 10
47.904400
 20
107.949158
 30
0.0
 10
47.688783
 20
108.059577
 30
0.0
 10
47.467309
 20
108.159696
 30
0.0
 10
47.240262
 20
108.249230
 30
0.0
 10
47.007958
 20
108.327864
 30
0.0
 10
46.770716
 20
108.395245
 30
0.0
 10
46.528816
 20
108.451054
 30
0.0
 10
46.282613
 20
108.495045
 30
0.0
 10
46.032389
 20
108.526831
 30
0.0
 10
45.778495
 20
108.546163
 30
0.0
 10
45.521215
 20
108.552654
 30
0.0
 10
45.263899
 20
108.546163
 30
0.0
 10
45.009970
 20
108.526831
 30
0.0
 10
44.759745
 20
108.495045
 30
0.0
 10
44.513507
 20
108.451054
 30
0.0
 10
44.271573
 20
108.395245
 30
0.0
 10
44.034302
 20
108.327864
 30
0.0
 10
43.801970
 20
108.249230
 30
0.0
 10
43.574901
 20
108.159696
 30
0.0
 10
43.353407
 20
108.059577
 30
0.0
 10
43.137807
 20
107.949158
 30
0.0
 10
42.928409
 20
107.828755
 30
0.0
 10
42.725534
 20
107.698687
 30
0.0
 10
42.529493
 20
107.559304
 30
0.0
 10
42.340595
 20
107.410856
 30
0.0
 10
42.159165
 20
107.253694
 30
0.0
 10
41.985507
 20
107.088135
 30
0.0
 10
41.819942
 20
106.914495
 30
0.0
 10
41.662779
 20
106.733072
 30
0.0
 10
41.514338
 20
106.544188
 30
0.0
 10
41.374927
 20
106.348161
 30
0.0
 10
41.244866
 20
106.145296
 30
0.0
 10
41.124463
 20
105.935916
 30
0.0
 10
41.014037
 20
105.720331
 30
0.0
 10
40.913904
 20
105.498857
 30
0.0
 10
40.824371
 20
105.271806
 30
0.0
 10
40.745757
 20
105.039496
 30
0.0
 10
40.678376
 20
104.802239
 30
0.0
 10
40.622542
 20
104.560347
 30
0.0
 10
40.578568
 20
104.314140
 30
0.0
 10
40.546769
 20
104.063926
 30
0.0
 10
40.527459
 20
103.810023
 30
0.0
  0
LWPOLYLINE
  5
111
100
AcDbEntity
  8
Edge.Cuts
 62
1
100
AcDbPolyline
 90
4
 70
1
 10
39.920602
 20
80.832587
 30
0.0
 10
47.320805
 20
80.832587
 30
0.0
 10
47.320805
 20
85.632119
 30
0.0
 10
39.920602
 20
85.632119
 30
0.0
  0
LWPOLYLINE
  5
112
100
AcDbEntity
  8
Edge.Cuts
 62
1
100
AcDbPolyline
 90
128
 70
1
 10
40.370934
 20
69.897468
 30
0.0
 10
40.375163
 20
69.730192
 30
0.0
 10
40.387715
 20
69.565118
 30
0.0
 10
40.408385
 20
69.402447
 30
0.0
 10
40.436968
 20
69.242385
 30
0.0
 10
40.473261
 20
69.085139
 30
0.0
 10
40.517060
 20
68.930904
 30
0.0
 10
40.568160
 20
68.779891
 30
0.0
 10
40.626356
 20
68.632303
 30
0.0
 10
40.691445
 20
68.488346
 30
0.0
 10
40.763222
 20
68.348216
 30
0.0
 10
40.841482
 20
68.212125
 30
0.0
 10
40.926025
 20
68.080274
 30
0.0
 10
41.016643
 20
67.952865
 30
0.0
 10
41.113131
 20
67.830106
 30
0.0
 10
41.215285
 20
67.712197
 30
0.0
 10
41.322903
 20
67.599344
 30
0.0
 10
41.435781
 20
67.491754
 30
0.0
 10
41.553711
 20
67.389625
 30
0.0
 10
41.676491
 20
67.293162
 30
0.0
 10
41.803918
 20
67.202572
 30
0.0
 10
41.935786
 20
67.118057
 30
0.0
 10
42.071895
 20
67.039822
 30
0.0
 10
42.212032
 20
66.968067
 30
0.0
 10
42.356000
 20
66.903001
 30
0.0
 10
42.503591
 20
66.844828
 30
0.0
 10
42.654605
 20
66.793749
 30
0.0
 10
42.808832
 20
66.749966
 30
0.0
 10
42.966075
 20
66.713690
 30
0.0
 10
43.126123
 20
66.685119
 30
0.0
 10
43.288774
 20
66.664460
 30
0.0
 10
43.453824
 20
66.651912
 30
0.0
 10
43.621069
 20
66.647686
 30
0.0
 10
43.788314
 20
66.651912
 30
0.0
 10
43.953350
 20
66.664460
 30
0.0
 10
44.116015
 20
66.685119
 30
0.0
 10
44.276035
 20
66.713690
 30
0.0
 10
44.433268
 20
66.749966
 30
0.0
 10
44.587466
 20
66.793749
 30
0.0
 10
44.738455
 20
66.844828
 30
0.0
 10
44.886022
 20
66.903001
 30
0.0
 10
45.029955
 20
66.968067
 30
0.0
 10
45.170078
 20
67.039822
 30
0.0
 10
45.306144
 20
67.118057
 30
0.0
 10
45.438012
 20
67.202572
 30
0.0
 10
45.565400
 20
67.293162
 30
0.0
 10
45.688131
 20
67.389625
 30
0.0
 10
45.806029
 20
67.491754
 30
0.0
 10
45.918882
 20
67.599348
 30
0.0
 10
46.026479
 20
67.712197
 30
0.0
 10
46.128573
 20
67.830106
 30
0.0
 10
46.225057
 20
67.952865
 30
0.0
 10
46.315615
 20
68.080274
 30
0.0
 10
46.400141
 20
68.212125
 30
0.0
 10
46.478387
 20
68.348216
 30
0.0
 10
46.550106
 20
68.488346
 30
0.0
 10
46.615193
 20
68.632303
 30
0.0
 10
46.673366
 20
68.779891
 30
0.0
 10
46.724449
 20
68.930904
 30
0.0
 10
46.768228
 20
69.085139
 30
0.0
 10
46.804494
 20
69.242385
 30
0.0
 10
46.833069
 20
69.402447
 30
0.0
 10
46.853741
 20
69.565118
 30
0.0
 10
46.866265
 20
69.730192
 30
0.0
 10
46.870498
 20
69.897468
 30
0.0
 10
46.866265
 20
70.064713
 30
0.0
 10
46.853741
 20
70.229763
 30
0.0
 10
46.833069
 20
70.392414
 30
0.0
 10
46.804494
 20
70.552462
 30
0.0
 10
46.768228
 20
70.709705
 30
0.0
 10
46.724449
 20
70.863932
 30
0.0
 10
46.673366
 20
71.014945
 30
0.0
 10
46.615193
 20
71.162537
 30
0.0
 10
46.550106
 20
71.306505
 30
0.0
 10
46.478387
 20
71.446642
 30
0.0
 10
46.400141
 20
71.582751
 30
0.0
 10
46.315615
 20
71.714619
 30
0.0
 10
46.225057
 20
71.842045
 30
0.0
 10
46.128573
 20
71.964826
 30
0.0
 10
46.026479
 20
72.082756
 30
0.0
 10
45.918882
 20
72.195634
 30
0.0
 10
45.806029
 20
72.303252
 30
0.0
 10
45.688131
 20
72.405405
 30
0.0
 10
45.565400
 20
72.501893
 30
0.0
 10
45.438012
 20
72.592511
 30
0.0
 10
45.306144
 20
72.677054
 30
0.0
 10
45.170078
 20
72.755314
 30
0.0
 10
45.029955
 20
72.827090
 30
0.0
 10
44.886022
 20
72.892181
 30
0.0
 10
44.738455
 20
72.950379
 30
0.0
 10
44.587466
 20
73.001475
 30
0.0
 10
44.433268
 20
73.045276
 30
0.0
 10
44.276035
 20
73.081570
 30
0.0
 10
44.116015
 20
73.110152
 30
0.0
 10
43.953350
 20
73.130821
 30
0.0
 10
43.788314
 20
73.143373
 30
0.0
 10
43.621069
 20
73.147602
 30
0.0
 10
43.453824
 20
73.143373
 30
0.0
 10
43.288774
 20
73.130821
 30
0.0
 10
43.126123
 20
73.110152
 30
0.0
 10
42.966075
 20
73.081570
 30
0.0
 10
42.808832
 20
73.045276
 30
0.0
 10
42.654605
 20
73.001475
 30
0.0
 10
42.503591
 20
72.950379
 30
0.0
 10
42.356000
 20
72.892181
 30
0.0
 10
42.212032
 20
72.827090
 30
0.0
 10
42.071895
 20
72.755314
 30
0.0
 10
41.935786
 20
72.677054
 30
0.0
 10
41.803918
 20
72.592511
 30
0.0
 10
41.676491
 20
72.501893
 30
0.0
 10
41.553711
 20
72.405405
 30
0.0
 10
41.435781
 20
72.303252
 30
0.0
 10
41.322903
 20
72.195634
 30
0.0
 10
41.215285
 20
72.082756
 30
0.0
 10
41.113131
 20
71.964826
 30
0.0
 10
41.016643
 20
71.842045
 30
0.0
 10
40.926025
 20
71.714619
 30
0.0
 10
40.841482
 20
71.582751
 30
0.0
 10
40.763222
 20
71.446642
 30
0.0
 10
40.691445
 20
71.306505
 30
0.0
 10
40.626356
 20
71.162537
 30
0.0
 10
40.568160
 20
71.014945
 30
0.0
 10
40.517060
 20
70.863932
 30
0.0
 10
40.473261
 20
70.709705
 30
0.0
 10
40.436968
 20
70.552462
 30
0.0
 10
40.408385
 20
70.392414
 30
0.0
 10
40.387715
 20
70.229763
 30
0.0
 10
40.375163
 20
70.064713
 30
0.0
  0
LWPOLYLINE
  5
113
100
AcDbEntity
  8
Edge.Cuts
 62
1
100
AcDbPolyline
 90
128
 70
1
 10
54.976204
 20
69.897468
 30
0.0
 10
54.980433
 20
69.730192
 30
0.0
 10
54.992981
 20
69.565118
 30
0.0
 10
55.013646
 20
69.402447
 30
0.0
 10
55.042223
 20
69.242385
 30
0.0
 10
55.078508
 20
69.085139
 30
0.0
 10
55.122297
 20
68.930904
 30
0.0
 10
55.173386
 20
68.779891
 30
0.0
 10
55.231571
 20
68.632303
 30
0.0
 10
55.296647
 20
68.488346
 30
0.0
 10
55.368411
 20
68.348216
 30
0.0
 10
55.446657
 20
68.212125
 30
0.0
 10
55.531183
 20
68.080274
 30
0.0
 10
55.621783
 20
67.952865
 30
0.0
 10
55.718257
 20
67.830106
 30
0.0
 10
55.820396
 20
67.712197
 30
0.0
 10
55.927997
 20
67.599344
 30
0.0
 10
56.040857
 20
67.491754
 30
0.0
 10
56.158773
 20
67.389625
 30
0.0
 10
56.281536
 20
67.293162
 30
0.0
 10
56.408948
 20
67.202572
 30
0.0
 10
56.540802
 20
67.118057
 30
0.0
 10
56.676893
 20
67.039822
 30
0.0
 10
56.817016
 20
66.968067
 30
0.0
 10
56.960974
 20
66.903001
 30
0.0
 10
57.108551
 20
66.844828
 30
0.0
 10
57.259554
 20
66.793749
 30
0.0
 10
57.413774
 20
66.749966
 30
0.0
 10
57.571006
 20
66.713690
 30
0.0
 10
57.731047
 20
66.685119
 30
0.0
 10
57.893695
 20
66.664460
 30
0.0
 10
58.058742
 20
66.651912
 30
0.0
 10
58.225986
 20
66.647686
 30
0.0
 10
58.393263
 20
66.651912
 30
0.0
 10
58.558338
 20
66.664460
 30
0.0
 10
58.721003
 20
66.685119
 30
0.0
 10
58.881093
 20
66.713690
 30
0.0
 10
59.038326
 20
66.749966
 30
0.0
 10
59.192595
 20
66.793749
 30
0.0
 10
59.343619
 20
66.844828
 30
0.0
 10
59.491221
 20
66.903001
 30
0.0
 10
59.635190
 20
66.968067
 30
0.0
 10
59.775313
 20
67.039822
 30
0.0
 10
59.911414
 20
67.118057
 30
0.0
 10
60.043282
 20
67.202572
 30
0.0
 10
60.170705
 20
67.293162
 30
0.0
 10
60.293507
 20
67.389625
 30
0.0
 10
60.411405
 20
67.491754
 30
0.0
 10
60.524293
 20
67.599348
 30
0.0
 10
60.631890
 20
67.712197
 30
0.0
 10
60.734055
 20
67.830106
 30
0.0
 10
60.830504
 20
67.952865
 30
0.0
 10
60.921132
 20
68.080274
 30
0.0
 10
61.005658
 20
68.212125
 30
0.0
 10
61.083904
 20
68.348216
 30
0.0
 10
61.155659
 20
68.488346
 30
0.0
 10
61.220746
 20
68.632303
 30
0.0
 10
61.278919
 20
68.779891
 30
0.0
 10
61.330036
 20
68.930904
 30
0.0
 10
61.373816
 20
69.085139
 30
0.0
 10
61.410117
 20
69.242385
 30
0.0
 10
61.438692
 20
69.402447
 30
0.0
 10
61.459329
 20
69.565118
 30
0.0
 10
61.471888
 20
69.730192
 30
0.0
 10
61.476121
 20
69.897468
 30
0.0
 10
61.471888
 20
70.064713
 30
0.0
 10
61.459329
 20
70.229763
 30
0.0
 10
61.438692
 20
70.392414
 30
0.0
 10
61.410117
 20
70.552462
 30
0.0
 10
61.373816
 20
70.709705
 30
0.0
 10
61.330036
 20
70.863932
 30
0.0
 10
61.278919
 20
71.014945
 30
0.0
 10
61.220746
 20
71.162537
 30
0.0
 10
61.155659
 20
71.306505
 30
0.0
 10
61.083904
 20
71.446642
 30
0.0
 10
61.005658
 20
71.582751
 30
0.0
 10
60.921132
 20
71.714619
 30
0.0
 10
60.830504
 20
71.842045
 30
0.0
 10
60.734055
 20
71.964826
 30
0.0
 10
60.631890
 20
72.082756
 30
0.0
 10
60.524293
 20
72.195634
 30
0.0
 10
60.411405
 20
72.303252
 30
0.0
 10
60.293507
 20
72.405405
 30
0.0
 10
60.170705
 20
72.501893
 30
0.0
 10
60.043282
 20
72.592511
 30
0.0
 10
59.911414
 20
72.677054
 30
0.0
 10
59.775313
 20
72.755314
 30
0.0
 10
59.635190
 20
72.827090
 30
0.0
 10
59.491221
 20
72.892181
 30
0.0
 10
59.343619
 20
72.950379
 30
0.0
 10
59.192595
 20
73.001475
 30
0.0
 10
59.038326
 20
73.045276
 30
0.0
 10
58.881093
 20
73.081570
 30
0.0
 10
58.721003
 20
73.110152
 30
0.0
 10
58.558338
 20
73.130821
 30
0.0
 10
58.393263
 20
73.143373
 30
0.0
 10
58.225986
 20
73.147602
 30
0.0
 10
58.058742
 20
73.143373
 30
0.0
 10
57.893695
 20
73.130821
 30
0.0
 10
57.731047
 20
73.110152
 30
0.0
 10
57.571006
 20
73.081570
 30
0.0
 10
57.413774
 20
73.045276
 30
0.0
 10
57.259554
 20
73.001475
 30
0.0
 10
57.108551
 20
72.950379
 30
0.0
 10
56.960970
 20
72.892181
 30
0.0
 10
56.817016
 20
72.827090
 30
0.0
 10
56.676893
 20
72.755314
 30
0.0
 10
56.540802
 20
72.677054
 30
0.0
 10
56.408948
 20
72.592511
 30
0.0
 10
56.281536
 20
72.501893
 30
0.0
 10
56.158773
 20
72.405405
 30
0.0
 10
56.040857
 20
72.303252
 30
0.0
 10
55.927997
 20
72.195634
 30
0.0
 10
55.820396
 20
72.082756
 30
0.0
 10
55.718257
 20
71.964826
 30
0.0
 10
55.621783
 20
71.842045
 30
0.0
 10
55.531183
 20
71.714619
 30
0.0
 10
55.446657
 20
71.582751
 30
0.0
 10
55.368411
 20
71.446642
 30
0.0
 10
55.296647
 20
71.306505
 30
0.0
 10
55.231571
 20
71.162537
 30
0.0
 10
55.173386
 20
71.014945
 30
0.0
 10
55.122297
 20
70.863932
 30
0.0
 10
55.078508
 20
70.709705
 30
0.0
 10
55.042223
 20
70.552462
 30
0.0
 10
55.013646
 20
70.392414
 30
0.0
 10
54.992981
 20
70.229763
 30
0.0
 10
54.980433
 20
70.064713
 30
0.0
  0
LWPOLYLINE
  5
114
100
AcDbEntity
  8
Edge.Cuts
 62
1
100
AcDbPolyline
 90
128
 70
1
 10
69.580945
 20
69.897468
 30
0.0
 10
69.585174
 20
69.730192
 30
0.0
 10
69.597722
 20
69.565118
 30
0.0
 10
69.618387
 20
69.402447
 30
0.0
 10
69.646964
 20
69.242385
 30
0.0
 10
69.683249
 20
69.085139
 30
0.0
 10
69.727038
 20
68.930904
 30
0.0
 10
69.778127
 20
68.779891
 30
0.0
 10
69.836312
 20
68.632303
 30
0.0
 10
69.901388
 20
68.488346
 30
0.0
 10
69.973152
 20
68.348216
 30
0.0
 10
70.051398
 20
68.212125
 30
0.0
 10
70.135924
 20
68.080274
 30
0.0
 10
70.226524
 20
67.952865
 30
0.0
 10
70.322998
 20
67.830106
 30
0.0
 10
70.425137
 20
67.712197
 30
0.0
 10
70.532738
 20
67.599344
 30
0.0
 10
70.645598
 20
67.491754
 30
0.0
 10
70.763514
 20
67.389625
 30
0.0
 10
70.886277
 20
67.293162
 30
0.0
 10
71.013689
 20
67.202572
 30
0.0
 10
71.145543
 20
67.118057
 30
0.0
 10
71.281634
 20
67.039822
 30
0.0
 10
71.421757
 20
66.968067
 30
0.0
 10
71.565715
 20
66.903001
 30
0.0
 10
71.713292
 20
66.844828
 30
0.0
 10
71.864295
 20
66.793749
 30
0.0
 10
72.018515
 20
66.749966
 30
0.0
 10
72.175747
 20
66.713690
 30
0.0
 10
72.335788
 20
66.685119
 30
0.0
 10
72.498436
 20
66.664460
 30
0.0
 10
72.663483
 20
66.651912
 30
0.0
 10
72.830727
 20
66.647686
 30
0.0
 10
72.998004
 20
66.651912
 30
0.0
 10
73.163079
 20
66.664460
 30
0.0
 10
73.325744
 20
66.685119
 30
0.0
 10
73.485834
 20
66.713690
 30
0.0
 10
73.643067
 20
66.749966
 30
0.0
 10
73.797336
 20
66.793749
 30
0.0
 10
73.948360
 20
66.844828
 30
0.0
 10
74.095962
 20
66.903001
 30
0.0
 10
74.239931
 20
66.968067
 30
0.0
 10
74.380054
 20
67.039822
 30
0.0
 10
74.516155
 20
67.118057
 30
0.0
 10
74.648023
 20
67.202572
 30
0.0
 10
74.775446
 20
67.293162
 30
0.0
 10
74.898248
 20
67.389625
 30
0.0
 10
75.016146
 20
67.491754
 30
0.0
 10
75.129034
 20
67.599348
 30
0.0
 10
75.236631
 20
67.712197
 30
0.0
 10
75.338796
 20
67.830106
 30
0.0
 10
75.435245
 20
67.952865
 30
0.0
 10
75.525873
 20
68.080274
 30
0.0
 10
75.610399
 20
68.212125
 30
0.0
 10
75.688645
 20
68.348216
 30
0.0
 10
75.760400
 20
68.488346
 30
0.0
 10
75.825487
 20
68.632303
 30
0.0
 10
75.883660
 20
68.779891
 30
0.0
 10
75.934777
 20
68.930904
 30
0.0
 10
75.978557
 20
69.085139
 30
0.0
 10
76.014858
 20
69.242385
 30
0.0
 10
76.043433
 20
69.402447
 30
0.0
 10
76.064070
 20
69.565118
 30
0.0
 10
76.076629
 20
69.730192
 30
0.0
 10
76.080862
 20
69.897468
 30
0.0
 10
76.076629
 20
70.064713
 30
0.0
 10
76.064070
 20
70.229763
 30
0.0
 10
76.043433
 20
70.392414
 30
0.0
 10
76.014858
 20
70.552462
 30
0.0
 10
75.978557
 20
70.709705
 30
0.0
 10
75.934777
 20
70.863932
 30
0.0
 10
75.883660
 20
71.014945
 30
0.0
 10
75.825487
 20
71.162537
 30
0.0
 10
75.760400
 20
71.306505
 30
0.0
 10
75.688645
 20
71.446642
 30
0.0
 10
75.610399
 20
71.582751
 30
0.0
 10
75.525873
 20
71.714619
 30
0.0
 10
75.435245
 20
71.842045
 30
0.0
 10
75.338796
 20
71.964826
 30
0.0
 10
75.236631
 20
72.082756
 30
0.0
 10
75.129034
 20
72.195634
 30
0.0
 10
75.016146
 20
72.303252
 30
0.0
 10
74.898248
 20
72.405405
 30
0.0
 10
74.775446
 20
72.501893
 30
0.0
 10
74.648023
 20
72.592511
 30
0.0
 10
74.516155
 20
72.677054
 30
0.0
 10
74.380054
 20
72.755314
 30
0.0
 10
74.239931
 20
72.827090
 30
0.0
 10
74.095962
 20
72.892181
 30
0.0
 10
73.948360
 20
72.950379
 30
0.0
 10
73.797336
 20
73.001475
 30
0.0
 10
73.643067
 20
73.045276
 30
0.0
 10
73.485834
 20
73.081570
 30
0.0
 10
73.325744
 20
73.110152
 30
0.0
 10
73.163079
 20
73.130821
 30
0.0
 10
72.998004
 20
73.143373
 30
0.0
 10
72.830727
 20
73.147602
 30
0.0
 10
72.663483
 20
73.143373
 30
0.0
 10
72.498436
 20
73.130821
 30
0.0
 10
72.335788
 20
73.110152
 30
0.0
 10
72.175747
 20
73.081570
 30
0.0
 10
72.018515
 20
73.045276
 30
0.0
 10
71.864295
 20
73.001475
 30
0.0
 10
71.713292
 20
72.950379
 30
0.0
 10
71.565711
 20
72.892181
 30
0.0
 10
71.421757
 20
72.827090
 30
0.0
 10
71.281634
 20
72.755314
 30
0.0
 10
71.145543
 20
72.677054
 30
0.0
 10
71.013689
 20
72.592511
 30
0.0
 10
70.886277
 20
72.501893
 30
0.0
 10
70.763514
 20
72.405405
 30
0.0
 10
70.645598
 20
72.303252
 30
0.0
 10
70.532738
 20
72.195634
 30
0.0
 10
70.425137
 20
72.082756
 30
0.0
 10
70.322998
 20
71.964826
 30
0.0
 10
70.226524
 20
71.842045
 30
0.0
 10
70.135924
 20
71.714619
 30
0.0
 10
70.051398
 20
71.582751
 30
0.0
 10
69.973152
 20
71.446642
 30
0.0
 10
69.901388
 20
71.306505
 30
0.0
 10
69.836312
 20
71.162537
 30
0.0
 10
69.778127
 20
71.014945
 30
0.0
 10
69.727038
 20
70.863932
 30
0.0
 10
69.683249
 20
70.709705
 30
0.0
 10
69.646964
 20
70.552462
 30
0.0
 10
69.618387
 20
70.392414
 30
0.0
 10
69.597722
 20
70.229763
 30
0.0
 10
69.585174
 20
70.064713
 30
0.0
  0
LWPOLYLINE
  5
115
100
AcDbEntity
  8
Edge.Cuts
 62
1
100
AcDbPolyline
 90
128
 70
1
 10
84.186216
 20
69.897468
 30
0.0
 10
84.190445
 20
69.730192
 30
0.0
 10
84.202996
 20
69.565118
 30
0.0
 10
84.223666
 20
69.402447
 30
0.0
 10
84.252248
 20
69.242385
 30
0.0
 10
84.288540
 20
69.085139
 30
0.0
 10
84.332337
 20
68.930904
 30
0.0
 10
84.383433
 20
68.779891
 30
0.0
 10
84.441626
 20
68.632303
 30
0.0
 10
84.506710
 20
68.488346
 30
0.0
 10
84.578482
 20
68.348216
 30
0.0
 10
84.656735
 20
68.212125
 30
0.0
 10
84.741268
 20
68.080274
 30
0.0
 10
84.831875
 20
67.952865
 30
0.0
 10
84.928353
 20
67.830106
 30
0.0
 10
85.030492
 20
67.712197
 30
0.0
 10
85.138096
 20
67.599344
 30
0.0
 10
85.250957
 20
67.491754
 30
0.0
 10
85.368865
 20
67.389625
 30
0.0
 10
85.491625
 20
67.293162
 30
0.0
 10
85.619027
 20
67.202572
 30
0.0
 10
85.750870
 20
67.118057
 30
0.0
 10
85.886947
 20
67.039822
 30
0.0
 10
86.027052
 20
66.968067
 30
0.0
 10
86.170985
 20
66.903001
 30
0.0
 10
86.318538
 20
66.844828
 30
0.0
 10
86.469508
 20
66.793749
 30
0.0
 10
86.623690
 20
66.749966
 30
0.0
 10
86.780884
 20
66.713690
 30
0.0
 10
86.940879
 20
66.685119
 30
0.0
 10
87.103473
 20
66.664460
 30
0.0
 10
87.268464
 20
66.651912
 30
0.0
 10
87.435645
 20
66.647686
 30
0.0
 10
87.602921
 20
66.651912
 30
0.0
 10
87.767996
 20
66.664460
 30
0.0
 10
87.930697
 20
66.685119
 30
0.0
 10
88.090752
 20
66.713690
 30
0.0
 10
88.248020
 20
66.749966
 30
0.0
 10
88.402289
 20
66.793749
 30
0.0
 10
88.553313
 20
66.844828
 30
0.0
 10
88.700915
 20
66.903001
 30
0.0
 10
88.844919
 20
66.968067
 30
0.0
 10
88.985042
 20
67.039822
 30
0.0
 10
89.121178
 20
67.118057
 30
0.0
 10
89.253046
 20
67.202572
 30
0.0
 10
89.380505
 20
67.293162
 30
0.0
 10
89.503306
 20
67.389625
 30
0.0
 10
89.621240
 20
67.491754
 30
0.0
 10
89.734128
 20
67.599348
 30
0.0
 10
89.841761
 20
67.712197
 30
0.0
 10
89.943925
 20
67.830106
 30
0.0
 10
90.040409
 20
67.952865
 30
0.0
 10
90.131038
 20
68.080274
 30
0.0
 10
90.215563
 20
68.212125
 30
0.0
 10
90.293844
 20
68.348216
 30
0.0
 10
90.365599
 20
68.488346
 30
0.0
 10
90.430722
 20
68.632303
 30
0.0
 10
90.488895
 20
68.779891
 30
0.0
 10
90.540012
 20
68.930904
 30
0.0
 10
90.583792
 20
69.085139
 30
0.0
 10
90.620093
 20
69.242385
 30
0.0
 10
90.648667
 20
69.402447
 30
0.0
 10
90.669340
 20
69.565118
 30
0.0
 10
90.681899
 20
69.730192
 30
0.0
 10
90.686132
 20
69.897468
 30
0.0
 10
90.681899
 20
70.064713
 30
0.0
 10
90.669340
 20
70.229763
 30
0.0
 10
90.648667
 20
70.392414
 30
0.0
 10
90.620093
 20
70.552462
 30
0.0
 10
90.583792
 20
70.709705
 30
0.0
 10
90.540012
 20
70.863932
 30
0.0
 10
90.488895
 20
71.014945
 30
0.0
 10
90.430722
 20
71.162537
 30
0.0
 10
90.365599
 20
71.306505
 30
0.0
 10
90.293844
 20
71.446642
 30
0.0
 10
90.215563
 20
71.582751
 30
0.0
 10
90.131038
 20
71.714619
 30
0.0
 10
90.040409
 20
71.842045
 30
0.0
 10
89.943925
 20
71.964826
 30
0.0
 10
89.841761
 20
72.082756
 30
0.0
 10
89.734128
 20
72.195634
 30
0.0
 10
89.621240
 20
72.303252
 30
0.0
 10
89.503306
 20
72.405405
 30
0.0
 10
89.380505
 20
72.501893
 30
0.0
 10
89.253046
 20
72.592511
 30
0.0
 10
89.121178
 20
72.677054
 30
0.0
 10
88.985042
 20
72.755314
 30
0.0
 10
88.844919
 20
72.827090
 30
0.0
 10
88.700915
 20
72.892181
 30
0.0
 10
88.553313
 20
72.950379
 30
0.0
 10
88.402289
 20
73.001475
 30
0.0
 10
88.248020
 20
73.045276
 30
0.0
 10
88.090752
 20
73.081570
 30
0.0
 10
87.930697
 20
73.110152
 30
0.0
 10
87.767996
 20
73.130821
 30
0.0
 10
87.602921
 20
73.143373
 30
0.0
 10
87.435645
 20
73.147602
 30
0.0
 10
87.268464
 20
73.143373
 30
0.0
 10
87.103473
 20
73.130821
 30
0.0
 10
86.940879
 20
73.110152
 30
0.0
 10
86.780884
 20
73.081570
 30
0.0
 10
86.623690
 20
73.045276
 30
0.0
 10
86.469508
 20
73.001475
 30
0.0
 10
86.318538
 20
72.950379
 30
0.0
 10
86.170985
 20
72.892181
 30
0.0
 10
86.027052
 20
72.827090
 30
0.0
 10
85.886947
 20
72.755314
 30
0.0
 10
85.750870
 20
72.677054
 30
0.0
 10
85.619027
 20
72.592511
 30
0.0
 10
85.491625
 20
72.501893
 30
0.0
 10
85.368865
 20
72.405405
 30
0.0
 10
85.250957
 20
72.303252
 30
0.0
 10
85.138096
 20
72.195634
 30
0.0
 10
85.030492
 20
72.082756
 30
0.0
 10
84.928353
 20
71.964826
 30
0.0
 10
84.831875
 20
71.842045
 30
0.0
 10
84.741268
 20
71.714619
 30
0.0
 10
84.656735
 20
71.582751
 30
0.0
 10
84.578482
 20
71.446642
 30
0.0
 10
84.506710
 20
71.306505
 30
0.0
 10
84.441626
 20
71.162537
 30
0.0
 10
84.383433
 20
71.014945
 30
0.0
 10
84.332337
 20
70.863932
 30
0.0
 10
84.288540
 20
70.709705
 30
0.0
 10
84.252248
 20
70.552462
 30
0.0
 10
84.223666
 20
70.392414
 30
0.0
 10
84.202996
 20
70.229763
 30
0.0
 10
84.190445
 20
70.064713
 30
0.0
  0
LWPOLYLINE
  5
116
100
AcDbEntity
  8
Edge.Cuts
 62
1
100
AcDbPolyline
 90
128
 70
1
 10
98.790957
 20
69.897468
 30
0.0
 10
98.795186
 20
69.730192
 30
0.0
 10
98.807738
 20
69.565118
 30
0.0
 10
98.828407
 20
69.402447
 30
0.0
 10
98.856992
 20
69.242385
 30
0.0
 10
98.893285
 20
69.085139
 30
0.0
 10
98.937085
 20
68.930904
 30
0.0
 10
98.988185
 20
68.779891
 30
0.0
 10
99.046384
 20
68.632303
 30
0.0
 10
99.111475
 20
68.488346
 30
0.0
 10
99.183255
 20
68.348216
 30
0.0
 10
99.261519
 20
68.212125
 30
0.0
 10
99.346065
 20
68.080274
 30
0.0
 10
99.436687
 20
67.952865
 30
0.0
 10
99.533182
 20
67.830106
 30
0.0
 10
99.635343
 20
67.712197
 30
0.0
 10
99.742968
 20
67.599344
 30
0.0
 10
99.855856
 20
67.491754
 30
0.0
 10
99.973797
 20
67.389625
 30
0.0
 10
100.096588
 20
67.293162
 30
0.0
 10
100.224029
 20
67.202572
 30
0.0
 10
100.355911
 20
67.118057
 30
0.0
 10
100.492030
 20
67.039822
 30
0.0
 10
100.632185
 20
66.968067
 30
0.0
 10
100.776171
 20
66.903001
 30
0.0
 10
100.923783
 20
66.844828
 30
0.0
 10
101.074817
 20
66.793749
 30
0.0
 10
101.229066
 20
66.749966
 30
0.0
 10
101.386334
 20
66.713690
 30
0.0
 10
101.546406
 20
66.685119
 30
0.0
 10
101.709086
 20
66.664460
 30
0.0
 10
101.874168
 20
66.651912
 30
0.0
 10
102.041444
 20
66.647686
 30
0.0
 10
102.208625
 20
66.651912
 30
0.0
 10
102.373619
 20
66.664460
 30
0.0
 10
102.536214
 20
66.685119
 30
0.0
 10
102.696198
 20
66.713690
 30
0.0
 10
102.853396
 20
66.749966
 30
0.0
 10
103.007595
 20
66.793749
 30
0.0
 10
103.158548
 20
66.844828
 30
0.0
 10
103.306115
 20
66.903001
 30
0.0
 10
103.450048
 20
66.968067
 30
0.0
 10
103.590135
 20
67.039822
 30
0.0
 10
103.726237
 20
67.118057
 30
0.0
 10
103.858069
 20
67.202572
 30
0.0
 10
103.985457
 20
67.293162
 30
0.0
 10
104.108224
 20
67.389625
 30
0.0
 10
104.226122
 20
67.491754
 30
0.0
 10
104.339010
 20
67.599348
 30
0.0
 10
104.446607
 20
67.712197
 30
0.0
 10
104.548736
 20
67.830106
 30
0.0
 10
104.645221
 20
67.952865
 30
0.0
 10
104.735814
 20
68.080274
 30
0.0
 10
104.820339
 20
68.212125
 30
0.0
 10
104.898621
 20
68.348216
 30
0.0
 10
104.970375
 20
68.488346
 30
0.0
 10
105.035463
 20
68.632303
 30
0.0
 10
105.093671
 20
68.779891
 30
0.0
 10
105.144753
 20
68.930904
 30
0.0
 10
105.188533
 20
69.085139
 30
0.0
 10
105.224834
 20
69.242385
 30
0.0
 10
105.253408
 20
69.402447
 30
0.0
 10
105.274081
 20
69.565118
 30
0.0
 10
105.286640
 20
69.730192
 30
0.0
 10
105.290873
 20
69.897468
 30
0.0
 10
105.286640
 20
70.064713
 30
0.0
 10
105.274081
 20
70.229763
 30
0.0
 10
105.253408
 20
70.392414
 30
0.0
 10
105.224834
 20
70.552462
 30
0.0
 10
105.188533
 20
70.709705
 30
0.0
 10
105.144753
 20
70.863932
 30
0.0
 10
105.093671
 20
71.014945
 30
0.0
 10
105.035463
 20
71.162537
 30
0.0
 10
104.970375
 20
71.306505
 30
0.0
 10
104.898621
 20
71.446642
 30
0.0
 10
104.820339
 20
71.582751
 30
0.0
 10
104.735814
 20
71.714619
 30
0.0
 10
104.645221
 20
71.842045
 30
0.0
 10
104.548736
 20
71.964826
 30
0.0
 10
104.446607
 20
72.082756
 30
0.0
 10
104.339010
 20
72.195634
 30
0.0
 10
104.226122
 20
72.303252
 30
0.0
 10
104.108224
 20
72.405405
 30
0.0
 10
103.985457
 20
72.501893
 30
0.0
 10
103.858069
 20
72.592511
 30
0.0
 10
103.726237
 20
72.677054
 30
0.0
 10
103.590135
 20
72.755314
 30
0.0
 10
103.450048
 20
72.827090
 30
0.0
 10
103.306115
 20
72.892181
 30
0.0
 10
103.158548
 20
72.950379
 30
0.0
 10
103.007595
 20
73.001475
 30
0.0
 10
102.853396
 20
73.045276
 30
0.0
 10
102.696198
 20
73.081570
 30
0.0
 10
102.536214
 20
73.110152
 30
0.0
 10
102.373619
 20
73.130821
 30
0.0
 10
102.208625
 20
73.143373
 30
0.0
 10
102.041444
 20
73.147602
 30
0.0
 10
101.874168
 20
73.143373
 30
0.0
 10
101.709086
 20
73.130821
 30
0.0
 10
101.546406
 20
73.110152
 30
0.0
 10
101.386334
 20
73.081570
 30
0.0
 10
101.229066
 20
73.045276
 30
0.0
 10
101.074817
 20
73.001475
 30
0.0
 10
100.923783
 20
72.950379
 30
0.0
 10
100.776171
 20
72.892181
 30
0.0
 10
100.632185
 20
72.827090
 30
0.0
 10
100.492030
 20
72.755314
 30
0.0
 10
100.355911
 20
72.677054
 30
0.0
 10
100.224029
 20
72.592511
 30
0.0
 10
100.096588
 20
72.501893
 30
0.0
 10
99.973797
 20
72.405405
 30
0.0
 10
99.855856
 20
72.303252
 30
0.0
 10
99.742968
 20
72.195634
 30
0.0
 10
99.635343
 20
72.082756
 30
0.0
 10
99.533182
 20
71.964826
 30
0.0
 10
99.436687
 20
71.842045
 30
0.0
 10
99.346065
 20
71.714619
 30
0.0
 10
99.261519
 20
71.582751
 30
0.0
 10
99.183255
 20
71.446642
 30
0.0
 10
99.111475
 20
71.306505
 30
0.0
 10
99.046384
 20
71.162537
 30
0.0
 10
98.988185
 20
71.014945
 30
0.0
 10
98.937085
 20
70.863932
 30
0.0
 10
98.893285
 20
70.709705
 30
0.0
 10
98.856992
 20
70.552462
 30
0.0
 10
98.828407
 20
70.392414
 30
0.0
 10
98.807738
 20
70.229763
 30
0.0
 10
98.795186
 20
70.064713
 30
0.0
  0
LWPOLYLINE
  5
117
100
AcDbEntity
  8
Edge.Cuts
 62
1
100
AcDbPolyline
 90
128
 70
1
 10
113.395962
 20
69.897468
 30
0.0
 10
113.400190
 20
69.730192
 30
0.0
 10
113.412739
 20
69.565118
 30
0.0
 10
113.433404
 20
69.402447
 30
0.0
 10
113.461982
 20
69.242385
 30
0.0
 10
113.498268
 20
69.085139
 30
0.0
 10
113.542058
 20
68.930904
 30
0.0
 10
113.593148
 20
68.779891
 30
0.0
 10
113.651334
 20
68.632303
 30
0.0
 10
113.716413
 20
68.488346
 30
0.0
 10
113.788180
 20
68.348216
 30
0.0
 10
113.866429
 20
68.212125
 30
0.0
 10
113.950958
 20
68.080274
 30
0.0
 10
114.041565
 20
67.952865
 30
0.0
 10
114.138043
 20
67.830106
 30
0.0
 10
114.240189
 20
67.712197
 30
0.0
 10
114.347800
 20
67.599344
 30
0.0
 10
114.460668
 20
67.491754
 30
0.0
 10
114.578591
 20
67.389625
 30
0.0
 10
114.701368
 20
67.293162
 30
0.0
 10
114.828791
 20
67.202572
 30
0.0
 10
114.960659
 20
67.118057
 30
0.0
 10
115.096764
 20
67.039822
 30
0.0
 10
115.236904
 20
66.968067
 30
0.0
 10
115.380880
 20
66.903001
 30
0.0
 10
115.528478
 20
66.844828
 30
0.0
 10
115.679502
 20
66.793749
 30
0.0
 10
115.833743
 20
66.749966
 30
0.0
 10
115.991001
 20
66.713690
 30
0.0
 10
116.151070
 20
66.685119
 30
0.0
 10
116.313742
 20
66.664460
 30
0.0
 10
116.478821
 20
66.651912
 30
0.0
 10
116.646097
 20
66.647686
 30
0.0
 10
116.813342
 20
66.651912
 30
0.0
 10
116.978378
 20
66.664460
 30
0.0
 10
117.141043
 20
66.685119
 30
0.0
 10
117.301063
 20
66.713690
 30
0.0
 10
117.458296
 20
66.749966
 30
0.0
 10
117.612530
 20
66.793749
 30
0.0
 10
117.763518
 20
66.844828
 30
0.0
 10
117.911120
 20
66.903001
 30
0.0
 10
118.055053
 20
66.968067
 30
0.0
 10
118.195176
 20
67.039822
 30
0.0
 10
118.331278
 20
67.118057
 30
0.0
 10
118.463146
 20
67.202572
 30
0.0
 10
118.590533
 20
67.293162
 30
0.0
 10
118.713300
 20
67.389625
 30
0.0
 10
118.831233
 20
67.491754
 30
0.0
 10
118.944087
 20
67.599348
 30
0.0
 10
119.051684
 20
67.712197
 30
0.0
 10
119.153813
 20
67.830106
 30
0.0
 10
119.250297
 20
67.952865
 30
0.0
 10
119.340890
 20
68.080274
 30
0.0
 10
119.425416
 20
68.212125
 30
0.0
 10
119.503661
 20
68.348216
 30
0.0
 10
119.575452
 20
68.488346
 30
0.0
 10
119.640504
 20
68.632303
 30
0.0
 10
119.698712
 20
68.779891
 30
0.0
 10
119.749794
 20
68.930904
 30
0.0
 10
119.793574
 20
69.085139
 30
0.0
 10
119.829874
 20
69.242385
 30
0.0
 10
119.858449
 20
69.402447
 30
0.0
 10
119.879087
 20
69.565118
 30
0.0
 10
119.891646
 20
69.730192
 30
0.0
 10
119.895879
 20
69.897468
 30
0.0
 10
119.891646
 20
70.064713
 30
0.0
 10
119.879087
 20
70.229763
 30
0.0
 10
119.858449
 20
70.392414
 30
0.0
 10
119.829874
 20
70.552462
 30
0.0
 10
119.793574
 20
70.709705
 30
0.0
 10
119.749794
 20
70.863932
 30
0.0
 10
119.698712
 20
71.014945
 30
0.0
 10
119.640504
 20
71.162537
 30
0.0
 10
119.575452
 20
71.306505
 30
0.0
 10
119.503661
 20
71.446642
 30
0.0
 10
119.425416
 20
71.582751
 30
0.0
 10
119.340890
 20
71.714619
 30
0.0
 10
119.250297
 20
71.842045
 30
0.0
 10
119.153813
 20
71.964826
 30
0.0
 10
119.051684
 20
72.082756
 30
0.0
 10
118.944087
 20
72.195634
 30
0.0
 10
118.831233
 20
72.303252
 30
0.0
 10
118.713300
 20
72.405405
 30
0.0
 10
118.590533
 20
72.501893
 30
0.0
 10
118.463146
 20
72.592511
 30
0.0
 10
118.331278
 20
72.677054
 30
0.0
 10
118.195176
 20
72.755314
 30
0.0
 10
118.055053
 20
72.827090
 30
0.0
 10
117.911120
 20
72.892181
 30
0.0
 10
117.763518
 20
72.950379
 30
0.0
 10
117.612530
 20
73.001475
 30
0.0
 10
117.458296
 20
73.045276
 30
0.0
 10
117.301063
 20
73.081570
 30
0.0
 10
117.141043
 20
73.110152
 30
0.0
 10
116.978378
 20
73.130821
 30
0.0
 10
116.813342
 20
73.143373
 30
0.0
 10
116.646097
 20
73.147602
 30
0.0
 10
116.478821
 20
73.143373
 30
0.0
 10
116.313742
 20
73.130821
 30
0.0
 10
116.151070
 20
73.110152
 30
0.0
 10
115.991001
 20
73.081570
 30
0.0
 10
115.833743
 20
73.045276
 30
0.0
 10
115.679502
 20
73.001475
 30
0.0
 10
115.528478
 20
72.950379
 30
0.0
 10
115.380880
 20
72.892181
 30
0.0
 10
115.236904
 20
72.827090
 30
0.0
 10
115.096764
 20
72.755314
 30
0.0
 10
114.960659
 20
72.677054
 30
0.0
 10
114.828791
 20
72.592511
 30
0.0
 10
114.701368
 20
72.501893
 30
0.0
 10
114.578591
 20
72.405405
 30
0.0
 10
114.460668
 20
72.303252
 30
0.0
 10
114.347797
 20
72.195634
 30
0.0
 10
114.240189
 20
72.082756
 30
0.0
 10
114.138043
 20
71.964826
 30
0.0
 10
114.041565
 20
71.842045
 30
0.0
 10
113.950958
 20
71.714619
 30
0.0
 10
113.866429
 20
71.582751
 30
0.0
 10
113.788180
 20
71.446642
 30
0.0
 10
113.716413
 20
71.306505
 30
0.0
 10
113.651334
 20
71.162537
 30
0.0
 10
113.593148
 20
71.014945
 30
0.0
 10
113.542058
 20
70.863932
 30
0.0
 10
113.498268
 20
70.709705
 30
0.0
 10
113.461982
 20
70.552462
 30
0.0
 10
113.433404
 20
70.392414
 30
0.0
 10
113.412739
 20
70.229763
 30
0.0
 10
113.400190
 20
70.064713
 30
0.0
  0
LWPOLYLINE
  5
118
100
AcDbEntity
  8
Edge.Cuts
 62
1
100
AcDbPolyline
 90
128
 70
1
 10
113.395962
 20
55.292727
 30
0.0
 10
113.400190
 20
55.125449
 30
0.0
 10
113.412739
 20
54.960369
 30
0.0
 10
113.433404
 20
54.797689
 30
0.0
 10
113.461982
 20
54.637616
 30
0.0
 10
113.498268
 20
54.480348
 30
0.0
 10
113.542058
 20
54.326100
 30
0.0
 10
113.593148
 20
54.175065
 30
0.0
 10
113.651334
 20
54.027453
 30
0.0
 10
113.716413
 20
53.883467
 30
0.0
 10
113.788180
 20
53.743312
 30
0.0
 10
113.866429
 20
53.607193
 30
0.0
 10
113.950958
 20
53.475311
 30
0.0
 10
114.041565
 20
53.347870
 30
0.0
 10
114.138043
 20
53.225079
 30
0.0
 10
114.240189
 20
53.107139
 30
0.0
 10
114.347800
 20
52.994250
 30
0.0
 10
114.460668
 20
52.886625
 30
0.0
 10
114.578591
 20
52.784464
 30
0.0
 10
114.701368
 20
52.687969
 30
0.0
 10
114.828791
 20
52.597348
 30
0.0
 10
114.960659
 20
52.512801
 30
0.0
 10
115.096764
 20
52.434538
 30
0.0
 10
115.236904
 20
52.362758
 30
0.0
 10
115.380880
 20
52.297667
 30
0.0
 10
115.528478
 20
52.239470
 30
0.0
 10
115.679502
 20
52.188366
 30
0.0
 10
115.833743
 20
52.144569
 30
0.0
 10
115.991001
 20
52.108275
 30
0.0
 10
116.151070
 20
52.079690
 30
0.0
 10
116.313742
 20
52.059021
 30
0.0
 10
116.478821
 20
52.046469
 30
0.0
 10
116.646097
 20
52.042239
 30
0.0
 10
116.813342
 20
52.046469
 30
0.0
 10
116.978378
 20
52.059021
 30
0.0
 10
117.141043
 20
52.079690
 30
0.0
 10
117.301063
 20
52.108275
 30
0.0
 10
117.458296
 20
52.144569
 30
0.0
 10
117.612530
 20
52.188366
 30
0.0
 10
117.763518
 20
52.239470
 30
0.0
 10
117.911120
 20
52.297667
 30
0.0
 10
118.055053
 20
52.362758
 30
0.0
 10
118.195176
 20
52.434538
 30
0.0
 10
118.331278
 20
52.512801
 30
0.0
 10
118.463146
 20
52.597348
 30
0.0
 10
118.590533
 20
52.687969
 30
0.0
 10
118.713300
 20
52.784464
 30
0.0
 10
118.831233
 20
52.886625
 30
0.0
 10
118.944087
 20
52.994250
 30
0.0
 10
119.051684
 20
53.107139
 30
0.0
 10
119.153813
 20
53.225079
 30
0.0
 10
119.250297
 20
53.347870
 30
0.0
 10
119.340890
 20
53.475311
 30
0.0
 10
119.425416
 20
53.607193
 30
0.0
 10
119.503661
 20
53.743312
 30
0.0
 10
119.575452
 20
53.883467
 30
0.0
 10
119.640504
 20
54.027453
 30
0.0
 10
119.698712
 20
54.175065
 30
0.0
 10
119.749794
 20
54.326100
 30
0.0
 10
119.793574
 20
54.480348
 30
0.0
 10
119.829874
 20
54.637616
 30
0.0
 10
119.858449
 20
54.797689
 30
0.0
 10
119.879087
 20
54.960369
 30
0.0
 10
119.891646
 20
55.125449
 30
0.0
 10
119.895879
 20
55.292727
 30
0.0
 10
119.891646
 20
55.459940
 30
0.0
 10
119.879087
 20
55.624960
 30
0.0
 10
119.858449
 20
55.787585
 30
0.0
 10
119.829874
 20
55.947604
 30
0.0
 10
119.793574
 20
56.104823
 30
0.0
 10
119.749794
 20
56.259029
 30
0.0
 10
119.698712
 20
56.410021
 30
0.0
 10
119.640504
 20
56.557591
 30
0.0
 10
119.575452
 20
56.701542
 30
0.0
 10
119.503661
 20
56.841665
 30
0.0
 10
119.425416
 20
56.977756
 30
0.0
 10
119.340890
 20
57.109609
 30
0.0
 10
119.250297
 20
57.237025
 30
0.0
 10
119.153813
 20
57.359795
 30
0.0
 10
119.051684
 20
57.477715
 30
0.0
 10
118.944087
 20
57.590582
 30
0.0
 10
118.831233
 20
57.698193
 30
0.0
 10
118.713300
 20
57.800343
 30
0.0
 10
118.590533
 20
57.896824
 30
0.0
 10
118.463146
 20
57.987435
 30
0.0
 10
118.331278
 20
58.071975
 30
0.0
 10
118.195176
 20
58.150231
 30
0.0
 10
118.055053
 20
58.222007
 30
0.0
 10
117.911120
 20
58.287091
 30
0.0
 10
117.763518
 20
58.345289
 30
0.0
 10
117.612530
 20
58.396385
 30
0.0
 10
117.458296
 20
58.440182
 30
0.0
 10
117.301063
 20
58.476476
 30
0.0
 10
117.141043
 20
58.505058
 30
0.0
 10
116.978378
 20
58.525727
 30
0.0
 10
116.813342
 20
58.538279
 30
0.0
 10
116.646097
 20
58.542509
 30
0.0
 10
116.478821
 20
58.538279
 30
0.0
 10
116.313742
 20
58.525727
 30
0.0
 10
116.151070
 20
58.505058
 30
0.0
 10
115.991001
 20
58.476476
 30
0.0
 10
115.833743
 20
58.440182
 30
0.0
 10
115.679502
 20
58.396385
 30
0.0
 10
115.528478
 20
58.345289
 30
0.0
 10
115.380880
 20
58.287091
 30
0.0
 10
115.236904
 20
58.222007
 30
0.0
 10
115.096764
 20
58.150231
 30
0.0
 10
114.960659
 20
58.071975
 30
0.0
 10
114.828791
 20
57.987435
 30
0.0
 10
114.701368
 20
57.896824
 30
0.0
 10
114.578591
 20
57.800343
 30
0.0
 10
114.460668
 20
57.698193
 30
0.0
 10
114.347797
 20
57.590582
 30
0.0
 10
114.240189
 20
57.477715
 30
0.0
 10
114.138043
 20
57.359795
 30
0.0
 10
114.041565
 20
57.237025
 30
0.0
 10
113.950958
 20
57.109609
 30
0.0
 10
113.866429
 20
56.977756
 30
0.0
 10
113.788180
 20
56.841665
 30
0.0
 10
113.716413
 20
56.701542
 30
0.0
 10
113.651334
 20
56.557591
 30
0.0
 10
113.593148
 20
56.410021
 30
0.0
 10
113.542058
 20
56.259029
 30
0.0
 10
113.498268
 20
56.104823
 30
0.0
 10
113.461982
 20
55.947604
 30
0.0
 10
113.433404
 20
55.787585
 30
0.0
 10
113.412739
 20
55.624960
 30
0.0
 10
113.400190
 20
55.459940
 30
0.0
  0
LWPOLYLINE
  5
119
100
AcDbEntity
  8
Edge.Cuts
 62
1
100
AcDbPolyline
 90
128
 70
1
 10
98.790957
 20
55.292727
 30
0.0
 10
98.795186
 20
55.125449
 30
0.0
 10
98.807738
 20
54.960369
 30
0.0
 10
98.828407
 20
54.797689
 30
0.0
 10
98.856992
 20
54.637616
 30
0.0
 10
98.893285
 20
54.480348
 30
0.0
 10
98.937085
 20
54.326100
 30
0.0
 10
98.988185
 20
54.175065
 30
0.0
 10
99.046384
 20
54.027453
 30
0.0
 10
99.111475
 20
53.883467
 30
0.0
 10
99.183255
 20
53.743312
 30
0.0
 10
99.261519
 20
53.607193
 30
0.0
 10
99.346065
 20
53.475311
 30
0.0
 10
99.436687
 20
53.347870
 30
0.0
 10
99.533182
 20
53.225079
 30
0.0
 10
99.635343
 20
53.107139
 30
0.0
 10
99.742968
 20
52.994250
 30
0.0
 10
99.855856
 20
52.886625
 30
0.0
 10
99.973797
 20
52.784464
 30
0.0
 10
100.096588
 20
52.687969
 30
0.0
 10
100.224029
 20
52.597348
 30
0.0
 10
100.355911
 20
52.512801
 30
0.0
 10
100.492030
 20
52.434538
 30
0.0
 10
100.632185
 20
52.362758
 30
0.0
 10
100.776171
 20
52.297667
 30
0.0
 10
100.923783
 20
52.239470
 30
0.0
 10
101.074817
 20
52.188366
 30
0.0
 10
101.229066
 20
52.144569
 30
0.0
 10
101.386334
 20
52.108275
 30
0.0
 10
101.546406
 20
52.079690
 30
0.0
 10
101.709086
 20
52.059021
 30
0.0
 10
101.874168
 20
52.046469
 30
0.0
 10
102.041444
 20
52.042239
 30
0.0
 10
102.208625
 20
52.046469
 30
0.0
 10
102.373619
 20
52.059021
 30
0.0
 10
102.536214
 20
52.079690
 30
0.0
 10
102.696198
 20
52.108275
 30
0.0
 10
102.853396
 20
52.144569
 30
0.0
 10
103.007595
 20
52.188366
 30
0.0
 10
103.158548
 20
52.239470
 30
0.0
 10
103.306115
 20
52.297667
 30
0.0
 10
103.450048
 20
52.362758
 30
0.0
 10
103.590135
 20
52.434538
 30
0.0
 10
103.726237
 20
52.512801
 30
0.0
 10
103.858069
 20
52.597348
 30
0.0
 10
103.985457
 20
52.687969
 30
0.0
 10
104.108224
 20
52.784464
 30
0.0
 10
104.226122
 20
52.886625
 30
0.0
 10
104.339010
 20
52.994250
 30
0.0
 10
104.446607
 20
53.107139
 30
0.0
 10
104.548736
 20
53.225079
 30
0.0
 10
104.645221
 20
53.347870
 30
0.0
 10
104.735814
 20
53.475311
 30
0.0
 10
104.820339
 20
53.607193
 30
0.0
 10
104.898621
 20
53.743312
 30
0.0
 10
104.970375
 20
53.883467
 30
0.0
 10
105.035463
 20
54.027453
 30
0.0
 10
105.093671
 20
54.175065
 30
0.0
 10
105.144753
 20
54.326100
 30
0.0
 10
105.188533
 20
54.480348
 30
0.0
 10
105.224834
 20
54.637616
 30
0.0
 10
105.253408
 20
54.797689
 30
0.0
 10
105.274081
 20
54.960369
 30
0.0
 10
105.286640
 20
55.125449
 30
0.0
 10
105.290873
 20
55.292727
 30
0.0
 10
105.286640
 20
55.459940
 30
0.0
 10
105.274081
 20
55.624960
 30
0.0
 10
105.253408
 20
55.787585
 30
0.0
 10
105.224834
 20
55.947604
 30
0.0
 10
105.188533
 20
56.104823
 30
0.0
 10
105.144753
 20
56.259029
 30
0.0
 10
105.093671
 20
56.410021
 30
0.0
 10
105.035463
 20
56.557591
 30
0.0
 10
104.970375
 20
56.701542
 30
0.0
 10
104.898621
 20
56.841665
 30
0.0
 10
104.820339
 20
56.977756
 30
0.0
 10
104.735814
 20
57.109609
 30
0.0
 10
104.645221
 20
57.237025
 30
0.0
 10
104.548736
 20
57.359795
 30
0.0
 10
104.446607
 20
57.477715
 30
0.0
 10
104.339010
 20
57.590582
 30
0.0
 10
104.226122
 20
57.698193
 30
0.0
 10
104.108224
 20
57.800343
 30
0.0
 10
103.985457
 20
57.896824
 30
0.0
 10
103.858069
 20
57.987435
 30
0.0
 10
103.726237
 20
58.071975
 30
0.0
 10
103.590135
 20
58.150231
 30
0.0
 10
103.450048
 20
58.222007
 30
0.0
 10
103.306115
 20
58.287091
 30
0.0
 10
103.158548
 20
58.345289
 30
0.0
 10
103.007595
 20
58.396385
 30
0.0
 10
102.853396
 20
58.440182
 30
0.0
 10
102.696198
 20
58.476476
 30
0.0
 10
102.536214
 20
58.505058
 30
0.0
 10
102.373619
 20
58.525727
 30
0.0
 10
102.208625
 20
58.538279
 30
0.0
 10
102.041444
 20
58.542509
 30
0.0
 10
101.874168
 20
58.538279
 30
0.0
 10
101.709086
 20
58.525727
 30
0.0
 10
101.546406
 20
58.505058
 30
0.0
 10
101.386334
 20
58.476476
 30
0.0
 10
101.229066
 20
58.440182
 30
0.0
 10
101.074817
 20
58.396385
 30
0.0
 10
100.923783
 20
58.345289
 30
0.0
 10
100.776171
 20
58.287091
 30
0.0
 10
100.632185
 20
58.222007
 30
0.0
 10
100.492030
 20
58.150231
 30
0.0
 10
100.355911
 20
58.071975
 30
0.0
 10
100.224029
 20
57.987435
 30
0.0
 10
100.096588
 20
57.896824
 30
0.0
 10
99.973797
 20
57.800343
 30
0.0
 10
99.855856
 20
57.698193
 30
0.0
 10
99.742968
 20
57.590582
 30
0.0
 10
99.635343
 20
57.477715
 30
0.0
 10
99.533182
 20
57.359795
 30
0.0
 10
99.436687
 20
57.237025
 30
0.0
 10
99.346065
 20
57.109609
 30
0.0
 10
99.261519
 20
56.977756
 30
0.0
 10
99.183255
 20
56.841665
 30
0.0
 10
99.111475
 20
56.701542
 30
0.0
 10
99.046384
 20
56.557591
 30
0.0
 10
98.988185
 20
56.410021
 30
0.0
 10
98.937085
 20
56.259029
 30
0.0
 10
98.893285
 20
56.104823
 30
0.0
 10
98.856992
 20
55.947604
 30
0.0
 10
98.828407
 20
55.787585
 30
0.0
 10
98.807738
 20
55.624960
 30
0.0
 10
98.795186
 20
55.459940
 30
0.0
  0
LWPOLYLINE
  5
11a
100
AcDbEntity
  8
Edge.Cuts
 62
1
100
AcDbPolyline
 90
128
 70
1
 10
84.186216
 20
55.292727
 30
0.0
 10
84.190445
 20
55.125449
 30
0.0
 10
84.202996
 20
54.960369
 30
0.0
 10
84.223666
 20
54.797689
 30
0.0
 10
84.252248
 20
54.637616
 30
0.0
 10
84.288540
 20
54.480348
 30
0.0
 10
84.332337
 20
54.326100
 30
0.0
 10
84.383433
 20
54.175065
 30
0.0
 10
84.441626
 20
54.027453
 30
0.0
 10
84.506710
 20
53.883467
 30
0.0
 10
84.578482
 20
53.743312
 30
0.0
 10
84.656735
 20
53.607193
 30
0.0
 10
84.741268
 20
53.475311
 30
0.0
 10
84.831875
 20
53.347870
 30
0.0
 10
84.928353
 20
53.225079
 30
0.0
 10
85.030492
 20
53.107139
 30
0.0
 10
85.138096
 20
52.994250
 30
0.0
 10
85.250957
 20
52.886625
 30
0.0
 10
85.368865
 20
52.784464
 30
0.0
 10
85.491625
 20
52.687969
 30
0.0
 10
85.619027
 20
52.597348
 30
0.0
 10
85.750870
 20
52.512801
 30
0.0
 10
85.886947
 20
52.434538
 30
0.0
 10
86.027052
 20
52.362758
 30
0.0
 10
86.170985
 20
52.297667
 30
0.0
 10
86.318538
 20
52.239470
 30
0.0
 10
86.469508
 20
52.188366
 30
0.0
 10
86.623690
 20
52.144569
 30
0.0
 10
86.780884
 20
52.108275
 30
0.0
 10
86.940879
 20
52.079690
 30
0.0
 10
87.103473
 20
52.059021
 30
0.0
 10
87.268464
 20
52.046469
 30
0.0
 10
87.435645
 20
52.042239
 30
0.0
 10
87.602921
 20
52.046469
 30
0.0
 10
87.767996
 20
52.059021
 30
0.0
 10
87.930697
 20
52.079690
 30
0.0
 10
88.090752
 20
52.108275
 30
0.0
 10
88.248020
 20
52.144569
 30
0.0
 10
88.402289
 20
52.188366
 30
0.0
 10
88.553313
 20
52.239470
 30
0.0
 10
88.700915
 20
52.297667
 30
0.0
 10
88.844919
 20
52.362758
 30
0.0
 10
88.985042
 20
52.434538
 30
0.0
 10
89.121178
 20
52.512801
 30
0.0
 10
89.253046
 20
52.597348
 30
0.0
 10
89.380505
 20
52.687969
 30
0.0
 10
89.503306
 20
52.784464
 30
0.0
 10
89.621240
 20
52.886625
 30
0.0
 10
89.734128
 20
52.994250
 30
0.0
 10
89.841761
 20
53.107139
 30
0.0
 10
89.943925
 20
53.225079
 30
0.0
 10
90.040409
 20
53.347870
 30
0.0
 10
90.131038
 20
53.475311
 30
0.0
 10
90.215563
 20
53.607193
 30
0.0
 10
90.293844
 20
53.743312
 30
0.0
 10
90.365599
 20
53.883467
 30
0.0
 10
90.430722
 20
54.027453
 30
0.0
 10
90.488895
 20
54.175065
 30
0.0
 10
90.540012
 20
54.326100
 30
0.0
 10
90.583792
 20
54.480348
 30
0.0
 10
90.620093
 20
54.637616
 30
0.0
 10
90.648667
 20
54.797689
 30
0.0
 10
90.669340
 20
54.960369
 30
0.0
 10
90.681899
 20
55.125449
 30
0.0
 10
90.686132
 20
55.292727
 30
0.0
 10
90.681899
 20
55.459940
 30
0.0
 10
90.669340
 20
55.624960
 30
0.0
 10
90.648667
 20
55.787585
 30
0.0
 10
90.620093
 20
55.947604
 30
0.0
 10
90.583792
 20
56.104823
 30
0.0
 10
90.540012
 20
56.259029
 30
0.0
 10
90.488895
 20
56.410021
 30
0.0
 10
90.430722
 20
56.557591
 30
0.0
 10
90.365599
 20
56.701542
 30
0.0
 10
90.293844
 20
56.841665
 30
0.0
 10
90.215563
 20
56.977756
 30
0.0
 10
90.131038
 20
57.109609
 30
0.0
 10
90.040409
 20
57.237025
 30
0.0
 10
89.943925
 20
57.359795
 30
0.0
 10
89.841761
 20
57.477715
 30
0.0
 10
89.734128
 20
57.590582
 30
0.0
 10
89.621240
 20
57.698193
 30
0.0
 10
89.503306
 20
57.800343
 30
0.0
 10
89.380505
 20
57.896824
 30
0.0
 10
89.253046
 20
57.987435
 30
0.0
 10
89.121178
 20
58.071975
 30
0.0
 10
88.985042
 20
58.150231
 30
0.0
 10
88.844919
 20
58.222007
 30
0.0
 10
88.700915
 20
58.287091
 30
0.0
 10
88.553313
 20
58.345289
 30
0.0
 10
88.402289
 20
58.396385
 30
0.0
 10
88.248020
 20
58.440182
 30
0.0
 10
88.090752
 20
58.476476
 30
0.0
 10
87.930697
 20
58.505058
 30
0.0
 10
87.767996
 20
58.525727
 30
0.0
 10
87.602921
 20
58.538279
 30
0.0
 10
87.435645
 20
58.542509
 30
0.0
 10
87.268464
 20
58.538279
 30
0.0
 10
87.103473
 20
58.525727
 30
0.0
 10
86.940879
 20
58.505058
 30
0.0
 10
86.780884
 20
58.476476
 30
0.0
 10
86.623690
 20
58.440182
 30
0.0
 10
86.469508
 20
58.396385
 30
0.0
 10
86.318538
 20
58.345289
 30
0.0
 10
86.170985
 20
58.287091
 30
0.0
 10
86.027052
 20
58.222007
 30
0.0
 10
85.886947
 20
58.150231
 30
0.0
 10
85.750870
 20
58.071975
 30
0.0
 10
85.619027
 20
57.987435
 30
0.0
 10
85.491625
 20
57.896824
 30
0.0
 10
85.368865
 20
57.800343
 30
0.0
 10
85.250957
 20
57.698193
 30
0.0
 10
85.138096
 20
57.590582
 30
0.0
 10
85.030492
 20
57.477715
 30
0.0
 10
84.928353
 20
57.359795
 30
0.0
 10
84.831875
 20
57.237025
 30
0.0
 10
84.741268
 20
57.109609
 30
0.0
 10
84.656735
 20
56.977756
 30
0.0
 10
84.578482
 20
56.841665
 30
0.0
 10
84.506710
 20
56.701542
 30
0.0
 10
84.441626
 20
56.557591
 30
0.0
 10
84.383433
 20
56.410021
 30
0.0
 10
84.332337
 20
56.259029
 30
0.0
 10
84.288540
 20
56.104823
 30
0.0
 10
84.252248
 20
55.947604
 30
0.0
 10
84.223666
 20
55.787585
 30
0.0
 10
84.202996
 20
55.624960
 30
0.0
 10
84.190445
 20
55.459940
 30
0.0
  0
LWPOLYLINE
  5
11b
100
AcDbEntity
  8
Edge.Cuts
 62
1
100
AcDbPolyline
 90
128
 70
1
 10
69.580945
 20
55.292727
 30
0.0
 10
69.585174
 20
55.125449
 30
0.0
 10
69.597722
 20
54.960369
 30
0.0
 10
69.618387
 20
54.797689
 30
0.0
 10
69.646964
 20
54.637616
 30
0.0
 10
69.683249
 20
54.480348
 30
0.0
 10
69.727038
 20
54.326100
 30
0.0
 10
69.778127
 20
54.175065
 30
0.0
 10
69.836312
 20
54.027453
 30
0.0
 10
69.901388
 20
53.883467
 30
0.0
 10
69.973152
 20
53.743312
 30
0.0
 10
70.051398
 20
53.607193
 30
0.0
 10
70.135924
 20
53.475311
 30
0.0
 10
70.226524
 20
53.347870
 30
0.0
 10
70.322998
 20
53.225079
 30
0.0
 10
70.425137
 20
53.107139
 30
0.0
 10
70.532738
 20
52.994250
 30
0.0
 10
70.645598
 20
52.886625
 30
0.0
 10
70.763514
 20
52.784464
 30
0.0
 10
70.886277
 20
52.687969
 30
0.0
 10
71.013689
 20
52.597348
 30
0.0
 10
71.145543
 20
52.512801
 30
0.0
 10
71.281634
 20
52.434538
 30
0.0
 10
71.421757
 20
52.362758
 30
0.0
 10
71.565715
 20
52.297667
 30
0.0
 10
71.713292
 20
52.239470
 30
0.0
 10
71.864295
 20
52.188366
 30
0.0
 10
72.018515
 20
52.144569
 30
0.0
 10
72.175747
 20
52.108275
 30
0.0
 10
72.335788
 20
52.079690
 30
0.0
 10
72.498436
 20
52.059021
 30
0.0
 10
72.663483
 20
52.046469
 30
0.0
 10
72.830727
 20
52.042239
 30
0.0
 10
72.998004
 20
52.046469
 30
0.0
 10
73.163079
 20
52.059021
 30
0.0
 10
73.325744
 20
52.079690
 30
0.0
 10
73.485834
 20
52.108275
 30
0.0
 10
73.643067
 20
52.144569
 30
0.0
 10
73.797336
 20
52.188366
 30
0.0
 10
73.948360
 20
52.239470
 30
0.0
 10
74.095962
 20
52.297667
 30
0.0
 10
74.239931
 20
52.362758
 30
0.0
 10
74.380054
 20
52.434538
 30
0.0
 10
74.516155
 20
52.512801
 30
0.0
 10
74.648023
 20
52.597348
 30
0.0
 10
74.775446
 20
52.687969
 30
0.0
 10
74.898248
 20
52.784464
 30
0.0
 10
75.016146
 20
52.886625
 30
0.0
 10
75.129034
 20
52.994250
 30
0.0
 10
75.236631
 20
53.107139
 30
0.0
 10
75.338796
 20
53.225079
 30
0.0
 10
75.435245
 20
53.347870
 30
0.0
 10
75.525873
 20
53.475311
 30
0.0
 10
75.610399
 20
53.607193
 30
0.0
 10
75.688645
 20
53.743312
 30
0.0
 10
75.760400
 20
53.883467
 30
0.0
 10
75.825487
 20
54.027453
 30
0.0
 10
75.883660
 20
54.175065
 30
0.0
 10
75.934777
 20
54.326100
 30
0.0
 10
75.978557
 20
54.480348
 30
0.0
 10
76.014858
 20
54.637616
 30
0.0
 10
76.043433
 20
54.797689
 30
0.0
 10
76.064070
 20
54.960369
 30
0.0
 10
76.076629
 20
55.125449
 30
0.0
 10
76.080862
 20
55.292727
 30
0.0
 10
76.076629
 20
55.459940
 30
0.0
 10
76.064070
 20
55.624960
 30
0.0
 10
76.043433
 20
55.787585
 30
0.0
 10
76.014858
 20
55.947604
 30
0.0
 10
75.978557
 20
56.104823
 30
0.0
 10
75.934777
 20
56.259029
 30
0.0
 10
75.883660
 20
56.410021
 30
0.0
 10
75.825487
 20
56.557591
 30
0.0
 10
75.760400
 20
56.701542
 30
0.0
 10
75.688645
 20
56.841665
 30
0.0
 10
75.610399
 20
56.977756
 30
0.0
 10
75.525873
 20
57.109609
 30
0.0
 10
75.435245
 20
57.237025
 30
0.0
 10
75.338796
 20
57.359795
 30
0.0
 10
75.236631
 20
57.477715
 30
0.0
 10
75.129034
 20
57.590582
 30
0.0
 10
75.016146
 20
57.698193
 30
0.0
 10
74.898248
 20
57.800343
 30
0.0
 10
74.775446
 20
57.896824
 30
0.0
 10
74.648023
 20
57.987435
 30
0.0
 10
74.516155
 20
58.071975
 30
0.0
 10
74.380054
 20
58.150231
 30
0.0
 10
74.239931
 20
58.222007
 30
0.0
 10
74.095962
 20
58.287091
 30
0.0
 10
73.948360
 20
58.345289
 30
0.0
 10
73.797336
 20
58.396385
 30
0.0
 10
73.643067
 20
58.440182
 30
0.0
 10
73.485834
 20
58.476476
 30
0.0
 10
73.325744
 20
58.505058
 30
0.0
 10
73.163079
 20
58.525727
 30
0.0
 10
72.998004
 20
58.538279
 30
0.0
 10
72.830727
 20
58.542509
 30
0.0
 10
72.663483
 20
58.538279
 30
0.0
 10
72.498436
 20
58.525727
 30
0.0
 10
72.335788
 20
58.505058
 30
0.0
 10
72.175747
 20
58.476476
 30
0.0
 10
72.018515
 20
58.440182
 30
0.0
 10
71.864295
 20
58.396385
 30
0.0
 10
71.713292
 20
58.345289
 30
0.0
 10
71.565711
 20
58.287091
 30
0.0
 10
71.421757
 20
58.222007
 30
0.0
 10
71.281634
 20
58.150231
 30
0.0
 10
71.145543
 20
58.071975
 30
0.0
 10
71.013689
 20
57.987435
 30
0.0
 10
70.886277
 20
57.896824
 30
0.0
 10
70.763514
 20
57.800343
 30
0.0
 10
70.645598
 20
57.698193
 30
0.0
 10
70.532738
 20
57.590582
 30
0.0
 10
70.425137
 20
57.477715
 30
0.0
 10
70.322998
 20
57.359795
 30
0.0
 10
70.226524
 20
57.237025
 30
0.0
 10
70.135924
 20
57.109609
 30
0.0
 10
70.051398
 20
56.977756
 30
0.0
 10
69.973152
 20
56.841665
 30
0.0
 10
69.901388
 20
56.701542
 30
0.0
 10
69.836312
 20
56.557591
 30
0.0
 10
69.778127
 20
56.410021
 30
0.0
 10
69.727038
 20
56.259029
 30
0.0
 10
69.683249
 20
56.104823
 30
0.0
 10
69.646964
 20
55.947604
 30
0.0
 10
69.618387
 20
55.787585
 30
0.0
 10
69.597722
 20
55.624960
 30
0.0
 10
69.585174
 20
55.459940
 30
0.0
  0
LWPOLYLINE
  5
11c
100
AcDbEntity
  8
Edge.Cuts
 62
1
100
AcDbPolyline
 90
128
 70
1
 10
54.976204
 20
55.292727
 30
0.0
 10
54.980433
 20
55.125449
 30
0.0
 10
54.992981
 20
54.960369
 30
0.0
 10
55.013646
 20
54.797689
 30
0.0
 10
55.042223
 20
54.637616
 30
0.0
 10
55.078508
 20
54.480348
 30
0.0
 10
55.122297
 20
54.326100
 30
0.0
 10
55.173386
 20
54.175065
 30
0.0
 10
55.231571
 20
54.027453
 30
0.0
 10
55.296647
 20
53.883467
 30
0.0
 10
55.368411
 20
53.743312
 30
0.0
 10
55.446657
 20
53.607193
 30
0.0
 10
55.531183
 20
53.475311
 30
0.0
 10
55.621783
 20
53.347870
 30
0.0
 10
55.718257
 20
53.225079
 30
0.0
 10
55.820396
 20
53.107139
 30
0.0
 10
55.927997
 20
52.994250
 30
0.0
 10
56.040857
 20
52.886625
 30
0.0
 10
56.158773
 20
52.784464
 30
0.0
 10
56.281536
 20
52.687969
 30
0.0
 10
56.408948
 20
52.597348
 30
0.0
 10
56.540802
 20
52.512801
 30
0.0
 10
56.676893
 20
52.434538
 30
0.0
 10
56.817016
 20
52.362758
 30
0.0
 10
56.960974
 20
52.297667
 30
0.0
 10
57.108551
 20
52.239470
 30
0.0
 10
57.259554
 20
52.188366
 30
0.0
 10
57.413774
 20
52.144569
 30
0.0
 10
57.571006
 20
52.108275
 30
0.0
 10
57.731047
 20
52.079690
 30
0.0
 10
57.893695
 20
52.059021
 30
0.0
 10
58.058742
 20
52.046469
 30
0.0
 10
58.225986
 20
52.042239
 30
0.0
 10
58.393263
 20
52.046469
 30
0.0
 10
58.558338
 20
52.059021
 30
0.0
 10
58.721003
 20
52.079690
 30
0.0
 10
58.881093
 20
52.108275
 30
0.0
 10
59.038326
 20
52.144569
 30
0.0
 10
59.192595
 20
52.188366
 30
0.0
 10
59.343619
 20
52.239470
 30
0.0
 10
59.491221
 20
52.297667
 30
0.0
 10
59.635190
 20
52.362758
 30
0.0
 10
59.775313
 20
52.434538
 30
0.0
 10
59.911414
 20
52.512801
 30
0.0
 10
60.043282
 20
52.597348
 30
0.0
 10
60.170705
 20
52.687969
 30
0.0
 10
60.293507
 20
52.784464
 30
0.0
 10
60.411405
 20
52.886625
 30
0.0
 10
60.524293
 20
52.994250
 30
0.0
 10
60.631890
 20
53.107139
 30
0.0
 10
60.734055
 20
53.225079
 30
0.0
 10
60.830504
 20
53.347870
 30
0.0
 10
60.921132
 20
53.475311
 30
0.0
 10
61.005658
 20
53.607193
 30
0.0
 10
61.083904
 20
53.743312
 30
0.0
 10
61.155659
 20
53.883467
 30
0.0
 10
61.220746
 20
54.027453
 30
0.0
 10
61.278919
 20
54.175065
 30
0.0
 10
61.330036
 20
54.326100
 30
0.0
 10
61.373816
 20
54.480348
 30
0.0
 10
61.410117
 20
54.637616
 30
0.0
 10
61.438692
 20
54.797689
 30
0.0
 10
61.459329
 20
54.960369
 30
0.0
 10
61.471888
 20
55.125449
 30
0.0
 10
61.476121
 20
55.292727
 30
0.0
 10
61.471888
 20
55.459940
 30
0.0
 10
61.459329
 20
55.624960
 30
0.0
 10
61.438692
 20
55.787585
 30
0.0
 10
61.410117
 20
55.947604
 30
0.0
 10
61.373816
 20
56.104823
 30
0.0
 10
61.330036
 20
56.259029
 30
0.0
 10
61.278919
 20
56.410021
 30
0.0
 10
61.220746
 20
56.557591
 30
0.0
 10
61.155659
 20
56.701542
 30
0.0
 10
61.083904
 20
56.841665
 30
0.0
 10
61.005658
 20
56.977756
 30
0.0
 10
60.921132
 20
57.109609
 30
0.0
 10
60.830504
 20
57.237025
 30
0.0
 10
60.734055
 20
57.359795
 30
0.0
 10
60.631890
 20
57.477715
 30
0.0
 10
60.524293
 20
57.590582
 30
0.0
 10
60.411405
 20
57.698193
 30
0.0
 10
60.293507
 20
57.800343
 30
0.0
 10
60.170705
 20
57.896824
 30
0.0
 10
60.043282
 20
57.987435
 30
0.0
 10
59.911414
 20
58.071975
 30
0.0
 10
59.775313
 20
58.150231
 30
0.0
 10
59.635190
 20
58.222007
 30
0.0
 10
59.491221
 20
58.287091
 30
0.0
 10
59.343619
 20
58.345289
 30
0.0
 10
59.192595
 20
58.396385
 30
0.0
 10
59.038326
 20
58.440182
 30
0.0
 10
58.881093
 20
58.476476
 30
0.0
 10
58.721003
 20
58.505058
 30
0.0
 10
58.558338
 20
58.525727
 30
0.0
 10
58.393263
 20
58.538279
 30
0.0
 10
58.225986
 20
58.542509
 30
0.0
 10
58.058742
 20
58.538279
 30
0.0
 10
57.893695
 20
58.525727
 30
0.0
 10
57.731047
 20
58.505058
 30
0.0
 10
57.571006
 20
58.476476
 30
0.0
 10
57.413774
 20
58.440182
 30
0.0
 10
57.259554
 20
58.396385
 30
0.0
 10
57.108551
 20
58.345289
 30
0.0
 10
56.960970
 20
58.287091
 30
0.0
 10
56.817016
 20
58.222007
 30
0.0
 10
56.676893
 20
58.150231
 30
0.0
 10
56.540802
 20
58.071975
 30
0.0
 10
56.408948
 20
57.987435
 30
0.0
 10
56.281536
 20
57.896824
 30
0.0
 10
56.158773
 20
57.800343
 30
0.0
 10
56.040857
 20
57.698193
 30
0.0
 10
55.927997
 20
57.590582
 30
0.0
 10
55.820396
 20
57.477715
 30
0.0
 10
55.718257
 20
57.359795
 30
0.0
 10
55.621783
 20
57.237025
 30
0.0
 10
55.531183
 20
57.109609
 30
0.0
 10
55.446657
 20
56.977756
 30
0.0
 10
55.368411
 20
56.841665
 30
0.0
 10
55.296647
 20
56.701542
 30
0.0
 10
55.231571
 20
56.557591
 30
0.0
 10
55.173386
 20
56.410021
 30
0.0
 10
55.122297
 20
56.259029
 30
0.0
 10
55.078508
 20
56.104823
 30
0.0
 10
55.042223
 20
55.947604
 30
0.0
 10
55.013646
 20
55.787585
 30
0.0
 10
54.992981
 20
55.624960
 30
0.0
 10
54.980433
 20
55.459940
 30
0.0
  0
LWPOLYLINE
  5
11d
100
AcDbEntity
  8
Edge.Cuts
 62
1
100
AcDbPolyline
 90
64
 70
1
 10
116.435761
 20
40.892509
 30
0.0
 10
116.444020
 20
40.728911
 30
0.0
 10
116.468259
 20
40.570045
 30
0.0
 10
116.507675
 20
40.416715
 30
0.0
 10
116.561466
 20
40.269720
 30
0.0
 10
116.628826
 20
40.129868
 30
0.0
 10
116.708953
 20
39.997961
 30
0.0
 10
116.801044
 20
39.874803
 30
0.0
 10
116.904292
 20
39.761195
 30
0.0
 10
117.017900
 20
39.657948
 30
0.0
 10
117.141058
 20
39.565855
 30
0.0
 10
117.272965
 20
39.485729
 30
0.0
 10
117.412816
 20
39.418370
 30
0.0
 10
117.559811
 20
39.364578
 30
0.0
 10
117.713142
 20
39.325163
 30
0.0
 10
117.872008
 20
39.300923
 30
0.0
 10
118.035605
 20
39.292665
 30
0.0
 10
118.199265
 20
39.300923
 30
0.0
 10
118.358184
 20
39.325163
 30
0.0
 10
118.511565
 20
39.364578
 30
0.0
 10
118.658599
 20
39.418370
 30
0.0
 10
118.798485
 20
39.485729
 30
0.0
 10
118.930421
 20
39.565855
 30
0.0
 10
119.053600
 20
39.657948
 30
0.0
 10
119.167226
 20
39.761195
 30
0.0
 10
119.270491
 20
39.874803
 30
0.0
 10
119.362590
 20
39.997961
 30
0.0
 10
119.442727
 20
40.129868
 30
0.0
 10
119.510093
 20
40.269720
 30
0.0
 10
119.563885
 20
40.416715
 30
0.0
 10
119.603304
 20
40.570045
 30
0.0
 10
119.627543
 20
40.728911
 30
0.0
 10
119.635802
 20
40.892509
 30
0.0
 10
119.627543
 20
41.056106
 30
0.0
 10
119.603304
 20
41.214972
 30
0.0
 10
119.563885
 20
41.368302
 30
0.0
 10
119.510093
 20
41.515298
 30
0.0
 10
119.442727
 20
41.655149
 30
0.0
 10
119.362590
 20
41.787056
 30
0.0
 10
119.270491
 20
41.910214
 30
0.0
 10
119.167226
 20
42.023822
 30
0.0
 10
119.053600
 20
42.127069
 30
0.0
 10
118.930421
 20
42.219162
 30
0.0
 10
118.798485
 20
42.299288
 30
0.0
 10
118.658599
 20
42.366647
 30
0.0
 10
118.511565
 20
42.420439
 30
0.0
 10
118.358184
 20
42.459855
 30
0.0
 10
118.199265
 20
42.484094
 30
0.0
 10
118.035605
 20
42.492352
 30
0.0
 10
117.872008
 20
42.484094
 30
0.0
 10
117.713142
 20
42.459855
 30
0.0
 10
117.559811
 20
42.420439
 30
0.0
 10
117.412816
 20
42.366647
 30
0.0
 10
117.272965
 20
42.299288
 30
0.0
 10
117.141058
 20
42.219162
 30
0.0
 10
117.017900
 20
42.127069
 30
0.0
 10
116.904292
 20
42.023822
 30
0.0
 10
116.801044
 20
41.910214
 30
0.0
 10
116.708953
 20
41.787056
 30
0.0
 10
116.628826
 20
41.655149
 30
0.0
 10
116.561466
 20
41.515298
 30
0.0
 10
116.507675
 20
41.368302
 30
0.0
 10
116.468259
 20
41.214972
 30
0.0
 10
116.444020
 20
41.056106
 30
0.0
  0
LWPOLYLINE
  5
11e
100
AcDbEntity
  8
Edge.Cuts
 62
1
100
AcDbPolyline
 90
128
 70
1
 10
40.370934
 20
55.292727
 30
0.0
 10
40.375163
 20
55.125449
 30
0.0
 10
40.387715
 20
54.960369
 30
0.0
 10
40.408385
 20
54.797689
 30
0.0
 10
40.436968
 20
54.637616
 30
0.0
 10
40.473261
 20
54.480348
 30
0.0
 10
40.517060
 20
54.326100
 30
0.0
 10
40.568160
 20
54.175065
 30
0.0
 10
40.626356
 20
54.027453
 30
0.0
 10
40.691445
 20
53.883467
 30
0.0
 10
40.763222
 20
53.743312
 30
0.0
 10
40.841482
 20
53.607193
 30
0.0
 10
40.926025
 20
53.475311
 30
0.0
 10
41.016643
 20
53.347870
 30
0.0
 10
41.113131
 20
53.225079
 30
0.0
 10
41.215285
 20
53.107139
 30
0.0
 10
41.322903
 20
52.994250
 30
0.0
 10
41.435781
 20
52.886625
 30
0.0
 10
41.553711
 20
52.784464
 30
0.0
 10
41.676491
 20
52.687969
 30
0.0
 10
41.803918
 20
52.597348
 30
0.0
 10
41.935786
 20
52.512801
 30
0.0
 10
42.071895
 20
52.434538
 30
0.0
 10
42.212032
 20
52.362758
 30
0.0
 10
42.356000
 20
52.297667
 30
0.0
 10
42.503591
 20
52.239470
 30
0.0
 10
42.654605
 20
52.188366
 30
0.0
 10
42.808832
 20
52.144569
 30
0.0
 10
42.966075
 20
52.108275
 30
0.0
 10
43.126123
 20
52.079690
 30
0.0
 10
43.288774
 20
52.059021
 30
0.0
 10
43.453824
 20
52.046469
 30
0.0
 10
43.621069
 20
52.042239
 30
0.0
 10
43.788314
 20
52.046469
 30
0.0
 10
43.953350
 20
52.059021
 30
0.0
 10
44.116015
 20
52.079690
 30
0.0
 10
44.276035
 20
52.108275
 30
0.0
 10
44.433268
 20
52.144569
 30
0.0
 10
44.587466
 20
52.188366
 30
0.0
 10
44.738455
 20
52.239470
 30
0.0
 10
44.886022
 20
52.297667
 30
0.0
 10
45.029955
 20
52.362758
 30
0.0
 10
45.170078
 20
52.434538
 30
0.0
 10
45.306144
 20
52.512801
 30
0.0
 10
45.438012
 20
52.597348
 30
0.0
 10
45.565400
 20
52.687969
 30
0.0
 10
45.688131
 20
52.784464
 30
0.0
 10
45.806029
 20
52.886625
 30
0.0
 10
45.918882
 20
52.994250
 30
0.0
 10
46.026479
 20
53.107139
 30
0.0
 10
46.128573
 20
53.225079
 30
0.0
 10
46.225057
 20
53.347870
 30
0.0
 10
46.315615
 20
53.475311
 30
0.0
 10
46.400141
 20
53.607193
 30
0.0
 10
46.478387
 20
53.743312
 30
0.0
 10
46.550106
 20
53.883467
 30
0.0
 10
46.615193
 20
54.027453
 30
0.0
 10
46.673366
 20
54.175065
 30
0.0
 10
46.724449
 20
54.326100
 30
0.0
 10
46.768228
 20
54.480348
 30
0.0
 10
46.804494
 20
54.637616
 30
0.0
 10
46.833069
 20
54.797689
 30
0.0
 10
46.853741
 20
54.960369
 30
0.0
 10
46.866265
 20
55.125449
 30
0.0
 10
46.870498
 20
55.292727
 30
0.0
 10
46.866265
 20
55.459940
 30
0.0
 10
46.853741
 20
55.624960
 30
0.0
 10
46.833069
 20
55.787585
 30
0.0
 10
46.804494
 20
55.947604
 30
0.0
 10
46.768228
 20
56.104823
 30
0.0
 10
46.724449
 20
56.259029
 30
0.0
 10
46.673366
 20
56.410021
 30
0.0
 10
46.615193
 20
56.557591
 30
0.0
 10
46.550106
 20
56.701542
 30
0.0
 10
46.478387
 20
56.841665
 30
0.0
 10
46.400141
 20
56.977756
 30
0.0
 10
46.315615
 20
57.109609
 30
0.0
 10
46.225057
 20
57.237025
 30
0.0
 10
46.128573
 20
57.359795
 30
0.0
 10
46.026479
 20
57.477715
 30
0.0
 10
45.918882
 20
57.590582
 30
0.0
 10
45.806029
 20
57.698193
 30
0.0
 10
45.688131
 20
57.800343
 30
0.0
 10
45.565400
 20
57.896824
 30
0.0
 10
45.438012
 20
57.987435
 30
0.0
 10
45.306144
 20
58.071975
 30
0.0
 10
45.170078
 20
58.150231
 30
0.0
 10
45.029955
 20
58.222007
 30
0.0
 10
44.886022
 20
58.287091
 30
0.0
 10
44.738455
 20
58.345289
 30
0.0
 10
44.587466
 20
58.396385
 30
0.0
 10
44.433268
 20
58.440182
 30
0.0
 10
44.276035
 20
58.476476
 30
0.0
 10
44.116015
 20
58.505058
 30
0.0
 10
43.953350
 20
58.525727
 30
0.0
 10
43.788314
 20
58.538279
 30
0.0
 10
43.621069
 20
58.542509
 30
0.0
 10
43.453824
 20
58.538279
 30
0.0
 10
43.288774
 20
58.525727
 30
0.0
 10
43.126123
 20
58.505058
 30
0.0
 10
42.966075
 20
58.476476
 30
0.0
 10
42.808832
 20
58.440182
 30
0.0
 10
42.654605
 20
58.396385
 30
0.0
 10
42.503591
 20
58.345289
 30
0.0
 10
42.356000
 20
58.287091
 30
0.0
 10
42.212032
 20
58.222007
 30
0.0
 10
42.071895
 20
58.150231
 30
0.0
 10
41.935786
 20
58.071975
 30
0.0
 10
41.803918
 20
57.987435
 30
0.0
 10
41.676491
 20
57.896824
 30
0.0
 10
41.553711
 20
57.800343
 30
0.0
 10
41.435781
 20
57.698193
 30
0.0
 10
41.322903
 20
57.590582
 30
0.0
 10
41.215285
 20
57.477715
 30
0.0
 10
41.113131
 20
57.359795
 30
0.0
 10
41.016643
 20
57.237025
 30
0.0
 10
40.926025
 20
57.109609
 30
0.0
 10
40.841482
 20
56.977756
 30
0.0
 10
40.763222
 20
56.841665
 30
0.0
 10
40.691445
 20
56.701542
 30
0.0
 10
40.626356
 20
56.557591
 30
0.0
 10
40.568160
 20
56.410021
 30
0.0
 10
40.517060
 20
56.259029
 30
0.0
 10
40.473261
 20
56.104823
 30
0.0
 10
40.436968
 20
55.947604
 30
0.0
 10
40.408385
 20
55.787585
 30
0.0
 10
40.387715
 20
55.624960
 30
0.0
 10
40.375163
 20
55.459940
 30
0.0
  0
LWPOLYLINE
  5
11f
100
AcDbEntity
  8
Edge.Cuts
 62
1
100
AcDbPolyline
 90
64
 70
1
 10
40.235997
 20
40.892509
 30
0.0
 10
40.244255
 20
40.728911
 30
0.0
 10
40.268494
 20
40.570045
 30
0.0
 10
40.307911
 20
40.416715
 30
0.0
 10
40.361701
 20
40.269720
 30
0.0
 10
40.429062
 20
40.129868
 30
0.0
 10
40.509189
 20
39.997961
 30
0.0
 10
40.601280
 20
39.874803
 30
0.0
 10
40.704527
 20
39.761195
 30
0.0
 10
40.818135
 20
39.657948
 30
0.0
 10
40.941293
 20
39.565855
 30
0.0
 10
41.073200
 20
39.485729
 30
0.0
 10
41.213051
 20
39.418370
 30
0.0
 10
41.360047
 20
39.364578
 30
0.0
 10
41.513378
 20
39.325163
 30
0.0
 10
41.672244
 20
39.300923
 30
0.0
 10
41.835841
 20
39.292665
 30
0.0
 10
41.999437
 20
39.300923
 30
0.0
 10
42.158303
 20
39.325163
 30
0.0
 10
42.311634
 20
39.364578
 30
0.0
 10
42.458630
 20
39.418370
 30
0.0
 10
42.598481
 20
39.485729
 30
0.0
 10
42.730388
 20
39.565855
 30
0.0
 10
42.853546
 20
39.657948
 30
0.0
 10
42.967154
 20
39.761195
 30
0.0
 10
43.070401
 20
39.874803
 30
0.0
 10
43.162494
 20
39.997961
 30
0.0
 10
43.242620
 20
40.129868
 30
0.0
 10
43.309979
 20
40.269720
 30
0.0
 10
43.363771
 20
40.416715
 30
0.0
 10
43.403187
 20
40.570045
 30
0.0
 10
43.427426
 20
40.728911
 30
0.0
 10
43.435684
 20
40.892509
 30
0.0
 10
43.427426
 20
41.056106
 30
0.0
 10
43.403187
 20
41.214972
 30
0.0
 10
43.363771
 20
41.368302
 30
0.0
 10
43.309979
 20
41.515298
 30
0.0
 10
43.242620
 20
41.655149
 30
0.0
 10
43.162494
 20
41.787056
 30
0.0
 10
43.070401
 20
41.910214
 30
0.0
 10
42.967154
 20
42.023822
 30
0.0
 10
42.853546
 20
42.127069
 30
0.0
 10
42.730388
 20
42.219162
 30
0.0
 10
42.598481
 20
42.299288
 30
0.0
 10
42.458630
 20
42.366647
 30
0.0
 10
42.311634
 20
42.420439
 30
0.0
 10
42.158303
 20
42.459855
 30
0.0
 10
41.999437
 20
42.484094
 30
0.0
 10
41.835841
 20
42.492352
 30
0.0
 10
41.672244
 20
42.484094
 30
0.0
 10
41.513378
 20
42.459855
 30
0.0
 10
41.360047
 20
42.420439
 30
0.0
 10
41.213051
 20
42.366647
 30
0.0
 10
41.073200
 20
42.299288
 30
0.0
 10
40.941293
 20
42.219162
 30
0.0
 10
40.818135
 20
42.127069
 30
0.0
 10
40.704527
 20
42.023822
 30
0.0
 10
40.601280
 20
41.910214
 30
0.0
 10
40.509189
 20
41.787056
 30
0.0
 10
40.429062
 20
41.655149
 30
0.0
 10
40.361701
 20
41.515298
 30
0.0
 10
40.307911
 20
41.368302
 30
0.0
 10
40.268494
 20
41.214972
 30
0.0
 10
40.244255
 20
41.056106
 30
0.0
  0
ENDSEC
  0
SECTION
  2
OBJECTS
  0
DICTIONARY
  5
C
330
0
100
AcDbDictionary
  3
ACAD_GROUP
350
D
  3
ACAD_MLINESTYLE
350
17
  0
DICTIONARY
  5
D
330
C
100
AcDbDictionary
  0
DICTIONARY
  5
1A
330
C
100
AcDbDictionary
  0
DICTIONARY
  5
17
330
C
100
AcDbDictionary
  3
STANDARD
350
18
  0
DICTIONARY
  5
19
330
C
100
AcDbDictionary
  0
ENDSEC
  0
EOF
