  0
SECTION
  2
HEADER
  9
$ACADVER
  1
AC1014
  9
$HANDSEED
  5
FFFF
  9
$MEASUREMENT
 70
     1
  0
ENDSEC
  0
SECTION
  2
TABLES
  0
TABLE
  2
VPORT
  5
8
330
0
100
AcDbSymbolTable
 70
     4
  0
VPORT
  5
2E
330
8
100
AcDbSymbolTableRecord
100
AcDbViewportTableRecord
  2
*ACTIVE
 70
     0
 10
0.0
 20
0.0
 11
1.0
 21
1.0
 12
210.0
 22
148.5
 13
0.0
 23
0.0
 14
10.0
 24
10.0
 15
10.0
 25
10.0
 16
0.0
 26
0.0
 36
1.0
 17
0.0
 27
0.0
 37
0.0
 40
341.0
 41
1.24
 42
50.0
 43
0.0
 44
0.0
 50
0.0
 51
0.0
 71
     0
 72
   100
 73
     1
 74
     3
 75
     0
 76
     0
 77
     0
 78
     0
  0
ENDTAB
  0
TABLE
  2
LTYPE
  5
5
330
0
100
AcDbSymbolTable
 70
     1
  0
LTYPE
  5
14
330
5
100
AcDbSymbolTableRecord
100
AcDbLinetypeTableRecord
  2
BYBLOCK
 70
     0
  3

 72
    65
 73
     0
 40
0.0
  0
LTYPE
  5
15
330
5
100
AcDbSymbolTableRecord
100
AcDbLinetypeTableRecord
  2
BYLAYER
 70
     0
  3

 72
    65
 73
     0
 40
0.0
  0
LTYPE
  5
16
330
5
100
AcDbSymbolTableRecord
100
AcDbLinetypeTableRecord
  2
CONTINUOUS
 70
     0
  3
Solid line
 72
    65
 73
     0
 40
0.0
  0
ENDTAB
  0
TABLE
  2
LAYER
  5
2
100
AcDbSymbolTable
 70
5
  0
LAYER
  5
50
100
AcDbSymbolTableRecord
100
AcDbLayerTableRecord
  2
0
 70
0
  6
CONTINUOUS
  0
LAYER
  5
51
100
AcDbSymbolTableRecord
100
AcDbLayerTableRecord
  2
clouds
 70
0
  6
CONTINUOUS
  0
LAYER
  5
52
100
AcDbSymbolTableRecord
100
AcDbLayerTableRecord
  2
F.Mask
 70
0
  6
CONTINUOUS
  0
LAYER
  5
53
100
AcDbSymbolTableRecord
100
AcDbLayerTableRecord
  2
Edge.Cuts
 70
0
  6
CONTINUOUS
  0
LAYER
  5
54
100
AcDbSymbolTableRecord
100
AcDbLayerTableRecord
  2
F.Cu
 70
0
  6
CONTINUOUS
  0
ENDTAB
  0
TABLE
  2
STYLE
  5
3
330
0
100
AcDbSymbolTable
 70
     1
  0
STYLE
  5
11
330
3
100
AcDbSymbolTableRecord
100
AcDbTextStyleTableRecord
  2
STANDARD
 70
     0
 40
0.0
 41
1.0
 50
0.0
 71
     0
 42
2.5
  3
txt
  4

  0
ENDTAB
  0
TABLE
  2
VIEW
  5
6
330
0
100
AcDbSymbolTable
 70
     0
  0
ENDTAB
  0
TABLE
  2
UCS
  5
7
330
0
100
AcDbSymbolTable
 70
     0
  0
ENDTAB
  0
TABLE
  2
APPID
  5
9
330
0
100
AcDbSymbolTable
 70
     2
  0
APPID
  5
12
330
9
100
AcDbSymbolTableRecord
100
AcDbRegAppTableRecord
  2
ACAD
 70
     0
  0
ENDTAB
  0
TABLE
  2
DIMSTYLE
  5
A
330
0
100
AcDbSymbolTable
 70
     1
  0
DIMSTYLE
105
27
330
A
100
AcDbSymbolTableRecord
100
AcDbDimStyleTableRecord
  2
ISO-25
 70
     0
  3

  4

  5

  6

  7

 40
1.0
 41
2.5
 42
0.625
 43
3.75
 44
1.25
 45
0.0
 46
0.0
 47
0.0
 48
0.0
140
2.5
141
2.5
142
0.0
143
0.03937007874016
144
1.0
145
0.0
146
1.0
147
0.625
 71
     0
 72
     0
 73
     0
 74
     0
 75
     0
 76
     0
 77
     1
 78
     8
170
     0
171
     3
172
     1
173
     0
174
     0
175
     0
176
     0
177
     0
178
     0
270
     2
271
     2
272
     2
273
     2
274
     3
340
11
275
     0
280
     0
281
     0
282
     0
283
     0
284
     8
285
     0
286
     0
287
     3
288
     0
  0
ENDTAB
  0
TABLE
  2
BLOCK_RECORD
  5
1
330
0
100
AcDbSymbolTable
 70
     1
  0
BLOCK_RECORD
  5
1F
330
1
100
AcDbSymbolTableRecord
100
AcDbBlockTableRecord
  2
*MODEL_SPACE
  0
BLOCK_RECORD
  5
1B
330
1
100
AcDbSymbolTableRecord
100
AcDbBlockTableRecord
  2
*PAPER_SPACE
  0
ENDTAB
  0
ENDSEC
  0
SECTION
  2
BLOCKS
  0
BLOCK
  5
20
330
1F
100
AcDbEntity
  8
0
100
AcDbBlockBegin
  2
*MODEL_SPACE
 70
     0
 10
0.0
 20
0.0
 30
0.0
  3
*MODEL_SPACE
  1

  0
ENDBLK
  5
21
330
1F
100
AcDbEntity
  8
0
100
AcDbBlockEnd
  0
BLOCK
  5
1C
330
1B
100
AcDbEntity
 67
     1
  8
0
100
AcDbBlockBegin
  2
*PAPER_SPACE
  1

  0
ENDBLK
  5
1D
330
1B
100
AcDbEntity
 67
     1
  8
0
100
AcDbBlockEnd
  0
ENDSEC
  0
SECTION
  2
ENTITIES
  0
LWPOLYLINE
  5
100
100
AcDbEntity
  8
Edge.Cuts
 62
1
100
AcDbPolyline
 90
128
 70
1
 10
37.745075
 20
108.839789
 30
0.0
 10
37.748327
 20
108.711134
 30
0.0
 10
37.757979
 20
108.584168
 30
0.0
 10
37.773874
 20
108.459047
 30
0.0
 10
37.795854
 20
108.335928
 30
0.0
 10
37.823764
 20
108.214971
 30
0.0
 10
37.857445
 20
108.096332
 30
0.0
 10
37.896741
 20
107.980166
 30
0.0
 10
37.941495
 20
107.866632
 30
0.0
 10
37.991549
 20
107.755885
 30
0.0
 10
38.046748
 20
107.648083
 30
0.0
 10
38.106936
 20
107.543386
 30
0.0
 10
38.171949
 20
107.441948
 30
0.0
 10
38.241641
 20
107.343926
 30
0.0
 10
38.315844
 20
107.249480
 30
0.0
 10
38.394411
 20
107.158764
 30
0.0
 10
38.477176
 20
107.071935
 30
0.0
 10
38.563987
 20
106.989152
 30
0.0
 10
38.654686
 20
106.910571
 30
0.0
 10
38.749118
 20
106.836350
 30
0.0
 10
38.847126
 20
106.766645
 30
0.0
 10
38.948546
 20
106.701614
 30
0.0
 10
39.053233
 20
106.641412
 30
0.0
 10
39.161017
 20
106.586199
 30
0.0
 10
39.271750
 20
106.536133
 30
0.0
 10
39.385274
 20
106.491366
 30
0.0
 10
39.501429
 20
106.452059
 30
0.0
 10
39.620061
 20
106.418369
 30
0.0
 10
39.741011
 20
106.390450
 30
0.0
 10
39.864119
 20
106.368465
 30
0.0
 10
39.989235
 20
106.352566
 30
0.0
 10
40.116200
 20
106.342910
 30
0.0
 10
40.244854
 20
106.339657
 30
0.0
 10
40.373448
 20
106.342910
 30
0.0
 10
40.500363
 20
106.352566
 30
0.0
 10
40.625441
 20
106.368465
 30
0.0
 10
40.748524
 20
106.390450
 30
0.0
 10
40.869460
 20
106.418369
 30
0.0
 10
40.988081
 20
106.452059
 30
0.0
 10
41.104237
 20
106.491366
 30
0.0
 10
41.217771
 20
106.536133
 30
0.0
 10
41.328515
 20
106.586199
 30
0.0
 10
41.436324
 20
106.641412
 30
0.0
 10
41.541028
 20
106.701614
 30
0.0
 10
41.642487
 20
106.766645
 30
0.0
 10
41.740523
 20
106.836350
 30
0.0
 10
41.834997
 20
106.910571
 30
0.0
 10
41.925767
 20
106.989152
 30
0.0
 10
42.012620
 20
107.071935
 30
0.0
 10
42.095452
 20
107.158764
 30
0.0
 10
42.174051
 20
107.249480
 30
0.0
 10
42.248311
 20
107.343926
 30
0.0
 10
42.318055
 20
107.441948
 30
0.0
 10
42.383107
 20
107.543386
 30
0.0
 10
42.443361
 20
107.648083
 30
0.0
 10
42.498606
 20
107.755885
 30
0.0
 10
42.548700
 20
107.866632
 30
0.0
 10
42.593503
 20
107.980166
 30
0.0
 10
42.632838
 20
108.096332
 30
0.0
 10
42.666563
 20
108.214971
 30
0.0
 10
42.694503
 20
108.335928
 30
0.0
 10
42.716517
 20
108.459047
 30
0.0
 10
42.732427
 20
108.584168
 30
0.0
 10
42.742093
 20
108.711134
 30
0.0
 10
42.745338
 20
108.839789
 30
0.0
 10
42.742093
 20
108.968444
 30
0.0
 10
42.732427
 20
109.095411
 30
0.0
 10
42.716517
 20
109.220531
 30
0.0
 10
42.694503
 20
109.343650
 30
0.0
 10
42.666563
 20
109.464607
 30
0.0
 10
42.632838
 20
109.583246
 30
0.0
 10
42.593503
 20
109.699412
 30
0.0
 10
42.548700
 20
109.812946
 30
0.0
 10
42.498606
 20
109.923693
 30
0.0
 10
42.443361
 20
110.031495
 30
0.0
 10
42.383107
 20
110.136192
 30
0.0
 10
42.318055
 20
110.237630
 30
0.0
 10
42.248311
 20
110.335653
 30
0.0
 10
42.174051
 20
110.430098
 30
0.0
 10
42.095452
 20
110.520815
 30
0.0
 10
42.012620
 20
110.607644
 30
0.0
 10
41.925767
 20
110.690426
 30
0.0
 10
41.834997
 20
110.769008
 30
0.0
 10
41.740523
 20
110.843228
 30
0.0
 10
41.642487
 20
110.912934
 30
0.0
 10
41.541028
 20
110.977964
 30
0.0
 10
41.436324
 20
111.038166
 30
0.0
 10
41.328515
 20
111.093379
 30
0.0
 10
41.217771
 20
111.143445
 30
0.0
 10
41.104237
 20
111.188213
 30
0.0
 10
40.988081
 20
111.227519
 30
0.0
 10
40.869460
 20
111.261209
 30
0.0
 10
40.748524
 20
111.289128
 30
0.0
 10
40.625441
 20
111.311113
 30
0.0
 10
40.500363
 20
111.327013
 30
0.0
 10
40.373448
 20
111.336668
 30
0.0
 10
40.244854
 20
111.339921
 30
0.0
 10
40.116200
 20
111.336668
 30
0.0
 10
39.989235
 20
111.327013
 30
0.0
 10
39.864119
 20
111.311113
 30
0.0
 10
39.741011
 20
111.289128
 30
0.0
 10
39.620061
 20
111.261209
 30
0.0
 10
39.501429
 20
111.227519
 30
0.0
 10
39.385274
 20
111.188213
 30
0.0
 10
39.271750
 20
111.143445
 30
0.0
 10
39.161017
 20
111.093379
 30
0.0
 10
39.053233
 20
111.038166
 30
0.0
 10
38.948546
 20
110.977964
 30
0.0
 10
38.847126
 20
110.912934
 30
0.0
 10
38.749118
 20
110.843228
 30
0.0
 10
38.654686
 20
110.769008
 30
0.0
 10
38.563987
 20
110.690426
 30
0.0
 10
38.477176
 20
110.607644
 30
0.0
 10
38.394411
 20
110.520815
 30
0.0
 10
38.315844
 20
110.430098
 30
0.0
 10
38.241641
 20
110.335653
 30
0.0
 10
38.171949
 20
110.237630
 30
0.0
 10
38.106936
 20
110.136192
 30
0.0
 10
38.046748
 20
110.031495
 30
0.0
 10
37.991549
 20
109.923693
 30
0.0
 10
37.941495
 20
109.812946
 30
0.0
 10
37.896741
 20
109.699412
 30
0.0
 10
37.857445
 20
109.583246
 30
0.0
 10
37.823764
 20
109.464607
 30
0.0
 10
37.795854
 20
109.343650
 30
0.0
 10
37.773874
 20
109.220531
 30
0.0
 10
37.757979
 20
109.095411
 30
0.0
 10
37.748327
 20
108.968444
 30
0.0
  0
LWPOLYLINE
  5
101
100
AcDbEntity
  8
Edge.Cuts
 62
1
100
AcDbPolyline
 90
128
 70
1
 10
27.114912
 20
108.839789
 30
0.0
 10
27.118164
 20
108.711134
 30
0.0
 10
27.127816
 20
108.584168
 30
0.0
 10
27.143711
 20
108.459047
 30
0.0
 10
27.165691
 20
108.335928
 30
0.0
 10
27.193601
 20
108.214971
 30
0.0
 10
27.227282
 20
108.096332
 30
0.0
 10
27.266578
 20
107.980166
 30
0.0
 10
27.311332
 20
107.866632
 30
0.0
 10
27.361386
 20
107.755885
 30
0.0
 10
27.416586
 20
107.648083
 30
0.0
 10
27.476773
 20
107.543386
 30
0.0
 10
27.541786
 20
107.441948
 30
0.0
 10
27.611478
 20
107.343926
 30
0.0
 10
27.685681
 20
107.249480
 30
0.0
 10
27.764248
 20
107.158764
 30
0.0
 10
27.847013
 20
107.071935
 30
0.0
 10
27.933824
 20
106.989152
 30
0.0
 10
28.024523
 20
106.910571
 30
0.0
 10
28.118955
 20
106.836350
 30
0.0
 10
28.216963
 20
106.766645
 30
0.0
 10
28.318383
 20
106.701614
 30
0.0
 10
28.423070
 20
106.641412
 30
0.0
 10
28.530854
 20
106.586199
 30
0.0
 10
28.641587
 20
106.536133
 30
0.0
 10
28.755111
 20
106.491366
 30
0.0
 10
28.871266
 20
106.452059
 30
0.0
 10
28.989898
 20
106.418369
 30
0.0
 10
29.110848
 20
106.390450
 30
0.0
 10
29.233956
 20
106.368465
 30
0.0
 10
29.359072
 20
106.352566
 30
0.0
 10
29.486037
 20
106.342910
 30
0.0
 10
29.614691
 20
106.339657
 30
0.0
 10
29.743349
 20
106.342910
 30
0.0
 10
29.870317
 20
106.352566
 30
0.0
 10
29.995443
 20
106.368465
 30
0.0
 10
30.118566
 20
106.390450
 30
0.0
 10
30.239530
 20
106.418369
 30
0.0
 10
30.358179
 20
106.452059
 30
0.0
 10
30.474356
 20
106.491366
 30
0.0
 10
30.587904
 20
106.536133
 30
0.0
 10
30.698669
 20
106.586199
 30
0.0
 10
30.806478
 20
106.641412
 30
0.0
 10
30.911182
 20
106.701614
 30
0.0
 10
31.012641
 20
106.766645
 30
0.0
 10
31.110678
 20
106.836350
 30
0.0
 10
31.205152
 20
106.910571
 30
0.0
 10
31.295886
 20
106.989152
 30
0.0
 10
31.382704
 20
107.071935
 30
0.0
 10
31.465536
 20
107.158764
 30
0.0
 10
31.544135
 20
107.249480
 30
0.0
 10
31.618359
 20
107.343926
 30
0.0
 10
31.688068
 20
107.441948
 30
0.0
 10
31.753120
 20
107.543386
 30
0.0
 10
31.813339
 20
107.648083
 30
0.0
 10
31.868549
 20
107.755885
 30
0.0
 10
31.918643
 20
107.866632
 30
0.0
 10
31.963411
 20
107.980166
 30
0.0
 10
32.002745
 20
108.096332
 30
0.0
 10
32.036436
 20
108.214971
 30
0.0
 10
32.064376
 20
108.335928
 30
0.0
 10
32.086354
 20
108.459047
 30
0.0
 10
32.102264
 20
108.584168
 30
0.0
 10
32.111930
 20
108.711134
 30
0.0
 10
32.115176
 20
108.839789
 30
0.0
 10
32.111930
 20
108.968444
 30
0.0
 10
32.102264
 20
109.095411
 30
0.0
 10
32.086354
 20
109.220531
 30
0.0
 10
32.064376
 20
109.343650
 30
0.0
 10
32.036436
 20
109.464607
 30
0.0
 10
32.002745
 20
109.583246
 30
0.0
 10
31.963411
 20
109.699412
 30
0.0
 10
31.918643
 20
109.812946
 30
0.0
 10
31.868549
 20
109.923693
 30
0.0
 10
31.813339
 20
110.031495
 30
0.0
 10
31.753120
 20
110.136192
 30
0.0
 10
31.688068
 20
110.237630
 30
0.0
 10
31.618359
 20
110.335653
 30
0.0
 10
31.544135
 20
110.430098
 30
0.0
 10
31.465536
 20
110.520815
 30
0.0
 10
31.382704
 20
110.607644
 30
0.0
 10
31.295886
 20
110.690426
 30
0.0
 10
31.205152
 20
110.769008
 30
0.0
 10
31.110678
 20
110.843228
 30
0.0
 10
31.012641
 20
110.912934
 30
0.0
 10
30.911182
 20
110.977964
 30
0.0
 10
30.806478
 20
111.038166
 30
0.0
 10
30.698669
 20
111.093379
 30
0.0
 10
30.587904
 20
111.143445
 30
0.0
 10
30.474356
 20
111.188213
 30
0.0
 10
30.358179
 20
111.227519
 30
0.0
 10
30.239530
 20
111.261209
 30
0.0
 10
30.118566
 20
111.289128
 30
0.0
 10
29.995443
 20
111.311113
 30
0.0
 10
29.870317
 20
111.327013
 30
0.0
 10
29.743349
 20
111.336668
 30
0.0
 10
29.614691
 20
111.339921
 30
0.0
 10
29.486037
 20
111.336668
 30
0.0
 10
29.359072
 20
111.327013
 30
0.0
 10
29.233956
 20
111.311113
 30
0.0
 10
29.110848
 20
111.289128
 30
0.0
 10
28.989898
 20
111.261209
 30
0.0
 10
28.871266
 20
111.227519
 30
0.0
 10
28.755111
 20
111.188213
 30
0.0
 10
28.641587
 20
111.143445
 30
0.0
 10
28.530854
 20
111.093379
 30
0.0
 10
28.423070
 20
111.038166
 30
0.0
 10
28.318383
 20
110.977964
 30
0.0
 10
28.216963
 20
110.912934
 30
0.0
 10
28.118955
 20
110.843228
 30
0.0
 10
28.024523
 20
110.769008
 30
0.0
 10
27.933824
 20
110.690426
 30
0.0
 10
27.847013
 20
110.607644
 30
0.0
 10
27.764248
 20
110.520815
 30
0.0
 10
27.685681
 20
110.430098
 30
0.0
 10
27.611478
 20
110.335653
 30
0.0
 10
27.541786
 20
110.237630
 30
0.0
 10
27.476773
 20
110.136192
 30
0.0
 10
27.416586
 20
110.031495
 30
0.0
 10
27.361386
 20
109.923693
 30
0.0
 10
27.311332
 20
109.812946
 30
0.0
 10
27.266578
 20
109.699412
 30
0.0
 10
27.227282
 20
109.583246
 30
0.0
 10
27.193601
 20
109.464607
 30
0.0
 10
27.165691
 20
109.343650
 30
0.0
 10
27.143711
 20
109.220531
 30
0.0
 10
27.127816
 20
109.095411
 30
0.0
 10
27.118164
 20
108.968444
 30
0.0
  0
LWPOLYLINE
  5
102
100
AcDbEntity
  8
Edge.Cuts
 62
1
100
AcDbPolyline
 90
128
 70
1
 10
5.234649
 20
108.839789
 30
0.0
 10
5.239722
 20
108.639146
 30
0.0
 10
5.254778
 20
108.441133
 30
0.0
 10
5.279573
 20
108.245998
 30
0.0
 10
5.313861
 20
108.053982
 30
0.0
 10
5.357398
 20
107.865330
 30
0.0
 10
5.409940
 20
107.680292
 30
0.0
 10
5.471241
 20
107.499112
 30
0.0
 10
5.541058
 20
107.322032
 30
0.0
 10
5.619144
 20
107.149299
 30
0.0
 10
5.705257
 20
106.981158
 30
0.0
 10
5.799149
 20
106.817854
 30
0.0
 10
5.900579
 20
106.659633
 30
0.0
 10
6.009301
 20
106.506743
 30
0.0
 10
6.125069
 20
106.359424
 30
0.0
 10
6.247638
 20
106.217921
 30
0.0
 10
6.376765
 20
106.082483
 30
0.0
 10
6.512206
 20
105.953352
 30
0.0
 10
6.653712
 20
105.830776
 30
0.0
 10
6.801046
 20
105.715002
 30
0.0
 10
6.953954
 20
105.606269
 30
0.0
 10
7.112199
 20
105.504828
 30
0.0
 10
7.275532
 20
105.410919
 30
0.0
 10
7.443711
 20
105.324792
 30
0.0
 10
7.616491
 20
105.246683
 30
0.0
 10
7.793624
 20
105.176869
 30
0.0
 10
7.974866
 20
105.115521
 30
0.0
 10
8.159979
 20
105.062992
 30
0.0
 10
8.348708
 20
105.019424
 30
0.0
 10
8.540816
 20
104.985134
 30
0.0
 10
8.736057
 20
104.960334
 30
0.0
 10
8.934187
 20
104.945270
 30
0.0
 10
9.134953
 20
104.940190
 30
0.0
 10
9.335613
 20
104.945270
 30
0.0
 10
9.533591
 20
104.960334
 30
0.0
 10
9.728747
 20
104.985134
 30
0.0
 10
9.920764
 20
105.019424
 30
0.0
 10
10.109394
 20
105.062992
 30
0.0
 10
10.294461
 20
105.115521
 30
0.0
 10
10.475647
 20
105.176869
 30
0.0
 10
10.652706
 20
105.246683
 30
0.0
 10
10.825426
 20
105.324792
 30
0.0
 10
10.993595
 20
105.410919
 30
0.0
 10
11.156895
 20
105.504828
 30
0.0
 10
11.315116
 20
105.606269
 30
0.0
 10
11.468009
 20
105.715002
 30
0.0
 10
11.615329
 20
105.830776
 30
0.0
 10
11.756828
 20
105.953352
 30
0.0
 10
11.892259
 20
106.082483
 30
0.0
 10
12.021376
 20
106.217921
 30
0.0
 10
12.143966
 20
106.359424
 30
0.0
 10
12.259747
 20
106.506743
 30
0.0
 10
12.368473
 20
106.659633
 30
0.0
 10
12.469932
 20
106.817854
 30
0.0
 10
12.563806
 20
106.981158
 30
0.0
 10
12.649954
 20
107.149299
 30
0.0
 10
12.728059
 20
107.322032
 30
0.0
 10
12.797874
 20
107.499112
 30
0.0
 10
12.859221
 20
107.680292
 30
0.0
 10
12.911750
 20
107.865330
 30
0.0
 10
12.955318
 20
108.053982
 30
0.0
 10
12.989608
 20
108.245998
 30
0.0
 10
13.014408
 20
108.441133
 30
0.0
 10
13.029472
 20
108.639146
 30
0.0
 10
13.034552
 20
108.839789
 30
0.0
 10
13.029472
 20
109.040496
 30
0.0
 10
13.014408
 20
109.238568
 30
0.0
 10
12.989608
 20
109.433764
 30
0.0
 10
12.955318
 20
109.625830
 30
0.0
 10
12.911750
 20
109.814530
 30
0.0
 10
12.859221
 20
109.999611
 30
0.0
 10
12.797874
 20
110.180836
 30
0.0
 10
12.728059
 20
110.357955
 30
0.0
 10
12.649954
 20
110.530724
 30
0.0
 10
12.563806
 20
110.698897
 30
0.0
 10
12.469932
 20
110.862229
 30
0.0
 10
12.368473
 20
111.020478
 30
0.0
 10
12.259747
 20
111.173396
 30
0.0
 10
12.143966
 20
111.320737
 30
0.0
 10
12.021376
 20
111.462257
 30
0.0
 10
11.892259
 20
111.597713
 30
0.0
 10
11.756828
 20
111.726857
 30
0.0
 10
11.615329
 20
111.849448
 30
0.0
 10
11.468009
 20
111.965236
 30
0.0
 10
11.315116
 20
112.073976
 30
0.0
 10
11.156895
 20
112.175428
 30
0.0
 10
10.993595
 20
112.269344
 30
0.0
 10
10.825426
 20
112.355478
 30
0.0
 10
10.652706
 20
112.433601
 30
0.0
 10
10.475647
 20
112.503415
 30
0.0
 10
10.294461
 20
112.564728
 30
0.0
 10
10.109394
 20
112.617292
 30
0.0
 10
9.920764
 20
112.660860
 30
0.0
 10
9.728747
 20
112.695150
 30
0.0
 10
9.533591
 20
112.719950
 30
0.0
 10
9.335613
 20
112.735013
 30
0.0
 10
9.134953
 20
112.740093
 30
0.0
 10
8.934187
 20
112.735013
 30
0.0
 10
8.736057
 20
112.719950
 30
0.0
 10
8.540816
 20
112.695150
 30
0.0
 10
8.348708
 20
112.660860
 30
0.0
 10
8.159979
 20
112.617292
 30
0.0
 10
7.974866
 20
112.564728
 30
0.0
 10
7.793624
 20
112.503415
 30
0.0
 10
7.616491
 20
112.433601
 30
0.0
 10
7.443711
 20
112.355478
 30
0.0
 10
7.275532
 20
112.269344
 30
0.0
 10
7.112199
 20
112.175428
 30
0.0
 10
6.953954
 20
112.073976
 30
0.0
 10
6.801046
 20
111.965236
 30
0.0
 10
6.653712
 20
111.849448
 30
0.0
 10
6.512206
 20
111.726857
 30
0.0
 10
6.376765
 20
111.597713
 30
0.0
 10
6.247638
 20
111.462257
 30
0.0
 10
6.125069
 20
111.320737
 30
0.0
 10
6.009301
 20
111.173396
 30
0.0
 10
5.900579
 20
111.020478
 30
0.0
 10
5.799149
 20
110.862229
 30
0.0
 10
5.705257
 20
110.698897
 30
0.0
 10
5.619144
 20
110.530724
 30
0.0
 10
5.541058
 20
110.357955
 30
0.0
 10
5.471241
 20
110.180836
 30
0.0
 10
5.409940
 20
109.999611
 30
0.0
 10
5.357398
 20
109.814530
 30
0.0
 10
5.313861
 20
109.625830
 30
0.0
 10
5.279573
 20
109.433764
 30
0.0
 10
5.254778
 20
109.238568
 30
0.0
 10
5.239722
 20
109.040496
 30
0.0
  0
LWPOLYLINE
  5
103
100
AcDbEntity
  8
Edge.Cuts
 62
1
100
AcDbPolyline
 90
64
 70
1
 10
5.899351
 20
125.499550
 30
0.0
 10
5.907605
 20
125.335952
 30
0.0
 10
5.931834
 20
125.177086
 30
0.0
 10
5.971235
 20
125.023755
 30
0.0
 10
6.025006
 20
124.876760
 30
0.0
 10
6.092345
 20
124.736909
 30
0.0
 10
6.172450
 20
124.605002
 30
0.0
 10
6.264518
 20
124.481844
 30
0.0
 10
6.367751
 20
124.368236
 30
0.0
 10
6.481342
 20
124.264988
 30
0.0
 10
6.604493
 20
124.172896
 30
0.0
 10
6.736396
 20
124.092769
 30
0.0
 10
6.876258
 20
124.025410
 30
0.0
 10
7.023267
 20
123.971619
 30
0.0
 10
7.176630
 20
123.932203
 30
0.0
 10
7.335539
 20
123.907964
 30
0.0
 10
7.499195
 20
123.899705
 30
0.0
 10
7.662852
 20
123.907964
 30
0.0
 10
7.821761
 20
123.932203
 30
0.0
 10
7.975124
 20
123.971619
 30
0.0
 10
8.122133
 20
124.025410
 30
0.0
 10
8.261995
 20
124.092769
 30
0.0
 10
8.393898
 20
124.172896
 30
0.0
 10
8.517049
 20
124.264988
 30
0.0
 10
8.630640
 20
124.368236
 30
0.0
 10
8.733870
 20
124.481844
 30
0.0
 10
8.825941
 20
124.605002
 30
0.0
 10
8.906046
 20
124.736909
 30
0.0
 10
8.973384
 20
124.876760
 30
0.0
 10
9.027154
 20
125.023755
 30
0.0
 10
9.066556
 20
125.177086
 30
0.0
 10
9.090785
 20
125.335952
 30
0.0
 10
9.099040
 20
125.499550
 30
0.0
 10
9.090785
 20
125.663205
 30
0.0
 10
9.066556
 20
125.822115
 30
0.0
 10
9.027154
 20
125.975478
 30
0.0
 10
8.973384
 20
126.122487
 30
0.0
 10
8.906046
 20
126.262349
 30
0.0
 10
8.825941
 20
126.394252
 30
0.0
 10
8.733870
 20
126.517403
 30
0.0
 10
8.630640
 20
126.630994
 30
0.0
 10
8.517049
 20
126.734227
 30
0.0
 10
8.393898
 20
126.826295
 30
0.0
 10
8.261995
 20
126.906400
 30
0.0
 10
8.122133
 20
126.973738
 30
0.0
 10
7.975124
 20
127.027509
 30
0.0
 10
7.821761
 20
127.066910
 30
0.0
 10
7.662852
 20
127.091139
 30
0.0
 10
7.499195
 20
127.099394
 30
0.0
 10
7.335539
 20
127.091139
 30
0.0
 10
7.176630
 20
127.066910
 30
0.0
 10
7.023267
 20
127.027509
 30
0.0
 10
6.876258
 20
126.973738
 30
0.0
 10
6.736396
 20
126.906400
 30
0.0
 10
6.604493
 20
126.826295
 30
0.0
 10
6.481342
 20
126.734227
 30
0.0
 10
6.367751
 20
126.630994
 30
0.0
 10
6.264518
 20
126.517403
 30
0.0
 10
6.172450
 20
126.394252
 30
0.0
 10
6.092345
 20
126.262349
 30
0.0
 10
6.025006
 20
126.122487
 30
0.0
 10
5.971235
 20
125.975478
 30
0.0
 10
5.931834
 20
125.822115
 30
0.0
 10
5.907605
 20
125.663205
 30
0.0
  0
LWPOLYLINE
  5
104
100
AcDbEntity
  8
Edge.Cuts
 62
1
100
AcDbPolyline
 90
128
 70
1
 10
48.384199
 20
108.839789
 30
0.0
 10
48.387455
 20
108.711134
 30
0.0
 10
48.397119
 20
108.584168
 30
0.0
 10
48.413032
 20
108.459047
 30
0.0
 10
48.435038
 20
108.335928
 30
0.0
 10
48.462978
 20
108.214971
 30
0.0
 10
48.496695
 20
108.096332
 30
0.0
 10
48.536031
 20
107.980166
 30
0.0
 10
48.580828
 20
107.866632
 30
0.0
 10
48.630930
 20
107.755885
 30
0.0
 10
48.686179
 20
107.648083
 30
0.0
 10
48.746417
 20
107.543386
 30
0.0
 10
48.811483
 20
107.441948
 30
0.0
 10
48.881227
 20
107.343926
 30
0.0
 10
48.955483
 20
107.249480
 30
0.0
 10
49.034099
 20
107.158764
 30
0.0
 10
49.116917
 20
107.071935
 30
0.0
 10
49.203778
 20
106.989152
 30
0.0
 10
49.294523
 20
106.910571
 30
0.0
 10
49.388997
 20
106.836350
 30
0.0
 10
49.487041
 20
106.766645
 30
0.0
 10
49.588499
 20
106.701614
 30
0.0
 10
49.693211
 20
106.641412
 30
0.0
 10
49.801019
 20
106.586199
 30
0.0
 10
49.911767
 20
106.536133
 30
0.0
 10
50.025301
 20
106.491366
 30
0.0
 10
50.141456
 20
106.452059
 30
0.0
 10
50.260078
 20
106.418369
 30
0.0
 10
50.381013
 20
106.390450
 30
0.0
 10
50.504097
 20
106.368465
 30
0.0
 10
50.629174
 20
106.352566
 30
0.0
 10
50.756089
 20
106.342910
 30
0.0
 10
50.884684
 20
106.339657
 30
0.0
 10
51.013338
 20
106.342910
 30
0.0
 10
51.140303
 20
106.352566
 30
0.0
 10
51.265418
 20
106.368465
 30
0.0
 10
51.388527
 20
106.390450
 30
0.0
 10
51.509477
 20
106.418369
 30
0.0
 10
51.628109
 20
106.452059
 30
0.0
 10
51.744264
 20
106.491366
 30
0.0
 10
51.857788
 20
106.536133
 30
0.0
 10
51.968521
 20
106.586199
 30
0.0
 10
52.076294
 20
106.641412
 30
0.0
 10
52.180999
 20
106.701614
 30
0.0
 10
52.282422
 20
106.766645
 30
0.0
 10
52.380424
 20
106.836350
 30
0.0
 10
52.474862
 20
106.910571
 30
0.0
 10
52.565561
 20
106.989152
 30
0.0
 10
52.652380
 20
107.071935
 30
0.0
 10
52.735141
 20
107.158764
 30
0.0
 10
52.813705
 20
107.249480
 30
0.0
 10
52.887894
 20
107.343926
 30
0.0
 10
52.957602
 20
107.441948
 30
0.0
 10
53.022619
 20
107.543386
 30
0.0
 10
53.082803
 20
107.648083
 30
0.0
 10
53.137977
 20
107.755885
 30
0.0
 10
53.188036
 20
107.866632
 30
0.0
 10
53.232804
 20
107.980166
 30
0.0
 10
53.272103
 20
108.096332
 30
0.0
 10
53.305758
 20
108.214971
 30
0.0
 10
53.333698
 20
108.335928
 30
0.0
 10
53.355676
 20
108.459047
 30
0.0
 10
53.371551
 20
108.584168
 30
0.0
 10
53.381217
 20
108.711134
 30
0.0
 10
53.384463
 20
108.839789
 30
0.0
 10
53.381217
 20
108.968444
 30
0.0
 10
53.371551
 20
109.095411
 30
0.0
 10
53.355676
 20
109.220531
 30
0.0
 10
53.333698
 20
109.343650
 30
0.0
 10
53.305758
 20
109.464607
 30
0.0
 10
53.272103
 20
109.583246
 30
0.0
 10
53.232804
 20
109.699412
 30
0.0
 10
53.188036
 20
109.812946
 30
0.0
 10
53.137977
 20
109.923693
 30
0.0
 10
53.082803
 20
110.031495
 30
0.0
 10
53.022619
 20
110.136192
 30
0.0
 10
52.957602
 20
110.237630
 30
0.0
 10
52.887894
 20
110.335653
 30
0.0
 10
52.813705
 20
110.430098
 30
0.0
 10
52.735141
 20
110.520815
 30
0.0
 10
52.652344
 20
110.607644
 30
0.0
 10
52.565561
 20
110.690426
 30
0.0
 10
52.474862
 20
110.769008
 30
0.0
 10
52.380424
 20
110.843228
 30
0.0
 10
52.282422
 20
110.912934
 30
0.0
 10
52.180999
 20
110.977964
 30
0.0
 10
52.076294
 20
111.038166
 30
0.0
 10
51.968521
 20
111.093379
 30
0.0
 10
51.857788
 20
111.143445
 30
0.0
 10
51.744264
 20
111.188213
 30
0.0
 10
51.628109
 20
111.227519
 30
0.0
 10
51.509477
 20
111.261209
 30
0.0
 10
51.388527
 20
111.289128
 30
0.0
 10
51.265418
 20
111.311113
 30
0.0
 10
51.140303
 20
111.327013
 30
0.0
 10
51.013338
 20
111.336668
 30
0.0
 10
50.884684
 20
111.339921
 30
0.0
 10
50.756089
 20
111.336668
 30
0.0
 10
50.629174
 20
111.327013
 30
0.0
 10
50.504097
 20
111.311113
 30
0.0
 10
50.381013
 20
111.289128
 30
0.0
 10
50.260078
 20
111.261209
 30
0.0
 10
50.141456
 20
111.227519
 30
0.0
 10
50.025301
 20
111.188213
 30
0.0
 10
49.911767
 20
111.143445
 30
0.0
 10
49.801019
 20
111.093379
 30
0.0
 10
49.693211
 20
111.038166
 30
0.0
 10
49.588499
 20
110.977964
 30
0.0
 10
49.487041
 20
110.912934
 30
0.0
 10
49.388997
 20
110.843228
 30
0.0
 10
49.294523
 20
110.769008
 30
0.0
 10
49.203778
 20
110.690426
 30
0.0
 10
49.116917
 20
110.607644
 30
0.0
 10
49.034099
 20
110.520815
 30
0.0
 10
48.955483
 20
110.430098
 30
0.0
 10
48.881227
 20
110.335653
 30
0.0
 10
48.811483
 20
110.237630
 30
0.0
 10
48.746417
 20
110.136192
 30
0.0
 10
48.686179
 20
110.031495
 30
0.0
 10
48.630930
 20
109.923693
 30
0.0
 10
48.580828
 20
109.812946
 30
0.0
 10
48.536031
 20
109.699412
 30
0.0
 10
48.496695
 20
109.583246
 30
0.0
 10
48.462978
 20
109.464607
 30
0.0
 10
48.435038
 20
109.343650
 30
0.0
 10
48.413032
 20
109.220531
 30
0.0
 10
48.397119
 20
109.095411
 30
0.0
 10
48.387455
 20
108.968444
 30
0.0
  0
LWPOLYLINE
  5
105
100
AcDbEntity
  8
Edge.Cuts
 62
1
100
AcDbPolyline
 90
128
 70
1
 10
59.014363
 20
108.839789
 30
0.0
 10
59.017617
 20
108.711134
 30
0.0
 10
59.027275
 20
108.584168
 30
0.0
 10
59.043179
 20
108.459047
 30
0.0
 10
59.065172
 20
108.335928
 30
0.0
 10
59.093098
 20
108.214971
 30
0.0
 10
59.126798
 20
108.096332
 30
0.0
 10
59.166115
 20
107.980166
 30
0.0
 10
59.210893
 20
107.866632
 30
0.0
 10
59.260974
 20
107.755885
 30
0.0
 10
59.316200
 20
107.648083
 30
0.0
 10
59.376415
 20
107.543386
 30
0.0
 10
59.441463
 20
107.441948
 30
0.0
 10
59.511182
 20
107.343926
 30
0.0
 10
59.585421
 20
107.249480
 30
0.0
 10
59.664016
 20
107.158764
 30
0.0
 10
59.746816
 20
107.071935
 30
0.0
 10
59.833660
 20
106.989152
 30
0.0
 10
59.924394
 20
106.910571
 30
0.0
 10
60.018857
 20
106.836350
 30
0.0
 10
60.116894
 20
106.766645
 30
0.0
 10
60.218349
 20
106.701614
 30
0.0
 10
60.323060
 20
106.641412
 30
0.0
 10
60.430876
 20
106.586199
 30
0.0
 10
60.541634
 20
106.536133
 30
0.0
 10
60.655182
 20
106.491366
 30
0.0
 10
60.771359
 20
106.452059
 30
0.0
 10
60.890009
 20
106.418369
 30
0.0
 10
61.010972
 20
106.390450
 30
0.0
 10
61.134095
 20
106.368465
 30
0.0
 10
61.259222
 20
106.352566
 30
0.0
 10
61.386190
 20
106.342910
 30
0.0
 10
61.514847
 20
106.339657
 30
0.0
 10
61.643505
 20
106.342910
 30
0.0
 10
61.770473
 20
106.352566
 30
0.0
 10
61.895600
 20
106.368465
 30
0.0
 10
62.018723
 20
106.390450
 30
0.0
 10
62.139686
 20
106.418369
 30
0.0
 10
62.258336
 20
106.452059
 30
0.0
 10
62.374512
 20
106.491366
 30
0.0
 10
62.488061
 20
106.536133
 30
0.0
 10
62.598826
 20
106.586199
 30
0.0
 10
62.706634
 20
106.641412
 30
0.0
 10
62.811339
 20
106.701614
 30
0.0
 10
62.912797
 20
106.766645
 30
0.0
 10
63.010834
 20
106.836350
 30
0.0
 10
63.105308
 20
106.910571
 30
0.0
 10
63.196042
 20
106.989152
 30
0.0
 10
63.282896
 20
107.071935
 30
0.0
 10
63.365693
 20
107.158764
 30
0.0
 10
63.444292
 20
107.249480
 30
0.0
 10
63.518516
 20
107.343926
 30
0.0
 10
63.588225
 20
107.441948
 30
0.0
 10
63.653277
 20
107.543386
 30
0.0
 10
63.713496
 20
107.648083
 30
0.0
 10
63.768705
 20
107.755885
 30
0.0
 10
63.818800
 20
107.866632
 30
0.0
 10
63.863567
 20
107.980166
 30
0.0
 10
63.902902
 20
108.096332
 30
0.0
 10
63.936592
 20
108.214971
 30
0.0
 10
63.964532
 20
108.335928
 30
0.0
 10
63.986510
 20
108.459047
 30
0.0
 10
64.002420
 20
108.584168
 30
0.0
 10
64.012086
 20
108.711134
 30
0.0
 10
64.015332
 20
108.839789
 30
0.0
 10
64.012086
 20
108.968444
 30
0.0
 10
64.002420
 20
109.095411
 30
0.0
 10
63.986510
 20
109.220531
 30
0.0
 10
63.964532
 20
109.343650
 30
0.0
 10
63.936592
 20
109.464607
 30
0.0
 10
63.902902
 20
109.583246
 30
0.0
 10
63.863567
 20
109.699412
 30
0.0
 10
63.818800
 20
109.812946
 30
0.0
 10
63.768705
 20
109.923693
 30
0.0
 10
63.713496
 20
110.031495
 30
0.0
 10
63.653277
 20
110.136192
 30
0.0
 10
63.588225
 20
110.237630
 30
0.0
 10
63.518516
 20
110.335653
 30
0.0
 10
63.444292
 20
110.430098
 30
0.0
 10
63.365693
 20
110.520815
 30
0.0
 10
63.282896
 20
110.607644
 30
0.0
 10
63.196042
 20
110.690426
 30
0.0
 10
63.105308
 20
110.769008
 30
0.0
 10
63.010834
 20
110.843228
 30
0.0
 10
62.912797
 20
110.912934
 30
0.0
 10
62.811339
 20
110.977964
 30
0.0
 10
62.706634
 20
111.038166
 30
0.0
 10
62.598826
 20
111.093379
 30
0.0
 10
62.488061
 20
111.143445
 30
0.0
 10
62.374512
 20
111.188213
 30
0.0
 10
62.258336
 20
111.227519
 30
0.0
 10
62.139686
 20
111.261209
 30
0.0
 10
62.018723
 20
111.289128
 30
0.0
 10
61.895600
 20
111.311113
 30
0.0
 10
61.770473
 20
111.327013
 30
0.0
 10
61.643505
 20
111.336668
 30
0.0
 10
61.514847
 20
111.339921
 30
0.0
 10
61.386190
 20
111.336668
 30
0.0
 10
61.259222
 20
111.327013
 30
0.0
 10
61.134095
 20
111.311113
 30
0.0
 10
61.010972
 20
111.289128
 30
0.0
 10
60.890009
 20
111.261209
 30
0.0
 10
60.771359
 20
111.227519
 30
0.0
 10
60.655182
 20
111.188213
 30
0.0
 10
60.541634
 20
111.143445
 30
0.0
 10
60.430876
 20
111.093379
 30
0.0
 10
60.323060
 20
111.038166
 30
0.0
 10
60.218349
 20
110.977964
 30
0.0
 10
60.116894
 20
110.912934
 30
0.0
 10
60.018857
 20
110.843228
 30
0.0
 10
59.924394
 20
110.769008
 30
0.0
 10
59.833660
 20
110.690426
 30
0.0
 10
59.746816
 20
110.607644
 30
0.0
 10
59.664016
 20
110.520815
 30
0.0
 10
59.585421
 20
110.430098
 30
0.0
 10
59.511182
 20
110.335653
 30
0.0
 10
59.441463
 20
110.237630
 30
0.0
 10
59.376415
 20
110.136192
 30
0.0
 10
59.316200
 20
110.031495
 30
0.0
 10
59.260974
 20
109.923693
 30
0.0
 10
59.210893
 20
109.812946
 30
0.0
 10
59.166115
 20
109.699412
 30
0.0
 10
59.126798
 20
109.583246
 30
0.0
 10
59.093098
 20
109.464607
 30
0.0
 10
59.065172
 20
109.343650
 30
0.0
 10
59.043179
 20
109.220531
 30
0.0
 10
59.027275
 20
109.095411
 30
0.0
 10
59.017617
 20
108.968444
 30
0.0
  0
LWPOLYLINE
  5
106
100
AcDbEntity
  8
Edge.Cuts
 62
1
100
AcDbPolyline
 90
128
 70
1
 10
71.304378
 20
108.839789
 30
0.0
 10
71.307763
 20
108.706007
 30
0.0
 10
71.317807
 20
108.573981
 30
0.0
 10
71.334347
 20
108.443874
 30
0.0
 10
71.357221
 20
108.315855
 30
0.0
 10
71.386263
 20
108.190079
 30
0.0
 10
71.421311
 20
108.066717
 30
0.0
 10
71.462200
 20
107.945926
 30
0.0
 10
71.508769
 20
107.827869
 30
0.0
 10
71.560852
 20
107.712716
 30
0.0
 10
71.618286
 20
107.600624
 30
0.0
 10
71.680908
 20
107.491761
 30
0.0
 10
71.748557
 20
107.386287
 30
0.0
 10
71.821063
 20
107.284366
 30
0.0
 10
71.898268
 20
107.186160
 30
0.0
 10
71.980003
 20
107.091838
 30
0.0
 10
72.066112
 20
107.001556
 30
0.0
 10
72.156427
 20
106.915481
 30
0.0
 10
72.250784
 20
106.833775
 30
0.0
 10
72.349022
 20
106.756605
 30
0.0
 10
72.450975
 20
106.684127
 30
0.0
 10
72.556476
 20
106.616513
 30
0.0
 10
72.665372
 20
106.553920
 30
0.0
 10
72.777491
 20
106.496513
 30
0.0
 10
72.892669
 20
106.444453
 30
0.0
 10
73.010747
 20
106.397912
 30
0.0
 10
73.131559
 20
106.357042
 30
0.0
 10
73.254943
 20
106.322011
 30
0.0
 10
73.380733
 20
106.292985
 30
0.0
 10
73.508770
 20
106.270125
 30
0.0
 10
73.638881
 20
106.253594
 30
0.0
 10
73.770915
 20
106.243557
 30
0.0
 10
73.904699
 20
106.240174
 30
0.0
 10
74.038483
 20
106.243557
 30
0.0
 10
74.170516
 20
106.253594
 30
0.0
 10
74.300628
 20
106.270125
 30
0.0
 10
74.428665
 20
106.292985
 30
0.0
 10
74.554454
 20
106.322011
 30
0.0
 10
74.677838
 20
106.357042
 30
0.0
 10
74.798650
 20
106.397912
 30
0.0
 10
74.916746
 20
106.444453
 30
0.0
 10
75.031892
 20
106.496513
 30
0.0
 10
75.144040
 20
106.553920
 30
0.0
 10
75.252907
 20
106.616513
 30
0.0
 10
75.358423
 20
106.684127
 30
0.0
 10
75.460376
 20
106.756605
 30
0.0
 10
75.558624
 20
106.833775
 30
0.0
 10
75.652957
 20
106.915481
 30
0.0
 10
75.743303
 20
107.001556
 30
0.0
 10
75.829380
 20
107.091838
 30
0.0
 10
75.911119
 20
107.186160
 30
0.0
 10
75.988342
 20
107.284366
 30
0.0
 10
76.060838
 20
107.386287
 30
0.0
 10
76.128500
 20
107.491761
 30
0.0
 10
76.191118
 20
107.600624
 30
0.0
 10
76.248550
 20
107.712716
 30
0.0
 10
76.300620
 20
107.827869
 30
0.0
 10
76.347187
 20
107.945926
 30
0.0
 10
76.388074
 20
108.066717
 30
0.0
 10
76.423140
 20
108.190079
 30
0.0
 10
76.452173
 20
108.315855
 30
0.0
 10
76.475033
 20
108.443874
 30
0.0
 10
76.491579
 20
108.573981
 30
0.0
 10
76.501633
 20
108.706007
 30
0.0
 10
76.505019
 20
108.839789
 30
0.0
 10
76.501633
 20
108.973574
 30
0.0
 10
76.491579
 20
109.105605
 30
0.0
 10
76.475033
 20
109.235718
 30
0.0
 10
76.452173
 20
109.363755
 30
0.0
 10
76.423140
 20
109.489545
 30
0.0
 10
76.388074
 20
109.612929
 30
0.0
 10
76.347187
 20
109.733741
 30
0.0
 10
76.300620
 20
109.851819
 30
0.0
 10
76.248550
 20
109.966997
 30
0.0
 10
76.191118
 20
110.079116
 30
0.0
 10
76.128500
 20
110.188012
 30
0.0
 10
76.060838
 20
110.293513
 30
0.0
 10
75.988342
 20
110.395466
 30
0.0
 10
75.911119
 20
110.493704
 30
0.0
 10
75.829380
 20
110.588061
 30
0.0
 10
75.743303
 20
110.678376
 30
0.0
 10
75.652957
 20
110.764485
 30
0.0
 10
75.558624
 20
110.846220
 30
0.0
 10
75.460376
 20
110.923425
 30
0.0
 10
75.358423
 20
110.995931
 30
0.0
 10
75.252907
 20
111.063580
 30
0.0
 10
75.144040
 20
111.126201
 30
0.0
 10
75.031892
 20
111.183637
 30
0.0
 10
74.916746
 20
111.235718
 30
0.0
 10
74.798650
 20
111.282288
 30
0.0
 10
74.677838
 20
111.323178
 30
0.0
 10
74.554454
 20
111.358227
 30
0.0
 10
74.428665
 20
111.387267
 30
0.0
 10
74.300628
 20
111.410141
 30
0.0
 10
74.170516
 20
111.426679
 30
0.0
 10
74.038483
 20
111.436726
 30
0.0
 10
73.904699
 20
111.440110
 30
0.0
 10
73.770915
 20
111.436726
 30
0.0
 10
73.638881
 20
111.426679
 30
0.0
 10
73.508770
 20
111.410141
 30
0.0
 10
73.380733
 20
111.387267
 30
0.0
 10
73.254943
 20
111.358227
 30
0.0
 10
73.131559
 20
111.323178
 30
0.0
 10
73.010747
 20
111.282288
 30
0.0
 10
72.892669
 20
111.235718
 30
0.0
 10
72.777491
 20
111.183637
 30
0.0
 10
72.665372
 20
111.126201
 30
0.0
 10
72.556476
 20
111.063580
 30
0.0
 10
72.450975
 20
110.995931
 30
0.0
 10
72.349022
 20
110.923425
 30
0.0
 10
72.250784
 20
110.846220
 30
0.0
 10
72.156427
 20
110.764485
 30
0.0
 10
72.066112
 20
110.678376
 30
0.0
 10
71.980003
 20
110.588061
 30
0.0
 10
71.898268
 20
110.493704
 30
0.0
 10
71.821063
 20
110.395466
 30
0.0
 10
71.748557
 20
110.293513
 30
0.0
 10
71.680908
 20
110.188012
 30
0.0
 10
71.618286
 20
110.079116
 30
0.0
 10
71.560852
 20
109.966997
 30
0.0
 10
71.508769
 20
109.851819
 30
0.0
 10
71.462200
 20
109.733741
 30
0.0
 10
71.421311
 20
109.612929
 30
0.0
 10
71.386263
 20
109.489545
 30
0.0
 10
71.357221
 20
109.363755
 30
0.0
 10
71.334347
 20
109.235718
 30
0.0
 10
71.317807
 20
109.105605
 30
0.0
 10
71.307763
 20
108.973574
 30
0.0
  0
LWPOLYLINE
  5
107
100
AcDbEntity
  8
Edge.Cuts
 62
1
100
AcDbPolyline
 90
128
 70
1
 10
80.825905
 20
108.839789
 30
0.0
 10
80.829285
 20
108.706007
 30
0.0
 10
80.839317
 20
108.573981
 30
0.0
 10
80.855838
 20
108.443874
 30
0.0
 10
80.878685
 20
108.315855
 30
0.0
 10
80.907694
 20
108.190079
 30
0.0
 10
80.942702
 20
108.066717
 30
0.0
 10
80.983546
 20
107.945926
 30
0.0
 10
81.030063
 20
107.827869
 30
0.0
 10
81.082090
 20
107.712716
 30
0.0
 10
81.139464
 20
107.600624
 30
0.0
 10
81.202021
 20
107.491761
 30
0.0
 10
81.269596
 20
107.386287
 30
0.0
 10
81.342032
 20
107.284366
 30
0.0
 10
81.419159
 20
107.186160
 30
0.0
 10
81.500820
 20
107.091838
 30
0.0
 10
81.586845
 20
107.001556
 30
0.0
 10
81.677075
 20
106.915481
 30
0.0
 10
81.771347
 20
106.833775
 30
0.0
 10
81.869497
 20
106.756605
 30
0.0
 10
81.971361
 20
106.684127
 30
0.0
 10
82.076778
 20
106.616513
 30
0.0
 10
82.185585
 20
106.553920
 30
0.0
 10
82.297613
 20
106.496513
 30
0.0
 10
82.412707
 20
106.444453
 30
0.0
 10
82.530700
 20
106.397912
 30
0.0
 10
82.651428
 20
106.357042
 30
0.0
 10
82.774727
 20
106.322011
 30
0.0
 10
82.900435
 20
106.292985
 30
0.0
 10
83.028395
 20
106.270125
 30
0.0
 10
83.158432
 20
106.253594
 30
0.0
 10
83.290392
 20
106.243557
 30
0.0
 10
83.424108
 20
106.240174
 30
0.0
 10
83.557987
 20
106.243557
 30
0.0
 10
83.690099
 20
106.253594
 30
0.0
 10
83.820284
 20
106.270125
 30
0.0
 10
83.948378
 20
106.292985
 30
0.0
 10
84.074217
 20
106.322011
 30
0.0
 10
84.197639
 20
106.357042
 30
0.0
 10
84.318483
 20
106.397912
 30
0.0
 10
84.436579
 20
106.444453
 30
0.0
 10
84.551796
 20
106.496513
 30
0.0
 10
84.663908
 20
106.553920
 30
0.0
 10
84.772811
 20
106.616513
 30
0.0
 10
84.878291
 20
106.684127
 30
0.0
 10
84.980244
 20
106.756605
 30
0.0
 10
85.078457
 20
106.833775
 30
0.0
 10
85.172789
 20
106.915481
 30
0.0
 10
85.263100
 20
107.001556
 30
0.0
 10
85.349178
 20
107.091838
 30
0.0
 10
85.430881
 20
107.186160
 30
0.0
 10
85.508069
 20
107.284366
 30
0.0
 10
85.580529
 20
107.386287
 30
0.0
 10
85.648157
 20
107.491761
 30
0.0
 10
85.710739
 20
107.600624
 30
0.0
 10
85.768136
 20
107.712716
 30
0.0
 10
85.820171
 20
107.827869
 30
0.0
 10
85.866737
 20
107.945926
 30
0.0
 10
85.907589
 20
108.066717
 30
0.0
 10
85.942620
 20
108.190079
 30
0.0
 10
85.971618
 20
108.315855
 30
0.0
 10
85.994478
 20
108.443874
 30
0.0
 10
86.011023
 20
108.573981
 30
0.0
 10
86.021042
 20
108.706007
 30
0.0
 10
86.024429
 20
108.839789
 30
0.0
 10
86.021042
 20
108.973574
 30
0.0
 10
86.011023
 20
109.105605
 30
0.0
 10
85.994478
 20
109.235718
 30
0.0
 10
85.971618
 20
109.363755
 30
0.0
 10
85.942620
 20
109.489545
 30
0.0
 10
85.907589
 20
109.612929
 30
0.0
 10
85.866737
 20
109.733741
 30
0.0
 10
85.820171
 20
109.851819
 30
0.0
 10
85.768136
 20
109.966997
 30
0.0
 10
85.710739
 20
110.079116
 30
0.0
 10
85.648157
 20
110.188012
 30
0.0
 10
85.580529
 20
110.293513
 30
0.0
 10
85.508069
 20
110.395466
 30
0.0
 10
85.430881
 20
110.493704
 30
0.0
 10
85.349178
 20
110.588061
 30
0.0
 10
85.263100
 20
110.678376
 30
0.0
 10
85.172789
 20
110.764485
 30
0.0
 10
85.078457
 20
110.846220
 30
0.0
 10
84.980244
 20
110.923425
 30
0.0
 10
84.878291
 20
110.995931
 30
0.0
 10
84.772811
 20
111.063580
 30
0.0
 10
84.663908
 20
111.126201
 30
0.0
 10
84.551796
 20
111.183637
 30
0.0
 10
84.436579
 20
111.235718
 30
0.0
 10
84.318483
 20
111.282288
 30
0.0
 10
84.197639
 20
111.323178
 30
0.0
 10
84.074217
 20
111.358227
 30
0.0
 10
83.948378
 20
111.387267
 30
0.0
 10
83.820284
 20
111.410141
 30
0.0
 10
83.690099
 20
111.426679
 30
0.0
 10
83.557987
 20
111.436726
 30
0.0
 10
83.424108
 20
111.440110
 30
0.0
 10
83.290392
 20
111.436726
 30
0.0
 10
83.158432
 20
111.426679
 30
0.0
 10
83.028395
 20
111.410141
 30
0.0
 10
82.900435
 20
111.387267
 30
0.0
 10
82.774727
 20
111.358227
 30
0.0
 10
82.651428
 20
111.323178
 30
0.0
 10
82.530700
 20
111.282288
 30
0.0
 10
82.412707
 20
111.235718
 30
0.0
 10
82.297613
 20
111.183637
 30
0.0
 10
82.185585
 20
111.126201
 30
0.0
 10
82.076778
 20
111.063580
 30
0.0
 10
81.971361
 20
110.995931
 30
0.0
 10
81.869497
 20
110.923425
 30
0.0
 10
81.771347
 20
110.846220
 30
0.0
 10
81.677075
 20
110.764485
 30
0.0
 10
81.586845
 20
110.678376
 30
0.0
 10
81.500820
 20
110.588061
 30
0.0
 10
81.419159
 20
110.493704
 30
0.0
 10
81.342032
 20
110.395466
 30
0.0
 10
81.269596
 20
110.293513
 30
0.0
 10
81.202021
 20
110.188012
 30
0.0
 10
81.139464
 20
110.079116
 30
0.0
 10
81.082090
 20
109.966997
 30
0.0
 10
81.030063
 20
109.851819
 30
0.0
 10
80.983546
 20
109.733741
 30
0.0
 10
80.942702
 20
109.612929
 30
0.0
 10
80.907694
 20
109.489545
 30
0.0
 10
80.878685
 20
109.363755
 30
0.0
 10
80.855838
 20
109.235718
 30
0.0
 10
80.839317
 20
109.105605
 30
0.0
 10
80.829285
 20
108.973574
 30
0.0
  0
LWPOLYLINE
  5
108
100
AcDbEntity
  8
Edge.Cuts
 62
1
100
AcDbPolyline
 90
64
 70
1
 10
82.099218
 20
125.499550
 30
0.0
 10
82.107496
 20
125.335952
 30
0.0
 10
82.131788
 20
125.177086
 30
0.0
 10
82.171284
 20
125.023755
 30
0.0
 10
82.225171
 20
124.876760
 30
0.0
 10
82.292639
 20
124.736909
 30
0.0
 10
82.372876
 20
124.605002
 30
0.0
 10
82.465070
 20
124.481844
 30
0.0
 10
82.568412
 20
124.368236
 30
0.0
 10
82.682087
 20
124.264988
 30
0.0
 10
82.805288
 20
124.172896
 30
0.0
 10
82.937202
 20
124.092769
 30
0.0
 10
83.077018
 20
124.025410
 30
0.0
 10
83.223921
 20
123.971619
 30
0.0
 10
83.377104
 20
123.932203
 30
0.0
 10
83.535755
 20
123.907964
 30
0.0
 10
83.699063
 20
123.899705
 30
0.0
 10
83.862720
 20
123.907964
 30
0.0
 10
84.021628
 20
123.932203
 30
0.0
 10
84.174991
 20
123.971619
 30
0.0
 10
84.322000
 20
124.025410
 30
0.0
 10
84.461862
 20
124.092769
 30
0.0
 10
84.593766
 20
124.172896
 30
0.0
 10
84.716917
 20
124.264988
 30
0.0
 10
84.830507
 20
124.368236
 30
0.0
 10
84.933737
 20
124.481844
 30
0.0
 10
85.025808
 20
124.605002
 30
0.0
 10
85.105914
 20
124.736909
 30
0.0
 10
85.173252
 20
124.876760
 30
0.0
 10
85.227022
 20
125.023755
 30
0.0
 10
85.266424
 20
125.177086
 30
0.0
 10
85.290652
 20
125.335952
 30
0.0
 10
85.298907
 20
125.499550
 30
0.0
 10
85.290652
 20
125.663205
 30
0.0
 10
85.266424
 20
125.822115
 30
0.0
 10
85.227022
 20
125.975478
 30
0.0
 10
85.173252
 20
126.122487
 30
0.0
 10
85.105914
 20
126.262349
 30
0.0
 10
85.025808
 20
126.394252
 30
0.0
 10
84.933737
 20
126.517403
 30
0.0
 10
84.830507
 20
126.630994
 30
0.0
 10
84.716917
 20
126.734227
 30
0.0
 10
84.593766
 20
126.826295
 30
0.0
 10
84.461862
 20
126.906400
 30
0.0
 10
84.322000
 20
126.973738
 30
0.0
 10
84.174991
 20
127.027509
 30
0.0
 10
84.021628
 20
127.066910
 30
0.0
 10
83.862720
 20
127.091139
 30
0.0
 10
83.699063
 20
127.099394
 30
0.0
 10
83.535755
 20
127.091139
 30
0.0
 10
83.377104
 20
127.066910
 30
0.0
 10
83.223921
 20
127.027509
 30
0.0
 10
83.077018
 20
126.973738
 30
0.0
 10
82.937202
 20
126.906400
 30
0.0
 10
82.805288
 20
126.826295
 30
0.0
 10
82.682087
 20
126.734227
 30
0.0
 10
82.568412
 20
126.630994
 30
0.0
 10
82.465070
 20
126.517403
 30
0.0
 10
82.372876
 20
126.394252
 30
0.0
 10
82.292639
 20
126.262349
 30
0.0
 10
82.225171
 20
126.122487
 30
0.0
 10
82.171284
 20
125.975478
 30
0.0
 10
82.131788
 20
125.822115
 30
0.0
 10
82.107496
 20
125.663205
 30
0.0
  0
LWPOLYLINE
  5
109
100
AcDbEntity
  8
Edge.Cuts
 62
1
100
AcDbPolyline
 90
128
 70
1
 10
69.514987
 20
87.880204
 30
0.0
 10
69.519865
 20
87.687192
 30
0.0
 10
69.534343
 20
87.496721
 30
0.0
 10
69.558185
 20
87.309023
 30
0.0
 10
69.591156
 20
87.124337
 30
0.0
 10
69.633020
 20
86.942897
 30
0.0
 10
69.683541
 20
86.764935
 30
0.0
 10
69.742485
 20
86.590694
 30
0.0
 10
69.809616
 20
86.420402
 30
0.0
 10
69.884697
 20
86.254297
 30
0.0
 10
69.967498
 20
86.092615
 30
0.0
 10
70.057777
 20
85.935587
 30
0.0
 10
70.155299
 20
85.783456
 30
0.0
 10
70.259833
 20
85.636450
 30
0.0
 10
70.371142
 20
85.494810
 30
0.0
 10
70.488987
 20
85.358765
 30
0.0
 10
70.613140
 20
85.228555
 30
0.0
 10
70.743357
 20
85.104413
 30
0.0
 10
70.879405
 20
84.986578
 30
0.0
 10
71.021052
 20
84.875280
 30
0.0
 10
71.168062
 20
84.770756
 30
0.0
 10
71.320197
 20
84.673245
 30
0.0
 10
71.477222
 20
84.582976
 30
0.0
 10
71.638903
 20
84.500186
 30
0.0
 10
71.805001
 20
84.425115
 30
0.0
 10
71.975286
 20
84.357996
 30
0.0
 10
72.149520
 20
84.299058
 30
0.0
 10
72.327464
 20
84.248540
 30
0.0
 10
72.508890
 20
84.206700
 30
0.0
 10
72.693555
 20
84.173716
 30
0.0
 10
72.881229
 20
84.149903
 30
0.0
 10
73.071686
 20
84.135404
 30
0.0
 10
73.264655
 20
84.130536
 30
0.0
 10
73.457695
 20
84.135404
 30
0.0
 10
73.648230
 20
84.149903
 30
0.0
 10
73.835943
 20
84.173716
 30
0.0
 10
74.020692
 20
84.206700
 30
0.0
 10
74.202161
 20
84.248540
 30
0.0
 10
74.380172
 20
84.299058
 30
0.0
 10
74.554479
 20
84.357996
 30
0.0
 10
74.724835
 20
84.425115
 30
0.0
 10
74.890993
 20
84.500186
 30
0.0
 10
75.052742
 20
84.582976
 30
0.0
 10
75.209798
 20
84.673245
 30
0.0
 10
75.362021
 20
84.770756
 30
0.0
 10
75.509059
 20
84.875280
 30
0.0
 10
75.650769
 20
84.986578
 30
0.0
 10
75.786871
 20
85.104413
 30
0.0
 10
75.917151
 20
85.228555
 30
0.0
 10
76.041329
 20
85.358765
 30
0.0
 10
76.159227
 20
85.494810
 30
0.0
 10
76.270599
 20
85.636450
 30
0.0
 10
76.375162
 20
85.783456
 30
0.0
 10
76.472740
 20
85.935587
 30
0.0
 10
76.563051
 20
86.092615
 30
0.0
 10
76.645883
 20
86.254297
 30
0.0
 10
76.720989
 20
86.420402
 30
0.0
 10
76.788158
 20
86.590694
 30
0.0
 10
76.847107
 20
86.764935
 30
0.0
 10
76.897660
 20
86.942897
 30
0.0
 10
76.939535
 20
87.124337
 30
0.0
 10
76.972520
 20
87.309023
 30
0.0
 10
76.996367
 20
87.496721
 30
0.0
 10
77.010866
 20
87.687192
 30
0.0
 10
77.015735
 20
87.880204
 30
0.0
 10
77.010866
 20
88.073123
 30
0.0
 10
76.996367
 20
88.263514
 30
0.0
 10
76.972520
 20
88.451142
 30
0.0
 10
76.939535
 20
88.635768
 30
0.0
 10
76.897660
 20
88.817159
 30
0.0
 10
76.847107
 20
88.995079
 30
0.0
 10
76.788158
 20
89.169291
 30
0.0
 10
76.720989
 20
89.339562
 30
0.0
 10
76.645883
 20
89.505650
 30
0.0
 10
76.563051
 20
89.667328
 30
0.0
 10
76.472740
 20
89.824349
 30
0.0
 10
76.375162
 20
89.976487
 30
0.0
 10
76.270599
 20
90.123504
 30
0.0
 10
76.159227
 20
90.265161
 30
0.0
 10
76.041329
 20
90.401224
 30
0.0
 10
75.917151
 20
90.531455
 30
0.0
 10
75.786871
 20
90.655626
 30
0.0
 10
75.650769
 20
90.773489
 30
0.0
 10
75.509059
 20
90.884818
 30
0.0
 10
75.362021
 20
90.989374
 30
0.0
 10
75.209798
 20
91.086921
 30
0.0
 10
75.052742
 20
91.177221
 30
0.0
 10
74.890993
 20
91.260039
 30
0.0
 10
74.724835
 20
91.335145
 30
0.0
 10
74.554479
 20
91.402296
 30
0.0
 10
74.380172
 20
91.461245
 30
0.0
 10
74.202161
 20
91.511798
 30
0.0
 10
74.020692
 20
91.553673
 30
0.0
 10
73.835943
 20
91.586658
 30
0.0
 10
73.648230
 20
91.610505
 30
0.0
 10
73.457695
 20
91.625004
 30
0.0
 10
73.264655
 20
91.629873
 30
0.0
 10
73.071686
 20
91.625004
 30
0.0
 10
72.881229
 20
91.610505
 30
0.0
 10
72.693555
 20
91.586658
 30
0.0
 10
72.508890
 20
91.553673
 30
0.0
 10
72.327464
 20
91.511798
 30
0.0
 10
72.149520
 20
91.461245
 30
0.0
 10
71.975286
 20
91.402296
 30
0.0
 10
71.805001
 20
91.335145
 30
0.0
 10
71.638903
 20
91.260039
 30
0.0
 10
71.477222
 20
91.177221
 30
0.0
 10
71.320197
 20
91.086921
 30
0.0
 10
71.168062
 20
90.989374
 30
0.0
 10
71.021052
 20
90.884818
 30
0.0
 10
70.879405
 20
90.773489
 30
0.0
 10
70.743357
 20
90.655626
 30
0.0
 10
70.613136
 20
90.531455
 30
0.0
 10
70.488987
 20
90.401224
 30
0.0
 10
70.371142
 20
90.265161
 30
0.0
 10
70.259833
 20
90.123504
 30
0.0
 10
70.155299
 20
89.976487
 30
0.0
 10
70.057777
 20
89.824349
 30
0.0
 10
69.967498
 20
89.667328
 30
0.0
 10
69.884697
 20
89.505650
 30
0.0
 10
69.809616
 20
89.339562
 30
0.0
 10
69.742485
 20
89.169291
 30
0.0
 10
69.683541
 20
88.995079
 30
0.0
 10
69.633020
 20
88.817159
 30
0.0
 10
69.591156
 20
88.635768
 30
0.0
 10
69.558185
 20
88.451142
 30
0.0
 10
69.534343
 20
88.263514
 30
0.0
 10
69.519865
 20
88.073123
 30
0.0
  0
LWPOLYLINE
  5
10a
100
AcDbEntity
  8
Edge.Cuts
 62
1
100
AcDbPolyline
 90
128
 70
1
 10
41.894334
 20
87.880204
 30
0.0
 10
41.899214
 20
87.687192
 30
0.0
 10
41.913698
 20
87.496721
 30
0.0
 10
41.937550
 20
87.309023
 30
0.0
 10
41.970535
 20
87.124337
 30
0.0
 10
42.012416
 20
86.942897
 30
0.0
 10
42.062958
 20
86.764935
 30
0.0
 10
42.121927
 20
86.590694
 30
0.0
 10
42.189085
 20
86.420402
 30
0.0
 10
42.264196
 20
86.254297
 30
0.0
 10
42.347028
 20
86.092615
 30
0.0
 10
42.437346
 20
85.935587
 30
0.0
 10
42.534907
 20
85.783456
 30
0.0
 10
42.639484
 20
85.636450
 30
0.0
 10
42.750835
 20
85.494810
 30
0.0
 10
42.868729
 20
85.358765
 30
0.0
 10
42.992925
 20
85.228555
 30
0.0
 10
43.123195
 20
85.104413
 30
0.0
 10
43.259296
 20
84.986578
 30
0.0
 10
43.401000
 20
84.875280
 30
0.0
 10
43.548062
 20
84.770756
 30
0.0
 10
43.700257
 20
84.673245
 30
0.0
 10
43.857338
 20
84.582976
 30
0.0
 10
44.019079
 20
84.500186
 30
0.0
 10
44.185241
 20
84.425115
 30
0.0
 10
44.355590
 20
84.357996
 30
0.0
 10
44.529883
 20
84.299058
 30
0.0
 10
44.707894
 20
84.248540
 30
0.0
 10
44.889384
 20
84.206700
 30
0.0
 10
45.074116
 20
84.173716
 30
0.0
 10
45.261857
 20
84.149903
 30
0.0
 10
45.452374
 20
84.135404
 30
0.0
 10
45.645414
 20
84.130536
 30
0.0
 10
45.838348
 20
84.135404
 30
0.0
 10
46.028741
 20
84.149903
 30
0.0
 10
46.216348
 20
84.173716
 30
0.0
 10
46.400992
 20
84.206700
 30
0.0
 10
46.582355
 20
84.248540
 30
0.0
 10
46.760295
 20
84.299058
 30
0.0
 10
46.934497
 20
84.357996
 30
0.0
 10
47.104782
 20
84.425115
 30
0.0
 10
47.270870
 20
84.500186
 30
0.0
 10
47.432548
 20
84.582976
 30
0.0
 10
47.589569
 20
84.673245
 30
0.0
 10
47.741686
 20
84.770756
 30
0.0
 10
47.888724
 20
84.875280
 30
0.0
 10
48.030364
 20
84.986578
 30
0.0
 10
48.166430
 20
85.104413
 30
0.0
 10
48.296675
 20
85.228555
 30
0.0
 10
48.420817
 20
85.358765
 30
0.0
 10
48.538716
 20
85.494810
 30
0.0
 10
48.650017
 20
85.636450
 30
0.0
 10
48.754580
 20
85.783456
 30
0.0
 10
48.852123
 20
85.935587
 30
0.0
 10
48.942434
 20
86.092615
 30
0.0
 10
49.025266
 20
86.254297
 30
0.0
 10
49.100337
 20
86.420402
 30
0.0
 10
49.167506
 20
86.590694
 30
0.0
 10
49.226455
 20
86.764935
 30
0.0
 10
49.277008
 20
86.942897
 30
0.0
 10
49.318882
 20
87.124337
 30
0.0
 10
49.351867
 20
87.309023
 30
0.0
 10
49.375715
 20
87.496721
 30
0.0
 10
49.390214
 20
87.687192
 30
0.0
 10
49.395082
 20
87.880204
 30
0.0
 10
49.390214
 20
88.073123
 30
0.0
 10
49.375715
 20
88.263514
 30
0.0
 10
49.351867
 20
88.451142
 30
0.0
 10
49.318882
 20
88.635768
 30
0.0
 10
49.277008
 20
88.817159
 30
0.0
 10
49.226455
 20
88.995079
 30
0.0
 10
49.167506
 20
89.169291
 30
0.0
 10
49.100337
 20
89.339562
 30
0.0
 10
49.025266
 20
89.505650
 30
0.0
 10
48.942434
 20
89.667328
 30
0.0
 10
48.852123
 20
89.824349
 30
0.0
 10
48.754580
 20
89.976487
 30
0.0
 10
48.650017
 20
90.123504
 30
0.0
 10
48.538716
 20
90.265161
 30
0.0
 10
48.420817
 20
90.401224
 30
0.0
 10
48.296675
 20
90.531455
 30
0.0
 10
48.166430
 20
90.655626
 30
0.0
 10
48.030364
 20
90.773489
 30
0.0
 10
47.888724
 20
90.884818
 30
0.0
 10
47.741686
 20
90.989374
 30
0.0
 10
47.589569
 20
91.086921
 30
0.0
 10
47.432548
 20
91.177221
 30
0.0
 10
47.270870
 20
91.260039
 30
0.0
 10
47.104782
 20
91.335145
 30
0.0
 10
46.934497
 20
91.402296
 30
0.0
 10
46.760295
 20
91.461245
 30
0.0
 10
46.582355
 20
91.511798
 30
0.0
 10
46.400992
 20
91.553673
 30
0.0
 10
46.216348
 20
91.586658
 30
0.0
 10
46.028741
 20
91.610505
 30
0.0
 10
45.838348
 20
91.625004
 30
0.0
 10
45.645414
 20
91.629873
 30
0.0
 10
45.452374
 20
91.625004
 30
0.0
 10
45.261857
 20
91.610505
 30
0.0
 10
45.074116
 20
91.586658
 30
0.0
 10
44.889384
 20
91.553673
 30
0.0
 10
44.707894
 20
91.511798
 30
0.0
 10
44.529883
 20
91.461245
 30
0.0
 10
44.355590
 20
91.402296
 30
0.0
 10
44.185241
 20
91.335145
 30
0.0
 10
44.019079
 20
91.260039
 30
0.0
 10
43.857338
 20
91.177221
 30
0.0
 10
43.700257
 20
91.086921
 30
0.0
 10
43.548062
 20
90.989374
 30
0.0
 10
43.401000
 20
90.884818
 30
0.0
 10
43.259296
 20
90.773489
 30
0.0
 10
43.123195
 20
90.655626
 30
0.0
 10
42.992925
 20
90.531455
 30
0.0
 10
42.868729
 20
90.401224
 30
0.0
 10
42.750835
 20
90.265161
 30
0.0
 10
42.639484
 20
90.123504
 30
0.0
 10
42.534907
 20
89.976487
 30
0.0
 10
42.437346
 20
89.824349
 30
0.0
 10
42.347028
 20
89.667328
 30
0.0
 10
42.264196
 20
89.505650
 30
0.0
 10
42.189085
 20
89.339562
 30
0.0
 10
42.121927
 20
89.169291
 30
0.0
 10
42.062958
 20
88.995079
 30
0.0
 10
42.012416
 20
88.817159
 30
0.0
 10
41.970535
 20
88.635768
 30
0.0
 10
41.937550
 20
88.451142
 30
0.0
 10
41.913698
 20
88.263514
 30
0.0
 10
41.899214
 20
88.073123
 30
0.0
  0
LWPOLYLINE
  5
10b
100
AcDbEntity
  8
Edge.Cuts
 62
1
100
AcDbPolyline
 90
128
 70
1
 10
14.275057
 20
87.880204
 30
0.0
 10
14.279936
 20
87.687192
 30
0.0
 10
14.294413
 20
87.496721
 30
0.0
 10
14.318256
 20
87.309023
 30
0.0
 10
14.351226
 20
87.124337
 30
0.0
 10
14.393090
 20
86.942897
 30
0.0
 10
14.443612
 20
86.764935
 30
0.0
 10
14.502556
 20
86.590694
 30
0.0
 10
14.569687
 20
86.420402
 30
0.0
 10
14.644768
 20
86.254297
 30
0.0
 10
14.727568
 20
86.092615
 30
0.0
 10
14.817847
 20
85.935587
 30
0.0
 10
14.915369
 20
85.783456
 30
0.0
 10
15.019904
 20
85.636450
 30
0.0
 10
15.131212
 20
85.494810
 30
0.0
 10
15.249057
 20
85.358765
 30
0.0
 10
15.373210
 20
85.228555
 30
0.0
 10
15.503427
 20
85.104413
 30
0.0
 10
15.639476
 20
84.986578
 30
0.0
 10
15.781123
 20
84.875280
 30
0.0
 10
15.928132
 20
84.770756
 30
0.0
 10
16.080267
 20
84.673245
 30
0.0
 10
16.237292
 20
84.582976
 30
0.0
 10
16.398973
 20
84.500186
 30
0.0
 10
16.565071
 20
84.425115
 30
0.0
 10
16.735357
 20
84.357996
 30
0.0
 10
16.909590
 20
84.299058
 30
0.0
 10
17.087534
 20
84.248540
 30
0.0
 10
17.268961
 20
84.206700
 30
0.0
 10
17.453625
 20
84.173716
 30
0.0
 10
17.641299
 20
84.149903
 30
0.0
 10
17.831757
 20
84.135404
 30
0.0
 10
18.024726
 20
84.130536
 30
0.0
 10
18.217660
 20
84.135404
 30
0.0
 10
18.408053
 20
84.149903
 30
0.0
 10
18.595660
 20
84.173716
 30
0.0
 10
18.780304
 20
84.206700
 30
0.0
 10
18.961667
 20
84.248540
 30
0.0
 10
19.139607
 20
84.299058
 30
0.0
 10
19.313809
 20
84.357996
 30
0.0
 10
19.484094
 20
84.425115
 30
0.0
 10
19.650182
 20
84.500186
 30
0.0
 10
19.811860
 20
84.582976
 30
0.0
 10
19.968881
 20
84.673245
 30
0.0
 10
20.120998
 20
84.770756
 30
0.0
 10
20.268036
 20
84.875280
 30
0.0
 10
20.409676
 20
84.986578
 30
0.0
 10
20.545742
 20
85.104413
 30
0.0
 10
20.675987
 20
85.228555
 30
0.0
 10
20.800130
 20
85.358765
 30
0.0
 10
20.918028
 20
85.494810
 30
0.0
 10
21.029329
 20
85.636450
 30
0.0
 10
21.133892
 20
85.783456
 30
0.0
 10
21.231435
 20
85.935587
 30
0.0
 10
21.321746
 20
86.092615
 30
0.0
 10
21.404578
 20
86.254297
 30
0.0
 10
21.479649
 20
86.420402
 30
0.0
 10
21.546818
 20
86.590694
 30
0.0
 10
21.605767
 20
86.764935
 30
0.0
 10
21.656320
 20
86.942897
 30
0.0
 10
21.698194
 20
87.124337
 30
0.0
 10
21.731179
 20
87.309023
 30
0.0
 10
21.755027
 20
87.496721
 30
0.0
 10
21.769526
 20
87.687192
 30
0.0
 10
21.774394
 20
87.880204
 30
0.0
 10
21.769526
 20
88.073123
 30
0.0
 10
21.755027
 20
88.263514
 30
0.0
 10
21.731179
 20
88.451142
 30
0.0
 10
21.698194
 20
88.635768
 30
0.0
 10
21.656320
 20
88.817159
 30
0.0
 10
21.605767
 20
88.995079
 30
0.0
 10
21.546818
 20
89.169291
 30
0.0
 10
21.479649
 20
89.339562
 30
0.0
 10
21.404578
 20
89.505650
 30
0.0
 10
21.321746
 20
89.667328
 30
0.0
 10
21.231435
 20
89.824349
 30
0.0
 10
21.133892
 20
89.976487
 30
0.0
 10
21.029329
 20
90.123504
 30
0.0
 10
20.918028
 20
90.265161
 30
0.0
 10
20.800130
 20
90.401224
 30
0.0
 10
20.675987
 20
90.531455
 30
0.0
 10
20.545742
 20
90.655626
 30
0.0
 10
20.409676
 20
90.773489
 30
0.0
 10
20.268036
 20
90.884818
 30
0.0
 10
20.120998
 20
90.989374
 30
0.0
 10
19.968881
 20
91.086921
 30
0.0
 10
19.811860
 20
91.177221
 30
0.0
 10
19.650182
 20
91.260039
 30
0.0
 10
19.484094
 20
91.335145
 30
0.0
 10
19.313809
 20
91.402296
 30
0.0
 10
19.139607
 20
91.461245
 30
0.0
 10
18.961667
 20
91.511798
 30
0.0
 10
18.780304
 20
91.553673
 30
0.0
 10
18.595660
 20
91.586658
 30
0.0
 10
18.408053
 20
91.610505
 30
0.0
 10
18.217660
 20
91.625004
 30
0.0
 10
18.024726
 20
91.629873
 30
0.0
 10
17.831757
 20
91.625004
 30
0.0
 10
17.641299
 20
91.610505
 30
0.0
 10
17.453625
 20
91.586658
 30
0.0
 10
17.268961
 20
91.553673
 30
0.0
 10
17.087534
 20
91.511798
 30
0.0
 10
16.909590
 20
91.461245
 30
0.0
 10
16.735357
 20
91.402296
 30
0.0
 10
16.565071
 20
91.335145
 30
0.0
 10
16.398973
 20
91.260039
 30
0.0
 10
16.237292
 20
91.177221
 30
0.0
 10
16.080267
 20
91.086921
 30
0.0
 10
15.928132
 20
90.989374
 30
0.0
 10
15.781123
 20
90.884818
 30
0.0
 10
15.639476
 20
90.773489
 30
0.0
 10
15.503427
 20
90.655626
 30
0.0
 10
15.373207
 20
90.531455
 30
0.0
 10
15.249057
 20
90.401224
 30
0.0
 10
15.131212
 20
90.265161
 30
0.0
 10
15.019904
 20
90.123504
 30
0.0
 10
14.915369
 20
89.976487
 30
0.0
 10
14.817847
 20
89.824349
 30
0.0
 10
14.727568
 20
89.667328
 30
0.0
 10
14.644768
 20
89.505650
 30
0.0
 10
14.569687
 20
89.339562
 30
0.0
 10
14.502556
 20
89.169291
 30
0.0
 10
14.443612
 20
88.995079
 30
0.0
 10
14.393090
 20
88.817159
 30
0.0
 10
14.351226
 20
88.635768
 30
0.0
 10
14.318256
 20
88.451142
 30
0.0
 10
14.294413
 20
88.263514
 30
0.0
 10
14.279936
 20
88.073123
 30
0.0
  0
LWPOLYLINE
  5
10c
100
AcDbEntity
  8
Edge.Cuts
 62
1
100
AcDbPolyline
 90
128
 70
1
 10
8.554846
 20
59.940888
 30
0.0
 10
8.559724
 20
59.747809
 30
0.0
 10
8.574202
 20
59.557268
 30
0.0
 10
8.598044
 20
59.369498
 30
0.0
 10
8.631015
 20
59.184742
 30
0.0
 10
8.672879
 20
59.003228
 30
0.0
 10
8.723401
 20
58.825195
 30
0.0
 10
8.782345
 20
58.650877
 30
0.0
 10
8.849476
 20
58.480511
 30
0.0
 10
8.924557
 20
58.314331
 30
0.0
 10
9.007357
 20
58.152576
 30
0.0
 10
9.097636
 20
57.995477
 30
0.0
 10
9.195158
 20
57.843272
 30
0.0
 10
9.299693
 20
57.696195
 30
0.0
 10
9.411001
 20
57.554481
 30
0.0
 10
9.528846
 20
57.418369
 30
0.0
 10
9.652999
 20
57.288092
 30
0.0
 10
9.783216
 20
57.163886
 30
0.0
 10
9.919265
 20
57.045985
 30
0.0
 10
10.060912
 20
56.934627
 30
0.0
 10
10.207921
 20
56.830050
 30
0.0
 10
10.360056
 20
56.732482
 30
0.0
 10
10.517081
 20
56.642161
 30
0.0
 10
10.678762
 20
56.559328
 30
0.0
 10
10.844860
 20
56.484212
 30
0.0
 10
11.015146
 20
56.417053
 30
0.0
 10
11.189379
 20
56.358083
 30
0.0
 10
11.367323
 20
56.307530
 30
0.0
 10
11.548750
 20
56.265656
 30
0.0
 10
11.733414
 20
56.232671
 30
0.0
 10
11.921088
 20
56.208823
 30
0.0
 10
12.111546
 20
56.194324
 30
0.0
 10
12.304515
 20
56.189456
 30
0.0
 10
12.497484
 20
56.194324
 30
0.0
 10
12.687948
 20
56.208823
 30
0.0
 10
12.875626
 20
56.232671
 30
0.0
 10
13.060269
 20
56.265656
 30
0.0
 10
13.241702
 20
56.307530
 30
0.0
 10
13.419643
 20
56.358083
 30
0.0
 10
13.593880
 20
56.417053
 30
0.0
 10
13.764165
 20
56.484212
 30
0.0
 10
13.930253
 20
56.559328
 30
0.0
 10
14.091966
 20
56.642161
 30
0.0
 10
14.248987
 20
56.732482
 30
0.0
 10
14.401105
 20
56.830050
 30
0.0
 10
14.548107
 20
56.934627
 30
0.0
 10
14.689747
 20
57.045985
 30
0.0
 10
14.825813
 20
57.163886
 30
0.0
 10
14.956023
 20
57.288092
 30
0.0
 10
15.080165
 20
57.418369
 30
0.0
 10
15.198028
 20
57.554481
 30
0.0
 10
15.309329
 20
57.696195
 30
0.0
 10
15.413857
 20
57.843272
 30
0.0
 10
15.511400
 20
57.995477
 30
0.0
 10
15.601676
 20
58.152576
 30
0.0
 10
15.684473
 20
58.314331
 30
0.0
 10
15.759544
 20
58.480511
 30
0.0
 10
15.826677
 20
58.650877
 30
0.0
 10
15.885626
 20
58.825195
 30
0.0
 10
15.936144
 20
59.003228
 30
0.0
 10
15.978019
 20
59.184742
 30
0.0
 10
16.010968
 20
59.369498
 30
0.0
 10
16.034816
 20
59.557268
 30
0.0
 10
16.049315
 20
59.747809
 30
0.0
 10
16.054183
 20
59.940888
 30
0.0
 10
16.049315
 20
60.133807
 30
0.0
 10
16.034816
 20
60.324198
 30
0.0
 10
16.010968
 20
60.511826
 30
0.0
 10
15.978019
 20
60.696452
 30
0.0
 10
15.936144
 20
60.877843
 30
0.0
 10
15.885626
 20
61.055763
 30
0.0
 10
15.826677
 20
61.229975
 30
0.0
 10
15.759544
 20
61.400246
 30
0.0
 10
15.684473
 20
61.566334
 30
0.0
 10
15.601676
 20
61.728011
 30
0.0
 10
15.511400
 20
61.885032
 30
0.0
 10
15.413857
 20
62.037171
 30
0.0
 10
15.309329
 20
62.184187
 30
0.0
 10
15.198028
 20
62.325845
 30
0.0
 10
15.080165
 20
62.461908
 30
0.0
 10
14.956023
 20
62.592139
 30
0.0
 10
14.825813
 20
62.716309
 30
0.0
 10
14.689747
 20
62.834172
 30
0.0
 10
14.548107
 20
62.945502
 30
0.0
 10
14.401105
 20
63.050058
 30
0.0
 10
14.248987
 20
63.147604
 30
0.0
 10
14.091966
 20
63.237905
 30
0.0
 10
13.930253
 20
63.320723
 30
0.0
 10
13.764165
 20
63.395829
 30
0.0
 10
13.593880
 20
63.462980
 30
0.0
 10
13.419643
 20
63.521929
 30
0.0
 10
13.241702
 20
63.572482
 30
0.0
 10
13.060269
 20
63.614357
 30
0.0
 10
12.875626
 20
63.647341
 30
0.0
 10
12.687948
 20
63.671189
 30
0.0
 10
12.497484
 20
63.685688
 30
0.0
 10
12.304515
 20
63.690557
 30
0.0
 10
12.111546
 20
63.685688
 30
0.0
 10
11.921088
 20
63.671189
 30
0.0
 10
11.733414
 20
63.647341
 30
0.0
 10
11.548750
 20
63.614357
 30
0.0
 10
11.367323
 20
63.572482
 30
0.0
 10
11.189379
 20
63.521929
 30
0.0
 10
11.015146
 20
63.462980
 30
0.0
 10
10.844860
 20
63.395829
 30
0.0
 10
10.678762
 20
63.320723
 30
0.0
 10
10.517081
 20
63.237905
 30
0.0
 10
10.360056
 20
63.147604
 30
0.0
 10
10.207921
 20
63.050058
 30
0.0
 10
10.060912
 20
62.945502
 30
0.0
 10
9.919265
 20
62.834172
 30
0.0
 10
9.783216
 20
62.716309
 30
0.0
 10
9.652996
 20
62.592139
 30
0.0
 10
9.528846
 20
62.461908
 30
0.0
 10
9.411001
 20
62.325845
 30
0.0
 10
9.299693
 20
62.184187
 30
0.0
 10
9.195158
 20
62.037171
 30
0.0
 10
9.097636
 20
61.885032
 30
0.0
 10
9.007357
 20
61.728011
 30
0.0
 10
8.924557
 20
61.566334
 30
0.0
 10
8.849476
 20
61.400246
 30
0.0
 10
8.782345
 20
61.229975
 30
0.0
 10
8.723401
 20
61.055763
 30
0.0
 10
8.672879
 20
60.877843
 30
0.0
 10
8.631015
 20
60.696452
 30
0.0
 10
8.598044
 20
60.511826
 30
0.0
 10
8.574202
 20
60.324198
 30
0.0
 10
8.559724
 20
60.133807
 30
0.0
  0
LWPOLYLINE
  5
10d
100
AcDbEntity
  8
Edge.Cuts
 62
1
100
AcDbPolyline
 90
128
 70
1
 10
30.784606
 20
59.940888
 30
0.0
 10
30.789487
 20
59.747809
 30
0.0
 10
30.803970
 20
59.557268
 30
0.0
 10
30.827822
 20
59.369498
 30
0.0
 10
30.860805
 20
59.184742
 30
0.0
 10
30.902685
 20
59.003228
 30
0.0
 10
30.953226
 20
58.825195
 30
0.0
 10
31.012191
 20
58.650877
 30
0.0
 10
31.079346
 20
58.480511
 30
0.0
 10
31.154454
 20
58.314331
 30
0.0
 10
31.237279
 20
58.152576
 30
0.0
 10
31.327587
 20
57.995477
 30
0.0
 10
31.425144
 20
57.843272
 30
0.0
 10
31.529707
 20
57.696195
 30
0.0
 10
31.641047
 20
57.554481
 30
0.0
 10
31.758927
 20
57.418369
 30
0.0
 10
31.883112
 20
57.288092
 30
0.0
 10
32.013361
 20
57.163886
 30
0.0
 10
32.149445
 20
57.045985
 30
0.0
 10
32.291123
 20
56.934627
 30
0.0
 10
32.438165
 20
56.830050
 30
0.0
 10
32.590328
 20
56.732482
 30
0.0
 10
32.747381
 20
56.642161
 30
0.0
 10
32.909090
 20
56.559328
 30
0.0
 10
33.075217
 20
56.484212
 30
0.0
 10
33.245523
 20
56.417053
 30
0.0
 10
33.419778
 20
56.358083
 30
0.0
 10
33.597743
 20
56.307530
 30
0.0
 10
33.779183
 20
56.265656
 30
0.0
 10
33.963862
 20
56.232671
 30
0.0
 10
34.151547
 20
56.208823
 30
0.0
 10
34.342011
 20
56.194324
 30
0.0
 10
34.534980
 20
56.189456
 30
0.0
 10
34.727914
 20
56.194324
 30
0.0
 10
34.918308
 20
56.208823
 30
0.0
 10
35.105915
 20
56.232671
 30
0.0
 10
35.290558
 20
56.265656
 30
0.0
 10
35.471921
 20
56.307530
 30
0.0
 10
35.649862
 20
56.358083
 30
0.0
 10
35.824063
 20
56.417053
 30
0.0
 10
35.994349
 20
56.484212
 30
0.0
 10
36.160436
 20
56.559328
 30
0.0
 10
36.322114
 20
56.642161
 30
0.0
 10
36.479135
 20
56.732482
 30
0.0
 10
36.631253
 20
56.830050
 30
0.0
 10
36.778290
 20
56.934627
 30
0.0
 10
36.919930
 20
57.045985
 30
0.0
 10
37.055996
 20
57.163886
 30
0.0
 10
37.186242
 20
57.288092
 30
0.0
 10
37.310384
 20
57.418369
 30
0.0
 10
37.428282
 20
57.554481
 30
0.0
 10
37.539583
 20
57.696195
 30
0.0
 10
37.644146
 20
57.843272
 30
0.0
 10
37.741689
 20
57.995477
 30
0.0
 10
37.832000
 20
58.152576
 30
0.0
 10
37.914832
 20
58.314331
 30
0.0
 10
37.989903
 20
58.480511
 30
0.0
 10
38.057072
 20
58.650877
 30
0.0
 10
38.116021
 20
58.825195
 30
0.0
 10
38.166574
 20
59.003228
 30
0.0
 10
38.208449
 20
59.184742
 30
0.0
 10
38.241434
 20
59.369498
 30
0.0
 10
38.265281
 20
59.557268
 30
0.0
 10
38.279780
 20
59.747809
 30
0.0
 10
38.284649
 20
59.940888
 30
0.0
 10
38.279780
 20
60.133807
 30
0.0
 10
38.265281
 20
60.324198
 30
0.0
 10
38.241434
 20
60.511826
 30
0.0
 10
38.208449
 20
60.696452
 30
0.0
 10
38.166574
 20
60.877843
 30
0.0
 10
38.116021
 20
61.055763
 30
0.0
 10
38.057072
 20
61.229975
 30
0.0
 10
37.989903
 20
61.400246
 30
0.0
 10
37.914832
 20
61.566334
 30
0.0
 10
37.832000
 20
61.728011
 30
0.0
 10
37.741689
 20
61.885032
 30
0.0
 10
37.644146
 20
62.037171
 30
0.0
 10
37.539583
 20
62.184187
 30
0.0
 10
37.428282
 20
62.325845
 30
0.0
 10
37.310384
 20
62.461908
 30
0.0
 10
37.186242
 20
62.592139
 30
0.0
 10
37.055996
 20
62.716309
 30
0.0
 10
36.919930
 20
62.834172
 30
0.0
 10
36.778290
 20
62.945502
 30
0.0
 10
36.631253
 20
63.050058
 30
0.0
 10
36.479135
 20
63.147604
 30
0.0
 10
36.322114
 20
63.237905
 30
0.0
 10
36.160436
 20
63.320723
 30
0.0
 10
35.994349
 20
63.395829
 30
0.0
 10
35.824063
 20
63.462980
 30
0.0
 10
35.649862
 20
63.521929
 30
0.0
 10
35.471921
 20
63.572482
 30
0.0
 10
35.290558
 20
63.614357
 30
0.0
 10
35.105915
 20
63.647341
 30
0.0
 10
34.918308
 20
63.671189
 30
0.0
 10
34.727914
 20
63.685688
 30
0.0
 10
34.534980
 20
63.690557
 30
0.0
 10
34.342011
 20
63.685688
 30
0.0
 10
34.151547
 20
63.671189
 30
0.0
 10
33.963862
 20
63.647341
 30
0.0
 10
33.779183
 20
63.614357
 30
0.0
 10
33.597743
 20
63.572482
 30
0.0
 10
33.419778
 20
63.521929
 30
0.0
 10
33.245523
 20
63.462980
 30
0.0
 10
33.075217
 20
63.395829
 30
0.0
 10
32.909090
 20
63.320723
 30
0.0
 10
32.747381
 20
63.237905
 30
0.0
 10
32.590328
 20
63.147604
 30
0.0
 10
32.438165
 20
63.050058
 30
0.0
 10
32.291123
 20
62.945502
 30
0.0
 10
32.149445
 20
62.834172
 30
0.0
 10
32.013361
 20
62.716309
 30
0.0
 10
31.883112
 20
62.592139
 30
0.0
 10
31.758927
 20
62.461908
 30
0.0
 10
31.641047
 20
62.325845
 30
0.0
 10
31.529707
 20
62.184187
 30
0.0
 10
31.425144
 20
62.037171
 30
0.0
 10
31.327587
 20
61.885032
 30
0.0
 10
31.237279
 20
61.728011
 30
0.0
 10
31.154454
 20
61.566334
 30
0.0
 10
31.079346
 20
61.400246
 30
0.0
 10
31.012191
 20
61.229975
 30
0.0
 10
30.953226
 20
61.055763
 30
0.0
 10
30.902685
 20
60.877843
 30
0.0
 10
30.860805
 20
60.696452
 30
0.0
 10
30.827822
 20
60.511826
 30
0.0
 10
30.803970
 20
60.324198
 30
0.0
 10
30.789487
 20
60.133807
 30
0.0
  0
LWPOLYLINE
  5
10e
100
AcDbEntity
  8
Edge.Cuts
 62
1
100
AcDbPolyline
 90
128
 70
1
 10
53.004769
 20
59.940888
 30
0.0
 10
53.009649
 20
59.747809
 30
0.0
 10
53.024133
 20
59.557268
 30
0.0
 10
53.047983
 20
59.369498
 30
0.0
 10
53.080966
 20
59.184742
 30
0.0
 10
53.122845
 20
59.003228
 30
0.0
 10
53.173384
 20
58.825195
 30
0.0
 10
53.232346
 20
58.650877
 30
0.0
 10
53.299497
 20
58.480511
 30
0.0
 10
53.374603
 20
58.314331
 30
0.0
 10
53.457421
 20
58.152576
 30
0.0
 10
53.547721
 20
57.995477
 30
0.0
 10
53.645267
 20
57.843272
 30
0.0
 10
53.749823
 20
57.696195
 30
0.0
 10
53.861153
 20
57.554481
 30
0.0
 10
53.979016
 20
57.418369
 30
0.0
 10
54.103183
 20
57.288092
 30
0.0
 10
54.233417
 20
57.163886
 30
0.0
 10
54.369480
 20
57.045985
 30
0.0
 10
54.511138
 20
56.934627
 30
0.0
 10
54.658154
 20
56.830050
 30
0.0
 10
54.810293
 20
56.732482
 30
0.0
 10
54.967314
 20
56.642161
 30
0.0
 10
55.128992
 20
56.559328
 30
0.0
 10
55.295079
 20
56.484212
 30
0.0
 10
55.465351
 20
56.417053
 30
0.0
 10
55.639562
 20
56.358083
 30
0.0
 10
55.817482
 20
56.307530
 30
0.0
 10
55.998873
 20
56.265656
 30
0.0
 10
56.183499
 20
56.232671
 30
0.0
 10
56.371127
 20
56.208823
 30
0.0
 10
56.561503
 20
56.194324
 30
0.0
 10
56.754437
 20
56.189456
 30
0.0
 10
56.947406
 20
56.194324
 30
0.0
 10
57.137871
 20
56.208823
 30
0.0
 10
57.325583
 20
56.232671
 30
0.0
 10
57.510262
 20
56.265656
 30
0.0
 10
57.691731
 20
56.307530
 30
0.0
 10
57.869707
 20
56.358083
 30
0.0
 10
58.043979
 20
56.417053
 30
0.0
 10
58.214300
 20
56.484212
 30
0.0
 10
58.380458
 20
56.559328
 30
0.0
 10
58.542206
 20
56.642161
 30
0.0
 10
58.699298
 20
56.732482
 30
0.0
 10
58.851486
 20
56.830050
 30
0.0
 10
58.998558
 20
56.934627
 30
0.0
 10
59.140269
 20
57.045985
 30
0.0
 10
59.276370
 20
57.163886
 30
0.0
 10
59.406651
 20
57.288092
 30
0.0
 10
59.530864
 20
57.418369
 30
0.0
 10
59.648797
 20
57.554481
 30
0.0
 10
59.760169
 20
57.696195
 30
0.0
 10
59.864768
 20
57.843272
 30
0.0
 10
59.962346
 20
57.995477
 30
0.0
 10
60.052692
 20
58.152576
 30
0.0
 10
60.135524
 20
58.314331
 30
0.0
 10
60.210666
 20
58.480511
 30
0.0
 10
60.277834
 20
58.650877
 30
0.0
 10
60.336819
 20
58.825195
 30
0.0
 10
60.387407
 20
59.003228
 30
0.0
 10
60.429282
 20
59.184742
 30
0.0
 10
60.462266
 20
59.369498
 30
0.0
 10
60.486149
 20
59.557268
 30
0.0
 10
60.500648
 20
59.747809
 30
0.0
 10
60.505517
 20
59.940888
 30
0.0
 10
60.500648
 20
60.133807
 30
0.0
 10
60.486149
 20
60.324198
 30
0.0
 10
60.462266
 20
60.511826
 30
0.0
 10
60.429282
 20
60.696452
 30
0.0
 10
60.387407
 20
60.877843
 30
0.0
 10
60.336819
 20
61.055763
 30
0.0
 10
60.277834
 20
61.229975
 30
0.0
 10
60.210666
 20
61.400246
 30
0.0
 10
60.135524
 20
61.566334
 30
0.0
 10
60.052692
 20
61.728011
 30
0.0
 10
59.962346
 20
61.885032
 30
0.0
 10
59.864768
 20
62.037171
 30
0.0
 10
59.760169
 20
62.184187
 30
0.0
 10
59.648797
 20
62.325845
 30
0.0
 10
59.530864
 20
62.461908
 30
0.0
 10
59.406651
 20
62.592139
 30
0.0
 10
59.276370
 20
62.716309
 30
0.0
 10
59.140269
 20
62.834172
 30
0.0
 10
58.998558
 20
62.945502
 30
0.0
 10
58.851486
 20
63.050058
 30
0.0
 10
58.699298
 20
63.147604
 30
0.0
 10
58.542206
 20
63.237905
 30
0.0
 10
58.380458
 20
63.320723
 30
0.0
 10
58.214300
 20
63.395829
 30
0.0
 10
58.043979
 20
63.462980
 30
0.0
 10
57.869707
 20
63.521929
 30
0.0
 10
57.691731
 20
63.572482
 30
0.0
 10
57.510262
 20
63.614357
 30
0.0
 10
57.325583
 20
63.647341
 30
0.0
 10
57.137871
 20
63.671189
 30
0.0
 10
56.947406
 20
63.685688
 30
0.0
 10
56.754437
 20
63.690557
 30
0.0
 10
56.561503
 20
63.685688
 30
0.0
 10
56.371127
 20
63.671189
 30
0.0
 10
56.183499
 20
63.647341
 30
0.0
 10
55.998873
 20
63.614357
 30
0.0
 10
55.817482
 20
63.572482
 30
0.0
 10
55.639562
 20
63.521929
 30
0.0
 10
55.465351
 20
63.462980
 30
0.0
 10
55.295079
 20
63.395829
 30
0.0
 10
55.128992
 20
63.320723
 30
0.0
 10
54.967314
 20
63.237905
 30
0.0
 10
54.810293
 20
63.147604
 30
0.0
 10
54.658154
 20
63.050058
 30
0.0
 10
54.511138
 20
62.945502
 30
0.0
 10
54.369480
 20
62.834172
 30
0.0
 10
54.233417
 20
62.716309
 30
0.0
 10
54.103183
 20
62.592139
 30
0.0
 10
53.979016
 20
62.461908
 30
0.0
 10
53.861153
 20
62.325845
 30
0.0
 10
53.749823
 20
62.184187
 30
0.0
 10
53.645267
 20
62.037171
 30
0.0
 10
53.547721
 20
61.885032
 30
0.0
 10
53.457421
 20
61.728011
 30
0.0
 10
53.374603
 20
61.566334
 30
0.0
 10
53.299497
 20
61.400246
 30
0.0
 10
53.232346
 20
61.229975
 30
0.0
 10
53.173384
 20
61.055763
 30
0.0
 10
53.122845
 20
60.877843
 30
0.0
 10
53.080966
 20
60.696452
 30
0.0
 10
53.047983
 20
60.511826
 30
0.0
 10
53.024133
 20
60.324198
 30
0.0
 10
53.009649
 20
60.133807
 30
0.0
  0
LWPOLYLINE
  5
10f
100
AcDbEntity
  8
Edge.Cuts
 62
1
100
AcDbPolyline
 90
128
 70
1
 10
75.235233
 20
59.940888
 30
0.0
 10
75.240113
 20
59.747809
 30
0.0
 10
75.254597
 20
59.557268
 30
0.0
 10
75.278448
 20
59.369498
 30
0.0
 10
75.311431
 20
59.184742
 30
0.0
 10
75.353309
 20
59.003228
 30
0.0
 10
75.403848
 20
58.825195
 30
0.0
 10
75.462811
 20
58.650877
 30
0.0
 10
75.529962
 20
58.480511
 30
0.0
 10
75.605067
 20
58.314331
 30
0.0
 10
75.687885
 20
58.152576
 30
0.0
 10
75.778185
 20
57.995477
 30
0.0
 10
75.875732
 20
57.843272
 30
0.0
 10
75.980288
 20
57.696195
 30
0.0
 10
76.091617
 20
57.554481
 30
0.0
 10
76.209480
 20
57.418369
 30
0.0
 10
76.333647
 20
57.288092
 30
0.0
 10
76.463882
 20
57.163886
 30
0.0
 10
76.599945
 20
57.045985
 30
0.0
 10
76.741602
 20
56.934627
 30
0.0
 10
76.888619
 20
56.830050
 30
0.0
 10
77.040757
 20
56.732482
 30
0.0
 10
77.197778
 20
56.642161
 30
0.0
 10
77.359456
 20
56.559328
 30
0.0
 10
77.525544
 20
56.484212
 30
0.0
 10
77.695815
 20
56.417053
 30
0.0
 10
77.870027
 20
56.358083
 30
0.0
 10
78.047947
 20
56.307530
 30
0.0
 10
78.229338
 20
56.265656
 30
0.0
 10
78.413964
 20
56.232671
 30
0.0
 10
78.601592
 20
56.208823
 30
0.0
 10
78.791968
 20
56.194324
 30
0.0
 10
78.984902
 20
56.189456
 30
0.0
 10
79.177835
 20
56.194324
 30
0.0
 10
79.368229
 20
56.208823
 30
0.0
 10
79.555836
 20
56.232671
 30
0.0
 10
79.740480
 20
56.265656
 30
0.0
 10
79.921843
 20
56.307530
 30
0.0
 10
80.099783
 20
56.358083
 30
0.0
 10
80.273985
 20
56.417053
 30
0.0
 10
80.444270
 20
56.484212
 30
0.0
 10
80.610358
 20
56.559328
 30
0.0
 10
80.772035
 20
56.642161
 30
0.0
 10
80.929057
 20
56.732482
 30
0.0
 10
81.081174
 20
56.830050
 30
0.0
 10
81.228212
 20
56.934627
 30
0.0
 10
81.369852
 20
57.045985
 30
0.0
 10
81.505918
 20
57.163886
 30
0.0
 10
81.636163
 20
57.288092
 30
0.0
 10
81.760305
 20
57.418369
 30
0.0
 10
81.878204
 20
57.554481
 30
0.0
 10
81.989505
 20
57.696195
 30
0.0
 10
82.094068
 20
57.843272
 30
0.0
 10
82.191611
 20
57.995477
 30
0.0
 10
82.281922
 20
58.152576
 30
0.0
 10
82.364754
 20
58.314331
 30
0.0
 10
82.439825
 20
58.480511
 30
0.0
 10
82.506994
 20
58.650877
 30
0.0
 10
82.565943
 20
58.825195
 30
0.0
 10
82.616496
 20
59.003228
 30
0.0
 10
82.658370
 20
59.184742
 30
0.0
 10
82.691355
 20
59.369498
 30
0.0
 10
82.715203
 20
59.557268
 30
0.0
 10
82.729702
 20
59.747809
 30
0.0
 10
82.734570
 20
59.940888
 30
0.0
 10
82.729702
 20
60.133807
 30
0.0
 10
82.715203
 20
60.324198
 30
0.0
 10
82.691355
 20
60.511826
 30
0.0
 10
82.658370
 20
60.696452
 30
0.0
 10
82.616496
 20
60.877843
 30
0.0
 10
82.565943
 20
61.055763
 30
0.0
 10
82.506994
 20
61.229975
 30
0.0
 10
82.439825
 20
61.400246
 30
0.0
 10
82.364754
 20
61.566334
 30
0.0
 10
82.281922
 20
61.728011
 30
0.0
 10
82.191611
 20
61.885032
 30
0.0
 10
82.094068
 20
62.037171
 30
0.0
 10
81.989505
 20
62.184187
 30
0.0
 10
81.878204
 20
62.325845
 30
0.0
 10
81.760305
 20
62.461908
 30
0.0
 10
81.636163
 20
62.592139
 30
0.0
 10
81.505918
 20
62.716309
 30
0.0
 10
81.369852
 20
62.834172
 30
0.0
 10
81.228212
 20
62.945502
 30
0.0
 10
81.081174
 20
63.050058
 30
0.0
 10
80.929057
 20
63.147604
 30
0.0
 10
80.772035
 20
63.237905
 30
0.0
 10
80.610358
 20
63.320723
 30
0.0
 10
80.444270
 20
63.395829
 30
0.0
 10
80.273985
 20
63.462980
 30
0.0
 10
80.099783
 20
63.521929
 30
0.0
 10
79.921843
 20
63.572482
 30
0.0
 10
79.740480
 20
63.614357
 30
0.0
 10
79.555836
 20
63.647341
 30
0.0
 10
79.368229
 20
63.671189
 30
0.0
 10
79.177835
 20
63.685688
 30
0.0
 10
78.984902
 20
63.690557
 30
0.0
 10
78.791968
 20
63.685688
 30
0.0
 10
78.601592
 20
63.671189
 30
0.0
 10
78.413964
 20
63.647341
 30
0.0
 10
78.229338
 20
63.614357
 30
0.0
 10
78.047947
 20
63.572482
 30
0.0
 10
77.870027
 20
63.521929
 30
0.0
 10
77.695815
 20
63.462980
 30
0.0
 10
77.525544
 20
63.395829
 30
0.0
 10
77.359456
 20
63.320723
 30
0.0
 10
77.197778
 20
63.237905
 30
0.0
 10
77.040757
 20
63.147604
 30
0.0
 10
76.888619
 20
63.050058
 30
0.0
 10
76.741602
 20
62.945502
 30
0.0
 10
76.599945
 20
62.834172
 30
0.0
 10
76.463882
 20
62.716309
 30
0.0
 10
76.333647
 20
62.592139
 30
0.0
 10
76.209480
 20
62.461908
 30
0.0
 10
76.091617
 20
62.325845
 30
0.0
 10
75.980288
 20
62.184187
 30
0.0
 10
75.875732
 20
62.037171
 30
0.0
 10
75.778185
 20
61.885032
 30
0.0
 10
75.687885
 20
61.728011
 30
0.0
 10
75.605067
 20
61.566334
 30
0.0
 10
75.529962
 20
61.400246
 30
0.0
 10
75.462811
 20
61.229975
 30
0.0
 10
75.403848
 20
61.055763
 30
0.0
 10
75.353309
 20
60.877843
 30
0.0
 10
75.311431
 20
60.696452
 30
0.0
 10
75.278448
 20
60.511826
 30
0.0
 10
75.254597
 20
60.324198
 30
0.0
 10
75.240113
 20
60.133807
 30
0.0
  0
LWPOLYLINE
  5
110
100
AcDbEntity
  8
Edge.Cuts
 62
1
100
AcDbPolyline
 90
128
 70
1
 10
78.910430
 20
32.004640
 30
0.0
 10
78.914656
 20
31.837458
 30
0.0
 10
78.927196
 20
31.672464
 30
0.0
 10
78.947847
 20
31.509863
 30
0.0
 10
78.976405
 20
31.349861
 30
0.0
 10
79.012668
 20
31.192663
 30
0.0
 10
79.056430
 20
31.038468
 30
0.0
 10
79.107490
 20
30.887490
 30
0.0
 10
79.165643
 20
30.739923
 30
0.0
 10
79.230685
 20
30.595976
 30
0.0
 10
79.302412
 20
30.455856
 30
0.0
 10
79.380622
 20
30.319766
 30
0.0
 10
79.465113
 20
30.187912
 30
0.0
 10
79.555677
 20
30.060492
 30
0.0
 10
79.652113
 20
29.937719
 30
0.0
 10
79.754213
 20
29.819789
 30
0.0
 10
79.861782
 20
29.706914
 30
0.0
 10
79.974611
 20
29.599296
 30
0.0
 10
80.092495
 20
29.497135
 30
0.0
 10
80.215233
 20
29.400644
 30
0.0
 10
80.342625
 20
29.310022
 30
0.0
 10
80.474457
 20
29.225476
 30
0.0
 10
80.610534
 20
29.147205
 30
0.0
 10
80.750650
 20
29.075418
 30
0.0
 10
80.894604
 20
29.010324
 30
0.0
 10
81.042189
 20
28.952119
 30
0.0
 10
81.193198
 20
28.901009
 30
0.0
 10
81.347436
 20
28.857204
 30
0.0
 10
81.504694
 20
28.820904
 30
0.0
 10
81.664766
 20
28.792315
 30
0.0
 10
81.827457
 20
28.771642
 30
0.0
 10
81.992556
 20
28.759086
 30
0.0
 10
82.159861
 20
28.754857
 30
0.0
 10
82.327042
 20
28.759086
 30
0.0
 10
82.492036
 20
28.771642
 30
0.0
 10
82.654631
 20
28.792315
 30
0.0
 10
82.814615
 20
28.820904
 30
0.0
 10
82.971813
 20
28.857204
 30
0.0
 10
83.126012
 20
28.901009
 30
0.0
 10
83.276965
 20
28.952119
 30
0.0
 10
83.424532
 20
29.010324
 30
0.0
 10
83.568465
 20
29.075418
 30
0.0
 10
83.708553
 20
29.147205
 30
0.0
 10
83.844654
 20
29.225476
 30
0.0
 10
83.976487
 20
29.310022
 30
0.0
 10
84.103875
 20
29.400644
 30
0.0
 10
84.226641
 20
29.497135
 30
0.0
 10
84.344539
 20
29.599296
 30
0.0
 10
84.457428
 20
29.706914
 30
0.0
 10
84.565025
 20
29.819789
 30
0.0
 10
84.667154
 20
29.937719
 30
0.0
 10
84.763639
 20
30.060492
 30
0.0
 10
84.854232
 20
30.187912
 30
0.0
 10
84.938757
 20
30.319766
 30
0.0
 10
85.017038
 20
30.455856
 30
0.0
 10
85.088793
 20
30.595976
 30
0.0
 10
85.153881
 20
30.739923
 30
0.0
 10
85.212089
 20
30.887490
 30
0.0
 10
85.263171
 20
31.038468
 30
0.0
 10
85.306951
 20
31.192663
 30
0.0
 10
85.343251
 20
31.349861
 30
0.0
 10
85.371826
 20
31.509863
 30
0.0
 10
85.392499
 20
31.672464
 30
0.0
 10
85.405058
 20
31.837458
 30
0.0
 10
85.409291
 20
32.004640
 30
0.0
 10
85.405058
 20
32.171950
 30
0.0
 10
85.392499
 20
32.337064
 30
0.0
 10
85.371826
 20
32.499777
 30
0.0
 10
85.343251
 20
32.659885
 30
0.0
 10
85.306951
 20
32.817181
 30
0.0
 10
85.263171
 20
32.971465
 30
0.0
 10
85.212089
 20
33.122531
 30
0.0
 10
85.153881
 20
33.270172
 30
0.0
 10
85.088793
 20
33.414189
 30
0.0
 10
85.017038
 20
33.554376
 30
0.0
 10
84.938757
 20
33.690527
 30
0.0
 10
84.854232
 20
33.822437
 30
0.0
 10
84.763639
 20
33.949903
 30
0.0
 10
84.667154
 20
34.072722
 30
0.0
 10
84.565025
 20
34.190691
 30
0.0
 10
84.457428
 20
34.303600
 30
0.0
 10
84.344539
 20
34.411250
 30
0.0
 10
84.226641
 20
34.513436
 30
0.0
 10
84.103875
 20
34.609952
 30
0.0
 10
83.976487
 20
34.700595
 30
0.0
 10
83.844654
 20
34.785159
 30
0.0
 10
83.708553
 20
34.863444
 30
0.0
 10
83.568465
 20
34.935241
 30
0.0
 10
83.424532
 20
35.000346
 30
0.0
 10
83.276965
 20
35.058558
 30
0.0
 10
83.126012
 20
35.109672
 30
0.0
 10
82.971813
 20
35.153479
 30
0.0
 10
82.814615
 20
35.189784
 30
0.0
 10
82.654631
 20
35.218373
 30
0.0
 10
82.492036
 20
35.239049
 30
0.0
 10
82.327042
 20
35.251604
 30
0.0
 10
82.159861
 20
35.255834
 30
0.0
 10
81.992556
 20
35.251604
 30
0.0
 10
81.827457
 20
35.239049
 30
0.0
 10
81.664766
 20
35.218373
 30
0.0
 10
81.504694
 20
35.189784
 30
0.0
 10
81.347436
 20
35.153479
 30
0.0
 10
81.193198
 20
35.109672
 30
0.0
 10
81.042189
 20
35.058558
 30
0.0
 10
80.894604
 20
35.000346
 30
0.0
 10
80.750650
 20
34.935241
 30
0.0
 10
80.610534
 20
34.863444
 30
0.0
 10
80.474457
 20
34.785159
 30
0.0
 10
80.342625
 20
34.700595
 30
0.0
 10
80.215233
 20
34.609952
 30
0.0
 10
80.092495
 20
34.513436
 30
0.0
 10
79.974611
 20
34.411250
 30
0.0
 10
79.861782
 20
34.303600
 30
0.0
 10
79.754213
 20
34.190691
 30
0.0
 10
79.652113
 20
34.072722
 30
0.0
 10
79.555677
 20
33.949903
 30
0.0
 10
79.465113
 20
33.822437
 30
0.0
 10
79.380622
 20
33.690527
 30
0.0
 10
79.302412
 20
33.554376
 30
0.0
 10
79.230685
 20
33.414189
 30
0.0
 10
79.165643
 20
33.270172
 30
0.0
 10
79.107490
 20
33.122531
 30
0.0
 10
79.056430
 20
32.971465
 30
0.0
 10
79.012668
 20
32.817181
 30
0.0
 10
78.976405
 20
32.659885
 30
0.0
 10
78.947847
 20
32.499777
 30
0.0
 10
78.927196
 20
32.337064
 30
0.0
 10
78.914656
 20
32.171950
 30
0.0
  0
LWPOLYLINE
  5
111
100
AcDbEntity
  8
Edge.Cuts
 62
1
100
AcDbPolyline
 90
128
 70
1
 10
64.305350
 20
32.004640
 30
0.0
 10
64.309577
 20
31.837458
 30
0.0
 10
64.322123
 20
31.672464
 30
0.0
 10
64.342783
 20
31.509863
 30
0.0
 10
64.371354
 20
31.349861
 30
0.0
 10
64.407631
 20
31.192663
 30
0.0
 10
64.451411
 20
31.038468
 30
0.0
 10
64.502489
 20
30.887490
 30
0.0
 10
64.560662
 20
30.739923
 30
0.0
 10
64.625725
 20
30.595976
 30
0.0
 10
64.697476
 20
30.455856
 30
0.0
 10
64.775708
 20
30.319766
 30
0.0
 10
64.860219
 20
30.187912
 30
0.0
 10
64.950802
 20
30.060492
 30
0.0
 10
65.047258
 20
29.937719
 30
0.0
 10
65.149380
 20
29.819789
 30
0.0
 10
65.256966
 20
29.706914
 30
0.0
 10
65.369809
 20
29.599296
 30
0.0
 10
65.487707
 20
29.497135
 30
0.0
 10
65.610456
 20
29.400644
 30
0.0
 10
65.737851
 20
29.310022
 30
0.0
 10
65.869691
 20
29.225476
 30
0.0
 10
66.005768
 20
29.147205
 30
0.0
 10
66.145880
 20
29.075418
 30
0.0
 10
66.289820
 20
29.010324
 30
0.0
 10
66.437391
 20
28.952119
 30
0.0
 10
66.588379
 20
28.901009
 30
0.0
 10
66.742592
 20
28.857204
 30
0.0
 10
66.899814
 20
28.820904
 30
0.0
 10
67.059852
 20
28.792315
 30
0.0
 10
67.222493
 20
28.771642
 30
0.0
 10
67.387536
 20
28.759086
 30
0.0
 10
67.554780
 20
28.754857
 30
0.0
 10
67.722029
 20
28.759086
 30
0.0
 10
67.887097
 20
28.771642
 30
0.0
 10
68.049762
 20
28.792315
 30
0.0
 10
68.209817
 20
28.820904
 30
0.0
 10
68.367050
 20
28.857204
 30
0.0
 10
68.521319
 20
28.901009
 30
0.0
 10
68.672343
 20
28.952119
 30
0.0
 10
68.819945
 20
29.010324
 30
0.0
 10
68.963949
 20
29.075418
 30
0.0
 10
69.104107
 20
29.147205
 30
0.0
 10
69.240244
 20
29.225476
 30
0.0
 10
69.372147
 20
29.310022
 30
0.0
 10
69.499606
 20
29.400644
 30
0.0
 10
69.622443
 20
29.497135
 30
0.0
 10
69.740376
 20
29.599296
 30
0.0
 10
69.853300
 20
29.706914
 30
0.0
 10
69.960968
 20
29.819789
 30
0.0
 10
70.063132
 20
29.937719
 30
0.0
 10
70.159652
 20
30.060492
 30
0.0
 10
70.250316
 20
30.187912
 30
0.0
 10
70.334876
 20
30.319766
 30
0.0
 10
70.413157
 20
30.455856
 30
0.0
 10
70.484983
 20
30.595976
 30
0.0
 10
70.550106
 20
30.739923
 30
0.0
 10
70.608314
 20
30.887490
 30
0.0
 10
70.659431
 20
31.038468
 30
0.0
 10
70.703246
 20
31.192663
 30
0.0
 10
70.739547
 20
31.349861
 30
0.0
 10
70.768157
 20
31.509863
 30
0.0
 10
70.788830
 20
31.672464
 30
0.0
 10
70.801389
 20
31.837458
 30
0.0
 10
70.805622
 20
32.004640
 30
0.0
 10
70.801389
 20
32.171950
 30
0.0
 10
70.788830
 20
32.337064
 30
0.0
 10
70.768157
 20
32.499777
 30
0.0
 10
70.739547
 20
32.659885
 30
0.0
 10
70.703246
 20
32.817181
 30
0.0
 10
70.659431
 20
32.971465
 30
0.0
 10
70.608314
 20
33.122531
 30
0.0
 10
70.550106
 20
33.270172
 30
0.0
 10
70.484983
 20
33.414189
 30
0.0
 10
70.413157
 20
33.554376
 30
0.0
 10
70.334876
 20
33.690527
 30
0.0
 10
70.250316
 20
33.822437
 30
0.0
 10
70.159652
 20
33.949903
 30
0.0
 10
70.063132
 20
34.072722
 30
0.0
 10
69.960968
 20
34.190691
 30
0.0
 10
69.853300
 20
34.303600
 30
0.0
 10
69.740376
 20
34.411250
 30
0.0
 10
69.622443
 20
34.513436
 30
0.0
 10
69.499606
 20
34.609952
 30
0.0
 10
69.372147
 20
34.700595
 30
0.0
 10
69.240244
 20
34.785159
 30
0.0
 10
69.104107
 20
34.863444
 30
0.0
 10
68.963949
 20
34.935241
 30
0.0
 10
68.819945
 20
35.000346
 30
0.0
 10
68.672343
 20
35.058558
 30
0.0
 10
68.521319
 20
35.109672
 30
0.0
 10
68.367050
 20
35.153479
 30
0.0
 10
68.209817
 20
35.189784
 30
0.0
 10
68.049762
 20
35.218373
 30
0.0
 10
67.887097
 20
35.239049
 30
0.0
 10
67.722029
 20
35.251604
 30
0.0
 10
67.554780
 20
35.255834
 30
0.0
 10
67.387536
 20
35.251604
 30
0.0
 10
67.222493
 20
35.239049
 30
0.0
 10
67.059852
 20
35.218373
 30
0.0
 10
66.899814
 20
35.189784
 30
0.0
 10
66.742592
 20
35.153479
 30
0.0
 10
66.588379
 20
35.109672
 30
0.0
 10
66.437391
 20
35.058558
 30
0.0
 10
66.289820
 20
35.000346
 30
0.0
 10
66.145880
 20
34.935241
 30
0.0
 10
66.005768
 20
34.863444
 30
0.0
 10
65.869691
 20
34.785159
 30
0.0
 10
65.737851
 20
34.700595
 30
0.0
 10
65.610456
 20
34.609952
 30
0.0
 10
65.487707
 20
34.513436
 30
0.0
 10
65.369809
 20
34.411250
 30
0.0
 10
65.256966
 20
34.303600
 30
0.0
 10
65.149380
 20
34.190691
 30
0.0
 10
65.047258
 20
34.072722
 30
0.0
 10
64.950802
 20
33.949903
 30
0.0
 10
64.860219
 20
33.822437
 30
0.0
 10
64.775708
 20
33.690527
 30
0.0
 10
64.697476
 20
33.554376
 30
0.0
 10
64.625725
 20
33.414189
 30
0.0
 10
64.560662
 20
33.270172
 30
0.0
 10
64.502489
 20
33.122531
 30
0.0
 10
64.451411
 20
32.971465
 30
0.0
 10
64.407631
 20
32.817181
 30
0.0
 10
64.371354
 20
32.659885
 30
0.0
 10
64.342783
 20
32.499777
 30
0.0
 10
64.322123
 20
32.337064
 30
0.0
 10
64.309577
 20
32.171950
 30
0.0
  0
LWPOLYLINE
  5
112
100
AcDbEntity
  8
Edge.Cuts
 62
1
100
AcDbPolyline
 90
128
 70
1
 10
49.700234
 20
32.004640
 30
0.0
 10
49.704462
 20
31.837458
 30
0.0
 10
49.717007
 20
31.672464
 30
0.0
 10
49.737668
 20
31.509863
 30
0.0
 10
49.766238
 20
31.349861
 30
0.0
 10
49.802515
 20
31.192663
 30
0.0
 10
49.846295
 20
31.038468
 30
0.0
 10
49.897373
 20
30.887490
 30
0.0
 10
49.955546
 20
30.739923
 30
0.0
 10
50.020609
 20
30.595976
 30
0.0
 10
50.092360
 20
30.455856
 30
0.0
 10
50.170592
 20
30.319766
 30
0.0
 10
50.255103
 20
30.187912
 30
0.0
 10
50.345686
 20
30.060492
 30
0.0
 10
50.442142
 20
29.937719
 30
0.0
 10
50.544264
 20
29.819789
 30
0.0
 10
50.651851
 20
29.706914
 30
0.0
 10
50.764694
 20
29.599296
 30
0.0
 10
50.882592
 20
29.497135
 30
0.0
 10
51.005341
 20
29.400644
 30
0.0
 10
51.132735
 20
29.310022
 30
0.0
 10
51.264575
 20
29.225476
 30
0.0
 10
51.400652
 20
29.147205
 30
0.0
 10
51.540765
 20
29.075418
 30
0.0
 10
51.684705
 20
29.010324
 30
0.0
 10
51.832275
 20
28.952119
 30
0.0
 10
51.983264
 20
28.901009
 30
0.0
 10
52.137477
 20
28.857204
 30
0.0
 10
52.294699
 20
28.820904
 30
0.0
 10
52.454736
 20
28.792315
 30
0.0
 10
52.617377
 20
28.771642
 30
0.0
 10
52.782420
 20
28.759086
 30
0.0
 10
52.949665
 20
28.754857
 30
0.0
 10
53.116973
 20
28.759086
 30
0.0
 10
53.282087
 20
28.771642
 30
0.0
 10
53.444788
 20
28.792315
 30
0.0
 10
53.604878
 20
28.820904
 30
0.0
 10
53.762146
 20
28.857204
 30
0.0
 10
53.916380
 20
28.901009
 30
0.0
 10
54.067439
 20
28.952119
 30
0.0
 10
54.215041
 20
29.010324
 30
0.0
 10
54.359010
 20
29.075418
 30
0.0
 10
54.499168
 20
29.147205
 30
0.0
 10
54.635269
 20
29.225476
 30
0.0
 10
54.767138
 20
29.310022
 30
0.0
 10
54.894561
 20
29.400644
 30
0.0
 10
55.017327
 20
29.497135
 30
0.0
 10
55.135225
 20
29.599296
 30
0.0
 10
55.248114
 20
29.706914
 30
0.0
 10
55.355711
 20
29.819789
 30
0.0
 10
55.457840
 20
29.937719
 30
0.0
 10
55.554289
 20
30.060492
 30
0.0
 10
55.644882
 20
30.187912
 30
0.0
 10
55.729408
 20
30.319766
 30
0.0
 10
55.807654
 20
30.455856
 30
0.0
 10
55.879409
 20
30.595976
 30
0.0
 10
55.944496
 20
30.739923
 30
0.0
 10
56.002669
 20
30.887490
 30
0.0
 10
56.053751
 20
31.038468
 30
0.0
 10
56.097531
 20
31.192663
 30
0.0
 10
56.133796
 20
31.349861
 30
0.0
 10
56.162371
 20
31.509863
 30
0.0
 10
56.183044
 20
31.672464
 30
0.0
 10
56.195568
 20
31.837458
 30
0.0
 10
56.199801
 20
32.004640
 30
0.0
 10
56.195568
 20
32.171950
 30
0.0
 10
56.183044
 20
32.337064
 30
0.0
 10
56.162371
 20
32.499777
 30
0.0
 10
56.133796
 20
32.659885
 30
0.0
 10
56.097531
 20
32.817181
 30
0.0
 10
56.053751
 20
32.971465
 30
0.0
 10
56.002669
 20
33.122531
 30
0.0
 10
55.944461
 20
33.270172
 30
0.0
 10
55.879409
 20
33.414189
 30
0.0
 10
55.807654
 20
33.554376
 30
0.0
 10
55.729408
 20
33.690527
 30
0.0
 10
55.644882
 20
33.822437
 30
0.0
 10
55.554289
 20
33.949903
 30
0.0
 10
55.457840
 20
34.072722
 30
0.0
 10
55.355711
 20
34.190691
 30
0.0
 10
55.248079
 20
34.303600
 30
0.0
 10
55.135225
 20
34.411250
 30
0.0
 10
55.017327
 20
34.513436
 30
0.0
 10
54.894561
 20
34.609952
 30
0.0
 10
54.767138
 20
34.700595
 30
0.0
 10
54.635269
 20
34.785159
 30
0.0
 10
54.499168
 20
34.863444
 30
0.0
 10
54.359010
 20
34.935241
 30
0.0
 10
54.215041
 20
35.000346
 30
0.0
 10
54.067439
 20
35.058558
 30
0.0
 10
53.916380
 20
35.109672
 30
0.0
 10
53.762146
 20
35.153479
 30
0.0
 10
53.604878
 20
35.189784
 30
0.0
 10
53.444788
 20
35.218373
 30
0.0
 10
53.282087
 20
35.239049
 30
0.0
 10
53.116973
 20
35.251604
 30
0.0
 10
52.949665
 20
35.255834
 30
0.0
 10
52.782420
 20
35.251604
 30
0.0
 10
52.617377
 20
35.239049
 30
0.0
 10
52.454736
 20
35.218373
 30
0.0
 10
52.294699
 20
35.189784
 30
0.0
 10
52.137477
 20
35.153479
 30
0.0
 10
51.983264
 20
35.109672
 30
0.0
 10
51.832275
 20
35.058558
 30
0.0
 10
51.684705
 20
35.000346
 30
0.0
 10
51.540765
 20
34.935241
 30
0.0
 10
51.400652
 20
34.863444
 30
0.0
 10
51.264575
 20
34.785159
 30
0.0
 10
51.132735
 20
34.700595
 30
0.0
 10
51.005341
 20
34.609952
 30
0.0
 10
50.882592
 20
34.513436
 30
0.0
 10
50.764694
 20
34.411250
 30
0.0
 10
50.651851
 20
34.303600
 30
0.0
 10
50.544264
 20
34.190691
 30
0.0
 10
50.442142
 20
34.072722
 30
0.0
 10
50.345686
 20
33.949903
 30
0.0
 10
50.255103
 20
33.822437
 30
0.0
 10
50.170592
 20
33.690527
 30
0.0
 10
50.092360
 20
33.554376
 30
0.0
 10
50.020609
 20
33.414189
 30
0.0
 10
49.955546
 20
33.270172
 30
0.0
 10
49.897373
 20
33.122531
 30
0.0
 10
49.846295
 20
32.971465
 30
0.0
 10
49.802515
 20
32.817181
 30
0.0
 10
49.766238
 20
32.659885
 30
0.0
 10
49.737668
 20
32.499777
 30
0.0
 10
49.717007
 20
32.337064
 30
0.0
 10
49.704462
 20
32.171950
 30
0.0
  0
LWPOLYLINE
  5
113
100
AcDbEntity
  8
Edge.Cuts
 62
1
100
AcDbPolyline
 90
128
 70
1
 10
35.095119
 20
32.004640
 30
0.0
 10
35.099346
 20
31.837458
 30
0.0
 10
35.111892
 20
31.672464
 30
0.0
 10
35.132552
 20
31.509863
 30
0.0
 10
35.161123
 20
31.349861
 30
0.0
 10
35.197400
 20
31.192663
 30
0.0
 10
35.241180
 20
31.038468
 30
0.0
 10
35.292258
 20
30.887490
 30
0.0
 10
35.350431
 20
30.739923
 30
0.0
 10
35.415494
 20
30.595976
 30
0.0
 10
35.487245
 20
30.455856
 30
0.0
 10
35.565477
 20
30.319766
 30
0.0
 10
35.649988
 20
30.187912
 30
0.0
 10
35.740571
 20
30.060492
 30
0.0
 10
35.837027
 20
29.937719
 30
0.0
 10
35.939149
 20
29.819789
 30
0.0
 10
36.046736
 20
29.706914
 30
0.0
 10
36.159578
 20
29.599296
 30
0.0
 10
36.277476
 20
29.497135
 30
0.0
 10
36.400225
 20
29.400644
 30
0.0
 10
36.527620
 20
29.310022
 30
0.0
 10
36.659460
 20
29.225476
 30
0.0
 10
36.795537
 20
29.147205
 30
0.0
 10
36.935649
 20
29.075418
 30
0.0
 10
37.079589
 20
29.010324
 30
0.0
 10
37.227160
 20
28.952119
 30
0.0
 10
37.378148
 20
28.901009
 30
0.0
 10
37.532361
 20
28.857204
 30
0.0
 10
37.689583
 20
28.820904
 30
0.0
 10
37.849621
 20
28.792315
 30
0.0
 10
38.012262
 20
28.771642
 30
0.0
 10
38.177305
 20
28.759086
 30
0.0
 10
38.344550
 20
28.754857
 30
0.0
 10
38.511794
 20
28.759086
 30
0.0
 10
38.676830
 20
28.771642
 30
0.0
 10
38.839496
 20
28.792315
 30
0.0
 10
38.999551
 20
28.820904
 30
0.0
 10
39.156784
 20
28.857204
 30
0.0
 10
39.311018
 20
28.901009
 30
0.0
 10
39.462042
 20
28.952119
 30
0.0
 10
39.609608
 20
29.010324
 30
0.0
 10
39.753577
 20
29.075418
 30
0.0
 10
39.893735
 20
29.147205
 30
0.0
 10
40.029837
 20
29.225476
 30
0.0
 10
40.161705
 20
29.310022
 30
0.0
 10
40.289128
 20
29.400644
 30
0.0
 10
40.411894
 20
29.497135
 30
0.0
 10
40.529828
 20
29.599296
 30
0.0
 10
40.642716
 20
29.706914
 30
0.0
 10
40.750349
 20
29.819789
 30
0.0
 10
40.852478
 20
29.937719
 30
0.0
 10
40.948962
 20
30.060492
 30
0.0
 10
41.039591
 20
30.187912
 30
0.0
 10
41.124151
 20
30.319766
 30
0.0
 10
41.202397
 20
30.455856
 30
0.0
 10
41.274188
 20
30.595976
 30
0.0
 10
41.339275
 20
30.739923
 30
0.0
 10
41.397448
 20
30.887490
 30
0.0
 10
41.448565
 20
31.038468
 30
0.0
 10
41.492345
 20
31.192663
 30
0.0
 10
41.528646
 20
31.349861
 30
0.0
 10
41.557221
 20
31.509863
 30
0.0
 10
41.577893
 20
31.672464
 30
0.0
 10
41.590452
 20
31.837458
 30
0.0
 10
41.594686
 20
32.004640
 30
0.0
 10
41.590452
 20
32.171950
 30
0.0
 10
41.577893
 20
32.337064
 30
0.0
 10
41.557221
 20
32.499777
 30
0.0
 10
41.528646
 20
32.659885
 30
0.0
 10
41.492345
 20
32.817181
 30
0.0
 10
41.448565
 20
32.971465
 30
0.0
 10
41.397448
 20
33.122531
 30
0.0
 10
41.339275
 20
33.270172
 30
0.0
 10
41.274188
 20
33.414189
 30
0.0
 10
41.202397
 20
33.554376
 30
0.0
 10
41.124151
 20
33.690527
 30
0.0
 10
41.039591
 20
33.822437
 30
0.0
 10
40.948962
 20
33.949903
 30
0.0
 10
40.852478
 20
34.072722
 30
0.0
 10
40.750349
 20
34.190691
 30
0.0
 10
40.642716
 20
34.303600
 30
0.0
 10
40.529828
 20
34.411250
 30
0.0
 10
40.411894
 20
34.513436
 30
0.0
 10
40.289128
 20
34.609952
 30
0.0
 10
40.161705
 20
34.700595
 30
0.0
 10
40.029837
 20
34.785159
 30
0.0
 10
39.893735
 20
34.863444
 30
0.0
 10
39.753577
 20
34.935241
 30
0.0
 10
39.609608
 20
35.000346
 30
0.0
 10
39.462042
 20
35.058558
 30
0.0
 10
39.311018
 20
35.109672
 30
0.0
 10
39.156784
 20
35.153479
 30
0.0
 10
38.999551
 20
35.189784
 30
0.0
 10
38.839496
 20
35.218373
 30
0.0
 10
38.676830
 20
35.239049
 30
0.0
 10
38.511794
 20
35.251604
 30
0.0
 10
38.344550
 20
35.255834
 30
0.0
 10
38.177305
 20
35.251604
 30
0.0
 10
38.012262
 20
35.239049
 30
0.0
 10
37.849621
 20
35.218373
 30
0.0
 10
37.689583
 20
35.189784
 30
0.0
 10
37.532361
 20
35.153479
 30
0.0
 10
37.378148
 20
35.109672
 30
0.0
 10
37.227160
 20
35.058558
 30
0.0
 10
37.079589
 20
35.000346
 30
0.0
 10
36.935649
 20
34.935241
 30
0.0
 10
36.795537
 20
34.863444
 30
0.0
 10
36.659460
 20
34.785159
 30
0.0
 10
36.527620
 20
34.700595
 30
0.0
 10
36.400225
 20
34.609952
 30
0.0
 10
36.277476
 20
34.513436
 30
0.0
 10
36.159578
 20
34.411250
 30
0.0
 10
36.046736
 20
34.303600
 30
0.0
 10
35.939149
 20
34.190691
 30
0.0
 10
35.837027
 20
34.072722
 30
0.0
 10
35.740571
 20
33.949903
 30
0.0
 10
35.649988
 20
33.822437
 30
0.0
 10
35.565477
 20
33.690527
 30
0.0
 10
35.487245
 20
33.554376
 30
0.0
 10
35.415494
 20
33.414189
 30
0.0
 10
35.350431
 20
33.270172
 30
0.0
 10
35.292258
 20
33.122531
 30
0.0
 10
35.241180
 20
32.971465
 30
0.0
 10
35.197400
 20
32.817181
 30
0.0
 10
35.161123
 20
32.659885
 30
0.0
 10
35.132552
 20
32.499777
 30
0.0
 10
35.111892
 20
32.337064
 30
0.0
 10
35.099346
 20
32.171950
 30
0.0
  0
LWPOLYLINE
  5
114
100
AcDbEntity
  8
Edge.Cuts
 62
1
100
AcDbPolyline
 90
128
 70
1
 10
20.490003
 20
32.004640
 30
0.0
 10
20.494230
 20
31.837458
 30
0.0
 10
20.506776
 20
31.672464
 30
0.0
 10
20.527436
 20
31.509863
 30
0.0
 10
20.556007
 20
31.349861
 30
0.0
 10
20.592284
 20
31.192663
 30
0.0
 10
20.636064
 20
31.038468
 30
0.0
 10
20.687142
 20
30.887490
 30
0.0
 10
20.745315
 20
30.739923
 30
0.0
 10
20.810378
 20
30.595976
 30
0.0
 10
20.882129
 20
30.455856
 30
0.0
 10
20.960361
 20
30.319766
 30
0.0
 10
21.044872
 20
30.187912
 30
0.0
 10
21.135455
 20
30.060492
 30
0.0
 10
21.231911
 20
29.937719
 30
0.0
 10
21.334033
 20
29.819789
 30
0.0
 10
21.441620
 20
29.706914
 30
0.0
 10
21.554462
 20
29.599296
 30
0.0
 10
21.672360
 20
29.497135
 30
0.0
 10
21.795109
 20
29.400644
 30
0.0
 10
21.922504
 20
29.310022
 30
0.0
 10
22.054344
 20
29.225476
 30
0.0
 10
22.190421
 20
29.147205
 30
0.0
 10
22.330533
 20
29.075418
 30
0.0
 10
22.474473
 20
29.010324
 30
0.0
 10
22.622044
 20
28.952119
 30
0.0
 10
22.773032
 20
28.901009
 30
0.0
 10
22.927245
 20
28.857204
 30
0.0
 10
23.084468
 20
28.820904
 30
0.0
 10
23.244505
 20
28.792315
 30
0.0
 10
23.407146
 20
28.771642
 30
0.0
 10
23.572189
 20
28.759086
 30
0.0
 10
23.739434
 20
28.754857
 30
0.0
 10
23.906742
 20
28.759086
 30
0.0
 10
24.071856
 20
28.771642
 30
0.0
 10
24.234556
 20
28.792315
 30
0.0
 10
24.394647
 20
28.820904
 30
0.0
 10
24.551915
 20
28.857204
 30
0.0
 10
24.706149
 20
28.901009
 30
0.0
 10
24.857208
 20
28.952119
 30
0.0
 10
25.004810
 20
29.010324
 30
0.0
 10
25.148778
 20
29.075418
 30
0.0
 10
25.288937
 20
29.147205
 30
0.0
 10
25.425038
 20
29.225476
 30
0.0
 10
25.556906
 20
29.310022
 30
0.0
 10
25.684329
 20
29.400644
 30
0.0
 10
25.807096
 20
29.497135
 30
0.0
 10
25.924994
 20
29.599296
 30
0.0
 10
26.037883
 20
29.706914
 30
0.0
 10
26.145480
 20
29.819789
 30
0.0
 10
26.247609
 20
29.937719
 30
0.0
 10
26.344058
 20
30.060492
 30
0.0
 10
26.434651
 20
30.187912
 30
0.0
 10
26.519177
 20
30.319766
 30
0.0
 10
26.597422
 20
30.455856
 30
0.0
 10
26.669177
 20
30.595976
 30
0.0
 10
26.734265
 20
30.739923
 30
0.0
 10
26.792438
 20
30.887490
 30
0.0
 10
26.843520
 20
31.038468
 30
0.0
 10
26.887299
 20
31.192663
 30
0.0
 10
26.923565
 20
31.349861
 30
0.0
 10
26.952140
 20
31.509863
 30
0.0
 10
26.972813
 20
31.672464
 30
0.0
 10
26.985336
 20
31.837458
 30
0.0
 10
26.989570
 20
32.004640
 30
0.0
 10
26.985336
 20
32.171950
 30
0.0
 10
26.972813
 20
32.337064
 30
0.0
 10
26.952140
 20
32.499777
 30
0.0
 10
26.923565
 20
32.659885
 30
0.0
 10
26.887299
 20
32.817181
 30
0.0
 10
26.843520
 20
32.971465
 30
0.0
 10
26.792438
 20
33.122531
 30
0.0
 10
26.734229
 20
33.270172
 30
0.0
 10
26.669177
 20
33.414189
 30
0.0
 10
26.597422
 20
33.554376
 30
0.0
 10
26.519177
 20
33.690527
 30
0.0
 10
26.434651
 20
33.822437
 30
0.0
 10
26.344058
 20
33.949903
 30
0.0
 10
26.247609
 20
34.072722
 30
0.0
 10
26.145480
 20
34.190691
 30
0.0
 10
26.037847
 20
34.303600
 30
0.0
 10
25.924994
 20
34.411250
 30
0.0
 10
25.807096
 20
34.513436
 30
0.0
 10
25.684329
 20
34.609952
 30
0.0
 10
25.556906
 20
34.700595
 30
0.0
 10
25.425038
 20
34.785159
 30
0.0
 10
25.288937
 20
34.863444
 30
0.0
 10
25.148778
 20
34.935241
 30
0.0
 10
25.004810
 20
35.000346
 30
0.0
 10
24.857208
 20
35.058558
 30
0.0
 10
24.706149
 20
35.109672
 30
0.0
 10
24.551915
 20
35.153479
 30
0.0
 10
24.394647
 20
35.189784
 30
0.0
 10
24.234556
 20
35.218373
 30
0.0
 10
24.071856
 20
35.239049
 30
0.0
 10
23.906742
 20
35.251604
 30
0.0
 10
23.739434
 20
35.255834
 30
0.0
 10
23.572189
 20
35.251604
 30
0.0
 10
23.407146
 20
35.239049
 30
0.0
 10
23.244505
 20
35.218373
 30
0.0
 10
23.084468
 20
35.189784
 30
0.0
 10
22.927245
 20
35.153479
 30
0.0
 10
22.773032
 20
35.109672
 30
0.0
 10
22.622044
 20
35.058558
 30
0.0
 10
22.474473
 20
35.000346
 30
0.0
 10
22.330533
 20
34.935241
 30
0.0
 10
22.190421
 20
34.863444
 30
0.0
 10
22.054344
 20
34.785159
 30
0.0
 10
21.922504
 20
34.700595
 30
0.0
 10
21.795109
 20
34.609952
 30
0.0
 10
21.672360
 20
34.513436
 30
0.0
 10
21.554462
 20
34.411250
 30
0.0
 10
21.441620
 20
34.303600
 30
0.0
 10
21.334033
 20
34.190691
 30
0.0
 10
21.231911
 20
34.072722
 30
0.0
 10
21.135455
 20
33.949903
 30
0.0
 10
21.044872
 20
33.822437
 30
0.0
 10
20.960361
 20
33.690527
 30
0.0
 10
20.882129
 20
33.554376
 30
0.0
 10
20.810378
 20
33.414189
 30
0.0
 10
20.745315
 20
33.270172
 30
0.0
 10
20.687142
 20
33.122531
 30
0.0
 10
20.636064
 20
32.971465
 30
0.0
 10
20.592284
 20
32.817181
 30
0.0
 10
20.556007
 20
32.659885
 30
0.0
 10
20.527436
 20
32.499777
 30
0.0
 10
20.506776
 20
32.337064
 30
0.0
 10
20.494230
 20
32.171950
 30
0.0
  0
LWPOLYLINE
  5
115
100
AcDbEntity
  8
Edge.Cuts
 62
1
100
AcDbPolyline
 90
128
 70
1
 10
5.884182
 20
32.004640
 30
0.0
 10
5.888411
 20
31.837458
 30
0.0
 10
5.900963
 20
31.672464
 30
0.0
 10
5.921633
 20
31.509863
 30
0.0
 10
5.950218
 20
31.349861
 30
0.0
 10
5.986512
 20
31.192663
 30
0.0
 10
6.030312
 20
31.038468
 30
0.0
 10
6.081415
 20
30.887490
 30
0.0
 10
6.139615
 20
30.739923
 30
0.0
 10
6.204708
 20
30.595976
 30
0.0
 10
6.276491
 20
30.455856
 30
0.0
 10
6.354758
 20
30.319766
 30
0.0
 10
6.439309
 20
30.187912
 30
0.0
 10
6.529937
 20
30.060492
 30
0.0
 10
6.626436
 20
29.937719
 30
0.0
 10
6.728607
 20
29.819789
 30
0.0
 10
6.836239
 20
29.706914
 30
0.0
 10
6.949135
 20
29.599296
 30
0.0
 10
7.067086
 20
29.497135
 30
0.0
 10
7.189888
 20
29.400644
 30
0.0
 10
7.317339
 20
29.310022
 30
0.0
 10
7.449236
 20
29.225476
 30
0.0
 10
7.585372
 20
29.147205
 30
0.0
 10
7.725541
 20
29.075418
 30
0.0
 10
7.869545
 20
29.010324
 30
0.0
 10
8.017179
 20
28.952119
 30
0.0
 10
8.168231
 20
28.901009
 30
0.0
 10
8.322507
 20
28.857204
 30
0.0
 10
8.479796
 20
28.820904
 30
0.0
 10
8.639897
 20
28.792315
 30
0.0
 10
8.802605
 20
28.771642
 30
0.0
 10
8.967715
 20
28.759086
 30
0.0
 10
9.135024
 20
28.754857
 30
0.0
 10
9.302268
 20
28.759086
 30
0.0
 10
9.467304
 20
28.771642
 30
0.0
 10
9.629970
 20
28.792315
 30
0.0
 10
9.789990
 20
28.820904
 30
0.0
 10
9.947222
 20
28.857204
 30
0.0
 10
10.101421
 20
28.901009
 30
0.0
 10
10.252410
 20
28.952119
 30
0.0
 10
10.399977
 20
29.010324
 30
0.0
 10
10.543910
 20
29.075418
 30
0.0
 10
10.684033
 20
29.147205
 30
0.0
 10
10.820099
 20
29.225476
 30
0.0
 10
10.951967
 20
29.310022
 30
0.0
 10
11.079355
 20
29.400644
 30
0.0
 10
11.202086
 20
29.497135
 30
0.0
 10
11.319984
 20
29.599296
 30
0.0
 10
11.432838
 20
29.706914
 30
0.0
 10
11.540435
 20
29.819789
 30
0.0
 10
11.642528
 20
29.937719
 30
0.0
 10
11.739013
 20
30.060492
 30
0.0
 10
11.829571
 20
30.187912
 30
0.0
 10
11.914096
 20
30.319766
 30
0.0
 10
11.992342
 20
30.455856
 30
0.0
 10
12.064062
 20
30.595976
 30
0.0
 10
12.129149
 20
30.739923
 30
0.0
 10
12.187322
 20
30.887490
 30
0.0
 10
12.238404
 20
31.038468
 30
0.0
 10
12.282184
 20
31.192663
 30
0.0
 10
12.318449
 20
31.349861
 30
0.0
 10
12.347024
 20
31.509863
 30
0.0
 10
12.367697
 20
31.672464
 30
0.0
 10
12.380221
 20
31.837458
 30
0.0
 10
12.384454
 20
32.004640
 30
0.0
 10
12.380221
 20
32.171950
 30
0.0
 10
12.367697
 20
32.337064
 30
0.0
 10
12.347024
 20
32.499777
 30
0.0
 10
12.318449
 20
32.659885
 30
0.0
 10
12.282184
 20
32.817181
 30
0.0
 10
12.238404
 20
32.971465
 30
0.0
 10
12.187322
 20
33.122531
 30
0.0
 10
12.129149
 20
33.270172
 30
0.0
 10
12.064062
 20
33.414189
 30
0.0
 10
11.992342
 20
33.554376
 30
0.0
 10
11.914096
 20
33.690527
 30
0.0
 10
11.829571
 20
33.822437
 30
0.0
 10
11.739013
 20
33.949903
 30
0.0
 10
11.642528
 20
34.072722
 30
0.0
 10
11.540435
 20
34.190691
 30
0.0
 10
11.432838
 20
34.303600
 30
0.0
 10
11.319984
 20
34.411250
 30
0.0
 10
11.202086
 20
34.513436
 30
0.0
 10
11.079355
 20
34.609952
 30
0.0
 10
10.951967
 20
34.700595
 30
0.0
 10
10.820099
 20
34.785159
 30
0.0
 10
10.684033
 20
34.863444
 30
0.0
 10
10.543910
 20
34.935241
 30
0.0
 10
10.399977
 20
35.000346
 30
0.0
 10
10.252410
 20
35.058558
 30
0.0
 10
10.101421
 20
35.109672
 30
0.0
 10
9.947222
 20
35.153479
 30
0.0
 10
9.789990
 20
35.189784
 30
0.0
 10
9.629970
 20
35.218373
 30
0.0
 10
9.467304
 20
35.239049
 30
0.0
 10
9.302268
 20
35.251604
 30
0.0
 10
9.135024
 20
35.255834
 30
0.0
 10
8.967715
 20
35.251604
 30
0.0
 10
8.802605
 20
35.239049
 30
0.0
 10
8.639897
 20
35.218373
 30
0.0
 10
8.479796
 20
35.189784
 30
0.0
 10
8.322507
 20
35.153479
 30
0.0
 10
8.168231
 20
35.109672
 30
0.0
 10
8.017179
 20
35.058558
 30
0.0
 10
7.869545
 20
35.000346
 30
0.0
 10
7.725541
 20
34.935241
 30
0.0
 10
7.585372
 20
34.863444
 30
0.0
 10
7.449236
 20
34.785159
 30
0.0
 10
7.317339
 20
34.700595
 30
0.0
 10
7.189888
 20
34.609952
 30
0.0
 10
7.067086
 20
34.513436
 30
0.0
 10
6.949135
 20
34.411250
 30
0.0
 10
6.836239
 20
34.303600
 30
0.0
 10
6.728607
 20
34.190691
 30
0.0
 10
6.626436
 20
34.072722
 30
0.0
 10
6.529937
 20
33.949903
 30
0.0
 10
6.439309
 20
33.822437
 30
0.0
 10
6.354758
 20
33.690527
 30
0.0
 10
6.276491
 20
33.554376
 30
0.0
 10
6.204708
 20
33.414189
 30
0.0
 10
6.139615
 20
33.270172
 30
0.0
 10
6.081415
 20
33.122531
 30
0.0
 10
6.030312
 20
32.971465
 30
0.0
 10
5.986512
 20
32.817181
 30
0.0
 10
5.950218
 20
32.659885
 30
0.0
 10
5.921633
 20
32.499777
 30
0.0
 10
5.900963
 20
32.337064
 30
0.0
 10
5.888411
 20
32.171950
 30
0.0
  0
LWPOLYLINE
  5
116
100
AcDbEntity
  8
Edge.Cuts
 62
1
100
AcDbPolyline
 90
128
 70
1
 10
5.884182
 20
17.400232
 30
0.0
 10
5.888411
 20
17.233082
 30
0.0
 10
5.900963
 20
17.068118
 30
0.0
 10
5.921633
 20
16.905547
 30
0.0
 10
5.950218
 20
16.745569
 30
0.0
 10
5.986512
 20
16.588396
 30
0.0
 10
6.030312
 20
16.434226
 30
0.0
 10
6.081415
 20
16.283265
 30
0.0
 10
6.139615
 20
16.135720
 30
0.0
 10
6.204708
 20
15.991790
 30
0.0
 10
6.276491
 20
15.851688
 30
0.0
 10
6.354758
 20
15.715612
 30
0.0
 10
6.439309
 20
15.583768
 30
0.0
 10
6.529937
 20
15.456363
 30
0.0
 10
6.626436
 20
15.333600
 30
0.0
 10
6.728607
 20
15.215681
 30
0.0
 10
6.836239
 20
15.102813
 30
0.0
 10
6.949135
 20
14.995202
 30
0.0
 10
7.067086
 20
14.893052
 30
0.0
 10
7.189888
 20
14.796567
 30
0.0
 10
7.317339
 20
14.705949
 30
0.0
 10
7.449236
 20
14.621403
 30
0.0
 10
7.585372
 20
14.543139
 30
0.0
 10
7.725541
 20
14.471356
 30
0.0
 10
7.869545
 20
14.406262
 30
0.0
 10
8.017179
 20
14.348060
 30
0.0
 10
8.168231
 20
14.296954
 30
0.0
 10
8.322507
 20
14.253149
 30
0.0
 10
8.479796
 20
14.216848
 30
0.0
 10
8.639897
 20
14.188259
 30
0.0
 10
8.802605
 20
14.167587
 30
0.0
 10
8.967715
 20
14.155031
 30
0.0
 10
9.135024
 20
14.150802
 30
0.0
 10
9.302268
 20
14.155031
 30
0.0
 10
9.467304
 20
14.167587
 30
0.0
 10
9.629970
 20
14.188259
 30
0.0
 10
9.789990
 20
14.216848
 30
0.0
 10
9.947222
 20
14.253149
 30
0.0
 10
10.101421
 20
14.296954
 30
0.0
 10
10.252410
 20
14.348060
 30
0.0
 10
10.399977
 20
14.406262
 30
0.0
 10
10.543910
 20
14.471356
 30
0.0
 10
10.684033
 20
14.543139
 30
0.0
 10
10.820099
 20
14.621403
 30
0.0
 10
10.951967
 20
14.705949
 30
0.0
 10
11.079355
 20
14.796567
 30
0.0
 10
11.202086
 20
14.893052
 30
0.0
 10
11.319984
 20
14.995202
 30
0.0
 10
11.432838
 20
15.102813
 30
0.0
 10
11.540435
 20
15.215681
 30
0.0
 10
11.642528
 20
15.333600
 30
0.0
 10
11.739013
 20
15.456363
 30
0.0
 10
11.829571
 20
15.583768
 30
0.0
 10
11.914096
 20
15.715612
 30
0.0
 10
11.992342
 20
15.851688
 30
0.0
 10
12.064062
 20
15.991790
 30
0.0
 10
12.129149
 20
16.135720
 30
0.0
 10
12.187322
 20
16.283265
 30
0.0
 10
12.238404
 20
16.434226
 30
0.0
 10
12.282184
 20
16.588396
 30
0.0
 10
12.318449
 20
16.745569
 30
0.0
 10
12.347024
 20
16.905547
 30
0.0
 10
12.367697
 20
17.068118
 30
0.0
 10
12.380221
 20
17.233082
 30
0.0
 10
12.384454
 20
17.400232
 30
0.0
 10
12.380221
 20
17.567414
 30
0.0
 10
12.367697
 20
17.732408
 30
0.0
 10
12.347024
 20
17.895009
 30
0.0
 10
12.318449
 20
18.055011
 30
0.0
 10
12.282184
 20
18.212209
 30
0.0
 10
12.238404
 20
18.366404
 30
0.0
 10
12.187322
 20
18.517382
 30
0.0
 10
12.129149
 20
18.664949
 30
0.0
 10
12.064062
 20
18.808896
 30
0.0
 10
11.992342
 20
18.949015
 30
0.0
 10
11.914096
 20
19.085106
 30
0.0
 10
11.829571
 20
19.216960
 30
0.0
 10
11.739013
 20
19.344380
 30
0.0
 10
11.642528
 20
19.467153
 30
0.0
 10
11.540435
 20
19.585083
 30
0.0
 10
11.432838
 20
19.697958
 30
0.0
 10
11.319984
 20
19.805576
 30
0.0
 10
11.202086
 20
19.907737
 30
0.0
 10
11.079355
 20
20.004228
 30
0.0
 10
10.951967
 20
20.094850
 30
0.0
 10
10.820099
 20
20.179396
 30
0.0
 10
10.684033
 20
20.257667
 30
0.0
 10
10.543910
 20
20.329454
 30
0.0
 10
10.399977
 20
20.394548
 30
0.0
 10
10.252410
 20
20.452753
 30
0.0
 10
10.101421
 20
20.503863
 30
0.0
 10
9.947222
 20
20.547667
 30
0.0
 10
9.789990
 20
20.583968
 30
0.0
 10
9.629970
 20
20.612557
 30
0.0
 10
9.467304
 20
20.633230
 30
0.0
 10
9.302268
 20
20.645785
 30
0.0
 10
9.135024
 20
20.650015
 30
0.0
 10
8.967715
 20
20.645785
 30
0.0
 10
8.802605
 20
20.633230
 30
0.0
 10
8.639897
 20
20.612557
 30
0.0
 10
8.479796
 20
20.583968
 30
0.0
 10
8.322507
 20
20.547667
 30
0.0
 10
8.168231
 20
20.503863
 30
0.0
 10
8.017179
 20
20.452753
 30
0.0
 10
7.869545
 20
20.394548
 30
0.0
 10
7.725541
 20
20.329454
 30
0.0
 10
7.585372
 20
20.257667
 30
0.0
 10
7.449236
 20
20.179396
 30
0.0
 10
7.317339
 20
20.094850
 30
0.0
 10
7.189888
 20
20.004228
 30
0.0
 10
7.067086
 20
19.907737
 30
0.0
 10
6.949135
 20
19.805576
 30
0.0
 10
6.836239
 20
19.697958
 30
0.0
 10
6.728607
 20
19.585083
 30
0.0
 10
6.626436
 20
19.467153
 30
0.0
 10
6.529937
 20
19.344380
 30
0.0
 10
6.439309
 20
19.216960
 30
0.0
 10
6.354758
 20
19.085106
 30
0.0
 10
6.276491
 20
18.949015
 30
0.0
 10
6.204708
 20
18.808896
 30
0.0
 10
6.139615
 20
18.664949
 30
0.0
 10
6.081415
 20
18.517382
 30
0.0
 10
6.030312
 20
18.366404
 30
0.0
 10
5.986512
 20
18.212209
 30
0.0
 10
5.950218
 20
18.055011
 30
0.0
 10
5.921633
 20
17.895009
 30
0.0
 10
5.900963
 20
17.732408
 30
0.0
 10
5.888411
 20
17.567414
 30
0.0
  0
LWPOLYLINE
  5
117
100
AcDbEntity
  8
Edge.Cuts
 62
1
100
AcDbPolyline
 90
128
 70
1
 10
20.490003
 20
17.400232
 30
0.0
 10
20.494230
 20
17.233082
 30
0.0
 10
20.506776
 20
17.068118
 30
0.0
 10
20.527436
 20
16.905547
 30
0.0
 10
20.556007
 20
16.745569
 30
0.0
 10
20.592284
 20
16.588396
 30
0.0
 10
20.636064
 20
16.434226
 30
0.0
 10
20.687142
 20
16.283265
 30
0.0
 10
20.745315
 20
16.135720
 30
0.0
 10
20.810378
 20
15.991790
 30
0.0
 10
20.882129
 20
15.851688
 30
0.0
 10
20.960361
 20
15.715612
 30
0.0
 10
21.044872
 20
15.583768
 30
0.0
 10
21.135455
 20
15.456363
 30
0.0
 10
21.231911
 20
15.333600
 30
0.0
 10
21.334033
 20
15.215681
 30
0.0
 10
21.441620
 20
15.102813
 30
0.0
 10
21.554462
 20
14.995202
 30
0.0
 10
21.672360
 20
14.893052
 30
0.0
 10
21.795109
 20
14.796567
 30
0.0
 10
21.922504
 20
14.705949
 30
0.0
 10
22.054344
 20
14.621403
 30
0.0
 10
22.190421
 20
14.543139
 30
0.0
 10
22.330533
 20
14.471356
 30
0.0
 10
22.474473
 20
14.406262
 30
0.0
 10
22.622044
 20
14.348060
 30
0.0
 10
22.773032
 20
14.296954
 30
0.0
 10
22.927245
 20
14.253149
 30
0.0
 10
23.084468
 20
14.216848
 30
0.0
 10
23.244505
 20
14.188259
 30
0.0
 10
23.407146
 20
14.167587
 30
0.0
 10
23.572189
 20
14.155031
 30
0.0
 10
23.739434
 20
14.150802
 30
0.0
 10
23.906742
 20
14.155031
 30
0.0
 10
24.071856
 20
14.167587
 30
0.0
 10
24.234556
 20
14.188259
 30
0.0
 10
24.394647
 20
14.216848
 30
0.0
 10
24.551915
 20
14.253149
 30
0.0
 10
24.706149
 20
14.296954
 30
0.0
 10
24.857208
 20
14.348060
 30
0.0
 10
25.004810
 20
14.406262
 30
0.0
 10
25.148778
 20
14.471356
 30
0.0
 10
25.288937
 20
14.543139
 30
0.0
 10
25.425038
 20
14.621403
 30
0.0
 10
25.556906
 20
14.705949
 30
0.0
 10
25.684329
 20
14.796567
 30
0.0
 10
25.807096
 20
14.893052
 30
0.0
 10
25.924994
 20
14.995202
 30
0.0
 10
26.037883
 20
15.102813
 30
0.0
 10
26.145480
 20
15.215681
 30
0.0
 10
26.247609
 20
15.333600
 30
0.0
 10
26.344058
 20
15.456363
 30
0.0
 10
26.434651
 20
15.583768
 30
0.0
 10
26.519177
 20
15.715612
 30
0.0
 10
26.597422
 20
15.851688
 30
0.0
 10
26.669177
 20
15.991790
 30
0.0
 10
26.734265
 20
16.135720
 30
0.0
 10
26.792438
 20
16.283265
 30
0.0
 10
26.843520
 20
16.434226
 30
0.0
 10
26.887299
 20
16.588396
 30
0.0
 10
26.923565
 20
16.745569
 30
0.0
 10
26.952140
 20
16.905547
 30
0.0
 10
26.972813
 20
17.068118
 30
0.0
 10
26.985336
 20
17.233082
 30
0.0
 10
26.989570
 20
17.400232
 30
0.0
 10
26.985336
 20
17.567414
 30
0.0
 10
26.972813
 20
17.732408
 30
0.0
 10
26.952140
 20
17.895009
 30
0.0
 10
26.923565
 20
18.055011
 30
0.0
 10
26.887299
 20
18.212209
 30
0.0
 10
26.843520
 20
18.366404
 30
0.0
 10
26.792438
 20
18.517382
 30
0.0
 10
26.734229
 20
18.664949
 30
0.0
 10
26.669177
 20
18.808896
 30
0.0
 10
26.597422
 20
18.949015
 30
0.0
 10
26.519177
 20
19.085106
 30
0.0
 10
26.434651
 20
19.216960
 30
0.0
 10
26.344058
 20
19.344380
 30
0.0
 10
26.247609
 20
19.467153
 30
0.0
 10
26.145480
 20
19.585083
 30
0.0
 10
26.037847
 20
19.697958
 30
0.0
 10
25.924994
 20
19.805576
 30
0.0
 10
25.807096
 20
19.907737
 30
0.0
 10
25.684329
 20
20.004228
 30
0.0
 10
25.556906
 20
20.094850
 30
0.0
 10
25.425038
 20
20.179396
 30
0.0
 10
25.288937
 20
20.257667
 30
0.0
 10
25.148778
 20
20.329454
 30
0.0
 10
25.004810
 20
20.394548
 30
0.0
 10
24.857208
 20
20.452753
 30
0.0
 10
24.706149
 20
20.503863
 30
0.0
 10
24.551915
 20
20.547667
 30
0.0
 10
24.394647
 20
20.583968
 30
0.0
 10
24.234556
 20
20.612557
 30
0.0
 10
24.071856
 20
20.633230
 30
0.0
 10
23.906742
 20
20.645785
 30
0.0
 10
23.739434
 20
20.650015
 30
0.0
 10
23.572189
 20
20.645785
 30
0.0
 10
23.407146
 20
20.633230
 30
0.0
 10
23.244505
 20
20.612557
 30
0.0
 10
23.084468
 20
20.583968
 30
0.0
 10
22.927245
 20
20.547667
 30
0.0
 10
22.773032
 20
20.503863
 30
0.0
 10
22.622044
 20
20.452753
 30
0.0
 10
22.474473
 20
20.394548
 30
0.0
 10
22.330533
 20
20.329454
 30
0.0
 10
22.190421
 20
20.257667
 30
0.0
 10
22.054344
 20
20.179396
 30
0.0
 10
21.922504
 20
20.094850
 30
0.0
 10
21.795109
 20
20.004228
 30
0.0
 10
21.672360
 20
19.907737
 30
0.0
 10
21.554462
 20
19.805576
 30
0.0
 10
21.441620
 20
19.697958
 30
0.0
 10
21.334033
 20
19.585083
 30
0.0
 10
21.231911
 20
19.467153
 30
0.0
 10
21.135455
 20
19.344380
 30
0.0
 10
21.044872
 20
19.216960
 30
0.0
 10
20.960361
 20
19.085106
 30
0.0
 10
20.882129
 20
18.949015
 30
0.0
 10
20.810378
 20
18.808896
 30
0.0
 10
20.745315
 20
18.664949
 30
0.0
 10
20.687142
 20
18.517382
 30
0.0
 10
20.636064
 20
18.366404
 30
0.0
 10
20.592284
 20
18.212209
 30
0.0
 10
20.556007
 20
18.055011
 30
0.0
 10
20.527436
 20
17.895009
 30
0.0
 10
20.506776
 20
17.732408
 30
0.0
 10
20.494230
 20
17.567414
 30
0.0
  0
LWPOLYLINE
  5
118
100
AcDbEntity
  8
Edge.Cuts
 62
1
100
AcDbPolyline
 90
128
 70
1
 10
35.095119
 20
17.400232
 30
0.0
 10
35.099346
 20
17.233082
 30
0.0
 10
35.111892
 20
17.068118
 30
0.0
 10
35.132552
 20
16.905547
 30
0.0
 10
35.161123
 20
16.745569
 30
0.0
 10
35.197400
 20
16.588396
 30
0.0
 10
35.241180
 20
16.434226
 30
0.0
 10
35.292258
 20
16.283265
 30
0.0
 10
35.350431
 20
16.135720
 30
0.0
 10
35.415494
 20
15.991790
 30
0.0
 10
35.487245
 20
15.851688
 30
0.0
 10
35.565477
 20
15.715612
 30
0.0
 10
35.649988
 20
15.583768
 30
0.0
 10
35.740571
 20
15.456363
 30
0.0
 10
35.837027
 20
15.333600
 30
0.0
 10
35.939149
 20
15.215681
 30
0.0
 10
36.046736
 20
15.102813
 30
0.0
 10
36.159578
 20
14.995202
 30
0.0
 10
36.277476
 20
14.893052
 30
0.0
 10
36.400225
 20
14.796567
 30
0.0
 10
36.527620
 20
14.705949
 30
0.0
 10
36.659460
 20
14.621403
 30
0.0
 10
36.795537
 20
14.543139
 30
0.0
 10
36.935649
 20
14.471356
 30
0.0
 10
37.079589
 20
14.406262
 30
0.0
 10
37.227160
 20
14.348060
 30
0.0
 10
37.378148
 20
14.296954
 30
0.0
 10
37.532361
 20
14.253149
 30
0.0
 10
37.689583
 20
14.216848
 30
0.0
 10
37.849621
 20
14.188259
 30
0.0
 10
38.012262
 20
14.167587
 30
0.0
 10
38.177305
 20
14.155031
 30
0.0
 10
38.344550
 20
14.150802
 30
0.0
 10
38.511794
 20
14.155031
 30
0.0
 10
38.676830
 20
14.167587
 30
0.0
 10
38.839496
 20
14.188259
 30
0.0
 10
38.999551
 20
14.216848
 30
0.0
 10
39.156784
 20
14.253149
 30
0.0
 10
39.311018
 20
14.296954
 30
0.0
 10
39.462042
 20
14.348060
 30
0.0
 10
39.609608
 20
14.406262
 30
0.0
 10
39.753577
 20
14.471356
 30
0.0
 10
39.893735
 20
14.543139
 30
0.0
 10
40.029837
 20
14.621403
 30
0.0
 10
40.161705
 20
14.705949
 30
0.0
 10
40.289128
 20
14.796567
 30
0.0
 10
40.411894
 20
14.893052
 30
0.0
 10
40.529828
 20
14.995202
 30
0.0
 10
40.642716
 20
15.102813
 30
0.0
 10
40.750349
 20
15.215681
 30
0.0
 10
40.852478
 20
15.333600
 30
0.0
 10
40.948962
 20
15.456363
 30
0.0
 10
41.039591
 20
15.583768
 30
0.0
 10
41.124151
 20
15.715612
 30
0.0
 10
41.202397
 20
15.851688
 30
0.0
 10
41.274188
 20
15.991790
 30
0.0
 10
41.339275
 20
16.135720
 30
0.0
 10
41.397448
 20
16.283265
 30
0.0
 10
41.448565
 20
16.434226
 30
0.0
 10
41.492345
 20
16.588396
 30
0.0
 10
41.528646
 20
16.745569
 30
0.0
 10
41.557221
 20
16.905547
 30
0.0
 10
41.577893
 20
17.068118
 30
0.0
 10
41.590452
 20
17.233082
 30
0.0
 10
41.594686
 20
17.400232
 30
0.0
 10
41.590452
 20
17.567414
 30
0.0
 10
41.577893
 20
17.732408
 30
0.0
 10
41.557221
 20
17.895009
 30
0.0
 10
41.528646
 20
18.055011
 30
0.0
 10
41.492345
 20
18.212209
 30
0.0
 10
41.448565
 20
18.366404
 30
0.0
 10
41.397448
 20
18.517382
 30
0.0
 10
41.339275
 20
18.664949
 30
0.0
 10
41.274188
 20
18.808896
 30
0.0
 10
41.202397
 20
18.949015
 30
0.0
 10
41.124151
 20
19.085106
 30
0.0
 10
41.039591
 20
19.216960
 30
0.0
 10
40.948962
 20
19.344380
 30
0.0
 10
40.852478
 20
19.467153
 30
0.0
 10
40.750349
 20
19.585083
 30
0.0
 10
40.642716
 20
19.697958
 30
0.0
 10
40.529828
 20
19.805576
 30
0.0
 10
40.411894
 20
19.907737
 30
0.0
 10
40.289128
 20
20.004228
 30
0.0
 10
40.161705
 20
20.094850
 30
0.0
 10
40.029837
 20
20.179396
 30
0.0
 10
39.893735
 20
20.257667
 30
0.0
 10
39.753577
 20
20.329454
 30
0.0
 10
39.609608
 20
20.394548
 30
0.0
 10
39.462042
 20
20.452753
 30
0.0
 10
39.311018
 20
20.503863
 30
0.0
 10
39.156784
 20
20.547667
 30
0.0
 10
38.999551
 20
20.583968
 30
0.0
 10
38.839496
 20
20.612557
 30
0.0
 10
38.676830
 20
20.633230
 30
0.0
 10
38.511794
 20
20.645785
 30
0.0
 10
38.344550
 20
20.650015
 30
0.0
 10
38.177305
 20
20.645785
 30
0.0
 10
38.012262
 20
20.633230
 30
0.0
 10
37.849621
 20
20.612557
 30
0.0
 10
37.689583
 20
20.583968
 30
0.0
 10
37.532361
 20
20.547667
 30
0.0
 10
37.378148
 20
20.503863
 30
0.0
 10
37.227160
 20
20.452753
 30
0.0
 10
37.079589
 20
20.394548
 30
0.0
 10
36.935649
 20
20.329454
 30
0.0
 10
36.795537
 20
20.257667
 30
0.0
 10
36.659460
 20
20.179396
 30
0.0
 10
36.527620
 20
20.094850
 30
0.0
 10
36.400225
 20
20.004228
 30
0.0
 10
36.277476
 20
19.907737
 30
0.0
 10
36.159578
 20
19.805576
 30
0.0
 10
36.046736
 20
19.697958
 30
0.0
 10
35.939149
 20
19.585083
 30
0.0
 10
35.837027
 20
19.467153
 30
0.0
 10
35.740571
 20
19.344380
 30
0.0
 10
35.649988
 20
19.216960
 30
0.0
 10
35.565477
 20
19.085106
 30
0.0
 10
35.487245
 20
18.949015
 30
0.0
 10
35.415494
 20
18.808896
 30
0.0
 10
35.350431
 20
18.664949
 30
0.0
 10
35.292258
 20
18.517382
 30
0.0
 10
35.241180
 20
18.366404
 30
0.0
 10
35.197400
 20
18.212209
 30
0.0
 10
35.161123
 20
18.055011
 30
0.0
 10
35.132552
 20
17.895009
 30
0.0
 10
35.111892
 20
17.732408
 30
0.0
 10
35.099346
 20
17.567414
 30
0.0
  0
LWPOLYLINE
  5
119
100
AcDbEntity
  8
Edge.Cuts
 62
1
100
AcDbPolyline
 90
128
 70
1
 10
49.700234
 20
17.400232
 30
0.0
 10
49.704462
 20
17.233082
 30
0.0
 10
49.717007
 20
17.068118
 30
0.0
 10
49.737668
 20
16.905547
 30
0.0
 10
49.766238
 20
16.745569
 30
0.0
 10
49.802515
 20
16.588396
 30
0.0
 10
49.846295
 20
16.434226
 30
0.0
 10
49.897373
 20
16.283265
 30
0.0
 10
49.955546
 20
16.135720
 30
0.0
 10
50.020609
 20
15.991790
 30
0.0
 10
50.092360
 20
15.851688
 30
0.0
 10
50.170592
 20
15.715612
 30
0.0
 10
50.255103
 20
15.583768
 30
0.0
 10
50.345686
 20
15.456363
 30
0.0
 10
50.442142
 20
15.333600
 30
0.0
 10
50.544264
 20
15.215681
 30
0.0
 10
50.651851
 20
15.102813
 30
0.0
 10
50.764694
 20
14.995202
 30
0.0
 10
50.882592
 20
14.893052
 30
0.0
 10
51.005341
 20
14.796567
 30
0.0
 10
51.132735
 20
14.705949
 30
0.0
 10
51.264575
 20
14.621403
 30
0.0
 10
51.400652
 20
14.543139
 30
0.0
 10
51.540765
 20
14.471356
 30
0.0
 10
51.684705
 20
14.406262
 30
0.0
 10
51.832275
 20
14.348060
 30
0.0
 10
51.983264
 20
14.296954
 30
0.0
 10
52.137477
 20
14.253149
 30
0.0
 10
52.294699
 20
14.216848
 30
0.0
 10
52.454736
 20
14.188259
 30
0.0
 10
52.617377
 20
14.167587
 30
0.0
 10
52.782420
 20
14.155031
 30
0.0
 10
52.949665
 20
14.150802
 30
0.0
 10
53.116973
 20
14.155031
 30
0.0
 10
53.282087
 20
14.167587
 30
0.0
 10
53.444788
 20
14.188259
 30
0.0
 10
53.604878
 20
14.216848
 30
0.0
 10
53.762146
 20
14.253149
 30
0.0
 10
53.916380
 20
14.296954
 30
0.0
 10
54.067439
 20
14.348060
 30
0.0
 10
54.215041
 20
14.406262
 30
0.0
 10
54.359010
 20
14.471356
 30
0.0
 10
54.499168
 20
14.543139
 30
0.0
 10
54.635269
 20
14.621403
 30
0.0
 10
54.767138
 20
14.705949
 30
0.0
 10
54.894561
 20
14.796567
 30
0.0
 10
55.017327
 20
14.893052
 30
0.0
 10
55.135225
 20
14.995202
 30
0.0
 10
55.248114
 20
15.102813
 30
0.0
 10
55.355711
 20
15.215681
 30
0.0
 10
55.457840
 20
15.333600
 30
0.0
 10
55.554289
 20
15.456363
 30
0.0
 10
55.644882
 20
15.583768
 30
0.0
 10
55.729408
 20
15.715612
 30
0.0
 10
55.807654
 20
15.851688
 30
0.0
 10
55.879409
 20
15.991790
 30
0.0
 10
55.944496
 20
16.135720
 30
0.0
 10
56.002669
 20
16.283265
 30
0.0
 10
56.053751
 20
16.434226
 30
0.0
 10
56.097531
 20
16.588396
 30
0.0
 10
56.133796
 20
16.745569
 30
0.0
 10
56.162371
 20
16.905547
 30
0.0
 10
56.183044
 20
17.068118
 30
0.0
 10
56.195568
 20
17.233082
 30
0.0
 10
56.199801
 20
17.400232
 30
0.0
 10
56.195568
 20
17.567414
 30
0.0
 10
56.183044
 20
17.732408
 30
0.0
 10
56.162371
 20
17.895009
 30
0.0
 10
56.133796
 20
18.055011
 30
0.0
 10
56.097531
 20
18.212209
 30
0.0
 10
56.053751
 20
18.366404
 30
0.0
 10
56.002669
 20
18.517382
 30
0.0
 10
55.944461
 20
18.664949
 30
0.0
 10
55.879409
 20
18.808896
 30
0.0
 10
55.807654
 20
18.949015
 30
0.0
 10
55.729408
 20
19.085106
 30
0.0
 10
55.644882
 20
19.216960
 30
0.0
 10
55.554289
 20
19.344380
 30
0.0
 10
55.457840
 20
19.467153
 30
0.0
 10
55.355711
 20
19.585083
 30
0.0
 10
55.248079
 20
19.697958
 30
0.0
 10
55.135225
 20
19.805576
 30
0.0
 10
55.017327
 20
19.907737
 30
0.0
 10
54.894561
 20
20.004228
 30
0.0
 10
54.767138
 20
20.094850
 30
0.0
 10
54.635269
 20
20.179396
 30
0.0
 10
54.499168
 20
20.257667
 30
0.0
 10
54.359010
 20
20.329454
 30
0.0
 10
54.215041
 20
20.394548
 30
0.0
 10
54.067439
 20
20.452753
 30
0.0
 10
53.916380
 20
20.503863
 30
0.0
 10
53.762146
 20
20.547667
 30
0.0
 10
53.604878
 20
20.583968
 30
0.0
 10
53.444788
 20
20.612557
 30
0.0
 10
53.282087
 20
20.633230
 30
0.0
 10
53.116973
 20
20.645785
 30
0.0
 10
52.949665
 20
20.650015
 30
0.0
 10
52.782420
 20
20.645785
 30
0.0
 10
52.617377
 20
20.633230
 30
0.0
 10
52.454736
 20
20.612557
 30
0.0
 10
52.294699
 20
20.583968
 30
0.0
 10
52.137477
 20
20.547667
 30
0.0
 10
51.983264
 20
20.503863
 30
0.0
 10
51.832275
 20
20.452753
 30
0.0
 10
51.684705
 20
20.394548
 30
0.0
 10
51.540765
 20
20.329454
 30
0.0
 10
51.400652
 20
20.257667
 30
0.0
 10
51.264575
 20
20.179396
 30
0.0
 10
51.132735
 20
20.094850
 30
0.0
 10
51.005341
 20
20.004228
 30
0.0
 10
50.882592
 20
19.907737
 30
0.0
 10
50.764694
 20
19.805576
 30
0.0
 10
50.651851
 20
19.697958
 30
0.0
 10
50.544264
 20
19.585083
 30
0.0
 10
50.442142
 20
19.467153
 30
0.0
 10
50.345686
 20
19.344380
 30
0.0
 10
50.255103
 20
19.216960
 30
0.0
 10
50.170592
 20
19.085106
 30
0.0
 10
50.092360
 20
18.949015
 30
0.0
 10
50.020609
 20
18.808896
 30
0.0
 10
49.955546
 20
18.664949
 30
0.0
 10
49.897373
 20
18.517382
 30
0.0
 10
49.846295
 20
18.366404
 30
0.0
 10
49.802515
 20
18.212209
 30
0.0
 10
49.766238
 20
18.055011
 30
0.0
 10
49.737668
 20
17.895009
 30
0.0
 10
49.717007
 20
17.732408
 30
0.0
 10
49.704462
 20
17.567414
 30
0.0
  0
LWPOLYLINE
  5
11a
100
AcDbEntity
  8
Edge.Cuts
 62
1
100
AcDbPolyline
 90
128
 70
1
 10
64.305350
 20
17.400232
 30
0.0
 10
64.309577
 20
17.233082
 30
0.0
 10
64.322123
 20
17.068118
 30
0.0
 10
64.342783
 20
16.905547
 30
0.0
 10
64.371354
 20
16.745569
 30
0.0
 10
64.407631
 20
16.588396
 30
0.0
 10
64.451411
 20
16.434226
 30
0.0
 10
64.502489
 20
16.283265
 30
0.0
 10
64.560662
 20
16.135720
 30
0.0
 10
64.625725
 20
15.991790
 30
0.0
 10
64.697476
 20
15.851688
 30
0.0
 10
64.775708
 20
15.715612
 30
0.0
 10
64.860219
 20
15.583768
 30
0.0
 10
64.950802
 20
15.456363
 30
0.0
 10
65.047258
 20
15.333600
 30
0.0
 10
65.149380
 20
15.215681
 30
0.0
 10
65.256966
 20
15.102813
 30
0.0
 10
65.369809
 20
14.995202
 30
0.0
 10
65.487707
 20
14.893052
 30
0.0
 10
65.610456
 20
14.796567
 30
0.0
 10
65.737851
 20
14.705949
 30
0.0
 10
65.869691
 20
14.621403
 30
0.0
 10
66.005768
 20
14.543139
 30
0.0
 10
66.145880
 20
14.471356
 30
0.0
 10
66.289820
 20
14.406262
 30
0.0
 10
66.437391
 20
14.348060
 30
0.0
 10
66.588379
 20
14.296954
 30
0.0
 10
66.742592
 20
14.253149
 30
0.0
 10
66.899814
 20
14.216848
 30
0.0
 10
67.059852
 20
14.188259
 30
0.0
 10
67.222493
 20
14.167587
 30
0.0
 10
67.387536
 20
14.155031
 30
0.0
 10
67.554780
 20
14.150802
 30
0.0
 10
67.722029
 20
14.155031
 30
0.0
 10
67.887097
 20
14.167587
 30
0.0
 10
68.049762
 20
14.188259
 30
0.0
 10
68.209817
 20
14.216848
 30
0.0
 10
68.367050
 20
14.253149
 30
0.0
 10
68.521319
 20
14.296954
 30
0.0
 10
68.672343
 20
14.348060
 30
0.0
 10
68.819945
 20
14.406262
 30
0.0
 10
68.963949
 20
14.471356
 30
0.0
 10
69.104107
 20
14.543139
 30
0.0
 10
69.240244
 20
14.621403
 30
0.0
 10
69.372147
 20
14.705949
 30
0.0
 10
69.499606
 20
14.796567
 30
0.0
 10
69.622443
 20
14.893052
 30
0.0
 10
69.740376
 20
14.995202
 30
0.0
 10
69.853300
 20
15.102813
 30
0.0
 10
69.960968
 20
15.215681
 30
0.0
 10
70.063132
 20
15.333600
 30
0.0
 10
70.159652
 20
15.456363
 30
0.0
 10
70.250316
 20
15.583768
 30
0.0
 10
70.334876
 20
15.715612
 30
0.0
 10
70.413157
 20
15.851688
 30
0.0
 10
70.484983
 20
15.991790
 30
0.0
 10
70.550106
 20
16.135720
 30
0.0
 10
70.608314
 20
16.283265
 30
0.0
 10
70.659431
 20
16.434226
 30
0.0
 10
70.703246
 20
16.588396
 30
0.0
 10
70.739547
 20
16.745569
 30
0.0
 10
70.768157
 20
16.905547
 30
0.0
 10
70.788830
 20
17.068118
 30
0.0
 10
70.801389
 20
17.233082
 30
0.0
 10
70.805622
 20
17.400232
 30
0.0
 10
70.801389
 20
17.567414
 30
0.0
 10
70.788830
 20
17.732408
 30
0.0
 10
70.768157
 20
17.895009
 30
0.0
 10
70.739547
 20
18.055011
 30
0.0
 10
70.703246
 20
18.212209
 30
0.0
 10
70.659431
 20
18.366404
 30
0.0
 10
70.608314
 20
18.517382
 30
0.0
 10
70.550106
 20
18.664949
 30
0.0
 10
70.484983
 20
18.808896
 30
0.0
 10
70.413157
 20
18.949015
 30
0.0
 10
70.334876
 20
19.085106
 30
0.0
 10
70.250316
 20
19.216960
 30
0.0
 10
70.159652
 20
19.344380
 30
0.0
 10
70.063132
 20
19.467153
 30
0.0
 10
69.960968
 20
19.585083
 30
0.0
 10
69.853300
 20
19.697958
 30
0.0
 10
69.740376
 20
19.805576
 30
0.0
 10
69.622443
 20
19.907737
 30
0.0
 10
69.499606
 20
20.004228
 30
0.0
 10
69.372147
 20
20.094850
 30
0.0
 10
69.240244
 20
20.179396
 30
0.0
 10
69.104107
 20
20.257667
 30
0.0
 10
68.963949
 20
20.329454
 30
0.0
 10
68.819945
 20
20.394548
 30
0.0
 10
68.672343
 20
20.452753
 30
0.0
 10
68.521319
 20
20.503863
 30
0.0
 10
68.367050
 20
20.547667
 30
0.0
 10
68.209817
 20
20.583968
 30
0.0
 10
68.049762
 20
20.612557
 30
0.0
 10
67.887097
 20
20.633230
 30
0.0
 10
67.722029
 20
20.645785
 30
0.0
 10
67.554780
 20
20.650015
 30
0.0
 10
67.387536
 20
20.645785
 30
0.0
 10
67.222493
 20
20.633230
 30
0.0
 10
67.059852
 20
20.612557
 30
0.0
 10
66.899814
 20
20.583968
 30
0.0
 10
66.742592
 20
20.547667
 30
0.0
 10
66.588379
 20
20.503863
 30
0.0
 10
66.437391
 20
20.452753
 30
0.0
 10
66.289820
 20
20.394548
 30
0.0
 10
66.145880
 20
20.329454
 30
0.0
 10
66.005768
 20
20.257667
 30
0.0
 10
65.869691
 20
20.179396
 30
0.0
 10
65.737851
 20
20.094850
 30
0.0
 10
65.610456
 20
20.004228
 30
0.0
 10
65.487707
 20
19.907737
 30
0.0
 10
65.369809
 20
19.805576
 30
0.0
 10
65.256966
 20
19.697958
 30
0.0
 10
65.149380
 20
19.585083
 30
0.0
 10
65.047258
 20
19.467153
 30
0.0
 10
64.950802
 20
19.344380
 30
0.0
 10
64.860219
 20
19.216960
 30
0.0
 10
64.775708
 20
19.085106
 30
0.0
 10
64.697476
 20
18.949015
 30
0.0
 10
64.625725
 20
18.808896
 30
0.0
 10
64.560662
 20
18.664949
 30
0.0
 10
64.502489
 20
18.517382
 30
0.0
 10
64.451411
 20
18.366404
 30
0.0
 10
64.407631
 20
18.212209
 30
0.0
 10
64.371354
 20
18.055011
 30
0.0
 10
64.342783
 20
17.895009
 30
0.0
 10
64.322123
 20
17.732408
 30
0.0
 10
64.309577
 20
17.567414
 30
0.0
  0
LWPOLYLINE
  5
11b
100
AcDbEntity
  8
Edge.Cuts
 62
1
100
AcDbPolyline
 90
128
 70
1
 10
78.910430
 20
17.400232
 30
0.0
 10
78.914656
 20
17.233082
 30
0.0
 10
78.927196
 20
17.068118
 30
0.0
 10
78.947847
 20
16.905547
 30
0.0
 10
78.976405
 20
16.745569
 30
0.0
 10
79.012668
 20
16.588396
 30
0.0
 10
79.056430
 20
16.434226
 30
0.0
 10
79.107490
 20
16.283265
 30
0.0
 10
79.165643
 20
16.135720
 30
0.0
 10
79.230685
 20
15.991790
 30
0.0
 10
79.302412
 20
15.851688
 30
0.0
 10
79.380622
 20
15.715612
 30
0.0
 10
79.465113
 20
15.583768
 30
0.0
 10
79.555677
 20
15.456363
 30
0.0
 10
79.652113
 20
15.333600
 30
0.0
 10
79.754213
 20
15.215681
 30
0.0
 10
79.861782
 20
15.102813
 30
0.0
 10
79.974611
 20
14.995202
 30
0.0
 10
80.092495
 20
14.893052
 30
0.0
 10
80.215233
 20
14.796567
 30
0.0
 10
80.342625
 20
14.705949
 30
0.0
 10
80.474457
 20
14.621403
 30
0.0
 10
80.610534
 20
14.543139
 30
0.0
 10
80.750650
 20
14.471356
 30
0.0
 10
80.894604
 20
14.406262
 30
0.0
 10
81.042189
 20
14.348060
 30
0.0
 10
81.193198
 20
14.296954
 30
0.0
 10
81.347436
 20
14.253149
 30
0.0
 10
81.504694
 20
14.216848
 30
0.0
 10
81.664766
 20
14.188259
 30
0.0
 10
81.827457
 20
14.167587
 30
0.0
 10
81.992556
 20
14.155031
 30
0.0
 10
82.159861
 20
14.150802
 30
0.0
 10
82.327042
 20
14.155031
 30
0.0
 10
82.492036
 20
14.167587
 30
0.0
 10
82.654631
 20
14.188259
 30
0.0
 10
82.814615
 20
14.216848
 30
0.0
 10
82.971813
 20
14.253149
 30
0.0
 10
83.126012
 20
14.296954
 30
0.0
 10
83.276965
 20
14.348060
 30
0.0
 10
83.424532
 20
14.406262
 30
0.0
 10
83.568465
 20
14.471356
 30
0.0
 10
83.708553
 20
14.543139
 30
0.0
 10
83.844654
 20
14.621403
 30
0.0
 10
83.976487
 20
14.705949
 30
0.0
 10
84.103875
 20
14.796567
 30
0.0
 10
84.226641
 20
14.893052
 30
0.0
 10
84.344539
 20
14.995202
 30
0.0
 10
84.457428
 20
15.102813
 30
0.0
 10
84.565025
 20
15.215681
 30
0.0
 10
84.667154
 20
15.333600
 30
0.0
 10
84.763639
 20
15.456363
 30
0.0
 10
84.854232
 20
15.583768
 30
0.0
 10
84.938757
 20
15.715612
 30
0.0
 10
85.017038
 20
15.851688
 30
0.0
 10
85.088793
 20
15.991790
 30
0.0
 10
85.153881
 20
16.135720
 30
0.0
 10
85.212089
 20
16.283265
 30
0.0
 10
85.263171
 20
16.434226
 30
0.0
 10
85.306951
 20
16.588396
 30
0.0
 10
85.343251
 20
16.745569
 30
0.0
 10
85.371826
 20
16.905547
 30
0.0
 10
85.392499
 20
17.068118
 30
0.0
 10
85.405058
 20
17.233082
 30
0.0
 10
85.409291
 20
17.400232
 30
0.0
 10
85.405058
 20
17.567414
 30
0.0
 10
85.392499
 20
17.732408
 30
0.0
 10
85.371826
 20
17.895009
 30
0.0
 10
85.343251
 20
18.055011
 30
0.0
 10
85.306951
 20
18.212209
 30
0.0
 10
85.263171
 20
18.366404
 30
0.0
 10
85.212089
 20
18.517382
 30
0.0
 10
85.153881
 20
18.664949
 30
0.0
 10
85.088793
 20
18.808896
 30
0.0
 10
85.017038
 20
18.949015
 30
0.0
 10
84.938757
 20
19.085106
 30
0.0
 10
84.854232
 20
19.216960
 30
0.0
 10
84.763639
 20
19.344380
 30
0.0
 10
84.667154
 20
19.467153
 30
0.0
 10
84.565025
 20
19.585083
 30
0.0
 10
84.457428
 20
19.697958
 30
0.0
 10
84.344539
 20
19.805576
 30
0.0
 10
84.226641
 20
19.907737
 30
0.0
 10
84.103875
 20
20.004228
 30
0.0
 10
83.976487
 20
20.094850
 30
0.0
 10
83.844654
 20
20.179396
 30
0.0
 10
83.708553
 20
20.257667
 30
0.0
 10
83.568465
 20
20.329454
 30
0.0
 10
83.424532
 20
20.394548
 30
0.0
 10
83.276965
 20
20.452753
 30
0.0
 10
83.126012
 20
20.503863
 30
0.0
 10
82.971813
 20
20.547667
 30
0.0
 10
82.814615
 20
20.583968
 30
0.0
 10
82.654631
 20
20.612557
 30
0.0
 10
82.492036
 20
20.633230
 30
0.0
 10
82.327042
 20
20.645785
 30
0.0
 10
82.159861
 20
20.650015
 30
0.0
 10
81.992556
 20
20.645785
 30
0.0
 10
81.827457
 20
20.633230
 30
0.0
 10
81.664766
 20
20.612557
 30
0.0
 10
81.504694
 20
20.583968
 30
0.0
 10
81.347436
 20
20.547667
 30
0.0
 10
81.193198
 20
20.503863
 30
0.0
 10
81.042189
 20
20.452753
 30
0.0
 10
80.894604
 20
20.394548
 30
0.0
 10
80.750650
 20
20.329454
 30
0.0
 10
80.610534
 20
20.257667
 30
0.0
 10
80.474457
 20
20.179396
 30
0.0
 10
80.342625
 20
20.094850
 30
0.0
 10
80.215233
 20
20.004228
 30
0.0
 10
80.092495
 20
19.907737
 30
0.0
 10
79.974611
 20
19.805576
 30
0.0
 10
79.861782
 20
19.697958
 30
0.0
 10
79.754213
 20
19.585083
 30
0.0
 10
79.652113
 20
19.467153
 30
0.0
 10
79.555677
 20
19.344380
 30
0.0
 10
79.465113
 20
19.216960
 30
0.0
 10
79.380622
 20
19.085106
 30
0.0
 10
79.302412
 20
18.949015
 30
0.0
 10
79.230685
 20
18.808896
 30
0.0
 10
79.165643
 20
18.664949
 30
0.0
 10
79.107490
 20
18.517382
 30
0.0
 10
79.056430
 20
18.366404
 30
0.0
 10
79.012668
 20
18.212209
 30
0.0
 10
78.976405
 20
18.055011
 30
0.0
 10
78.947847
 20
17.895009
 30
0.0
 10
78.927196
 20
17.732408
 30
0.0
 10
78.914656
 20
17.567414
 30
0.0
  0
LWPOLYLINE
  5
11c
100
AcDbEntity
  8
Edge.Cuts
 62
1
100
AcDbPolyline
 90
64
 70
1
 10
82.099218
 20
3.001136
 30
0.0
 10
82.107496
 20
2.837539
 30
0.0
 10
82.131788
 20
2.678672
 30
0.0
 10
82.171284
 20
2.525342
 30
0.0
 10
82.225171
 20
2.378347
 30
0.0
 10
82.292639
 20
2.238495
 30
0.0
 10
82.372876
 20
2.106588
 30
0.0
 10
82.465070
 20
1.983430
 30
0.0
 10
82.568412
 20
1.869822
 30
0.0
 10
82.682087
 20
1.766575
 30
0.0
 10
82.805288
 20
1.674482
 30
0.0
 10
82.937202
 20
1.594356
 30
0.0
 10
83.077018
 20
1.526997
 30
0.0
 10
83.223921
 20
1.473205
 30
0.0
 10
83.377104
 20
1.433789
 30
0.0
 10
83.535755
 20
1.409550
 30
0.0
 10
83.699063
 20
1.401291
 30
0.0
 10
83.862720
 20
1.409550
 30
0.0
 10
84.021628
 20
1.433789
 30
0.0
 10
84.174991
 20
1.473205
 30
0.0
 10
84.322000
 20
1.526997
 30
0.0
 10
84.461862
 20
1.594356
 30
0.0
 10
84.593766
 20
1.674482
 30
0.0
 10
84.716917
 20
1.766575
 30
0.0
 10
84.830507
 20
1.869822
 30
0.0
 10
84.933737
 20
1.983430
 30
0.0
 10
85.025808
 20
2.106588
 30
0.0
 10
85.105914
 20
2.238495
 30
0.0
 10
85.173252
 20
2.378347
 30
0.0
 10
85.227022
 20
2.525342
 30
0.0
 10
85.266424
 20
2.678672
 30
0.0
 10
85.290652
 20
2.837539
 30
0.0
 10
85.298907
 20
3.001136
 30
0.0
 10
85.290652
 20
3.164501
 30
0.0
 10
85.266424
 20
3.323195
 30
0.0
 10
85.227022
 20
3.476408
 30
0.0
 10
85.173252
 20
3.623329
 30
0.0
 10
85.105914
 20
3.763152
 30
0.0
 10
85.025808
 20
3.895063
 30
0.0
 10
84.933737
 20
4.018256
 30
0.0
 10
84.830507
 20
4.131921
 30
0.0
 10
84.716917
 20
4.235242
 30
0.0
 10
84.593766
 20
4.327416
 30
0.0
 10
84.461862
 20
4.407630
 30
0.0
 10
84.322000
 20
4.475078
 30
0.0
 10
84.174991
 20
4.528947
 30
0.0
 10
84.021628
 20
4.568426
 30
0.0
 10
83.862720
 20
4.592708
 30
0.0
 10
83.699063
 20
4.600980
 30
0.0
 10
83.535755
 20
4.592708
 30
0.0
 10
83.377104
 20
4.568426
 30
0.0
 10
83.223921
 20
4.528947
 30
0.0
 10
83.077018
 20
4.475078
 30
0.0
 10
82.937202
 20
4.407630
 30
0.0
 10
82.805288
 20
4.327416
 30
0.0
 10
82.682087
 20
4.235242
 30
0.0
 10
82.568412
 20
4.131921
 30
0.0
 10
82.465070
 20
4.018256
 30
0.0
 10
82.372876
 20
3.895063
 30
0.0
 10
82.292639
 20
3.763152
 30
0.0
 10
82.225171
 20
3.623329
 30
0.0
 10
82.171284
 20
3.476408
 30
0.0
 10
82.131788
 20
3.323195
 30
0.0
 10
82.107496
 20
3.164501
 30
0.0
  0
LWPOLYLINE
  5
11d
100
AcDbEntity
  8
Edge.Cuts
 62
1
100
AcDbPolyline
 90
64
 70
1
 10
5.899351
 20
3.001136
 30
0.0
 10
5.907606
 20
2.837539
 30
0.0
 10
5.931834
 20
2.678672
 30
0.0
 10
5.971235
 20
2.525342
 30
0.0
 10
6.025006
 20
2.378347
 30
0.0
 10
6.092345
 20
2.238495
 30
0.0
 10
6.172451
 20
2.106588
 30
0.0
 10
6.264518
 20
1.983430
 30
0.0
 10
6.367751
 20
1.869822
 30
0.0
 10
6.481342
 20
1.766575
 30
0.0
 10
6.604493
 20
1.674482
 30
0.0
 10
6.736396
 20
1.594356
 30
0.0
 10
6.876258
 20
1.526997
 30
0.0
 10
7.023268
 20
1.473205
 30
0.0
 10
7.176630
 20
1.433789
 30
0.0
 10
7.335539
 20
1.409550
 30
0.0
 10
7.499196
 20
1.401291
 30
0.0
 10
7.662853
 20
1.409550
 30
0.0
 10
7.821761
 20
1.433789
 30
0.0
 10
7.975124
 20
1.473205
 30
0.0
 10
8.122133
 20
1.526997
 30
0.0
 10
8.261995
 20
1.594356
 30
0.0
 10
8.393899
 20
1.674482
 30
0.0
 10
8.517050
 20
1.766575
 30
0.0
 10
8.630640
 20
1.869822
 30
0.0
 10
8.733870
 20
1.983430
 30
0.0
 10
8.825941
 20
2.106588
 30
0.0
 10
8.906046
 20
2.238495
 30
0.0
 10
8.973385
 20
2.378347
 30
0.0
 10
9.027155
 20
2.525342
 30
0.0
 10
9.066557
 20
2.678672
 30
0.0
 10
9.090785
 20
2.837539
 30
0.0
 10
9.099040
 20
3.001136
 30
0.0
 10
9.090785
 20
3.164501
 30
0.0
 10
9.066557
 20
3.323195
 30
0.0
 10
9.027155
 20
3.476408
 30
0.0
 10
8.973385
 20
3.623329
 30
0.0
 10
8.906046
 20
3.763152
 30
0.0
 10
8.825941
 20
3.895063
 30
0.0
 10
8.733870
 20
4.018256
 30
0.0
 10
8.630640
 20
4.131921
 30
0.0
 10
8.517050
 20
4.235242
 30
0.0
 10
8.393899
 20
4.327416
 30
0.0
 10
8.261995
 20
4.407630
 30
0.0
 10
8.122133
 20
4.475078
 30
0.0
 10
7.975124
 20
4.528947
 30
0.0
 10
7.821761
 20
4.568426
 30
0.0
 10
7.662853
 20
4.592708
 30
0.0
 10
7.499196
 20
4.600980
 30
0.0
 10
7.335539
 20
4.592708
 30
0.0
 10
7.176630
 20
4.568426
 30
0.0
 10
7.023268
 20
4.528947
 30
0.0
 10
6.876258
 20
4.475078
 30
0.0
 10
6.736396
 20
4.407630
 30
0.0
 10
6.604493
 20
4.327416
 30
0.0
 10
6.481342
 20
4.235242
 30
0.0
 10
6.367751
 20
4.131921
 30
0.0
 10
6.264518
 20
4.018256
 30
0.0
 10
6.172451
 20
3.895063
 30
0.0
 10
6.092345
 20
3.763152
 30
0.0
 10
6.025006
 20
3.623329
 30
0.0
 10
5.971235
 20
3.476408
 30
0.0
 10
5.931834
 20
3.323195
 30
0.0
 10
5.907606
 20
3.164501
 30
0.0
  0
LWPOLYLINE
  5
11e
100
AcDbEntity
  8
Edge.Cuts
 62
1
100
AcDbPolyline
 90
4
 70
1
 10
0.062816
 20
128.417909
 30
0.0
 10
91.362603
 20
128.417909
 30
0.0
 10
91.362603
 20
-0.081878
 30
0.0
 10
0.062816
 20
-0.081878
 30
0.0
  0
ENDSEC
  0
SECTION
  2
OBJECTS
  0
DICTIONARY
  5
C
330
0
100
AcDbDictionary
  3
ACAD_GROUP
350
D
  3
ACAD_MLINESTYLE
350
17
  0
DICTIONARY
  5
D
330
C
100
AcDbDictionary
  0
DICTIONARY
  5
1A
330
C
100
AcDbDictionary
  0
DICTIONARY
  5
17
330
C
100
AcDbDictionary
  3
STANDARD
350
18
  0
DICTIONARY
  5
19
330
C
100
AcDbDictionary
  0
ENDSEC
  0
EOF
